<?xml version="1.0" encoding="utf-8"?>
<!-- Generator: Adobe Illustrator 16.0.0, SVG Export Plug-In . SVG Version: 6.00 Build 0)  -->
<!DOCTYPE svg PUBLIC "-//W3C//DTD SVG 1.1//EN" "http://www.w3.org/Graphics/SVG/1.1/DTD/svg11.dtd">
<svg version="1.1" id="Layer_1" xmlns="http://www.w3.org/2000/svg" xmlns:xlink="http://www.w3.org/1999/xlink" x="0px" y="0px"
	 width="42.52px" height="42.52px" viewBox="0 0 42.52 42.52" enable-background="new 0 0 42.52 42.52" xml:space="preserve">
<g>
	<path d="M20.813,20.772c-0.138,0-0.25,0.111-0.25,0.25c0,0.137,0.112,0.25,0.25,0.25h2.125c0.138,0,0.25-0.113,0.25-0.25
		c0-0.139-0.112-0.25-0.25-0.25H20.813z"/>
	<path d="M19.813,19.067h3.292c0.138,0,0.25-0.111,0.25-0.25s-0.112-0.25-0.25-0.25h-3.292c-0.138,0-0.25,0.111-0.25,0.25
		S19.676,19.067,19.813,19.067z"/>
	<path d="M19.313,31.741c-0.138,0-0.25,0.111-0.25,0.25s0.112,0.25,0.25,0.25h4.209c0.138,0,0.25-0.111,0.25-0.25
		s-0.112-0.25-0.25-0.25H19.313z"/>
	<path d="M25.228,19.317c0.276,0,0.5-0.223,0.5-0.5v-4.535c0-0.277-0.224-0.5-0.5-0.5h-0.56c0.009-0.037,0.013-0.072,0.013-0.111
		v-0.773c0-0.275-0.224-0.5-0.5-0.5h-5.104c-0.276,0-0.5,0.225-0.5,0.5v0.691c0,0.068,0.014,0.133,0.038,0.193h-0.76
		c-0.276,0-0.5,0.223-0.5,0.5v4.535c0,0.277,0.224,0.5,0.5,0.5h0.416v1.205h-0.416c-0.276,0-0.5,0.223-0.5,0.5v12.582
		c0,0.277,0.224,0.5,0.5,0.5h7.372c0.276,0,0.5-0.223,0.5-0.5V21.022c0-0.277-0.224-0.5-0.5-0.5h-0.417v-1.205H25.228z
		 M24.728,18.317h-0.417c-0.276,0-0.5,0.225-0.5,0.5v2.205c0,0.275,0.224,0.5,0.5,0.5h0.417v11.582h-6.372V21.522h0.416
		c0.276,0,0.5-0.225,0.5-0.5v-2.205c0-0.275-0.224-0.5-0.5-0.5h-0.416v-3.535h1.201c0.276,0,0.5-0.225,0.5-0.5v-0.693
		c0-0.068-0.014-0.133-0.038-0.191h3.132c-0.051,0.078-0.081,0.172-0.081,0.273v0.611c0,0.275,0.224,0.5,0.5,0.5h1.158V18.317z"/>
	<path d="M18.577,11.688c0,0.275,0.224,0.5,0.5,0.5h5.104c0.276,0,0.5-0.225,0.5-0.5v-0.686c0-0.275-0.224-0.5-0.5-0.5H23.35v-0.006
		c0.14-0.184,0.284-0.494,0.284-0.984c0-0.758-0.708-1.098-1.417-1.098h-0.959c-0.612,0-1.228,0.326-1.347,0.947
		c-0.935,0.018-1.688,0.119-2.223,0.309c-0.741,0.264-0.896,0.629-0.896,0.889c0,0.568,0.727,1,1.785,1.104V11.688z M21.258,9.415
		h0.966c0.182,0,0.376,0.057,0.41,0.098c0,0.277-0.054,0.371-0.052,0.363c-0.143,0.09-0.229,0.246-0.23,0.416H21.28
		c-0.038-0.123-0.104-0.23-0.229-0.287c-0.018-0.01-0.165-0.107-0.165-0.422C20.886,9.433,21.258,9.415,21.258,9.415z M17.292,10.56
		c0-0.1,0.147-0.27,0.564-0.418c0.339-0.119,0.985-0.256,2.072-0.277c0.044,0.264,0.125,0.494,0.242,0.656h-1.094
		c-0.276,0-0.5,0.225-0.5,0.5v0.139C17.734,11.063,17.292,10.745,17.292,10.56z"/>
</g>
</svg>
