<?xml version="1.0" encoding="utf-8"?>
<!-- Generator: Adobe Illustrator 16.0.0, SVG Export Plug-In . SVG Version: 6.00 Build 0)  -->
<!DOCTYPE svg PUBLIC "-//W3C//DTD SVG 1.1//EN" "http://www.w3.org/Graphics/SVG/1.1/DTD/svg11.dtd">
<svg version="1.1" id="Layer_1" xmlns="http://www.w3.org/2000/svg" xmlns:xlink="http://www.w3.org/1999/xlink" x="0px" y="0px"
	 width="42.52px" height="42.52px" viewBox="0 0 42.52 42.52" enable-background="new 0 0 42.52 42.52" xml:space="preserve">
<g>
	<path d="M31.415,20.351c-0.518-1.413-1.186-2.688-1.985-3.788c-0.154-0.213-0.448-0.269-0.669-0.13
		c-1.723,1.077-2.765,1.667-3.387,1.99c0.385-0.586,1.076-1.559,2.317-3.152c0.164-0.21,0.134-0.512-0.068-0.686
		c-1.436-1.236-3.114-2.002-4.989-2.275c-0.263-0.041-0.518,0.142-0.564,0.408c-0.363,2.084-0.653,3.425-0.857,4.188
		c-0.249-0.666-0.656-1.913-1.293-4.234c-0.067-0.242-0.301-0.396-0.556-0.361c-1.716,0.254-3.238,0.924-4.525,1.992
		c-0.194,0.162-0.238,0.443-0.101,0.656c1.218,1.885,1.812,2.949,2.104,3.541c-0.548-0.324-1.513-0.963-3.186-2.221
		c-0.11-0.081-0.247-0.113-0.382-0.094c-0.134,0.023-0.254,0.099-0.331,0.211c-0.776,1.131-1.397,2.457-1.847,3.941
		c-0.074,0.244,0.048,0.504,0.282,0.604l4.192,1.789c0.062,0.026,0.129,0.04,0.196,0.04H27.15c0.072,0,0.144-0.016,0.209-0.046
		l3.795-1.748C31.392,20.868,31.505,20.595,31.415,20.351z M27.041,21.771H15.869l-3.681-1.57c0.344-1.029,0.777-1.969,1.294-2.803
		c3.26,2.421,3.764,2.434,4.007,2.434c0.069,0,0.279-0.049,0.363-0.105c0.419-0.285,0.782-0.532-2.028-4.927
		c0.954-0.708,2.045-1.187,3.251-1.425c1.434,5.166,1.751,5.166,2.185,5.166c0.473,0,0.79,0,1.708-5.158
		c1.337,0.268,2.557,0.824,3.635,1.66c-3.066,3.969-2.857,4.219-2.573,4.562c0.096,0.113,0.32,0.207,0.469,0.207
		c0.216,0,0.71,0,4.389-2.279c0.551,0.818,1.028,1.734,1.425,2.732L27.041,21.771z"/>
	<path d="M28.844,25.698c-0.122-0.054-3.03-1.301-7.584-1.301c-4.533,0-7.281,0.921-7.396,0.96
		c-0.167,0.057-0.292,0.197-0.328,0.369c-0.012,0.058-0.281,1.422,0.958,3.1c1.21,1.637,4.106,2.193,4.769,2.296
		c0.492,0,0.638-0.485,0.821-1.099c0.215-0.715,0.538-1.793,1.164-1.793c0.554,0.013,0.795,0.691,1.052,1.578
		c0.18,0.618,0.321,1.106,0.746,1.277c0.132,0.053,0.285,0.078,0.469,0.078c0.727,0,1.99-0.429,3.468-1.175
		c2.199-1.112,2.365-3.073,2.146-3.954C29.092,25.884,28.986,25.759,28.844,25.698z M26.531,29.096
		c-1.557,0.786-2.579,1.067-3.017,1.067c-0.017,0-0.031-0.001-0.043-0.002c-0.065-0.129-0.148-0.414-0.211-0.631
		c-0.263-0.904-0.658-2.27-2.026-2.301c-1.356,0-1.827,1.568-2.108,2.505c-0.031,0.104-0.068,0.229-0.103,0.334
		c-0.815-0.169-2.882-0.696-3.725-1.839c-0.664-0.896-0.787-1.64-0.798-2.021c0.83-0.231,3.258-0.812,6.759-0.812
		c3.589,0,6.145,0.827,6.931,1.118C28.226,27.035,28.127,28.289,26.531,29.096z"/>
	<path d="M19.619,25.734h-0.228c-1.221,0-2.458-0.006-4.463,0.674c-0.065,0.023-0.119,0.071-0.147,0.135
		c-0.028,0.062-0.03,0.135-0.003,0.199c0.062,0.15,0.633,1.489,1.287,1.941c0.044,0.031,0.094,0.045,0.143,0.045
		c0.079,0,0.157-0.037,0.206-0.107c0.078-0.114,0.05-0.27-0.063-0.348c-0.375-0.26-0.783-1.013-1.001-1.477
		c1.772-0.568,2.881-0.562,4.041-0.562h0.229c0.138,0,0.25-0.111,0.25-0.25S19.757,25.734,19.619,25.734z"/>
	<path d="M21.26,20.916c-2.707,0-5.022-0.287-5.046-0.29c-0.153-0.024-0.263,0.08-0.279,0.217c-0.018,0.137,0.08,0.262,0.217,0.279
		c0.023,0.003,2.368,0.294,5.108,0.294c2.738,0,5.301-0.29,5.38-0.306l2.75-0.959c0.131-0.045,0.199-0.188,0.154-0.317
		c-0.046-0.131-0.187-0.201-0.318-0.153l-2.696,0.945C26.504,20.628,23.97,20.916,21.26,20.916z"/>
</g>
</svg>
