<?xml version="1.0" encoding="utf-8"?>
<!-- Generator: Adobe Illustrator 16.0.0, SVG Export Plug-In . SVG Version: 6.00 Build 0)  -->
<!DOCTYPE svg PUBLIC "-//W3C//DTD SVG 1.1//EN" "http://www.w3.org/Graphics/SVG/1.1/DTD/svg11.dtd">
<svg version="1.1" id="Layer_1" xmlns="http://www.w3.org/2000/svg" xmlns:xlink="http://www.w3.org/1999/xlink" x="0px" y="0px"
	 width="42.52px" height="42.52px" viewBox="0 0 42.52 42.52" enable-background="new 0 0 42.52 42.52" xml:space="preserve">
<path d="M28.158,24.96c-1.598-0.066-2.498-0.059-2.99-0.037l-0.273-2.127c0.75-0.934,1.199-1.963,1.406-2.514v3.119
	c0,0.15,0.068,0.293,0.186,0.389c0.037,0.029,0.857,0.684,2.102,0.684c0.096,0,0.195-0.004,0.297-0.012
	c1.301-0.107,2.227-0.539,2.266-0.557c0.174-0.082,0.285-0.256,0.287-0.447c0.004-0.338,0.102-8.312-0.002-10.535
	c-0.104-2.32-2.781-5.061-5.139-5.355c-0.285-0.373-0.688-0.68-1.252-0.836c-1.562-0.434-2.617,0.285-3.074,0.852
	c-0.234-0.018-0.459-0.047-0.711-0.047c-0.648,0-1.252,0.051-1.816,0.148c-0.406-0.574-1.496-1.412-3.15-0.953
	c-0.504,0.139-0.861,0.445-1.123,0.834c-2.232,0.271-5.154,2.848-5.27,5.357c-0.102,2.223-0.004,10.197,0,10.535
	c0.002,0.191,0.113,0.365,0.287,0.447c0.039,0.018,0.965,0.447,2.264,0.557c0.102,0.008,0.201,0.012,0.299,0.012
	c1.244,0,2.064-0.656,2.102-0.686c0.117-0.096,0.184-0.236,0.184-0.387v-3.426c0.344,0.23,0.686,0.295,0.93,0.301
	c0.195,0.457,0.588,1.27,1.188,2.078v2.742h-2.77c-3.928,0-5.078,7.594-5.125,7.918c-0.035,0.238,0.105,0.467,0.334,0.545
	c0.246,0.084,6.107,2.068,10.617,2.342c0.234,0.014,0.48,0.02,0.732,0.02c4.598,0,11.664-2.258,11.979-2.359
	c0.221-0.07,0.363-0.281,0.346-0.512C33.242,32.728,32.643,25.151,28.158,24.96z M30.438,12.968
	c0.09,1.941,0.021,8.574,0.004,10.145c-0.33,0.117-0.92,0.293-1.639,0.354c-0.691,0.051-1.232-0.182-1.502-0.334v-3.125
	c0.893-0.395,1.609-1.309,1.609-2.988c0-0.236-0.01-0.539-0.029-0.875c0-0.002,0.002-0.004,0.002-0.008s-0.002-0.006-0.002-0.012
	c-0.096-1.568-0.492-4.029-1.9-5.922c0.014-0.295,0.01-0.871-0.145-1.48C28.553,9.325,30.363,11.339,30.438,12.968z M24.777,7.694
	c0.668,0.186,0.967,0.779,1.1,1.352c-0.691-0.566-1.541-1.01-2.582-1.264C23.633,7.614,24.117,7.511,24.777,7.694z M16.561,7.694
	c0.881-0.246,1.455,0.014,1.777,0.268c-1.135,0.369-2.062,0.977-2.777,1.828C15.621,8.862,15.865,7.888,16.561,7.694z M14.6,11.362
	c-0.564,1.275-0.854,2.861-0.854,4.768c0,0.992,0.113,1.742,0.289,2.32v4.682c-0.27,0.152-0.805,0.391-1.5,0.334
	c-0.719-0.061-1.311-0.236-1.639-0.354c-0.018-1.57-0.086-8.205,0.002-10.145c0.082-1.771,2.094-3.738,3.803-4.283
	C14.443,9.769,14.549,10.956,14.6,11.362z M14.746,16.13c0-5.18,2.07-7.594,6.514-7.594c2.301,0,3.811,0.875,4.803,2.094
	c0.012,0.018,0.023,0.037,0.039,0.053c1.164,1.465,1.598,3.4,1.74,4.939c-9.139-0.146-9.842-3.545-9.848-3.572
	c-0.033-0.26-0.268-0.443-0.527-0.434c-0.264,0.018-0.467,0.234-0.469,0.498c0,0.039-0.039,3.684-2.248,4.15
	C14.75,16.218,14.746,16.177,14.746,16.13z M16.76,19.573c-0.072-0.201-0.27-0.328-0.479-0.328c-0.045,0-0.09,0.006-0.133,0.018
	c0,0-0.057,0.014-0.141,0.014c-0.623,0-1.045-0.742-1.195-2.023c1.816-0.293,2.682-1.996,3.012-3.559
	c1.131,1.258,3.809,2.846,10.078,2.934c0.004,0.135,0.008,0.27,0.008,0.391c0,1.941-1.117,2.23-1.781,2.23
	c-0.064,0-0.105-0.004-0.111-0.004c-0.24-0.031-0.469,0.121-0.539,0.354c-0.012,0.041-1.268,4.113-4.223,4.137l-0.025,0.5v-0.5
	C18.279,23.735,16.775,19.616,16.76,19.573z M23.742,29.052c-0.516,0.629-1.328,0.947-2.414,0.947c-1.123,0-1.986-0.33-2.562-0.98
	c-0.826-0.932-0.908-2.314-0.895-2.979c0.164-0.08,0.281-0.246,0.281-0.443v-2.133c0.805,0.723,1.824,1.271,3.078,1.271
	c0.002,0,0.033,0,0.033,0c1.113-0.01,2.014-0.438,2.74-1.033l0.232,1.822c0.016,0.123,0.084,0.23,0.18,0.311
	C24.49,26.47,24.576,28.034,23.742,29.052z M20.27,34.903c-3.715-0.227-8.547-1.705-9.955-2.158
	c0.393-2.184,1.686-6.648,4.068-6.648h2.488c-0.01,0.834,0.119,2.422,1.141,3.58c0.775,0.877,1.891,1.322,3.316,1.322
	c1.4,0,2.473-0.441,3.188-1.312c0.988-1.207,0.992-2.898,0.914-3.771c0.479-0.014,1.301-0.014,2.686,0.045
	c3.098,0.133,3.936,5.291,4.113,6.77C30.582,33.233,24.057,35.138,20.27,34.903z"/>
</svg>
