<?xml version="1.0" encoding="utf-8"?>
<!-- Generator: Adobe Illustrator 16.0.0, SVG Export Plug-In . SVG Version: 6.00 Build 0)  -->
<!DOCTYPE svg PUBLIC "-//W3C//DTD SVG 1.1//EN" "http://www.w3.org/Graphics/SVG/1.1/DTD/svg11.dtd">
<svg version="1.1" id="Layer_1" xmlns="http://www.w3.org/2000/svg" xmlns:xlink="http://www.w3.org/1999/xlink" x="0px" y="0px"
	 width="42.52px" height="42.52px" viewBox="0 0 42.52 42.52" enable-background="new 0 0 42.52 42.52" xml:space="preserve">
<path d="M32.141,27.11c-0.908-1.164-2.268-1.789-4.041-1.855c-1.539-0.059-2.459-0.049-2.967-0.029l-0.162-1.941
	c1.123-1.059,1.9-2.309,2.217-2.869c0.576-0.045,1.664-0.477,1.664-3.105c0-0.314-0.01-0.662-0.035-1.031
	c0.008-0.008,0.014-0.016,0.021-0.023c0.125-0.135,0.336-0.363,0.297-0.689c-0.029-0.254-0.057-0.527-0.084-0.811
	c-0.305-3.16-0.816-8.449-7.793-8.449c-5.203,0-7.48,4.365-7.875,8.451c-0.033,0.324,0.188,0.537,0.318,0.664
	c0.006,0.004,0.01,0.008,0.014,0.012c-0.018,0.326-0.025,0.656-0.025,0.99c0,1.701,0.141,3.955,1.355,4.02
	c0.322,0.529,1.043,1.619,2.049,2.604v2.338c-0.543-0.006-1.5-0.01-2.773,0.006c-1.523,0.018-2.744,0.543-3.627,1.559
	c-2.008,2.309-1.516,6.324-1.494,6.494c0.023,0.189,0.154,0.348,0.334,0.41c0.248,0.084,6.107,2.068,10.617,2.342
	c0.236,0.014,0.48,0.02,0.732,0.02c4.598,0,11.666-2.258,11.98-2.359c0.17-0.055,0.299-0.197,0.336-0.371
	C33.232,33.321,34.014,29.513,32.141,27.11z M14.396,14.702c0,0-0.002-0.002-0.004-0.004c0.215-1.93,1.316-7.393,6.865-7.393
	c6.068,0,6.49,4.361,6.797,7.545c0.025,0.244,0.047,0.479,0.072,0.701c-0.008,0.008-0.016,0.016-0.021,0.023
	c-0.426-0.164-0.975-0.41-1.494-0.896c-0.52-0.484-0.783-1.576-0.842-1.955c-0.023-0.148-0.111-0.279-0.24-0.355
	s-0.285-0.092-0.428-0.039c-0.039,0.014-3.93,1.441-6.525,2.184c-2.174,0.621-3.557,0.457-4.018,0.367
	C14.502,14.81,14.445,14.749,14.396,14.702z M15.74,19.646c-0.068-0.127-0.115-0.227-0.256-0.26
	c-0.041-0.01-0.078-0.014-0.111-0.014c-0.076,0-0.137,0.025-0.217,0.084c-0.006-0.002-0.467-0.346-0.467-3.033
	c0-0.172,0.01-0.34,0.016-0.51c0.752,0.096,2.154,0.131,4.146-0.439c2.049-0.586,4.883-1.588,6.055-2.01
	c0.15,0.572,0.457,1.418,1.023,1.945c0.688,0.643,1.4,0.943,1.893,1.129c0.014,0.268,0.029,0.537,0.029,0.771
	c0,1.557-0.416,2.109-0.812,2.109c-0.234-0.068-0.479,0.039-0.588,0.254c-0.021,0.043-2.232,4.332-5.252,4.355l-0.023,0.5v-0.5
	C18.16,24.028,15.764,19.688,15.74,19.646z M23.738,29.333c-0.539,0.637-1.369,0.959-2.467,0.959c-1.125,0-1.986-0.33-2.562-0.98
	c-0.83-0.936-0.91-2.326-0.895-2.986c0.047-0.021,0.094-0.043,0.129-0.078c0.098-0.094,0.15-0.223,0.15-0.357v-1.99
	c0.895,0.654,1.938,1.129,3.082,1.129c0.002,0,0.029,0,0.031,0c1.055-0.008,2.002-0.412,2.824-0.98l0.146,1.748
	c0.01,0.135,0.076,0.26,0.182,0.346c0.047,0.037,0.1,0.062,0.154,0.08C24.562,26.897,24.557,28.368,23.738,29.333z M32.27,32.993
	c-1.467,0.451-8.188,2.441-12.059,2.203c-3.803-0.23-8.775-1.777-10.049-2.189c-0.068-0.934-0.139-3.764,1.285-5.402
	c0.688-0.791,1.658-1.201,2.885-1.215c1.08-0.014,1.92-0.012,2.48-0.008c-0.01,0.83,0.115,2.426,1.143,3.588
	c0.775,0.877,1.891,1.322,3.316,1.322c1.406,0,2.494-0.443,3.232-1.316c1.025-1.211,1.066-2.912,1.012-3.76
	c0.521-0.012,1.332-0.008,2.545,0.037c1.465,0.057,2.572,0.551,3.289,1.471C32.672,29.415,32.4,32.118,32.27,32.993z"/>
</svg>
