<?xml version="1.0" encoding="utf-8"?>
<!-- Generator: Adobe Illustrator 16.0.0, SVG Export Plug-In . SVG Version: 6.00 Build 0)  -->
<!DOCTYPE svg PUBLIC "-//W3C//DTD SVG 1.1//EN" "http://www.w3.org/Graphics/SVG/1.1/DTD/svg11.dtd">
<svg version="1.1" id="Layer_1" xmlns="http://www.w3.org/2000/svg" xmlns:xlink="http://www.w3.org/1999/xlink" x="0px" y="0px"
	 width="42.52px" height="42.52px" viewBox="0 0 42.52 42.52" enable-background="new 0 0 42.52 42.52" xml:space="preserve">
<path d="M40.92,24.381l-0.193,0.005c-0.002-0.245-0.021-0.486-0.049-0.725l0.188-0.024c-0.027-0.203-0.064-0.409-0.107-0.606
	c0-0.006-0.004-0.008-0.004-0.014s-0.002-0.007-0.002-0.009v-0.004c0,0-0.002-0.006-0.002-0.01c0,0,0,0,0-0.002
	c0-0.004-0.004-0.004-0.004-0.01c0-0.002-0.002-0.008-0.002-0.01v-0.001c-0.004-0.023-0.01-0.044-0.016-0.067l-0.18,0.044
	c-0.055-0.239-0.123-0.472-0.203-0.699l0.174-0.062c-0.037-0.097-0.074-0.193-0.111-0.291c-0.004-0.004-0.004-0.007-0.004-0.009
	c-0.002,0-0.002,0-0.002-0.002c0-0.004-0.002-0.006-0.002-0.008c0,0,0-0.004-0.004-0.004c0-0.002,0-0.004-0.002-0.008l0,0
	c0-0.004,0-0.006-0.006-0.01c0,0,0,0,0-0.005c0,0,0,0,0-0.002c-0.004-0.004-0.004-0.004-0.004-0.006s-0.002-0.006-0.002-0.006
	c0-0.002-0.004-0.004-0.004-0.004c0-0.004,0-0.006,0-0.008c0,0,0-0.004-0.004-0.006c0,0,0-0.002,0-0.003
	c-0.002-0.002-0.002-0.006-0.004-0.008v-0.004c-0.002,0-0.002-0.006-0.006-0.008c-0.002-0.006-0.002-0.008-0.004-0.014
	c0-0.001-0.002-0.007-0.006-0.009c0,0,0,0,0-0.002c0-0.004,0-0.006-0.004-0.008c0-0.002,0-0.002,0-0.002
	c0-0.004-0.002-0.006-0.002-0.01c-0.002,0-0.002,0-0.002-0.002c0-0.004-0.004-0.006-0.004-0.007l-0.002-0.004
	c0-0.002-0.002-0.004-0.002-0.008c0-0.002,0-0.002-0.004-0.002c0-0.002-0.002-0.008-0.002-0.01c0,0,0,0,0-0.004
	c-0.002-0.002-0.002-0.004-0.006-0.006v-0.003c0-0.002,0-0.006-0.002-0.006c0-0.002,0-0.002,0-0.002
	c-0.004-0.004-0.004-0.008-0.006-0.01c-0.01-0.022-0.02-0.046-0.029-0.064c0-0.002,0-0.002,0-0.002
	c-0.002-0.004-0.002-0.006-0.006-0.012c-0.002-0.002-0.002-0.008-0.004-0.01l0,0c-0.004-0.003-0.004-0.005-0.006-0.009v-0.002
	c0-0.002-0.002-0.004-0.002-0.008c-0.004-0.002-0.004-0.002-0.004-0.002c0-0.002-0.002-0.008-0.002-0.01l0,0
	c0-0.005-0.006-0.005-0.006-0.009v-0.002c0-0.004-0.004-0.004-0.004-0.01l0,0c0-0.002-0.004-0.006-0.004-0.008
	c-0.002-0.002-0.002-0.002-0.002-0.002c0-0.006-0.002-0.008-0.006-0.012c0,0,0,0,0-0.002c-0.002-0.001-0.002-0.005-0.002-0.007
	c0,0,0,0,0-0.006c-0.004,0-0.004-0.004-0.006-0.006c0-0.004-0.004-0.004-0.004-0.004c0-0.006,0-0.006-0.002-0.006c0,0,0,0,0-0.002
	l-0.162,0.078c-0.105-0.221-0.221-0.432-0.348-0.639l0.152-0.093c-0.129-0.214-0.271-0.419-0.422-0.615l-0.141,0.109
	c-0.148-0.194-0.307-0.379-0.473-0.554l0.127-0.122c-0.111-0.119-0.229-0.233-0.35-0.342c0,0,0,0-0.002-0.002
	c-0.004,0-0.004-0.004-0.006-0.006s-0.002-0.002-0.006-0.002c0-0.004-0.002-0.004-0.002-0.006s-0.006-0.002-0.006-0.006
	c0,0,0-0.002-0.002-0.002c-0.004-0.002-0.004-0.002-0.006-0.004l-0.002-0.003c-0.004-0.002-0.006-0.006-0.008-0.006l0,0
	c-0.004-0.002-0.006-0.006-0.008-0.006c-0.049-0.042-0.096-0.088-0.146-0.13l-0.113,0.134c-0.184-0.156-0.375-0.307-0.576-0.443
	l0.1-0.143c-0.035-0.021-0.068-0.042-0.102-0.062c-0.002-0.004-0.006-0.006-0.008-0.006c0-0.002,0-0.002,0-0.002
	c-0.004-0.004-0.006-0.004-0.01-0.006c0,0,0,0-0.002-0.002c-0.004,0-0.004-0.004-0.008-0.004c0-0.002,0-0.002-0.002-0.002
	c-0.002-0.002-0.004-0.002-0.008-0.005c0,0,0,0-0.002-0.002c-0.002,0-0.004-0.002-0.004-0.006c-0.002,0-0.002,0-0.004,0
	c0,0-0.004,0-0.006-0.004c-0.002,0-0.002-0.002-0.006-0.002c0,0-0.002-0.004-0.004-0.004c-0.004,0-0.004,0-0.004,0
	c-0.006-0.006-0.014-0.012-0.018-0.014s-0.004-0.002-0.006-0.002c-0.002-0.004-0.002-0.004-0.006-0.005
	c-0.002,0-0.002-0.002-0.004-0.002c-0.004,0-0.004-0.004-0.006-0.004c0-0.002,0-0.002-0.006-0.004c0,0,0,0-0.002-0.004
	c0,0-0.004-0.002-0.006-0.002l-0.002-0.002c-0.002-0.004-0.006-0.004-0.008-0.004H37.6c-0.002-0.004-0.002-0.004-0.006-0.006
	l-0.002-0.004c-0.004,0-0.004,0-0.008,0c0-0.002,0-0.002-0.002-0.002c-0.002-0.003-0.006-0.003-0.006-0.005
	c-0.127-0.08-0.254-0.15-0.383-0.223l-0.082,0.152c-0.213-0.114-0.434-0.215-0.658-0.307l0.066-0.163
	c-0.221-0.092-0.447-0.172-0.678-0.24c-0.004,0-0.006,0-0.01,0c-0.002,0-0.002,0-0.004,0c-0.002-0.002-0.006-0.002-0.006-0.002
	c-0.002,0-0.004-0.004-0.004-0.004c-0.004,0-0.004,0-0.004,0l-0.051,0.174c-0.23-0.065-0.467-0.118-0.707-0.16l0.033-0.185
	c-0.244-0.04-0.492-0.07-0.742-0.091l-0.012,0.191c-0.148-0.009-0.297-0.022-0.447-0.022c-0.018,0-0.035,0.002-0.055,0.002v-0.188
	c-0.004,0-0.006,0-0.01,0c0,0-0.002,0-0.006,0c-0.002,0-0.006,0-0.008,0c0,0,0,0-0.004,0c0,0-0.002,0-0.006,0
	c-0.002,0-0.004,0-0.006,0c0,0-0.002,0-0.006,0h-0.006c0,0-0.002,0-0.006,0c-0.002,0-0.004,0-0.004,0c-0.004,0-0.006,0-0.008,0
	c-0.004,0-0.004,0-0.006,0h-0.004c-0.002,0-0.006,0-0.008,0s-0.002,0-0.004,0c-0.004,0-0.006,0-0.008,0c-0.004,0-0.004,0-0.006,0
	s-0.006,0-0.006,0s-0.002,0-0.006,0c-0.002,0-0.004,0-0.004,0c-0.002,0-0.006,0-0.006,0c-0.002,0-0.004,0-0.008,0.002
	c-0.002,0-0.004,0-0.004,0c-0.002,0-0.006,0-0.008,0s-0.002,0-0.004,0s-0.006,0-0.008,0c0,0,0,0-0.006,0c0,0-0.004,0-0.006,0h-0.004
	h-0.006c-0.002,0-0.006,0-0.006,0c-0.002,0-0.004,0-0.006,0c-0.004,0-0.004,0-0.006,0c-0.004,0-0.004,0-0.006,0c0,0-0.004,0-0.006,0
	s-0.006,0-0.008,0h-0.002c-0.002,0-0.006,0-0.006,0c-0.004,0-0.004,0.002-0.006,0.002s-0.006,0-0.008,0s-0.002,0-0.006,0
	c-0.002,0-0.004,0-0.008,0h-0.002c0,0-0.006,0-0.008,0h-0.002c-0.004,0-0.006,0-0.008,0c-0.004,0-0.004,0-0.006,0s-0.006,0-0.008,0
	l0,0c-0.006,0-0.008,0-0.012,0c0,0.004-0.002,0.004-0.002,0.004c-0.002,0-0.008,0-0.01,0c0,0,0,0-0.004,0c0,0-0.004,0-0.006,0
	c-0.004,0-0.004,0-0.004,0c-0.004,0-0.006,0-0.008,0h-0.004c-0.002,0-0.002,0-0.008,0c0,0,0,0-0.004,0c-0.002,0-0.006,0-0.01,0.002
	c-0.002,0-0.008,0-0.008,0c-0.039,0.002-0.076,0.002-0.115,0.006v0.002c-0.004,0-0.008,0-0.012,0l0,0c-0.004,0-0.006,0-0.01,0l0,0
	c-0.002,0-0.008,0-0.008,0s-0.006,0-0.006,0.002c0,0-0.004,0-0.006,0c-0.004,0-0.004,0-0.004,0c-0.004,0-0.006,0-0.008,0
	c0,0-0.004,0-0.006,0c0,0-0.002,0-0.006,0c-0.002,0-0.002,0-0.002,0.003c-0.004,0-0.006,0-0.008,0c0,0-0.004,0-0.006,0
	s-0.006,0-0.006,0c-0.002,0-0.004,0-0.008,0c-0.002,0-0.002,0-0.004,0s-0.004,0-0.006,0H33.25c-0.002,0-0.004,0-0.008,0
	c-0.002,0-0.002,0-0.004,0c-0.004,0-0.006,0-0.008,0s-0.002,0.004-0.006,0.004c0,0-0.004,0-0.006,0h-0.002c-0.002,0-0.008,0-0.01,0
	c0,0,0,0-0.004,0c-0.002,0-0.002,0.002-0.008,0.002s-0.008,0-0.014,0c-0.031,0.004-0.061,0.01-0.092,0.01l0.021,0.196
	c-0.244,0.028-0.48,0.07-0.715,0.123l-0.043-0.201c-0.035,0.008-0.072,0.015-0.109,0.024c-0.002,0-0.006,0-0.01,0
	c0,0.002-0.002,0.002-0.002,0.002c-0.004,0-0.004,0-0.006,0c-0.004,0.004-0.004,0.004-0.006,0.004c-0.004,0-0.006,0-0.008,0
	c0,0-0.002,0-0.004,0c0,0-0.004,0-0.004,0.002c-0.006,0-0.006,0-0.008,0c0,0-0.004,0-0.004,0.004c-0.004,0-0.008,0-0.01,0
	l-0.002,0.002c-0.148,0.034-0.295,0.074-0.438,0.119c-0.006,0-0.006,0.002-0.01,0.002c-0.002,0-0.002,0-0.002,0
	c-0.004,0.004-0.004,0.004-0.01,0.004c0,0.002-0.002,0.002-0.002,0.002c-0.004,0-0.006,0-0.008,0.002c0,0-0.004,0-0.006,0
	c0,0.004-0.002,0.004-0.004,0.004s-0.004,0-0.004,0.002c-0.004,0-0.006,0-0.006,0c-0.002,0.002-0.006,0.002-0.008,0.002
	c0,0-0.002,0.002-0.006,0.002c-0.002,0-0.002,0-0.004,0.004c-0.002,0-0.002,0-0.002,0c-0.004,0-0.008,0-0.01,0
	c-0.01,0.006-0.021,0.008-0.031,0.01l0.068,0.209c-0.18,0.061-0.359,0.125-0.533,0.201c-0.047-0.237-0.277-2.413-0.281-2.445v-2.326
	c0-0.038-0.033-0.061-0.039-0.097c0.006-0.034,0.039-0.059,0.039-0.097c0-1.305-1.059-2.368-2.361-2.377
	c-0.004,0-0.004-0.004-0.01-0.004h-1.898c-0.342,0-0.621,0.279-0.621,0.621c0,0.343,0.279,0.622,0.621,0.622h1.889
	c0.627,0,1.137,0.51,1.137,1.138c0,0.038,0.035,0.062,0.039,0.097c-0.004,0.036-0.039,0.059-0.039,0.097v2.258H17.424l-0.344-1.562
	h1.621c0.344,0,0.621-0.279,0.621-0.622c0-0.342-0.277-0.619-0.621-0.619h-3.68c-0.344,0-0.621,0.277-0.621,0.619
	c0,0.343,0.277,0.622,0.621,0.622h0.781l0.445,1.985l-3.154,3.18c-0.176-0.145-0.361-0.279-0.551-0.407l0.143-0.209
	c-0.035-0.021-0.066-0.044-0.098-0.064c-0.004-0.002-0.006-0.004-0.008-0.004c0-0.004,0-0.004,0-0.004
	c-0.006-0.002-0.008-0.002-0.012-0.004c0,0,0,0-0.002-0.004c-0.002,0-0.006-0.002-0.008-0.002c0-0.002,0-0.002-0.002-0.002
	c-0.004-0.004-0.006-0.004-0.006-0.005c0,0,0,0-0.004-0.002c-0.002,0-0.002-0.004-0.004-0.006c-0.004,0-0.004,0-0.006,0
	c0-0.002-0.002-0.002-0.006-0.006c-0.002,0-0.002-0.002-0.002-0.002c-0.006,0-0.006,0-0.006-0.004c-0.004,0-0.004,0-0.004,0
	c-0.006-0.006-0.014-0.01-0.02-0.012c0-0.004,0-0.004-0.004-0.004c0-0.002-0.002-0.002-0.006-0.003c0,0,0-0.004-0.004-0.004
	c-0.002,0-0.002-0.002-0.004-0.002c-0.004-0.002-0.004-0.002-0.006-0.006c-0.002,0-0.002,0-0.004-0.002l-0.004-0.002l-0.006-0.004
	c0-0.002-0.002-0.002-0.006-0.004h-0.002c-0.002-0.004-0.006-0.004-0.008-0.006h-0.002c-0.004,0-0.006-0.004-0.006-0.004
	c0-0.001,0-0.001-0.004-0.001c-0.002-0.004-0.004-0.004-0.008-0.004c-0.123-0.078-0.254-0.152-0.381-0.223l-0.119,0.225
	c-0.211-0.112-0.428-0.217-0.65-0.309l0.098-0.233c-0.223-0.092-0.451-0.172-0.682-0.238c-0.002,0-0.006-0.004-0.008-0.004
	s-0.002,0-0.006,0c0-0.002-0.004-0.002-0.004-0.002c-0.002,0-0.004-0.004-0.006-0.004l-0.07,0.242
	c-0.229-0.066-0.463-0.12-0.701-0.162l0.045-0.249c-0.244-0.04-0.492-0.072-0.742-0.091l-0.018,0.259
	c-0.141-0.01-0.281-0.021-0.424-0.021c-0.023,0-0.047,0.004-0.07,0.004v-0.259c-0.004,0-0.006,0-0.012,0c0,0-0.002,0-0.006,0
	c-0.002,0-0.004,0-0.008,0c0,0-0.002,0-0.004,0c-0.004,0-0.004,0-0.006,0s-0.004,0-0.006,0c0,0-0.002,0-0.006,0
	c-0.002,0-0.004,0-0.008,0c0,0-0.002,0-0.004,0c-0.004,0-0.006,0-0.006,0H8.619c-0.004,0-0.004,0-0.004,0c-0.004,0-0.006,0-0.006,0
	c-0.002,0-0.006,0-0.008,0s-0.002,0-0.006,0c-0.002,0-0.004,0-0.008,0H8.586c-0.004,0-0.006,0-0.008,0H8.574
	c-0.004,0-0.006,0-0.006,0c-0.004,0-0.004,0-0.004,0c-0.006,0-0.006,0-0.008,0.002c-0.004,0-0.006,0-0.006,0
	c-0.002,0-0.006,0-0.008,0s-0.002,0-0.004,0s-0.004,0-0.008,0c0,0-0.002,0-0.004,0c-0.004,0-0.006,0-0.008,0H8.516
	c-0.002,0-0.004,0-0.008,0H8.506c-0.004,0-0.006,0-0.008,0c-0.004,0-0.004,0-0.006,0s-0.006,0-0.008,0c0,0-0.002,0-0.004,0
	c-0.004,0-0.006,0-0.008,0H8.471c-0.002,0-0.004,0-0.008,0c-0.002,0-0.002,0.002-0.004,0.002c-0.004,0-0.006,0-0.006,0
	c-0.006,0-0.006,0-0.006,0c-0.004,0-0.006,0-0.01,0l0,0c-0.004,0-0.008,0-0.012,0l0,0c-0.004,0-0.006,0-0.01,0
	c-0.002,0-0.002,0-0.006,0c0,0-0.002,0-0.006,0c-0.002,0-0.002,0-0.002,0c-0.006,0-0.006,0-0.01,0c0,0.002-0.002,0.002-0.002,0.002
	c-0.004,0-0.004,0-0.01,0c0,0,0,0-0.002,0s-0.006,0-0.008,0s-0.002,0-0.002,0c-0.006,0-0.006,0-0.01,0H8.357
	c-0.002,0-0.006,0-0.01,0c0,0,0,0-0.004,0c-0.002,0-0.004,0-0.01,0.004c-0.002,0-0.008,0-0.008,0s0,0-0.004,0
	c-0.037,0.002-0.074,0.002-0.111,0.004v0.004c-0.002,0-0.004,0-0.01,0c0,0,0,0-0.002,0c-0.004,0-0.006,0-0.008,0H8.188
	c-0.002,0-0.006,0-0.008,0c0,0-0.002,0-0.002,0.002c-0.004,0-0.006,0-0.008,0c-0.004,0-0.004,0-0.006,0s-0.006,0-0.008,0
	c0,0-0.002,0-0.006,0H8.148c-0.004,0-0.006,0-0.006,0.002c-0.002,0-0.006,0-0.008,0c0,0-0.002,0-0.004,0c-0.004,0-0.004,0-0.004,0
	c-0.004,0-0.006,0-0.01,0c0,0,0,0-0.006,0c0,0.003-0.002,0.003-0.006,0.003H8.104c0,0-0.006,0-0.01,0c0,0,0,0-0.002,0
	c-0.004,0-0.004,0-0.008,0c-0.002,0-0.002,0.002-0.004,0.002c-0.004,0-0.006,0-0.008,0H8.07c-0.004,0-0.01,0-0.01,0s0,0-0.002,0
	c-0.004,0-0.008,0.002-0.012,0.002s-0.008,0-0.01,0c-0.031,0.004-0.061,0.008-0.094,0.012l0.027,0.265
	c-0.238,0.028-0.475,0.068-0.705,0.119l-0.059-0.27C7.17,17.63,7.135,17.637,7.1,17.648c-0.004,0-0.008,0-0.012,0H7.086
	c-0.002,0-0.006,0-0.008,0c-0.002,0.004-0.002,0.004-0.006,0.004c-0.002,0-0.004,0-0.008,0c0,0.002,0,0.002-0.002,0.002
	c0,0-0.004,0-0.006,0.004c-0.002,0-0.006,0-0.008,0H7.047c-0.006,0-0.006,0-0.012,0v0.006c-0.148,0.03-0.293,0.07-0.439,0.117
	c-0.002,0-0.006,0.002-0.008,0.002s-0.002,0-0.002,0c-0.004,0.002-0.008,0.002-0.012,0.002c0,0.004-0.002,0.004-0.002,0.004
	c-0.002,0-0.006,0-0.008,0.002c0,0,0,0-0.004,0c-0.002,0.002-0.002,0.002-0.004,0.002c-0.004,0-0.006,0-0.006,0.004
	c-0.002,0-0.004,0-0.004,0c-0.004,0-0.004,0-0.008,0c0,0-0.002,0.004-0.006,0.004c0,0,0,0-0.006,0.002c0,0,0,0-0.002,0
	c-0.004,0-0.006,0.004-0.006,0.004c-0.012,0.006-0.023,0.006-0.033,0.008l0.088,0.271c-0.227,0.078-0.447,0.165-0.664,0.267
	l-0.119-0.269c-0.143,0.062-0.281,0.131-0.422,0.205c-0.002,0.002-0.006,0.002-0.008,0.006c0,0,0,0-0.002,0
	c-0.004,0.002-0.006,0.002-0.008,0.002c0,0-0.004,0-0.004,0.004c-0.002,0-0.004,0.002-0.006,0.002l-0.004,0.004
	c-0.002,0-0.002,0-0.006,0c0,0.004-0.002,0.004-0.002,0.004c-0.002,0.002-0.006,0.002-0.006,0.002
	c-0.002,0.002-0.004,0.002-0.008,0.002c0,0.004-0.002,0.004-0.002,0.004c-0.002,0.002-0.006,0.002-0.006,0.003
	c-0.061,0.036-0.121,0.067-0.182,0.104l0.152,0.258c-0.205,0.124-0.404,0.255-0.596,0.397l-0.18-0.249
	c-0.072,0.052-0.143,0.106-0.209,0.16c0,0,0,0-0.004,0c-0.002,0.004-0.004,0.004-0.008,0.006c0,0.004-0.002,0.006-0.006,0.006
	c0,0.001,0,0.001-0.002,0.001c-0.002,0.004-0.006,0.004-0.008,0.006c0,0,0,0,0,0.002c-0.01,0.008-0.021,0.016-0.031,0.025
	c-0.002,0.004-0.006,0.004-0.008,0.006H4.227c-0.004,0.003-0.004,0.003-0.004,0.005c0,0-0.004,0.004-0.006,0.004
	c0,0.002-0.004,0.002-0.004,0.004l-0.004,0.002c-0.002,0.004-0.002,0.004-0.004,0.004c-0.004,0.002-0.004,0.004-0.006,0.004
	l-0.002,0.004c-0.002,0.002-0.006,0.004-0.008,0.004c0,0.003,0,0.003-0.004,0.003c0,0.002-0.002,0.004-0.006,0.004
	c0,0.002,0,0.002,0,0.002c-0.002,0.004-0.002,0.006-0.008,0.01l0,0c-0.084,0.066-0.166,0.141-0.246,0.211l0.209,0.232
	c-0.176,0.161-0.344,0.331-0.5,0.51l-0.236-0.211c-0.166,0.184-0.322,0.38-0.467,0.581L3.189,20.6
	c-0.137,0.194-0.268,0.394-0.385,0.602l-0.277-0.16c-0.121,0.217-0.232,0.438-0.334,0.67l0.291,0.127
	c-0.096,0.217-0.182,0.438-0.252,0.666L1.93,22.406c-0.074,0.236-0.139,0.478-0.189,0.723l0.311,0.062
	c-0.049,0.23-0.084,0.467-0.107,0.706l-0.311-0.03c-0.004,0.01-0.004,0.019-0.004,0.028c-0.002,0.002-0.002,0.002-0.002,0.002
	c0,0.002,0,0.006,0,0.008s0,0.002,0,0.006c0,0.001,0,0.003,0,0.003c0,0.004,0,0.006,0,0.006c0,0.002-0.002,0.006-0.002,0.008
	c0,0,0,0,0,0.006c0,0,0,0,0,0.004c0,0.002,0,0.006,0,0.006v0.004c0,0.002-0.002,0.003-0.002,0.007c0,0.002,0,0.002,0,0.004
	c0,0.004,0,0.006,0,0.008v0.004c0,0.002,0,0.004,0,0.008c0,0.002,0,0.002,0,0.002c-0.004,0.005-0.004,0.005-0.004,0.009v0.002
	c0,0.004,0,0.008,0,0.01c0,0,0,0,0,0.002s0,0.006,0,0.008s0,0.002,0,0.002c0,0.006,0,0.008,0,0.011v0.002c0,0,0,0.006,0,0.01
	c-0.006,0.042-0.008,0.084-0.008,0.126c-0.004,0.004-0.004,0.007-0.004,0.009c0,0.006,0,0.01,0,0.012c0,0.004,0,0.008,0,0.012v0.002
	c0,0.002,0,0.007,0,0.009c-0.002,0.006-0.002,0.008-0.002,0.014c0,0.002,0,0.008,0,0.01v0.004c0,0,0,0.006,0,0.008
	c0,0.005,0,0.007,0,0.011s0,0.008,0,0.012c-0.002,0-0.002,0.002-0.002,0.002c0,0.002,0,0.008,0,0.009c0,0.027,0,0.056-0.004,0.08
	c0,0.006,0,0.008,0,0.014c0,0.004,0,0.008,0,0.01l0,0c0,0.006,0,0.009,0,0.011v0.004c0,0,0,0.004,0,0.006s0,0.002,0,0.006
	c0,0.002,0,0.004,0,0.008c0,0.002,0,0.002,0,0.004c0,0.003,0,0.005,0,0.007v0.004c-0.002,0.002-0.002,0.002-0.002,0.008
	c0,0,0,0,0,0.004c0,0.002,0,0.006,0,0.006s0,0.004,0,0.006s0,0.002,0,0.006c0,0.001,0,0.003,0,0.003c0,0.004,0,0.006,0,0.008
	c0,0.004,0,0.004,0,0.006s0,0.006,0,0.008c0,0,0,0,0,0.006c0,0,0,0,0,0.002s0,0.005,0,0.005c0,0.002,0,0.004,0,0.008
	c0,0.002,0,0.002,0,0.004c0,0.004,0,0.006,0,0.008v0.004c0,0.002,0,0.004,0,0.006c0,0.004,0,0.006,0,0.006c0,0.003,0,0.003,0,0.005
	c0,0.004,0,0.004,0,0.006s0,0.006,0,0.008v0.002c0,0.006,0,0.008,0,0.014H1.91c0,0.005,0,0.011,0,0.019
	c0,0.251,0.014,0.498,0.041,0.743l-0.309,0.034v0.002c0,0.004,0,0.006,0,0.008s0,0.002,0,0.002c0,0.006,0,0.01,0,0.01
	c0,0.002,0,0.002,0,0.002c0.004,0.004,0.004,0.008,0.004,0.012c0,0,0,0,0,0.002c0.025,0.237,0.068,0.469,0.117,0.699l0.303-0.066
	c0.051,0.233,0.115,0.464,0.189,0.688l-0.293,0.099c0.008,0.021,0.016,0.042,0.023,0.064c0,0.004,0.004,0.008,0.004,0.012
	s0,0.006,0.002,0.012l0,0c0.004,0.004,0.004,0.006,0.004,0.009h0.002c0,0.002,0.002,0.008,0.002,0.01c0,0,0,0,0,0.004
	c0.006,0.016,0.012,0.028,0.02,0.04c0,0.004,0,0.004,0,0.004c0,0.004,0.002,0.008,0.002,0.01v0.002c0,0.003,0,0.005,0.004,0.007
	c0,0.004,0,0.004,0,0.006c0.002,0.002,0.002,0.006,0.002,0.006c0.002,0,0.002,0.002,0.002,0.002c0,0.004,0.004,0.006,0.004,0.008
	c0,0.004,0,0.004,0.002,0.006c0,0.001,0,0.001,0,0.005c0.002,0.002,0.002,0.004,0.002,0.004c0.004,0.004,0.004,0.006,0.004,0.006
	c0,0.002,0.002,0.004,0.002,0.008c0,0,0,0.002,0.002,0.002c0,0.002,0,0.006,0.004,0.008c0,0,0,0,0,0.004
	c0.002,0.002,0.002,0.005,0.002,0.007c0,0,0,0,0.002,0.002c0,0.002,0,0.006,0.004,0.008c0.008,0.024,0.016,0.046,0.023,0.072
	c0.004,0.002,0.004,0.008,0.006,0.01c0,0.004,0.004,0.006,0.004,0.01c0.045,0.117,0.096,0.231,0.148,0.346l0.275-0.126
	c0.098,0.217,0.209,0.431,0.328,0.636l-0.258,0.152c0,0.002,0,0.002,0,0.002c0.004,0.001,0.004,0.001,0.004,0.001
	c0,0.004,0,0.006,0.004,0.008c0,0.004,0,0.004,0,0.004c0.002,0.002,0.002,0.004,0.004,0.006c0,0.004,0.004,0.004,0.004,0.006
	l0.002,0.004c0,0.002,0.004,0.008,0.006,0.01c0,0,0,0,0,0.003c0.004,0.002,0.004,0.004,0.006,0.008c0,0,0,0,0.002,0.002
	c0,0.002,0.002,0.006,0.002,0.008c0.004,0,0.004,0,0.004,0.002c0.002,0.004,0.002,0.004,0.004,0.008c0,0,0,0,0,0.002
	c0.004,0.003,0.004,0.005,0.004,0.005c0.004,0,0.004,0.004,0.004,0.004c0.002,0.002,0.002,0.006,0.006,0.008v0.002
	c0,0.002,0.004,0.006,0.006,0.01c0.111,0.177,0.23,0.354,0.352,0.521l0.238-0.177c0.141,0.192,0.291,0.377,0.451,0.554l-0.213,0.196
	c0.035,0.035,0.07,0.072,0.104,0.109c0,0.002,0.004,0.002,0.004,0.006c0.002,0,0.004,0.002,0.004,0.002
	c0.004,0,0.004,0.004,0.006,0.004c0,0.002,0.002,0.002,0.002,0.006c0.004,0,0.006,0.002,0.006,0.004
	c0.002,0,0.002,0.002,0.002,0.002c0.004,0.004,0.004,0.006,0.006,0.006c0,0.002,0,0.002,0,0.002
	c0.004,0.004,0.006,0.005,0.008,0.007c0.127,0.13,0.26,0.253,0.395,0.371l0.186-0.209c0.178,0.159,0.363,0.31,0.559,0.45
	l-0.158,0.225c0.076,0.054,0.158,0.106,0.234,0.16c0.004,0,0.004,0,0.004,0s0.006,0.002,0.006,0.006c0.006,0,0.008,0,0.01,0.006
	c0.018,0.009,0.035,0.022,0.053,0.032c0,0,0,0,0,0.001c0.004,0,0.006,0.002,0.008,0.002l0.004,0.004
	c0.002,0.002,0.004,0.002,0.004,0.002c0.004,0.004,0.006,0.004,0.006,0.004c0.002,0,0.002,0,0.004,0.002
	c0.004,0,0.006,0.004,0.006,0.004c0.004,0,0.004,0.002,0.004,0.002c0.002,0.002,0.002,0.002,0.006,0.002
	c0.002,0.004,0.002,0.004,0.002,0.006c0.006,0,0.006,0.002,0.006,0.002c0.004,0,0.004,0.004,0.006,0.004
	c0.004,0.002,0.004,0.002,0.004,0.004c0.004,0,0.004,0,0.006,0c0.002,0.003,0.006,0.005,0.006,0.005s0,0.002,0.004,0.002
	c0.002,0.004,0.006,0.004,0.006,0.006c0.016,0.01,0.029,0.016,0.043,0.022c0.002,0.004,0.008,0.006,0.01,0.008
	c0.002,0.004,0.008,0.004,0.01,0.006c0.004,0.002,0.006,0.006,0.01,0.006c0,0.002,0,0.002,0,0.002c0.004,0,0.008,0.002,0.01,0.006
	c0.027,0.015,0.053,0.03,0.08,0.045l0.002,0.002c0.002,0,0.006,0.002,0.01,0.006c0.004,0.002,0.004,0.002,0.01,0.004
	c0.002,0.004,0.008,0.006,0.01,0.006s0.008,0.004,0.01,0.006c0.014,0.008,0.027,0.015,0.041,0.022v0.002l0.129-0.229
	c0.207,0.119,0.42,0.229,0.639,0.326L5.895,31.07c0.217,0.094,0.438,0.175,0.666,0.247c0,0,0,0,0.004,0c0,0,0.002,0.002,0.006,0.002
	c0.002,0,0.002,0,0.004,0c0.004,0.002,0.004,0.002,0.006,0.002c0.002,0.004,0.006,0.004,0.008,0.004c0,0,0.002,0,0.006,0.002
	c0,0,0,0,0.002,0l0.07-0.23c0.227,0.072,0.459,0.138,0.697,0.187L7.318,31.51c0.072,0.012,0.145,0.026,0.215,0.04
	c0.004,0,0.008,0,0.012,0c0.002,0,0.002,0,0.002,0c0.002,0,0.008,0,0.01,0c0,0,0,0,0.004,0c0.002,0,0.004,0.004,0.008,0.004
	c0.006,0,0.008,0,0.01,0.002c0.004,0,0.004,0,0.004,0c0.002,0,0.008,0,0.01,0h0.002C7.598,31.56,7.6,31.56,7.605,31.56
	c0.002,0,0.006,0,0.01,0c0.002,0,0.008,0,0.012,0.003l0,0c0.002,0,0.008,0,0.01,0c0.004,0,0.008,0.002,0.014,0.002
	c0.051,0.008,0.1,0.016,0.15,0.021c0.004,0.002,0.006,0.002,0.012,0.002c0.004,0,0.008,0,0.01,0c0,0.002,0,0.002,0,0.002
	c0.006,0,0.008,0,0.012,0h0.002c0.002,0,0.006,0,0.01,0.004c0,0,0,0,0.004,0c0.002,0,0.004,0,0.008,0c0,0,0,0,0.004,0
	c0.002,0,0.004,0.002,0.006,0.002h0.004c0.002,0,0.004,0,0.01,0h0.002c0.004,0,0.006,0,0.008,0s0.002,0,0.004,0s0.004,0,0.008,0
	c0,0,0.002,0,0.004,0c0.004,0.005,0.004,0.005,0.006,0.005s0.004,0,0.008,0c0,0,0.002,0,0.006,0c0,0,0,0,0.002,0
	c0.004,0,0.004,0,0.006,0h0.006c0.039,0.006,0.078,0.01,0.119,0.014l0.02-0.223c0.225,0.023,0.451,0.034,0.682,0.034
	c0.014,0,0.027-0.002,0.039-0.002l0.004,0.217c0.25-0.006,0.498-0.022,0.744-0.051l-0.025-0.209
	c0.242-0.027,0.479-0.069,0.713-0.122l0.047,0.201c0.018-0.004,0.039-0.007,0.057-0.013c0.004,0,0.008,0,0.01,0h0.002
	c0.004-0.002,0.008-0.002,0.01-0.002c0,0,0,0,0.004-0.004c0.002,0,0.004,0,0.008,0c0.002-0.002,0.002-0.002,0.002-0.002
	c0.006,0,0.008,0,0.01-0.002h0.002c0.002,0,0.004,0,0.008-0.004c0.002,0,0.002,0,0.004,0c0.004,0,0.006-0.002,0.008-0.002
	c0.004,0,0.004,0,0.004,0c0.002,0,0.008-0.002,0.01-0.002l0,0c0.004-0.004,0.008-0.004,0.01-0.004
	c0.004-0.002,0.006-0.002,0.006-0.002c0.002,0,0.006,0,0.008-0.002c0,0,0,0,0.006,0c0,0,0.004,0,0.004-0.004
	c0.002,0,0.004,0,0.006,0c0,0,0.002-0.002,0.006-0.002c0.002,0,0.002,0,0.006,0c0-0.001,0.002-0.001,0.002-0.001
	c0.004,0,0.006,0,0.008-0.004c0,0,0.004,0,0.006,0s0.002-0.002,0.006-0.002c0.002,0,0.002,0,0.002,0
	c0.004-0.002,0.006-0.002,0.01-0.002c0,0,0.002,0,0.004,0c0.002-0.002,0.002-0.002,0.006-0.002c0.002,0,0.004-0.002,0.004-0.002
	c0.004,0,0.006,0,0.008,0c0-0.004,0.004-0.004,0.004-0.004c0.002,0,0.002,0,0.006-0.002c0.002,0,0.004,0,0.004,0
	c0.004,0,0.006-0.002,0.008-0.002c0,0,0.004,0,0.006,0c0.002-0.002,0.002-0.002,0.006-0.002c0.002,0,0.002,0,0.004,0
	c0.002-0.002,0.004-0.002,0.006-0.002c0,0,0.002-0.004,0.006-0.004c0,0,0.002,0,0.004,0c0.004-0.002,0.004-0.002,0.008-0.002
	c0.002,0,0.002-0.002,0.006-0.002c0,0,0.006,0,0.008-0.003c0.004,0,0.004,0,0.004,0c0.004-0.002,0.006-0.002,0.01-0.002
	c0,0,0,0,0.002,0c0.004-0.002,0.006-0.002,0.006-0.002c0-0.004,0.004-0.004,0.004-0.004c0.002,0,0.008,0,0.01-0.002c0,0,0,0,0.002,0
	s0.006-0.002,0.006-0.002c0.006,0,0.006,0,0.006,0c0.002-0.004,0.006-0.004,0.008-0.004l0.002-0.002c0.004,0,0.006,0,0.008,0
	c0.004,0,0.004,0,0.004,0c0.004,0,0.006-0.006,0.008-0.006h0.004c0,0,0.004,0,0.008,0c0,0,0,0,0-0.004
	c0.107-0.028,0.211-0.062,0.311-0.097l-0.066-0.194c0.23-0.078,0.455-0.167,0.674-0.268l0.084,0.183
	c0.148-0.07,0.295-0.143,0.438-0.223c0.002-0.002,0.008-0.002,0.01-0.006c0,0,0,0,0.002,0c0.002-0.002,0.006-0.004,0.008-0.004
	c0-0.004,0.004-0.004,0.004-0.004s0.002-0.002,0.006-0.004h0.002c0.002-0.004,0.006-0.004,0.006-0.006c0,0,0.004,0,0.004-0.001
	c0.002,0,0.006,0,0.006-0.004l0.006-0.002l0.002-0.002c0.004,0,0.006-0.002,0.008-0.002c0-0.004,0-0.004,0.002-0.004
	c0.053-0.028,0.105-0.059,0.156-0.092l-0.102-0.171c0.207-0.123,0.41-0.257,0.602-0.403l0.119,0.156
	c0.033-0.024,0.062-0.052,0.098-0.076c0,0,0,0,0.002-0.002c0,0,0.004,0,0.006,0c0-0.006,0.002-0.006,0.002-0.006
	c0.004,0,0.006-0.004,0.006-0.004c0.002-0.002,0.006-0.002,0.006-0.005c0.002,0,0.002,0,0.002,0s0.004-0.004,0.006-0.006h0.002
	c0.002-0.002,0.006-0.006,0.008-0.008c0,0,0,0,0.002,0c0.004-0.002,0.006-0.006,0.006-0.008c0.148-0.118,0.289-0.237,0.424-0.365
	l-0.133-0.143c0.176-0.165,0.342-0.342,0.5-0.526l0.15,0.131c0.01-0.012,0.02-0.024,0.031-0.036c0,0,0,0,0-0.004
	c0.002,0,0.006-0.002,0.006-0.004c0.002-0.003,0.002-0.003,0.004-0.003c0,0,0.004-0.004,0.004-0.006
	c0.002,0,0.002-0.004,0.004-0.004c0-0.002,0.002-0.002,0.002-0.006c0.004,0,0.004,0,0.004-0.002l0.004-0.004
	c0.002-0.002,0.002-0.004,0.004-0.008c0,0,0.004,0,0.004-0.002c0.002-0.002,0.002-0.002,0.004-0.005c0,0,0-0.002,0.004-0.002
	c0-0.002,0.002-0.006,0.004-0.008c0,0,0,0,0.004-0.002c0,0,0-0.002,0.002-0.004c0,0,0,0,0-0.004
	c0.014-0.012,0.023-0.022,0.035-0.038l0,0c0.002-0.004,0.002-0.006,0.006-0.008c0,0,0.002,0,0.002-0.002
	c0-0.004,0.002-0.004,0.006-0.005c0-0.004,0-0.004,0.002-0.004c0-0.002,0.002-0.002,0.006-0.006c0,0,0,0,0.002-0.002
	c0-0.004,0-0.004,0-0.006c0.004-0.002,0.004-0.002,0.004-0.002c0.002-0.002,0.006-0.006,0.006-0.008v-0.002
	c0.004-0.004,0.004-0.004,0.006-0.005c0-0.002,0.002-0.002,0.002-0.006c0.004,0,0.004-0.002,0.006-0.004v-0.002
	c0.004-0.004,0.004-0.006,0.006-0.006c0-0.004,0.004-0.004,0.006-0.006c0,0,0.004-0.004,0.004-0.006
	c0-0.004,0.004-0.004,0.004-0.004c0.002-0.004,0.002-0.004,0.002-0.004c0.002-0.001,0.006-0.003,0.006-0.007v-0.002
	c0.004-0.002,0.006-0.006,0.006-0.008c0.004,0,0.004,0,0.004-0.002c0-0.004,0.006-0.006,0.006-0.006c0-0.002,0-0.002,0-0.002
	c0.002-0.004,0.002-0.006,0.006-0.006l0.002-0.003c0.002-0.002,0.002-0.006,0.006-0.008c0,0,0,0,0.002-0.004
	c0.002,0,0.002-0.004,0.004-0.006c0.08-0.103,0.156-0.203,0.229-0.312l-0.166-0.114c0.139-0.198,0.264-0.403,0.381-0.616l0.18,0.097
	c0.117-0.217,0.229-0.439,0.324-0.669l-0.189-0.08c0.094-0.223,0.178-0.449,0.246-0.683l0.195,0.059
	c0.055-0.187,0.104-0.38,0.145-0.572c0-0.004,0.004-0.004,0.004-0.01c0,0,0,0,0-0.002c0-0.004,0-0.005,0.002-0.007v-0.004
	c0-0.002,0-0.004,0-0.008c0-0.002,0-0.002,0-0.004c0-0.004,0-0.006,0-0.008c0.004,0,0.004-0.004,0.004-0.004
	c0-0.004,0-0.004,0-0.005c0.002-0.004,0.002-0.004,0.002-0.01l0,0c0-0.006,0.004-0.008,0.004-0.01c0,0,0,0,0-0.004
	c0-0.002,0.002-0.004,0.002-0.01c0.004-0.022,0.01-0.045,0.012-0.07l-0.195-0.036c0.039-0.219,0.07-0.44,0.09-0.665h1.643
	c0.256,0.5,0.764,0.85,1.363,0.85c0.135,0,0.258-0.042,0.385-0.076l1.293,1.516c0.021,0.023,0.053,0.016,0.074,0.034
	c0.012,0.012,0.029,0.012,0.041,0.02c0.109,0.084,0.227,0.165,0.359,0.165c0.006,0,0.016-0.008,0.02-0.008
	c0.012,0,0.014,0.008,0.02,0.008h1.793c0.344,0,0.623-0.277,0.623-0.62c0-0.344-0.279-0.623-0.623-0.623h-1.547l-1.076-1.255
	c0.117-0.215,0.193-0.451,0.193-0.71c0-0.072-0.029-0.131-0.039-0.197c0,0,7.734-5.207,9.863-6.544
	c0.045,0.243,0.068,0.867,0.125,1.108c-0.092,0.062-0.174,0.136-0.264,0.202l-0.146-0.2c-0.068,0.052-0.141,0.103-0.207,0.158
	c0,0,0,0-0.004,0c0,0.002-0.006,0.006-0.006,0.008c-0.002,0.002-0.006,0.004-0.008,0.004c0,0.003,0,0.003-0.002,0.003
	c-0.004,0.002-0.006,0.002-0.008,0.004c0,0,0,0,0,0.004c-0.01,0.008-0.021,0.014-0.033,0.025c0,0-0.002,0-0.006,0.004l-0.002,0.001
	c-0.002,0.004-0.002,0.004-0.006,0.004c-0.002,0-0.002,0.004-0.004,0.004c0,0.002-0.004,0.002-0.004,0.004l-0.002,0.004
	c-0.004,0.002-0.004,0.002-0.006,0.002c-0.004,0.002-0.004,0.006-0.004,0.006l-0.004,0.002c-0.002,0.002-0.004,0.006-0.008,0.006
	c0,0,0,0-0.002,0c-0.002,0.003-0.006,0.005-0.008,0.005c0,0.004,0,0.004,0,0.004s-0.004,0.006-0.006,0.006s-0.002,0-0.002,0
	c-0.086,0.068-0.168,0.143-0.246,0.215l0.172,0.188c-0.178,0.163-0.348,0.333-0.504,0.514l-0.195-0.171
	c-0.164,0.184-0.32,0.378-0.467,0.579l0.213,0.154c-0.137,0.194-0.262,0.399-0.379,0.608l-0.236-0.137
	c-0.125,0.217-0.236,0.438-0.336,0.668l0.26,0.113c-0.092,0.219-0.172,0.443-0.242,0.674l-0.281-0.09
	c-0.076,0.238-0.137,0.478-0.188,0.723l0.297,0.061c-0.045,0.232-0.08,0.467-0.102,0.706l-0.307-0.028
	c-0.002,0.01-0.002,0.021-0.002,0.028c0,0.002-0.002,0.002-0.002,0.002c0,0.004,0,0.006,0,0.008c0,0.004,0,0.004,0,0.006
	c0,0.001,0,0.005,0,0.005c0,0.002,0,0.004,0,0.004c0,0.004-0.004,0.004-0.004,0.008c0,0,0,0.002,0,0.006c0,0,0,0,0,0.006v0.002
	c0,0.004,0,0.006,0,0.006c0,0.002,0,0.005-0.002,0.007c0,0.002,0,0.002,0,0.006c0,0.002,0,0.004,0,0.008v0.002
	c0,0.002,0,0.006,0,0.006c0,0.004,0,0.004,0,0.006c0,0.003,0,0.003,0,0.009l0,0c0,0.002,0,0.008,0,0.01c0,0,0,0,0,0.004
	c0,0.002,0,0.004,0,0.006c0,0.004,0,0.004-0.004,0.004c0,0.004,0,0.008,0,0.009v0.002c0,0.002,0,0.008,0,0.012
	c-0.002,0.04-0.008,0.082-0.008,0.126c-0.002,0.002-0.002,0.007-0.002,0.009c0,0.006,0,0.006,0,0.012c0,0.004,0,0.008,0,0.01v0.002
	c0,0.004,0,0.007,0,0.011c-0.002,0.004-0.002,0.008-0.002,0.012s0,0.006,0,0.012l0,0c0,0.004,0,0.01,0,0.01c0,0.005,0,0.007,0,0.013
	c0,0.002,0,0.008,0,0.01v0.002c-0.002,0.004-0.002,0.006-0.002,0.011c0,0.025,0,0.052-0.004,0.08c0,0.004,0,0.008,0,0.012
	c0,0.006,0,0.006,0,0.01c0,0.002,0,0.002,0,0.002c0,0.004,0,0.009,0,0.009v0.002c0,0.004,0,0.006,0,0.008c0,0.004,0,0.004,0,0.006
	s0,0.006,0,0.008s0,0.002,0,0.004c0,0.003,0,0.005,0,0.009l0,0c0,0.002-0.002,0.006-0.002,0.008s0,0.002,0,0.006
	c0,0.002,0,0.004,0,0.008c0,0,0,0.002,0,0.004c0,0.004,0,0.004,0,0.006c0,0.001,0,0.005,0,0.005c0,0.002,0,0.004,0,0.006
	c0,0.004,0,0.004,0,0.006c0,0.004,0,0.004,0,0.006c0,0,0,0.004,0,0.006s0,0.002,0,0.006c0,0.001,0,0.003,0,0.003
	c0,0.002,0,0.006,0,0.008s0,0.002,0,0.006c0,0.002,0,0.004,0,0.008v0.002c0,0.002,0,0.006,0,0.008v0.004c0,0.001,0,0.005,0,0.007
	s0,0.002,0,0.004c0,0.004,0,0.006,0,0.008v0.004c0,0.004,0,0.008,0,0.012h0.305c0.002,0.256,0.021,0.511,0.051,0.761l-0.311,0.033
	v0.006c0,0,0.002,0.004,0.002,0.006c0,0.004,0,0.004,0,0.004c0,0.004,0,0.006,0,0.008c0,0.004,0,0.004,0,0.004
	c0.002,0.002,0.002,0.008,0.002,0.01c0,0,0,0,0,0.002c0.027,0.235,0.068,0.469,0.117,0.699l0.314-0.068
	c0.053,0.232,0.117,0.46,0.195,0.683l-0.311,0.104c0.008,0.023,0.016,0.044,0.023,0.066c0,0.006,0.002,0.008,0.002,0.014
	c0.004,0.002,0.004,0.006,0.006,0.01c0,0,0,0,0,0.002c0,0.004,0.002,0.004,0.002,0.009h0.004c0,0.002,0.002,0.006,0.002,0.01
	c0,0,0,0,0,0.002c0.006,0.016,0.01,0.03,0.016,0.042c0,0.002,0,0.002,0,0.002c0,0.006,0.004,0.008,0.004,0.01l0.002,0.003
	c0,0.002,0,0.004,0.002,0.008c0,0.002,0,0.002,0,0.002c0,0.006,0,0.006,0,0.006c0.006,0.004,0.006,0.006,0.006,0.006
	c0,0.004,0,0.004,0,0.008c0,0.002,0,0.002,0.004,0.004c0,0.003,0,0.003,0,0.005c0.002,0.002,0.002,0.006,0.002,0.006
	c0.004,0.002,0.004,0.004,0.004,0.004c0,0.002,0,0.006,0,0.008c0,0,0,0,0.006,0c0,0.006,0,0.006,0,0.01c0,0.002,0,0.002,0,0.006
	l0.002,0.005c0,0,0.004,0,0.004,0.002c0,0.004,0,0.006,0.002,0.008c0.01,0.026,0.016,0.048,0.027,0.072
	c0.002,0,0.002,0.006,0.004,0.01c0,0.006,0.002,0.006,0.002,0.008c0.047,0.119,0.098,0.235,0.148,0.348l0.303-0.137
	c0.1,0.215,0.211,0.426,0.334,0.629l-0.289,0.17c0,0.002,0,0.002,0,0.002c0.004,0.003,0.004,0.003,0.004,0.003
	c0,0.002,0.002,0.004,0.002,0.008c0,0.002,0,0.002,0,0.002c0.006,0.002,0.006,0.006,0.006,0.008c0,0,0.002,0,0.002,0.004
	c0,0,0.004,0.002,0.004,0.004c0.002,0.004,0.004,0.008,0.008,0.011c0,0,0,0,0,0.002c0.002,0.002,0.002,0.006,0.004,0.008
	c0,0,0,0,0.004,0.002c0,0.004,0.002,0.006,0.004,0.006c0,0,0,0,0,0.006c0.002,0,0.002,0.004,0.006,0.006c0,0,0,0,0,0.004
	c0,0,0.002,0.001,0.002,0.005c0.004,0,0.004,0.002,0.004,0.002c0.002,0.002,0.002,0.006,0.004,0.008v0.002
	c0.004,0.004,0.006,0.006,0.008,0.012c0.109,0.177,0.229,0.352,0.354,0.521l0.271-0.203c0.141,0.19,0.293,0.373,0.453,0.546
	l-0.248,0.23c0.031,0.035,0.068,0.071,0.104,0.105c0,0.006,0.002,0.006,0.002,0.006c0.004,0,0.004,0.002,0.006,0.006
	c0.002,0,0.002,0.002,0.004,0.002c0,0.002,0.002,0.002,0.002,0.006c0.004,0,0.006,0.002,0.006,0.004
	c0.002,0,0.002,0.004,0.002,0.004c0.002,0.002,0.004,0.004,0.008,0.004c0,0.004,0,0.004,0,0.004
	c0.002,0.002,0.002,0.003,0.008,0.007c0.125,0.128,0.256,0.253,0.393,0.371l0.223-0.251c0.178,0.156,0.363,0.305,0.557,0.441
	l-0.193,0.273c0.078,0.054,0.158,0.106,0.236,0.162c0.004,0,0.006,0.002,0.008,0.002c0.004,0.004,0.008,0.004,0.012,0.006
	c0.016,0.013,0.033,0.024,0.051,0.034c0,0,0,0,0,0.003c0.004,0,0.006,0.002,0.01,0.002l0,0c0.006,0.006,0.006,0.006,0.008,0.006
	c0,0,0.004,0,0.004,0.004c0.002,0,0.002,0,0.004,0.002c0.004,0,0.004,0.004,0.006,0.004s0.002,0,0.004,0
	c0.002,0.004,0.002,0.004,0.004,0.004c0.004,0.002,0.004,0.002,0.006,0.004c0.002,0,0.002,0.004,0.004,0.004
	c0.004,0,0.004,0.002,0.006,0.002c0.002,0.002,0.002,0.002,0.006,0.006c0.002,0,0.002,0,0.004,0
	c0.004,0.001,0.006,0.003,0.006,0.003v0.004c0.006,0.002,0.008,0.002,0.012,0.004c0.016,0.012,0.025,0.018,0.039,0.024
	c0.006,0.002,0.01,0.004,0.012,0.008c0.004,0.002,0.008,0.002,0.01,0.004c0.004,0.004,0.006,0.006,0.01,0.006
	c0,0.002,0,0.002,0,0.002c0.006,0,0.008,0.004,0.008,0.006c0,0,0,0,0.004,0c0.023,0.017,0.051,0.03,0.078,0.045l0.004,0.002
	c0.002,0,0.002,0.004,0.008,0.006c0.002,0,0.006,0,0.01,0.006c0.004,0,0.008,0.002,0.012,0.006c0,0,0.006,0.002,0.01,0.004
	c0.014,0.008,0.023,0.015,0.039,0.022v0.004l0.162-0.291c0.205,0.118,0.416,0.225,0.635,0.319l-0.129,0.299
	c0.219,0.092,0.439,0.175,0.668,0.247c0,0,0,0,0.002,0c0.004,0,0.006,0.002,0.008,0.002c0.004,0,0.004,0,0.006,0
	c0.002,0.004,0.006,0.004,0.006,0.004c0,0.002,0.004,0.002,0.006,0.002c0,0,0.004,0,0.004,0.002c0,0,0,0,0.004,0l0.094-0.303
	c0.225,0.07,0.455,0.13,0.689,0.179l-0.061,0.307c0.07,0.012,0.145,0.026,0.217,0.04c0.002,0,0.006,0,0.01,0
	c0.002,0,0.002,0,0.002,0c0.004,0,0.01,0,0.01,0s0,0,0.002,0c0.004,0,0.006,0.006,0.012,0.006c0.004,0,0.008,0,0.01,0l0,0
	c0.004,0,0.01,0,0.012,0h0.002c0.002,0.002,0.006,0.002,0.01,0.002s0.006,0.003,0.012,0.003c0.004,0,0.008,0,0.01,0.002h0.002
	c0.004,0,0.008,0,0.012,0c0,0,0,0,0.002,0c0,0,0.004,0.002,0.008,0.002c0.053,0.008,0.102,0.016,0.152,0.021
	c0.004,0.002,0.008,0.002,0.01,0.002s0.002,0,0.002,0c0.004,0,0.008,0,0.01,0c0,0.004,0.002,0.004,0.002,0.004
	c0.002,0,0.008,0,0.01,0c0,0,0,0,0.004,0c0.002,0,0.002,0,0.008,0c0,0,0,0,0.004,0h0.006c0.002,0,0.002,0,0.006,0
	c0.002,0,0.004,0.004,0.006,0.004h0.004c0.002,0,0.006,0,0.008,0h0.004c0.002,0.002,0.004,0.002,0.008,0.002
	c0.002,0,0.002,0,0.004,0s0.006,0,0.006,0h0.006c0,0.003,0.002,0.003,0.006,0.003c0.002,0,0.004,0,0.008,0h0.002
	c0.002,0,0.006,0,0.008,0c0,0,0,0,0.004,0c0.002,0,0.006,0,0.008,0c0.039,0.006,0.076,0.008,0.115,0.014l0.027-0.308
	c0.217,0.021,0.436,0.034,0.658,0.034c0.02,0,0.037-0.004,0.057-0.004l0.006,0.304c0.248-0.004,0.496-0.021,0.74-0.049l-0.035-0.297
	c0.24-0.028,0.475-0.068,0.707-0.12l0.064,0.285c0.02-0.002,0.037-0.007,0.059-0.011c0.002-0.002,0.008-0.002,0.008-0.002h0.004
	c0.002-0.004,0.004-0.004,0.008-0.004c0,0,0,0,0.004,0c0.002,0,0.006,0,0.006,0c0.006-0.006,0.006-0.006,0.006-0.006
	c0.002,0,0.006,0,0.008,0h0.002c0.002,0,0.006,0,0.008-0.002c0,0,0,0,0.006,0c0,0,0.004-0.004,0.006-0.004c0.004,0,0.004,0,0.004,0
	s0.006-0.002,0.008-0.002h0.004c0-0.002,0.006-0.002,0.008-0.002c0.002-0.004,0.006-0.004,0.006-0.004c0.002,0,0.004,0,0.008-0.002
	c0.002,0,0.002,0,0.004,0c0.004,0,0.006,0,0.006-0.002c0.002,0,0.004,0,0.008,0c0,0,0-0.004,0.004-0.004c0.002,0,0.002,0,0.004,0
	c0.004-0.001,0.006-0.001,0.006-0.001c0.002,0,0.006,0,0.008-0.002c0,0,0.002,0,0.006,0c0,0,0-0.004,0.004-0.004
	c0.002,0,0.004,0,0.004,0c0.002-0.002,0.006-0.002,0.008-0.002c0,0,0.002,0,0.006,0c0.002,0,0.002,0,0.004,0
	s0.006-0.006,0.006-0.006c0.002,0,0.002,0,0.006,0c0,0,0.002,0,0.004,0c0.004,0,0.004,0,0.004-0.004c0.004,0,0.006,0,0.006,0
	c0.004,0,0.004-0.002,0.01-0.002c0,0,0,0,0.002,0c0.004-0.004,0.004-0.004,0.006-0.004s0.002,0,0.006,0c0.002,0,0.004,0,0.008,0
	l0.002-0.002c0.004,0,0.004,0,0.006,0c0.004-0.004,0.006-0.004,0.01-0.004c0,0,0-0.002,0.004-0.002c0.002,0,0.008,0,0.01-0.002l0,0
	c0.006-0.003,0.008-0.003,0.012-0.003c0,0,0,0,0.002,0c0.002-0.002,0.006-0.002,0.008-0.002c0.002-0.002,0.002-0.002,0.002-0.002
	c0.002,0,0.008,0,0.01-0.004c0,0,0,0,0.002,0s0.004-0.002,0.008-0.002c0.002,0,0.002,0,0.002,0c0.006-0.002,0.008-0.002,0.01-0.002
	l0.004-0.004c0.002,0,0.004,0,0.006-0.002c0.004,0,0.004,0,0.004,0c0.004,0,0.006-0.002,0.008-0.002h0.004
	c0.002-0.004,0.004-0.004,0.01-0.004l0,0c0.104-0.03,0.207-0.064,0.311-0.099l-0.094-0.272c0.227-0.075,0.447-0.165,0.664-0.264
	l0.119,0.257c0.148-0.07,0.293-0.143,0.436-0.225c0.006,0,0.008,0,0.012-0.004h0.002c0.002-0.002,0.006-0.006,0.008-0.006h0.002
	c0.004,0,0.006-0.004,0.006-0.006h0.004c0.002-0.002,0.006-0.002,0.008-0.006c0,0,0.002,0,0.002-0.001c0.002,0,0.006,0,0.008-0.002
	c0,0,0.002-0.004,0.006-0.004l0.002-0.002c0.002,0,0.004-0.002,0.006-0.002c0-0.004,0.002-0.004,0.002-0.004
	c0.055-0.028,0.105-0.061,0.156-0.092l-0.143-0.235c0.207-0.122,0.406-0.255,0.598-0.397l0.162,0.217
	c0.035-0.026,0.066-0.052,0.098-0.076c0,0,0,0,0.004-0.004c0,0,0.002-0.002,0.006-0.002c0-0.002,0.002-0.002,0.002-0.002
	c0.002-0.004,0.004-0.006,0.004-0.006c0.004-0.002,0.004-0.002,0.006-0.003c0.002,0,0.002,0,0.006-0.004c0,0,0-0.002,0.004-0.006
	h0.002c0.004,0,0.004-0.002,0.01-0.006l0,0c0.002-0.002,0.006-0.004,0.008-0.008c0.146-0.116,0.287-0.239,0.424-0.367l-0.18-0.189
	c0.176-0.162,0.344-0.333,0.504-0.512l0.191,0.165c0.012-0.013,0.02-0.024,0.029-0.036c0.004,0,0.004,0,0.004-0.002
	c0.002,0,0.004-0.004,0.004-0.006c0.004-0.001,0.004-0.001,0.006-0.005c0,0,0.002-0.002,0.002-0.004
	c0.002,0,0.002-0.004,0.004-0.004c0-0.002,0.002-0.002,0.002-0.004c0.004-0.002,0.004-0.002,0.006-0.006h0.002
	c0.004-0.004,0.004-0.006,0.006-0.008c0,0,0.002,0,0.002-0.004c0.004-0.002,0.004-0.002,0.006-0.004v-0.003
	c0-0.002,0.004-0.004,0.006-0.008c0,0,0,0,0.004-0.002c0,0,0.002-0.002,0.004-0.004c0,0,0,0,0-0.004
	c0.012-0.01,0.023-0.022,0.031-0.038c0.002,0,0.002,0,0.002,0c0.004-0.002,0.004-0.006,0.004-0.008c0,0,0.004,0,0.004-0.002
	c0-0.004,0.002-0.004,0.006-0.004c0-0.003,0-0.003,0-0.003c0-0.002,0.004-0.006,0.006-0.006c0,0,0,0,0.002-0.006
	c0,0,0.004,0,0.004-0.002c0.002-0.004,0.002-0.004,0.002-0.004c0.002-0.002,0.006-0.004,0.006-0.008
	c0.002,0,0.002-0.002,0.002-0.002c0.002-0.002,0.002-0.002,0.006-0.005c0-0.002,0-0.002,0-0.004c0.002,0,0.002-0.004,0.006-0.006
	l0.002-0.002c0.002-0.004,0.002-0.004,0.006-0.004c0-0.004,0.002-0.006,0.004-0.01c0,0,0.004,0,0.004-0.006
	c0.002,0,0.004,0,0.004-0.002c0.004-0.002,0.004-0.002,0.004-0.002c0.002-0.003,0.002-0.005,0.002-0.007
	c0.004,0,0.004-0.004,0.004-0.004c0.002-0.002,0.004-0.004,0.004-0.008c0.004,0,0.004,0,0.004-0.002
	c0.002-0.002,0.002-0.006,0.004-0.006c0-0.002,0.002-0.002,0.002-0.002c0.004-0.002,0.004-0.004,0.006-0.008l0.002-0.001
	c0.004-0.004,0.004-0.004,0.004-0.006c0,0,0.004,0,0.004-0.004c0-0.002,0.002-0.004,0.004-0.008c0.08-0.101,0.156-0.203,0.23-0.31
	l-0.201-0.14c0.141-0.195,0.271-0.397,0.391-0.608l0.203,0.112c0.121-0.215,0.227-0.439,0.324-0.671l-0.205-0.086
	c0.096-0.221,0.182-0.444,0.254-0.675l0.201,0.061c0.057-0.187,0.104-0.38,0.146-0.574c0-0.004,0.002-0.006,0.002-0.012
	c0,0,0,0,0-0.002c0,0,0-0.003,0.002-0.005v-0.004c0-0.002,0-0.004,0.004-0.006c0-0.004,0-0.004,0-0.006s0-0.006,0-0.008
	c0.002,0,0.002-0.002,0.002-0.006c0-0.002,0-0.002,0-0.002c0.002-0.005,0.002-0.005,0.002-0.009v-0.002
	c0-0.004,0.004-0.008,0.004-0.01c0,0,0,0,0-0.002c0-0.004,0.002-0.006,0.002-0.01c0.006-0.024,0.008-0.047,0.012-0.07l-0.199-0.038
	c0.047-0.233,0.078-0.474,0.1-0.717l0.199,0.016c0.012-0.154,0.02-0.309,0.021-0.464c0-0.002,0-0.002,0-0.002
	c0-0.002,0-0.008,0-0.01c0-0.008,0-0.016,0-0.022c0-0.002,0-0.002,0-0.002c0-0.004,0-0.01,0-0.01v-0.002c0-0.004,0-0.006,0-0.012
	c0-0.004,0-0.006,0-0.011c0-0.006,0-0.008,0-0.01v-0.002c0-0.004,0-0.006,0-0.01c0,0,0,0,0-0.002c0-0.004,0-0.008,0-0.011
	c0-0.004,0-0.008,0-0.012c0-0.006,0-0.008,0-0.012c0-0.002,0-0.002,0-0.002c0-0.002,0-0.008,0-0.009c0-0.004,0-0.006,0-0.012
	C40.922,24.47,40.922,24.424,40.92,24.381z M14.299,23.918h-4.014l2.818-2.843C13.748,21.876,14.172,22.846,14.299,23.918z
	 M8.76,30.183c-3.094,0-5.607-2.517-5.607-5.604c0-3.094,2.514-5.609,5.607-5.609c1.312,0,2.502,0.471,3.459,1.229l-2.896,2.923
	c-0.168-0.07-0.354-0.111-0.549-0.111c-0.801,0-1.451,0.651-1.451,1.454c0,0.799,0.65,1.451,1.451,1.451
	c0.541,0,0.996-0.31,1.248-0.751h4.285C14.008,27.977,11.65,30.183,8.76,30.183z M17.111,23.918h-1.568
	c-0.01-0.087-0.033-0.167-0.045-0.253l0.221-0.026c-0.027-0.207-0.064-0.411-0.107-0.61c0-0.004-0.004-0.008-0.004-0.012
	c0-0.006,0-0.007,0-0.011v-0.002c0-0.002-0.006-0.008-0.006-0.008s0,0,0-0.004c0-0.002,0-0.006,0-0.01
	c0-0.002-0.002-0.008-0.002-0.01V22.97c-0.006-0.023-0.012-0.044-0.02-0.065l-0.205,0.05c-0.057-0.237-0.139-0.464-0.221-0.69
	l0.217-0.076c-0.035-0.097-0.072-0.193-0.111-0.291c-0.002-0.002-0.002-0.007-0.004-0.009c0,0,0,0,0-0.004
	c0-0.002-0.002-0.004-0.002-0.008l-0.002-0.002c0-0.002,0-0.004-0.002-0.008v-0.002c-0.004-0.004-0.004-0.004-0.006-0.006
	c0-0.003,0-0.003,0-0.005c-0.002-0.004-0.002-0.004-0.002-0.006s-0.004-0.002-0.004-0.004c0-0.004-0.002-0.006-0.002-0.006
	c0-0.002,0-0.006-0.002-0.006c0-0.002,0-0.004-0.004-0.008c0,0,0-0.002-0.002-0.004c0,0,0-0.002,0-0.005
	c-0.002-0.002-0.002-0.002-0.006-0.006v-0.002c-0.002-0.004-0.002-0.01-0.002-0.01c-0.004-0.006-0.004-0.008-0.006-0.014
	c-0.002-0.001-0.002-0.007-0.006-0.009c0,0,0,0,0-0.004c-0.002-0.002-0.002-0.004-0.004-0.008c0-0.002,0-0.002,0-0.002
	s-0.002-0.004-0.002-0.01c-0.004,0-0.004,0-0.004-0.002s-0.002-0.004-0.002-0.007l-0.004-0.002c0-0.002,0-0.006,0-0.008
	s0-0.002-0.002-0.002c0-0.004-0.004-0.008-0.004-0.012c0,0,0,0,0-0.002c-0.002-0.002-0.002-0.006-0.006-0.007l0,0
	c-0.002-0.004-0.002-0.006-0.004-0.01c0-0.002,0-0.002,0-0.002c-0.002-0.002-0.002-0.006-0.006-0.01
	c-0.008-0.022-0.018-0.044-0.027-0.062c0-0.004,0-0.004,0-0.004s-0.002-0.004-0.004-0.01c0,0-0.004-0.006-0.006-0.008
	c0,0,0,0,0-0.004c0-0.001-0.002-0.003-0.004-0.007v-0.002c0-0.002-0.004-0.006-0.006-0.008c0-0.002,0-0.002,0-0.002
	c0-0.004-0.002-0.008-0.002-0.01c-0.004,0-0.004,0-0.004-0.002c0-0.003-0.002-0.005-0.002-0.009c-0.002,0-0.002,0-0.002,0
	c0-0.002-0.004-0.006-0.004-0.008c-0.002,0-0.002-0.002-0.002-0.002c0-0.004,0-0.006,0-0.008c-0.004-0.004-0.004-0.004-0.004-0.004
	c0-0.004-0.002-0.008-0.004-0.01c0,0,0,0,0-0.002c-0.004-0.003-0.004-0.005-0.006-0.009c0,0,0,0,0-0.004
	c-0.002-0.002-0.002-0.006-0.006-0.006c0-0.002-0.002-0.002-0.002-0.006c0-0.002,0-0.002-0.002-0.004c0,0,0,0,0-0.004l-0.211,0.102
	c-0.105-0.217-0.211-0.432-0.338-0.636l0.191-0.117c-0.131-0.216-0.271-0.421-0.422-0.616l-0.193,0.147
	c-0.047-0.061-0.086-0.127-0.135-0.186l2.531-2.555l1.117,5.614C17.398,23.426,17.215,23.646,17.111,23.918z M19.418,23.205
	c-0.172-0.12-0.367-0.195-0.582-0.239l-1.195-6.012h10.844L19.418,23.205z M28.289,24.496c0-1.783,0.854-3.356,2.158-4.381
	c0.482,1.361,1.197,2.618,2.121,3.758c-0.08,0.182-0.131,0.378-0.131,0.591c0,0.799,0.65,1.451,1.451,1.451
	c0.803,0,1.453-0.652,1.453-1.451c0-0.803-0.65-1.454-1.453-1.454c-0.131,0-0.246,0.041-0.365,0.073
	c-0.889-1.099-1.559-2.321-1.99-3.648c0.721-0.337,1.514-0.538,2.355-0.538c3.088,0,5.602,2.514,5.602,5.6
	c0,3.089-2.514,5.601-5.602,5.601C30.803,30.097,28.289,27.585,28.289,24.496z"/>
</svg>
