<?xml version="1.0" encoding="utf-8"?>
<!-- Generator: Adobe Illustrator 16.0.0, SVG Export Plug-In . SVG Version: 6.00 Build 0)  -->
<!DOCTYPE svg PUBLIC "-//W3C//DTD SVG 1.1//EN" "http://www.w3.org/Graphics/SVG/1.1/DTD/svg11.dtd">
<svg version="1.1" id="Layer_1" xmlns="http://www.w3.org/2000/svg" xmlns:xlink="http://www.w3.org/1999/xlink" x="0px" y="0px"
	 width="42.52px" height="42.52px" viewBox="0 0 42.52 42.52" enable-background="new 0 0 42.52 42.52" xml:space="preserve">
<g>
	<path d="M11.254,16.939c0.017-1.8,0.574-3.186,1.673-4.157c1.029-0.962,2.259-1.444,3.688-1.444c1.471,0,2.721,0.482,3.751,1.446
		c1.048,0.973,1.589,2.361,1.622,4.164v8.609c-0.033,1.794-0.574,3.177-1.622,4.15c-1.03,0.964-2.28,1.455-3.751,1.473
		c-1.429-0.018-2.658-0.508-3.688-1.471c-1.099-0.972-1.656-2.353-1.673-4.144V16.939z M19.286,17.114
		c-0.053-1.958-0.942-2.956-2.672-2.991c-1.738,0.035-2.625,1.033-2.66,2.991v8.292c0.035,1.977,0.922,2.974,2.66,2.992
		c1.729-0.018,2.619-1.015,2.672-2.992V17.114z"/>
	<path d="M28.565,14.451l-2.69,2.036v-2.977l2.69-2.01h2.7v19.521h-2.7V14.451z"/>
</g>
</svg>
