<?xml version="1.0" encoding="utf-8"?>
<!-- Generator: Adobe Illustrator 16.0.0, SVG Export Plug-In . SVG Version: 6.00 Build 0)  -->
<!DOCTYPE svg PUBLIC "-//W3C//DTD SVG 1.1//EN" "http://www.w3.org/Graphics/SVG/1.1/DTD/svg11.dtd">
<svg version="1.1" id="Layer_1" xmlns="http://www.w3.org/2000/svg" xmlns:xlink="http://www.w3.org/1999/xlink" x="0px" y="0px"
	 width="42.52px" height="42.52px" viewBox="0 0 42.52 42.52" enable-background="new 0 0 42.52 42.52" xml:space="preserve">
<g>
	<path d="M9.366,16.939c0.016-1.8,0.574-3.186,1.674-4.157c1.029-0.963,2.259-1.444,3.686-1.444c1.472,0,2.722,0.482,3.752,1.446
		c1.047,0.973,1.588,2.361,1.623,4.164v8.609c-0.035,1.794-0.576,3.178-1.623,4.15c-1.03,0.964-2.28,1.455-3.752,1.473
		c-1.427-0.018-2.656-0.508-3.686-1.471c-1.1-0.972-1.658-2.353-1.674-4.144V16.939z M17.398,17.115
		c-0.053-1.959-0.943-2.957-2.673-2.992c-1.737,0.036-2.624,1.033-2.659,2.992v8.292c0.035,1.976,0.922,2.974,2.659,2.991
		c1.729-0.018,2.62-1.015,2.673-2.991V17.115z"/>
	<path d="M22.366,28.397l7.397-9.553c0.286-0.384,0.48-0.742,0.585-1.073c0.069-0.312,0.104-0.608,0.104-0.885
		c0-0.733-0.222-1.373-0.664-1.918c-0.459-0.546-1.11-0.827-1.95-0.845c-0.746,0-1.367,0.246-1.86,0.738
		c-0.512,0.492-0.815,1.185-0.911,2.079h-2.701c0.067-1.622,0.596-2.962,1.583-4.023c0.995-1.034,2.221-1.56,3.675-1.578
		c1.626,0.018,2.947,0.555,3.96,1.608c1.029,1.045,1.554,2.372,1.569,3.98c0,1.286-0.38,2.43-1.141,3.431l-6.087,7.879h7.228v2.783
		H22.366V28.397z"/>
</g>
</svg>
