<?xml version="1.0" encoding="utf-8"?>
<!-- Generator: Adobe Illustrator 16.0.0, SVG Export Plug-In . SVG Version: 6.00 Build 0)  -->
<!DOCTYPE svg PUBLIC "-//W3C//DTD SVG 1.1//EN" "http://www.w3.org/Graphics/SVG/1.1/DTD/svg11.dtd">
<svg version="1.1" id="Layer_1" xmlns="http://www.w3.org/2000/svg" xmlns:xlink="http://www.w3.org/1999/xlink" x="0px" y="0px"
	 width="42.52px" height="42.52px" viewBox="0 0 42.52 42.52" enable-background="new 0 0 42.52 42.52" xml:space="preserve">
<g>
	<path d="M9.459,16.939c0.017-1.8,0.575-3.186,1.674-4.157c1.03-0.962,2.259-1.444,3.687-1.444c1.472,0,2.722,0.482,3.752,1.446
		c1.048,0.973,1.588,2.361,1.623,4.164v8.609c-0.035,1.794-0.575,3.178-1.623,4.15c-1.03,0.964-2.28,1.455-3.752,1.473
		c-1.428-0.018-2.656-0.508-3.687-1.471c-1.099-0.971-1.657-2.353-1.674-4.144V16.939z M17.492,17.114
		c-0.053-1.958-0.943-2.956-2.673-2.992c-1.737,0.036-2.624,1.033-2.659,2.992v8.292c0.035,1.977,0.922,2.974,2.659,2.992
		c1.729-0.018,2.62-1.015,2.673-2.992V17.114z"/>
	<path d="M26.271,19.735h0.934c0.928,0,1.646-0.265,2.158-0.794c0.511-0.511,0.767-1.175,0.767-1.991
		c-0.018-0.826-0.281-1.503-0.792-2.033c-0.511-0.511-1.168-0.776-1.974-0.794c-0.58,0-1.107,0.193-1.583,0.578
		c-0.502,0.386-0.84,0.983-1.014,1.791h-2.713c0.139-1.445,0.705-2.663,1.699-3.654c0.978-0.981,2.145-1.481,3.503-1.499
		c1.721,0.018,3.087,0.585,4.099,1.701c0.969,1.089,1.462,2.374,1.479,3.856c0,0.75-0.134,1.473-0.401,2.169
		c-0.312,0.696-0.87,1.316-1.674,1.861c0.821,0.536,1.415,1.179,1.78,1.928c0.349,0.75,0.522,1.535,0.522,2.356
		c-0.017,1.83-0.565,3.271-1.646,4.325c-1.063,1.08-2.429,1.629-4.096,1.647c-1.288,0-2.428-0.428-3.422-1.283
		c-0.994-0.854-1.638-2.093-1.932-3.715h2.711c0.242,0.654,0.584,1.182,1.025,1.584c0.449,0.42,1.046,0.631,1.79,0.631
		c0.795,0,1.466-0.282,2.011-0.846c0.554-0.528,0.838-1.279,0.856-2.255c-0.019-0.993-0.303-1.763-0.856-2.309
		c-0.545-0.528-1.236-0.792-2.074-0.792h-1.158V19.735z"/>
</g>
</svg>
