<?xml version="1.0" encoding="utf-8"?>
<!-- Generator: Adobe Illustrator 16.0.0, SVG Export Plug-In . SVG Version: 6.00 Build 0)  -->
<!DOCTYPE svg PUBLIC "-//W3C//DTD SVG 1.1//EN" "http://www.w3.org/Graphics/SVG/1.1/DTD/svg11.dtd">
<svg version="1.1" id="Layer_1" xmlns="http://www.w3.org/2000/svg" xmlns:xlink="http://www.w3.org/1999/xlink" x="0px" y="0px"
	 width="42.52px" height="42.52px" viewBox="0 0 42.52 42.52" enable-background="new 0 0 42.52 42.52" xml:space="preserve">
<g>
	<path d="M8.968,16.939c0.018-1.8,0.575-3.186,1.675-4.157c1.029-0.962,2.258-1.444,3.687-1.444c1.471,0,2.722,0.482,3.752,1.446
		c1.047,0.973,1.588,2.361,1.622,4.164v8.609c-0.034,1.794-0.575,3.178-1.622,4.15c-1.03,0.964-2.281,1.455-3.752,1.473
		c-1.429-0.018-2.657-0.508-3.687-1.471c-1.1-0.971-1.657-2.353-1.675-4.144V16.939z M17.001,17.114
		c-0.053-1.958-0.942-2.956-2.672-2.992c-1.738,0.036-2.625,1.033-2.659,2.992v8.292c0.034,1.977,0.921,2.974,2.659,2.992
		c1.729-0.018,2.619-1.015,2.672-2.992V17.114z"/>
	<path d="M21.449,25.492l6.318-13.993h3.013l-6.386,13.993h4.938V19.87h2.701v5.622h1.518v2.622h-1.518v2.906h-2.701v-2.905
		l-7.884-0.001V25.492z"/>
</g>
</svg>
