<?xml version="1.0" encoding="utf-8"?>
<!-- Generator: Adobe Illustrator 16.0.0, SVG Export Plug-In . SVG Version: 6.00 Build 0)  -->
<!DOCTYPE svg PUBLIC "-//W3C//DTD SVG 1.1//EN" "http://www.w3.org/Graphics/SVG/1.1/DTD/svg11.dtd">
<svg version="1.1" id="Layer_1" xmlns="http://www.w3.org/2000/svg" xmlns:xlink="http://www.w3.org/1999/xlink" x="0px" y="0px"
	 width="42.52px" height="42.52px" viewBox="0 0 42.52 42.52" enable-background="new 0 0 42.52 42.52" xml:space="preserve">
<g>
	<path d="M9.298,16.939c0.018-1.8,0.575-3.186,1.675-4.157c1.029-0.962,2.258-1.444,3.687-1.444c1.471,0,2.722,0.482,3.752,1.446
		c1.047,0.973,1.588,2.361,1.622,4.164v8.609c-0.034,1.794-0.575,3.178-1.622,4.15c-1.03,0.964-2.281,1.455-3.752,1.473
		c-1.429-0.018-2.657-0.508-3.687-1.471c-1.1-0.971-1.657-2.353-1.675-4.144V16.939z M17.332,17.114
		c-0.054-1.958-0.943-2.956-2.673-2.992c-1.738,0.036-2.624,1.033-2.659,2.992v8.292c0.035,1.977,0.921,2.974,2.659,2.992
		c1.729-0.018,2.619-1.015,2.673-2.992V17.114z"/>
	<path d="M22.781,11.499h10.078v2.784h-7.537v4.448c0.884-0.714,1.895-1.071,3.03-1.071c0.729,0.018,1.396,0.152,2.004,0.402
		c0.571,0.276,1.036,0.616,1.392,1.017c0.525,0.536,0.905,1.156,1.137,1.861c0.121,0.383,0.207,0.852,0.259,1.405
		c0.052,0.562,0.078,1.253,0.078,2.075c0,1.267-0.087,2.24-0.259,2.918c-0.183,0.668-0.485,1.262-0.908,1.78
		c-0.372,0.506-0.913,0.968-1.622,1.385c-0.692,0.435-1.514,0.661-2.465,0.679c-1.28,0-2.452-0.392-3.516-1.176
		c-1.081-0.801-1.752-2.098-2.011-3.888h2.714c0.295,1.502,1.2,2.263,2.715,2.28c0.649,0,1.169-0.134,1.559-0.402
		c0.372-0.26,0.632-0.6,0.779-1.02c0.155-0.42,0.251-0.876,0.286-1.369c0.017-0.483,0.025-0.952,0.025-1.408
		c0.019-1.118-0.151-2.026-0.508-2.724c-0.191-0.331-0.474-0.594-0.848-0.792c-0.373-0.161-0.837-0.241-1.393-0.241
		c-0.495,0-0.947,0.116-1.355,0.348c-0.407,0.242-0.772,0.662-1.094,1.261h-2.541V11.499z"/>
</g>
</svg>
