<?xml version="1.0" encoding="utf-8"?>
<!-- Generator: Adobe Illustrator 16.0.0, SVG Export Plug-In . SVG Version: 6.00 Build 0)  -->
<!DOCTYPE svg PUBLIC "-//W3C//DTD SVG 1.1//EN" "http://www.w3.org/Graphics/SVG/1.1/DTD/svg11.dtd">
<svg version="1.1" id="Layer_1" xmlns="http://www.w3.org/2000/svg" xmlns:xlink="http://www.w3.org/1999/xlink" x="0px" y="0px"
	 width="42.52px" height="42.52px" viewBox="0 0 42.52 42.52" enable-background="new 0 0 42.52 42.52" xml:space="preserve">
<g>
	<path d="M7.408,16.94c0.019-1.8,0.655-3.187,1.911-4.157c1.176-0.962,2.579-1.444,4.21-1.444c1.681,0,3.109,0.482,4.285,1.446
		c1.196,0.974,1.814,2.362,1.854,4.165v8.609c-0.039,1.794-0.657,3.177-1.854,4.151c-1.176,0.963-2.604,1.454-4.285,1.472
		c-1.631-0.018-3.034-0.508-4.21-1.471c-1.256-0.971-1.893-2.352-1.911-4.144V16.94z M16.582,17.114
		c-0.061-1.959-1.077-2.956-3.053-2.992c-1.984,0.036-2.997,1.033-3.036,2.992v8.292c0.039,1.977,1.052,2.974,3.036,2.992
		c1.976-0.018,2.992-1.015,3.053-2.992V17.114z"/>
	<path d="M22.837,11.499h12.274v2.784l-7.307,16.738h-3.447l7.288-16.738h-5.724v2.831h-3.085V11.499z"/>
</g>
</svg>
