<?xml version="1.0" encoding="utf-8"?>
<!-- Generator: Adobe Illustrator 16.0.0, SVG Export Plug-In . SVG Version: 6.00 Build 0)  -->
<!DOCTYPE svg PUBLIC "-//W3C//DTD SVG 1.1//EN" "http://www.w3.org/Graphics/SVG/1.1/DTD/svg11.dtd">
<svg version="1.1" id="Layer_1" xmlns="http://www.w3.org/2000/svg" xmlns:xlink="http://www.w3.org/1999/xlink" x="0px" y="0px"
	 width="42.52px" height="42.52px" viewBox="0 0 42.52 42.52" enable-background="new 0 0 42.52 42.52" xml:space="preserve">
<g>
	<path d="M7.376,16.94c0.02-1.8,0.656-3.187,1.912-4.157c1.176-0.962,2.579-1.444,4.21-1.444c1.681,0,3.108,0.482,4.285,1.446
		c1.195,0.974,1.813,2.362,1.853,4.165v8.609c-0.039,1.794-0.657,3.177-1.853,4.151c-1.177,0.963-2.604,1.454-4.285,1.472
		c-1.631-0.018-3.034-0.508-4.21-1.471c-1.256-0.971-1.893-2.352-1.912-4.144V16.94z M16.55,17.114
		c-0.06-1.959-1.077-2.956-3.052-2.992c-1.984,0.036-2.997,1.033-3.037,2.992v8.292c0.04,1.977,1.053,2.974,3.037,2.992
		c1.975-0.018,2.992-1.015,3.052-2.992V17.114z"/>
	<path d="M21.929,25.324c0.021-1.884,0.899-3.349,2.634-4.394c-0.662-0.51-1.183-1.094-1.56-1.755
		c-0.438-0.616-0.657-1.348-0.657-2.197c0.02-1.625,0.628-2.969,1.823-4.033c1.127-1.053,2.58-1.589,4.36-1.607
		c1.809,0.018,3.287,0.554,4.434,1.606c1.157,1.063,1.745,2.406,1.765,4.031c0,0.848-0.198,1.58-0.597,2.196
		c-0.418,0.66-0.958,1.244-1.62,1.753c1.734,1.044,2.612,2.508,2.633,4.392c-0.021,1.758-0.659,3.165-1.918,4.218
		c-1.277,1.08-2.843,1.628-4.696,1.646c-1.844-0.018-3.385-0.566-4.623-1.645C22.608,28.485,21.948,27.081,21.929,25.324z
		 M25.018,25.296c0.021,0.896,0.379,1.629,1.076,2.202c0.667,0.6,1.479,0.899,2.436,0.899c0.986,0,1.812-0.3,2.48-0.899
		c0.677-0.573,1.025-1.307,1.045-2.202c-0.02-0.912-0.368-1.655-1.045-2.228c-0.668-0.563-1.494-0.854-2.48-0.873
		c-0.956,0.018-1.769,0.309-2.436,0.873C25.396,23.642,25.038,24.384,25.018,25.296z M25.431,16.922
		c0.021,0.905,0.344,1.597,0.969,2.073c0.615,0.494,1.325,0.74,2.13,0.74c0.834,0,1.559-0.246,2.174-0.74
		c0.606-0.476,0.919-1.167,0.939-2.073c-0.021-0.934-0.333-1.638-0.939-2.114c-0.615-0.458-1.34-0.687-2.174-0.687
		c-0.805,0-1.515,0.229-2.13,0.687C25.774,15.284,25.451,15.989,25.431,16.922z"/>
</g>
</svg>
