<?xml version="1.0" encoding="utf-8"?>
<!-- Generator: Adobe Illustrator 16.0.0, SVG Export Plug-In . SVG Version: 6.00 Build 0)  -->
<!DOCTYPE svg PUBLIC "-//W3C//DTD SVG 1.1//EN" "http://www.w3.org/Graphics/SVG/1.1/DTD/svg11.dtd">
<svg version="1.1" id="Layer_1" xmlns="http://www.w3.org/2000/svg" xmlns:xlink="http://www.w3.org/1999/xlink" x="0px" y="0px"
	 width="42.52px" height="42.52px" viewBox="0 0 42.52 42.52" enable-background="new 0 0 42.52 42.52" xml:space="preserve">
<g>
	<path d="M7.614,16.94c0.02-1.8,0.656-3.187,1.912-4.157c1.176-0.962,2.579-1.444,4.21-1.444c1.681,0,3.108,0.482,4.285,1.446
		c1.196,0.974,1.813,2.362,1.853,4.165v8.609c-0.039,1.794-0.656,3.177-1.853,4.151c-1.177,0.963-2.604,1.454-4.285,1.472
		c-1.631-0.018-3.034-0.508-4.21-1.471c-1.256-0.971-1.893-2.352-1.912-4.144V16.94z M16.789,17.114
		c-0.061-1.959-1.077-2.956-3.053-2.992c-1.984,0.036-2.997,1.033-3.037,2.992v8.292c0.04,1.977,1.053,2.974,3.037,2.992
		c1.976-0.018,2.992-1.015,3.053-2.992V17.114z"/>
	<path d="M22.646,16.94c0.02-1.8,0.656-3.187,1.912-4.157c1.176-0.962,2.579-1.444,4.21-1.444c1.681,0,3.108,0.482,4.285,1.446
		c1.196,0.974,1.813,2.362,1.853,4.165v8.609c-0.039,1.794-0.656,3.177-1.853,4.151c-1.177,0.963-2.604,1.454-4.285,1.472
		c-1.433-0.018-2.708-0.41-3.825-1.176c-1.127-0.749-1.853-1.831-2.179-3.248h3.191c0.485,1.093,1.426,1.64,2.821,1.64
		c1.969-0.018,2.984-1.017,3.044-2.998v-1.838c-1.476,0.419-2.852,0.62-4.128,0.602c-1.405,0.018-2.604-0.419-3.593-1.313
		c-0.99-0.867-1.475-2.238-1.454-4.113V16.94z M25.73,18.711c0.04,1.977,1.053,2.974,3.037,2.992
		c1.976-0.018,2.992-1.015,3.053-2.992v-1.597c-0.061-1.959-1.077-2.956-3.053-2.992c-1.984,0.036-2.997,1.033-3.037,2.992V18.711z"
		/>
</g>
</svg>
