<?xml version="1.0" encoding="utf-8"?>
<!-- Generator: Adobe Illustrator 16.0.0, SVG Export Plug-In . SVG Version: 6.00 Build 0)  -->
<!DOCTYPE svg PUBLIC "-//W3C//DTD SVG 1.1//EN" "http://www.w3.org/Graphics/SVG/1.1/DTD/svg11.dtd">
<svg version="1.1" id="Layer_1" xmlns="http://www.w3.org/2000/svg" xmlns:xlink="http://www.w3.org/1999/xlink" x="0px" y="0px"
	 width="42.52px" height="42.52px" viewBox="0 0 42.52 42.52" enable-background="new 0 0 42.52 42.52" xml:space="preserve">
<g>
	<path d="M11.521,14.451l-3.072,2.035v-2.977l3.072-2.01h3.085v19.521h-3.085V14.451z"/>
	<path d="M21.812,16.94c0.02-1.8,0.656-3.187,1.912-4.157c1.176-0.962,2.579-1.444,4.21-1.444c1.68,0,3.108,0.482,4.284,1.446
		c1.196,0.974,1.814,2.362,1.854,4.165v8.609c-0.039,1.794-0.657,3.177-1.854,4.151c-1.176,0.963-2.604,1.454-4.284,1.472
		c-1.631-0.018-3.034-0.508-4.21-1.471c-1.256-0.971-1.893-2.352-1.912-4.144V16.94z M30.985,17.114
		c-0.06-1.959-1.077-2.956-3.052-2.992c-1.984,0.036-2.997,1.033-3.037,2.992v8.292c0.04,1.977,1.053,2.974,3.037,2.992
		c1.975-0.018,2.992-1.015,3.052-2.992V17.114z"/>
</g>
</svg>
