<?xml version="1.0" encoding="utf-8"?>
<!-- Generator: Adobe Illustrator 16.0.0, SVG Export Plug-In . SVG Version: 6.00 Build 0)  -->
<!DOCTYPE svg PUBLIC "-//W3C//DTD SVG 1.1//EN" "http://www.w3.org/Graphics/SVG/1.1/DTD/svg11.dtd">
<svg version="1.1" id="Layer_1" xmlns="http://www.w3.org/2000/svg" xmlns:xlink="http://www.w3.org/1999/xlink" x="0px" y="0px"
	 width="42.52px" height="42.52px" viewBox="0 0 42.52 42.52" enable-background="new 0 0 42.52 42.52" xml:space="preserve">
<g>
	<path d="M11.688,14.451l-3.071,2.035v-2.977l3.071-2.01h3.085v19.521h-3.085V14.451z"/>
	<path d="M26.148,19.735h1.066c1.06,0,1.88-0.265,2.464-0.794c0.584-0.511,0.875-1.175,0.875-1.992
		c-0.02-0.825-0.32-1.503-0.903-2.032c-0.584-0.511-1.335-0.776-2.254-0.794c-0.662,0-1.265,0.193-1.809,0.579
		c-0.573,0.387-0.959,0.983-1.157,1.791h-3.098c0.158-1.446,0.805-2.663,1.94-3.654c1.116-0.982,2.448-1.481,4-1.5
		c1.965,0.018,3.525,0.584,4.681,1.701c1.106,1.089,1.669,2.375,1.688,3.856c0,0.75-0.152,1.473-0.458,2.169
		c-0.357,0.696-0.994,1.316-1.912,1.861c0.938,0.536,1.616,1.178,2.034,1.928c0.397,0.749,0.596,1.535,0.596,2.356
		c-0.02,1.83-0.646,3.271-1.88,4.325c-1.214,1.08-2.772,1.628-4.677,1.646c-1.471,0-2.772-0.427-3.908-1.283
		c-1.135-0.855-1.87-2.094-2.206-3.716h3.097c0.277,0.653,0.667,1.182,1.171,1.584c0.513,0.42,1.195,0.631,2.045,0.631
		c0.907,0,1.673-0.282,2.296-0.846c0.632-0.527,0.957-1.279,0.978-2.255c-0.021-0.993-0.346-1.763-0.978-2.309
		c-0.622-0.528-1.412-0.792-2.369-0.792h-1.322V19.735z"/>
</g>
</svg>
