<?xml version="1.0" encoding="utf-8"?>
<!-- Generator: Adobe Illustrator 16.0.0, SVG Export Plug-In . SVG Version: 6.00 Build 0)  -->
<!DOCTYPE svg PUBLIC "-//W3C//DTD SVG 1.1//EN" "http://www.w3.org/Graphics/SVG/1.1/DTD/svg11.dtd">
<svg version="1.1" id="Layer_1" xmlns="http://www.w3.org/2000/svg" xmlns:xlink="http://www.w3.org/1999/xlink" x="0px" y="0px"
	 width="42.52px" height="42.52px" viewBox="0 0 42.52 42.52" enable-background="new 0 0 42.52 42.52" xml:space="preserve">
<g>
	<path d="M11.426,14.314l-3.098,2.052v-3.002l3.098-2.025h3.11V31.02h-3.11V14.314z"/>
	<path d="M22.17,11.339h11.604v2.807h-8.679v4.483c1.019-0.719,2.183-1.08,3.49-1.08c0.838,0.019,1.607,0.153,2.306,0.405
		c0.659,0.279,1.193,0.621,1.603,1.026c0.605,0.54,1.043,1.165,1.31,1.875c0.139,0.386,0.238,0.859,0.298,1.417
		c0.06,0.567,0.09,1.264,0.09,2.091c0,1.278-0.1,2.259-0.299,2.942c-0.21,0.675-0.558,1.273-1.045,1.795
		c-0.429,0.51-1.052,0.975-1.867,1.396c-0.798,0.438-1.743,0.667-2.839,0.685c-1.474,0-2.823-0.395-4.047-1.186
		c-1.245-0.808-2.017-2.115-2.316-3.92h3.126c0.339,1.515,1.381,2.281,3.126,2.299c0.747,0,1.345-0.135,1.794-0.406
		c0.429-0.261,0.728-0.604,0.897-1.028c0.179-0.424,0.288-0.884,0.329-1.38c0.02-0.486,0.029-0.96,0.029-1.42
		c0.021-1.127-0.175-2.042-0.585-2.746c-0.22-0.334-0.545-0.6-0.976-0.798c-0.43-0.162-0.964-0.243-1.604-0.243
		c-0.57,0-1.091,0.117-1.561,0.351c-0.47,0.244-0.89,0.668-1.26,1.272H22.17V11.339z"/>
</g>
</svg>
