<?xml version="1.0" encoding="utf-8"?>
<!-- Generator: Adobe Illustrator 16.0.0, SVG Export Plug-In . SVG Version: 6.00 Build 0)  -->
<!DOCTYPE svg PUBLIC "-//W3C//DTD SVG 1.1//EN" "http://www.w3.org/Graphics/SVG/1.1/DTD/svg11.dtd">
<svg version="1.1" id="Layer_1" xmlns="http://www.w3.org/2000/svg" xmlns:xlink="http://www.w3.org/1999/xlink" x="0px" y="0px"
	 width="42.52px" height="42.52px" viewBox="0 0 42.52 42.52" enable-background="new 0 0 42.52 42.52" xml:space="preserve">
<g>
	<path d="M11.426,14.314l-3.098,2.052v-3.002l3.098-2.025h3.11V31.02h-3.11V14.314z"/>
	<path d="M22.646,16.944c0.02-1.801,0.656-3.188,1.912-4.161c1.176-0.963,2.58-1.445,4.211-1.445c1.462,0,2.762,0.375,3.899,1.123
		c1.106,0.766,1.813,1.867,2.119,3.3h-3.191c-0.485-1.075-1.431-1.622-2.836-1.64c-1.979,0.036-2.989,1.035-3.029,2.997v1.839
		c1.475-0.419,2.852-0.62,4.128-0.603c1.425,0,2.632,0.428,3.622,1.285c0.971,0.875,1.445,2.254,1.425,4.137v1.78
		c-0.039,1.794-0.656,3.178-1.853,4.151c-1.177,0.964-2.604,1.454-4.285,1.472c-1.631-0.018-3.034-0.508-4.21-1.471
		c-1.256-0.971-1.893-2.352-1.912-4.144V16.944z M25.73,25.405c0.04,1.978,1.053,2.975,3.037,2.993
		c1.976-0.018,2.992-1.015,3.053-2.993v-1.596c-0.061-1.959-1.077-2.956-3.053-2.992c-1.984,0.036-2.997,1.033-3.037,2.992V25.405z"
		/>
</g>
</svg>
