<?xml version="1.0" encoding="utf-8"?>
<!-- Generator: Adobe Illustrator 16.0.0, SVG Export Plug-In . SVG Version: 6.00 Build 0)  -->
<!DOCTYPE svg PUBLIC "-//W3C//DTD SVG 1.1//EN" "http://www.w3.org/Graphics/SVG/1.1/DTD/svg11.dtd">
<svg version="1.1" id="Layer_1" xmlns="http://www.w3.org/2000/svg" xmlns:xlink="http://www.w3.org/1999/xlink" x="0px" y="0px"
	 width="42.52px" height="42.52px" viewBox="0 0 42.52 42.52" enable-background="new 0 0 42.52 42.52" xml:space="preserve">
<g>
	<path d="M29.883,19.382c-0.436,0-0.85,0.083-1.246,0.202l-0.328-0.647v-2.662c0-1.054-0.824-1.877-1.877-1.877h-2.197
		c-0.424,0-0.768,0.343-0.768,0.768c0,0.423,0.344,0.766,0.768,0.766h2.197c0.213,0,0.344,0.131,0.344,0.344v1.709
		c-2.088,0.032-5.748,0.38-5.748,4.236c0,0.595-0.115,1-0.363,1.244c-0.545,0.546-2.01,0.546-3.68,0.524
		c0.004-0.079,0.023-0.154,0.023-0.235c0-2.415-1.957-4.371-4.373-4.371c-2.414,0-4.369,1.956-4.369,4.371
		c0,2.414,1.955,4.37,4.369,4.37c1.785,0,3.314-1.071,3.994-2.604l0.344,0.003c0.246,0,0.488,0.002,0.721,0.002
		c1.768,0,3.168-0.096,4.053-0.975c0.549-0.543,0.812-1.307,0.812-2.33c0-1.644,0.725-2.623,4.326-2.7l0.381,0.752
		c-1.059,0.797-1.754,2.053-1.754,3.481c0,2.414,1.955,4.37,4.371,4.37s4.371-1.956,4.371-4.37
		C34.254,21.338,32.299,19.382,29.883,19.382z M12.635,26.207c-1.354,0-2.453-1.101-2.453-2.454c0-1.354,1.1-2.457,2.453-2.457
		c1.357,0,2.457,1.103,2.457,2.457C15.092,25.106,13.992,26.207,12.635,26.207z M28.91,23.525l0.289,0.574
		c0.189,0.379,0.652,0.531,1.031,0.335c0.377-0.187,0.529-0.65,0.336-1.029l-0.301-0.598c0.373,0.151,0.639,0.517,0.639,0.945
		c0,0.563-0.457,1.021-1.021,1.021c-0.562,0-1.02-0.458-1.02-1.021C28.863,23.672,28.893,23.601,28.91,23.525z M29.883,26.207
		c-1.354,0-2.453-1.101-2.453-2.454c0-0.677,0.273-1.291,0.719-1.735l0.453,0.898c-0.156,0.241-0.248,0.527-0.248,0.837
		c0,0.849,0.682,1.53,1.529,1.53s1.533-0.682,1.533-1.53c0-0.818-0.639-1.478-1.443-1.524l-0.453-0.896
		c0.119-0.019,0.24-0.037,0.363-0.037c1.355,0,2.457,1.103,2.457,2.457C32.34,25.106,31.238,26.207,29.883,26.207z"/>
	<path d="M12.635,22.22c-0.846,0-1.529,0.685-1.529,1.533s0.684,1.53,1.529,1.53c0.85,0,1.533-0.682,1.533-1.53
		S13.484,22.22,12.635,22.22z M12.635,24.774c-0.562,0-1.02-0.458-1.02-1.021c0-0.564,0.457-1.022,1.02-1.022
		c0.564,0,1.023,0.458,1.023,1.022C13.658,24.316,13.199,24.774,12.635,24.774z"/>
	<path d="M16.766,19.721h4.104c0.426,0,0.768-0.343,0.768-0.766c0-0.425-0.342-0.768-0.768-0.768h-4.104
		c-0.211,0-0.344-0.132-0.344-0.341V17.39c0-0.421-0.342-0.765-0.766-0.765s-0.768,0.344-0.768,0.765v0.457
		C14.889,18.896,15.713,19.721,16.766,19.721z"/>
</g>
</svg>
