<?xml version="1.0" encoding="utf-8"?>
<!-- Generator: Adobe Illustrator 16.0.0, SVG Export Plug-In . SVG Version: 6.00 Build 0)  -->
<!DOCTYPE svg PUBLIC "-//W3C//DTD SVG 1.1//EN" "http://www.w3.org/Graphics/SVG/1.1/DTD/svg11.dtd">
<svg version="1.1" id="Layer_1" xmlns="http://www.w3.org/2000/svg" xmlns:xlink="http://www.w3.org/1999/xlink" x="0px" y="0px"
	 width="141.732px" height="141.732px" viewBox="0 0 141.732 141.732" enable-background="new 0 0 141.732 141.732"
	 xml:space="preserve">
<g>
	<path fill="#262626" d="M80.715,78.402c-0.043-0.006-0.08-0.041-0.094-0.082c-0.014-0.061,0.008-0.107,0.057-0.137
		c0.008-0.008,0.84-0.49,1.645-1.926l5.754-10.318c0.639-1.154,0.17-1.729-0.512-2.367c-0.047-0.045-0.053-0.117-0.01-0.166
		c0.021-0.023,0.057-0.037,0.092-0.041l18.395-0.051c2.844-0.041,3.807,1.729,3.18,2.879c-0.711,1.312-1.379,2.537-1.379,2.537
		c-0.523,0.947-1.107,1.725-2.938,2.098c0.619,0.084,0.963,0.246,1.094,0.52c0.186,0.385-0.096,0.887-0.424,1.465l-1.709,3.088
		c-0.932,1.682-2.729,2.502-5.486,2.506l-17.643,0.006L80.715,78.402L80.715,78.402z M89.067,71.898l-2.482,4.484l10.627-0.029
		c1.473,0.002,2.738,0.016,3.707-1.695l0.723-1.324c0.25-0.451,0.471-0.896,0.367-1.111c-0.133-0.275-0.879-0.326-2.381-0.326
		L89.067,71.898L89.067,71.898z M92.686,65.387l-2.479,4.48l10.133-0.061c2.455,0.01,3.404-0.232,4.191-1.666l0.67-1.205
		c0.297-0.555,0.535-1.033,0.43-1.252c-0.055-0.109-0.213-0.184-0.486-0.229c-0.277-0.051-0.68-0.068-1.312-0.064L92.686,65.387
		L92.686,65.387z M32.427,78.414c-0.062-0.01-0.109-0.074-0.098-0.139c0.006-0.033,0.027-0.062,0.061-0.082
		c0.006-0.004,0.838-0.49,1.643-1.93l5.756-10.322c0.639-1.146,0.168-1.727-0.51-2.359c-0.043-0.029-0.051-0.086-0.029-0.131
		c0.016-0.045,0.061-0.072,0.111-0.072l18.873-0.059c0.771,0,1.369,0.039,1.828,0.117c0.74,0.119,1.168,0.355,1.354,0.738
		c0.217,0.447,0.082,1.061-0.432,1.99l-1.424,2.57c-0.529,0.947-1.109,1.732-2.939,2.104c0.619,0.082,0.963,0.244,1.096,0.52
		c0.184,0.385-0.096,0.889-0.422,1.467l-1.713,3.086c-0.93,1.678-2.725,2.498-5.484,2.5L32.45,78.42
		C32.442,78.41,32.433,78.412,32.427,78.414L32.427,78.414z M40.778,71.906L38.3,76.391l10.629-0.031
		c1.467,0.01,2.736,0.014,3.703-1.693l0.725-1.318c0.248-0.457,0.467-0.904,0.363-1.113c-0.131-0.275-0.879-0.332-2.381-0.33
		L40.778,71.906z M44.403,65.393l-2.48,4.486l10.133-0.066c2.449,0.006,3.404-0.232,4.193-1.668l0.666-1.201
		c0.297-0.562,0.535-1.037,0.428-1.258c-0.057-0.109-0.215-0.186-0.484-0.229c-0.279-0.047-0.684-0.07-1.318-0.064H44.403z
		 M56.573,78.404c-0.047-0.002-0.084-0.037-0.096-0.086c-0.014-0.047,0.01-0.102,0.057-0.131c0.01-0.002,0.84-0.488,1.643-1.926
		l5.758-10.32c0.635-1.152,0.164-1.729-0.516-2.365c-0.033-0.029-0.049-0.08-0.031-0.127c0.021-0.045,0.064-0.07,0.109-0.076
		l18.878-0.055c0.77-0.002,1.367,0.039,1.826,0.113c0.738,0.127,1.172,0.359,1.354,0.738c0.217,0.451,0.082,1.066-0.434,1.994
		L83.7,68.73c-0.529,0.949-1.111,1.734-2.943,2.104c0.621,0.084,0.967,0.246,1.102,0.521c0.18,0.383-0.104,0.883-0.424,1.467
		l-1.711,3.084c-0.936,1.682-2.727,2.5-5.49,2.502H56.589C56.585,78.406,56.581,78.408,56.573,78.404z M64.929,71.9l-2.49,4.486
		l10.634-0.027c1.467,0.008,2.734,0.014,3.699-1.691l0.727-1.324c0.252-0.455,0.467-0.9,0.363-1.111
		c-0.133-0.275-0.879-0.33-2.379-0.328L64.929,71.9L64.929,71.9z M68.542,65.389l-2.475,4.48l10.13-0.057
		c2.451,0.004,3.404-0.238,4.197-1.67l0.668-1.201c0.295-0.559,0.531-1.037,0.424-1.256c-0.051-0.109-0.211-0.182-0.482-0.23
		c-0.275-0.047-0.686-0.07-1.316-0.068L68.542,65.389L68.542,65.389z"/>
</g>
</svg>
