<?xml version="1.0" encoding="utf-8"?>
<!-- Generator: Adobe Illustrator 16.0.0, SVG Export Plug-In . SVG Version: 6.00 Build 0)  -->
<!DOCTYPE svg PUBLIC "-//W3C//DTD SVG 1.1//EN" "http://www.w3.org/Graphics/SVG/1.1/DTD/svg11.dtd">
<svg version="1.1" id="Layer_1" xmlns="http://www.w3.org/2000/svg" xmlns:xlink="http://www.w3.org/1999/xlink" x="0px" y="0px"
	 width="141.732px" height="141.732px" viewBox="0 0 141.732 141.732" enable-background="new 0 0 141.732 141.732"
	 xml:space="preserve">
<path fill="#262626" d="M124.008,67.955c-2.805,2.029-5.771,2.133-5.768,2.117c1.137-4.324-1.598-3.473-2.912-3.119
	c-3.184,0.861-4.924,4.686-5.613,5.395c-1.182,1.209-1.518,0.379-1.154-0.453c0.979-2.236,2.857-5.504,3.186-5.523
	c0.773-0.055,5.461-1.354,7.457-4.668c1.014-1.691-0.566-2.463-2.1-1.863c-4.346,1.711-7.285,5.999-7.303,5.995
	c-2.154-0.033-4.615-0.602-4.617-3.202c0-3.084,6.338-2.928,6.338-2.928c-0.014-0.001-7.049-0.961-7.406,3.185
	c-0.205,2.414,2.664,3.722,4.996,3.722c0,0-0.861,1.189-1.48,2.014c-0.188,0.246-0.225,0.328-0.465,0.604
	c-0.012,0.014-1.037,0.176-1.033,0.17c0.686-3.582-2.355-2.922-3.805-2.064c-1.516,0.895-2.619,1.533-4.861,5.029
	c-0.455,0.713-2.385,1.289-1.721-0.018c0.947-1.861,4.082-4.908,2.412-5.598c-0.848-0.348-2.566,0.379-3.512,0.604
	c0,0,0.238-0.621,0.238-0.637c0,0-2.539-0.033-2.549-0.018c-0.809,1.24-1.287,2.027-2.617,3.771
	c-1.109,1.453-2.109,2.312-3.756,2.807c-0.344,0.104,4.34-6.578,4.359-6.598h-2.43c-0.018,0.002-0.465,0.5-0.465,0.5
	c-0.742-0.533-1.889-0.674-2.668-0.412c-3.119,1.049-4.273,3.893-6.615,5.889c-0.516,0.441-2.031,0.822-1.17-0.602
	c0.654-1.084,1.205-1.377,3.652-5.375l-2.24,0.002c-0.018,0-0.5,0.475-0.516,0.465c-1.689-1.311-3.453-0.238-4.756,0.74
	c-1.996,1.498-2.307,2.807-4.512,4.891c-0.504,0.477-2.357,0.92-0.412-1.773c0.447-0.619,2.93-3.531,1.809-4.166
	c-0.988-0.562-3.221,0.307-3.701,0.512c-0.066,0.031,0.154-0.443,0.24-0.67c0.004-0.018-2.48-0.018-2.516,0.053
	c-0.008,0.016-2.367,3.465-4.203,5.615c-0.496,0.584-1.1,0.807-1.498,0.723c-0.758-0.166-0.188-0.811,0.949-2.637
	c0.389-0.623,1.652-2.184,1.703-2.979c0.043-0.67-0.6-0.82-1.703-0.775c-0.861,0.037-2.051,0.482-2.824,0.98
	c-0.27,0.174,0-0.48-0.227-0.738c-0.197-0.232-0.588-0.301-0.824-0.309c-1.02-0.035-1.656,0.221-2.361,0.551
	c-0.375,0.172-0.836,0.465-0.756,0.293c0.086-0.189,0.119-0.535,0.221-0.775c0,0-2.502-0.033-2.512-0.02
	c-0.707,0.896-2.43,4.1-4.617,5.756c-0.883,0.666-2.496,1.203-1.205-0.605c1.725-2.412,2.016-2.686,3.564-5.131l-2.514,0.033
	c-0.08,0.094-0.467,0.533-0.482,0.518c-0.377-0.361-0.826-0.877-2.135-0.604c-2.787,0.588-4.992,3.748-5.684,4.582
	c-0.172,0.207-2.494,2.146-3.996,1.445c-2.096-0.979,1.482-5.707,1.584-5.717c2.498-0.189,3.801-0.59,6.029-1.584
	c2.705-1.208,6.619-3.922,5.441-5.272c-0.965-1.1-4.135-0.723-6.715,0.621c-0.396,0.203-0.76,0.393-1.172,0.654
	c-2.773,1.746-5.582,5.075-5.891,5.167c-1.482,0.449-10.248,0.201-12.5-0.553c-0.107-0.031-1.576,0.734-2.623,1.105
	c-1.17,0.412,13.25,0.518,14.504,0.311c0.207-0.035-2.051,2.168-2.445,5.199c-0.223,1.713,0.721,2.459,1.996,2.377
	c2.17-0.137,4.754-1.98,5.047-2.221c0.105-0.088-0.07,2.158,1.309,2.256c1.482,0.102,3.258-1.312,3.256-1.291
	c0.068,1.395,1.395,1.945,4.117,0.1c0.02-0.014-0.57,1.123-0.553,1.123c0.967,0,2.482,0.035,2.496,0.016
	c0.945-1.377,3.51-4.854,4.443-6.113c0.793-1.066,2.379-0.984,1.412,0.619c-0.598,0.994-3.135,4.375-3.736,5.479l2.582,0.016
	c1.088-1.449,2.705-4.27,4.119-5.838c1.436-1.594,2.494-0.639,1.721,0.414c-0.965,1.307-2.205,2.996-2.756,4.047
	c-0.936,1.781,1.555,1.387,2.238,1.172c0.654-0.207,1-0.346,1.467-0.537c0.146-0.059,0.514-0.221,0.533-0.24
	c0,0-0.004,0.006-0.01,0.014c0,0-0.004,0.008-0.006,0.012c-0.004,0.006-0.008,0.012-0.014,0.018
	c-0.004,0.008-0.008,0.018-0.016,0.027c-0.006,0.008-0.012,0.018-0.02,0.027c-0.158,0.242-0.602,0.932-1.119,1.738l0,0l0,0l0,0
	c-0.006,0.012-0.014,0.021-0.02,0.031c-0.113,0.18-0.232,0.359-0.348,0.543c-0.482,0.76-1.172,1.811-1.414,2.207
	c-0.008,0.014,2.463,0.043,2.48,0.035c0.016-0.012,0.037-0.029,0.061-0.049c0.01-0.01,0.016-0.016,0.023-0.023
	c0.02-0.02,0.039-0.039,0.059-0.066c0.01-0.01,0.021-0.02,0.025-0.027c0.033-0.035,0.064-0.076,0.104-0.121
	c0.004-0.008,0.01-0.014,0.012-0.016c0.033-0.045,0.07-0.092,0.111-0.143c0.01-0.018,0.023-0.037,0.035-0.051
	c0.035-0.045,0.068-0.094,0.107-0.143c0.012-0.02,0.021-0.037,0.035-0.051c0.049-0.07,0.1-0.143,0.152-0.217
	c0.006-0.01,0.012-0.02,0.02-0.029c0.051-0.068,0.104-0.141,0.154-0.219c0.014-0.021,0.029-0.043,0.043-0.062
	c0.053-0.078,0.104-0.15,0.156-0.232c0.01-0.012,0.02-0.025,0.029-0.037c0.131-0.197,0.277-0.412,0.424-0.633
	c0.008-0.01,0.012-0.02,0.021-0.029c0.139-0.215,0.287-0.438,0.441-0.67l0,0c0.342-0.521,0.711-1.078,1.086-1.645
	c1.967-2.961,3.652-5.148,4.033-5.561c0.836-0.914,2.227-0.77,1.701,0.326c-0.395,0.826-3.322,4.512-3.135,5.287
	c0.496,2.008,4.686-0.602,5.219-1.016c0.012-0.008-0.223,1.67,1.176,1.754c1.99,0.125,3.305-1.221,3.305-1.221
	s-0.227,3.258,5.096-0.619c-0.053,2.926,3.326,1.496,3.326,1.496c-0.018,0.047-0.037,0.09-0.061,0.133
	c-0.01,0.012-0.018,0.023-0.023,0.037c-0.02,0.033-0.041,0.066-0.068,0.1c-0.008,0.006-0.01,0.018-0.018,0.023
	c-0.027,0.037-0.062,0.076-0.104,0.113c-0.004,0.01-0.016,0.02-0.027,0.029c-0.029,0.029-0.062,0.057-0.092,0.084
	c-0.014,0.01-0.023,0.02-0.035,0.029c-0.039,0.035-0.086,0.066-0.129,0.1c-0.01,0.006-0.016,0.008-0.027,0.016
	c-0.035,0.027-0.076,0.053-0.121,0.08c-0.012,0.006-0.027,0.016-0.041,0.025c-0.047,0.027-0.094,0.055-0.145,0.082
	c0,0-0.002,0.004-0.006,0.004c-0.051,0.029-0.107,0.057-0.16,0.082c-0.01,0.008-0.023,0.012-0.031,0.018
	c-0.053,0.025-0.104,0.049-0.152,0.072c-0.006,0.002-0.006,0.002-0.006,0.002c-0.154,0.074-0.307,0.135-0.447,0.195
	c-0.051,0.021-0.1,0.039-0.146,0.059c-0.033,0.014-0.066,0.027-0.1,0.039c-0.023,0.012-0.047,0.021-0.072,0.031
	c-0.029,0.014-0.061,0.023-0.086,0.037c-0.016,0.008-0.035,0.014-0.051,0.02c-0.039,0.021-0.078,0.039-0.109,0.055
	c-2.895,1.553-4.209,2.426-5.406,4.496c-1.055,1.818,1.215,1.852,1.686,1.652c0.197-0.084,0.385-0.168,0.574-0.26
	c0.035-0.018,0.07-0.035,0.109-0.053c0.18-0.088,0.357-0.18,0.531-0.279c0.033-0.02,0.07-0.037,0.104-0.057
	c0.17-0.096,0.34-0.197,0.506-0.301c0.01-0.006,0.023-0.012,0.033-0.018c0.174-0.107,0.342-0.221,0.508-0.336
	c0.035-0.02,0.072-0.045,0.104-0.068c0.16-0.113,0.32-0.227,0.477-0.344c0.029-0.02,0.059-0.043,0.084-0.064
	c0.152-0.111,0.299-0.227,0.441-0.344c0.016-0.012,0.033-0.025,0.051-0.039c0.15-0.121,0.303-0.25,0.447-0.377
	c0.029-0.025,0.062-0.053,0.096-0.082c0.145-0.123,0.283-0.248,0.42-0.377c0.023-0.021,0.047-0.043,0.068-0.064
	c0.133-0.119,0.256-0.244,0.385-0.363c0.016-0.016,0.037-0.033,0.051-0.051c0.135-0.129,0.264-0.26,0.391-0.391
	c0.029-0.029,0.055-0.055,0.084-0.086c0.123-0.129,0.246-0.256,0.365-0.383c0.018-0.02,0.035-0.037,0.051-0.053
	c0.113-0.123,0.227-0.246,0.336-0.365c0.016-0.02,0.033-0.039,0.047-0.055c0.117-0.127,0.23-0.258,0.34-0.381
	c0.021-0.023,0.039-0.047,0.057-0.068c0.113-0.129,0.221-0.254,0.33-0.379l0,0c0.115-0.137,0.225-0.268,0.334-0.396v-0.002
	c0.109-0.131,0.217-0.258,0.316-0.379l0,0c0.014-0.016,0.023-0.027,0.033-0.043c0.08-0.092,0.15-0.184,0.227-0.27
	c0.07-0.084,0.137-0.168,0.205-0.248c0.014-0.02,0.035-0.041,0.049-0.059c0.053-0.061,0.104-0.123,0.15-0.18
	c0.02-0.023,0.043-0.047,0.059-0.068c0.061-0.072,0.123-0.145,0.182-0.209c0.01-0.014,2.547-0.984,2.547-0.984
	c-0.188,0.502-0.463,0.828-0.619,1.207c-0.008,0.018,2.6,0,2.619-0.016c0.498-0.588,3.809-5.479,4.631-6.285
	c0.848-0.83,2.078-0.66,1.311,0.688c-0.91,1.6-3.324,4.029-2.943,5.061c0.344,0.945,2.324,0.518,2.754,0.348
	c1.297-0.52,2.309-1.344,2.309-1.328c0.189,2.707,3.477,1.066,3.686,0.965c2.014-1.008,3.564-2.807,4.545-3.855
	c0,0,1.113-0.299,1.102-0.277c-0.291,0.604-1.062,1.873-1.324,2.584c-0.174,0.465-0.381,0.986-0.104,1.584
	c0.773,1.672,4.352-0.949,4.359-0.93c0.602,2.412,3.094,1.193,3.424,1.031c2.205-1.064,3.689-2.789,4.65-3.633
	c0.137-0.119,0.277,0.207,3.188-0.551c0,0-1.371,1.686-2.205,2.912c-0.064,0.09-0.123,0.184-0.191,0.283
	c-0.018,0.027-0.037,0.059-0.059,0.088c-0.047,0.074-0.096,0.146-0.143,0.223c-0.02,0.031-0.037,0.057-0.057,0.088
	c-0.061,0.092-0.119,0.186-0.18,0.279c-0.004,0.012-0.01,0.02-0.016,0.029c-0.072,0.109-0.139,0.221-0.211,0.336
	c0,0.002,0,0.002-0.004,0.002c-0.068,0.113-0.137,0.225-0.203,0.334v0.002c-0.311,0.504-0.58,0.957-0.744,1.232
	c-0.006,0.016-0.018,0.031-0.027,0.047c-0.008,0.018-0.02,0.037-0.029,0.051c-0.02,0.033-0.033,0.062-0.047,0.084
	c-0.006,0.008-0.004,0.006-0.01,0.012c-0.027,0.051-0.043,0.078-0.043,0.078c-6.906,0.035-21.186-0.348-29.314,3.031
	c0,0,2.361,1.002,2.377,0.998c6.41-2.859,16.295-3.736,27.35-3.531c0,0,0.004-0.008,0.006-0.008c0.002-0.006,0.006-0.014,0.012-0.02
	c0.061-0.107,0.318-0.543,0.641-1.082l0,0c0.127-0.211,0.26-0.434,0.396-0.66c0.006-0.006,0.01-0.016,0.012-0.02
	c0.027-0.045,0.055-0.09,0.082-0.133c0.008-0.018,0.02-0.033,0.029-0.051c0.023-0.035,0.047-0.076,0.07-0.115
	c0.014-0.025,0.027-0.045,0.043-0.07c0.027-0.043,0.053-0.086,0.078-0.129c0.027-0.045,0.057-0.088,0.082-0.131
	c0.012-0.021,0.025-0.041,0.037-0.061c0.023-0.037,0.047-0.074,0.07-0.113c0.01-0.021,0.023-0.039,0.039-0.061
	c0.02-0.033,0.043-0.07,0.064-0.107c0.01-0.016,0.023-0.035,0.037-0.055c0.02-0.035,0.043-0.07,0.064-0.104
	c0.012-0.018,0.018-0.035,0.031-0.049c0.029-0.045,0.057-0.092,0.084-0.135c0.006-0.004,0.004-0.004,0.006-0.008
	c0.029-0.045,0.059-0.09,0.086-0.133c0.008-0.01,0.014-0.021,0.021-0.031c0.02-0.029,0.039-0.059,0.057-0.086
	c0.008-0.014,0.02-0.025,0.029-0.039c0.014-0.023,0.029-0.047,0.045-0.066c0.006-0.012,0.016-0.023,0.021-0.033
	c0.018-0.021,0.031-0.041,0.043-0.061c0.004-0.008,0.012-0.018,0.018-0.023c0.02-0.027,0.037-0.051,0.053-0.068
	c0.678-1.096,1.328-1.787,2.395-2.979c0.566-0.637,1.76-1.127,2.6-1.705C125.127,68.041,124.534,67.574,124.008,67.955z
	 M112.917,64.508c0.336-0.405,0.559-0.629,0.949-0.999c0.357-0.34,0.576-0.517,0.963-0.826c0.438-0.348,0.691-0.536,1.154-0.844
	c0.412-0.272,0.67-0.432,1.084-0.658c0.123-0.062,0.193-0.111,0.33-0.135c0.164-0.025,0.299-0.054,0.43,0.054
	c0.117,0.09,0.141,0.194,0.156,0.346c0.018,0.171-0.002,0.323-0.105,0.499c-0.154,0.256-0.297,0.391-0.518,0.617
	c-0.223,0.238-0.373,0.354-0.619,0.57c-0.285,0.251-0.451,0.389-0.758,0.619c-0.35,0.263-0.555,0.409-0.93,0.639
	c-0.41,0.246-0.643,0.389-1.086,0.566c-0.229,0.094-0.361,0.137-0.602,0.207c-0.16,0.045-0.252,0.066-0.414,0.104
	c-0.252,0.057-0.635,0.121-0.656,0.119C112.295,65.387,112.676,64.801,112.917,64.508z M42.393,60.91
	c1.008,0.01,1.039,0.482,0.705,1.205c-0.428,0.929-4.873,4.047-8.076,4.065C36.313,63.957,40.43,60.892,42.393,60.91z
	 M39.573,72.549c-0.67-0.166-0.566-0.504-0.529-0.914c0.1-1.309,2.459-4.391,4.164-4.271c0.66,0.047,0.52,0.805,0.518,0.932
	C43.727,70.166,40.379,72.76,39.573,72.549z M72.79,72.553c-0.668-0.17-0.703-0.449-0.672-0.861
	c0.104-1.309,2.465-4.393,4.168-4.271c0.66,0.047,0.518,0.805,0.52,0.928C76.805,70.223,73.598,72.76,72.79,72.553z M76.372,80.096
	c0.141-0.242,0.162-0.412,0.328-0.639c0.43-0.584,0.594-0.699,1.031-1.084c0.475-0.416,0.775-0.613,1.312-0.949
	c0.316-0.201,0.502-0.311,0.844-0.48c0.445-0.223,1.227-0.559,1.189-0.482c0.033-0.014-0.232,0.506-0.416,0.811
	c-0.234,0.389-0.404,0.592-0.697,0.941c-0.377,0.461-0.623,0.701-1.059,1.107c-0.441,0.408-0.688,0.652-1.188,0.98
	c-0.262,0.172-0.375,0.258-0.689,0.398c-0.156,0.068-0.291,0.074-0.447-0.002c-0.1-0.047-0.154-0.092-0.209-0.189
	C76.293,80.365,76.292,80.236,76.372,80.096z M82.338,72.512c-0.668-0.17-0.705-0.449-0.674-0.859
	c0.104-1.311,2.463-4.393,4.172-4.271c0.656,0.047,0.516,0.805,0.516,0.928C86.348,70.186,83.147,72.719,82.338,72.512z
	 M104.944,67.73c-0.742,0.584-1.17,0.736-1.361,2.066c-0.066,0.482,0.191,0.619,0.361,0.756c0,0-1.938,2.375-3.133,2
	c-0.326-0.104-0.508-0.301-0.484-0.672c0.092-1.191,0.873-2.398,1.773-3.203c0.723-0.643,1.557-0.998,1.93-1.121l0.414-0.033
	l0.24,0.018l0.152,0.096l-0.08-0.082l0.221,0.176l-0.141-0.094L104.944,67.73z M115.944,69.723c-0.076,0.482,0.189,0.619,0.359,0.76
	c0,0-1.938,2.373-3.135,1.996c-0.326-0.102-0.508-0.299-0.482-0.67c0.156-2.137,2.693-4.129,3.703-4.322l0.367-0.049l0.287,0.029
	l0.072,0.018l0.049,0.037l-0.027-0.014l0.164,0.15C116.563,68.242,116.106,68.641,115.944,69.723z"/>
</svg>
