<?xml version="1.0" encoding="utf-8"?>
<!-- Generator: Adobe Illustrator 16.0.0, SVG Export Plug-In . SVG Version: 6.00 Build 0)  -->
<!DOCTYPE svg PUBLIC "-//W3C//DTD SVG 1.1//EN" "http://www.w3.org/Graphics/SVG/1.1/DTD/svg11.dtd">
<svg version="1.1" id="Layer_1" xmlns="http://www.w3.org/2000/svg" xmlns:xlink="http://www.w3.org/1999/xlink" x="0px" y="0px"
	 width="141.732px" height="141.732px" viewBox="0 0 141.732 141.732" enable-background="new 0 0 141.732 141.732"
	 xml:space="preserve">
<path fill="#262626" d="M72.792,78.027h-5.599L66.097,80.6l5.363,0.001c0.2-0.002,0.378-0.024,0.554-0.063
	c0.192-0.049,0.369-0.115,0.516-0.209c0.177-0.091,0.32-0.201,0.434-0.34c0.137-0.14,0.242-0.285,0.305-0.482l0.203-0.467
	c0.103-0.282-0.074-0.438-0.51-0.475c0.502-0.081,0.807-0.256,0.949-0.537l0.191-0.469c0.068-0.186,0.117-0.344,0.098-0.475
	c0.001-0.145-0.047-0.256-0.127-0.354c-0.09-0.087-0.193-0.154-0.354-0.195c-0.145-0.045-0.306-0.074-0.496-0.074h-5.355
	l-0.477,1.098l5.605-0.001L72.792,78.027 M72.381,79.012l-0.221,0.494l-4.535,0.001l0.227-0.495H72.381z M74.633,80.6l1.77-4.139
	h-1.08L73.575,80.6H74.633z M82.594,79.475l-4.746-0.001c-0.127,0-0.238-0.005-0.336-0.04c-0.096-0.035-0.185-0.072-0.227-0.125
	c-0.061-0.055-0.102-0.113-0.117-0.189c-0.01-0.057-0.001-0.139,0.026-0.208l0.341-0.808c0.041-0.062,0.089-0.136,0.178-0.205
	c0.076-0.072,0.152-0.125,0.265-0.179c0.097-0.056,0.21-0.092,0.325-0.118c0.118-0.035,0.246-0.045,0.368-0.045h4.731l0.477-1.096
	H78.51c-0.371,0-0.74,0.113-1.079,0.313c-0.354,0.199-0.587,0.44-0.708,0.724l-0.865,2.073c-0.135,0.278-0.098,0.534,0.07,0.728
	c0.178,0.207,0.461,0.301,0.828,0.301h5.357L82.594,79.475z M85.747,76.461h-1.113l-0.656,1.564
	c-0.066,0.186-0.113,0.331-0.113,0.458c0,0.13,0.033,0.227,0.098,0.296c0.047,0.076,0.146,0.146,0.256,0.18
	c0.115,0.035,0.252,0.053,0.414,0.053h4.287c0.459,0,0.838-0.074,1.102-0.223c0.299-0.148,0.518-0.398,0.666-0.762l0.662-1.566
	h-1.092l-0.67,1.566h-4.502L85.747,76.461z M85.688,80.6h1.068l0.471-1.131h-1.055L85.688,80.6z M97.545,79.473h-4.748
	c-0.131,0.002-0.24-0.004-0.348-0.038c-0.092-0.036-0.17-0.071-0.232-0.126c-0.055-0.054-0.088-0.113-0.107-0.188
	c-0.012-0.06,0-0.14,0.033-0.211l0.338-0.805c0.031-0.064,0.098-0.138,0.176-0.207c0.066-0.071,0.164-0.127,0.271-0.178
	c0.084-0.057,0.197-0.094,0.318-0.121c0.119-0.032,0.238-0.041,0.377-0.041l4.73-0.001l0.471-1.097h-5.365
	c-0.379,0-0.738,0.113-1.088,0.313c-0.355,0.199-0.596,0.44-0.701,0.724l-0.871,2.073c-0.137,0.278-0.09,0.534,0.072,0.73
	c0.178,0.202,0.441,0.298,0.818,0.298l5.373-0.001L97.545,79.473z M105.002,79.473l-4.744,0.001
	c-0.125-0.001-0.234-0.006-0.326-0.038c-0.09-0.037-0.176-0.074-0.24-0.127c-0.055-0.055-0.088-0.114-0.104-0.188
	c-0.02-0.059-0.02-0.141,0.016-0.21l1.041-2.45H99.59l-1.332,3.111c-0.115,0.278-0.086,0.533,0.074,0.727
	c0.188,0.205,0.461,0.302,0.836,0.301h5.371L105.002,79.473z M112.499,79.475h-5.668l0.207-0.463h5.635l0.434-0.986l-6.723,0.002
	l-0.637,1.543c-0.131,0.279-0.113,0.533,0.076,0.729c0.164,0.207,0.436,0.301,0.805,0.301h5.377L112.499,79.475z M106.6,77.56
	l6.701-0.003l0.465-1.096h-5.383c-0.357,0-0.725,0.113-1.062,0.314c-0.354,0.198-0.596,0.439-0.725,0.723L106.6,77.56z
	 M113.225,79.508l-0.455,1.093h5.355c0.193,0,0.387-0.029,0.57-0.073c0.186-0.045,0.348-0.111,0.521-0.197
	c0.143-0.086,0.289-0.197,0.402-0.342c0.145-0.139,0.242-0.287,0.305-0.482l0.211-0.468c0.16-0.356,0.16-0.613-0.01-0.758
	c-0.152-0.155-0.463-0.229-0.908-0.229h-5.365c-0.135,0.329-0.113,0.578,0.047,0.73c0.158,0.159,0.449,0.239,0.873,0.258h4.262
	l-0.201,0.467L113.225,79.508z M114.057,77.557h6.713l0.461-1.096h-5.363c-0.379,0-0.734,0.113-1.086,0.313
	c-0.34,0.198-0.58,0.44-0.711,0.727L114.057,77.557z M68.732,71.222l-18.476-0.001c-0.412,0.018-0.238-0.312-0.186-0.438
	c0.126-0.313,0.27-0.667,0.318-0.774c0.129-0.292,0.371-0.359,0.518-0.359c0.158,0.01,18.503,0,18.503,0l1.411-3.273H48.382
	l-2.188,5.153c-0.417,0.952-0.323,1.771,0.259,2.446c0.593,0.665,1.502,0.996,2.758,0.996h17.951L68.732,71.222z M49.045,64.801
	L71.494,64.8l1.533-3.657l-17.944,0.001c-1.25-0.001-2.449,0.337-3.607,1.022c-1.181,0.664-1.954,1.471-2.346,2.422L49.045,64.801z
	 M41.065,69.27c-0.223,0.508-0.705,0.973-1.512,1.385c-0.773,0.383-1.533,0.566-2.287,0.566l-11.878,0.001
	c-0.403,0-0.417-0.146-0.29-0.464c0.145-0.322,1.893-4.434,1.893-4.434l-3.545,0.002l-3.697,8.645h17.955
	c1.215,0,2.419-0.331,3.604-0.996c1.173-0.695,1.951-1.512,2.348-2.447l2.935-6.92c0.392-0.947,0.296-1.75-0.298-2.416
	c-0.584-0.697-1.481-1.048-2.731-1.049H25.615l-1.552,3.656L39.876,64.8c0.854,0,1.488,0.188,1.866,0.554
	c0.384,0.359,0.532,0.785,0.433,1.258L41.065,69.27z M82.893,64.801c0.566-0.001,0.357,0.412,0.348,0.47
	c0,0.022-4.053,9.681-4.053,9.681l3.576-0.002c0,0,3.977-9.613,4-9.679C86.805,65.213,87,64.8,87.401,64.8
	c0.773,0.001,3.865-0.011,4.945,0c0.434-0.011,0.521,0.196,0.393,0.471c-0.072,0.264-4.002,9.681-4.002,9.681h3.584l4.355-10.392
	c0,0,0.514-1.11-0.059-2.029c-0.586-0.931-1.555-1.395-2.984-1.388c-1.418,0-13.574-0.008-13.574-0.008
	c-0.422,0.008-1.775-0.045-3.654,1.055c-1.917,1.091-2.316,2.412-2.374,2.611H82.893z M73.397,66.36l-3.632,8.591l3.576,0.001
	l3.594-8.597L73.397,66.36z M117.307,64.812c0.24,0.006,0.674-0.052,0.449,0.467c0,0-0.268,0.678-0.299,0.773
	c-0.096,0.215-0.186,0.322-0.506,0.322c-0.113,0-18.363,0.008-18.363,0.008l-0.127,0.002l-3.633,8.565l3.586-0.003
	c0,0,2.027-4.742,2.125-4.939c0.287-0.569,0.689-0.576,0.775-0.576c0,0,12.469,0.01,14.111,0c0.623-0.002,0.498,0.49,0.463,0.568
	c-0.023,0.068-2.023,4.947-2.023,4.947l3.555,0.004l4.33-10.342c0,0,0.557-1.123-0.053-2.078c-0.584-0.963-1.562-1.389-2.988-1.389
	c-1.402,0-13.584-0.007-13.584-0.007s-1.68-0.13-3.736,1.084c-1.928,1.118-2.266,2.467-2.299,2.58L117.307,64.812z"/>
</svg>
