<?xml version="1.0" encoding="utf-8"?>
<!-- Generator: Adobe Illustrator 16.0.0, SVG Export Plug-In . SVG Version: 6.00 Build 0)  -->
<!DOCTYPE svg PUBLIC "-//W3C//DTD SVG 1.1//EN" "http://www.w3.org/Graphics/SVG/1.1/DTD/svg11.dtd">
<svg version="1.1" id="Layer_1" xmlns="http://www.w3.org/2000/svg" xmlns:xlink="http://www.w3.org/1999/xlink" x="0px" y="0px"
	 width="141.732px" height="141.732px" viewBox="0 0 141.732 141.732" enable-background="new 0 0 141.732 141.732"
	 xml:space="preserve">
<g>
	<path fill="#262626" d="M99.056,65.76c-0.701-0.078-1.227,0.453-1.424,1.076c-0.924,2.887-1.85,5.776-2.775,8.665
		c-0.193,0.605,0.264,1.264,0.877,1.334c0.705,0.078,1.23-0.453,1.428-1.076c0.928-2.887,1.85-5.776,2.777-8.665
		C100.13,66.487,99.671,65.829,99.056,65.76"/>
	<path fill="#262626" d="M71.72,65.76h-3.402c-0.723,0-1.213,0.396-1.428,1.074c-0.928,2.891-1.854,5.78-2.777,8.665
		c-0.195,0.607,0.268,1.268,0.879,1.334c0.703,0.08,1.227-0.453,1.426-1.072c0.811-2.531,1.621-5.063,2.434-7.592l1.893-0.002
		c0.064,0.002,0.129,0,0.195,0c-0.006,0.02-0.008,0.037-0.014,0.061c-0.131,0.547-0.355,1.08-0.535,1.613
		c-0.625,1.868-1.215,3.745-1.807,5.618c-0.191,0.605,0.264,1.266,0.881,1.334c0.701,0.078,1.227-0.451,1.424-1.074
		c0.67-2.127,1.33-4.262,2.062-6.366C73.412,68.04,73.794,65.76,71.72,65.76"/>
	<path fill="#262626" d="M62.38,74.427h-3.182c0.203-0.645,0.41-1.291,0.619-1.936h3.332c0.674-0.002,1.27-0.387,1.426-1.075
		c0.125-0.562-0.213-1.336-0.881-1.336h-3.107l0.613-1.914l3.324,0.002c0.674-0.002,1.273-0.389,1.426-1.076
		c0.127-0.559-0.213-1.332-0.879-1.332h-4.402c-0.721,0-1.213,0.396-1.428,1.074c-0.928,2.889-1.854,5.78-2.777,8.665
		c-0.178,0.557,0.252,1.334,0.879,1.336l4.494-0.002c0.672,0.002,1.268-0.385,1.422-1.074C63.386,75.198,63.046,74.425,62.38,74.427
		"/>
	<path fill="#262626" d="M96.611,67.399c0.316-0.537,0.098-1.322-0.486-1.566c-0.652-0.27-1.279,0.15-1.604,0.695l-2.641,4.443
		c0.082-1.393,0.166-2.791,0.248-4.188c0.039-0.648-0.613-1.107-1.211-1.018c-0.691,0.107-1.117,0.717-1.154,1.379
		c-0.168,2.762-0.332,5.532-0.496,8.293c-0.055,0.193-0.053,0.4-0.004,0.596c0.002,0.018,0.008,0.035,0.01,0.049
		c0,0.002,0.002,0.004,0.002,0.006c0.027,0.104,0.07,0.199,0.129,0.287c0.109,0.166,0.26,0.307,0.453,0.387
		c0.209,0.086,0.42,0.1,0.615,0.062c0.453-0.074,0.791-0.363,0.975-0.74c0.004-0.006,0.01-0.016,0.012-0.021
		C93.177,73.177,94.892,70.288,96.611,67.399"/>
	<path fill="#262626" d="M106.501,65.766h-2.254c-0.014,0-0.027-0.004-0.043-0.006c-0.107-0.012-0.211-0.008-0.312,0.006
		l-1.986,0.002c-0.674,0-1.271,0.385-1.428,1.074c-0.127,0.561,0.213,1.334,0.879,1.332l0.994,0.002
		c-0.781,2.439-1.564,4.883-2.346,7.325c-0.193,0.605,0.264,1.264,0.881,1.334c0.703,0.078,1.227-0.453,1.424-1.076
		c0.809-2.525,1.621-5.055,2.43-7.583h1.217c0.67,0,1.268-0.387,1.424-1.074C107.507,66.54,107.167,65.766,106.501,65.766"/>
	<path fill="#262626" d="M77.976,74.425h-3.188c0.207-0.646,0.418-1.289,0.621-1.936l3.334,0.002
		c0.672-0.002,1.27-0.391,1.424-1.077c0.127-0.561-0.213-1.334-0.877-1.33h-3.107l0.611-1.916l3.326-0.002
		c0.67,0.002,1.27-0.385,1.428-1.072c0.127-0.561-0.217-1.334-0.881-1.334l-4.408-0.002c-0.713,0.002-1.209,0.398-1.424,1.078
		c-0.926,2.887-1.852,5.776-2.777,8.665c-0.178,0.555,0.254,1.334,0.881,1.334h4.49c0.672,0.002,1.271-0.387,1.428-1.074
		C78.984,75.2,78.644,74.427,77.976,74.425"/>
	<path fill="#262626" d="M87.607,65.747H83.71c-0.016-0.002-0.025,0.002-0.037,0.006c-0.625,0.008-1.092,0.508-1.275,1.082
		c-0.926,2.891-1.852,5.78-2.775,8.665c-0.195,0.609,0.266,1.268,0.881,1.336c0.703,0.074,1.225-0.455,1.424-1.074
		c0.811-2.529,1.621-5.059,2.43-7.588l1.789-0.002c0.066,0,0.15,0.01,0.184,0.057c0.051,0.076-0.018,0.277-0.084,0.455
		c-0.115,0.328-0.275,0.775-0.381,1.072c-0.066,0.195-0.205,0.264-0.512,0.26c-0.027,0.002-0.055,0.002-0.084,0
		c-0.023,0.002-0.051-0.002-0.084-0.002c-0.074-0.006-0.049-0.008-0.146-0.008c-0.85,0-1.389,0.352-1.604,1.043
		c-0.133,0.434-0.104,0.778,0.086,1.034c0.219,0.299,0.619,0.4,0.898,0.404l0.266-0.002c0.123-0.002,0.201,0.021,0.23,0.062
		c0.066,0.092,0.004,0.34-0.049,0.52c-0.154,0.533-0.756,2.479-0.762,2.5c-0.119,0.385-0.088,0.727,0.09,0.965
		c0.176,0.238,0.484,0.363,0.912,0.363c1.045-0.002,1.352-0.908,1.469-1.246c0.154-0.459,0.627-2.027,0.797-2.676
		c0.15-0.57,0-1.273-0.439-1.594c0.322-0.084,0.695-0.291,0.863-0.467c0.016-0.018,0.033-0.033,0.053-0.051
		c0.203-0.203,0.438-0.436,1.018-2.516c0.258-0.932,0.217-1.631-0.127-2.082C88.375,65.782,87.781,65.747,87.607,65.747"/>
	<path fill="#262626" d="M35.009,73.595c0-2.088,1.439-4.829,5.016-7.202c3.572-2.375,7.684-3.08,10.016-3.08
		c2.328,0,4.678,0.543,6.227,2.119c1.695,1.725,1.391,3.75,0.891,5.084c0,0-1.031,3.249-5.41,5.68c-4.379,2.43-7.486,2.6-9.391,2.6
		C40.447,78.796,35.009,78.06,35.009,73.595 M43.271,77.288c1.469,0.059,3.871,0.023,7.293-1.855
		c3.42-1.879,4.271-4.545,4.271-4.545c0.408-1.094,0.678-2.771-0.602-4.262c-1.166-1.359-2.969-1.889-4.768-1.963
		c-1.797-0.076-4.98,0.377-7.779,2.232c-2.797,1.859-3.957,4.092-3.994,5.829C37.617,76.437,41.8,77.226,43.271,77.288"/>
	<path fill="#262626" d="M43.515,66.69c-0.799-0.004-1.443,0.643-1.441,1.439c-0.002,0.797,0.641,1.441,1.438,1.443l2.467-0.002
		l-3.92,3.911c-0.564,0.561-0.566,1.475-0.004,2.035c0.283,0.283,0.652,0.422,1.023,0.426c0.367,0,0.734-0.141,1.014-0.42
		l3.801-3.791v2.303c0,0.795,0.646,1.441,1.441,1.441c0.795-0.004,1.439-0.643,1.439-1.441V66.69H43.515z"/>
	<path fill="#262626" d="M106.191,69.284c-0.041,0.326-0.336,0.59-0.67,0.59s-0.566-0.26-0.527-0.588
		c0.039-0.326,0.34-0.582,0.678-0.582C106.003,68.702,106.234,68.959,106.191,69.284 M105.142,69.284
		c-0.033,0.26,0.137,0.469,0.398,0.469c0.25,0.004,0.469-0.209,0.5-0.463c0.033-0.26-0.131-0.469-0.391-0.469
		C105.398,68.821,105.173,69.032,105.142,69.284 M105.464,69.59h-0.137l0.074-0.584c0.055-0.01,0.131-0.018,0.225-0.018
		c0.111-0.002,0.16,0.018,0.195,0.045c0.033,0.027,0.053,0.066,0.043,0.123c-0.008,0.072-0.066,0.117-0.137,0.141l-0.002,0.008
		c0.055,0.016,0.078,0.062,0.084,0.141c0.008,0.088,0.02,0.121,0.027,0.143l-0.145-0.002c-0.012-0.02-0.016-0.068-0.025-0.141
		c-0.006-0.059-0.037-0.09-0.109-0.088h-0.066L105.464,69.59z M105.507,69.26l0.066,0.002c0.074-0.002,0.137-0.025,0.145-0.086
		c0.008-0.057-0.029-0.088-0.111-0.09c-0.037,0.002-0.062,0.004-0.078,0.008L105.507,69.26z"/>
	<path fill="#262626" d="M108.855,80.073H32.878l-0.002-18.415h75.979V80.073z M33.298,79.649h75.133V62.084H33.298V79.649z"/>
</g>
</svg>
