<?xml version="1.0" encoding="utf-8"?>
<!-- Generator: Adobe Illustrator 16.0.0, SVG Export Plug-In . SVG Version: 6.00 Build 0)  -->
<!DOCTYPE svg PUBLIC "-//W3C//DTD SVG 1.1//EN" "http://www.w3.org/Graphics/SVG/1.1/DTD/svg11.dtd">
<svg version="1.1" id="Layer_1" xmlns="http://www.w3.org/2000/svg" xmlns:xlink="http://www.w3.org/1999/xlink" x="0px" y="0px"
	 width="141.732px" height="141.732px" viewBox="0 0 141.732 141.732" enable-background="new 0 0 141.732 141.732"
	 xml:space="preserve">
<g id="ktm_1_">
	<path fill-rule="evenodd" clip-rule="evenodd" fill="#262626" d="M95.561,88.433c0-0.018,0.238-1.387,0.529-3.041l0.529-3.018
		l1.842,0.002c1.576,0.002,1.844,0.008,1.826,0.053c-0.012,0.031-0.043,0.197-0.068,0.371l-0.047,0.307h-1.414l-1.41-0.002
		l-0.121,0.689c-0.066,0.375-0.133,0.756-0.146,0.848l-0.025,0.162l1.01-0.002l1.01,0.002l-0.021,0.102
		c-0.012,0.059-0.041,0.217-0.064,0.348l-0.043,0.242h-1.014h-1.006l-0.193,1.086c-0.107,0.604-0.189,1.104-0.18,1.121
		c0.008,0.016,0.631,0.029,1.379,0.029c0.756,0,1.369,0.01,1.369,0.021c0,0.014-0.031,0.18-0.066,0.369l-0.061,0.34h-1.807
		C96.377,88.462,95.561,88.448,95.561,88.433 M92.788,88.433c0-0.018,0.236-1.385,0.529-3.043l0.533-3.014l0.412-0.002
		c0.23,0,0.412,0.006,0.414,0.014c0,0.023-1.041,5.904-1.057,5.986c-0.023,0.082-0.039,0.086-0.428,0.088
		C92.973,88.458,92.788,88.448,92.788,88.433z M89.813,85.091L89.813,85.091c-0.4,0.08-1.105,0.062-1.105-0.033
		c0.002-0.113,0.334-1.912,0.363-1.939c0.049-0.049,0.779-0.057,1.049-0.014c0.562,0.102,0.822,0.373,0.822,0.879
		C90.938,84.538,90.528,84.944,89.813,85.091z M87.268,88.358c0.01-0.062,0.254-1.424,0.533-3.027
		c0.281-1.607,0.523-2.93,0.535-2.947c0.025-0.027,0.916-0.08,1.416-0.086c1.027,0,1.727,0.289,1.961,0.822
		c0.076,0.16,0.09,0.262,0.09,0.549c-0.004,0.904-0.523,1.662-1.344,1.963c-0.107,0.039-0.197,0.072-0.205,0.076
		c-0.008,0.01,0.225,0.59,0.514,1.297c0.289,0.703,0.545,1.32,0.561,1.367l0.031,0.09l-0.469-0.004l-0.469,0.004l-0.463-1.275
		c-0.254-0.699-0.471-1.285-0.484-1.301c-0.008-0.018-0.215-0.045-0.461-0.061l-0.449-0.027l-0.227,1.334l-0.229,1.326h-0.432
		l-0.43,0.004L87.268,88.358z M83.61,85.796c0.26-1.469,0.471-2.676,0.471-2.678c0.004-0.006-0.438-0.014-0.971-0.01l-0.977-0.004
		l0.051-0.273c0.029-0.156,0.061-0.324,0.072-0.369l0.02-0.086h2.385c1.316-0.002,2.391,0.01,2.389,0.027
		c0,0.018-0.025,0.184-0.061,0.365l-0.061,0.336l-1.01,0.012l-1.008,0.012l-0.467,2.656c-0.26,1.465-0.473,2.66-0.473,2.668
		c-0.002,0.004-0.189,0.006-0.418,0.008l-0.416,0.002L83.61,85.796z M67.244,87.671L67.244,87.671
		c-0.279,0.057-0.643,0.07-0.893,0.035c-0.092-0.02-0.104-0.035-0.084-0.125c0.014-0.057,0.188-1.09,0.389-2.297
		c0.205-1.217,0.391-2.207,0.416-2.223c0.025-0.012,0.148-0.037,0.283-0.051c0.541-0.062,1.15,0.156,1.504,0.535
		c0.365,0.385,0.459,0.686,0.424,1.389c-0.027,0.574-0.096,0.854-0.342,1.367c-0.166,0.336-0.242,0.445-0.51,0.715
		C68.068,87.384,67.734,87.571,67.244,87.671z M65.289,88.415c0.002-0.023,0.24-1.404,0.531-3.055l0.533-3l0.168-0.033
		c0.098-0.023,0.473-0.037,0.826-0.041c0.918-0.002,1.373,0.111,1.924,0.479c0.582,0.389,0.85,0.922,0.896,1.789
		c0.062,1.211-0.326,2.318-1.043,2.975c-0.447,0.41-0.887,0.65-1.512,0.824c-0.266,0.072-0.422,0.086-1.314,0.1
		C65.47,88.464,65.287,88.458,65.289,88.415z M56.427,88.435c0.002-0.02,0.238-1.389,0.529-3.043l0.531-3.016l0.414-0.002
		c0.229,0.002,0.416,0.008,0.41,0.014c0.004,0.027-1.037,5.904-1.055,5.99c-0.021,0.078-0.039,0.084-0.426,0.084
		C56.613,88.462,56.431,88.448,56.427,88.435z M48.107,88.433c0-0.018,0.236-1.385,0.529-3.041l0.531-3.018h1.842
		c1.572,0,1.846,0.01,1.824,0.055c-0.012,0.031-0.043,0.195-0.07,0.369l-0.045,0.307h-1.412l-1.41,0.004l-0.123,0.684
		c-0.066,0.377-0.131,0.76-0.145,0.848l-0.025,0.162l1.01,0.002l1.006-0.002l-0.02,0.105c-0.01,0.061-0.041,0.215-0.066,0.348
		l-0.045,0.24H50.48h-1.008l-0.193,1.09c-0.107,0.6-0.188,1.098-0.178,1.117c0.006,0.014,0.631,0.029,1.379,0.029
		c0.75,0,1.365,0.01,1.367,0.021c-0.002,0.016-0.029,0.178-0.064,0.369l-0.062,0.34h-1.803
		C48.921,88.46,48.109,88.448,48.107,88.433z M42.736,88.339c0.016-0.07,0.254-1.436,0.529-3.037l0.516-2.904l0.412-0.014
		c0.227-0.006,0.412-0.006,0.412,0c0,0.027-0.504,2.908-0.523,2.986c-0.01,0.049,0,0.088,0.018,0.09
		c0.016,0,0.625-0.676,1.348-1.496c0.717-0.822,1.336-1.516,1.363-1.543c0.039-0.033,0.195-0.045,0.521-0.037l0.457,0.014
		L46.662,83.7c-0.623,0.715-1.133,1.307-1.133,1.314c0,0.002,0.314,0.746,0.693,1.641c0.387,0.9,0.715,1.674,0.734,1.721
		l0.035,0.084l-0.475,0.002h-0.475l-0.58-1.377c-0.318-0.756-0.598-1.377-0.615-1.375c-0.029-0.002-0.791,0.834-0.973,1.068
		c-0.027,0.039-0.117,0.43-0.193,0.869l-0.143,0.795l-0.41,0.01l-0.414,0.01L42.736,88.339z M39.865,88.433
		c0-0.018,0.236-1.387,0.531-3.043l0.531-3.012l0.414-0.002c0.227,0,0.412,0.004,0.412,0.014c0,0.023-1.039,5.902-1.059,5.986
		c-0.02,0.08-0.039,0.086-0.426,0.086C40.048,88.462,39.867,88.448,39.865,88.433z M37.091,84.724L37.091,84.724
		c-0.387,0.062-1,0.035-1-0.047c0-0.025,0.053-0.393,0.121-0.816c0.084-0.543,0.137-0.789,0.18-0.82
		c0.078-0.059,0.811-0.062,1.084-0.006c0.408,0.086,0.645,0.383,0.6,0.75c-0.029,0.229-0.152,0.523-0.262,0.627
		C37.673,84.544,37.357,84.675,37.091,84.724z M36.656,87.751L36.656,87.751c-0.277,0.051-0.92,0.074-1.074,0.031
		c-0.053-0.018-0.064-0.047-0.049-0.145c0.012-0.064,0.109-0.584,0.205-1.15c0.104-0.566,0.199-1.043,0.213-1.057
		c0.053-0.053,0.67-0.059,0.941-0.01c0.656,0.113,1.004,0.443,1.039,1.004C37.98,87.095,37.505,87.587,36.656,87.751z
		 M34.654,88.476c-0.102-0.02-0.109-0.027-0.082-0.156c0.014-0.078,0.256-1.445,0.541-3.049c0.279-1.592,0.518-2.906,0.521-2.916
		c0.008-0.008,0.268-0.031,0.572-0.059c1.812-0.146,2.754,0.365,2.691,1.469c-0.035,0.6-0.402,1.062-0.977,1.25
		c-0.059,0.016-0.018,0.051,0.201,0.156c0.422,0.207,0.613,0.52,0.652,1.111c0.088,1.227-0.559,1.936-1.953,2.16
		C36.478,88.495,34.957,88.519,34.654,88.476z M61.98,86.399c-0.646-1.174-1.186-2.137-1.199-2.137s-0.174,0.906-0.363,2.016
		c-0.182,1.104-0.346,2.051-0.355,2.098c-0.021,0.08-0.037,0.086-0.422,0.086c-0.219-0.004-0.398-0.008-0.4-0.016
		c0.002-0.041,1.045-5.943,1.064-6.002c0.014-0.051,0.062-0.068,0.18-0.07l0.162,0.002l1.139,2.031
		c0.621,1.113,1.154,2.029,1.174,2.043c0.025,0.004,0.184-0.859,0.385-2.033l0.344-2.041l0.393,0.002
		c0.268-0.004,0.398,0.01,0.4,0.041c0,0.047-1.031,5.891-1.062,6.033c-0.012,0.072-0.045,0.086-0.143,0.084
		C63.15,88.534,63.15,88.534,61.98,86.399z M101.881,88.554c-0.055-0.006-0.199-0.035-0.326-0.059
		c-0.207-0.039-0.674-0.174-0.707-0.207c-0.018-0.016,0.219-0.789,0.24-0.787c0.012-0.002,0.072,0.031,0.143,0.07
		c0.371,0.221,1.166,0.303,1.555,0.17c0.287-0.094,0.539-0.369,0.596-0.633c0.105-0.523-0.111-0.838-1.043-1.535
		c-0.416-0.318-0.734-0.646-0.844-0.875c-0.197-0.414-0.182-1.059,0.029-1.508c0.209-0.449,0.709-0.803,1.26-0.896
		c0.449-0.074,1.525,0,1.646,0.117c0.016,0.012-0.002,0.127-0.045,0.254c-0.039,0.129-0.092,0.303-0.115,0.395l-0.043,0.16
		l-0.121-0.072c-0.16-0.094-0.572-0.197-0.801-0.195c-0.24,0-0.605,0.104-0.777,0.215c-0.223,0.145-0.354,0.4-0.357,0.686
		c0.002,0.408,0.145,0.59,0.906,1.178c0.738,0.564,1.02,0.953,1.123,1.539c0.053,0.346,0,0.766-0.145,1.072
		c-0.174,0.387-0.6,0.703-1.113,0.84C102.708,88.542,102.059,88.589,101.881,88.554z M78.231,88.554
		c-0.057-0.01-0.201-0.033-0.326-0.059c-0.207-0.039-0.672-0.172-0.713-0.207c-0.012-0.014,0.223-0.789,0.248-0.787
		c0.01-0.002,0.074,0.031,0.143,0.07c0.369,0.221,1.164,0.305,1.557,0.172c0.283-0.096,0.535-0.371,0.594-0.635
		c0.105-0.523-0.113-0.84-1.041-1.535c-0.42-0.314-0.736-0.645-0.846-0.873c-0.197-0.418-0.184-1.062,0.025-1.51
		c0.211-0.449,0.711-0.803,1.264-0.896c0.447-0.074,1.521,0.002,1.645,0.117c0.014,0.012-0.004,0.127-0.043,0.252
		c-0.041,0.131-0.094,0.305-0.115,0.398l-0.043,0.156l-0.125-0.07c-0.156-0.094-0.57-0.193-0.799-0.197
		c-0.24,0-0.605,0.102-0.775,0.219c-0.223,0.141-0.354,0.398-0.354,0.686c-0.002,0.406,0.137,0.59,0.902,1.174
		c0.74,0.562,1.021,0.955,1.117,1.541c0.059,0.348,0.004,0.766-0.137,1.072c-0.178,0.385-0.602,0.703-1.119,0.84
		C79.059,88.544,78.409,88.587,78.231,88.554z M72.599,88.524c-0.326-0.072-0.613-0.219-0.844-0.438
		c-0.262-0.242-0.385-0.51-0.41-0.893c-0.02-0.273,0.023-0.557,0.377-2.564l0.396-2.254h0.434c0.391-0.002,0.43,0.004,0.416,0.068
		c-0.109,0.443-0.748,4.211-0.748,4.402c0,0.193,0.023,0.297,0.1,0.453c0.18,0.361,0.479,0.521,0.979,0.521
		c0.681-0.004,1.21-0.367,1.421-0.977c0.037-0.117,0.242-1.17,0.453-2.338l0.379-2.133l0.414,0.002c0.24,0,0.416,0.012,0.416,0.039
		c-0.002,0.018-0.176,1.021-0.387,2.223c-0.236,1.361-0.42,2.285-0.477,2.445c-0.246,0.682-0.787,1.17-1.525,1.375
		C73.619,88.567,72.955,88.595,72.599,88.524z"/>
	<polygon fill-rule="evenodd" clip-rule="evenodd" fill="#262626" points="39.822,58.771 50.685,58.771 47.826,65.861 
		56.402,58.657 64.064,58.656 55.257,65.975 60.406,72.604 66.351,56.714 51.373,56.713 52.63,53.167 94.133,53.167 93.45,56.828 
		77.786,56.828 73.552,68.719 83.504,58.998 93.223,59 91.848,65.515 99.508,58.77 109.688,58.771 105.569,77.179 95.624,77.179 
		96.309,71.119 89.334,77.409 79.958,77.409 80.987,70.892 74.239,77.296 50.568,77.296 45.652,71.233 42.91,77.294 32.044,77.409 	
		"/>
</g>
</svg>
