<?xml version="1.0" encoding="utf-8"?>
<!-- Generator: Adobe Illustrator 16.0.0, SVG Export Plug-In . SVG Version: 6.00 Build 0)  -->
<!DOCTYPE svg PUBLIC "-//W3C//DTD SVG 1.1//EN" "http://www.w3.org/Graphics/SVG/1.1/DTD/svg11.dtd">
<svg version="1.1" id="Layer_1" xmlns="http://www.w3.org/2000/svg" xmlns:xlink="http://www.w3.org/1999/xlink" x="0px" y="0px"
	 width="141.732px" height="141.732px" viewBox="0 0 141.732 141.732" enable-background="new 0 0 141.732 141.732"
	 xml:space="preserve">
<g>
	<g>
		<path fill-rule="evenodd" clip-rule="evenodd" fill="#262626" d="M95.301,62.965h-6.646l-1.508,2.322c0,0-0.221,0.309-0.354,0.559
			c-0.135,0.248-0.318,0.652-0.318,0.652H86.34c0,0-0.027-0.266-0.066-0.547c-0.037-0.277-0.125-0.52-0.125-0.52l-0.93-2.466
			l-6.637-0.001l3.918,7.403l-6.521,7.826l-4.148-7.836l6.234-7.392l-6.656-0.001c0,0-1.498,2.305-1.777,2.735
			c-0.277,0.436-0.412,0.799-0.412,0.799h-0.135c0,0-0.027-0.328-0.057-0.518c-0.029-0.191-0.154-0.607-0.154-0.607l-0.912-2.408
			h-6.625l3.926,7.404l-6.365,7.643l-3.139-15.046h-6.521l-7.48,14.576l-0.164-14.577l-5.99,0.001l-3.545,8.289l-0.135-0.002
			l-0.93-8.287h-6.049L19.842,78.75l5.686,0.002l2.189-8.643l0.191,0.01c0,0-0.008,0.576-0.008,0.902
			c-0.002,0.324,0.084,1.162,0.084,1.162l1.037,6.596l3.438,0.002c0,0,3.592-7.357,3.746-7.732s0.344-0.93,0.344-0.93h0.107
			c0,0-0.48,7.576-0.518,8.113c-0.039,0.537-0.02,0.537-0.02,0.537l11.244,0.002l0.777-1.949l4.457-0.002l0.211,1.959l12.156,0.002
			c0,0,2.469-3.496,2.584-3.65s0.355-0.672,0.355-0.672l0.174-0.002c0,0-0.01,0.137,0.008,0.367c0.02,0.23,0.125,0.451,0.125,0.451
			l1.354,3.504h12.646c0,0,2.385-3.369,2.506-3.543c0.125-0.172,0.434-0.768,0.434-0.768h0.164c0,0,0,0.086,0.018,0.268
			c0.02,0.182,0.105,0.461,0.105,0.461l1.385,3.582h6.691l-4.436-8.42L95.301,62.965z M49.784,73.047l1.844-4.818h0.211
			c0,0,0.002,0.334,0,0.727c0.002,0.395,0.057,1.184,0.057,1.184l0.25,2.908H49.784z M96.395,62.964l-2.488,15.815h5.887
			l2.49-15.814L96.395,62.964z M109.215,66.979c0.586-0.115,1.564,0.01,2.256,0.316c0.693,0.307,1.432,0.828,1.432,0.828
			l2.238-4.025c0,0-1.797-1.44-5.119-1.393s-5.859,2.083-6.607,3.169c-0.748,1.084-1.459,2.688-1.064,4.223
			c0.391,1.539,1.785,2.209,2.898,2.52c1.113,0.307,1.777,0.287,2.287,0.447c0.508,0.166,0.719,0.414,0.641,0.809
			c-0.076,0.393-0.508,0.904-1.707,0.922c-1.201,0.02-2.512-0.74-3.082-1.211c-0.27-0.221-0.559-0.461-0.559-0.461l-2.516,4.449
			c0,0,2.748,1.584,6.242,1.447c3.494-0.135,5.645-1.748,6.531-2.957c0.883-1.211,1.564-2.973,0.979-4.809
			c-0.549-1.721-3.076-2.355-3.592-2.441c-0.365-0.061-1.564-0.336-1.777-0.43c-0.211-0.1-0.422-0.205-0.402-0.578
			C108.313,67.43,108.629,67.092,109.215,66.979z M119.76,64.147c0,0-2.215-0.086-2.902,1.976c-0.287,0.865,0.412,2.113,2.047,2.113
			c1.035,0,2.725-0.615,2.957-2.037C122.112,64.66,120.631,64.147,119.76,64.147z M121.235,66.355
			c-0.285,1.086-1.631,1.41-2.166,1.41c-0.818,0-1.941-0.508-1.625-1.633c0.443-1.57,2.229-1.527,2.229-1.527
			C120.67,64.617,121.526,65.271,121.235,66.355z M120.325,65.135c-0.076-0.02-0.605-0.02-0.605-0.02l-1.15-0.01l-0.414,2.123h0.566
			l0.184-0.883l0.412-0.002l0.412,0.885h0.625l-0.451-0.893c0,0,0.615-0.02,0.719-0.348c0.107-0.326,0.137-0.402,0.068-0.586
			C120.622,65.221,120.401,65.154,120.325,65.135z M119.795,66.027h-0.824l0.098-0.568l0.863,0.002c0,0,0.326,0.049,0.238,0.297
			C120.086,66.008,119.795,66.027,119.795,66.027z"/>
	</g>
</g>
</svg>
