<?xml version="1.0" encoding="utf-8"?>
<!-- Generator: Adobe Illustrator 16.0.0, SVG Export Plug-In . SVG Version: 6.00 Build 0)  -->
<!DOCTYPE svg PUBLIC "-//W3C//DTD SVG 1.1//EN" "http://www.w3.org/Graphics/SVG/1.1/DTD/svg11.dtd">
<svg version="1.1" id="Layer_1" xmlns="http://www.w3.org/2000/svg" xmlns:xlink="http://www.w3.org/1999/xlink" x="0px" y="0px"
	 width="141.732px" height="141.732px" viewBox="0 0 141.732 141.732" enable-background="new 0 0 141.732 141.732"
	 xml:space="preserve">
<g>
	<path fill-rule="evenodd" clip-rule="evenodd" fill="#262626" d="M101.738,65.038l3.559,4.186l12.896-4.184h9.365l-20.229,6.551
		l4.357,5.104h-7.984l-1.168-1.379c-0.822-1.092-2-1.062-3.746-0.496l-5.748,1.875h-9.361l11.988-3.891
		c2.496-0.797,3.137-1.811,1.834-3.322L93.71,65.04L101.738,65.038z"/>
	<path fill-rule="evenodd" clip-rule="evenodd" fill="#262626" d="M71.117,76.694l-5.391-6.416L83.15,70.29
		c0.857-0.002,1.809-0.027,2.432-0.908c0.633-0.906,0.523-1.338-0.328-1.363l-27.156,0.01l2.102-2.988h28.07
		c2.561,0.018,3.514,1.965,1.84,4.334c-1.812,2.662-3.828,3.939-7.01,3.947l-8.535,0.006l3.178,3.367H71.117z M46.017,76.694
		l4.631-6.611l-11.977,4.371c-4.836,1.791-6.25,1.732-10.031-0.943l-5.307-3.434l-4.611,6.617h-4.549l8.152-11.654l5.24-0.002
		l7.715,4.809c1.619,0.986,2.426,0.854,4.678-0.037l12.9-4.771l5.898,0.002L50.57,76.694H46.017z"/>
</g>
</svg>
