<?xml version="1.0" encoding="utf-8"?>
<!-- Generator: Adobe Illustrator 16.0.0, SVG Export Plug-In . SVG Version: 6.00 Build 0)  -->
<!DOCTYPE svg PUBLIC "-//W3C//DTD SVG 1.1//EN" "http://www.w3.org/Graphics/SVG/1.1/DTD/svg11.dtd">
<svg version="1.1" id="Layer_1" xmlns="http://www.w3.org/2000/svg" xmlns:xlink="http://www.w3.org/1999/xlink" x="0px" y="0px"
	 width="141.732px" height="141.732px" viewBox="0 0 141.732 141.732" enable-background="new 0 0 141.732 141.732"
	 xml:space="preserve">
<g>
	<path fill="#262626" d="M47.561,69.307l0.082-0.096c0.012-0.008,0.02-0.021,0.033-0.027h-0.004l0.287-0.33l0.01-0.002
		c0.02-0.027,0.043-0.051,0.064-0.082l0.012-0.016c0.664-0.846,1.107-1.875,1.402-2.793c0.045-0.135,0.08-0.271,0.119-0.408
		l0.104-0.355c0.215-0.889,0.248-1.709-0.141-2.406c-0.586-1.088-1.744-1.207-3.73-1.205h-4.008l-4.676,14.266l3.328-0.002
		l0.084-0.23l1.764-4.979c1.281-0.059,2.588,0.115,3.945-0.467c0.502-0.201,0.936-0.504,1.314-0.867H47.561z M46.25,65.195
		l-0.072,0.396c-0.035,0.15-0.078,0.295-0.121,0.43c-0.164,0.502-0.43,1.088-0.898,1.477c-0.674,0.43-1.377,0.354-2.018,0.371
		l0.08-0.244l1.098-3.412l0.367-0.004c0.537,0.002,0.994,0,1.283,0.117c0.225,0.129,0.297,0.381,0.295,0.666L46.25,65.195z"/>
	<path fill="#262626" d="M53.114,66.096c-2.818,0-3.969,1.406-4.373,2.617l-1.465,4.484h0.006c-0.494,1.654,0.711,2.781,2.432,2.773
		c1.639-0.004,3.613-0.141,4.588-2.822l1.41-4.389C56.219,66.662,54.739,66.098,53.114,66.096z M52.954,68.797
		c-0.006,0.02-0.014,0.045-0.025,0.066h0.006l-0.123,0.375l0.004-0.002c-0.363,1.104-0.848,2.514-1.172,3.549l-0.127,0.359h-0.002
		c-0.162,0.396-0.387,0.678-0.887,0.678c-0.383-0.027-0.691-0.158-0.555-0.648l0.107-0.363v0.004
		c0.238-0.74,0.898-2.752,1.172-3.576l0.125-0.375C51.86,67.887,53.223,68.064,52.954,68.797z"/>
	<polygon fill="#262626" points="65.879,69.193 66.081,68.82 66.077,68.822 67.303,66.498 64.715,66.502 63.653,68.826 
		63.639,68.826 63.458,69.25 62.049,72.32 63.083,66.5 60.776,66.5 57.95,72.32 59.129,66.51 56.588,66.514 55.229,75.744 
		58.256,75.744 60.413,70.932 59.549,75.748 62.428,75.744 63.756,73.229 63.758,73.229 63.971,72.811 63.973,72.811 65.881,69.191 
			"/>
	<path fill="#262626" d="M72.334,73.145l0.16-0.367h-0.002c0.039-0.104,0.08-0.203,0.119-0.311l-0.002-0.006h-2.76
		c-0.045,0.115-0.096,0.223-0.139,0.322l-0.188,0.404c-0.275,0.508-0.582,0.766-1.186,0.768c-0.414,0-0.482-0.297-0.395-0.779
		l0.088-0.365c0.109-0.398,0.287-0.881,0.457-1.398h4.486c0.242-0.719,0.807-2.549,0.807-2.549h0.004
		c0.016-0.047,0.023-0.072,0.023-0.072c0.512-1.799-0.807-2.654-2.523-2.656c-2.141,0-3.785,0.775-4.574,2.627l-1.402,4.051
		l-0.082,0.332c-0.264,1.346,0.109,2.846,2.848,2.848c2.15-0.004,3.486-1.154,4.264-2.846L72.334,73.145z M69.272,69.258
		l0.164-0.422c0.256-0.627,0.521-0.982,1.186-0.986c0.561,0,0.613,0.393,0.471,0.979l-0.121,0.393h0.008
		c-0.047,0.137-0.098,0.277-0.148,0.422h-1.703C69.18,69.506,69.227,69.379,69.272,69.258z"/>
	<path fill="#262626" d="M79.883,68.803l0.881-2.566c-1.045-0.031-2.562,0.453-3.074,1.207c0.08-0.285,0.264-0.836,0.264-0.836
		l-2.615,0.002l-3.027,9.135l2.58,0.002l0.982-2.936c0.51-1.492,0.996-2.992,1.584-3.619c0.109-0.084,0.336-0.25,0.482-0.328
		C78.692,68.506,79.231,68.678,79.883,68.803z"/>
	<path fill="#262626" d="M88.817,69.254c0-0.014-0.008-0.033-0.021-0.061c-0.027-0.055-0.121-0.246-0.17-0.33
		c-0.221-0.344-0.51-0.576-0.77-0.758c0.77-0.436,1.836-0.99,2.447-2.539h-0.006c0.037-0.096,0.117-0.301,0.15-0.4
		c0.004,0,0.002-0.006-0.002-0.004c1.125-3.562-1.609-3.504-2.793-3.508l-4.826,0.002l-4.664,14.059h3.979
		c1.174,0,4.256,0.344,5.945-2.57h-0.004c0.062-0.107,0.148-0.26,0.182-0.334c0,0,0.006-0.002,0.008-0.006
		c0.008-0.02,0.014-0.033,0.014-0.033c0.141-0.279,0.268-0.584,0.377-0.924C89.073,70.639,89.032,69.826,88.817,69.254z
		 M85.133,71.814c-0.238,0.441-0.479,0.775-0.791,0.996l0.004,0.002c-0.338,0.242-1.143,0.229-1.178,0.229
		c-0.055,0-0.811-0.014-0.811-0.014l0.078-0.217h0.002l1.055-3.17C86.002,69.068,85.551,71.057,85.133,71.814z M87.055,65.186
		c-0.006,0.016-0.068,0.271-0.127,0.42c0.002,0,0.002,0,0.002,0c-0.029,0.066-0.061,0.141-0.094,0.203
		c-0.502,1.014-1.781,1.338-2.488,1.25l0.477-1.428l0.148-0.439l-0.004,0.002l0.32-0.967C86.907,63.863,87.184,64.516,87.055,65.186
		z"/>
	<path fill="#262626" d="M95.975,72.811h0.004c0.43-1.365,0.932-2.834,1.182-3.561l0.133-0.387c0.02-0.041,0.027-0.064,0.027-0.064
		c0.838-2.197-0.996-2.539-2.256-2.539c-1.25-0.002-4.064-0.084-4.939,2.604l0.004-0.002c-0.025,0.094-0.061,0.234-0.09,0.332
		h-0.008c-0.025,0.117-0.057,0.238-0.076,0.369l2.768-0.002c0.025-0.109,0.055-0.207,0.088-0.307
		c0.002-0.002,0.008-0.006,0.008-0.006c0.035-0.145,0.121-0.336,0.156-0.416c0.311-0.678,0.727-0.914,1.066-0.914
		c0.633,0,0.607,0.516,0.49,0.916c-0.041,0.092-0.133,0.322-0.178,0.402c0,0.002,0,0.002,0.002,0.002
		c-0.268,0.453-0.66,0.48-1.137,0.59c-2.008,0.463-3.779,1.459-4.475,2.982h0.006c-0.037,0.08-0.098,0.221-0.139,0.334H88.61
		c-0.01,0.021-0.012,0.045-0.018,0.066c0,0.006-0.006,0.008-0.008,0.01c0,0.002,0,0.002,0,0.002
		c-0.066,0.211-0.115,0.426-0.137,0.658c-0.188,1.652,0.873,1.979,1.742,1.98c0.789-0.004,1.492-0.127,2.465-0.855
		c-0.08,0.566-0.105,0.738-0.105,0.738s1.883,0,2.705,0.002c-0.039-0.312,0.25-1.391,0.623-2.604l-0.004,0.002L95.975,72.811z
		 M93.17,72.742l-0.01,0.002c0,0-0.115,0.316-0.223,0.471c0,0.004,0,0.004,0,0.008c-0.621,0.918-1.812,0.945-1.65,0.01
		c0,0,0.076-0.271,0.137-0.422l0.004,0.002c0.275-0.586,0.873-1.174,2.254-1.625L93.17,72.742z"/>
	<path fill="#262626" d="M101.276,67.445c0.08-0.287,0.266-0.838,0.266-0.838l-2.613-0.002l-3.025,9.141l2.578,0.002l1.002-2.996
		l-0.004-0.002c0.543-1.578,0.922-2.689,1.369-3.316c0,0,0.006-0.006,0.008-0.01c0.051-0.066,0.094-0.127,0.148-0.184
		c0.08-0.08,0.289-0.27,0.51-0.377h0.012c0.75-0.352,1.658-0.219,2.162-0.053l0.848-2.557
		C103.274,66.193,101.788,66.689,101.276,67.445z"/>
	<path fill="#262626" d="M100.922,74.051c-0.516-0.002-1.016,0.395-1.102,0.934c-0.09,0.543,0.283,0.938,0.797,0.941
		c0.512,0,1.012-0.4,1.1-0.943C101.803,74.445,101.434,74.051,100.922,74.051z M100.643,75.766c-0.428,0-0.711-0.33-0.635-0.781
		c0.072-0.443,0.459-0.779,0.889-0.779c0.424,0,0.703,0.338,0.633,0.779C101.456,75.434,101.067,75.766,100.643,75.766z"/>
	<path fill="#262626" d="M100.907,74.445l-0.41,0.002l-0.176,1.078h0.162l0.078-0.467h0.189l0.209,0.467h0.182l-0.23-0.477
		c0.162-0.02,0.297-0.104,0.328-0.295C101.274,74.539,101.163,74.445,100.907,74.445z M100.778,74.92h-0.195l0.055-0.334
		l0.223-0.002c0.113,0.004,0.232,0.025,0.211,0.158C101.043,74.912,100.917,74.92,100.778,74.92z"/>
	<path fill="#262626" d="M110.551,59.947l-72.727-0.002L31.18,78.998c0,0,0.01,0,0.012,0c-0.002-0.002-0.004-0.004-0.006-0.004
		c1.764,0.912,3.34,1.859,5.078,2.793c22.441-2.906,45.088-3.854,67.887-2.781c-0.008-0.002-0.016-0.002-0.021-0.004
		c0.008,0,0.025,0.002,0.025,0.002L110.551,59.947z M103.778,78.396c-10.988-1.584-22.941-1.859-34.236-1.922
		c-1.896-0.01-3.799-0.018-5.705-0.018c-10.32,0-21.299,0.229-31.834,1.85l6.213-17.812l71.57,0.002L103.778,78.396z"/>
</g>
</svg>
