<?xml version="1.0" encoding="utf-8"?>
<!-- Generator: Adobe Illustrator 16.0.0, SVG Export Plug-In . SVG Version: 6.00 Build 0)  -->
<!DOCTYPE svg PUBLIC "-//W3C//DTD SVG 1.1//EN" "http://www.w3.org/Graphics/SVG/1.1/DTD/svg11.dtd">
<svg version="1.1" id="Layer_1" xmlns="http://www.w3.org/2000/svg" xmlns:xlink="http://www.w3.org/1999/xlink" x="0px" y="0px"
	 width="141.732px" height="141.732px" viewBox="0 0 141.732 141.732" enable-background="new 0 0 141.732 141.732"
	 xml:space="preserve">
<g>
	<path fill="#262626" d="M105.433,72.28H79.234l-0.002-3.173c0-1.16,0.74-1.881,2.42-2.287c1.072-0.264,2.148-0.357,5.139-0.477
		l8.533-0.311c1.646-0.066,2.318-0.113,2.787-0.213c0.705-0.164,1.041-0.488,1.045-1.08c-0.004-0.717-0.543-1.043-1.852-1.127
		c-0.469-0.033-1.98-0.047-4.801-0.047c-4.068,0-5.008,0.039-5.814,0.209c-0.936,0.203-1.275,0.557-1.273,1.277l-0.004,0.48
		l-6.178-0.004v-1.57c-0.002-1.293,1.275-2.061,3.895-2.357c1.412-0.16,4.871-0.262,9.539-0.262c6.52,0.002,8.834,0.115,10.416,0.51
		c1.709,0.422,2.383,1.227,2.383,2.91c0,1.783-0.703,2.564-2.723,3.055c-1.037,0.262-2.447,0.393-5.17,0.477l-8.467,0.277
		c-2.082,0.082-2.082,0.082-2.551,0.146c-0.74,0.117-1.178,0.457-1.174,0.934c0,0.096-0.004,0.262,0.029,0.426l20.023-0.002
		L105.433,72.28z"/>
	<path fill="#262626" d="M56.472,64.056h10.885c2.051-0.002,2.588,0.047,3.125,0.311c0.416,0.223,0.562,0.5,0.572,1.189l6.799,0.002
		c0.037-0.195,0.053-0.398,0.051-0.621c0-1.684-0.838-2.662-2.688-3.137c-1.275-0.312-2.885-0.428-6.213-0.426l-19.312-0.002
		l-0.004,10.906h6.789l-0.004-4.05c0.514,0.025,1.084,0.043,1.717,0.061l9.098,0.277c2.238,0.066,2.072,0.078,2.578,0.148
		c0.795,0.109,1.211,0.461,1.221,0.934l0.006,0.422l-0.01,2.208L77.9,72.28v-3.175c0-1.16-0.795-1.879-2.6-2.287
		c-1.152-0.262-2.312-0.365-5.521-0.475L56.474,65.88L56.472,64.056z"/>
	<path fill="#262626" d="M107.476,62.076c0.416,0.002,0.711,0.33,0.709,0.73c0.002,0.406-0.295,0.736-0.703,0.73
		c-0.406-0.002-0.707-0.326-0.707-0.727c0.002-0.404,0.301-0.734,0.695-0.734H107.476z M107.484,61.835
		c-0.561,0-1.006,0.432-1.006,0.971c-0.002,0.539,0.447,0.973,1.002,0.973c0.564,0,0.998-0.436,1-0.971
		c0.002-0.539-0.43-0.973-0.992-0.973H107.484z M107.365,62.539l0.096-0.006c0.098,0,0.158,0.039,0.158,0.111
		c0.002,0.068-0.064,0.109-0.174,0.111h-0.08V62.539z M107.359,62.939h0.088c0.09,0.002,0.139,0.039,0.154,0.133
		c0.021,0.084,0.037,0.154,0.066,0.188h0.307c-0.016-0.027-0.037-0.084-0.066-0.213c-0.025-0.125-0.084-0.197-0.18-0.227v-0.008
		c0.121-0.037,0.207-0.113,0.207-0.205s-0.043-0.158-0.098-0.191c-0.068-0.047-0.154-0.074-0.361-0.074
		c-0.188,0.002-0.338,0.025-0.398,0.033v0.885h0.281V62.939z"/>
	<path fill="#262626" d="M63.837,77.813H62.15l0.002-1.375l1.789-0.002l-0.002-0.469l-2.354-0.002v4.354l2.451,0.002v-0.475
		l-1.885,0.002L62.15,78.28l1.686-0.002L63.837,77.813z M56.992,76.437c0.15-0.031,0.367-0.055,0.66-0.057
		c1.184,0.002,1.766,0.652,1.76,1.68c0,1.174-0.652,1.854-1.85,1.846c-0.221-0.002-0.428-0.002-0.572-0.025L56.992,76.437z
		 M56.421,80.304c0.295,0.043,0.621,0.055,1.027,0.057c0.848-0.002,1.52-0.223,1.93-0.629c0.404-0.4,0.629-0.982,0.631-1.693
		c-0.004-0.703-0.227-1.207-0.621-1.562c-0.381-0.354-0.957-0.541-1.764-0.537c-0.445-0.004-0.854,0.037-1.201,0.086L56.421,80.304z
		 M54.021,80.319h0.566v-4.352l-0.566-0.002V80.319z M50.25,76.423c0.098-0.023,0.285-0.051,0.559-0.051
		c0.592,0.002,1,0.246,0.998,0.811c0,0.496-0.381,0.826-0.98,0.826l-0.576,0.002V76.423z M49.689,80.319h0.564v-1.887h0.529
		c0.51,0.023,0.746,0.246,0.879,0.846c0.115,0.545,0.209,0.912,0.281,1.041h0.584c-0.086-0.168-0.188-0.59-0.334-1.193
		c-0.105-0.453-0.309-0.764-0.639-0.877v-0.02c0.453-0.156,0.822-0.537,0.824-1.107c-0.004-0.34-0.131-0.639-0.346-0.824
		c-0.271-0.246-0.662-0.363-1.262-0.363c-0.381,0-0.799,0.039-1.082,0.098V80.319z"/>
	<path fill="#262626" d="M83.044,76.427c0.094-0.027,0.283-0.051,0.557-0.051c0.59-0.004,1,0.246,1,0.807
		c0,0.5-0.379,0.826-0.98,0.826l-0.578-0.002L83.044,76.427z M82.482,80.323l0.561-0.004v-1.887h0.533
		c0.506,0.021,0.748,0.246,0.879,0.846c0.113,0.545,0.211,0.912,0.281,1.041h0.582c-0.082-0.168-0.186-0.59-0.332-1.193
		c-0.107-0.453-0.307-0.76-0.637-0.879v-0.018c0.453-0.158,0.82-0.539,0.818-1.107c0-0.338-0.125-0.639-0.342-0.826
		c-0.273-0.244-0.668-0.361-1.268-0.363c-0.381,0.002-0.793,0.043-1.076,0.1V80.323z M77.437,75.968v2.561
		c-0.002,1.357,0.67,1.865,1.562,1.861c0.939,0,1.648-0.543,1.648-1.879v-2.545h-0.57v2.584c0.002,0.955-0.42,1.381-1.057,1.381
		c-0.584,0-1.014-0.412-1.018-1.381v-2.584L77.437,75.968z M73.857,79.933c-0.885,0-1.391-0.846-1.387-1.764
		c-0.002-0.943,0.465-1.816,1.4-1.814c0.936,0,1.385,0.904,1.385,1.77c0.002,0.986-0.502,1.809-1.393,1.807L73.857,79.933z
		 M73.835,80.392c1.107-0.002,2.018-0.803,2.016-2.293c0.004-1.291-0.766-2.203-1.961-2.205c-1.166,0.004-2.018,0.906-2.018,2.289
		c0.002,1.316,0.805,2.207,1.959,2.207L73.835,80.392z M69.546,80.319v-1.854l1.455-2.5h-0.637l-0.623,1.203
		c-0.168,0.33-0.324,0.613-0.441,0.896l-0.01,0.004c-0.137-0.309-0.273-0.57-0.434-0.9l-0.617-1.201l-0.643,0.002l1.381,2.5
		l0.002,1.85H69.546z"/>
	<path fill="#262626" d="M105.267,77.813l-1.684,0.002l-0.002-1.377l1.789-0.002v-0.471h-2.357v4.354h2.455l-0.004-0.473h-1.883
		l0.002-1.57l1.684,0.002V77.813z M101.339,79.724c-0.227,0.111-0.578,0.182-0.928,0.182c-1.051,0-1.662-0.678-1.662-1.744
		c-0.002-1.133,0.676-1.787,1.699-1.789c0.359,0,0.664,0.08,0.867,0.184l0.143-0.465c-0.145-0.072-0.492-0.188-1.031-0.186
		c-1.348-0.002-2.271,0.914-2.271,2.277c0,1.426,0.916,2.201,2.141,2.201c0.529,0,0.951-0.104,1.15-0.207L101.339,79.724z
		 M94.515,78.513l0.43-1.262c0.082-0.266,0.152-0.535,0.213-0.787l0.018,0.002c0.066,0.25,0.129,0.51,0.223,0.793l0.43,1.254H94.515
		z M95.943,78.952l0.469,1.367l0.6,0.004l-1.486-4.355l-0.678-0.002l-1.48,4.354l0.584,0.004l0.451-1.375L95.943,78.952z
		 M89.892,76.425c0.094-0.023,0.285-0.053,0.559-0.053c0.588,0,1,0.246,0.996,0.811c0.004,0.494-0.379,0.826-0.979,0.826
		l-0.578,0.004L89.892,76.425z M89.33,80.319h0.562v-1.887h0.527c0.512,0.02,0.752,0.246,0.881,0.848
		c0.113,0.543,0.213,0.908,0.283,1.039h0.58c-0.084-0.166-0.188-0.59-0.326-1.195c-0.111-0.451-0.311-0.758-0.643-0.875l0.002-0.02
		c0.453-0.158,0.82-0.539,0.816-1.105c0.004-0.342-0.123-0.641-0.338-0.828c-0.271-0.244-0.666-0.361-1.268-0.357
		c-0.379-0.004-0.795,0.037-1.078,0.096V80.319z"/>
	<path fill="#262626" d="M45.289,61.779h-1.064l0.002,2.08H44.21l-0.426-0.508c-0.711-0.799-1.445-1.469-2.371-1.469
		c-1,0-1.729,0.686-1.73,1.934c0,0.744,0.258,1.389,0.572,1.803l0.922-0.363c-0.221-0.289-0.457-0.705-0.459-1.18
		c0.002-0.633,0.355-0.906,0.807-0.908c0.643,0.02,1.264,0.604,2.336,1.807l0.645,0.713l0.783,0.002V61.779z M40.66,68.437
		c-0.002-0.52,0.643-0.783,1.863-0.783c1.254,0.002,1.881,0.275,1.885,0.771c-0.004,0.502-0.604,0.809-1.867,0.799
		C41.261,69.232,40.658,68.912,40.66,68.437 M39.685,68.417c-0.002,1.424,1.262,2.104,2.854,2.104
		c1.562-0.01,2.842-0.637,2.84-2.057c0-1.41-1.168-2.098-2.869-2.098C41.001,66.367,39.683,66.943,39.685,68.417 M40.66,73.185
		c-0.002-0.52,0.643-0.783,1.863-0.781c1.256,0.002,1.881,0.27,1.885,0.77c0,0.5-0.604,0.809-1.867,0.799
		C41.259,73.978,40.658,73.655,40.66,73.185 M39.685,73.165c-0.002,1.424,1.262,2.104,2.854,2.104
		c1.562-0.01,2.842-0.635,2.84-2.062c0.004-1.406-1.17-2.091-2.871-2.089C40.998,71.115,39.685,71.69,39.685,73.165 M45.289,76.024
		h-1.061v2.074h-0.016l-0.428-0.506c-0.709-0.799-1.447-1.465-2.371-1.467c-1-0.002-1.73,0.686-1.729,1.932
		c-0.004,0.746,0.254,1.389,0.568,1.805l0.922-0.365c-0.221-0.287-0.455-0.703-0.455-1.178c-0.004-0.637,0.354-0.908,0.805-0.908
		c0.643,0.02,1.264,0.604,2.34,1.807l0.643,0.711h0.781V76.024z"/>
	<path fill="#262626" d="M36.353,61.853v2h-1.627V61.74l-0.555-0.004l-0.002,2.781h5.148l0.002-2.895l-0.561,0.002l0.004,2.229
		l-1.861,0.002l0.004-2.004L36.353,61.853z M38.625,65.523c0.129,0.268,0.211,0.68,0.213,1.088c0.002,1.248-0.811,1.977-2.068,1.977
		c-1.354-0.002-2.125-0.805-2.125-2.012c-0.002-0.426,0.092-0.785,0.213-1.039l-0.539-0.16c-0.092,0.176-0.232,0.584-0.232,1.223
		c0,1.602,1.094,2.689,2.707,2.691c1.684,0,2.604-1.09,2.602-2.543c0-0.627-0.121-1.117-0.246-1.361L38.625,65.523z M39.316,73.417
		l-2.199,0.002c-0.854-0.004-1.471,0.014-2.121,0.051l-0.01-0.021c0.561-0.262,1.146-0.604,1.719-0.965l2.613-1.632l0.002-0.672
		l-5.15,0.002l0.002,0.623h2.152c0.801,0,1.43-0.014,2.119-0.074l0.004,0.014c-0.525,0.244-1.068,0.541-1.674,0.925l-2.604,1.65
		v0.727h5.148L39.316,73.417z M34.171,75.905h5.148v-0.666h-5.15L34.171,75.905z M39.066,79.966c0.182-0.275,0.33-0.816,0.332-1.314
		c-0.004-1.215-0.689-1.803-1.482-1.803c-0.76,0-1.18,0.443-1.516,1.314c-0.273,0.709-0.51,1.021-0.99,1.021
		c-0.354,0.002-0.771-0.266-0.775-0.969c0.002-0.465,0.154-0.811,0.248-0.979l-0.543-0.184c-0.131,0.23-0.25,0.611-0.254,1.143
		c0,1,0.596,1.662,1.4,1.664c0.725-0.002,1.158-0.521,1.459-1.361c0.268-0.693,0.539-0.973,1.021-0.973
		c0.52,0.002,0.879,0.398,0.877,1.08c0.004,0.459-0.152,0.893-0.334,1.189L39.066,79.966z"/>
	<rect x="45.999" y="61.465" fill="#262626" width="0.217" height="18.753"/>
	<rect x="33.252" y="61.463" fill="#262626" width="0.221" height="18.755"/>
</g>
</svg>
