<?xml version="1.0" encoding="utf-8"?>
<!-- Generator: Adobe Illustrator 16.0.0, SVG Export Plug-In . SVG Version: 6.00 Build 0)  -->
<!DOCTYPE svg PUBLIC "-//W3C//DTD SVG 1.1//EN" "http://www.w3.org/Graphics/SVG/1.1/DTD/svg11.dtd">
<svg version="1.1" id="Layer_1" xmlns="http://www.w3.org/2000/svg" xmlns:xlink="http://www.w3.org/1999/xlink" x="0px" y="0px"
	 width="141.732px" height="141.732px" viewBox="0 0 141.732 141.732" enable-background="new 0 0 141.732 141.732"
	 xml:space="preserve">
<g>
	<path fill-rule="evenodd" clip-rule="evenodd" fill="#262626" d="M28.127,81.812l3.996-3.943h0.004
		c0.688-0.645,0.443-1.107-0.027-1.908l-2.844-4.875c-0.488-0.836-1.107-1.174-2.4-1.844L26.193,68.9l1.646,2.816
		c0.512,0.873,0.799,1.453-0.018,2.213l-7.98,7.885L28.127,81.812z"/>
	<path fill-rule="evenodd" clip-rule="evenodd" fill="#262626" d="M25.229,59.92l-3.988,3.943l-0.008,0.002
		c-0.686,0.645-0.439,1.104,0.029,1.906l2.846,4.875c0.488,0.832,1.109,1.174,2.404,1.844l0.656,0.344l-1.643-2.818
		c-0.514-0.873-0.803-1.451,0.014-2.213l7.977-7.885L25.229,59.92z"/>
	<path fill="#262626" d="M83.459,74.184c-5.377-2.219-8.121,1.168-15.461,1.168c-3.887,0.002-7.852-0.674-9.201-2.598
		c-1.525,2.635-8.119,2.6-11.631,2.598c-3.715,0-9.762-0.186-9.271-3.236l8.156-0.008c-0.021,0.318,0.152,0.549,0.527,0.689
		c0.371,0.141,1.012,0.213,1.914,0.213c0.756,0.002,1.346-0.053,1.756-0.158c0.416-0.102,0.639-0.258,0.689-0.467
		c0.08-0.361-0.879-0.598-2.881-0.711c-3.41-0.236-9.68-0.018-8.973-3.061c0.248-1.057,1.221-1.834,2.916-2.322
		c1.699-0.492,4.277-0.738,7.744-0.74c3.273,0.002,5.373,0.252,6.855,0.756c1.48,0.498,2.15,1.275,2.01,2.326l-7.686,0.002
		c0.023-0.312-0.154-0.535-0.543-0.676c-0.391-0.137-0.777-0.205-1.711-0.207c-0.793,0.002-1.385,0.051-1.777,0.154
		c-0.391,0.105-0.617,0.266-0.666,0.486c-0.082,0.354,0.734,0.566,2.457,0.654c0.488,0.029,0.977,0.057,1.469,0.086
		c2.484,0.133,6.625,0.117,8.258,1.312c0.869-3.693,6.715-4.893,11.865-4.893c5.78,0.002,8.233,1.619,9.172,4.037l0.965-3.725h6.682
		l-1.045,4.232c-0.412,1.676,1.512,1.879,2.695,1.883c1.959-0.004,2.576-0.713,2.846-1.805l1.064-4.311h6.68l-1.256,5.082
		c-0.648,2.639-2.85,4.277-7.385,4.279c-8.104,0-6.977-5.756-17.945-5.707c-0.172-0.42-0.506-0.736-0.996-0.945
		c-1.387-0.598-3.571-0.398-4.885,0.258c-1.162,0.588-2.164,2.238-0.768,3.186c0.643,0.439,1.543,0.615,2.459,0.617
		C74.213,72.627,78.829,70.713,83.459,74.184 M105.749,68.529l-0.68,2.771c-0.154,0.604,0.1,0.926,0.812,0.922h5.035
		c2.195,0.002,3.672-0.398,4.029-1.85c0.355-1.443-0.945-1.844-3.121-1.844H105.749z M99.977,65.865l13.412,0.002
		c4.926-0.002,9.24,1.162,8.395,4.596c-0.844,3.441-5.73,4.584-10.652,4.584h-9.607c-2.053,0.002-3.574-0.947-3-3.277L99.977,65.865
		z"/>
	<path fill-rule="evenodd" clip-rule="evenodd" fill="#262626" d="M86.032,76.18c-1.361,0.002-2.721,0-4.076,0
		c-0.332-0.84-1.445-2.34-5.402-1.902C80.875,73.107,83.981,74.678,86.032,76.18"/>
</g>
</svg>
