<?xml version="1.0" encoding="utf-8"?>
<!-- Generator: Adobe Illustrator 16.0.0, SVG Export Plug-In . SVG Version: 6.00 Build 0)  -->
<!DOCTYPE svg PUBLIC "-//W3C//DTD SVG 1.1//EN" "http://www.w3.org/Graphics/SVG/1.1/DTD/svg11.dtd">
<svg version="1.1" id="Layer_1" xmlns="http://www.w3.org/2000/svg" xmlns:xlink="http://www.w3.org/1999/xlink" x="0px" y="0px"
	 width="141.732px" height="141.732px" viewBox="0 0 141.732 141.732" enable-background="new 0 0 141.732 141.732"
	 xml:space="preserve">
<g>
	<path fill-rule="evenodd" clip-rule="evenodd" fill="#262626" d="M85.841,68.125v4.084h-5.666l-0.002-4.127
		c0-1.127,0.869-1.574,1.203-1.57l2.98-0.004C85.072,66.508,85.841,67.15,85.841,68.125L85.841,68.125z M111.237,66.455h2.061
		c0.818-0.01,1.494,0.641,1.492,1.459v5.959c0.002,0.816-0.662,1.477-1.482,1.477h-2.057c-0.814,0-1.48-0.662-1.477-1.477
		l-0.002-5.938C109.774,67.131,110.424,66.463,111.237,66.455L111.237,66.455z M76.435,67.885l0.002,9.561l3.592,0.002v-2.828h5.768
		l0.002,2.834l3.695-0.002v-9.5c-0.041-2.391-1.414-3.676-3.299-3.682l-6.822,0.003C77.421,64.27,76.435,65.957,76.435,67.885
		L76.435,67.885z M118.467,74.365l0.002-7.025c0-1.693-1.371-3.066-3.072-3.067l-0.002,0.001l-6.199-0.001
		c-1.701,0-3.08,1.372-3.078,3.063l-0.002,7.047c0.002,1.697,1.377,3.07,3.08,3.07l0.01-0.014l6.189-0.002
		C117.092,77.428,118.465,76.055,118.467,74.365L118.467,74.365z M22.708,72.217c0.023,0.002,0.109,0.002,0.162,0.002h4.916
		c0.789,0,1.283,0.654,1.396,1.301c0.152,0.865-0.32,1.709-1.438,1.711h-7.51v2.215l7.738-0.002c0.686,0.002,1.393,0,1.723,0.002
		c0.232,0,0.754-0.125,1.035-0.26c1.217-0.582,1.715-1.85,1.754-3.035c0.006-0.381,0.008-0.697,0.004-1.078
		c-0.033-2.684-0.789-3.723-3.674-3.725l-4.242-0.002c-1.068-0.023-1.33-0.895-1.303-1.619c0.045-1.402,1.188-1.221,2.361-1.223
		l6.508,0.002v-2.225h-9.508c-0.244,0-0.719,0.071-0.941,0.152c-1.25,0.463-1.789,1.896-1.844,3.533
		C19.782,69.977,20.509,72.137,22.708,72.217L22.708,72.217z M100.292,68.707v8.744h3.736v-9.555
		c-0.002-2.252-1.291-3.631-3.592-3.631h-8.784L91.65,77.451l3.595,0.002V66.492h3.496
		C100.032,66.492,100.292,67.674,100.292,68.707L100.292,68.707z M68.913,66.42c0.791,0.131,1.701,0.242,1.703,1.832l-0.002,9.199
		l3.627,0.002l0.002-9.035c-0.043-1.914,0.051-4-3.016-4.146H57.165v13.173h3.656V66.441h3.104v11.01h3.559V66.418L68.913,66.42
		L68.913,66.42z M50.364,64.27v13.178l3.852,0.004V64.27H50.364L50.364,64.27z M38.372,64.277h-3.623l0.002,13.193h3.623
		l-0.002-2.947l5.439,0.002l0.002,2.928h3.621l0.002-13.191h-3.623l-0.002,7.754h-5.439V64.277L38.372,64.277z"/>
	<path fill-rule="evenodd" clip-rule="evenodd" fill="#262626" d="M120.622,66.904c-0.611,0-1.105-0.496-1.104-1.105
		c0-0.611,0.492-1.102,1.1-1.105c0.607,0.004,1.104,0.494,1.104,1.104C121.721,66.408,121.225,66.904,120.622,66.904L120.622,66.904
		z M120.29,65.701v-0.404h0.402c0.186-0.004,0.227,0.117,0.225,0.201c-0.004,0.148-0.08,0.203-0.25,0.207L120.29,65.701
		L120.29,65.701z M120.616,67.068c0.705,0,1.273-0.564,1.273-1.268s-0.568-1.273-1.27-1.273s-1.271,0.57-1.271,1.273
		C119.348,66.502,119.917,67.066,120.616,67.068L120.616,67.068z M119.975,66.568h0.314v-0.602l0.33-0.002
		c0.24,0,0.254,0.08,0.252,0.293c0,0.156,0.014,0.234,0.035,0.311h0.355v-0.045c-0.068-0.021-0.07-0.08-0.07-0.307
		c0-0.283-0.068-0.332-0.193-0.387c0.156-0.053,0.238-0.195,0.238-0.365c0.002-0.135-0.074-0.436-0.484-0.436l-0.779-0.002
		L119.975,66.568L119.975,66.568z"/>
</g>
</svg>
