<?xml version="1.0" encoding="utf-8"?>
<!-- Generator: Adobe Illustrator 16.0.0, SVG Export Plug-In . SVG Version: 6.00 Build 0)  -->
<!DOCTYPE svg PUBLIC "-//W3C//DTD SVG 1.1//EN" "http://www.w3.org/Graphics/SVG/1.1/DTD/svg11.dtd">
<svg version="1.1" id="Layer_1" xmlns="http://www.w3.org/2000/svg" xmlns:xlink="http://www.w3.org/1999/xlink" x="0px" y="0px"
	 width="141.732px" height="141.732px" viewBox="0 0 141.732 141.732" enable-background="new 0 0 141.732 141.732"
	 xml:space="preserve">
<g>
	<path fill="#262626" d="M79.335,67.748l-0.98,2.697c-0.822-0.451-1.887-0.771-3.133-0.902l-14.016-1.516
		c-0.451-0.047-0.725-0.283-0.619-0.568c0.115-0.318,0.656-0.578,1.211-0.58h24.25l1.35-3.703H63.146
		c-4.086,0-8.1,1.916-8.959,4.281c-0.771,2.113,1.236,3.865,4.582,4.214l14.016,1.523c0.609,0.066,0.977,0.381,0.836,0.768
		c-0.154,0.43-0.891,0.783-1.633,0.779H51.537l-1.352,3.705l20.453,0.002c1.812-0.002,3.613-0.363,5.154-0.967l-0.354,0.967
		l6.4-0.002l3.893-10.697"/>
	<path fill="#262626" d="M109.257,70.814c-0.791,2.167-4.471,3.931-8.223,3.929H90.572l2.865-7.867l10.459,0.004
		C107.648,66.876,110.048,68.64,109.257,70.814 M115.49,63.175L114.46,66c-1.791-1.721-5.078-2.824-9.215-2.824H88.382
		l-5.559,15.273l16.861-0.002c4.137,0,8.229-1.102,11.275-2.824l-1.031,2.824l6.4,0.002l5.561-15.273H115.49z"/>
	<path fill="#262626" d="M35.648,68.558c-0.867,0.791-3.01,1.545-4.648,0.826c-1.6-0.705-0.939-1.92,0.084-2.506
		c1.064-0.613,3.152-1.402,6.621-1.414c3.562-0.012,6.426,0.625,8.535,1.605c2.162,1.006,3.602,2.441,3.6,4.763
		c0,2.705-4.025,6.488-10.176,7.506c1.543-0.871,1.977-1.475,2.156-1.756c-2.541,1.148-7.615,2-13.193,1.609
		c1.229-0.18,3.137-0.732,4.012-1.184c-4.338-0.043-8.783-1.223-11.371-2.926c1.205,0.295,3.326,0.559,4.645,0.385
		c-3.125-1.123-6.068-3.076-6.07-5.798c0.326,0.479,1.758,1.588,2.82,1.832c-0.941-1.061-2.131-4.211,1.426-6.824
		c-0.379,0.791-0.152,1.537,0.088,2.029c0.973-1.221,3.268-2.959,7.404-3.844c-0.676,0.531-1.08,0.963-1.453,1.508
		c1.611-0.771,4.861-1.979,10.076-1.979c-1.521,0.232-2.361,0.557-3.15,1.01c1.938-0.16,5.697-0.336,10.195,1.135
		c-1.127-0.107-1.838-0.096-2.955-0.023c2.068,0.441,4.463,1.543,6.186,3.043c-2.727-1.051-5.74-2.59-12.332-2.59
		c-6.889,0-9.053,2.023-9.051,3.334c-0.002,1.312,1.961,2.637,6.133,2.639c2.234,0.002,3.627-0.318,4.828-0.895
		c1.117-0.537,1.846-1.607,0.244-2.309C38.658,67.015,36.515,67.771,35.648,68.558"/>
	<path fill="#262626" d="M118.552,77.634V77.36l0.176,0.002c0.094,0,0.191,0.021,0.193,0.127c-0.002,0.135-0.102,0.143-0.215,0.143
		 M118.552,77.747l0.148-0.002l0.23,0.377h0.146l-0.244-0.387c0.123-0.014,0.223-0.08,0.223-0.236c0-0.172-0.104-0.248-0.307-0.246
		l-0.33-0.004l-0.002,0.873h0.135V77.747z M118.71,78.442c0.41,0,0.762-0.322,0.762-0.756s-0.352-0.754-0.762-0.752
		c-0.416-0.002-0.768,0.318-0.766,0.752C117.943,78.122,118.296,78.442,118.71,78.442 M118.093,77.683
		c0-0.354,0.27-0.623,0.615-0.623c0.344,0,0.611,0.266,0.611,0.625c0.002,0.361-0.268,0.629-0.609,0.631
		C118.363,78.315,118.097,78.046,118.093,77.683"/>
</g>
</svg>
