<?xml version="1.0" encoding="utf-8"?>
<!-- Generator: Adobe Illustrator 16.0.0, SVG Export Plug-In . SVG Version: 6.00 Build 0)  -->
<!DOCTYPE svg PUBLIC "-//W3C//DTD SVG 1.1//EN" "http://www.w3.org/Graphics/SVG/1.1/DTD/svg11.dtd">
<svg version="1.1" id="Layer_1" xmlns="http://www.w3.org/2000/svg" xmlns:xlink="http://www.w3.org/1999/xlink" x="0px" y="0px"
	 width="141.732px" height="141.732px" viewBox="0 0 141.732 141.732" enable-background="new 0 0 141.732 141.732"
	 xml:space="preserve">
<g>
	<polygon fill="#262626" points="68.089,63.521 70.011,63.521 68.248,73.281 66.267,73.281 	"/>
	<path fill="#262626" d="M64.494,63.521l-0.346,1.986c0,0-5.25-0.201-7-0.012c-1.391,0.148-1.484,0.412-1.594,0.98
		c-0.117,0.607-0.174,0.988,1.176,0.988l6.166,0.002c1.775,0,1.617,0.949,1.258,2.928c-0.357,1.949-0.484,2.684-2.336,2.84
		c-1.92,0.16-10.223,0-10.223,0l0.373-1.994c0,0,6.922,0.219,8.701,0c1.383-0.17,1.465-0.316,1.553-0.869
		c0.121-0.771,0.164-0.877-1.193-0.879l-6.145,0.002c-1.789-0.002-1.633-1.07-1.266-3.02c0.359-1.914,0.523-2.783,2.336-2.953
		C57.787,63.355,64.494,63.521,64.494,63.521"/>
	<path fill="#262626" d="M114.332,71.279l-5.5-0.006l0.395-2.07h5.469l0.34-1.734c0.18-0.988,0.332-1.83-1.004-1.99
		c-1.162-0.135-3.412-0.162-5.025,0.016c-1.377,0.152-1.602,0.988-1.781,1.963c-0.354,1.885-1.074,5.775-1.074,5.775l-1.928,0.002
		c0,0,0.719-3.82,1.268-6.754c0.334-1.781,0.504-2.789,2.305-2.955c1.824-0.166,6.262-0.184,8.031-0.018
		c1.828,0.172,1.594,1.225,1.297,2.953c-0.154,0.889-1.246,6.805-1.246,6.805h-1.926L114.332,71.279z"/>
	<path fill="#262626" d="M89.734,65.508l-1.441,7.727h-1.957l1.826-9.709c0,0,1.223,0,1.936,0c2.369,0,2.344,0.164,2.99,1.947
		c0.396,1.094,1.26,3.748,1.26,3.748c0.639-0.002,0.654,0,1.914-1.83c0.514-0.752,2.457-3.865,2.457-3.865s2.1-0.078,2.723,0
		c1.789,0.166,1.576,1.402,1.438,2.084c-0.219,1.127-1.412,7.625-1.412,7.625l-1.914-0.002l1.223-6.666
		c0.201-1.189,0.037-1.072-0.963-1.072c0,0-1.941,2.895-2.549,3.861c-0.639,1.016-1.141,1.939-2.232,1.939h-2.008
		c-0.365-1.078-1.646-4.904-1.646-4.904C91.033,65.377,91.142,65.508,89.734,65.508"/>
	<path fill="#262626" d="M82.328,77.014c0.15-0.75-0.26-0.754-0.838-0.752c-0.654-0.002-1.082,0.117-1.242,0.895l-0.121,0.611
		c-0.154,0.764,0.178,0.891,0.881,0.893c0.799-0.002,1.018-0.145,1.178-0.943l0.084-0.41l-1.018,0.002l-0.088,0.434h0.412
		c-0.064,0.328-0.16,0.398-0.465,0.4c-0.309-0.002-0.439-0.043-0.354-0.463l0.078-0.385c0.082-0.379,0.121-0.518,0.551-0.518
		c0.18,0,0.373-0.006,0.336,0.236H82.328z"/>
	<polygon fill="#262626" points="86.369,76.795 87.384,76.795 87.486,76.281 85.875,76.279 85.4,78.639 87.033,78.643 
		87.136,78.123 86.101,78.123 86.191,77.664 87.146,77.664 87.232,77.229 86.279,77.227 	"/>
	<path fill="#262626" d="M90.498,78.641h0.594l0.125-0.629l0.463,0.002c0.178-0.002,0.227,0.119,0.186,0.293l-0.066,0.334
		l0.596-0.002l0.096-0.475c0.053-0.268-0.076-0.408-0.32-0.418l0.008-0.025c0.443-0.104,0.488-0.332,0.568-0.727
		c0.117-0.59-0.111-0.705-0.625-0.715l-1.148,0.002L90.498,78.641z M91.33,77.465l0.127-0.639l0.461,0.002
		c0.199,0,0.236,0.061,0.195,0.27c-0.057,0.266-0.066,0.369-0.322,0.369L91.33,77.465z"/>
	<polygon fill="#262626" points="96.716,76.83 96.734,76.83 96.941,78.637 97.457,78.639 98.388,76.83 98.408,76.832 97.984,78.639 
		98.58,78.637 99.054,76.281 98.087,76.279 97.384,77.762 97.361,77.76 97.234,76.281 96.291,76.281 95.816,78.639 96.412,78.637 	
		"/>
	<path fill="#262626" d="M103.404,77.775h-0.555l0.48-1.023h0.002L103.404,77.775z M103.433,78.23l0.033,0.406h0.607l-0.203-2.357
		h-0.906l-1.145,2.357h0.621l0.189-0.404L103.433,78.23z"/>
	<polygon fill="#262626" points="108.242,76.828 108.263,76.828 108.533,78.639 109.548,78.637 110.023,76.281 109.425,76.279 
		109.095,78.092 109.074,78.092 108.798,76.279 107.792,76.279 107.318,78.637 107.914,78.639 	"/>
	<polygon fill="#262626" points="115.458,76.281 114.765,76.281 114.173,77.189 114.15,77.189 113.937,76.279 113.253,76.279 
		113.736,77.812 113.568,78.639 114.167,78.639 114.333,77.812 	"/>
	<path fill="#262626" d="M80.191,69.443h2.447c-0.17,1.102-0.312,1.641-1.748,1.811c-1.408,0.166-4.406,0.217-6.01,0
		c-1.316-0.178-1.098-0.951-1.014-1.729c0.051-0.502,0.26-1.619,0.369-2.115c0.215-0.955,0.426-1.771,1.721-1.916
		c2-0.225,7.549,0.014,7.549,0.014l0.359-1.986c0,0-7.205-0.162-9.029,0c-1.887,0.17-1.951,1.193-2.369,2.963
		c-0.219,0.924-0.605,2.871-0.729,3.938c-0.197,1.744-0.479,2.596,1.322,2.812c1.807,0.219,7.176,0.193,8.99-0.002
		c1.816-0.195,2.016-0.996,2.307-2.783c0.15-0.904,0.527-2.918,0.527-2.918h-4.361L80.191,69.443z"/>
	<path fill="#262626" d="M32.091,76.16c-3.352,0.422-6.822,0.184-12.25-1.586l2.758,2.932c3.611,1.193,8.871,1.51,10.746,1.439
		c14.053-0.531,13.646-3.654,9.264-8.129c-1.195-1.217-2.336-2.408-2.336-2.408C39.699,71.42,38.333,75.375,32.091,76.16"/>
	<path fill="#262626" d="M34.154,65.381c2.598-0.557,5.809-0.439,9.689,0.98l-2.67-2.822c-2.557-0.74-6.016-0.834-8.049-0.723
		c-12.443,0.695-11.27,2.057-5.914,8.041c0.705,0.783,1.344,1.455,1.344,1.455C28.898,70.361,30.093,66.248,34.154,65.381"/>
	<path fill="#262626" stroke="#000100" stroke-width="0.419" stroke-miterlimit="3.864" d="M119.556,64.359
		c-0.002-0.684,0.521-1.238,1.168-1.24c0.641,0.002,1.164,0.557,1.166,1.24c-0.002,0.684-0.521,1.24-1.166,1.24
		C120.078,65.6,119.554,65.043,119.556,64.359z"/>
	<path fill="#262626" d="M121.246,64.891l-0.205-0.262h-0.631l0.051-0.215h0.461c0.156-0.006,0.217-0.105,0.252-0.209
		c0.041-0.109,0.043-0.197-0.15-0.225c-0.104-0.016-0.389-0.014-0.5,0c-0.227,0.027-0.252,0.123-0.273,0.234
		c-0.045,0.221-0.135,0.678-0.135,0.678l-0.234-0.002c0,0,0.094-0.447,0.164-0.785c0.047-0.229,0.062-0.322,0.398-0.352
		c0.213-0.02,0.49-0.016,0.697,0c0.227,0.018,0.301,0.121,0.287,0.285c-0.016,0.223-0.033,0.338-0.166,0.459l0.309,0.391
		L121.246,64.891z"/>
</g>
</svg>
