<?xml version="1.0" encoding="utf-8"?>
<!-- Generator: Adobe Illustrator 16.0.0, SVG Export Plug-In . SVG Version: 6.00 Build 0)  -->
<!DOCTYPE svg PUBLIC "-//W3C//DTD SVG 1.1//EN" "http://www.w3.org/Graphics/SVG/1.1/DTD/svg11.dtd">
<svg version="1.1" id="Layer_1" xmlns="http://www.w3.org/2000/svg" xmlns:xlink="http://www.w3.org/1999/xlink" x="0px" y="0px"
	 width="141.732px" height="141.732px" viewBox="0 0 141.732 141.732" enable-background="new 0 0 141.732 141.732"
	 xml:space="preserve">
<g>
	<path fill="#262626" d="M60.644,64.448c0,0-11.68,0-11.717-0.002c-4.116,0-4.716,3.328-4.821,3.678
		c-0.139,0.439-1.895,7.09-2.449,9.195c2.375-0.002,7.118,0.008,7.118,0.008s1.371-5.205,1.385-5.188
		c0.152,0.154,2.949,3.574,3.826,4.537c0.711,0.77,1.195,0.65,3.922,0.65c1.748,0.002,4.229,0.002,4.311,0l-3.973-4.691h4.4
		c0.291-1.256,0.703-2.748,1.066-4.193C64.257,66.233,62.458,64.503,60.644,64.448z M56.093,70.345h-5.455l0.865-3.098h5.418
		L56.093,70.345z"/>
	<g>
		<path fill="#262626" d="M41.448,67.229l0.752-2.721l-15.361-0.004c-3.232,0.16-4.164,2.123-4.65,4.053
			c-0.174,0.697-0.352,1.354-0.498,1.918c-0.268,1.016-0.387,1.404-0.387,1.404l11.852-0.012L32.43,74.63h-11.85l-0.738,2.709
			c0,0,13.971,0.002,14.771-0.002c2.971,0.004,4.453-1.238,5.176-3.93c0.496-1.902,1.029-3.779,1.029-3.779l-11.523-0.002
			l0.633-2.395L41.448,67.229z"/>
	</g>
	<path fill="#262626" d="M71.564,64.474c-1.129,0-3.555-0.203-4.797,3.598c-0.564,2.045-2.467,9.266-2.467,9.266
		s1.91,0.004,3.469,0.002c1.574-0.002,3.234,0.055,3.76-0.98c0.471-0.91,1.062-3.369,1.062-3.369h5.682l-1.184,4.377h7.137
		c3.285-12.307,3.199-12.004,3.441-12.893C83.681,64.474,75.759,64.474,71.564,64.474z M78.767,70.382l-5.432,0.012l0.836-3.148
		h5.412L78.767,70.382z"/>
	<path fill="#262626" d="M110.14,77.335l2.568-9.842h-4.277l-2.59,9.848l-6.9-0.002l2.578-9.848h-4.305l-2.602,9.857h-7.125
		l3.426-12.959c0,0,23.045-0.052,25.461,0c1.498,0.031,3.652,1.52,2.902,4.455c-0.891,3.469-1.484,6.383-2.037,8.49
		C114.816,77.335,113.998,77.335,110.14,77.335z"/>
	<path fill="#262626" d="M119.314,75.825c0.002-0.664,0.504-1.17,1.15-1.172c0.641,0.002,1.141,0.51,1.143,1.17
		c0,0.684-0.504,1.182-1.145,1.182C119.818,77.007,119.314,76.507,119.314,75.825z M120.462,77.245
		c0.771,0.002,1.428-0.602,1.428-1.422c0-0.803-0.654-1.406-1.428-1.406c-0.775,0-1.43,0.604-1.432,1.406
		C119.031,76.644,119.687,77.245,120.462,77.245z M120.167,75.937l0.283,0.002l0.43,0.705h0.273l-0.461-0.717
		c0.238-0.025,0.422-0.158,0.422-0.449c0-0.314-0.189-0.455-0.574-0.457l-0.619,0.002l0.002,1.621h0.242L120.167,75.937z
		 M120.166,75.729v-0.502h0.34c0.166,0,0.352,0.033,0.354,0.24c-0.002,0.252-0.193,0.262-0.393,0.264L120.166,75.729z"/>
</g>
</svg>
