<?xml version="1.0" encoding="utf-8"?>
<!-- Generator: Adobe Illustrator 16.0.0, SVG Export Plug-In . SVG Version: 6.00 Build 0)  -->
<!DOCTYPE svg PUBLIC "-//W3C//DTD SVG 1.1//EN" "http://www.w3.org/Graphics/SVG/1.1/DTD/svg11.dtd">
<svg version="1.1" id="Layer_1" xmlns="http://www.w3.org/2000/svg" xmlns:xlink="http://www.w3.org/1999/xlink" x="0px" y="0px"
	 width="141.732px" height="141.732px" viewBox="0 0 141.732 141.732" enable-background="new 0 0 141.732 141.732"
	 xml:space="preserve">
<g>
	<path fill="#262626" d="M92.14,64.155l-11.297,0.002l-2.74,4.949l11.299-0.002 M88.111,67.985h-7.477l1.547-2.795l7.475-0.002
		L88.111,67.985z"/>
	<path fill="#262626" d="M75.281,66.071l0.338-0.615l0.723-1.305H64.798l-2.119,3.832l-9.928,0.002l0.488-0.883l8.635-0.002
		l0.568-1.029l-8.635,0.002l0.49-0.889h8.637l0.568-1.033l-10.541,0.006l-2.742,4.943h13.75l2.17-3.914h7.719l-0.252,0.451
		c-0.158,0.291-0.49,0.434-0.812,0.434h-5.729L66.5,67.101h4.064l1.717,0.941l-0.588,1.059h1.912l0.707-1.279l-1.127-0.721"/>
	<path fill="#262626" d="M51.101,65.747l0.881-1.59l-11.84-0.002l-2.121,3.83h-8.445l2.121-3.83H16.911L15.65,66.44l0.582,0.664
		l8.049,0.002c0.339-0.006,0.523,0.244,0.361,0.551l-0.186,0.332l-9.653-0.002l-0.63,1.117h11.578l1.299-2.348l-0.582-0.684
		l-8.027,0.002c-0.361-0.004-0.578-0.188-0.381-0.537l0.193-0.35l10.951,0.008l-2.158,3.908l12.273-0.008l2.164-3.91h7.811
		l-0.252,0.457c-0.16,0.289-0.488,0.432-0.814,0.43h-5.936l-0.572,1.031l6.719-0.004l2.633-1.303"/>
	<path fill="#262626" d="M104.982,64.157l-11.545-0.002l-2.732,4.949l1.904-0.002l2.174-3.918h7.717l-0.252,0.459
		c-0.16,0.289-0.492,0.432-0.814,0.434l-5.727-0.004l-0.57,1.031h4.064l1.719,0.939l-0.588,1.057l1.91,0.004l0.709-1.281
		l-1.129-0.723l2.1-1.029"/>
	<polyline fill="#262626" points="79.548,64.159 77.636,64.159 74.898,69.104 76.812,69.104 	"/>
	<path fill-rule="evenodd" clip-rule="evenodd" fill="#262626" d="M118.804,62.3l8.754,0.002l-9.154,17.131l-18.025-0.002
		l6.047-11.312h9.377l-0.777,1.553H107.3l4.018,3.848l-2.111,3.426l11.514-6.65l-3.162-5.533l-0.477,0.869h-9.324l0.807-1.506
		l9.332-0.002 M107.207,66.665l0.99,0.879h7.879l0.135-0.252l-1.369-1.07h-7.404L107.207,66.665z"/>
</g>
</svg>
