<?xml version="1.0" encoding="utf-8"?>
<!-- Generator: Adobe Illustrator 16.0.0, SVG Export Plug-In . SVG Version: 6.00 Build 0)  -->
<!DOCTYPE svg PUBLIC "-//W3C//DTD SVG 1.1//EN" "http://www.w3.org/Graphics/SVG/1.1/DTD/svg11.dtd">
<svg version="1.1" id="Layer_1" xmlns="http://www.w3.org/2000/svg" xmlns:xlink="http://www.w3.org/1999/xlink" x="0px" y="0px"
	 width="141.732px" height="141.732px" viewBox="0 0 141.732 141.732" enable-background="new 0 0 141.732 141.732"
	 xml:space="preserve">
<g>
	<g>
		<g>
			<path fill="#262626" d="M40.487,80.074c-0.299,0.002-0.652-0.023-0.828-0.053c-0.184-0.033-0.252-0.092-0.252-0.297v-2.762
				c0-0.205,0.064-0.27,0.24-0.295c0.156-0.023,0.523-0.049,0.814-0.051c0.859,0,1.436,0.227,1.436,0.951v0.082
				c0,0.293-0.143,0.549-0.381,0.666c0.238,0.119,0.404,0.359,0.404,0.672v0.068C41.92,79.855,41.274,80.076,40.487,80.074z
				 M41.147,77.615c0-0.248-0.158-0.361-0.627-0.361c-0.072-0.002-0.283-0.002-0.344,0.004l-0.002,0.783l0.512,0.002
				c0.357-0.002,0.461-0.162,0.461-0.357V77.615z M41.167,78.99c0-0.221-0.119-0.406-0.48-0.406l-0.51,0.002l-0.002,0.85
				c0.074,0,0.309,0.002,0.373,0.002c0.467,0.002,0.619-0.146,0.617-0.398L41.167,78.99z"/>
			<path fill="#262626" d="M43.729,80.035h-0.611c-0.049,0-0.08-0.043-0.08-0.094v-3.197c0-0.049,0.029-0.086,0.082-0.088
				l0.607,0.002c0.051,0,0.088,0.037,0.088,0.086v3.199C43.813,79.992,43.778,80.035,43.729,80.035z"/>
			<path fill="#262626" d="M46.985,79.998c-0.096,0.031-0.359,0.078-0.676,0.078c-0.691,0-1.344-0.363-1.348-1.447v-0.57
				c0.002-1.082,0.656-1.441,1.348-1.441c0.316,0,0.582,0.047,0.676,0.078c0.062,0.018,0.1,0.035,0.1,0.1v0.439
				c0.002,0.057-0.027,0.09-0.086,0.092c-0.004,0-0.008-0.002-0.014,0c-0.172-0.014-0.42-0.035-0.672-0.035
				c-0.312,0-0.562,0.162-0.564,0.764l0.002,0.576c-0.002,0.604,0.248,0.768,0.562,0.768c0.248,0,0.498-0.023,0.67-0.037
				c0.006,0,0.012,0,0.018,0c0.057,0,0.086,0.037,0.084,0.09v0.443C47.084,79.957,47.047,79.979,46.985,79.998z"/>
			<path fill="#262626" d="M50.702,76.758l-0.686,1.572c-0.09,0.209-0.186,0.305-0.297,0.352l0.002,1.26
				c-0.002,0.051-0.043,0.094-0.092,0.094h-0.594c-0.051,0-0.094-0.043-0.092-0.092v-1.266c-0.107-0.043-0.209-0.139-0.301-0.35
				l-0.684-1.57c-0.008-0.01-0.004-0.021-0.004-0.031c-0.002-0.039,0.025-0.068,0.07-0.068h0.654c0.047,0,0.078,0.035,0.092,0.078
				l0.488,1.281c0.023,0.059,0.039,0.068,0.068,0.068c0.033,0,0.047-0.01,0.07-0.068l0.49-1.281c0.014-0.041,0.045-0.078,0.09-0.08
				l0.654,0.002c0.047,0,0.074,0.029,0.074,0.068C50.708,76.734,50.706,76.748,50.702,76.758z"/>
			<path fill="#262626" d="M53.428,79.998c-0.096,0.031-0.357,0.078-0.676,0.076c-0.693,0.002-1.346-0.363-1.346-1.443l0.002-0.574
				c0-1.08,0.65-1.439,1.344-1.438c0.316,0,0.58,0.045,0.676,0.074c0.064,0.02,0.1,0.039,0.1,0.1v0.441
				c0,0.057-0.027,0.092-0.086,0.092c-0.006,0-0.01-0.002-0.014,0c-0.172-0.016-0.422-0.035-0.674-0.035
				c-0.312,0-0.562,0.164-0.561,0.768l-0.004,0.57c0.002,0.605,0.252,0.77,0.566,0.77c0.25,0,0.5-0.023,0.672-0.037
				c0.004,0,0.01,0,0.012,0c0.062,0,0.088,0.037,0.088,0.092l0.002,0.441C53.53,79.957,53.493,79.98,53.428,79.998z"/>
			<path fill="#262626" d="M56.471,80.016c-0.15,0.033-0.498,0.059-0.74,0.059c-0.584,0.002-1.107-0.148-1.107-0.979v-2.348
				c0-0.051,0.041-0.092,0.092-0.09h0.594c0.049,0,0.092,0.041,0.092,0.092v2.348c-0.002,0.236,0.076,0.311,0.291,0.311h0.781
				c0.051,0,0.092,0.041,0.09,0.09v0.422C56.563,79.979,56.534,80.002,56.471,80.016z"/>
			<path fill="#262626" d="M59.473,80.016c-0.16,0.021-0.395,0.059-0.885,0.061c-0.584,0-1.104-0.154-1.102-0.979V77.59
				c-0.002-0.826,0.521-0.971,1.107-0.973c0.49,0.002,0.719,0.037,0.877,0.061c0.064,0.008,0.09,0.031,0.09,0.09l0.002,0.424
				c-0.002,0.049-0.041,0.09-0.09,0.09h-0.926c-0.213,0-0.289,0.072-0.291,0.307v0.416h1.178c0.049-0.002,0.09,0.041,0.09,0.09v0.43
				c0,0.051-0.039,0.094-0.09,0.092l-1.178,0.002v0.48c0.002,0.236,0.078,0.311,0.291,0.311h0.924c0.049,0,0.09,0.041,0.092,0.09
				l-0.002,0.424C59.563,79.979,59.534,80.008,59.473,80.016z"/>
			<path fill="#262626" d="M64.637,77.299l-0.736-0.002v2.646c-0.002,0.049-0.041,0.092-0.092,0.092l-0.594-0.002
				c-0.051,0-0.092-0.041-0.09-0.09l-0.002-2.645h-0.74c-0.051,0-0.092-0.035-0.092-0.086v-0.469
				c0.002-0.049,0.041-0.086,0.092-0.086h2.254c0.049,0,0.096,0.037,0.096,0.086v0.467C64.731,77.262,64.688,77.297,64.637,77.299z"
				/>
			<path fill="#262626" d="M68.274,76.758L67.59,78.33c-0.09,0.209-0.188,0.305-0.295,0.352v1.262
				c-0.002,0.049-0.041,0.092-0.092,0.092l-0.594-0.002c-0.053,0.002-0.092-0.039-0.092-0.092l-0.002-1.264
				c-0.107-0.043-0.205-0.139-0.297-0.35l-0.688-1.57c-0.004-0.008-0.002-0.021-0.002-0.031c-0.004-0.039,0.023-0.068,0.07-0.068
				l0.654-0.002c0.045,0.002,0.076,0.039,0.092,0.08l0.49,1.281c0.023,0.059,0.037,0.068,0.066,0.066
				c0.033,0,0.047-0.008,0.068-0.066l0.492-1.281c0.014-0.041,0.045-0.08,0.09-0.078l0.654-0.002
				c0.047,0.002,0.072,0.031,0.072,0.07C68.28,76.734,68.282,76.748,68.274,76.758z"/>
			<path fill="#262626" d="M71.825,80.035h-0.695c-0.049,0-0.068-0.047-0.09-0.094l-0.609-1.146l-0.051,0.004
				c-0.096-0.002-0.236-0.01-0.322-0.01v1.154c0,0.049-0.041,0.092-0.09,0.088l-0.592,0.004c-0.049,0-0.09-0.041-0.09-0.094
				l-0.002-3.047c0.002-0.154,0.066-0.195,0.207-0.217c0.207-0.033,0.594-0.061,0.92-0.061c0.773,0,1.369,0.26,1.369,1.062v0.061
				c-0.002,0.482-0.254,0.775-0.588,0.908l0.686,1.281c0.01,0.018,0.014,0.035,0.016,0.049
				C71.893,80.012,71.875,80.035,71.825,80.035z M71.006,77.68c0-0.275-0.213-0.402-0.594-0.402c-0.062,0-0.301,0.008-0.355,0.014
				v0.871c0.051,0.006,0.271,0.01,0.322,0.006c0.479,0,0.625-0.119,0.629-0.428L71.006,77.68z"/>
			<path fill="#262626" d="M74.833,80.018c-0.158,0.02-0.391,0.057-0.883,0.059c-0.584-0.002-1.104-0.15-1.104-0.98l0.002-1.504
				c0-0.828,0.521-0.975,1.109-0.975c0.488,0,0.715,0.037,0.875,0.061c0.062,0.008,0.092,0.031,0.09,0.09v0.424
				c0.002,0.049-0.039,0.09-0.09,0.09h-0.924c-0.213,0-0.287,0.072-0.287,0.309v0.414h1.176c0.049,0,0.09,0.041,0.09,0.09v0.432
				c0,0.049-0.039,0.092-0.09,0.092l-1.176-0.002l-0.002,0.48c0.002,0.238,0.078,0.312,0.291,0.312h0.922
				c0.051,0,0.09,0.039,0.09,0.09l0.002,0.424C74.924,79.98,74.895,80.008,74.833,80.018z"/>
			<path fill="#262626" d="M79.801,79.996c-0.094,0.031-0.357,0.08-0.676,0.08c-0.691,0-1.346-0.365-1.344-1.445v-0.574
				c0-1.08,0.652-1.439,1.346-1.438c0.316-0.002,0.58,0.045,0.676,0.076c0.062,0.018,0.1,0.037,0.102,0.1l-0.002,0.439
				c0,0.057-0.027,0.092-0.086,0.09c-0.004,0.002-0.01,0.002-0.016,0c-0.172-0.012-0.42-0.033-0.672-0.033
				c-0.312,0-0.562,0.162-0.562,0.764v0.576c0,0.604,0.25,0.768,0.562,0.768c0.252,0,0.502-0.023,0.674-0.037
				c0.006,0,0.008,0,0.014,0c0.057,0,0.086,0.037,0.086,0.092v0.441C79.903,79.955,79.868,79.979,79.801,79.996z"/>
			<path fill="#262626" d="M82.17,80.074c-0.75,0.002-1.346-0.406-1.344-1.457l-0.002-0.543c0.002-1.051,0.596-1.457,1.346-1.455
				c0.75,0,1.346,0.402,1.346,1.455v0.541C83.516,79.672,82.918,80.076,82.17,80.074z M82.733,78.076
				c-0.002-0.545-0.182-0.779-0.562-0.777c-0.383-0.002-0.561,0.232-0.561,0.775v0.543c0.002,0.545,0.18,0.777,0.561,0.777
				s0.562-0.232,0.562-0.779V78.076z"/>
			<path fill="#262626" d="M87.659,80.035h-0.6c-0.041,0-0.074-0.043-0.074-0.094l0.002-1.893c-0.002-0.031-0.016-0.037-0.023-0.035
				c-0.014-0.002-0.021,0.008-0.037,0.027l-0.408,0.754c-0.031,0.055-0.076,0.076-0.137,0.076h-0.363
				c-0.057,0-0.105-0.023-0.137-0.076l-0.408-0.752c-0.014-0.021-0.021-0.031-0.037-0.031c-0.008,0.002-0.021,0.006-0.021,0.037
				v1.895c0,0.049-0.033,0.092-0.074,0.092h-0.6c-0.035,0-0.076-0.014-0.076-0.064v-3.156c0-0.096,0.066-0.156,0.164-0.156h0.428
				c0.094,0,0.16,0.047,0.199,0.123l0.693,1.295c0.02,0.035,0.033,0.059,0.051,0.059c0.02,0,0.031-0.023,0.051-0.061l0.695-1.293
				c0.039-0.076,0.104-0.123,0.199-0.123h0.428c0.094,0,0.162,0.064,0.162,0.158v3.154C87.735,80.021,87.694,80.035,87.659,80.035z"
				/>
			<path fill="#262626" d="M90.098,78.854c-0.107-0.002-0.254-0.012-0.369-0.016l0.002,1.104c0,0.053-0.039,0.094-0.092,0.094
				h-0.586c-0.051,0-0.09-0.037-0.092-0.088v-3.053c0-0.154,0.064-0.197,0.207-0.217c0.23-0.037,0.594-0.061,0.922-0.059
				c0.686,0,1.363,0.238,1.361,1.094l0.002,0.041C91.45,78.602,90.776,78.854,90.098,78.854z M90.682,77.713
				c0-0.322-0.203-0.449-0.584-0.449c-0.062,0-0.314,0.008-0.367,0.014v0.924c0.049,0.006,0.318,0.012,0.367,0.012
				c0.404-0.002,0.582-0.152,0.582-0.459L90.682,77.713z"/>
			<path fill="#262626" d="M94.823,80.035h-0.635c-0.047-0.002-0.082-0.037-0.09-0.082l-0.164-0.748l-0.932,0.002l-0.164,0.746
				c-0.008,0.045-0.045,0.082-0.09,0.082H92.11c-0.043,0-0.076-0.027-0.076-0.074c0-0.004,0.004-0.016,0.004-0.021l0.678-2.816
				c0.104-0.438,0.441-0.504,0.756-0.504c0.312,0,0.645,0.064,0.746,0.502l0.678,2.818c0,0.01,0.006,0.018,0.006,0.021
				C94.901,80.008,94.87,80.035,94.823,80.035z M93.528,77.332c-0.008-0.047-0.018-0.068-0.057-0.07
				c-0.041,0.002-0.057,0.023-0.066,0.07l-0.273,1.254h0.676L93.528,77.332z"/>
			<path fill="#262626" d="M98.395,80.035H97.95c-0.096,0-0.164-0.02-0.236-0.141l-1.035-1.793
				c-0.018-0.025-0.027-0.035-0.041-0.035c-0.016-0.002-0.023,0.01-0.023,0.037v1.84c0,0.049-0.041,0.09-0.09,0.09l-0.537,0.002
				c-0.051,0-0.09-0.041-0.092-0.094v-3.109c0.002-0.096,0.078-0.174,0.174-0.176l0.459,0.002c0.09-0.002,0.137,0.047,0.189,0.143
				l1.078,1.867c0.018,0.031,0.021,0.039,0.035,0.039c0.01,0,0.023-0.008,0.023-0.039v-1.922c0.002-0.051,0.041-0.088,0.092-0.088
				h0.535c0.051,0,0.09,0.037,0.092,0.086l-0.002,3.117C98.571,79.957,98.491,80.035,98.395,80.035z"/>
			<path fill="#262626" d="M102.321,76.758l-0.686,1.572c-0.092,0.207-0.189,0.305-0.297,0.348v1.266
				c0,0.051-0.041,0.092-0.09,0.092h-0.594c-0.051,0-0.094-0.043-0.094-0.094l0.002-1.26c-0.111-0.047-0.211-0.145-0.301-0.352
				l-0.686-1.572c-0.006-0.01-0.006-0.021-0.006-0.031c0.002-0.035,0.029-0.068,0.074-0.068h0.654c0.047,0,0.076,0.037,0.09,0.078
				l0.492,1.281c0.021,0.057,0.035,0.066,0.068,0.066c0.029,0,0.043-0.01,0.068-0.066l0.49-1.283
				c0.012-0.039,0.045-0.076,0.092-0.076l0.652-0.002c0.043,0.002,0.072,0.033,0.072,0.07
				C102.325,76.736,102.325,76.748,102.321,76.758z"/>
		</g>
		<g>
			<path fill="#262626" d="M73.678,71.142c0.186,0.684-0.225,1.387-0.91,1.561c-5.217,1.32-10.5,1.316-15.854-0.016
				c-0.674-0.168-1.078-0.857-0.895-1.526c0.918-3.387,2.557-6.293,4.91-8.724c0.514-0.527,1.385-0.41,1.967-0.42
				c0.111-0.002,0.93-0.027,1.045,0.019c0.49,0.196,0.264,0.54,0.035,0.862c-0.805,1.129-1.547,2.296-2.229,3.505
				c-0.35,0.617-0.68,1.246-0.994,1.883c-0.277,0.559-0.857,1.33-0.037,1.795c0.418,0.234,3.725,0.283,4.131,0.283
				c0.406-0.002,3.723-0.047,4.141-0.285c0.814-0.467,0.234-1.234-0.041-1.795c-0.314-0.635-0.645-1.26-0.992-1.879
				c-0.682-1.209-1.426-2.375-2.232-3.507c-0.227-0.32-0.451-0.666,0.035-0.861c0.115-0.045,0.936-0.023,1.045-0.02
				c0.584,0.01,1.457-0.105,1.965,0.42C71.122,64.867,72.758,67.767,73.678,71.142z"/>
			<path fill="#262626" d="M70.803,62.252c-0.127-0.146-0.033-0.376,0.162-0.391c5.178-0.422,10.326-0.193,15.436,0.688
				c0.211,0.038,0.289,0.3,0.131,0.444c-0.75,0.691-1.438,1.41-2.064,2.156c-2.475-0.326-4.916-0.506-7.324-0.537
				c-0.363-0.004-0.576,0.408-0.357,0.701c0.486,0.658,0.928,1.332,1.324,2.023c1.363-0.068,2.77-0.078,4.221-0.031
				c0.232,0.008,0.371,0.262,0.252,0.465c-0.34,0.559-0.652,1.131-0.934,1.717c-0.828,0-1.658-0.002-2.482,0
				c0.486,1.18,0.854,2.407,1.094,3.674c-1.49,0.002-2.98,0.002-4.475,0c0-0.016-0.004-0.029-0.006-0.045
				c-0.023-0.135-0.051-0.266-0.072-0.398c-0.48-2.836-1.822-6.854-4.58-10.08c-0.08-0.097-0.16-0.196-0.242-0.291
				C70.856,62.314,70.831,62.283,70.803,62.252z"/>
			<path fill="#262626" d="M39.764,71.376c-0.264,0.209-0.178,0.627,0.145,0.715c0.84,0.234,1.682,0.465,2.525,0.699
				c1.627-1.107,3.311-2.108,5.053-3.002c0.24-0.125,0.395-0.086,0.549,0.137c0.707,1.02,1.256,2.1,1.646,3.239
				c1.645,0,3.287,0,4.932,0c-0.951-1.678-2.068-3.184-3.352-4.528c-0.193-0.203-0.123-0.537,0.137-0.643
				c1.539-0.625,3.121-1.172,4.742-1.646c0.039-0.08,0.885-1.555,1.922-3.058c0.238-0.35-0.062-0.807-0.471-0.695
				C50.745,64.457,44.803,67.384,39.764,71.376z"/>
			<g>
				<path fill="#262626" d="M100.356,70.298c0.029-0.041,0.043-0.1,0.043-0.17c0-0.061-0.014-0.109-0.037-0.148
					c-0.027-0.037-0.057-0.068-0.096-0.084c-0.039-0.02-0.082-0.031-0.129-0.037s-0.096-0.008-0.143-0.008l-0.359-0.002v0.582h0.283
					c0.057-0.002,0.117-0.002,0.178-0.006c0.059-0.004,0.109-0.016,0.152-0.035C100.292,70.369,100.329,70.337,100.356,70.298z"/>
				<path fill="#262626" d="M101.043,68.466c-4.209-2.471-8.117-4.224-11.727-5.26c-0.295-0.086-0.512-0.043-0.756,0.147
					c-2.566,2.021-4.588,4.724-6.064,8.103c-0.355,0.813,0.189,1.739,1.072,1.827c5.104,0.5,10.631,0.359,16.582-0.414
					C102.393,72.576,102.995,69.611,101.043,68.466z M96.872,70.085c-3.207,0.33-6.172,0.422-8.9,0.275
					c-0.514-0.025-0.795-0.609-0.498-1.029c0.666-0.939,1.451-1.891,2.359-2.855c0.135-0.145,0.258-0.174,0.441-0.109
					c2.346,0.826,4.598,1.791,6.75,2.898C97.411,69.464,97.301,70.041,96.872,70.085z M101.372,71.146
					c-0.082,0.188-0.191,0.35-0.334,0.489c-0.143,0.135-0.307,0.244-0.492,0.32c-0.188,0.08-0.385,0.121-0.594,0.121
					c-0.213,0-0.41-0.041-0.598-0.119c-0.186-0.078-0.35-0.186-0.492-0.324c-0.141-0.137-0.252-0.299-0.334-0.487
					c-0.082-0.189-0.123-0.393-0.123-0.615c-0.002-0.219,0.041-0.422,0.123-0.613c0.08-0.188,0.195-0.352,0.334-0.488
					c0.143-0.139,0.307-0.246,0.49-0.324c0.189-0.078,0.387-0.117,0.6-0.117c0.209,0,0.408,0.037,0.594,0.117
					c0.188,0.078,0.35,0.186,0.492,0.322c0.141,0.139,0.252,0.301,0.334,0.49c0.082,0.191,0.121,0.395,0.123,0.613
					C101.493,70.753,101.454,70.957,101.372,71.146z"/>
				<path fill="#262626" d="M100.848,69.591c-0.113-0.117-0.25-0.211-0.402-0.279c-0.154-0.07-0.318-0.102-0.494-0.102
					c-0.178,0-0.346,0.031-0.5,0.102c-0.154,0.068-0.289,0.16-0.402,0.277c-0.115,0.119-0.203,0.26-0.27,0.42
					c-0.066,0.162-0.102,0.336-0.1,0.521c-0.002,0.189,0.031,0.363,0.098,0.523s0.158,0.299,0.271,0.418
					c0.115,0.117,0.248,0.209,0.404,0.278c0.152,0.066,0.32,0.102,0.498,0.102c0.176,0,0.342-0.035,0.494-0.102
					c0.152-0.068,0.289-0.163,0.402-0.278c0.115-0.119,0.207-0.258,0.273-0.418c0.064-0.16,0.098-0.334,0.1-0.523
					c0-0.186-0.035-0.359-0.102-0.521C101.055,69.847,100.965,69.708,100.848,69.591z M100.418,71.431l-0.488-0.777h-0.295v0.777
					h-0.273l-0.002-1.807l0.68,0.002c0.422-0.002,0.635,0.172,0.633,0.512c0,0.166-0.047,0.283-0.137,0.361
					c-0.094,0.076-0.205,0.121-0.342,0.133l0.521,0.799H100.418z"/>
			</g>
		</g>
	</g>
</g>
</svg>
