<svg xmlns="http://www.w3.org/2000/svg" viewBox="0 0 30 30"><defs><style>.cls-1{fill:#242650;}</style></defs><g id="Layer_2" data-name="Layer 2"><path class="cls-1" d="M23.65,2.45H6.35a.51.51,0,0,0-.5.5v24.1a.51.51,0,0,0,.5.5h17.3a.51.51,0,0,0,.5-.5V3A.51.51,0,0,0,23.65,2.45Zm-.5,24.1H6.85V3.45h16.3Z"/><path class="cls-1" d="M10,21.11a.5.5,0,0,0,.5-.5V16a3.18,3.18,0,0,0,2.67-3.14c0-1.86-2.52-4.67-2.8-5a.51.51,0,0,0-.87.34V20.61A.5.5,0,0,0,10,21.11Zm.5-11.48a7.15,7.15,0,0,1,1.67,3.26A2.17,2.17,0,0,1,10.45,15Z"/><path class="cls-1" d="M17.35,14.86v5.75a.5.5,0,0,0,.5.5.5.5,0,0,0,.5-.5V14.86a3.47,3.47,0,0,0,2.2-3.53c0-2-1.21-3.59-2.7-3.59s-2.69,1.61-2.69,3.59C15.16,13.12,16.09,14.56,17.35,14.86Zm.5-6.12c.93,0,1.7,1.19,1.7,2.59s-.77,2.6-1.7,2.6-1.69-1.19-1.69-2.6S16.93,8.74,17.85,8.74Z"/></g></svg>