<svg xmlns="http://www.w3.org/2000/svg" viewBox="0 0 30 30"><defs><style>.cls-1{fill:#242650;}</style></defs><g id="Layer_2" data-name="Layer 2"><path class="cls-1" d="M20.89,8.4a.51.51,0,0,0-.5.5V22.78a2,2,0,0,1-1.95,1.95H11.56a2,2,0,0,1-2-1.95V8.9a.51.51,0,0,0-.5-.5.5.5,0,0,0-.5.5V22.78a3,3,0,0,0,3,2.95h6.88a3,3,0,0,0,2.95-2.95V8.9A.5.5,0,0,0,20.89,8.4Z"/><path class="cls-1" d="M22.4,6.41H17.9V4.77a.51.51,0,0,0-.5-.5H12.6a.51.51,0,0,0-.5.5V6.41H7.6a.5.5,0,0,0,0,1H22.4a.5.5,0,0,0,0-1ZM16.9,5.27V6.41H13.1V5.27Z"/><path class="cls-1" d="M12.57,22.49V8.9a.5.5,0,1,0-1,0V22.49a.5.5,0,1,0,1,0Z"/><path class="cls-1" d="M15.5,22.49V8.9a.5.5,0,1,0-1,0V22.49a.5.5,0,0,0,1,0Z"/><path class="cls-1" d="M18.43,22.49V8.9a.5.5,0,1,0-1,0V22.49a.5.5,0,1,0,1,0Z"/></g></svg>