<svg xmlns="http://www.w3.org/2000/svg" viewBox="0 0 30 30"><defs><style>.cls-1{fill:#242650;}</style></defs><g id="Layer_2" data-name="Layer 2"><path class="cls-1" d="M16.21,25.42H13.79a.5.5,0,0,1-.5-.45l-.14-1.44a.93.93,0,0,0-.66-.81.92.92,0,0,0-1,.27l-1,1.08a.51.51,0,0,1-.67.07l-2-1.42a.51.51,0,0,1-.13-.66l.73-1.25a1,1,0,0,0-1-1.41L6,19.71a.5.5,0,0,1-.58-.34l-.75-2.3A.49.49,0,0,1,5,16.46l1.33-.59a1,1,0,0,0,0-1.74L5,13.54a.49.49,0,0,1-.28-.61l.75-2.3A.5.5,0,0,1,6,10.29l1.42.31a1,1,0,0,0,1-1.41L7.76,7.94a.51.51,0,0,1,.13-.66l2-1.42a.51.51,0,0,1,.67.07l1,1.08a.92.92,0,0,0,1,.27.93.93,0,0,0,.66-.81L13.29,5a.5.5,0,0,1,.5-.45h2.42a.5.5,0,0,1,.5.45l.14,1.44a.93.93,0,0,0,.66.81.92.92,0,0,0,1-.27l1-1.08a.51.51,0,0,1,.67-.07l2,1.42a.51.51,0,0,1,.13.66l-.73,1.25a1,1,0,0,0,1,1.41L24,10.29a.51.51,0,0,1,.59.34l.75,2.3a.49.49,0,0,1-.28.61l-1.33.59a1,1,0,0,0,0,1.74l1.33.59a.49.49,0,0,1,.28.61l-.75,2.3a.51.51,0,0,1-.59.34l-1.41-.31a.91.91,0,0,0-1,.37.94.94,0,0,0-.06,1l.73,1.25a.51.51,0,0,1-.13.66l-2,1.42a.51.51,0,0,1-.67-.07l-1-1.08a.92.92,0,0,0-1-.27.93.93,0,0,0-.66.81L16.71,25A.5.5,0,0,1,16.21,25.42Zm-2-1h1.52l.1-1a1.92,1.92,0,0,1,1.34-1.66,1.94,1.94,0,0,1,2.06.55l.66.75,1.23-.89-.5-.87a2,2,0,0,1,2.1-2.89l1,.21.47-1.44-.92-.4a2,2,0,0,1,0-3.58l.92-.4-.47-1.44-1,.21a2,2,0,0,1-2.1-2.89l.5-.87-1.23-.89-.66.75a2,2,0,0,1-2.06.55,1.92,1.92,0,0,1-1.34-1.66l-.1-1H14.24l-.1,1a2,2,0,0,1-3.4,1.11l-.66-.75-1.23.89.5.87a2,2,0,0,1-2.1,2.89l-1-.21L5.8,12.81l.92.4a2,2,0,0,1,0,3.58l-.92.4.47,1.44,1-.21a2,2,0,0,1,2.1,2.89l-.5.87,1.23.89.66-.75a2,2,0,0,1,3.4,1.11Z"/><path class="cls-1" d="M15,19.11A4.11,4.11,0,1,1,19.11,15,4.11,4.11,0,0,1,15,19.11Zm0-7.22A3.11,3.11,0,1,0,18.11,15,3.12,3.12,0,0,0,15,11.89Z"/></g></svg>