<svg xmlns="http://www.w3.org/2000/svg" viewBox="0 0 30 30"><defs><style>.cls-1{fill:#242650;}</style></defs><g id="Layer_2" data-name="Layer 2"><path class="cls-1" d="M25.51,4.17,20.3.92a.51.51,0,0,0-.69.16L11.07,14.8a.59.59,0,0,0-.07.26L10.92,21a.52.52,0,0,0,.5.51.59.59,0,0,0,.23,0l5.29-2.69a.41.41,0,0,0,.19-.18L25.67,4.86A.49.49,0,0,0,25.51,4.17ZM12,15.61a4.19,4.19,0,0,1,4,2.5l-4.07,2.06Zm4.75,1.71a5.14,5.14,0,0,0-1.83-1.93,5.19,5.19,0,0,0-2.54-.79L20.2,2l4.36,2.71Z"/><path class="cls-1" d="M22,13.24a.5.5,0,0,0-.5.5V28.15H5.25V5.06H15a.5.5,0,0,0,.5-.5.5.5,0,0,0-.5-.5H4.75a.5.5,0,0,0-.5.5V28.65a.5.5,0,0,0,.5.5H22a.5.5,0,0,0,.5-.5V13.74A.5.5,0,0,0,22,13.24Z"/></g></svg>