<svg xmlns="http://www.w3.org/2000/svg" viewBox="0 0 30 30"><defs><style>.cls-1{fill:#242650;}</style></defs><g id="Layer_2" data-name="Layer 2"><path class="cls-1" d="M22.45,26.32H5.16a.5.5,0,0,1-.5-.5V1.73a.5.5,0,0,1,.5-.5H22.45a.5.5,0,0,1,.5.5V25.82A.5.5,0,0,1,22.45,26.32Zm-16.79-1H22V2.23H5.66Z"/><path class="cls-1" d="M24.84,28.77H7.54a.5.5,0,0,1-.5-.5.51.51,0,0,1,.5-.5h16.8V4.18a.5.5,0,0,1,.5-.5.5.5,0,0,1,.5.5V28.27A.5.5,0,0,1,24.84,28.77Z"/><path class="cls-1" d="M19.13,7.17H8.49a.5.5,0,0,1-.5-.5.5.5,0,0,1,.5-.5H19.13a.5.5,0,0,1,.5.5A.5.5,0,0,1,19.13,7.17Z"/><path class="cls-1" d="M19.13,11.45H8.49A.5.5,0,0,1,8,11a.5.5,0,0,1,.5-.5H19.13a.5.5,0,0,1,.5.5A.5.5,0,0,1,19.13,11.45Z"/><path class="cls-1" d="M16.19,15.73H8.49a.5.5,0,0,1-.5-.5.5.5,0,0,1,.5-.5h7.7a.5.5,0,0,1,.5.5A.5.5,0,0,1,16.19,15.73Z"/></g></svg>