<svg id="Layer_1" data-name="Layer 1" xmlns="http://www.w3.org/2000/svg" viewBox="0 0 315.93 117.06"><defs><style>.cls-1{fill-rule:evenodd;}</style></defs><title>logo_radio_zlin</title><polygon points="217.25 63.35 212.89 63.35 219.72 53.65 226.88 53.65 217.25 63.35"/><path d="M204.33,26.92a1.77,1.77,0,0,0,3.08-1.18,1.69,1.69,0,0,0-.46-1.18,1.61,1.61,0,0,0-1.27-.59,1.78,1.78,0,0,0-1.29.51,1.65,1.65,0,0,0-.51,1.24,1.73,1.73,0,0,0,.45,1.2"/><path d="M251.35,64.63c-.64,1.34-2.61,5.89-4.2,4.33-2.12-2.11-2.48-9.36-9.36-3.66-1.37,1.14-7.09,6.88-6.3,5.21,0,0,0,.06,0,0a36.4,36.4,0,0,0,2.38-5.15c1-4-3.2-4-6-1.26C226,66,217.53,76.47,214.69,75c-1.82-.94-.72-6.3-2.51-6.94s-2.89.79-3.86,1.75a37.28,37.28,0,0,1-6.22,5.94c-8.56,6.2-10.24,3.88-10.19.37,4.31-4.24,13.6-16,14.42-22.91.52-4.47-3.68-3.41-6.44-1.13S188.8,64.41,185.78,76.46c-7.51,7.39-17.2,9.5-20.18,9.5-1,0-1-.82-.22-1.74,4.89-5.75,15.94-17.37,18.77-21.6,10-15-25-7-28-5.12l5.59,5.6c4.91-5.53,21.81-7,19-2.94-1.46,2.87-23.52,23-25.68,25.68-2.51,3.13-1.14,7,2.55,7.26,11.37.87,20.8-6.76,27.76-11.63,0,4.35,10.3,5.51,21.25-5.77,4.6,10.76,15.79-1.31,18.57-4.32a26.39,26.39,0,0,0-1.36,6.07c0,2,1.79,2.76,4.32.91,3.06-2.21,6-5.16,8.63-7.32,4.24-3.48,2.91.75,7.51,2.91,3.16,1.47,5.69-.81,7.76-5.63V63.15c-.22.38-.48.87-.78,1.48m-53.3-3.86c1.15-1.1,2.62-.36.29,2.64-.81,1-3.44,4.29-5.62,6.83,1.4-3.35,2.87-7.09,5.33-9.47"/><path d="M155.7,33.25l.19,0V30.49a4.67,4.67,0,0,0-2.1.46,4.85,4.85,0,0,0-1.66,1.77L151.32,34V30.71h-3V44.36h3.09V39a7,7,0,0,1,.85-4,4,4,0,0,1,1.48-1.3,4.25,4.25,0,0,1,1.94-.48"/><path d="M171.85,30.62a7.32,7.32,0,0,0-3.09-.67,7.22,7.22,0,0,0-5.2,2.09,6.81,6.81,0,0,0-2.16,5.16,7.09,7.09,0,0,0,1.84,4.86,6.31,6.31,0,0,0,4.91,2.3,5,5,0,0,0,1.6-.22,4.8,4.8,0,0,0,1.26-.66v-3a4.62,4.62,0,0,1-2.38.75,3.87,3.87,0,0,1-2.84-1.21,4.1,4.1,0,0,1,2.89-7,3.84,3.84,0,0,1,3.19,1.5,5.36,5.36,0,0,1,1,3.44v6H176V37.52a7.68,7.68,0,0,0-1.68-5,6.75,6.75,0,0,0-2.43-1.89"/><path d="M193.8,36a5.86,5.86,0,0,1-.78,3.35,4,4,0,0,1-3.47,1.89,3.89,3.89,0,0,1-3-1.36,4.06,4.06,0,0,1-1-2.74,4,4,0,0,1,4-4.11,4.72,4.72,0,0,1,2.41.72v-3a5.59,5.59,0,0,0-2.86-.84,6.37,6.37,0,0,0-2.53.56,7,7,0,0,0-2.24,1.54,6.88,6.88,0,0,0-2,5,7.11,7.11,0,0,0,2,5A7.45,7.45,0,0,0,195.05,42a7.57,7.57,0,0,0,1.86-5.29V24H193.8Z"/><path d="M228.57,37.25a7.26,7.26,0,0,0-7.34-7.3A7.37,7.37,0,0,0,216.11,32a7.15,7.15,0,0,0-1.59,2.32,7.33,7.33,0,0,0-.57,2.79,6.86,6.86,0,0,0,2.11,5.07,7.09,7.09,0,0,0,5.23,2.15,6.91,6.91,0,0,0,5.14-2.12A7.33,7.33,0,0,0,228,39.91a6.72,6.72,0,0,0,.58-2.66m-4.4,2.8a3.89,3.89,0,0,1-2.88,1.21,4.13,4.13,0,0,1-4.14-4.13,3.93,3.93,0,0,1,1.24-2.92,4,4,0,0,1,2.86-1.16h0a3.94,3.94,0,0,1,2.89,1.21,4.07,4.07,0,0,1,1.21,3,4,4,0,0,1-1.19,2.83"/><rect x="204.1" y="29.95" width="3.07" height="14.41"/><path class="cls-1" d="M122.36,41.71c-5,6.5-25,25.36-32.75,34.37-1.25,1.48-1.25,2.94.21,2.94,4.62,0,25.83-3.76,44.3-22.22V34a10.44,10.44,0,0,0-10.71-10.49c0-.21-48.9,0-48.9,0A10.44,10.44,0,0,0,63.8,34v4.61c16.57-5,78.3-22.22,58.56,3.15M77.23,90.34c-5.87-.42-8-6.71-4-11.52,3.36-4.41,42.19-37.75,40.92-43C112.7,30,71.57,41.28,63.8,55.55V83A10.75,10.75,0,0,0,74.51,93.69h48.9A10.61,10.61,0,0,0,134.12,83V70.42c-12,8-39.48,21.17-56.89,19.92"/></svg>