<svg id="Layer_1" data-name="Layer 1" xmlns="http://www.w3.org/2000/svg" viewBox="0 0 315.93 117.06"><title>logo_pingu</title><path d="M57.53,76.7H48.07c-1.09.1-1.7.59-1.85,1.47v4.72a1.67,1.67,0,0,0,1.68,1.52h9.55a.48.48,0,0,0,.55-.52V82.81c0-.31-.17-.47-.51-.47H50.21q-.63,0-.63-.75V79.52a.71.71,0,0,1,.8-.8h7.15c.31,0,.47-.18.47-.55v-1A.41.41,0,0,0,57.53,76.7Z"/><path d="M70.66,82.43H63c-.35,0-.53-.13-.53-.43a.57.57,0,0,1,.53-.58h6.44c.39,0,.62-.2.67-.51V77.25a1.19,1.19,0,0,0-.84-.55H59.89q-.51,0-.51.42v1c0,.33.17.49.51.49h6.56c.36,0,.55.16.54.48a.5.5,0,0,1-.5.53H59.93a.49.49,0,0,0-.55.5v3.46a1.08,1.08,0,0,0,.89.8H70.7c.28,0,.44-.13.46-.38l0-1.09A.45.45,0,0,0,70.66,82.43Z"/><path d="M83.86,76.7H74.48a1.88,1.88,0,0,0-1.93,1.69v4.33c0,1.13.67,1.69,1.93,1.69h9.38c.31,0,.47-.17.47-.51v-1a.41.41,0,0,0-.47-.46H76.21c-.34,0-.51-.16-.51-.47s.17-.54.51-.54h7.65c.31,0,.47-.15.47-.44v-.83a.45.45,0,0,0-.51-.5H76.25c-.36,0-.55-.16-.55-.46a.49.49,0,0,1,.55-.55h7.61c.31,0,.47-.16.47-.49v-.9C84.33,76.88,84.17,76.7,83.86,76.7Z"/><path d="M97,76.7H87.57c-1.09.1-1.7.59-1.85,1.47v4.72a1.67,1.67,0,0,0,1.68,1.52H97a.47.47,0,0,0,.54-.52V82.81c0-.31-.16-.47-.5-.47H89.71q-.63,0-.63-.75V79.52a.71.71,0,0,1,.8-.8H97c.31,0,.46-.18.46-.55v-1A.4.4,0,0,0,97,76.7Z"/><path d="M110,76.7h-2.06a.93.93,0,0,0-.63.8v1.64c0,.34-.16.51-.47.51h-4q-.54,0-.54-.63V77.5a1,1,0,0,0-.63-.8H99.55a1.15,1.15,0,0,0-.67.72v6.23a1.11,1.11,0,0,0,.63.76h2.11a.82.82,0,0,0,.63-.76V81.92c0-.33.15-.5.46-.5h4.12a.41.41,0,0,1,.47.46v1.77a.8.8,0,0,0,.63.76H110a1.06,1.06,0,0,0,.63-.76V77.42A1.12,1.12,0,0,0,110,76.7Z"/><path d="M130.9,76.7h-8.33a1.88,1.88,0,0,0-1.93,1.69v2.52c.06.31.28.48.67.51h6.44a.56.56,0,0,1,.53.58c0,.3-.17.45-.53.43h-7.61a.48.48,0,0,0-.51.5V84c0,.25.18.38.46.38h9.38a1.83,1.83,0,0,0,1.94-1.6V80.15a.49.49,0,0,0-.55-.5H124.3a.5.5,0,0,1-.5-.53q0-.48.54-.48h6.56c.34,0,.51-.16.51-.49v-1Q131.41,76.7,130.9,76.7Z"/><path d="M142.68,76.7h-8a1.88,1.88,0,0,0-1.93,1.69v5.39c0,.42.19.63.5.63h2.19c.31,0,.46-.18.46-.55V82q0-.54.51-.54h6.18c1.29,0,1.93-.42,1.93-1.27v-2.1Q144.57,76.7,142.68,76.7Zm-1.93,3h-4.37c-.28,0-.43-.16-.43-.46s.15-.55.43-.55h4.41c.39,0,.58.17.58.5S141.14,79.65,140.75,79.65Z"/><path d="M155.93,76.7h-8.12c-1.08.1-1.7.59-1.85,1.47v4.72a1.69,1.69,0,0,0,1.68,1.52h8.42A1.62,1.62,0,0,0,157.74,83V78.17A1.75,1.75,0,0,0,155.93,76.7Zm-1.51,5c0,.47-.19.69-.59.67H150q-.63,0-.63-.75V79.52a.71.71,0,0,1,.8-.8h3.53c.51,0,.77.27.76.76Z"/><path d="M168.34,81.42H169c1.29,0,1.94-.42,1.94-1.27v-2.1c0-.9-.63-1.35-1.9-1.35h-7.95a1.88,1.88,0,0,0-1.93,1.69v5.39c0,.42.19.63.5.63h2.19c.31,0,.46-.18.46-.55V82q0-.54.51-.54h1.81l1.84,1.71,1.35,1.28h3.28c.39,0,.44-.2.13-.55Zm-1.26-1.77h-4.36a.4.4,0,0,1-.44-.46c0-.37.15-.55.44-.55h4.4c.39,0,.58.17.58.5S167.47,79.65,167.08,79.65Z"/><path d="M183.06,76.7h-10.3c-.53,0-.57.3-.13.84l2.82,2.61a1.43,1.43,0,0,0,1,.34H179c.3,0,.33-.12.08-.36L178,79.06c-.25-.25-.18-.38.21-.38h3c.34,0,.51.17.51.55v4.29c0,.59.22.89.67.89h1.43q.63,0,.63-.93V78.05C184.48,77.18,184,76.73,183.06,76.7Z"/><path d="M197.28,76.7H189A1.88,1.88,0,0,0,187,78.39v2.52c0,.31.28.48.67.51h6.44a.57.57,0,0,1,.53.58c0,.3-.18.45-.53.43h-7.62a.48.48,0,0,0-.5.5V84c0,.25.18.38.46.38h9.38a1.83,1.83,0,0,0,1.94-1.6V80.15a.49.49,0,0,0-.55-.5h-6.56a.49.49,0,0,1-.5-.53q0-.48.54-.48h6.56c.34,0,.51-.16.51-.49v-1Q197.79,76.7,197.28,76.7Z"/><path d="M215.41,76.7h-5.76c-.31,0-.35.17-.13.42l1.39,1.27a1,1,0,0,0,.67.29h2c.34,0,.5.17.5.55v2.23a2.16,2.16,0,0,1-.06.63c0,.11-.17,0-.4-.29l-4.73-4.35h0a1.06,1.06,0,0,0-.78-.3,1.16,1.16,0,0,0-.8.29l-4.86,4.35c-.22.31-.35.4-.4.29a2.16,2.16,0,0,1-.06-.63V79.23c0-.38.17-.56.51-.55h2a1.11,1.11,0,0,0,.72-.34l1.34-1.22q.34-.37-.12-.42H200.6q-1.42,0-1.38,1.35v5c0,.94.57,1.41,1.72,1.41h1.18A4.3,4.3,0,0,0,205,83l2.7-2.4a.5.5,0,0,1,.76,0L211,83a4.3,4.3,0,0,0,2.88,1.38h1.17c1.15,0,1.73-.47,1.73-1.41v-5C216.82,77.18,216.36,76.73,215.41,76.7Z"/><path d="M229.46,76.7h-9.38a1.88,1.88,0,0,0-1.93,1.69v4.33c0,1.13.66,1.69,1.93,1.69h9.38c.31,0,.46-.17.46-.51v-1a.4.4,0,0,0-.46-.46h-7.65c-.34,0-.51-.16-.51-.47s.17-.54.51-.54h7.65c.31,0,.46-.15.46-.44v-.83a.44.44,0,0,0-.5-.5h-7.57c-.37,0-.55-.16-.55-.46a.48.48,0,0,1,.55-.55h7.61c.31,0,.46-.16.46-.49v-.9C229.92,76.88,229.77,76.7,229.46,76.7Z"/><path d="M237.13,78.07a4.3,4.3,0,0,0-2.87-1.37h-1.69A1.1,1.1,0,0,0,231.35,78V83.1c0,.84.36,1.28,1.14,1.31h6c.3,0,.35-.17.12-.42l-1.26-1.18a1.2,1.2,0,0,0-.76-.38h-2c-.33,0-.5-.17-.5-.55V79.65a2.16,2.16,0,0,1,.06-.63c0-.12.18,0,.4.29l5.43,5.1h3.28c.39,0,.43-.2.12-.55Z"/><path d="M254.36,81.42H255c1.29,0,1.94-.42,1.94-1.27v-2.1q0-1.35-1.89-1.35h-7.95a1.89,1.89,0,0,0-1.94,1.69v5.39q0,.63.51.63h2.18c.31,0,.47-.18.47-.55V82c0-.36.16-.54.5-.54h1.81l1.84,1.71,1.36,1.28h3.28c.39,0,.43-.2.12-.55Zm-1.26-1.77h-4.36c-.29,0-.43-.16-.43-.46s.14-.55.43-.55h4.4c.39,0,.59.17.59.5S253.49,79.65,253.1,79.65Z"/><path d="M256.89,69.91H46.54c-.5,0-.9.8-.9,1.78s.4,1.78.9,1.78H256.89c.49,0,.89-.79.89-1.78S257.38,69.91,256.89,69.91Z"/><path d="M115,66h8.8a4.24,4.24,0,0,0,1.89-3.44V47l.69.68L138,60.06c7,7.54,9.4,5.76,19.52,5.69,1.46-.08,2.13-1.22,2.05-3.44V35.36c-.08-1.8-.71-2.71-1.88-2.71h-8.8A4.26,4.26,0,0,0,147,36.09V51.64l-.69-.67L134.69,38.55c-7-7.53-9.88-5.68-19.52-5.68-1.45.07-2.13,1.22-2,3.43v2c0,.14,0,.28,0,.43V63.25C113.2,65.06,113.84,66,115,66Z"/><path d="M220.07,65.75h31.41q5.36-.39,6.28-6v-25a2.49,2.49,0,0,0-2.67-2.17h-7.54c-1.47,0-2.2.85-2.2,2.54V54c0,2-.69,3-2.2,2.9H228.71c-1.57,0-2.36-1-2.36-3.26V35.19c0-1.69-.68-2.54-2-2.54h-8.48c-1.36,0-2,.85-2,2.54V59.24Q214.53,65.1,220.07,65.75Z"/><path d="M170.91,65.75h31.41q5.35-.39,6.28-6V47.67c0-1.33-.57-2-1.73-2h-8.79c-1.26,0-1.89.72-1.89,2.17V54c0,2-.69,3-2.2,2.9H179.55c-1.57,0-2.36-1-2.36-3.26V44.77q0-3.44,3-3.44h26.69c1.16,0,1.73-.6,1.73-1.8V34.65c0-1.33-.63-2-1.88-2H171.54q-6.07.65-6.91,6.34V59.24Q165.38,65.1,170.91,65.75Z"/><path d="M48.1,65.75h8.16C57.42,65.75,58,65,58,63.4V55.26c0-1.57.62-2.35,1.88-2.35H83q7.22,0,7.22-5.43v-9q0-5.79-7.07-5.79H53.44q-6.18.43-7.22,7.24c0,.72.52,1.08,1.57,1.08H76.05a1.92,1.92,0,0,1,2.18,2.17,2.06,2.06,0,0,1-2.33,2.17H48.1c-1.26,0-1.88.84-1.88,2.54V63C46.3,64.84,46.94,65.75,48.1,65.75Z"/><path d="M266.52,36.84a1.55,1.55,0,0,0-.51-1.18,1.79,1.79,0,0,0-1.27-.48h-2.26v5.7h.91V38.5h1l1,2.38h1.1l-1.07-2.51A1.67,1.67,0,0,0,266,38,1.54,1.54,0,0,0,266.52,36.84Zm-1.16.57a.86.86,0,0,1-.62.24h-1.35V36h1.35a.86.86,0,0,1,.62.24.73.73,0,0,1,.26.57A.75.75,0,0,1,265.36,37.41Z"/><path d="M97.73,65.75h7.85c1.37-.37,2.15-1.45,2.36-3.25V36.09a4,4,0,0,0-2.36-3.44h-7.7a4.61,4.61,0,0,0-2.5,3.08V62.5C95.87,64.24,96.66,65.32,97.73,65.75Z"/><path d="M268.61,34.21a6.17,6.17,0,0,0-8.2,0,5.2,5.2,0,0,0,0,7.64,6.17,6.17,0,0,0,8.2,0,5.18,5.18,0,0,0,0-7.64Zm-.56,7.13a5.35,5.35,0,0,1-7.08,0,4.48,4.48,0,0,1,0-6.6,5.29,5.29,0,0,1,7.08,0,4.48,4.48,0,0,1,0,6.6Z"/></svg>