<svg id="Layer_1" data-name="Layer 1" xmlns="http://www.w3.org/2000/svg" viewBox="0 0 294.8 170.08"><defs><style>.cls-1{fill-rule:evenodd;}</style></defs><title>oddil</title><path class="cls-1" d="M231.88,101.94h9.94l2.63-15.53L251.12,102h11.14l-8-16.35,13.61-16.29H257.18L244.81,84.56l2.67-15.26h-9.94ZM227,67.3h4.13l5.59-6.17h-6.59Zm-8.8,34.64h9.94l5.65-32.64h-9.94ZM202.4,61.11l2.48,6h7.19l4.6-6h-5.14L209,64l-1.42-2.87ZM190,95.44l-1.19,6.48h26.07l1.43-8H204.38a12.52,12.52,0,0,0-2.26.27,8.42,8.42,0,0,0,2.3-1.81l15.81-16.61,1.11-6.47H195.21l-1.38,8h12.33a13.2,13.2,0,0,0,2.18-.27,5.14,5.14,0,0,0-1.38.9l-.8.86Zm1.88-26.17H181.9l-3.16,18.24c-.45,2.72-.94,4-1.78,5a5.93,5.93,0,0,1-4.62,2c-2.79,0-4.3-1.41-4.3-3.9a25.55,25.55,0,0,1,.31-3l3.21-18.25h-9.94l-3.34,19.28a29.11,29.11,0,0,0-.4,4c0,6.39,4.61,9.93,13,9.93,5.68,0,9.63-1.27,12.83-4.16A14.06,14.06,0,0,0,187.3,93a18.72,18.72,0,0,0,1.15-4.48Zm-50.91,6.9h2.57c2.84,0,4,.87,4,2.82a4.44,4.44,0,0,1-1.83,3.62,5.55,5.55,0,0,1-3.37.77h-2.66Zm-14.22,25.72h9.94l2-11.45h.53c2.44,0,3,.4,3.82,3l2.69,8.42h10.77l-3.74-10.51a10.28,10.28,0,0,0-1.38-2.81,5.23,5.23,0,0,0-1.55-1.31,10.49,10.49,0,0,0,2.71-1.22,11.45,11.45,0,0,0,3.24-3A10.77,10.77,0,0,0,157.61,77c0-4.3-2.44-7-6.83-7.52-1.15-.12-3-.18-4.57-.18H132.37Zm-32.24,0h9.94L107,86.34l6.68,15.53h11.14l-8-16.35,13.6-16.29H119.75L107.39,84.48l2.67-15.25h-9.93Z"/><path class="cls-1" d="M264.28,85.4l.17-1h.67c.42,0,.63.15.63.47s-.24.55-.8.55Zm.78.35.42,1.29H266l-.45-1.37a.83.83,0,0,0,.71-.81.77.77,0,0,0-.39-.68,1.5,1.5,0,0,0-.77-.14h-1l-.5,3H264l.22-1.29Zm-.14-2.42a2.21,2.21,0,1,1-2.25,2.19,2.2,2.2,0,0,1,2.25-2.19Zm0-.37a2.58,2.58,0,1,0,2.54,2.58A2.58,2.58,0,0,0,264.92,83Z"/><path class="cls-1" d="M88,75.47l-.11-1.34-.18-1.31-.25-1.28-.32-1.25-.39-1.21L86.3,67.9l-.53-1.13-.6-1.09-.66-1-.73-1-.79-1-.86-.89L81.22,61l-1-.79-1-.72-1.08-.66L77,58.19l-1.18-.54-1.23-.47-1.28-.4L72,56.45l-1.36-.26L69.22,56l-1.45-.12-1.49,0-1.51,0L63.26,56l-1.51.19-1.5.25-1.5.33-1.5.39-1.48.45-1.47.52-1.46.57L50,60,47.2,61.57l-2.68,1.75L42,65.26l-2.43,2.12-2.27,2.29-2.1,2.43-1.91,2.57L32.38,76l-.83,1.36-.76,1.39-.7,1.42-.64,1.44-.58,1.47-.51,1.48-.44,1.49-.35,1.48L27.29,89l-.2,1.44L27,91.85l0,1.39,0,1.37.1,1.34.18,1.31.25,1.28.32,1.25.4,1.21.46,1.17.53,1.14.6,1.09.67,1,.73,1,.79,1,.85.89.91.84,1,.79,1,.72,1.08.66,1.13.6,1.19.54,1.23.47,1.28.4,1.32.33,1.37.26,1.41.19,1.45.12,1.48,0,1.51,0,1.51-.11,1.51-.19,1.51-.26,1.5-.32,1.49-.39,1.49-.45,1.47-.52,2.9-1.21,2.82-1.44,2.73-1.65,2.62-1.85,2.5-2,2.35-2.21,2.19-2.36,2-2.5.93-1.31.88-1.33.82-1.36.76-1.39.71-1.42.64-1.44L86.11,87l.51-1.48L87.05,84l.36-1.48.27-1.46.2-1.43L88,78.23l0-1.39ZM65.9,98.7l-30,0a41.58,41.58,0,0,1,.36-7.3H66A36.92,36.92,0,0,0,65.9,98.7Zm.56-13.38-29.59,0a33.48,33.48,0,0,1,1.68-6.07H67.91A40.16,40.16,0,0,0,66.46,85.32Zm2.91-9.67h-29A18.22,18.22,0,0,1,44,71.39H72.05A23.23,23.23,0,0,0,69.37,75.65Zm4.44-6.06H46.54a16.73,16.73,0,0,1,5.19-1.66H76.55A11.27,11.27,0,0,0,73.81,69.59Z"/></svg>