<svg id="Layer_1" data-name="Layer 1" xmlns="http://www.w3.org/2000/svg" viewBox="0 0 294.8 170.08"><defs><style>.cls-1{fill-rule:evenodd;}</style></defs><title>oddil</title><path class="cls-1" d="M129,106.12h10.28V59.72H129Z"/><path class="cls-1" d="M178.06,106.16h9.61v-.85q0-6.48,0-13a10.88,10.88,0,0,0-.18-2.06,8.5,8.5,0,0,0-4.77-6.46,11.18,11.18,0,0,0-4.09-1,9,9,0,0,0-7,2,4.47,4.47,0,0,1-.49.31c0-.48,0-2,0-2.32h-9v23.25h9.73V92.93a2.75,2.75,0,0,1,1.06-2.4,3.43,3.43,0,0,1,3.65-.26,2.8,2.8,0,0,1,1.52,2.83c0,.17,0,.34,0,.52,0,3.9,0,7.79,0,11.69Z"/><path class="cls-1" d="M193.87,92.58a6.84,6.84,0,0,0,3.49,3c1.36.57,2.79,1,4.17,1.5.65.24,1.29.49,1.92.78a.85.85,0,0,1,.56.94.93.93,0,0,1-.75.82,5.87,5.87,0,0,1-1.32.15h-9.15v6.53l.34,0c3.31,0,6.62.06,9.92,0a34.31,34.31,0,0,0,4.64-.4,8.13,8.13,0,0,0,4.79-2.45,5.85,5.85,0,0,0-.26-8.45c-.25-.21-.51-.4-.77-.58a21.42,21.42,0,0,0-4.76-2.2q-1.73-.63-3.45-1.32a.89.89,0,0,1-.68-.87.93.93,0,0,1,.75-.82,6.23,6.23,0,0,1,1.59-.27c2.25,0,4.5,0,6.74,0,.22,0,.43,0,.66-.05V82.69h-.76c-2.66,0-5.33,0-8,0a25.13,25.13,0,0,0-2.88.13,11.16,11.16,0,0,0-5,1.78A5.88,5.88,0,0,0,193.87,92.58Z"/><path class="cls-1" d="M146.15,106.18h10.26V82.89H146.15Z"/><path class="cls-1" d="M155.26,73.74a6.86,6.86,0,0,0-7.88,0,3.18,3.18,0,0,0,.19,5.48,6.34,6.34,0,0,0,3.29,1.09,7.1,7.1,0,0,0,4.25-1.13A3.18,3.18,0,0,0,155.26,73.74Z"/><path class="cls-1" d="M214.24,124.11C210.11,120,206,116,201.87,111.89a2.38,2.38,0,0,0-1.87-.76H133.73c-4.86,0-9.72,0-14.58,0a25.5,25.5,0,0,1-9.54-1.8,19.57,19.57,0,0,1-8.73-6.5c-1.63-2.22-2.64-4.63-2.07-7.47a6,6,0,0,1,3.38-4.57,9.67,9.67,0,0,1,4.1-.85l14.58-.17.88,0c0-2.34,0-4.59,0-6.83a2.06,2.06,0,0,0,0-.35h-.81c-2.13,0-4.25,0-6.37,0-2.83-.1-5.68-.17-8.49-.47a6.38,6.38,0,0,1-5.93-5.83,9.79,9.79,0,0,1,.9-5.41A22.07,22.07,0,0,1,108.45,62a33,33,0,0,1,10.86-5.26,83.34,83.34,0,0,1,16.42-2.89q6.79-.57,13.6-.73c4.34-.11,8.69,0,13,.07,3.38.07,6.76.22,10.13.41,3.67.21,7.33.48,11,.76,2.53.2,5,.48,7.58.73l5,.52c-.53-.71-1-1.25-1.36-1.86a4.68,4.68,0,0,0-3.11-2q-6.31-1.59-12.73-2.69c-3.59-.62-7.19-1.24-10.81-1.69-4.43-.56-8.87-1-13.32-1.4-3.21-.28-6.45-.5-9.68-.53-5.5-.07-11-.12-16.49.34a87.08,87.08,0,0,0-15.24,2.46,51.85,51.85,0,0,0-17.23,8A38,38,0,0,0,84.52,69.57a39.76,39.76,0,0,0-4.1,13.28,45.27,45.27,0,0,0,.48,15.53A30.73,30.73,0,0,0,90.21,115,35.61,35.61,0,0,0,106,123.09a59.21,59.21,0,0,0,14.16,1.6q13.62,0,27.24,0,33.21,0,66.42,0h1Zm-81.72-4.35h-.63v-2.22c1,0,1.56-.13,1.56-1.15a1,1,0,0,0-1-1,.88.88,0,0,0-.93,1v6.58H129v-6.21a3.28,3.28,0,0,1,3.56-3.55,3.24,3.24,0,0,1,3.39,3.23A3.17,3.17,0,0,1,132.52,119.76Zm11,3.16h-1.9c-2.41,0-3.56-.88-3.56-3.1v-6.5h2.49v6.28c0,.78.27,1,1.27,1h1.7Zm9.24-3.47a3.65,3.65,0,0,1-7.29,0v-6.13h2.49v6.32a1.16,1.16,0,0,0,2.31,0v-6.32h2.49Zm5,3.47H155V120.7h2.59c.57,0,.93-.17.93-.53,0-1-3.59-1.83-3.59-4.13,0-2,1.47-2.72,3-2.72h2.61v2.22h-2.52c-.32,0-.57.11-.57.4,0,.81,3.73,1.85,3.73,4.1C161.25,121.27,160.92,122.92,157.72,122.92Zm11.92-.32h-2.5v-1.86h2.15c.27,0,.39-.13.39-.3,0-.63-2.47-.4-2.47-2.61a2,2,0,0,1,2.18-1.89h2.18v1.78h-1.75c-.26,0-.46.14-.46.32,0,.53,2.62.67,2.62,2.46C172,121.86,171.11,122.6,169.64,122.6Zm5.57.17a1.4,1.4,0,1,1,1.43-1.4A1.41,1.41,0,0,1,175.21,122.77Zm7.38-4.83c-1.55.06-1.69.39-1.69,1.54v3.12h-2.24v-6.66h1.94v1.11h0c.34-1,1-1.11,2-1.11Zm2.62,4.83a1.4,1.4,0,1,1,1.43-1.4A1.41,1.41,0,0,1,185.21,122.77Zm6.82,0a3.5,3.5,0,1,1,3.51-3.5A3.56,3.56,0,0,1,192,122.77Zm6.81,0a1.4,1.4,0,1,1,1.43-1.4A1.41,1.41,0,0,1,198.84,122.77Z"/><path class="cls-1" d="M192,117.86a1.41,1.41,0,1,0,1.35,1.41A1.37,1.37,0,0,0,192,117.86Z"/></svg>