<svg id="Layer_1" data-name="Layer 1" xmlns="http://www.w3.org/2000/svg" viewBox="0 0 294.8 170.08"><title>oddil</title><path d="M163.19,78.7l2.36-3.33a4.15,4.15,0,0,1,2.14-1.64,16.39,16.39,0,0,1,4.25-.4c3.15,0,5.34.42,6.6,1.25s1.9,2.28,2,4.42L183,75.29A4.31,4.31,0,0,1,184.12,74a4.4,4.4,0,0,1,1.49-.47,26.33,26.33,0,0,1,3.69-.23,19.84,19.84,0,0,1,5,.46,4.61,4.61,0,0,1,2.55,1.63,4.4,4.4,0,0,1,.92,2.77,17.55,17.55,0,0,1-.63,4L192,103.76a8.23,8.23,0,0,0-.31,1.83,1.28,1.28,0,0,0,1.11,1.31l-.14.71h-8.12c-1.19,0-1.78-.45-1.78-1.31A5.47,5.47,0,0,1,183,105l4.79-20a14.39,14.39,0,0,0,.4-2.68c0-1.31-1.16-2-3.47-2a6,6,0,0,0-3.75.92,6.16,6.16,0,0,0-1.78,3.5l-4.55,19a8.23,8.23,0,0,0-.31,1.83,1.28,1.28,0,0,0,1.12,1.31l-.19.71h-7.89c-1.36,0-2-.46-2-1.37a6.35,6.35,0,0,1,.21-1.31l4.63-19a28.56,28.56,0,0,0,.69-3.68c0-1.3-1.1-2-3.27-2s-3.42.34-4.13,1-1.39,2.29-2,4.82l-4.24,17.61a9,9,0,0,0-.28,1.83A1.28,1.28,0,0,0,158,106.9l-.19.71h-8.25c-1.08,0-1.62-.46-1.62-1.37a6,6,0,0,1,.18-1.31l6.62-27.4a10.56,10.56,0,0,0,.27-1.84,1.27,1.27,0,0,0-1.12-1.3l.19-.73h7.57a3.6,3.6,0,0,1,1.79.33A1.16,1.16,0,0,1,164,75.1a5.51,5.51,0,0,1-.18,1.21Z"/><path d="M216,101.35l-3.08,4.6a3.74,3.74,0,0,1-2.09,1.6,16.78,16.78,0,0,1-4.41.39q-4.4,0-6.38-1.61c-1.33-1.09-2-2.83-2-5.27a21.64,21.64,0,0,1,.76-5.27,25.46,25.46,0,0,1,1.91-5.25,9.36,9.36,0,0,1,3.82-4.18,14.2,14.2,0,0,1,6.43-1.19h6.49a4.23,4.23,0,0,0,1.72-.24,1.74,1.74,0,0,0,.82-.93,5.68,5.68,0,0,0,.58-2.5,1.09,1.09,0,0,0-.66-1.12,6.77,6.77,0,0,0-2.49-.3h-8.29c-1.58,0-2.36-.52-2.36-1.59a6.5,6.5,0,0,1,.2-1.38l.86-3.45h14.51a8.6,8.6,0,0,1,5.77,1.69,4.85,4.85,0,0,1,1.74,3.79,15.37,15.37,0,0,1-.53,3.11l-5.15,21.51a8.39,8.39,0,0,0-.32,1.83A1.31,1.31,0,0,0,225,106.9l-.2.71h-8c-1.34,0-2-.39-2-1.14a6.51,6.51,0,0,1,.21-1.19Zm.24-.92,2.33-9.73H214c-2.44,0-4.11.47-5,1.43a7.37,7.37,0,0,0-1.46,2.66,9.93,9.93,0,0,0-.65,3.12,2.11,2.11,0,0,0,.91,2,6.7,6.7,0,0,0,3.17.57Z"/><polygon points="252.37 98.23 276.03 65.29 250.65 90.29 247.2 73.37 232.77 73.37 243.76 96.56 211.44 128.84 230.38 128.84 247.59 104.87 258.87 128.84 252.37 98.23"/><path d="M53.38,100.55,52.3,105.1a3.71,3.71,0,0,1-1,2,3.37,3.37,0,0,1-2.12.5h-4a3.68,3.68,0,0,1-2.23-.53,3.77,3.77,0,0,1-1.11-2L37.45,89H34.26L30.8,103.46a6.78,6.78,0,0,0-.28,1.63,2.1,2.1,0,0,0,.23,1.1,1.81,1.81,0,0,0,.89.59l-.21.81h-8.7c-1.22,0-1.82-.44-1.82-1.32a4.17,4.17,0,0,1,.15-.91l8.32-34.83a7.4,7.4,0,0,0,.28-1.64,1.63,1.63,0,0,0-1.12-1.69l.17-.81H48.18a18.68,18.68,0,0,1,4.23.37,6.32,6.32,0,0,1,2.68,1.29c1.5,1.23,2.25,3.25,2.25,6a17.76,17.76,0,0,1-3.25,10.55,9.82,9.82,0,0,1-3.21,3A14.51,14.51,0,0,1,46,89L49.5,98.9a2.59,2.59,0,0,0,.83,1.31,2.65,2.65,0,0,0,1.55.34ZM35.74,82.89h4.93A8.66,8.66,0,0,0,45.13,82a5.35,5.35,0,0,0,2-2.51,9.28,9.28,0,0,0,.77-3.77,2.79,2.79,0,0,0-1-2.46,6.14,6.14,0,0,0-3.44-.71H38.17Z"/><path d="M76,73.46c4.09,0,7.08.66,8.94,2s2.8,3.38,2.8,6.24a39.78,39.78,0,0,1-1.53,9.2,54.88,54.88,0,0,1-3.31,9.7,10.88,10.88,0,0,1-5.49,5.35,25.15,25.15,0,0,1-10.12,1.67q-5.37,0-8.07-1.6c-2.32-1.34-3.47-3.61-3.47-6.78a41.9,41.9,0,0,1,2-11.14q2-6.86,4.1-9.84A9.93,9.93,0,0,1,67,74.63,29.25,29.25,0,0,1,76,73.46Zm-1.39,6a7.37,7.37,0,0,0-4.12,1A8.35,8.35,0,0,0,67.79,84a42.56,42.56,0,0,0-2.27,7,29.76,29.76,0,0,0-1.09,6.54q0,4,4.68,4a6.79,6.79,0,0,0,4.46-1.37,11,11,0,0,0,2.87-4.76,44.5,44.5,0,0,0,1.78-6.44,30.47,30.47,0,0,0,.86-5.66C79.08,80.73,77.59,79.48,74.62,79.43Z"/><path d="M116.64,74.42l-1,4.1a3.61,3.61,0,0,1-1,2,3.91,3.91,0,0,1-2.31.51h-5.76a7.17,7.17,0,0,0-3.46.62,6.59,6.59,0,0,0-2.1,2.75,33.8,33.8,0,0,0-2.19,6.28,27.16,27.16,0,0,0-1.06,6.11,2.94,2.94,0,0,0,1.34,2.71,8.54,8.54,0,0,0,4.37.83,18.52,18.52,0,0,0,5.33-.61,8.51,8.51,0,0,0,3.53-2.19h.78l-1.32,5.62a4.76,4.76,0,0,1-1.84,3.12q-2.13,1.31-8.79,1.3a26.77,26.77,0,0,1-6.15-.54,7.41,7.41,0,0,1-3.48-1.84,9.44,9.44,0,0,1-2.44-6.93,35.66,35.66,0,0,1,1.7-10,28.39,28.39,0,0,1,3.83-8.58,12.92,12.92,0,0,1,4.81-4.21,18,18,0,0,1,7.12-1.12Z"/><path d="M134.89,86.07h1.68A7.18,7.18,0,0,1,141,87.16a4.16,4.16,0,0,1,1.4,3.48,11.3,11.3,0,0,1-.33,2.47l-2.52,10.74a8.35,8.35,0,0,0-.3,1.78,1.24,1.24,0,0,0,1.07,1.27l-.17.69h-7.47c-1.29,0-1.95-.53-1.95-1.6a7,7,0,0,1,.17-1.32L133.1,95a10.74,10.74,0,0,0,.31-1.93,1.62,1.62,0,0,0-.68-1.51,5,5,0,0,0-2.42-.42h-4.69l-3.08,12.76a9.43,9.43,0,0,0-.28,1.78,1.25,1.25,0,0,0,1.09,1.27l-.18.69h-8c-1,0-1.5-.48-1.5-1.45a7.93,7.93,0,0,1,.27-1.63l8.22-34.39a8.1,8.1,0,0,0,.3-1.77,1.23,1.23,0,0,0-1.09-1.27l.18-.69h7.93a2,2,0,0,1,1.29.32,1.53,1.53,0,0,1,.33,1.13,3.3,3.3,0,0,1-.08.75l-4.22,17.48L134.43,78c.73-.78,1.1-1.37,1.1-1.74s-.35-.73-1-.91l.18-.66h8.76c.9,0,1.35.27,1.35.8a2.08,2.08,0,0,1-.72,1.32Z"/><path d="M29.36,45.05l-.23,1a1.09,1.09,0,0,1-.35.61,1.5,1.5,0,0,1-.75.15,1.54,1.54,0,0,1-.3,0h-.35a2.15,2.15,0,0,0-1.78.59,2.55,2.55,0,0,0-.4.71c-.08.23-.26.92-.56,2.07l-1.32,5.34a3.5,3.5,0,0,0-.11.72c0,.35.24.6.69.7l-.08.3H21.74c-.45,0-.68-.17-.68-.55a3.78,3.78,0,0,1,.12-.64l2.3-9.22a2.59,2.59,0,0,0,.1-.7c0-.37-.22-.61-.67-.71l.07-.31h1.94c.55,0,.83.18.83.56a1.11,1.11,0,0,1-.06.34l-.19.76.41-.59c.07-.11.17-.24.27-.41a1.5,1.5,0,0,1,.58-.57A5,5,0,0,1,28,45.05Z"/><path d="M36.19,55.46A6.87,6.87,0,0,1,35,56.75a3.66,3.66,0,0,1-2.12.43,5.28,5.28,0,0,1-2-.3A2.1,2.1,0,0,1,30,56a2.44,2.44,0,0,1-.36-1.29A8,8,0,0,1,30,52.65a8.93,8.93,0,0,1,.88-2.06A3,3,0,0,1,33,49.11a13.31,13.31,0,0,1,2-.1h1.34a1.93,1.93,0,0,0,1.35-.32,2.08,2.08,0,0,0,.29-.63,3.3,3.3,0,0,0,.13-.82.65.65,0,0,0-.47-.67c-.11,0-.41,0-.91,0H34a1.67,1.67,0,0,1-.76-.11A.46.46,0,0,1,33,46a2.45,2.45,0,0,1,.08-.56l.14-.66h4.45a4.63,4.63,0,0,1,1.32.12,1.42,1.42,0,0,1,.76.44,1.64,1.64,0,0,1,.53,1.3A6.82,6.82,0,0,1,40,48.22l-1.73,7a2.59,2.59,0,0,0-.12.71c0,.35.23.59.68.69l-.08.31H36.89c-.57,0-.87-.17-.87-.53A8.85,8.85,0,0,1,36.19,55.46Zm.21-.8,1-3.93H35.14a7.93,7.93,0,0,0-1.73.13,1.49,1.49,0,0,0-.77.6,4.51,4.51,0,0,0-.56,1.26,4.77,4.77,0,0,0-.24,1.41c0,.83.59,1.24,1.8,1.24A6.06,6.06,0,0,0,36.4,54.66Z"/><path d="M49.56,55.61l-.57.74a2,2,0,0,1-.86.67,5.24,5.24,0,0,1-1.49.16,3.76,3.76,0,0,1-2.42-.63,2.85,2.85,0,0,1-.81-2.2,13.31,13.31,0,0,1,.37-2.81,20.27,20.27,0,0,1,1-3.11,9.45,9.45,0,0,1,.81-1.63,4.19,4.19,0,0,1,.94-1,4.11,4.11,0,0,1,1.67-.72,16.55,16.55,0,0,1,3-.18h1.09l.4-1.71a2.49,2.49,0,0,0,.12-.72c0-.34-.23-.58-.67-.69l.07-.31H54a1.35,1.35,0,0,1,.7.13.44.44,0,0,1,.2.41,4.43,4.43,0,0,1-.14.75l-3.11,12.5a2.79,2.79,0,0,0-.11.71c0,.36.22.6.68.7l-.08.3H50.26c-.56,0-.84-.18-.84-.58A5.26,5.26,0,0,1,49.56,55.61Zm2.26-9H50.71a6.43,6.43,0,0,0-2.79.41,2.46,2.46,0,0,0-1,1.11,13.25,13.25,0,0,0-.89,2.54A13.64,13.64,0,0,0,45.44,54c0,.92.6,1.38,1.81,1.38a3,3,0,0,0,2-.55,5,5,0,0,0,1-2.33Z"/><path d="M61.34,46.07,59,55.28a3.32,3.32,0,0,0-.11.72c0,.35.22.59.68.69l-.08.3H57.76a1.55,1.55,0,0,1-.74-.13.44.44,0,0,1-.21-.42,3.82,3.82,0,0,1,.1-.63l2.29-9.18a3,3,0,0,0,.12-.7c0-.37-.23-.6-.68-.71l.08-.3h1.89c.55,0,.82.18.82.55A2.72,2.72,0,0,1,61.34,46.07ZM62,43.34h-1.2c-.43,0-.66-.13-.66-.41a2.52,2.52,0,0,1,.09-.48l.23-1h1.09c.51,0,.77.14.77.39a2.87,2.87,0,0,1-.07.44Z"/><path d="M70.82,44.7a5.59,5.59,0,0,1,2.8.56,2.22,2.22,0,0,1,.81.9,2.74,2.74,0,0,1,.32,1.29,15.65,15.65,0,0,1-.67,3.78A18.68,18.68,0,0,1,72.69,55c-.81,1.47-2.32,2.21-4.55,2.21-2.56,0-3.83-1-3.83-3a13.23,13.23,0,0,1,.59-3.34,21.69,21.69,0,0,1,1.36-3.68A4,4,0,0,1,68,45.27,6.17,6.17,0,0,1,70.82,44.7Zm-.23,1.82a2.68,2.68,0,0,0-2.4,1A12.43,12.43,0,0,0,67,50.6a14.93,14.93,0,0,0-.68,3.33c0,1,.71,1.43,2.13,1.43a3.41,3.41,0,0,0,1.89-.4,3.24,3.24,0,0,0,1-1.56,28.82,28.82,0,0,0,.92-3.07,11.64,11.64,0,0,0,.42-2.41C72.71,47,72,46.54,70.59,46.52Z"/></svg>