<svg id="Layer_1" data-name="Layer 1" xmlns="http://www.w3.org/2000/svg" viewBox="0 0 566.93 170.08"><defs><style>.cls-1{fill-rule:evenodd;}</style></defs><title>oddil</title><path d="M294.75,67.39,293,72.6c-.82,2.44-2.19,3.66-4.16,3.66h-2q-2.94,0-1.72-3.66l4.25-12.72c.82-2.45,2.2-3.66,4.17-3.66h1.9c2,0,2.54,1.21,1.72,3.66l-1.54,4.61h-3.13L294,60.3c.16-.48.06-.7-.33-.7h-.36c-.38,0-.64.22-.8.7l-4,11.88c-.16.47-.05.7.33.7h.41c.39,0,.64-.23.8-.7l1.6-4.79Z"/><path d="M315.68,76.26h-3.17l2.25-6.73,1.67-13h3.3l-1.18,6.69,3.37-6.69h3L318,69.25Z"/><path d="M344.64,76.26l1.51-9.32L343,76.26h-3.16l6.58-19.7h3.16l-3.09,9.26,4.86-9.26h3.28l-5.31,9.68-1.36,10Z"/><path d="M379.34,56.56l-5.4,16.18h2.28l-1.17,3.52h-5.46l6.59-19.7Z"/><path d="M398.4,76.26h-2q-3,0-1.72-3.66l4.25-12.72c.82-2.45,2.2-3.66,4.16-3.66h2c2,0,2.54,1.21,1.72,3.66L402.56,72.6C401.74,75,400.36,76.26,398.4,76.26Zm4.77-16.66h-.45c-.39,0-.64.22-.8.7l-4,11.88c-.16.47-.06.7.33.7h.45c.39,0,.64-.23.8-.7l4-11.88C403.66,59.82,403.55,59.6,403.17,59.6Z"/><path d="M431.33,69l-1.22,3.63c-.81,2.45-2.19,3.66-4.16,3.66h-1.76c-2,0-2.54-1.21-1.72-3.66l1.4-4.2H427l-1.28,3.83c-.16.48-.06.71.33.71h.29c.39,0,.64-.23.8-.71l.79-2.36a1.15,1.15,0,0,0-.12-1.27l-1.88-2.5c-.68-.88-.7-1.69-.23-3.1l1.05-3.12c.81-2.45,2.19-3.66,4.16-3.66h1.72c2,0,2.53,1.21,1.72,3.66l-1.21,3.6H430l1.09-3.24c.15-.47,0-.7-.34-.7h-.24c-.39,0-.65.23-.8.7l-.62,1.86a1.15,1.15,0,0,0,.11,1.27l1.88,2.5C431.77,66.74,431.82,67.5,431.33,69Z"/><path d="M452.78,76.26h-3.17l6.58-19.7h4.64c2,0,2.54,1.21,1.72,3.66l-1.85,5.54c-.82,2.45-2.2,3.66-4.17,3.66h-1.47Zm6.13-16.33h-.68l-2,6.11h.68c.39,0,.64-.22.8-.7l1.57-4.7C459.4,60.16,459.3,59.93,458.91,59.93Z"/><path d="M482,76.26h-2c-2,0-2.54-1.21-1.72-3.66l4.25-12.72c.82-2.45,2.19-3.66,4.16-3.66h2c2,0,2.53,1.21,1.72,3.66L486.13,72.6C485.31,75.05,483.93,76.26,482,76.26Zm4.78-16.66h-.45c-.39,0-.65.22-.81.7l-4,11.87c-.16.48-.06.71.33.71h.45c.38,0,.64-.23.8-.71l4-11.87C487.23,59.82,487.12,59.6,486.74,59.6Z"/><path d="M515.63,69.47l-2.27,6.79H510.2l2.25-6.76c.16-.48.06-.7-.33-.7h-.79l-2.49,7.46h-3.17l6.58-19.7H517c2,0,2.54,1.21,1.72,3.66L517.43,64a4.21,4.21,0,0,1-2.33,2.93C516,67.28,516.11,68,515.63,69.47ZM515,60h-.77l-1.82,5.46h.77c.38,0,.64-.23.8-.7l1.35-4.06C515.53,60.22,515.43,60,515,60Z"/><path d="M534,76.26l5.4-16.19h-1.92l1.18-3.51h7l-1.18,3.51h-1.92l-5.41,16.19Z"/><path d="M288.46,101.93l-2.37,7c-1.11,3.29-3.29,4.92-6.59,4.92h-3.25c-3.3,0-4.38-1.63-3.27-4.92l5.79-17.13c1.11-3.3,3.29-4.93,6.59-4.93h3.18c3.3,0,4.38,1.63,3.26,4.93L289.7,98h-5.22l1.9-5.64c.22-.65,0-.95-.63-.95h-.6a1.22,1.22,0,0,0-1.27.95l-5.4,16c-.22.64,0,.94.63.94h.68a1.23,1.23,0,0,0,1.27-.94l2.17-6.44Z"/><path d="M298.16,102.55l2.52-7.48h3.72l-6.27,18.56h-3.72l2.63-7.77h-1.86l-2.62,7.77h-3.72l6.28-18.56h3.71l-2.53,7.48Z"/><path d="M338.77,104.5l-3.24,9.13h-5.3l3.23-9.09c.23-.64,0-1-.62-1h-1.32l-3.57,10h-5.3l9.42-26.52H340c3.29,0,4.34,1.63,3.17,4.93l-1.81,5.11a5.69,5.69,0,0,1-3.68,3.94C339.14,101.55,339.46,102.57,338.77,104.5ZM337,91.73h-1.29l-2.61,7.35h1.29a1.25,1.25,0,0,0,1.28-.94l1.94-5.46C337.86,92,337.66,91.73,337,91.73Z"/><path d="M368.93,113.86h-3.42c-3.29,0-4.34-1.63-3.17-4.92l6.08-17.13c1.17-3.3,3.38-4.93,6.68-4.93h3.41c3.3,0,4.35,1.63,3.17,4.93l-6.08,17.13C374.43,112.23,372.22,113.86,368.93,113.86Zm6.64-22.43h-.76a1.25,1.25,0,0,0-1.28.95l-5.68,16c-.23.64,0,.94.61.94h.75a1.25,1.25,0,0,0,1.29-.94l5.68-16C376.41,91.73,376.21,91.43,375.57,91.43Z"/><path d="M405.7,113.86h-5.3l9.42-26.52h7.77c3.29,0,4.34,1.63,3.17,4.92l-2.65,7.47c-1.17,3.29-3.38,4.92-6.68,4.92H409Zm8.95-22h-1.14l-2.92,8.23h1.13a1.26,1.26,0,0,0,1.29-1l2.25-6.33C415.49,92.19,415.29,91.88,414.65,91.88Z"/><path d="M444.78,113.86h-5.31l3.22-9.06,1.74-17.46H450l-1.43,9,5.1-9h5l-10.54,17.08Z"/><path d="M484.73,113.86l1.88-14.44-2.38,6.75-2.72,7.69h-4.59l9.66-26.52H492l-1.71,13.14L493,92.83l2-5.49h4.58l-9.65,26.52Z"/><path d="M537.06,87.34l-1.68,4.73h-4.55l-2.11,6h4.35l-1.68,4.74H527l-2.26,6.36h4.62l-1.68,4.74h-9.93l9.43-26.52ZM534.5,86h-3.79l-1.34-3.9h3.07l1.09,1.29,2-1.29h3.07Z"/><path class="cls-1" d="M195,65.61a2.58,2.58,0,0,0-.52-.79,2.31,2.31,0,0,0-.79-.52,2,2,0,0,0-.83-.19h-.13a2.9,2.9,0,0,0-.92.16,2.28,2.28,0,0,0-.8.55,2.47,2.47,0,0,0-.54.79,2.54,2.54,0,0,0-.2,1,2.29,2.29,0,0,0,.2.93,2.32,2.32,0,0,0,.54.79,2.28,2.28,0,0,0,.8.55,2.37,2.37,0,0,0,.92.19l.13,0a2.37,2.37,0,0,0,.8-.15,2.69,2.69,0,0,0,.82-.55,3,3,0,0,0,.52-.79,2.45,2.45,0,0,0,.19-.93,2.49,2.49,0,0,0-.19-1Zm-.26,1.79a2.32,2.32,0,0,1-.45.7,2.89,2.89,0,0,1-.73.48,2.31,2.31,0,0,1-.7.16h-.13a2.31,2.31,0,0,1-.83-.16,2.89,2.89,0,0,1-.7-.48,2.09,2.09,0,0,1-.48-.7,1.89,1.89,0,0,1-.16-.83,1.81,1.81,0,0,1,.16-.83,2.26,2.26,0,0,1,.48-.73,3.63,3.63,0,0,1,.7-.48,2.31,2.31,0,0,1,.83-.16h.13a2.34,2.34,0,0,1,.7.19,1.91,1.91,0,0,1,1.18,1.15,2,2,0,0,1,.16.86,1.79,1.79,0,0,1-.16.83ZM194,65.9a.66.66,0,0,1-.2.48.8.8,0,0,1-.48.25l.64,1.31h-.51l-.57-1.24h-.67v1.24h-.42V65.1h1.09a1.52,1.52,0,0,1,.83.19.68.68,0,0,1,.29.61Zm-.64.38a.83.83,0,0,1-.48.13h-.67v-1h.67a1.16,1.16,0,0,1,.48.13.48.48,0,0,1,.19.41.37.37,0,0,1-.19.35ZM175.81,80.07V74.13h19V94.2h-19V84.73s-8,.19-10.75.19c-17.33,0-29.87-1.54-29.87-10.28s10.18-10.72,27.89-10.72c12,0,20.77.64,20.77.64l-.77,1.56s-.28,1.66-2.61,1.79c0,0-6.35-.19-13.47-.19-5.55,0-16.68.22-16.78,6.6-.06,4.92,8.49,5.75,17.07,5.75ZM52.65,84.82C68.54,84.66,80,83.42,80,74.87S69.88,64.4,52.65,64.08c-2.26,0-4.62-.06-7.11-.06H21.26V94.33h19V84.85h3.95c2.9,0,5.71,0,8.42,0ZM40.28,80.39V67.91h3.66c3.1,0,6.07,0,8.71.19C59.93,68.52,65,69.89,65,74.16s-4.5,5.62-12.35,6c-2.52.16-5.39.2-8.55.2ZM108.42,85,79.17,84.5l1.31-2.17a3.11,3.11,0,0,1,3.15-1.94h17.68c6.41,0,10.47.22,10.47-1.66,0-1.28-1.79-1.41-4.7-1.69-10.52-1-24.56.06-24.43-7.09.12-5.61,9.76-6.28,24-6l25.2.7L131,66.19s-.61,1.75-3.16,1.72H111.07c-3.16,0-8-.13-8,1.79,0,1.08,2.43,1.34,6.13,1.66,10.24.89,23.9,1.21,23.87,7.84,0,5.65-10.53,6.07-24.64,5.81Zm31.94,4H43.12V94.2l20.73,13.91H97.26l11,0h44L173,94.2V89H140.36ZM64.68,103.2a2.63,2.63,0,0,1-1.94-.51l-14-9.64H80.57l-5.14,3.42-9.34,6.22a3.6,3.6,0,0,1-1.41.51Zm32.58.76h-27l5.13-3.41,9.38-6.25a3.22,3.22,0,0,1,1.41-.51,2.79,2.79,0,0,1,2,.51l9.09,6.31,4.85,3.35Zm11-.76a2.57,2.57,0,0,1-1.92-.51L97.26,96.4l-4.85-3.35h31.78l-5.4,3.57-9.12,6.07a3.36,3.36,0,0,1-1.4.51Zm32.09.76h4.91l-4.91-3.38L131.3,94.3a2.77,2.77,0,0,0-2-.51,3.21,3.21,0,0,0-1.4.51l-9.16,6.09L113.43,104h26.93Zm26.93-10.91H135.45l4.91,3.38,9.06,6.26a2.64,2.64,0,0,0,2,.51,3.52,3.52,0,0,0,1.4-.51Z"/></svg>