<svg id="Layer_1" data-name="Layer 1" xmlns="http://www.w3.org/2000/svg" viewBox="0 0 294.8 170.08"><defs><style>.cls-1{fill-rule:evenodd;}</style></defs><path class="cls-1" d="M55.51,72.71H85.28a2.32,2.32,0,0,0,2.62-2.63V58.82a2.32,2.32,0,0,0-2.62-2.63H55.51Zm76.81-11.23h45.61q8.31,0,8.32,8.32v.37q0,8.24-8.32,8.23H108.48l5.7-5.69h48.26c1.75,0,2.62-.84,2.62-2.54V69.8a2.32,2.32,0,0,0-2.62-2.63H116.8q-8.31,0-8.32-8.32v0q0-8.31,8.32-8.32h69.48l-5.69,5.69H132.32a2.33,2.33,0,0,0-2.63,2.63v0A2.32,2.32,0,0,0,132.32,61.48Zm107,16.92h-41q-8.32,0-8.32-8.32V58.82q0-8.31,8.32-8.32h52.77l-5.69,5.69H209.64A2.32,2.32,0,0,0,207,58.82V70.08a2.32,2.32,0,0,0,2.63,2.63h29.63V64.45h23.64V91.16H239.27Zm-183.76,0V91.21H31.89V50.5h64.7q8.32,0,8.32,8.32V70.08q0,8.33-8.32,8.32Z"/><path d="M259.73,53.89c0,.42-.24.53-.59.53H258l-.05-.06v-.94l.05-.06h1.13C259.49,53.36,259.73,53.48,259.73,53.89Zm.82,0c0-.82-.59-1.24-1.41-1.24h-1.95l-.06.06v4l.06.06h.71l.06-.06V55.19l.05-.06h.6l.11.06,1.18,1.54.12.06h.36l.06-.06v-.59l-.77-1v-.06A1.17,1.17,0,0,0,260.55,53.89Z"/><path class="cls-1" d="M258.71,51.54a3.25,3.25,0,1,1-3.24,3.25A3.25,3.25,0,0,1,258.71,51.54Zm0-1a4.21,4.21,0,1,1-4.2,4.21A4.21,4.21,0,0,1,258.71,50.58Z"/><path class="cls-1" d="M182.56,91.16l21.65,21.64,21.64-21.64Zm-56.83,0,21.64,21.64L169,91.16Zm-56.83,0L90.54,112.8l21.65-21.64ZM97.32,114H140.6L119,92.32Zm78.47-21.65L154.15,114h43.28ZM61,85.55H233.79v5.61l-28.42,28.42h-116L61,91.16Z"/></svg>