<svg id="Layer_1" data-name="Layer 1" xmlns="http://www.w3.org/2000/svg" viewBox="0 0 294.8 170.08"><title>oddil</title><polygon points="86.42 131.89 102.06 134.65 102.06 129.13 86.42 131.89"/><path d="M123.09,69.3c1.11-1.1-1.83-2-1.69-.1C121.51,70.55,122.85,69.54,123.09,69.3Z"/><path d="M127.78,64.06a6.21,6.21,0,0,0,3-1.85c2.21-3.15,4-6.57,3.54-6.51s-2.49,3.55-4,5.4a13.06,13.06,0,0,1-2.63,2.34C126.83,63.87,126.87,64.29,127.78,64.06Z"/><path d="M152,35.65c-1.64-.15-3.27-.23-4.88-.22a47.56,47.56,0,0,0-47,43,47,47,0,0,0,1.16,15.86,1.16,1.16,0,0,0,0,.18c.19.76.4,1.52.63,2.26L102,97c.22.71.46,1.42.72,2.12a1.55,1.55,0,0,0,.08.23h0c.13.35.25.71.39,1.06l1.81-.32c-.14-.35-.26-.71-.39-1.06l88.5-15.6c0,.37,0,.75,0,1.13l1.81-.33c0-.37,0-.75,0-1.12h0A47.54,47.54,0,0,0,152,35.65ZM120.4,58.79c3.89-6.92,11.82-10.73,19.66-12.56a30.47,30.47,0,0,1,5.61-.86c3.56-.18,3.68-.33.46,1a25.45,25.45,0,0,0-6.83,4.2c-2.18,1.81-1.38,1.62.75.52,2.42-1.25,6.7-3.25,10.77-3.42,3.33-.15,2.93-.12.22.78a30.58,30.58,0,0,0-6.76,3.21c-.59.42-5.5,2.87,1.78,1.38a65.91,65.91,0,0,1,9.9-1c3.6-.05,5,0,.12,1.33-8.45,2.3-16.56,3-23.38,7.58-.84.57-1.08,1.73-1.81,2.33-1.33,1.08-2.06.87-2,1.62,0,1.18.26,2.29-.38,3.13-1.76-2.21-9.19-4.9-9.17-5.43A11.18,11.18,0,0,1,120.4,58.79Zm13.09,3.41c1.94.47,2.85,3.44,1.06,4.67a2.85,2.85,0,0,1-3.72-.56c-.56-.78-.57-2.07.13-1a2,2,0,0,0,2.95.56C135.88,64.23,132,61.85,133.49,62.2Zm-14.05,2.2a46.89,46.89,0,0,1,8.34,4.1c.29.41-1,0-1.51.21-1,.32-2.1.82-3.29,1.29a1.65,1.65,0,0,1-2.06-.31A9.74,9.74,0,0,0,118,67.53C117.72,65.76,118.7,64.31,119.44,64.4Zm.38,17.72c-4.28-4.12-6.31-10.54-2.5-13.91a6,6,0,0,1,2.06,1.45,5.74,5.74,0,0,0-2,3.24,6.46,6.46,0,0,0,0,4,15,15,0,0,0,2.42,4.55C120.61,82.61,121,83.27,119.82,82.12Zm1.38-4c-.33.93-.09,2.92-.87,1.44-1.48-2.8-1.14-4.6,0-6.26.93-1.39,3-1.07,4.1-1.09,4.49,0,.19-1.14,8,.15,3.54.59,3.64.86,0,.69a20.24,20.24,0,0,0-6.74.7A7.12,7.12,0,0,0,121.2,78.13ZM133,78a10.18,10.18,0,0,1-1.21,3.8c-.5.79-2.49,2.74-1,.53a12.54,12.54,0,0,0,1.78-4.25C132.75,77,133.16,76.75,133,78Zm-6.37-3.64c3.32,1,4.28,2.23,4.8,5.24.08.42-.75,1.71-.86,1.17-.3-1.53-.42-3.2-1.31-4.41A6.66,6.66,0,0,0,126.65,74.36Zm3,14.17c-.79-2,.26-3.81,2.3-5.5.55-.46.53-.11.07.51-1.16,1.6-2,2.44-2.12,4.8C129.83,89,129.79,89,129.61,88.53Zm4.23,2.65c-.91,1.09-1.78-2-2.53-4.3-.45-1.41-.06-1.66.54-.15.38,1,.83,2.81,1.23,3.59.24.46.47.68.48-.23,0-2.24-.39-3.77-.17-5.7.25-2.23,1.15-3.52,2.14-5.41a8.38,8.38,0,0,0,.94-4.21,5.17,5.17,0,0,1,.32-2.22c.25-.73.7-1,.41.09a6.52,6.52,0,0,0-.09,2.4,8.59,8.59,0,0,1-1,4.09,28.17,28.17,0,0,0-1.78,4.08C133.43,86,134.46,90.45,133.84,91.18Zm.87-4.87c-.14-4,3.28-7.48,4.74-8.2,1.63-.8,1-.46.15.61-2.32,3-4.3,5.19-4.49,8.94C135,90.64,134.74,87.31,134.71,86.31Zm6.9-1c-.64-.63-2.26-2-2.87-2.51-.11-.09.9-1.18,1-1a14.76,14.76,0,0,1,2.43,3.3C142.66,86.43,142.09,85.84,141.61,85.36Zm5.68-2.11c-2.13-.69-4.14-1.78-6.61-2.47-.32-.09,1.42-1.72,1.89-1.51a22.2,22.2,0,0,1,5.34,3.48C149.09,83.77,148.69,83.7,147.29,83.25Zm4.32-2.87a24.62,24.62,0,0,0-8.19-1.88c-.45,0,1.53-2,2.27-1.85a22.78,22.78,0,0,1,6.51,3.24C154.26,81.34,153.5,81.12,151.61,80.38Zm26.29,3.23c-3-4.51-10.81-8.24-15.82-9.51-.79-.19-1.58-.07-1,.26a64.38,64.38,0,0,1,6.35,4c3.61,2.79.17.88-2.32-.25s-5.5-2.57-7.78-3.34c-2.74-.92,4.14,3.67,4.29,4.1-5.34-2.28-8.32-3.6-12.31-3.63-2.12,0-1.13-.31-.33-.77,4.89-2.85,12.29-4,17.17-1.93,4.62,1.92,9.32,4.84,12.37,10.91C180.42,87.31,179.4,85.85,177.9,83.61Zm1.88-3.42c-3.22-4-7.67-6.67-13.1-9-5.87-2.55-13.21-.87-19.06,1.6a56.9,56.9,0,0,0-6.86,3.41c-2.12,1.26-2.67.56-.81-.77,2.13-1.52,1.86-2.52-.35-1.84-.84.26-1-.1-.27-.65,2.8-2,2.67-2.2-.41-1.1-1.07.38-1,0-.25-.73,1.7-1.64,3.48-2.75-.43-1.54-3.34,1-4.31,1-6.82-.05-.91-.4-1.57,0-1.78-.19s.93-.73,1.56-.52a5.49,5.49,0,0,0,4.24.06,5.36,5.36,0,0,0,3.15-5.42c-.32-3.87.88-1.19,4.67-3.52,3.23-2,4.92-2.37,8.83-3.08,2.48-.45,2.67-.18.15.72-4.8,1.73-6.81,2.31-10.46,5.86-1.2,1.17-.35,1.44,1.59.24a33.09,33.09,0,0,1,9.34-4.18c2.07-.66,2.39-.19.32.74a39.71,39.71,0,0,0-7.63,4.53c-3.24,2.51-3.61,3.61.74,1.37,5-2.57,6.05-3.35,10.53-4.49,4.31-1.09,4.7-.34.28,1.06-4.63,1.46-8.37,4.11-12.57,7.2-1.57,1.15-1.29,2,.66,1,5.36-2.74,13.12-6.69,19-7.2,6.71-.58,3.44,1.29.57,2-2.43.61,2.11,2.92,3,3.33,7.18,3.35,11,7.6,12.81,10.72C182.46,83.18,181.69,82.6,179.78,80.19Z"/><path d="M154.48,128.32c-.63.12-1-.16-1-.75a1.45,1.45,0,0,1,.27-.84c.75.19,1.6.16,1.61.73s-.41.78-.89.86m.19-4.07c.47-.08.75.14.75.61a1.49,1.49,0,0,1-.36.89c-.6-.11-1.15-.21-1.15-.7a.83.83,0,0,1,.76-.8m1.09,1.66a1.81,1.81,0,0,0,.66-1.32c0-.89-.69-1.29-1.86-1.08a2.1,2.1,0,0,0-1.9,1.95,1.14,1.14,0,0,0,.49,1,2.17,2.17,0,0,0-.69,1.45c0,1,.8,1.44,2.11,1.21s2.13-1,2.13-2a1.17,1.17,0,0,0-.94-1.2m-4,2.66-2.42.45c1.48-1.15,2.37-2.2,2.37-3.3s-.77-1.58-2.12-1.34a9.33,9.33,0,0,0-1.8.54l.13.84a5.88,5.88,0,0,1,1.17-.33c.82-.15,1.25.09,1.25.78,0,.88-.86,1.83-2.55,3.28v.75l4-.7Zm-7.41-1.49a1,1,0,0,1,.76-1.12c.5-.09.86.44.91,1.56a2.17,2.17,0,0,1-.82.34c-.52.09-.85-.14-.85-.78m.74-1.91a2.23,2.23,0,0,0-2,2.22c0,1,.7,1.51,1.81,1.31a3.3,3.3,0,0,0,1.07-.38,1.78,1.78,0,0,1-1.54,1.67,3.76,3.76,0,0,1-.91.06l-.17.89a4.07,4.07,0,0,0,1.31-.06,3.25,3.25,0,0,0,2.66-3.43c0-1.73-.86-2.52-2.23-2.28m-2.5,5.2-1.29.1v-4.53l-.09-.08h0l-2.64.67v.75l1.43-.21v3.63l-1.43.38v.78l4-.71Z"/><path d="M132.1,112.56c0,.89.65,1.28,1.68,1.1a3.42,3.42,0,0,0,1.23-.48v-2.34l-1.44.26C132.58,111.27,132.1,111.74,132.1,112.56Z"/><path d="M86.39,103.41v27.33l122-21.51V81.89ZM118,118.34c-2.27.4-3.41-.67-4.09-3.54l-.38-1.44-1.33.24v3.49l1.05.08V119l-5.28.93V118.1l1.08-.45v-9l-1.08-.07v-1.84l5.38-1v1.84l-1.15.48v3.6l1.55-.28,1.94-4-1,0v-1.82l5.21-.93v1.78l-1.28.51-2.83,5.21.73,1.46c1,1.84,1.56,2.56,2.73,2.35a4.71,4.71,0,0,0,.56-.15l.14,1.9A10.53,10.53,0,0,1,118,118.34Zm10.2-9.64-.21.23a7.38,7.38,0,0,0-2.94.78v5.08l1.33.07v1.78l-5.35.94V115.8l1-.43v-6.08l-1-.06v-1.78l3.36-.59.47,1.26A5.43,5.43,0,0,1,128,106l.2.18Zm10.91,5.69a8.49,8.49,0,0,1-1.8.55c-1,.17-1.66,0-2-.49a4.9,4.9,0,0,1-2.57,1.3c-2.11.37-3.56-.65-3.56-2.57s1.27-3.07,3.53-3.47l2.29-.4V109c0-1.24-.76-1.77-2.19-1.52a15.63,15.63,0,0,0-2.76.84l-.31-2a17.41,17.41,0,0,1,4.26-1.4c2.6-.46,4,.43,4,2.77v4.41c0,.5.23.69.72.6a2,2,0,0,0,.44-.11ZM151,112.31l-5,.88v-1.78l1-.45v-4.87c0-.73-.42-1.06-1.22-.92a4.39,4.39,0,0,0-1.57.63v5.67l1,.07v1.78l-5,.89v-1.78l1-.43v-9.75l-1-.06v-1.78l3.72-.89.28.16,0,4.3a6.13,6.13,0,0,1,2.88-1.35c1.85-.32,2.9.49,2.9,2.23v5.6l1,.07Zm11.42-2-3.12.55-.54-.76a6.21,6.21,0,0,1-3.15,1.63c-1.87.33-2.88-.48-2.88-2.28l0-5.53-1-.07v-1.78l3.79-.67.23.19v6.92c0,.71.44,1.06,1.22.92a3.68,3.68,0,0,0,1.52-.71V103l-1-.13v-1.78l3.79-.67.23.19v7.91h1Zm6.16-1.09-5,.89v-1.78l1-.43V98.14l-1-.07V96.29l3.79-.89.23.18v11.78l1,.07Zm6.14-1.08-5,.89v-1.79l1-.42v-6.08l-1-.08V98.86l3.8-.65.22.19v7.88l1,.07Zm-1.91-11L171,96.64l1.55-4.26,2.57.72Zm12,9.42c-2,.35-3-.33-3.58-3.4l-.12-.65-1.28.23v2.44l1,.07v1.78l-5,.89v-1.78l1-.43V96l-1-.07V94.13l3.8-.89.22.18v7.48l1.28-.22,1.27-2.13-1.06.07V96.85l5-.9v1.77l-1.12.37-2.29,3.13.33.71c.86,1.82,1.75,2.57,3,2.36l.21-.06.1,1.82A8,8,0,0,1,184.76,106.58Z"/></svg>