<svg id="Layer_1" data-name="Layer 1" xmlns="http://www.w3.org/2000/svg" viewBox="0 0 294.8 170.08"><title>oddil</title><path d="M233.44,76.25a20.79,20.79,0,0,0-16.33-12,28.28,28.28,0,0,0-5.67-.31,30.21,30.21,0,0,0-13.3,3.41,17.45,17.45,0,0,0-8.46,10.82,20.51,20.51,0,0,0-.18,11,16.2,16.2,0,0,0,1.69,4.08A20.17,20.17,0,0,0,201,101.8a28.75,28.75,0,0,0,9.82,2.43,27.68,27.68,0,0,0,16.39-4,15.19,15.19,0,0,0,5.35-5.84h0A21.55,21.55,0,0,0,233.44,76.25ZM221.57,89.61a13.21,13.21,0,0,1-2.65,7,6.12,6.12,0,0,1-1.31,1.28,8.27,8.27,0,0,1-4.22,1.59,7.06,7.06,0,0,1-5.65-1.81A15.29,15.29,0,0,1,204.25,92a27.24,27.24,0,0,1-.16-18.3,8.46,8.46,0,0,1,.48-1.17A7.45,7.45,0,0,1,208.65,69a7.06,7.06,0,0,1,6,.89,9.38,9.38,0,0,1,1.66,1.41,11.79,11.79,0,0,1,1.82,2.52A28.25,28.25,0,0,1,221.57,89.61Z"/><path d="M156.79,102.75l-.57-.91a10.56,10.56,0,0,1-3.63-.84,5.13,5.13,0,0,1-1.49-1A4.27,4.27,0,0,1,150,97.55a9.23,9.23,0,0,1-.08-1.18V72.08l9.19,23.38,12.46-23.38v30.67h17.84l-.48-.83a11.3,11.3,0,0,1-2.65-.44,3.55,3.55,0,0,1-1-.45,2.06,2.06,0,0,1-.63-.65,4.5,4.5,0,0,1-.4-.93,14.38,14.38,0,0,1-.54-4V64.77H169.05l-7,13.65-5-13.65H138l.74,1a4.89,4.89,0,0,1,2.92,2.09,6.59,6.59,0,0,1,1.15,3.72v31.15Z"/><path d="M133.19,102.75l4.21-10.3L136,91.34q-1.22,1.84-2.57,3.58a10.2,10.2,0,0,1-1.53,1.62A12.5,12.5,0,0,1,127.31,99a18.4,18.4,0,0,1-4.91.42l-3.1-.08a2.44,2.44,0,0,1-2-1.1,4.94,4.94,0,0,1-.78-2.14,7.85,7.85,0,0,1-.09-1.19V64.77h-16l.45,1a4.54,4.54,0,0,1,3.18,3.16,6.27,6.27,0,0,1,.27,1.82v32Z"/><path d="M94.91,102.75l3.64-9.82-1.14-.4a16,16,0,0,1-17,6.51,5.26,5.26,0,0,1-1.21-.42,5.12,5.12,0,0,1-1.89-1.69,5.52,5.52,0,0,1-.75-2.6q0-.6,0-1.2V85.34h8.62a29.18,29.18,0,0,0,3-.09A4,4,0,0,0,89.21,85a1.65,1.65,0,0,0,1-1.11,3.38,3.38,0,0,0,.14-.76v-5l-6.57,0a7.44,7.44,0,0,0-2.15.35,3.09,3.09,0,0,0-1.37,1c-.2.24-.42.47-.64.69a4.82,4.82,0,0,1-1.31.82,3.75,3.75,0,0,1-1.15.19H76.5V72.88a4.8,4.8,0,0,1,1.34-3.49A5,5,0,0,1,81.42,68a17.64,17.64,0,0,1,11.7,4.47l2.36,2.07L97,74.1l-3.25-9.33H60.94l0,1.48a4.27,4.27,0,0,1,3.21,3.25,7.86,7.86,0,0,1,.21,1.81v31.44Z"/><path d="M249.68,53.18a15.94,15.94,0,0,0-11.75-5.56c-.42,0-.84,0-1.25,0H41.11v57.36A22.38,22.38,0,0,0,43,114.59a13.05,13.05,0,0,0,8.78,7.14,23.08,23.08,0,0,0,6.19.76h94v-4.21H58A15.25,15.25,0,0,1,51.36,117a9.57,9.57,0,0,1-4.91-5.55,21.52,21.52,0,0,1-1.16-7.59V51.79H236.68a12.28,12.28,0,0,1,8.26,2.84,13.57,13.57,0,0,1,4.2,7.93,22,22,0,0,1,.34,3.89v51.83H235v4.21h18.73v-57A19,19,0,0,0,249.68,53.18Z"/><path d="M238.6,68.2a5.82,5.82,0,1,0-5.82-5.82A5.81,5.81,0,0,0,238.6,68.2Zm0-10.74a4.92,4.92,0,1,1-4.92,4.92A4.92,4.92,0,0,1,238.6,57.46Z"/><path d="M237.42,63h1.4a.75.75,0,0,1,1,.88,8.63,8.63,0,0,0,0,1,2,2,0,0,0,.12.58h1.45v-.18a.35.35,0,0,1-.25-.26,2.53,2.53,0,0,1-.06-.62v-.55A2,2,0,0,0,241,63a1,1,0,0,0-.65-.55,1.47,1.47,0,0,0,.72-.58,1.78,1.78,0,0,0-.2-2.15,2,2,0,0,0-1.5-.56h-3.19v6.29h1.28Zm0-2.75h1.67a.88.88,0,0,1,.71.27.81.81,0,0,1,.19.54.94.94,0,0,1-.21.65,1,1,0,0,1-.72.23h-1.64Z"/><path d="M161.84,113.32a4.75,4.75,0,0,0-5,4.57,4.48,4.48,0,0,0,4.81,4.46c1.59,0,4.07-1,4.07-2.29,0-.33-.31-.86-.68-.86s-1,.77-2.35.77c-.83,0-2-.72-2-1.58,0-.29.28-.24.47-.24h3.83c.56,0,1.09-.15,1.09-1.29A4,4,0,0,0,161.84,113.32Zm-.1,3.18c-.46,0-1.06.14-1.06-.48a1.15,1.15,0,0,1,1.06-1.14,1,1,0,0,1,1,1.1C162.78,116.6,162.21,116.5,161.74,116.5Z"/><path d="M172.69,120.18a4.84,4.84,0,0,1-.07-1.15v-3.34c0-2.46.23-4.35.23-4.74s-.14-.9-.74-.9c-.25,0-4.84.36-4.84,1.86,0,1,1,.53,1.31,1.8a16.19,16.19,0,0,1,.12,2.74,19.16,19.16,0,0,1-.23,3.69c-.21.64-1,.42-1,1,0,1.22,2.47,1.13,3.27,1.13s2.91.09,2.91-1.06C173.68,120.51,172.88,120.8,172.69,120.18Z"/><path d="M179.81,113.32a4.75,4.75,0,0,0-4.95,4.57,4.48,4.48,0,0,0,4.81,4.46c1.59,0,4.07-1,4.07-2.29,0-.33-.31-.86-.68-.86s-1,.77-2.35.77c-.83,0-2-.72-2-1.58,0-.29.28-.24.47-.24H183c.56,0,1.09-.15,1.09-1.29A4,4,0,0,0,179.81,113.32Zm-.1,3.18c-.46,0-1.06.14-1.06-.48a1.15,1.15,0,0,1,1.06-1.14,1,1,0,0,1,1,1.1C180.75,116.6,180.18,116.5,179.71,116.5Z"/><path d="M196.9,119.44c-.33-.4-2.4-2.87-2.4-3.3,0-.21.69-.55.87-.64,1-.63,1.71-.27,1.71-1,0-1.06-1.93-1.08-2.65-1.08s-2.41,0-2.41.95c0,.34.35.48.35.72s-1.13.84-1.41.84c-.43,0-.43-.43-.39-1.53l.09-3.64c0-.38,0-.66-.5-.66-.93,0-4.92.85-4.92,2,0,1,1.36,0,1.36,1.44V116c0,.76-.09,2.39-.14,3.59-.05,1.45-1,.85-1,1.67,0,1.14,1.64,1.08,3.09,1.08,2.75,0,2.87-.7,2.87-1.18,0-.81-.77-.3-.72-1.82,0-.11,0-.49.18-.49s.6.59.67.69l1.64,2.05c.42.53.51.56,1.21.56h2.49c1.36,0,1.76-.46,1.76-1C198.66,120.39,197.69,120.4,196.9,119.44Z"/><path d="M207.22,119.42c-.32,0-.64.4-1.18.4s-1-.28-1-1.43v-2.56c0-.62,0-.64.65-.64h1.22c.68,0,.81-.07.81-1,0-.77,0-.82-.76-.82h-1.24c-.45,0-.58,0-.63-.14a5.06,5.06,0,0,1-.05-1.27c0-.79,0-.72-.74-.72-.53,0-.52,0-.92.19l-4,2.49c-.21.14-.16.33-.16.57,0,.39,0,.56.09.68s.31.07.77.07a2.37,2.37,0,0,1,.69,0c.09.05.09.17.09.48v3.54a3,3,0,0,0,3.16,3.12c1.78,0,3.79-1,3.79-2.14C207.82,119.9,207.57,119.42,207.22,119.42Z"/><path d="M216.46,113.37c-1.52,0-1.78,1.36-2.21,1.36s-.28-.4-.3-.6c-.07-.59-.08-.76-.75-.76-.16,0-4.29.38-4.29,1.74,0,1,1.09.1,1.09,1.79v1a8.36,8.36,0,0,1-.19,1.89c-.19.6-1,.6-1,1.32,0,1.19,2.4,1.15,3.21,1.15,1.94,0,3.5-.08,3.5-1.17s-1.34-.56-1.45-1.32a14.91,14.91,0,0,1-.14-1.89c0-.31-.09-1.46.4-1.46s.78,1,1.93,1a2.12,2.12,0,0,0,2.16-2.06A1.89,1.89,0,0,0,216.46,113.37Z"/><path d="M225.22,113.32c-2.91,0-5.68,1.74-5.68,4.81,0,2.72,2.23,4.22,4.84,4.22s5.69-1.72,5.69-4.54A4.63,4.63,0,0,0,225.22,113.32Zm0,6.86c-1.22-.07-1.54-2.72-1.61-3.8a.91.91,0,0,1,.86-1c1.2,0,1.56,3,1.56,3.76C226,119.66,225.88,120.21,225.21,120.18Z"/></svg>