<svg id="Layer_1" data-name="Layer 1" xmlns="http://www.w3.org/2000/svg" viewBox="0 0 294.8 170.08"><defs><style>.cls-1{fill-rule:evenodd;}</style></defs><title>oddil</title><polygon points="223.25 91.21 217.67 91.21 226.41 78.79 235.56 78.79 223.25 91.21"/><path d="M206.72,44.59a2.09,2.09,0,0,0,1.67.75,2.28,2.28,0,0,0,2.27-2.25,2.19,2.19,0,0,0-.59-1.51,2.06,2.06,0,0,0-1.62-.75,2.27,2.27,0,0,0-1.66.65,2.28,2.28,0,0,0-.07,3.11"/><path d="M266.88,92.85c-.83,1.7-3.34,7.53-5.38,5.53-2.71-2.7-3.18-12-12-4.67-1.75,1.45-9.07,8.79-8.06,6.66h0a46.2,46.2,0,0,0,3-6.59c1.28-5.15-4.09-5.14-7.66-1.62-2.44,2.43-13.24,15.83-16.87,14-2.33-1.2-.93-8.06-3.22-8.88s-3.69,1-4.94,2.24a47.79,47.79,0,0,1-8,7.6c-10.94,7.94-13.1,5-13,.48,5.52-5.43,17.4-20.45,18.45-29.32.66-5.71-4.71-4.36-8.25-1.44S186.85,92.56,183,108c-9.6,9.46-22,12.17-25.81,12.17-1.31,0-1.3-1.06-.29-2.23,6.26-7.35,20.4-22.23,24-27.64,12.83-19.19-31.93-9-35.76-6.54l7.15,7.16c6.28-7.07,27.9-9,24.34-3.76-1.86,3.67-30.09,29.4-32.86,32.85-3.2,4-1.45,8.93,3.26,9.29,14.56,1.11,26.62-8.65,35.52-14.88.05,5.56,13.18,7,27.19-7.38,5.89,13.76,20.2-1.69,23.75-5.52-.44.48-1.73,6.42-1.73,7.76,0,2.56,2.29,3.52,5.53,1.16,3.91-2.82,7.67-6.61,11-9.37,5.42-4.45,3.73,1,9.61,3.73,4,1.88,7.28-1,9.92-7.2V91c-.28.49-.61,1.11-1,1.9m-68.2-4.95c1.47-1.41,3.35-.46.37,3.39-1,1.34-4.4,5.48-7.19,8.74,1.8-4.3,3.67-9.08,6.82-12.13"/><path d="M144.51,52.7l.24,0V49.17a5.84,5.84,0,0,0-2.7.59A6.23,6.23,0,0,0,139.93,52l-1,1.67V49.45h-3.82V66.91h4V60.05c0-2.35.35-4,1.08-5.07a5.13,5.13,0,0,1,1.9-1.67,5.39,5.39,0,0,1,2.49-.61"/><path d="M165.16,49.33a9.64,9.64,0,0,0-10.61,1.81,8.79,8.79,0,0,0-2.76,6.62,9,9,0,0,0,2.37,6.2,8,8,0,0,0,6.27,2.95,6.47,6.47,0,0,0,2-.28,6.1,6.1,0,0,0,1.61-.84V62a6,6,0,0,1-3,.95,4.92,4.92,0,0,1-3.63-1.54,5.25,5.25,0,0,1,.06-7.47,5,5,0,0,1,3.62-1.49,4.94,4.94,0,0,1,4.1,1.91,6.91,6.91,0,0,1,1.26,4.41v7.65h4V58.16a9.83,9.83,0,0,0-2.15-6.41,8.63,8.63,0,0,0-3.12-2.42"/><path d="M193.25,56.24a7.6,7.6,0,0,1-1,4.29,5.08,5.08,0,0,1-4.44,2.41,5,5,0,0,1-3.89-1.73,5.21,5.21,0,0,1-1.3-3.51,5.11,5.11,0,0,1,5.18-5.26,6,6,0,0,1,3.08.93V49.55a7.18,7.18,0,0,0-3.65-1.07,8.14,8.14,0,0,0-3.24.71,9.12,9.12,0,0,0-2.87,2,8.82,8.82,0,0,0-2.6,6.44A9.09,9.09,0,0,0,181.05,64a9.52,9.52,0,0,0,13.8-.16,9.73,9.73,0,0,0,2.37-6.78V40.83h-4Z"/><path d="M237.73,57.81a9.27,9.27,0,0,0-9.39-9.33,9.41,9.41,0,0,0-6.55,2.65,9,9,0,0,0-2,3,9.19,9.19,0,0,0-.73,3.57,8.78,8.78,0,0,0,2.7,6.48,9,9,0,0,0,6.68,2.75A8.82,8.82,0,0,0,235,64.2a9.25,9.25,0,0,0,2-3,8.56,8.56,0,0,0,.74-3.41M232.1,61.4a5,5,0,0,1-3.69,1.54,5.14,5.14,0,0,1-3.7-1.51,5.08,5.08,0,0,1-1.59-3.77,5,5,0,0,1,1.59-3.73,5.1,5.1,0,0,1,3.66-1.49h0a5.07,5.07,0,0,1,3.7,1.55,5.16,5.16,0,0,1,1.54,3.79,5,5,0,0,1-1.52,3.62"/><rect x="206.42" y="48.47" width="3.93" height="18.44"/><path class="cls-1" d="M101.85,63.51c-6.45,8.32-32,32.46-41.9,44-1.61,1.89-1.61,3.75.27,3.75,5.9,0,33-4.81,56.68-28.42V53.59a13.37,13.37,0,0,0-13.7-13.42c0-.26-62.57,0-62.57,0a13.37,13.37,0,0,0-13.7,13.42v5.9c21.19-6.45,100.17-28.43,74.92,4M44.11,125.73c-7.51-.52-10.2-8.58-5.09-14.74,4.3-5.63,54-48.29,52.35-55-1.88-7.5-54.51,7-64.44,25.24v35.13A13.74,13.74,0,0,0,40.63,130H103.2a13.58,13.58,0,0,0,13.7-13.66v-16.1c-15.31,10.2-50.52,27.08-72.79,25.47"/></svg>