<svg id="Layer_1" data-name="Layer 1" xmlns="http://www.w3.org/2000/svg" viewBox="0 0 294.8 170.08"><title>oddil</title><path d="M132.48,111c.14-.47.26-.92.37-1.34s.21-.84.31-1.24.2-.8.28-1.2.19-.83.28-1.27h.49c-.21.95-.43,1.89-.66,2.83s-.49,1.87-.76,2.82h-.64c-.07-.42-.15-.84-.23-1.27s-.16-.84-.24-1.25-.16-.81-.24-1.2-.17-.75-.24-1.1c-.06.34-.12.7-.2,1.08s-.17.79-.26,1.2-.2.83-.3,1.26l-.33,1.28h-.63c-.1-.47-.22-1-.33-1.46l-.36-1.49c-.12-.49-.25-1-.37-1.43s-.25-.89-.37-1.27h.56c.21.75.42,1.54.62,2.37s.4,1.72.6,2.68c.09-.36.19-.77.29-1.2s.21-.88.31-1.33.2-.9.29-1.33.16-.83.23-1.19h.5l.27,1.19c.09.43.19.86.28,1.31s.19.89.27,1.33S132.43,110.58,132.48,111Z"/><path d="M141.36,111c.14-.47.26-.92.37-1.34s.22-.84.31-1.24.2-.8.29-1.2.18-.83.27-1.27h.49c-.21.95-.43,1.89-.66,2.83s-.49,1.87-.76,2.82H141c-.06-.42-.14-.84-.22-1.27s-.15-.84-.24-1.25-.16-.81-.25-1.2-.16-.75-.23-1.1c-.06.34-.12.7-.2,1.08s-.16.79-.26,1.2-.19.83-.3,1.26l-.33,1.28h-.63c-.11-.47-.22-1-.33-1.46l-.36-1.49c-.13-.49-.25-1-.37-1.43s-.25-.89-.37-1.27h.56c.21.75.42,1.54.62,2.37s.4,1.72.6,2.68c.09-.36.19-.77.29-1.2s.21-.88.31-1.33.2-.9.29-1.33.17-.83.22-1.19h.52c.07.36.16.75.26,1.19s.19.86.28,1.31.19.89.27,1.33S141.31,110.58,141.36,111Z"/><path d="M150.25,111c.13-.47.25-.92.36-1.34s.22-.84.32-1.24.19-.8.28-1.2.18-.83.27-1.27H152c-.21.95-.43,1.89-.66,2.83s-.49,1.87-.76,2.82h-.64c-.07-.42-.15-.84-.22-1.27l-.24-1.25c-.09-.41-.17-.81-.25-1.2s-.17-.75-.24-1.1c-.06.34-.12.7-.2,1.08s-.16.79-.26,1.2-.19.83-.3,1.26l-.33,1.28h-.63c-.1-.47-.21-1-.33-1.46l-.36-1.49c-.12-.49-.24-1-.37-1.43s-.25-.89-.37-1.27h.56c.21.75.42,1.54.62,2.37s.4,1.72.6,2.68c.09-.36.19-.77.29-1.2s.21-.88.31-1.33.2-.9.29-1.33.17-.83.23-1.19h.51c.07.36.16.75.26,1.19s.19.86.29,1.31.18.89.26,1.33S150.19,110.58,150.25,111Z"/><path d="M154.87,110.72c.15,0,.25,0,.29.07s.08.15.08.33,0,.31-.08.36-.14.07-.29.07a.38.38,0,0,1-.27-.07.55.55,0,0,1-.08-.36c0-.18,0-.29.08-.33A.38.38,0,0,1,154.87,110.72Z"/><path d="M160.51,111.67a3.5,3.5,0,0,1-1-.13,1.42,1.42,0,0,1-.68-.48,2.45,2.45,0,0,1-.4-.92,8,8,0,0,1,0-2.87,2.48,2.48,0,0,1,.4-.91,1.47,1.47,0,0,1,.68-.47,3.72,3.72,0,0,1,2,0,1.47,1.47,0,0,1,.68.47,2.32,2.32,0,0,1,.4.91,8,8,0,0,1,0,2.87,2.3,2.3,0,0,1-.4.92,1.42,1.42,0,0,1-.68.48A3.47,3.47,0,0,1,160.51,111.67Zm0-5.42a2.48,2.48,0,0,0-.77.1,1,1,0,0,0-.5.35,1.73,1.73,0,0,0-.28.75,7.1,7.1,0,0,0-.09,1.26,6.76,6.76,0,0,0,.09,1.22,1.74,1.74,0,0,0,.28.74,1,1,0,0,0,.5.38,2.79,2.79,0,0,0,1.55,0,1,1,0,0,0,.52-.38,1.88,1.88,0,0,0,.28-.74,6.76,6.76,0,0,0,.09-1.22,7.1,7.1,0,0,0-.09-1.26,1.87,1.87,0,0,0-.28-.75,1,1,0,0,0-.52-.35A2.51,2.51,0,0,0,160.51,106.25Z"/><path d="M166.06,111.55V105.9h2.15a1.36,1.36,0,0,1,.67.15,1.08,1.08,0,0,1,.42.4,1.75,1.75,0,0,1,.22.58,4,4,0,0,1,.06.7,3.5,3.5,0,0,1-.07.65,1.81,1.81,0,0,1-.22.55,1.15,1.15,0,0,1-.42.4,1.19,1.19,0,0,1-.62.15h-1.69v2.07Zm2.15-2.59a.67.67,0,0,0,.62-.35,1.78,1.78,0,0,0,.2-.89,2,2,0,0,0-.2-1,.64.64,0,0,0-.59-.36h-1.68V109Z"/><path d="M174.49,111.55H174v-5.17h-1.67v-.48h3.84v.48h-1.67Z"/><path d="M179.73,105.9v5.65h-.49V105.9Z"/><path d="M183.8,111.55h-.5V105.9h.5Zm2.45,0c-.29-.46-.57-.88-.83-1.24s-.49-.66-.7-.9a6.54,6.54,0,0,0-.55-.58,1.49,1.49,0,0,0-.36-.26c.09-.07.21-.17.37-.32s.33-.34.53-.57.41-.49.64-.78.48-.63.73-1h.65c-.26.37-.51.69-.74,1l-.64.76c-.19.22-.35.4-.49.54a3.48,3.48,0,0,1-.32.3,3.14,3.14,0,0,1,.33.3,7.37,7.37,0,0,1,.53.6c.21.25.44.56.7.92s.52.78.81,1.24Z"/><path d="M193.52,111.55c-.09-.27-.19-.55-.28-.84s-.2-.59-.3-.9h-2.35c-.08.29-.17.58-.25.87l-.24.87h-.49c.27-1,.56-1.89.86-2.82s.62-1.88.95-2.83h.85c.14.47.29,1,.43,1.46s.31,1,.46,1.5.31,1,.47,1.42.3.89.45,1.27Zm-1.79-5.2q-.27.77-.51,1.5c-.16.49-.32,1-.47,1.47h2c-.15-.48-.3-1-.44-1.47s-.29-1-.42-1.5Z"/><path d="M200.41,105.9v.48h-2.75v2.18h2v.49h-2v2.5h-.5V105.9Z"/><path d="M206.76,105.9v.48H204v1.9h2v.49h-2v2.3h2.8v.48h-3.3V105.9Z"/><path d="M210.43,111.55h-.5V105.9h.68c.43.75.86,1.53,1.27,2.35s.81,1.62,1.19,2.44V105.9h.51v5.65H213c-.38-.83-.78-1.67-1.21-2.52s-.87-1.7-1.34-2.54Z"/><path d="M217.65,105.9v5.65h-.5V105.9Z"/><path d="M225,105.9c-.28.46-.57.92-.86,1.38s-.58.92-.87,1.38l.91,1.45c.31.48.6,1,.89,1.44h-.6l-.75-1.21c-.25-.4-.5-.81-.76-1.21l-.81,1.23-.79,1.19h-.58l1-1.43.93-1.43c-.3-.47-.61-.93-.91-1.39s-.61-.93-.92-1.4h.6l.75,1.11.78,1.2.73-1.16.72-1.15Z"/><path d="M228.39,110.72a.41.41,0,0,1,.29.07c.06,0,.08.15.08.33s0,.31-.08.36a.41.41,0,0,1-.29.07.38.38,0,0,1-.27-.07.55.55,0,0,1-.08-.36c0-.18,0-.29.08-.33A.38.38,0,0,1,228.39,110.72Z"/><path d="M231.85,108.67a6.33,6.33,0,0,1,.14-1.43,2.16,2.16,0,0,1,.4-.89,1.41,1.41,0,0,1,.69-.46,3.19,3.19,0,0,1,1-.13,4.39,4.39,0,0,1,.69.06,3.64,3.64,0,0,1,.65.16l-.16.52-.25-.08-.31-.07-.32,0-.3,0a2.86,2.86,0,0,0-.77.09.9.9,0,0,0-.52.33,1.72,1.72,0,0,0-.29.72,7,7,0,0,0-.09,1.25,7.1,7.1,0,0,0,.09,1.26,1.87,1.87,0,0,0,.29.75,1,1,0,0,0,.52.36,2.86,2.86,0,0,0,.77.09h.3l.32,0L235,111l.25-.09.16.52a3.61,3.61,0,0,1-.65.17,4.39,4.39,0,0,1-.69.06,3.17,3.17,0,0,1-1-.14,1.54,1.54,0,0,1-.69-.49,2.44,2.44,0,0,1-.4-.92A6.52,6.52,0,0,1,231.85,108.67Z"/><path d="M238.25,111.32l.81-1.2.81-1.25c.27-.42.53-.84.79-1.26l.75-1.23h-3v-.48h3.7v.21c-.5.87-1,1.73-1.56,2.57s-1.07,1.64-1.6,2.39h3v.48h-3.76Z"/><path d="M87.37,88.49c0-7.19,4.08-11.75,10-11.75s10,4.56,10,11.75-4.11,11.74-10,11.74S87.37,95.64,87.37,88.49Zm16.38,0c0-5.68-2.55-9-6.41-9S91,82.77,91,88.49s2.56,9,6.37,9S103.75,94.12,103.75,88.49Z"/><path d="M109,77.35h3v4.34c1.52-3.25,3.9-5,6.85-5,4.85,0,8.58,4.47,8.58,11.57,0,7.29-3.86,11.75-8.8,11.75a7.35,7.35,0,0,1-6.41-4v11.27H109ZM118,97.2c3.59,0,5.93-3.17,5.93-8.8s-2.29-8.71-5.8-8.71c-3.12,0-5.81,2.77-5.81,6.85v3.73C112.29,94.64,114.67,97.2,118,97.2Z"/><path d="M130.05,79.78h-3.9V77.35h3.9V72.07l3.34-.35v5.63h5.28v2.43h-5.28V91.44c0,4.16.39,5.93,3.77,5.93a8.82,8.82,0,0,0,2.3-.26v2.78a12.58,12.58,0,0,1-2.78.34c-2.64,0-4.46-.78-5.72-2.64-.91-1.3-.91-3.38-.91-6.24Z"/><path d="M140,69.55h3.29v3.3H140Zm0,7.8h3.29V99.63H140Z"/><path d="M146.14,69.55h3.25V88.66l10.05-11.31H163l-6.84,7.28,7.93,15h-3.51L154,87l-4.6,4.9v7.76h-3.25Z"/><path d="M177.9,95.42a8.35,8.35,0,0,1-7.67,4.73c-4.55,0-7.63-2.86-7.63-6.76,0-5,4.51-7.63,13.39-7.63.61,0,1.26,0,1.91,0V84.42c0-3.34-1.78-5-5.55-5-3.38,0-5.33,1.22-5.94,3.86l-3.16-.48c.91-4,4.16-6.07,9.66-6.07,5.81,0,8.24,2.78,8.24,8.8v9.53a14,14,0,0,0,.6,4.56h-3.33A15.87,15.87,0,0,1,177.9,95.42Zm-2.6-7.15c-6,0-9.06,1.78-9.06,5.07,0,2.43,1.73,4,4.63,4,3.91,0,7-3.51,7-7.84V88.36A26,26,0,0,0,175.3,88.27Z"/><path d="M189.59,81.69h-3.51V77.36h3.51v-.78c0-5.11,2.43-7.53,7.58-7.53a25.55,25.55,0,0,1,5.2.52v4.37a27.29,27.29,0,0,0-3.47-.3c-2.12,0-3.2,1-3.2,3.11,0,.18,0,.4,0,.61h5.55v4.33h-5.42V99.63h-6.28Z"/><path d="M223.74,77.36h6v3.55a7.21,7.21,0,0,1,6.67-4.16c4.94,0,7.23,2.74,7.23,8.45V99.63h-6.45v-14c0-2.73-1-4.16-3-4.16-2.3,0-4,1.9-4,5V99.63h-6.41Z"/><path d="M245.81,69.57h6.67V74.5h-6.67Zm0,7.79h6.67V99.63h-6.67Z"/><path d="M260,87.8l-6.88-10.44h7.4l3.56,6.33L268,77.36h5.59l-6.67,10L275,99.63h-7.54l-4.67-8.06-4.94,8.06h-5.55Z"/><path d="M218.81,79.16a21.59,21.59,0,0,1-7,1.56c-5.23.17-6.23-2.46-6.87-2a11.47,11.47,0,0,0-5,9.86c0,7,4.55,11.69,11.52,11.69,5.5,0,9.48-2.68,11-7.41l-6.28-.51a4.37,4.37,0,0,1-4.42,3.33c-3.07,0-4.85-2.12-4.85-6H222.5v-.91C222.5,84.47,221.17,81.2,218.81,79.16ZM206.9,86c.18-3.2,1.87-5,4.42-5,2.78,0,4.38,1.73,4.42,5Z"/><path d="M220.67,72.53S217.49,72.3,216,74a8,8,0,0,0-2.51-1.28,21.57,21.57,0,0,1-2.14,2.88,8.6,8.6,0,0,1-4.68,2,17.37,17.37,0,0,0,7.48.77C221.1,77.34,220.67,72.53,220.67,72.53Z"/><path d="M58.82,98.73c.61-.56-.93-7.14,5.14-11.07-3.89,5.77-1.15,8.07.07,7.26a25.26,25.26,0,0,0,5.81-5.19c5.65-6.49-1.11-20.38-5-23.69,5.83,16.48-3.62,19.6-5.28,20.39A10.54,10.54,0,0,0,54.41,92c-.7-1.15-1.45-2.2-2-3.2a11.48,11.48,0,0,0-1.22-2s2.1,4.1-.75,5.65c.54-.61,1.7-3-.93-7.64-4.63-8.16.53-4.31-2.6-9.86a3.46,3.46,0,0,0-1.46,1.2c-1.74,2.37-1.65,4.9-.66,7.52,1.18,3.1-.28,4.75-2.27,7.6a20.39,20.39,0,0,0-2.15,3.9.07.07,0,0,1,0-.05c.58-4.65-1.92-10.51-6.52-15.33-4.06-4.26-4.06-12.2-.77-15.68a41.4,41.4,0,0,1,6.64-5.68s-13.46,1.78-17.87,11.1c-3.49,7.36-2.13,13,1.74,16.26,2.12,1.81,3.83,3.2,5.49,4.57.62.51-8.82-10.67-2.66-18.77-1.69,6.67,5.89,21.49,6.63,22.14l.22.2c4.45,4.92,2.88,10.4,3.27,9.63.25-.51,1.4-.72,2.43-2.9A25.44,25.44,0,0,0,40.2,111.1c2.11,0,2.11.19,5.44-1.72,1.09-2.49,2.27-4.59,4.13-9.12,0-.09,0-.17.07-.25a26.88,26.88,0,0,1-1.77,6.38c-.61,1.4-.86,1.58-1.27,2.78,2.09-.3,3-.18,4.64-1a7.94,7.94,0,0,0,4.72-6.1A15.07,15.07,0,0,1,58.82,98.73Z"/><path d="M36,64.76c-3.56.8-4.72,5.86-2.51,10.56.74-1,.54-.31,1.42-3.28C35.88,68.86,33,67,36,64.76Z"/><path d="M64.75,75.06c2.2-5.72-1.28-11.62-7.38-12.13C61.64,64.76,58.61,72.69,64.75,75.06Z"/><path d="M43.52,71.21c-.72.3.42,1,2.24,1.86l6,2.75c-.13.16-.72.72-.85.88.26.62,1.89.94,2.58.89,1.66,3.94-.4,1.93-.7,2.81l2.47,1.37.09-.09a19.35,19.35,0,0,0-2.29-7.18l-1.22,0C49.45,74.37,44.68,72.85,43.52,71.21Z"/><path d="M49.35,77.13c-.51.84-.27,3,.46,5a13.33,13.33,0,0,0,3.47,5s-1.12-3.26-1.62-4.25c-.58-1.15-.71-1.92.22-3A4.58,4.58,0,0,1,49.35,77.13Z"/><path d="M48.2,73c.82-2.81-4.45-2.46-5.83-5.61C42.43,69.81,46.48,72.77,48.2,73Z"/><path d="M61.34,99.73c-4.92,2.24-3.68,6-3.68,6s7.62-2.51,10.07-6.48a45.68,45.68,0,0,0,4-9.69,32.66,32.66,0,0,1-2.24,5.06C67.41,98.48,66.25,97.5,61.34,99.73Z"/><path d="M72,88.63s-.09.34-.26.88C71.91,88.93,72,88.63,72,88.63Z"/><path d="M21,84.78c-.16-.54-.25-.88-.25-.88A8.63,8.63,0,0,0,21,84.78Z"/><path d="M31.3,95.06c-4.9-2.27-6.06-1.29-8.11-5.21A32.33,32.33,0,0,1,21,84.78a45.54,45.54,0,0,0,3.94,9.71c2.43,4,10,6.53,10,6.53S36.21,97.31,31.3,95.06Z"/></svg>