<svg id="Layer_1" data-name="Layer 1" xmlns="http://www.w3.org/2000/svg" viewBox="0 0 510.24 226.77"><defs><style>.cls-1{fill-rule:evenodd;}</style></defs><path class="cls-1" d="M233.05,138.67h12.33V83H233.05Z"/><path class="cls-1" d="M291.91,138.72h11.53V122.1a12.88,12.88,0,0,0-.21-2.47,10.19,10.19,0,0,0-5.73-7.75,13.42,13.42,0,0,0-4.9-1.2,10.77,10.77,0,0,0-8.4,2.4,5.27,5.27,0,0,1-.59.37v-2.78h-10.8v27.9h11.67V122.85a3.28,3.28,0,0,1,1.28-2.88,4.11,4.11,0,0,1,4.38-.31,3.34,3.34,0,0,1,1.82,3.39V137.7Z"/><path class="cls-1" d="M310.88,122.43a8.21,8.21,0,0,0,4.19,3.6c1.63.68,3.34,1.2,5,1.8.78.29,1.55.59,2.3.93a1,1,0,0,1,.68,1.13,1.11,1.11,0,0,1-.9,1,7,7,0,0,1-1.59.18h-11v7.84H310c4,0,7.94.07,11.9,0a39.87,39.87,0,0,0,5.57-.48,9.81,9.81,0,0,0,5.75-2.94,7,7,0,0,0-.09-9.93l-.22-.21c-.3-.25-.62-.48-.93-.69a25.52,25.52,0,0,0-5.71-2.64q-2.07-.77-4.14-1.59a1.05,1.05,0,0,1-.81-1,1.13,1.13,0,0,1,.9-1,7.63,7.63,0,0,1,1.9-.32h8.09A3.55,3.55,0,0,0,333,118v-7.44H322.48a30.53,30.53,0,0,0-3.45.16,13.42,13.42,0,0,0-6,2.13A7.07,7.07,0,0,0,310.88,122.43Z"/><path class="cls-1" d="M253.63,138.75h12.31V110.8H253.63Z"/><path class="cls-1" d="M264.56,99.82a8.24,8.24,0,0,0-9.46,0,3.82,3.82,0,0,0,.23,6.58,7.66,7.66,0,0,0,3.95,1.31,8.53,8.53,0,0,0,5.1-1.36,3.83,3.83,0,0,0,.18-6.53Z"/><path class="cls-1" d="M335.32,160.26c-5-4.93-9.89-9.73-14.84-14.66a2.86,2.86,0,0,0-2.25-.92h-97a30.47,30.47,0,0,1-11.44-2.16,23.51,23.51,0,0,1-10.48-7.79c-1.95-2.67-3.17-5.56-2.48-9a7.19,7.19,0,0,1,4-5.48,11.77,11.77,0,0,1,4.92-1l17.5-.2h1v-8.2a2.94,2.94,0,0,0,0-.42h-8.61c-3.4-.12-6.82-.2-10.19-.56a7.66,7.66,0,0,1-7.11-7,11.64,11.64,0,0,1,1.08-6.49,26.52,26.52,0,0,1,8.87-10.65,39.48,39.48,0,0,1,13-6.31A99.92,99.92,0,0,1,241.12,76c5.44-.46,10.87-.75,16.32-.88,5.21-.13,10.43,0,15.6.09,4,.08,8.11.26,12.15.49,4.41.25,8.8.58,13.2.91,3,.24,6,.58,9.09.88l6,.62c-.63-.85-1.2-1.5-1.63-2.23a5.59,5.59,0,0,0-3.73-2.4q-7.58-1.91-15.27-3.23c-4.31-.74-8.63-1.48-13-2-5.32-.68-10.64-1.2-16-1.68-3.86-.34-7.74-.6-11.62-.64-6.6-.08-13.2-.14-19.78.41a104.85,104.85,0,0,0-18.29,3,62.15,62.15,0,0,0-20.67,9.6,45.61,45.61,0,0,0-13.86,16,48,48,0,0,0-4.92,15.93,54.54,54.54,0,0,0,.58,18.64,36.92,36.92,0,0,0,11.17,19.94,42.65,42.65,0,0,0,18.94,9.7,70.46,70.46,0,0,0,17,1.92H336Zm-98-5.22h-.75v-2.67c1.2,0,1.87-.15,1.87-1.37a1.2,1.2,0,0,0-1.2-1.2,1,1,0,0,0-1.12,1,.81.81,0,0,0,0,.22v7.89h-3v-7.45a3.93,3.93,0,0,1,3.58-4.26,4,4,0,0,1,.69,0,3.88,3.88,0,0,1,4.06,3.7,1.09,1.09,0,0,1,0,.18,3.82,3.82,0,0,1-3.61,4A4.34,4.34,0,0,1,237.27,155Zm13.2,3.79h-2.28c-2.89,0-4.27-1.06-4.27-3.72v-7.8h3v7.54c0,.93.32,1.2,1.52,1.2h2Zm11.09-4.16a4.38,4.38,0,0,1-8.75,0v-7.36h3v7.58a1.39,1.39,0,0,0,2.77,0v-7.58h3Zm6,4.16h-3.32v-2.66h3.11c.69,0,1.12-.21,1.12-.64,0-1.2-4.31-2.2-4.31-4.95,0-2.4,1.76-3.27,3.6-3.27h3.13V150h-3c-.39,0-.69.13-.69.48,0,1,4.48,2.21,4.48,4.91.08,1.48-.31,3.46-4.15,3.46Zm14.3-.38h-3v-2.24h2.58c.32,0,.47-.15.47-.36,0-.75-3-.48-3-3.13a2.4,2.4,0,0,1,2.52-2.27h2.71v2.13h-2.1c-.31,0-.55.17-.55.38,0,.64,3.14.81,3.14,3,0,1.63-1.09,2.52-2.85,2.52Zm6.68.2a1.68,1.68,0,1,1,1.72-1.68,1.7,1.7,0,0,1-1.71,1.68h0Zm8.85-5.8c-1.86.08-2,.47-2,1.85v3.75h-2.69v-8H295v1.33h0c.4-1.2,1.2-1.33,2.4-1.33Zm3.15,5.8a1.68,1.68,0,1,1,1.71-1.68,1.69,1.69,0,0,1-1.71,1.68h0Zm8.18,0a4.2,4.2,0,1,1,4.21-4.2,4.27,4.27,0,0,1-4.29,4.2Zm8.17,0a1.68,1.68,0,1,1,1.72-1.68,1.7,1.7,0,0,1-1.71,1.68h0Z"/><path class="cls-1" d="M308.64,152.76a1.69,1.69,0,1,0,1.61,1.76.17.17,0,0,0,0-.07,1.65,1.65,0,0,0-1.6-1.69Z"/></svg>