<svg id="Layer_1" data-name="Layer 1" xmlns="http://www.w3.org/2000/svg" viewBox="0 0 510.24 226.77"><defs><style>.cls-1{fill-rule:evenodd;}</style></defs><path class="cls-1" d="M336.24,171.1s.78-4.55,1.74-10l1.74-9.9h6.12c5.16,0,6,0,6,.17s-.13.65-.23,1.2l-.16,1h-9.27l-.4,2.24c-.21,1.2-.43,2.5-.48,2.79l-.08.54h6.63l-.07.35-.21,1.2-.15.79H340.8l-.64,3.6c-.35,2-.61,3.6-.59,3.67s2.07.1,4.54.1,4.49,0,4.49.07-.1.59-.21,1.2l-.2,1.13h-5.95c-3.27,0-5.93,0-6-.1m-9.11,0s.78-4.55,1.74-10l1.74-9.9h2.72s-3.42,19.41-3.48,19.68-.12.28-1.39.28a5.49,5.49,0,0,1-1.28-.11Zm-9.73-11h0c-1.32.28-3.6.22-3.6-.09s1.1-6.29,1.2-6.39a12.46,12.46,0,0,1,3.45,0c1.86.33,2.7,1.2,2.7,2.88S319.75,159.64,317.4,160.14Zm-8.4,10.8c0-.19.83-4.67,1.75-9.95s1.72-9.6,1.75-9.6a33,33,0,0,1,4.66-.28c3.37,0,5.67.93,6.45,2.67a3.64,3.64,0,0,1,.29,1.81,6.72,6.72,0,0,1-4.41,6.46,7,7,0,0,0-.69.26s.75,1.94,1.69,4.25,1.79,4.33,1.86,4.49l.11.3h-3l-1.53-4.18c-.84-2.3-1.54-4.23-1.58-4.28a6,6,0,0,0-1.52-.19l-1.47-.09-.75,4.37-.75,4.38H309Zm-12-8.4c.84-4.8,1.53-8.77,1.55-8.79s-1.44,0-3.21,0h-3.2l.15-.92c.1-.5.21-1,.24-1.2l.08-.28h7.83c4.32,0,7.85,0,7.85.08s-.08.6-.2,1.2l-.21,1.1h-6.61l-1.54,8.73c-.85,4.8-1.54,8.76-1.54,8.77s-.63,0-1.38,0h-1.37Zm-53.79,6.18h0a9.54,9.54,0,0,1-2.92.11c-.32,0-.35-.1-.29-.4s.61-3.6,1.28-7.54,1.27-7.2,1.36-7.31a4.14,4.14,0,0,1,.92-.17,6.21,6.21,0,0,1,5,1.75c1.2,1.2,1.5,2.26,1.39,4.56a9.67,9.67,0,0,1-1.12,4.5,6.82,6.82,0,0,1-1.68,2.4,7,7,0,0,1-3.87,2Zm-6.42,2.46c0-.09.78-4.61,1.74-10l1.74-9.87.57-.12a24.46,24.46,0,0,1,2.71-.12c3,0,4.51.36,6.31,1.56s2.8,3,2.95,5.88a12.25,12.25,0,0,1-3.42,9.78,11.47,11.47,0,0,1-5,2.72,16.09,16.09,0,0,1-4.32.32c-2.72,0-3.29-.06-3.29-.2Zm-29.12,0s.78-4.55,1.74-10l1.74-9.9h2.71s-3.41,19.4-3.47,19.68-.12.28-1.39.28a4.8,4.8,0,0,1-1.31-.1Zm-27.34,0c0-.06.77-4.55,1.73-10l1.78-9.92h6c5.17,0,6,0,6,.18s-.13.64-.22,1.2l-.15,1h-9.23l-.4,2.24c-.21,1.2-.43,2.5-.48,2.8l-.08.53h6.63l-.07.35-.21,1.2-.15.79h-6.65l-.63,3.6c-.35,2-.61,3.6-.58,3.67s2.07.1,4.53.1,4.48,0,4.48.07-.09.59-.2,1.2l-.2,1.11h-6c-3.21-.06-5.88-.1-5.88-.15Zm-17.65-.31c0-.23.83-4.72,1.75-10l1.67-9.6h1.36a10.14,10.14,0,0,1,1.35,0c0,.08-1.65,9.6-1.71,9.8s0,.29,0,.29,2.05-2.21,4.41-4.91,4.4-5,4.5-5.07a4,4,0,0,1,1.71-.11h1.51l-3.72,4.28c-2,2.4-3.71,4.31-3.71,4.32s1,2.4,2.29,5.4,2.4,5.5,2.4,5.65l.12.29h-3.12l-1.9-4.52c-1.05-2.49-2-4.53-2-4.53s-2.53,2.75-3.12,3.53a17.08,17.08,0,0,0-.61,2.82l-.46,2.63h-2.72Zm-9.44.32c0-.06.78-4.56,1.74-10l1.74-9.9h1.37a10.14,10.14,0,0,1,1.35,0c0,.08-3.41,19.4-3.48,19.68s-.12.27-1.38.27a5.32,5.32,0,0,1-1.32-.07Zm-9.1-12.25h0c-1.26.22-3.27.12-3.27-.14s.16-1.3.38-2.69a9.21,9.21,0,0,1,.6-2.69,10.88,10.88,0,0,1,3.6,0,2.25,2.25,0,0,1,2,2.4,4.14,4.14,0,0,1-.86,2.07A5.2,5.2,0,0,1,144.14,158.94Zm-1.41,10h0a14.46,14.46,0,0,1-3.6.1c-.18,0-.21-.15-.16-.46s.35-1.93.68-3.79.65-3.43.7-3.48a9.36,9.36,0,0,1,3.08,0c2.16.37,3.29,1.46,3.42,3.31.22,2.19-1.34,3.81-4.12,4.35Zm-6.59,2.4c-.34-.06-.36-.08-.28-.51s.85-4.8,1.78-10,1.7-9.6,1.73-9.6.86-.11,1.87-.2c6-.48,9,1.2,8.84,4.8a4.47,4.47,0,0,1-3.2,4.1c-.19.07-.06.17.65.52a3.78,3.78,0,0,1,2.16,3.6c.28,4-1.83,6.36-6.41,7.09A51.57,51.57,0,0,1,136.14,171.3Zm89.79-6.84c-2.12-3.86-3.88-7-3.93-7s-.58,3-1.2,6.61-1.2,6.75-1.2,6.9-.12.29-1.38.29a7.3,7.3,0,0,1-1.32-.06c0-.14,3.43-19.52,3.49-19.73s.2-.21.6-.21h.53l3.73,6.66c2.06,3.67,3.8,6.69,3.86,6.71s.62-2.8,1.2-6.66l1.2-6.71h1.3c.88,0,1.3,0,1.3.13s-3.36,19.36-3.47,19.82c0,.23-.16.29-.48.29S229.79,171.48,225.93,164.46Zm131.13,7L356,171.3a12.36,12.36,0,0,1-2.32-.68,18,18,0,0,1,.79-2.59,1.92,1.92,0,0,1,.47.25,8,8,0,0,0,5.11.55,3.09,3.09,0,0,0,2-2.1c.36-1.69-.36-2.75-3.41-5a9.51,9.51,0,0,1-2.78-2.87,6.37,6.37,0,0,1,.08-4.94,5.65,5.65,0,0,1,4.15-2.95c1.47-.26,5,0,5.41.37a2.23,2.23,0,0,1-.14.85c-.13.41-.3,1-.38,1.28l-.15.53-.41-.24a7.18,7.18,0,0,0-2.62-.62,5.53,5.53,0,0,0-2.55.69,2.67,2.67,0,0,0-1.2,2.26c0,1.33.46,1.93,3,3.85s3.35,3.13,3.67,5.07a6.44,6.44,0,0,1-.46,3.52,5.46,5.46,0,0,1-3.67,2.76A13.69,13.69,0,0,1,357.06,171.49Zm-77.73,0-1.06-.2a12.46,12.46,0,0,1-2.33-.68,18.16,18.16,0,0,1,.8-2.6,2.68,2.68,0,0,1,.47.26,8,8,0,0,0,5.11.55,3.11,3.11,0,0,0,1.95-2.1c.34-1.69-.36-2.75-3.41-5a9.58,9.58,0,0,1-2.8-2.87,6.37,6.37,0,0,1,.1-4.94,5.69,5.69,0,0,1,4.15-3c1.46-.25,5,0,5.4.38a1.89,1.89,0,0,1-.14.84c-.14.42-.3,1-.38,1.29l-.14.53-.41-.24a7,7,0,0,0-2.63-.62,5.56,5.56,0,0,0-2.55.69,2.68,2.68,0,0,0-1.2,2.26c0,1.33.45,1.93,3,3.85s3.36,3.13,3.68,5.06a6.56,6.56,0,0,1-.45,3.53,5.53,5.53,0,0,1-3.68,2.76,13.76,13.76,0,0,1-3.45.29Zm-18.49-.1a5.8,5.8,0,0,1-2.78-1.43,4,4,0,0,1-1.35-2.93c0-.9.08-1.84,1.2-8.4l1.31-7.42h1.42c1.28,0,1.41,0,1.37.22-.36,1.46-2.4,13.84-2.4,14.47a3,3,0,0,0,.33,1.49,3.1,3.1,0,0,0,3.22,1.7,4.7,4.7,0,0,0,4.68-3.19c.13-.38.79-3.84,1.49-7.69l1.2-7h1.35a3.47,3.47,0,0,1,1.36.12s-.57,3.34-1.2,7.3c-.78,4.47-1.38,7.52-1.57,8a7.22,7.22,0,0,1-5,4.53,12,12,0,0,1-4.62.2Z"/><polygon class="cls-1" points="153.09 73.69 188.79 73.68 179.4 96.97 207.57 73.3 232.75 73.29 203.83 97.35 220.74 119.13 240.27 66.89 191.05 66.92 195.17 55.26 331.56 55.22 329.31 67.25 277.85 67.26 263.95 106.33 296.64 74.39 328.57 74.38 324.06 95.8 349.23 73.62 382.68 73.61 369.17 134.12 336.49 134.12 338.72 114.21 315.81 134.88 285 134.88 288.38 113.47 266.21 134.52 188.44 134.55 172.27 114.64 163.26 134.56 127.56 134.94 153.09 73.69"/></svg>