<svg id="Layer_1" data-name="Layer 1" xmlns="http://www.w3.org/2000/svg" viewBox="0 0 510.24 226.77"><path d="M246.66,130.55c-1-2-2-4-3.18-6.25H305a5.07,5.07,0,0,0,4.91-4.19,15.7,15.7,0,0,0,.27-3.21V85.09c0-5.94-1.73-7.6-7.74-7.6H221.24c-1,0-2-.12-3.28-.21a8,8,0,0,1,5.76-4.56,24.82,24.82,0,0,1,19.82,1.87c.81.44,1.66.8,2.57,1.25v-13A29.08,29.08,0,0,0,242,61.6c-5.06-.76-10.11-1.73-15.2-2a42.87,42.87,0,0,0-16.95,2.45c-7,2.5-12.17,6.84-14.28,14.23a6.55,6.55,0,0,1-.67,1.14H166.78a24.33,24.33,0,0,0-3,.1,5.32,5.32,0,0,0-5.1,5,15.61,15.61,0,0,0-.09,2.16V117a14.3,14.3,0,0,0,.35,3.19,4.93,4.93,0,0,0,4.73,4.06h56c1.79,2.51,3.54,4.79,5.11,7.19a65,65,0,0,1,3.8,6.51c3,6,1,11.42-5,14.21a16.22,16.22,0,0,1-2.51,1,28,28,0,0,1-22.81-3.27l-2.29-1.35v14.11a25.7,25.7,0,0,0,12.16,4.21,68.4,68.4,0,0,0,18.52-.55,29.68,29.68,0,0,0,16.63-7.6A20.11,20.11,0,0,0,250,140.77,32.94,32.94,0,0,0,246.66,130.55Zm27.75-40.76a15.44,15.44,0,0,1,16.27-6.08c6.73,1.31,10.64,5.76,12.37,12.09a21.87,21.87,0,0,1,.29,9.59c-1.12,6.75-8,13.82-16.3,13.24a16.14,16.14,0,0,1-16-14.85C270.55,98.78,271.18,93.94,274.41,89.79Zm-80.19,11.6c-3.78.28-7.45.11-11.08.14H172.5a9.45,9.45,0,0,0,8,10.75c.32,0,.64.08,1,.09a21.55,21.55,0,0,0,9.93-2.07c.64-.3,1.26-.64,2.3-1.17.16,2.53.28,4.65.42,6.83a6.2,6.2,0,0,1-1.4.9,35.4,35.4,0,0,1-14.59,1.7,13.67,13.67,0,0,1-9.22-5.57c-5.14-6.23-4.76-18.64-.38-24.32A14.17,14.17,0,0,1,182.73,83c5.26.8,8.54,4.27,10.38,9.12A21.16,21.16,0,0,1,194.22,101.39Zm25.61,22.12c-6.89-9-14.77-17.25-20.26-27.36A29.25,29.25,0,0,1,195.45,81a21.74,21.74,0,0,1,.43-2.94H216.6c-1,5.47.75,10.27,3.3,14.71a121.78,121.78,0,0,0,7.6,11.07c4.26,5.76,8.67,11.43,13,17.15.52.7.91,1.52,1.52,2.46Zm22.63-9.68a18,18,0,0,1-4.27-11.1,31.58,31.58,0,0,1,.87-8.77c2.6-10.26,12.16-13.69,20.87-10.55.84.3,1.65.71,2.69,1.18,1,2.62.45,5.17.49,7.91-1.2-.72-2.17-1.34-3.19-1.89-6.17-3.3-11.85-1-14.14,5.6a14.46,14.46,0,0,0,0,9.5,9.67,9.67,0,0,0,12.06,6.45l.1,0c1.8-.47,3.53-1.2,5.67-1.95,0,1.23.11,2.27.14,3.28s0,2.15,0,3.05C258.09,119.94,247.41,119.68,242.46,113.83Z"/><path d="M301.32,130.69l-13.05,23.67-4.36-8.1c1.31-.53,2.43-.87,3.45-1.41a7.7,7.7,0,0,0,4-7.61,6.82,6.82,0,0,0-5.56-6.08,32.22,32.22,0,0,0-9.75-.35c-1.52,8.11-3,16-4.65,24.1h4.07c.76-3.6,1.52-7.21,2.37-11.39L284.17,155h8.3l3.79-6.63h8.86l1.52,6.55h4c-1.76-8.3-3.28-16.24-5-24.19Zm-23.4,11.62c.5-2.59,1-5,1.52-7.76h3.83a3.48,3.48,0,0,1,3.65,2.91A4,4,0,0,1,284.4,142a11.61,11.61,0,0,1-6.45.29Zm20.45,1.7,4-7.69h.56c.44,2.43.88,4.88,1.4,7.6Z"/><path d="M328.52,132c-4-2-8.3-1.42-12.68-1.19-1.52,8-3,15.84-4.56,23.78a4.6,4.6,0,0,0,1.08.43c2.69,0,5.38.12,8.07,0,8.79-.4,14.34-7.07,13.06-15.77A8.93,8.93,0,0,0,328.52,132Zm-7.91,19.15h-4.38c.49-5.73,1.95-11,2.91-16.49a41.6,41.6,0,0,1,5.47,0,5.08,5.08,0,0,1,4.23,3.33C331,143.32,328.21,150.84,320.61,151.12Z"/><path d="M339,130.84c-1.52,8-3,15.89-4.66,24h12.78l.58-3.73h-8.54c.47-2.32.85-4.28,1.3-6.56h8.61l.77-3.76h-8.69c.42-2.22.79-4.06,1.23-6.37h8.7c.18-.87.31-1.38.39-1.91s.09-1,.15-1.71Z"/><path d="M273.63,130.84h-14l-.75,3.51,5.05.49-3.77,20h3.95q2-10.11,4-20.18l5-.27Z"/><path d="M180.62,89.14a7.59,7.59,0,0,0-8,7.16,7.69,7.69,0,0,0,0,1h14.6C187.52,92.57,184.87,89.4,180.62,89.14Z"/><path d="M287.79,112.9a9.12,9.12,0,0,0,7.9-5.62,13.27,13.27,0,0,0-2.09-14.83,8.87,8.87,0,0,0-13.69.72,14,14,0,0,0-.59,15.46A9.13,9.13,0,0,0,287.79,112.9Z"/></svg>