<svg id="Layer_1" data-name="Layer 1" xmlns="http://www.w3.org/2000/svg" viewBox="0 0 510.24 226.77"><path d="M166.85,126.56a10.92,10.92,0,0,0-7.64-3.39c-3,0-5.16,1.57-5.16,3.87,0,6.25,14.09,6.16,14.09,16.52,0,5.11-3.87,8.83-9.12,8.83a14.31,14.31,0,0,1-9.12-3v-5.92c2.38,3.06,5.39,4.73,8.59,4.73,3.63,0,5.3-2.29,5.3-4.11,0-6.73-14.08-7.49-14.08-16.42,0-5.3,3.91-8.69,9.88-8.69a13,13,0,0,1,7.26,2.29Z"/><path d="M202.47,123.6H191.2V152h-4.68V123.6H175.25v-4.21h27.22Z"/><path d="M239.91,152h-4.77l-4.35-9.6H216.94l-4.1,9.6h-4.78l14-32.76h3.3Zm-21.15-13.8h10.12l-5.25-11.79Z"/><path d="M256.58,119.39c6.59,0,10.69,3.49,10.69,9.13a8.13,8.13,0,0,1-5.44,8c3,2,4.78,5,7.26,9,1.38,2.24,2.2,3.34,4.44,6.44h-5.59l-4.29-6.68c-4.3-6.69-6.26-7.45-8.65-7.45h-2V152h-4.68V119.39ZM253,133.63h3c5,0,6.45-2.58,6.4-5.3-.05-3.06-1.86-4.92-6.4-4.92h-3Z"/><path d="M309.63,126.65a21.44,21.44,0,0,0-11.22-3.39c-7.45,0-13,5.3-13,12.47s5.35,12.37,13.18,12.37A21.32,21.32,0,0,0,310,144.42v5.11a23.91,23.91,0,0,1-11.8,2.86c-12.22,0-17.57-9.4-17.57-16.23,0-9.94,7.5-17.19,17.86-17.19,3.34,0,6.73.81,11.17,2.67Z"/><path d="M336.52,119c10.74,0,17.52,7.64,17.52,16.71,0,8.79-6.59,16.71-17.62,16.71-10.65,0-17.38-7.88-17.38-16.71C319,126.65,326,119,336.52,119Zm0,29.13c7.3,0,12.7-5.31,12.7-12.42s-5.4-12.42-12.7-12.42-12.66,5.26-12.66,12.42S329.26,148.1,336.52,148.1Z"/><path d="M394.83,152h-4.68V126.61h-.1l-10,12.6h-.76l-10-12.6h-.1V152h-4.68V119.39h4.4l10.79,13.38,10.84-13.38h4.35Z"/><path d="M436.9,152h-4.68V126.61h-.1l-10,12.6h-.76l-10-12.6h-.1V152h-4.67V119.39h4.39l10.79,13.38,10.84-13.38h4.35Z"/><polygon points="79.24 112.3 90.63 134.62 73.34 151.82 97.38 147.77 108.92 170.08 112.38 145.25 137.52 141 115.55 130.14 119.51 105.95 101.4 123.93 79.24 112.3"/><polygon points="164.65 63.53 147.25 70.68 135.46 56.69 137 74.92 119.61 82.17 137.97 86.28 139.59 105.33 149.06 89.58 166.91 94.03 154.58 79.39 164.65 63.53"/><polygon points="217.5 87.01 205.95 82.16 207.01 70.02 199.12 79.3 187.53 74.48 194.21 85.11 185.96 94.82 197.87 91.9 204.15 102.42 205.28 89.72 217.5 87.01"/></svg>