<svg id="Layer_1" data-name="Layer 1" xmlns="http://www.w3.org/2000/svg" viewBox="0 0 510.24 226.77"><path d="M231.88,153.75c.22-.74.41-1.44.58-2.09s.32-1.31.48-1.93.31-1.24.43-1.86.3-1.29.44-2h.76c-.32,1.48-.67,2.94-1,4.4s-.77,2.91-1.19,4.39h-1q-.17-1-.36-2c-.12-.67-.25-1.3-.37-1.94s-.25-1.26-.38-1.87-.26-1.16-.37-1.71c-.09.53-.19,1.09-.31,1.68s-.26,1.23-.4,1.87-.32,1.29-.47,2l-.51,2h-1c-.16-.73-.35-1.56-.52-2.27l-.56-2.32c-.18-.76-.39-1.55-.57-2.22s-.39-1.39-.58-2h.87c.33,1.17.66,2.4,1,3.69s.62,2.67.93,4.17c.14-.56.3-1.2.45-1.87s.33-1.37.48-2.07.31-1.4.45-2.07.25-1.29.36-1.85h.78l.42,1.85c.14.67.3,1.34.44,2s.29,1.38.42,2.07S231.8,153.09,231.88,153.75Z"/><path d="M245.69,153.75c.22-.74.41-1.44.58-2.09s.34-1.31.48-1.93.31-1.24.45-1.86.28-1.29.42-2h.76c-.32,1.48-.67,2.94-1,4.4s-.77,2.91-1.19,4.39h-1c-.09-.65-.21-1.31-.34-2s-.23-1.3-.37-1.94-.25-1.26-.39-1.87-.25-1.16-.36-1.71c-.09.53-.19,1.09-.31,1.68s-.25,1.23-.4,1.87-.3,1.29-.47,2l-.51,2h-1c-.18-.73-.35-1.56-.52-2.27l-.56-2.32c-.2-.76-.39-1.55-.57-2.22s-.39-1.39-.58-2h.87c.33,1.17.66,2.4,1,3.69s.62,2.67.93,4.17c.14-.56.3-1.2.45-1.87s.33-1.37.48-2.07.31-1.4.45-2.07.27-1.29.35-1.85h.81c.1.56.24,1.17.4,1.85s.3,1.34.44,2,.29,1.38.42,2.07S245.62,153.09,245.69,153.75Z"/><path d="M259.52,153.75c.2-.74.39-1.44.56-2.09l.5-1.93c.15-.62.29-1.24.43-1.86s.28-1.29.42-2h.81c-.33,1.48-.67,2.94-1,4.4s-.76,2.91-1.18,4.39h-1c-.11-.65-.24-1.31-.34-2l-.38-1.94c-.14-.64-.26-1.26-.39-1.87s-.26-1.16-.37-1.71c-.09.53-.19,1.09-.31,1.68s-.25,1.23-.41,1.87-.29,1.29-.46,2l-.52,2h-1c-.15-.73-.32-1.56-.51-2.27l-.56-2.32c-.19-.76-.37-1.55-.57-2.22s-.39-1.39-.58-2h.87c.33,1.17.65,2.4,1,3.69s.62,2.67.93,4.17c.14-.56.29-1.2.45-1.87s.33-1.37.48-2.07.31-1.4.45-2.07.27-1.29.36-1.85H258c.11.56.25,1.17.41,1.85s.29,1.34.45,2,.28,1.38.4,2.07S259.43,153.09,259.52,153.75Z"/><path d="M266.7,153.31c.24,0,.39,0,.46.11a.92.92,0,0,1,.12.51c0,.28,0,.48-.12.56a.73.73,0,0,1-.46.11.56.56,0,0,1-.41-.11.84.84,0,0,1-.13-.56c0-.28,0-.45.13-.51A.56.56,0,0,1,266.7,153.31Z"/><path d="M275.48,154.79a5.48,5.48,0,0,1-1.56-.2,2.23,2.23,0,0,1-1.06-.75,4,4,0,0,1-.62-1.43,12.44,12.44,0,0,1,0-4.47,3.88,3.88,0,0,1,.62-1.41,2.36,2.36,0,0,1,1.06-.73,5.67,5.67,0,0,1,3.11,0,2.31,2.31,0,0,1,1.06.73,3.5,3.5,0,0,1,.62,1.41,12.44,12.44,0,0,1,0,4.47,3.65,3.65,0,0,1-.62,1.43,2.23,2.23,0,0,1-1.06.75A5.41,5.41,0,0,1,275.48,154.79Zm0-8.43a4,4,0,0,0-1.2.15,1.6,1.6,0,0,0-.78.55,2.73,2.73,0,0,0-.43,1.16,10,10,0,0,0-.14,2,10.07,10.07,0,0,0,.14,1.9,2.64,2.64,0,0,0,.43,1.15,1.53,1.53,0,0,0,.78.59,4.3,4.3,0,0,0,2.41,0,1.55,1.55,0,0,0,.81-.59,3,3,0,0,0,.43-1.15,10.07,10.07,0,0,0,.14-1.9,10,10,0,0,0-.14-2,2.86,2.86,0,0,0-.43-1.16,1.56,1.56,0,0,0-.81-.55A4.1,4.1,0,0,0,275.48,146.36Z"/><path d="M284.11,154.6v-8.79h3.34a2.09,2.09,0,0,1,1,.24,1.64,1.64,0,0,1,.66.62,2.89,2.89,0,0,1,.34.9,6.59,6.59,0,0,1,.09,1.09,4.88,4.88,0,0,1-.11,1,2.76,2.76,0,0,1-.34.86,1.76,1.76,0,0,1-.65.62,1.93,1.93,0,0,1-1,.23h-2.62v3.22Zm3.34-4a1,1,0,0,0,1-.54,2.8,2.8,0,0,0,.31-1.39,3.2,3.2,0,0,0-.31-1.55,1,1,0,0,0-.92-.56h-2.61v4.1Z"/><path d="M297.22,154.6h-.76v-8h-2.6v-.75h6v.75h-2.59Z"/><path d="M305.37,145.81v8.79h-.76v-8.79Z"/><path d="M311.7,154.6h-.78v-8.79h.78Zm3.81,0c-.45-.71-.89-1.37-1.29-1.93s-.76-1-1.09-1.4a10.38,10.38,0,0,0-.85-.9,2.39,2.39,0,0,0-.56-.4c.14-.11.32-.27.57-.5s.51-.53.83-.89.63-.76,1-1.21.75-1,1.14-1.56h1c-.41.58-.8,1.08-1.15,1.56l-1,1.18c-.3.34-.54.62-.76.84a5.56,5.56,0,0,1-.5.47,5.57,5.57,0,0,1,.51.46,10.53,10.53,0,0,1,.83.94c.32.39.68.87,1.09,1.43s.81,1.21,1.26,1.93Z"/><path d="M326.82,154.6c-.14-.42-.3-.85-.44-1.31s-.31-.91-.46-1.4h-3.66c-.12.46-.26.91-.39,1.36l-.37,1.35h-.76c.42-1.55.87-2.94,1.33-4.38s1-2.93,1.48-4.41h1.32c.22.73.45,1.56.67,2.27l.72,2.34c.23.77.48,1.55.73,2.21s.47,1.38.7,2ZM324,146.51c-.28.8-.54,1.58-.79,2.34s-.5,1.55-.73,2.28h3.11c-.23-.74-.47-1.55-.68-2.28s-.46-1.56-.66-2.34Z"/><path d="M337.53,145.81v.75h-4.27V150h3.11v.76h-3.11v3.89h-.78v-8.79Z"/><path d="M347.41,145.81v.75h-4.29v3h3.11v.76h-3.11v3.57h4.35v.75h-5.13v-8.79Z"/><path d="M353.12,154.6h-.78v-8.79h1.06c.67,1.17,1.33,2.38,2,3.66s1.26,2.52,1.85,3.79v-7.45h.8v8.79h-.91c-.59-1.29-1.21-2.6-1.88-3.92s-1.35-2.64-2.08-4Z"/><path d="M364.35,145.81v8.79h-.78v-8.79Z"/><path d="M375.78,145.81c-.44.72-.89,1.43-1.34,2.15l-1.35,2.15,1.41,2.25c.49.75.94,1.56,1.39,2.24H375l-1.16-1.88c-.39-.62-.78-1.26-1.18-1.88l-1.26,1.91-1.23,1.85h-.91l1.56-2.22,1.45-2.23c-.47-.73-1-1.44-1.42-2.16l-1.43-2.18h.93l1.17,1.73,1.21,1.87,1.14-1.81,1.12-1.79Z"/><path d="M381.05,153.31a.65.65,0,0,1,.45.11c.1,0,.13.23.13.51s0,.48-.13.56a.65.65,0,0,1-.45.11.57.57,0,0,1-.42-.11.83.83,0,0,1-.12-.56c0-.28,0-.45.12-.51A.57.57,0,0,1,381.05,153.31Z"/><path d="M386.43,150.12a9.73,9.73,0,0,1,.22-2.22,3.36,3.36,0,0,1,.62-1.39,2.14,2.14,0,0,1,1.08-.71,4.75,4.75,0,0,1,1.55-.2,6.35,6.35,0,0,1,1.07.09,4.82,4.82,0,0,1,1,.25l-.24.81-.39-.13-.49-.11h-1a4.86,4.86,0,0,0-1.2.14,1.42,1.42,0,0,0-.81.52,2.76,2.76,0,0,0-.45,1.12,11.44,11.44,0,0,0-.14,1.94,11.68,11.68,0,0,0,.14,2,3,3,0,0,0,.45,1.17,1.63,1.63,0,0,0,.81.56,4.86,4.86,0,0,0,1.2.14h1l.47-.31.39-.14.25.8a6,6,0,0,1-1,.27,6.56,6.56,0,0,1-1.08.09,4.81,4.81,0,0,1-1.55-.22,2.32,2.32,0,0,1-1.07-.76,3.75,3.75,0,0,1-.63-1.43A10.55,10.55,0,0,1,386.43,150.12Z"/><path d="M396.39,154.24l1.26-1.86,1.26-1.95c.42-.65.82-1.3,1.22-2l1.17-1.91h-4.67v-.75h5.76v.33c-.78,1.35-1.56,2.69-2.43,4s-1.66,2.55-2.49,3.71h4.67v.75h-5.85Z"/><path d="M161.72,118.74c0-11.19,6.35-18.28,15.56-18.28s15.55,7.09,15.55,18.28S186.44,137,177.28,137,161.72,129.86,161.72,118.74Zm25.48,0c0-8.84-4-14-10-14s-9.86,5.1-9.86,14,4,14,9.91,14S187.2,127.49,187.2,118.74Z"/><path d="M195.36,101.41H200v6.75c2.36-5.06,6.06-7.78,10.65-7.78,7.55,0,13.35,7,13.35,18,0,11.34-6,18.27-13.69,18.27a11.4,11.4,0,0,1-10-6.22V148h-5Zm14,30.87c5.58,0,9.22-4.93,9.22-13.68s-3.56-13.55-9-13.55c-4.85,0-9,4.31-9,10.65v5.8C200.48,128.3,204.18,132.28,209.36,132.28Z"/><path d="M228.1,105.19H222v-3.78h6.06V93.2l5.2-.55v8.76h8.21v3.78H233.3v18.13c0,6.47.6,9.23,5.86,9.23a13.91,13.91,0,0,0,3.58-.41v4.33a19.72,19.72,0,0,1-4.33.52c-4.1,0-6.93-1.21-8.89-4.1-1.42-2-1.42-5.26-1.42-9.71Z"/><path d="M243.58,89.28h5.11v5.13h-5.11Zm0,12.13h5.11v34.65h-5.11Z"/><path d="M253.13,89.28h5.05V119l15.63-17.59h5.54l-10.64,11.32L281,136.06h-5.45l-10.24-19.64L258.2,124v12.07h-5.06Z"/><path d="M302.52,129.51a13,13,0,0,1-11.93,7.36c-7.07,0-11.86-4.45-11.86-10.51,0-7.78,7-11.87,20.82-11.87h3v-2.08c0-5.2-2.76-7.78-8.63-7.78-5.26,0-8.29,1.9-9.24,6l-4.91-.74c1.41-6.23,6.47-9.44,15-9.44,9,0,12.82,4.32,12.82,13.68V129a21.88,21.88,0,0,0,.93,7.1h-5.18A24.89,24.89,0,0,1,302.52,129.51Zm-4-11.12c-9.33,0-14.09,2.77-14.09,7.89,0,3.78,2.69,6.22,7.2,6.22,6.08,0,10.89-5.46,10.89-12.19v-1.78c-1.33-.11-2.67-.16-4-.14Z"/><path d="M320.71,108.16h-5.46v-6.73h5.46v-1.22c0-7.95,3.77-11.71,11.78-11.71a39.23,39.23,0,0,1,8.09.81v6.8a42.46,42.46,0,0,0-5.4-.47c-3.29,0-5,1.55-5,4.84v1h8.63v6.73h-8.43v27.9h-9.77Z"/><path d="M373.82,101.43h9.33V107a11.2,11.2,0,0,1,10.37-6.47c7.69,0,11.25,4.26,11.25,13.14v22.44h-10V114.29c0-4.25-1.56-6.47-4.67-6.47-3.58,0-6.22,3-6.22,7.77v20.47h-10Z"/><path d="M408.14,89.31h10.38V97H408.14Zm0,12.12h10.38v34.63H408.14Z"/><path d="M430.21,117.66l-10.7-16.23H431l5.54,9.84,6.1-9.84h8.69L441,117l12.56,19.08H441.82l-7.27-12.53-7.68,12.53h-8.63Z"/><path d="M366.15,104.22a33.71,33.71,0,0,1-10.89,2.43c-8.13.27-9.69-3.83-10.68-3.11a17.85,17.85,0,0,0-7.78,15.34c0,10.88,7.08,18.18,17.92,18.18,8.55,0,14.74-4.17,17.11-11.53l-9.77-.79a6.8,6.8,0,0,1-6.87,5.18c-4.78,0-7.55-3.3-7.55-9.33h24.25v-1.42C371.89,112.48,369.82,107.4,366.15,104.22Zm-18.52,10.64c.28-5,2.91-7.77,6.87-7.77,4.33,0,6.81,2.69,6.88,7.77Z"/><path d="M369,93.91s-4.94-.35-7.26,2.29a12.41,12.41,0,0,0-3.9-2,34.68,34.68,0,0,1-3.33,4.48,13.39,13.39,0,0,1-7.28,3.11A27.13,27.13,0,0,0,358.9,103C369.71,101.39,369,93.91,369,93.91Z"/><path d="M117.32,134.66c1-.87-1.45-11.1,8-17.22-6,9-1.79,12.56.11,11.3a39.31,39.31,0,0,0,9-8.08c8.79-10.09-1.73-31.69-7.78-36.84,9.07,25.63-5.63,30.48-8.21,31.71a16.42,16.42,0,0,0-8,8.66c-1.09-1.78-2.26-3.42-3.11-5a18,18,0,0,0-1.9-3.11s3.27,6.37-1.17,8.78c.84-.94,2.65-4.66-1.44-11.88-7.2-12.69.82-6.7-4-15.33a5.41,5.41,0,0,0-2.27,1.86c-2.7,3.69-2.56,7.62-1,11.7,1.83,4.82-.44,7.39-3.53,11.82a31.22,31.22,0,0,0-3.35,6.07.11.11,0,0,1,0-.08c.91-7.23-3-16.35-10.14-23.85-6.31-6.62-6.31-19-1.2-24.38A65.47,65.47,0,0,1,87.61,72S66.68,74.75,59.82,89.25c-5.43,11.44-3.31,20.22,2.7,25.29,3.3,2.81,6,5,8.54,7.1,1,.8-13.71-16.59-4.13-29.19-2.63,10.37,9.16,33.42,10.31,34.44l.34.31c6.92,7.65,4.48,16.17,5.09,15,.38-.79,2.17-1.12,3.78-4.51a39.59,39.59,0,0,0,1.91,16.24c3.28,0,3.28.3,8.46-2.67,1.69-3.88,3.53-7.14,6.42-14.19a.52.52,0,0,1,.11-.39,41.84,41.84,0,0,1-2.75,9.93c-.95,2.17-1.34,2.45-2,4.32,3.25-.47,4.67-.28,7.22-1.56a12.33,12.33,0,0,0,7.34-9.48A23.63,23.63,0,0,1,117.32,134.66Z"/><path d="M81.83,81.83c-5.54,1.24-7.34,9.11-3.91,16.42,1.15-1.55.84-.48,2.21-5.1C81.64,88.21,77.16,85.31,81.83,81.83Z"/><path d="M126.54,97.85c3.42-8.9-2-18.07-11.48-18.87C121.7,81.83,117,94.16,126.54,97.85Z"/><path d="M93.52,91.86c-1.12.47.66,1.56,3.49,2.89L106.34,99c-.2.25-1.12,1.12-1.32,1.37.4,1,2.94,1.46,4,1.38,2.58,6.13-.62,3-1.09,4.37l3.84,2.13.14-.14A29.93,29.93,0,0,0,108.36,97h-1.9C102.75,96.77,95.33,94.41,93.52,91.86Z"/><path d="M102.59,101.07c-.79,1.3-.42,4.66.71,7.77a20.8,20.8,0,0,0,5.4,7.78s-1.74-5.07-2.52-6.61c-.9-1.79-1.1-3,.34-4.67A7.09,7.09,0,0,1,102.59,101.07Z"/><path d="M100.8,94.64c1.28-4.37-6.92-3.82-9.07-8.72C91.83,89.68,98.13,94.29,100.8,94.64Z"/><path d="M121.24,136.22c-7.65,3.48-5.73,9.33-5.73,9.33s11.86-3.9,15.67-10.08a71.33,71.33,0,0,0,6.22-15.07,50.26,50.26,0,0,1-3.49,7.87C130.68,134.27,128.87,132.75,121.24,136.22Z"/><path d="M137.82,119s-.14.53-.41,1.37Z"/><path d="M58.5,113c-.25-.84-.39-1.37-.39-1.37A11.2,11.2,0,0,0,58.5,113Z"/><path d="M74.52,129c-7.62-3.53-9.43-2-12.62-8.1A50.36,50.36,0,0,1,58.5,113a70.93,70.93,0,0,0,6.12,15.1c3.78,6.22,15.56,10.15,15.56,10.15S82.15,132.45,74.52,129Z"/></svg>