<svg id="Layer_1" data-name="Layer 1" xmlns="http://www.w3.org/2000/svg" viewBox="0 0 510.24 226.77"><path d="M114.68,58.43V168.34H395.56V58.43ZM394.05,166.84H116.18V59.94H394.05Zm-216.41-91,.29,0,.19,0,.23.06.14.06.12.06a.41.41,0,0,1,.11.07l.14.1.09.08a1,1,0,0,1,.13.16l.06.08a1.26,1.26,0,0,1,.13.31,3.45,3.45,0,0,1-.56,2.41L156.6,119.07c-2.27,3.81-5.4,3.76-5.4,3.76H134.45l-3.25,6.47h62.93l3.7-6.47H180a1.2,1.2,0,0,1-.9-.35l-.08-.1s-.05-.06-.07-.1l0-.1a.87.87,0,0,1-.07-.17.49.49,0,0,1,0-.12.8.8,0,0,1,0-.23.57.57,0,0,1,0-.13c0-.1,0-.19,0-.3a6.77,6.77,0,0,1,.62-1.81.36.36,0,0,0,0-.09c.13-.27.29-.56.47-.87l2-3.59h0l19.21-34.4,0-.06,2.25,5.06,19.48,43.83h24.45l76.35-47.88-20.34,38.31c-2.1,3.32-4.73,3.09-4.73,3.09H281.24l-3.73,6.47h76.1l3.62-6.47H339.71c-1.9,0-2.76-.51-3.09-1.14a2.47,2.47,0,0,1-.17-.75h0a2.82,2.82,0,0,1,.21-1.09h0l0-.06s0-.09.05-.13l.21-.39,20.33-37.33v0c.12-.24.24-.45.36-.67l.15-.28.1-.18a14,14,0,0,1,.84-1.27c0-.06.08-.1.12-.15s.32-.37.49-.55l.31-.3.36-.32c.24-.19.5-.38.76-.55l.31-.19.35-.2.36-.18.61-.26.31-.1a5.52,5.52,0,0,1,.54-.16l.22-.06a6.86,6.86,0,0,1,.79-.14l.19,0a7.92,7.92,0,0,1,.85,0h14.74l4.21-7.34h-69.1L250.35,109.8,233.14,68.91H166.07l-3.39,7h15Zm182,5.71h0l-3.76,7c7.71,3.85,13.7,9.24,13.54,14.77-.21,7.07-7.33,12.41-19,17.42h10.24l0,0L357.75,126h0c16.79-6.15,27-14.26,27-22.62C384.74,95.32,375.4,87.64,359.68,81.57Zm-208.24,76c-.06-6.22-.09-11.13-.15-17.35.86.15.82.22,1.68.37,0-1.36,0-2,0-3.1-3.73-.72-5.12-1.09-8.83-1.87-1.78,5.29-2.67,11.07-4.45,19-1.84-8.11-2.75-14.54-4.56-20.94-3.75-.82-5.14-1.24-8.86-2.1v3.78c.85.17.8.26,1.65.43,0,7.48,0,13.71,0,21.2-.87,0-.82,0-1.68-.06v3.78h7.62c0-1.25,0-2,0-3.56-.93,0-.91,0-1.84-.06,0-7.19,0-13.1-.06-20.34,1.94,8.59,2.92,15.71,4.89,22.67l5.17.05c1.89-6.7,2.83-13,4.7-20,.06,6.45.08,11.55.14,18l-1.59,0c0,1.46,0,2.13,0,3.3h7.87c0-1.11,0-1.74,0-3.1Zm59.16.67c0-4.47,0-6.75,0-11.23.86,0,.82,0,1.68.07,0-1,0-1.39,0-2.38-3.65-.17-5-.28-8.64-.5v2.47l2,.12c0,1.69,0,2.55,0,4.28-2.86-.1-4.29-.16-7.15-.31,0-1.8,0-2.71,0-4.43l2,.15c0-1,0-1.52,0-2.48-3.65-.26-5-.42-8.64-.79,0,1,0,1.48,0,2.53.87.08.83.12,1.69.19,0,4.7,0,7.58.07,12.28l-1.68,0c0,1.06,0,1.57,0,2.53h8.6c0-1,0-1.46,0-2.48h-2c0-1.63,0-2.48,0-4.19,2.86.08,4.29.11,7.15.16,0,1.63,0,2.45,0,4h-2c0,1,0,1.5,0,2.47h8.61c0-1,0-1.48,0-2.47Zm37.07-12.45v1.81h1.94v8.13c-3-4.21-4.42-5.83-7.44-10.08-3-.09-4-.16-7.06-.25,0,1,0,1.12,0,2.08l1.68,0c0,4.32,0,6.48,0,10.8h-1.69c0,1,0,1.44,0,2.4h8.34v-2.38H241.1c0-3.31,0-5,0-8.27,3,4.29,4.56,6.41,7.6,10.66h5.21V147.6h1.55v-1.78C252,145.83,251.12,145.81,247.67,145.77ZM232.75,158.3c-1.81-4.35-2.71-6.53-4.52-10.92l2.19,0c0-1,0-1,0-2-5.74-.17-7.52-.35-13.37-.64v2.38l2.07.06c-1.78,4.38-2.67,6.58-4.45,11h-1c0,1,0,1.48,0,2.47h7.49v-2.39h-2.1l.85-2.33L227,156c.35.92.52,1.39.86,2.31h-2c0,1,0,1.43,0,2.38h7.9v-2.4Zm-11.94-4.76c.94-2.54,1.42-3.8,2.37-6.32h.54c.94,2.55,1.41,3.83,2.36,6.36Zm-53.34,1.62c0,1.12,0,1.67,0,2.71l-6.45-.12c0-2.23,0-3.52-.05-6.09,3.35.24,5,.36,8.38.57,0-1.52,0-2.29,0-3.81-3.36-.33-5-.51-8.39-.87,0-2.43,0-3.63-.06-5.75,2.57.41,3.86.61,6.43,1,0,1,0,1.55,0,2.66,1.67.21,2,.31,3.69.51,0-2.35,0-3.48,0-5.33-7.07-1.1-9.65-1.72-16.69-3.07,0,1.1,0,1.74,0,3.09.87.15.82.22,1.68.36.06,6,.09,10.65.16,16.65-.87,0-.82,0-1.69,0,0,1.35,0,2,0,3.09h16.69c0-1.87,0-3-.05-5.39Zm18.14-.56c0,1,0,1.45,0,2.38l-1.14,1-4.92-.06c-.53-.44-.79-.66-1.32-1.12,0-4.25-.05-6.89-.09-11.15.52-.39.78-.57,1.3-.94,2,.24,3,.35,4.94.57l1.15,1.09c0,.88,0,1.33,0,2.24,2,.17,2.94.24,4.9.39,0-1.42,0-2.12,0-3.45-1.29-1.13-1.94-1.69-3.23-2.76-4.29-.48-6.43-.76-10.72-1.37a35.56,35.56,0,0,0-3.25,2.14c.05,5.35.07,9.22.13,14.57a40.11,40.11,0,0,0,3.29,2.62h10.67c1.27-.92,1.91-1.42,3.19-2.41,0-1.36,0-2.08,0-3.53Zm71.24-7h2v10.73h-2v2.38h8.79v-2.38H263.7c0-4.3,0-6.45,0-10.75h1.94v-1.8c-3.91.05-4.9.07-8.8.08Zm125.59,9.33v-6.64c-.88-1.14-1.32-1.71-2.2-2.83.87-1.3,1.31-2,2.19-3.3v-7.68a24.4,24.4,0,0,0-3-2.63c-6.5,1.24-9.26,1.85-15.72,3,0,1.18,0,1.84,0,3.24.86-.14.82-.21,1.68-.35,0,6.42.05,11.27.08,17.68l-1.69.05c0,1.4,0,2.06,0,3.23h8.95c0-1.23,0-1.94,0-3.44l-2.38.06c0-2.44,0-3.83,0-6.62l6-.44,1.22,1.5c0,3.09,0,4.61,0,7.12.73.76,1.09,1.13,1.81,1.82H384V157l-1.46,0Zm-6.09-11.17-6,.64c0-3.14,0-4.73,0-7.45l6.09-1c.45.44.67.66,1.12,1.12,0,1.9,0,2.93,0,5Zm-96.25,6.79c2-2.08,2.94-3.12,4.9-5.23l1.62,0V145c-3.44.2-5.11.27-8.61.44v2l2.28,0-3.5,4.07-3.2-4,2.45,0v-2c-3.74.12-5.14.17-8.9.26v1.83h1.05c1.92,2.06,2.88,3.09,4.79,5.16-2,2.25-3,3.38-5,5.61H267c0,1,0,1.43,0,2.38h8.16v-2.4h-2.44c1.44-1.68,2.16-2.52,3.59-4.21,1.44,1.67,2.15,2.51,3.59,4.19h-2.64v2.4h9.46v-2.43h-1.43Zm81.31,5c-1.83-6.2-2.75-10.67-4.58-16.43,1.07-.16,1.12-.24,2.19-.41,0-1.36,0-2,0-3.15-5.73,1-7.63,1.48-13.34,2.36,0,1.06,0,1.65,0,2.88,1-.14,1.05-.21,2.06-.35-1.76,5.91-2.64,9.92-4.41,15.44l-1,0c0,1.2,0,1.78,0,2.83h7.5c0-1.07,0-1.66,0-2.91l-2.1,0c.34-1.2.51-1.84.85-3.16,2.83-.11,4.24-.17,7.07-.3.35,1.37.53,2,.88,3.3l-2,0c0,1.29,0,1.9,0,3h7.9c0-1.17,0-1.83,0-3.22Zm-12-6.4c.94-3.8,1.4-5.88,2.34-9.37l.54-.08c.95,3.23,1.43,5.24,2.39,9.07Zm-12.57,4.27c0,1.06,0,1.58,0,2.57l-6.44.08c0-1.95,0-3,0-5.15,3.34-.17,5-.26,8.36-.45,0-1.45,0-2.19,0-3.64-3.34.29-5,.43-8.36.68,0-2,0-3,0-4.86,2.56-.29,3.83-.44,6.39-.75,0,1,0,1.47,0,2.5,1.66-.17,2-.27,3.67-.45,0-2.35,0-3.48,0-5.4-7,1-9.58,1.49-16.6,2.24v2.59c.86-.08.82-.12,1.68-.21,0,4.91,0,8,0,13l-1.68,0v2.59h16.7c0-1.94,0-3.08,0-5.46C338.89,155.3,338.54,155.33,336.88,155.38Zm-21.77-11.83v2.52l2.34-.19c-.91,4.49-1.37,7.1-2.29,11.54-1.39-5.47-2.08-8.61-3.47-13.6-2.42.18-3.63.26-6.05.4-1.42,5.18-2.13,8.05-3.56,13.27-.9-4.22-1.35-6.36-2.25-10.52l2.41-.1c0-1,0-1.48,0-2.46-3.35.3-4.64.38-8,.6v2.13c.62,0,.45,0,1.08,0,1.37,5.41,2,8.15,3.42,13.6H305c1.38-5.14,2.07-8.07,3.45-13.51,1.36,5.27,2,8.39,3.4,13.51h6.07c1.38-5.4,2.08-9.16,3.45-15.17.64-.05.48-.08,1.11-.14V142.8C319.34,143.13,318.25,143.28,315.11,143.55Zm71.56-7.94h.68l.39,1h.44l-.41-1.05.35-.35v-.84l-.43-.43h-1.48v2.67h.46Zm0-1.31h.81l.2.19V135l-.21.21h-.8Zm1.92,3.26.81-.82v-3l-.81-.81h-2.85l-.82.81v3l.82.82Zm-3.19-3.69.53-.54h2.46l.54.54v2.76l-.54.54h-2.46l-.53-.54ZM140.63,120.82H150.8l.22,0a5.54,5.54,0,0,0,3.26-2.45h0l-.05,0c-8.6-4.49-13.55-9.47-13.55-14.9,0-8.67,12.17-16.07,32.26-21.81l1-.27,1.65-3.46H161.42c-22.14,6.55-36,15.57-36,25.52C125.41,109.69,130.69,115.5,140.63,120.82Zm96.91-48.43c6-.26,12.07-.4,18-.4a379.73,379.73,0,0,1,46.52,2.75l4.48-2.83,3.3-2.08-.61-.08a423.72,423.72,0,0,0-53.93-3.3c-6.56,0-13.25.15-19.85.43l-.75,0,2.47,5.5Zm91.74,61.36c3.07-.61,6.07-1.26,9-2v-.48H308.13a379.81,379.81,0,0,1-52.57,3.57,378.9,378.9,0,0,1-53.47-3.57H171.88v.49l.37.08c23,5.54,52.72,8.57,82.76,8.5h1.84C283,140.28,308.08,138,329.28,133.75Z"/></svg>