<svg id="Layer_1" data-name="Layer 1" xmlns="http://www.w3.org/2000/svg" viewBox="0 0 510.24 226.77"><defs><style>.cls-1{fill-rule:evenodd;}</style></defs><path class="cls-1" d="M443.49,125.28c-3.08-.41-5.43.64-9.27,0-.28-5.26-6-4.06-9.63-4-2.44,0-5.12-.57-7.06.27a5.11,5.11,0,0,0-3.08,3.71h-1.67a60.45,60.45,0,0,0,6.46-20,67.71,67.71,0,0,0,.56-10.65c4.1-2.46,7.13-5.59,3.94-8.4a15.91,15.91,0,0,0-5.12-2.77C415.9,69,408.39,55.05,394.76,49.85c-9.32-3.59-19.23-1.43-26.87,4.77-17.21,14-21.33,43.18-12.81,64.67h-3.64a7.14,7.14,0,0,0-5.68,2.47,5.15,5.15,0,0,0-4.3-2.27l-13.34.06a5.56,5.56,0,0,0-5.3,4.18l-1.13,4.17a4.79,4.79,0,0,0,1.4,5.32l-5.69,20.36c-1.13,3.88,1.77,6.92,5.52,6.92H327c3.22,0,6-.35,8.69-2.41,3.91,3.92,9.54,3,13.79,1.14a9.93,9.93,0,0,0,5.5.9,18.47,18.47,0,0,0,6.67-1.47c1.31,1.25,4.54,1.33,6.46,1.26a14.46,14.46,0,0,0,7.55-1.87c4.08,3.76,9.72,2,13.63-.16,5.31,3.76,15.49,2.57,20.23-.5,4.17,4.17,11.1,2.48,15.35.41,4.45,3.41,10.72,1.93,14.94.71,1.13-5,2.72-12.79,4.54-15.19,3.22.42,6.07-1,6.82-4l2.11-8.17C455,125,447.82,123.88,443.49,125.28Zm-25.84-18a57.61,57.61,0,0,1-6.33,18h0a11.7,11.7,0,0,0-3.32.49,13.18,13.18,0,0,0-3.4-.64h0c4.71-7,7.74-16.54,8.07-27.1a48.61,48.61,0,0,0,5.89-2.65A66.29,66.29,0,0,1,417.65,107.27ZM362.08,93c-2.43-.81-6-2.28-7.56-3.93a4.56,4.56,0,0,1-.92-1.42c-.21-.66-.18-1.14.46-.16a6,6,0,0,0,1.13,1.22,2.26,2.26,0,0,0,.31.23h0l.13.08.21.16.15.09c.61.4.93.09,1.92-.4a15.92,15.92,0,0,1,5.49-1.13c2.36-.09,3.67.66,2,.87-8.74,1.14-2.59,3.53-1.33,4.14a117.37,117.37,0,0,0,19.56,4c4.55.61,10.15.88,13.19,1.14,7.38.52,1.27.41-1.7.3-3.41-.13-7.22-.39-11.54-.86A108.52,108.52,0,0,1,362.08,93Zm10.86,25.89a35.9,35.9,0,0,1-3.82-13.7c-.12-3.32.41-2.6.67.09a46.48,46.48,0,0,0,3.7,13.53C374.48,121.05,374.51,122,372.94,118.86Zm6.72-36.81c-3.16-1.32-4.31-2.27.17-1.4a62.14,62.14,0,0,0,6.65.91,32.32,32.32,0,0,0,7.74,0,46.21,46.21,0,0,0,7-1.38c2.27-.6,2.5-.48.54,1a3,3,0,0,0-.63,4.06,3.73,3.73,0,0,0,3.41,1.14c3.61-.48,2.75.18-1.14,1.31a36.64,36.64,0,0,1-5.29,1.14,43.36,43.36,0,0,1-11.49.36,42.29,42.29,0,0,1-8.73-1.34c-5.39-1.66-3.17-1.4.15-1.45C383.19,86.16,385,84.26,379.66,82.05Zm23.55-6.36c-2,.25-5.34-.25-6.39-2.28s-.27-3.8.49-5.68c.41-1,1.14-1.83,1.21-.25a6.4,6.4,0,0,0,4,6.4C404.14,74.67,405.21,75.41,403.21,75.69Zm-3.41-15c-1.59,1.62-3.61,2.8-4.74,4.75a7.1,7.1,0,0,0-.88,3.8c.05,6.37-1.39,6.39-2.63.06-.88-4.47-4.69-6.09-8.18-7.95-1.83-.89-1.23-1.49,1.92-.23,9.09,3.65,6.69,4.19,14.35-1.64,2.33-1.64,1.65-.27.19,1.21Zm-14.87,8.92c6.5.66.95,2.13-1.57,3-7.26,2.64-11.92,3.24-12.5-2.7-.15-1.75-.85-6,1.4-6,2.76.08,4,3.54,6.31,4.55C380.49,69.46,382.76,69.4,384.93,69.61Zm6.89,51.85a11.82,11.82,0,0,1-3.74-.46,6.51,6.51,0,0,0-4.55.43c-.91.52-1,0,.32-1.37a14.1,14.1,0,0,1,4-3.14c1.75-.91,1.31.7,1.56,1.24a5.45,5.45,0,0,0,2.71,2.52C393,121.14,392.46,121.46,391.82,121.46Zm1.61.88c1-.16,1.38.11.43,1a5,5,0,0,1-4.47.69c-.74-.28-1.35-.61-1.31-1.13s.57-.69,1.13-.53a8.16,8.16,0,0,0,4.22,0Zm-8.24.13c1,0,1.22-.08,1.66,1,.2.47.4,1,.59,1.32.44.77.08,1.37,3.33,1.24,2.93-.14,2.7-1.07,4-2.62a6.33,6.33,0,0,1,1.79-1.63c1.22-.72,2.27.35,1.28,1.5-2.08,2.44-3.31,5.4-5.44,6.82-1.59,1-5.11,1.45-6.82.31a8.66,8.66,0,0,1-4.15-5.37c-.78-2.6,2.14-2.6,3.8-2.55Zm11.16-1.72c-1.58.68-2.28.17-.9-1.5.41-.53,4.42-3.86,3.73-4.55-1.31-1.24-1.44,2.77-3.26,1.58-1.56-1-2.83-1-4.74-1-.88,0-.8-1.13,0-1.39a10.82,10.82,0,0,0,2.75-1.3c1.53-1,2.46-1.84,2.54-3.59.22-5.84,1-5.59,2.17,1.24a9.05,9.05,0,0,0,.91,2.91c.82,1.44.9-.17,1.14-1.27.17-.71.44-.85,1.07-1.14a5.85,5.85,0,0,0,1.54-.91c.55-.53,2.33-3.48,2-1.06a21.54,21.54,0,0,1-1.83,5.87c-1,1.67-2.27-1.14-2.6-.61-.66,1-.5,3.79-1,5.84-.42,1.81-.33,1.29-1.4.65-.6-.33-1.21-.16-2.12.22Zm25.2-33.23c1.86.77.74.71-.84.44a32.93,32.93,0,0,0-9.76-.28c-2.65.36-2.28-.43-1.22-.89,1.63-.67.42-2.09,3.07-1.66a39.17,39.17,0,0,1,8.75,2.41ZM366,58.09c8.51-8.62,20.72-11.51,31.61-5.54S414.82,70.44,417.3,83a28.93,28.93,0,0,0-5.68-1,3.31,3.31,0,0,1-.55-.08,56.55,56.55,0,0,0-1.77-5.68c-.1-.41-.22-.81-.32-1.22-1.14-4.14-3.12-22.51-10.66-18.18-.81.46-1.62,1-2.5,1.53a19.59,19.59,0,0,0-10.38-3.08,19,19,0,0,0-8,1.8c-2.86-.17-5.6.21-7.43,1.69s-3.41,4-3.9,8.57a47.49,47.49,0,0,0-6.53,15.47,16.15,16.15,0,0,0-3.68,1,11.56,11.56,0,0,0-2.95,1.65C354.66,75,359,65.16,366,58.09ZM352.49,88.84a11.19,11.19,0,0,0,3.24,2.52c.87.54,1.68,1,2.46,1.37,0,1.13-.09,2.27-.09,3.41,0,11.7,3.32,22.29,8.64,29.75-1.77,0-3.64.17-5.18.16,1.54-3.16-1.58-6.66-4.91-6.69h-.13A63.58,63.58,0,0,1,352.49,88.84Zm99.73,42-1.86,7.48c-.68,2.68-2.62,4.33-6.38,3.82-1.87-.21-4.64,13.37-5.21,15.35-3.93,1.13-10.22,2.46-13.77-1.14-4.46,2.34-11.79,4.2-15.33-.6a15,15,0,0,1-7,2.83c-4.06.62-10.08.77-13.33-2.14-4.13,2.37-10.05,4.39-13.63,0-3.13,2.49-11.48,3.28-13.9.74-3.14,1.65-9.7,2.6-12.3.61-4.23,2-10.89,3.25-13.77-1.52a10.74,10.74,0,0,1-7.55,3h-4.54c-3.63,0-5.9-2.4-5.07-5.31l5.9-20.9a.61.61,0,0,1,0-.19,3.78,3.78,0,0,1-1.66-4.19c.79-3.41,1.13-7.79,5.33-7.82l13.32-.14c2.08,0,3.31,1.28,4,3.21,2.75-2.88,3.87-3.41,6.36-3.41l4.69.07c2.93,0,5.32,4,2.88,6.56,2.27.32,9.31-.65,10.77.61a14.42,14.42,0,0,1,7.68-1c1,.75,2,1.42,3.12,2.17.93.6,1.82,1.21,2.73,1.76h0a17.67,17.67,0,0,0-4.1,2.43c-.35-2.27-1.54-3.23-4.27-3.18s-5.13.94-8.31,3.19l.39-1.33.27-1c.11-.4-.19-.48-.58-.44s-.77.08-1.05.11c-1.2.13-2.27.18-3.5.21a26.93,26.93,0,0,1-4.11-.26.64.64,0,0,0-.71.46l-4.69,16.71a4.79,4.79,0,0,1-2.13.82c-1,0-1.14-.63-.54-2.69l.87-3.11a12.92,12.92,0,0,0,.62-2.37c.33-1.62.17-2.6-.5-3.27-.95-1-2.27-1.28-5.94-1.25l10.66-11.36a.33.33,0,0,0,0-.45.31.31,0,0,0-.2-.07h-5.78a.68.68,0,0,0-.45.17l-11.27,11.68c1-3.66,2.09-7.3,3.1-11a.61.61,0,0,0-.43-.77.47.47,0,0,0-.17,0l-7.19.08H328a.67.67,0,0,0-.6.48l-1.24,4.39a.32.32,0,0,0,.22.38h2.54l-1,3.72-6,21.17a.62.62,0,0,0,.43.77.57.57,0,0,0,.18,0h5.61c3.63,0,5.47-1.92,6.54-5.69l2.57-9.08,1-.07c2.81,0,2.95.35,1.56,5.28L339,148c-.88,3.1-1,4.11-.68,5.14.46,1.34,1.88,2.18,3.88,2.16,3,0,6.82-1.71,10-4.41l-.79,2.85c-.14.49.28.82.74.78l4-.33c3.72-.31,5.47-1.5,6.5-5.17l3.3-11.63a4.41,4.41,0,0,1,2.2-1.14c.69,0,.75.64.11,2.88l-4.08,14.45a.66.66,0,0,0,.5.77.65.65,0,0,0,.24,0l4-.33c3.07-.25,5.05-.58,6.35-5.18l3.3-11.62c1-.8,1.55-1.14,2.16-1.14.86,0,.88.41.19,2.91l-2.37,8.61c-.8,2.8-.95,3.87-.8,4.91a3,3,0,0,0,3.18,2.35c2.49,0,5.07-1.2,9.82-4.4a3.43,3.43,0,0,0,.54,2.6c.9,1.13,3.41,1.68,7.1,1.65,4.17,0,7.44-1.14,9.09-2.91,1-1,1.41-2.06,2.37-5.4l1.67-5.9a8.69,8.69,0,0,1-3.59,0l-1.64,5.82a8.07,8.07,0,0,1-1.06,2.76,2.86,2.86,0,0,1-2.32,1.14c-1.81,0-2.16-.87-1.46-3.41l2.61-9.29c.66-2.28,1.21-3.11,2.14-3.13a2.51,2.51,0,0,1,1.34.51l-.51,1.81c-.36,1.26-.41,2-.08,2.48a1.82,1.82,0,0,0,.74.51,5.3,5.3,0,0,0,.9.17,10.28,10.28,0,0,0,2.35-.08,13.08,13.08,0,0,0,1.73-.39,11.81,11.81,0,0,0,2.8-1.45l-2.87,10.14c-.86,3-.93,3.63-.64,4.47.39,1.2,1.92,2,3.92,1.95,3.24,0,6.74-1.45,10.58-4.28a3.62,3.62,0,0,0,.13,2.11c.53,1.38,2.17,2.12,4.67,2.09a18.87,18.87,0,0,0,4-.53c1.06-3.75,2.09-7.5,3.18-11.24a8.42,8.42,0,0,1,1.4-3.15,4,4,0,0,1,3.27-1.59,6.89,6.89,0,0,1,1.86.25.63.63,0,0,0,.78-.45h0l2.28-8a.31.31,0,0,0-.19-.38h-.34c-3.07-.15-5,1-6.16,3.18l.65-2.34a.3.3,0,0,0-.17-.4.31.31,0,0,0-.19,0,19.24,19.24,0,0,1-4.21.44,24.94,24.94,0,0,1-4.73-.36.61.61,0,0,0-.71.44l-4.74,16.83a12.21,12.21,0,0,1-3.56,1.22c-.89,0-1-.7-.44-2.69l3-10.62h2.38a.6.6,0,0,0,.6-.46l1.24-4.37a.29.29,0,0,0-.21-.37h-2.55l1.06-3.75a.33.33,0,0,0-.21-.4.25.25,0,0,0-.12,0A26.8,26.8,0,0,1,424,126a25.64,25.64,0,0,1-4.46-.28.66.66,0,0,0-.72.44l-2.41,8.56a4.75,4.75,0,0,1-2.13.9c-.55,0-.62-.55-.29-1.75l1-3.54a.3.3,0,0,0-.21-.39l-.12,0c-1.13.12-1.76.16-2.74.19-.81,0-1.62-.05-2.42-.13a.67.67,0,0,0-.68.46l-.26.93a9.26,9.26,0,0,0-5.53-1.66,9.83,9.83,0,0,0-5.84,1.79c-1.31,1-2,2.2-2.76,5l-3,10.71a5,5,0,0,1-2.28,1c-.67,0-.69-.61-.13-2.61l2.52-8.94c.72-2.53.89-3.83.61-4.77h0a8.58,8.58,0,0,0,3.31-2.93h0A13.86,13.86,0,0,1,408,127.1c.81-.46,6-.65,7.41-.49,1.43-5.08,5.13-3.84,9.09-4,4.38-.16,9.19-1,8.52,3.81,5.08.85,7.3-.43,10.56.16C447.18,125.31,453.52,125.64,452.22,130.8Z"/><polygon points="56.73 175.53 74.5 178.66 74.5 172.39 56.73 175.53"/><path d="M98.39,104.41c1.26-1.25-2.08-2.27-1.92-.11C96.6,105.83,98.12,104.68,98.39,104.41Z"/><path d="M103.72,98.46a7.15,7.15,0,0,0,3.41-2.1c2.51-3.58,4.54-7.47,4-7.4s-2.83,4-4.54,6.13a14.81,14.81,0,0,1-3,2.66C102.64,98.24,102.69,98.72,103.72,98.46Z"/><path d="M131.24,66.18c-1.87-.17-3.72-.26-5.55-.25A54,54,0,0,0,73.61,132.8V133c.22.86.46,1.73.72,2.57l.1.3c.25.81.52,1.62.82,2.41a1.14,1.14,0,0,0,.09.26h0c.15.4.28.81.44,1.21l2.06-.37c-.16-.39-.3-.8-.45-1.2L178,120.47v1.28l2.05-.38V120.1h0A54,54,0,0,0,131.24,66.18ZM95.33,92.47c4.42-7.86,13.43-12.19,22.34-14.27a35.27,35.27,0,0,1,6.38-1c4-.2,4.18-.37.52,1.14a29,29,0,0,0-7.76,4.77c-2.48,2.06-1.57,1.84.85.59,2.75-1.42,7.61-3.69,12.24-3.88,3.78-.17,3.33-.14.25.88a34.67,34.67,0,0,0-7.68,3.65c-.67.48-6.25,3.26,2,1.57a75.65,75.65,0,0,1,11.25-1.14c4.09-.06,5.68,0,.13,1.51-9.6,2.61-18.81,3.41-26.56,8.61-1,.65-1.23,2-2.06,2.65-1.51,1.23-2.34,1-2.27,1.84,0,1.34.3,2.6-.43,3.56-2-2.51-10.44-5.57-10.42-6.17A12.82,12.82,0,0,1,95.33,92.47Zm14.88,3.87c2.2.54,3.24,3.91,1.2,5.31a3.24,3.24,0,0,1-4.23-.64c-.63-.88-.64-2.35.15-1.13a2.28,2.28,0,0,0,3.12.8l.23-.17C112.92,98.65,108.51,96,110.21,96.34Zm-16,2.5a53.79,53.79,0,0,1,9.48,4.66c.33.47-1.14,0-1.72.24-1.13.36-2.38.93-3.73,1.47a1.87,1.87,0,0,1-2.34-.36,11.27,11.27,0,0,0-3.32-2.45C92.29,100.39,93.4,98.74,94.24,98.84ZM94.68,119c-4.87-4.68-7.17-12-2.84-15.81a7,7,0,0,1,2.34,1.65,6.51,6.51,0,0,0-2.28,3.68,7.37,7.37,0,0,0,0,4.55,17.05,17.05,0,0,0,2.75,5.17C95.57,119.53,96,120.28,94.68,119Zm1.56-4.55c-.37,1.06-.1,3.32-1,1.64-1.68-3.18-1.29-5.23,0-7.11,1.06-1.58,3.41-1.22,4.66-1.24,5.1,0,.22-1.3,9.09.17,4,.67,4.14,1,0,.78a22.77,22.77,0,0,0-7.66.8,8.1,8.1,0,0,0-5.1,5Zm13.41-.13a11.7,11.7,0,0,1-1.37,4.31c-.57.9-2.83,3.12-1.14.61a14.26,14.26,0,0,0,2-4.83C109.37,113.16,109.83,112.88,109.65,114.3Zm-7.24-4.14c3.78,1.14,4.87,2.53,5.46,6,.09.48-.86,2-1,1.33-.34-1.74-.48-3.63-1.49-5a7.6,7.6,0,0,0-3-2.27Zm3.41,16.1c-.9-2.27.3-4.33,2.61-6.25.63-.52.61-.12.08.58-1.31,1.82-2.27,2.77-2.4,5.45-.06.75-.11.75-.31.22Zm4.81,3c-1,1.24-2-2.27-2.88-4.88-.51-1.61-.07-1.89.62-.18.43,1.14.94,3.2,1.39,4.08.28.53.54.78.55-.26,0-2.54-.44-4.28-.19-6.47.28-2.54,1.3-4,2.43-6.15a9.66,9.66,0,0,0,1.07-4.78,5.75,5.75,0,0,1,.36-2.53c.28-.83.79-1.13.47.11a7.33,7.33,0,0,0-.11,2.72,9.66,9.66,0,0,1-1.13,4.65,32.44,32.44,0,0,0-2,4.64c-1,3.17.13,8.22-.58,9.05Zm1-5.53c-.16-4.55,3.72-8.5,5.38-9.32,1.85-.91,1.14-.52.17.69-2.63,3.41-4.88,5.9-5.1,10.16-.15,3.39-.44-.4-.48-1.53Zm7.84-1.14c-.73-.71-2.57-2.27-3.27-2.85-.12-.1,1-1.34,1.14-1.14a16.88,16.88,0,0,1,2.76,3.75c.54,1.51-.11.84-.66.3Zm6.45-2.4c-2.42-.78-4.7-2-7.51-2.8-.36-.1,1.61-2,2.15-1.72a25,25,0,0,1,6.06,4c1.32,1.21.87,1.13-.72.62Zm4.91-3.26a27.93,27.93,0,0,0-9.31-2.13c-.51,0,1.74-2.28,2.58-2.1a25.62,25.62,0,0,1,7.4,3.68c2.32,1.7,1.45,1.45-.7.61Zm29.87,3.67c-3.41-5.12-12.28-9.36-18-10.8-.89-.22-1.79-.08-1.13.29a72.85,72.85,0,0,1,7.21,4.55c4.1,3.17.2,1-2.63-.29s-6.25-2.92-8.84-3.79c-3.12-1,4.7,4.17,4.87,4.66-6.07-2.59-9.45-4.09-14-4.13-2.4,0-1.28-.35-.37-.87,5.56-3.24,14-4.55,19.51-2.19,5.25,2.18,10.59,5.49,14,12.39,2.14,4.44,1,2.78-.72.24Zm2.13-3.88c-3.65-4.55-8.71-7.58-14.88-10.23-6.67-2.9-15-1-21.66,1.82a64.89,64.89,0,0,0-7.79,3.87c-2.41,1.44-3,.64-.92-.87,2.42-1.73,2.11-2.86-.4-2.09-1,.29-1.13-.12-.3-.74,3.18-2.27,3-2.5-.47-1.25-1.22.43-1.14,0-.28-.83,1.93-1.86,3.95-3.12-.49-1.75-3.8,1.14-4.9,1.14-7.75-.06-1-.45-1.79,0-2-.21s1-.83,1.77-.59a6.29,6.29,0,0,0,4.82.07A6.09,6.09,0,0,0,116,97.71c-.36-4.4,1-1.35,5.31-4,3.67-2.27,5.59-2.69,10-3.5,2.82-.51,3-.21.17.82-5.45,2-7.73,2.62-11.88,6.65-1.36,1.33-.4,1.64,1.81.28a37.23,37.23,0,0,1,10.61-4.75c2.35-.75,2.71-.22.36.84a45.16,45.16,0,0,0-8.67,5.15c-3.68,2.85-4.1,4.1.84,1.55,5.68-2.92,6.88-3.8,12-5.1,4.89-1.24,5.34-.39.31,1.21-5.26,1.65-9.51,4.67-14.28,8.18-1.78,1.3-1.46,2.27.75,1.13,6.09-3.11,14.91-7.6,21.59-8.18,7.62-.66,3.91,1.47.65,2.27-2.76.7,2.4,3.32,3.41,3.79,8.15,3.8,12.49,8.63,14.55,12.18,2.3,4,1.42,3.29-.75.55Z"/><path d="M134.06,171.47c-.72.14-1.14-.18-1.14-.85a1.64,1.64,0,0,1,.31-1c.85.22,1.81.18,1.83.83s-.47.89-1,1m.22-4.63a.65.65,0,0,1,.85.7,1.65,1.65,0,0,1-.41,1c-.68-.13-1.3-.24-1.3-.8a.94.94,0,0,1,.86-.91m1.24,1.89a2.08,2.08,0,0,0,.75-1.5c0-1-.79-1.46-2.11-1.23a2.38,2.38,0,0,0-2.16,2.22,1.29,1.29,0,0,0,.55,1.14,2.43,2.43,0,0,0-.78,1.64c0,1.14.91,1.64,2.4,1.38s2.42-1.14,2.42-2.27a1.34,1.34,0,0,0-1.07-1.37m-4.55,3-2.75.52c1.69-1.31,2.7-2.5,2.7-3.75s-.88-1.8-2.41-1.53a10.53,10.53,0,0,0-2.05.62l.15.95a6.92,6.92,0,0,1,1.33-.37c.93-.17,1.42.1,1.42.88,0,1-1,2.08-2.9,3.73v.85l4.55-.79Zm-8.42-1.69a1.14,1.14,0,0,1,.87-1.27c.57-.1,1,.5,1,1.77a2.63,2.63,0,0,1-.93.39c-.59.1-1-.16-1-.89m.85-2.17a2.54,2.54,0,0,0-2.28,2.52c0,1.14.8,1.72,2.06,1.49a3.78,3.78,0,0,0,1.22-.43,2,2,0,0,1-1.75,1.9,5.15,5.15,0,0,1-1,.07l-.19,1a5,5,0,0,0,1.49-.07,3.7,3.7,0,0,0,3-3.9c0-2-1-2.86-2.53-2.59m-2.84,5.91-1.47.11v-5.14l-.1-.09h0l-3,.76v.85l1.62-.24v4.12l-1.62.44v.88l4.54-.8Z"/><path d="M108.63,153.56c0,1,.74,1.46,1.91,1.25a3.87,3.87,0,0,0,1.39-.54v-2.66l-1.63.29C109.17,152.1,108.63,152.63,108.63,153.56Z"/><path d="M56.69,143.17v31.05l138.62-24.44V118.72Zm35.92,17c-2.58.45-3.88-.76-4.65-4l-.43-1.64-1.51.27v4l1.19.09v2.08l-6,1.06v-2.08l1.23-.51V149.12L81.21,149V147l6.11-1.14v2.09l-1.3.55v4.09l1.76-.32,2.2-4.54H88.85v-2.07l5.92-1.06v2l-1.46.58-3.21,5.92.83,1.66c1.13,2.09,1.77,2.91,3.1,2.67a4.5,4.5,0,0,0,.63-.17l.16,2.16A11.48,11.48,0,0,1,92.61,160.13Zm11.59-10.95-.24.26a8.45,8.45,0,0,0-3.34.88v5.78l1.51.08v2l-6.08,1.07v-2l1.14-.48v-6.91l-1.14-.07v-2l3.82-.67.53,1.43a6.16,6.16,0,0,1,3.57-2.41l.23.2Zm12.39,6.46a9.64,9.64,0,0,1-2,.63c-1.14.19-1.89,0-2.27-.56a5.67,5.67,0,0,1-2.92,1.48c-2.4.42-4-.74-4-2.92s1.44-3.49,4-4l2.6-.45v-.35c0-1.41-.86-2-2.49-1.73a17.94,17.94,0,0,0-3.13,1l-.35-2.27a19.91,19.91,0,0,1,4.84-1.59c2.95-.52,4.54.49,4.54,3.15v5c0,.57.26.78.82.68a2.15,2.15,0,0,0,.5-.12Zm13.51-2.36-5.68,1v-2l1.14-.52v-5.53c0-.83-.48-1.2-1.39-1a5,5,0,0,0-1.78.71v6.44l1.13.08v2l-5.68,1v-2l1.14-.48V141.85l-1.14-.07v-2l4.23-1,.32.18v4.88a6.87,6.87,0,0,1,3.27-1.53c2.1-.36,3.29.56,3.29,2.53v6.37l1.14.08Zm13-2.27-3.55.62-.61-.86a7.1,7.1,0,0,1-3.58,1.85c-2.13.37-3.27-.55-3.27-2.59v-6.28l-1.14-.08v-2l4.31-.76.26.22V149c0,.81.5,1.21,1.38,1a4.24,4.24,0,0,0,1.73-.81v-6.5l-1.13-.15v-2l4.3-.76.26.22v9h1.14Zm7-1.24-5.69,1v-2l1.14-.49V137.18l-1.14-.08v-2l4.31-1,.26.2v13.38l1.14.08Zm7-1.23-5.68,1v-2l1.14-.48v-6.91l-1.14-.09v-2l4.32-.74.25.21v9l1.13.08ZM154.88,136l-2-.57,1.76-4.84,2.92.82Zm13.64,10.71c-2.28.39-3.41-.38-4.07-3.87l-.14-.74-1.45.27v2.77l1.13.08v2l-5.68,1v-2l1.14-.49v-11l-1.14-.08v-2l4.32-1,.25.21v8.49l1.45-.25,1.45-2.42-1.21.08v-2l5.68-1v2l-1.27.42-2.6,3.56.38.8c1,2.07,2,2.92,3.4,2.69l.24-.07.12,2.07a9.19,9.19,0,0,1-2.06.6Z"/></svg>