<svg id="Layer_1" data-name="Layer 1" xmlns="http://www.w3.org/2000/svg" viewBox="0 0 510.24 226.77"><path d="M358.32,102.82a25,25,0,0,0-19.59-14.4,34.41,34.41,0,0,0-6.8-.37,36.28,36.28,0,0,0-16,4.09,21,21,0,0,0-10.15,13,24.65,24.65,0,0,0-.22,13.2,19.66,19.66,0,0,0,2,4.9,24.24,24.24,0,0,0,11.77,10.26,34.62,34.62,0,0,0,11.78,2.91,33.17,33.17,0,0,0,19.67-4.8,18.27,18.27,0,0,0,6.42-7h0A25.85,25.85,0,0,0,358.32,102.82Zm-14.24,16a15.86,15.86,0,0,1-3.18,8.4,7.12,7.12,0,0,1-1.57,1.53,9.82,9.82,0,0,1-5.06,1.91,8.47,8.47,0,0,1-6.78-2.17,18.37,18.37,0,0,1-4.19-6.8,32.72,32.72,0,0,1-.19-22,10.07,10.07,0,0,1,.58-1.4,8.9,8.9,0,0,1,4.89-4.24,8.5,8.5,0,0,1,7.2,1.07,11.06,11.06,0,0,1,2,1.69,14.13,14.13,0,0,1,2.18,3A33.78,33.78,0,0,1,344.08,118.85Z"/><path d="M266.36,134.61l-.68-1.09a12.6,12.6,0,0,1-4.36-1,6.39,6.39,0,0,1-1.79-1.2,5.25,5.25,0,0,1-1.32-2.94,11.28,11.28,0,0,1-.09-1.42V97.82l11,28.05,14.95-28.05v36.79H305.5l-.58-1a13.73,13.73,0,0,1-3.18-.53,4.47,4.47,0,0,1-1.2-.54,2.43,2.43,0,0,1-.75-.78,4.72,4.72,0,0,1-.48-1.11,17.36,17.36,0,0,1-.65-4.8V89.05H281.07l-8.4,16.37-6-16.37H243.82l.88,1.2a5.85,5.85,0,0,1,3.51,2.5,7.92,7.92,0,0,1,1.38,4.47v37.37Z"/><path d="M238,134.61l5.06-12.35-1.68-1.33q-1.47,2.2-3.09,4.29a12,12,0,0,1-1.83,1.94,15.11,15.11,0,0,1-5.51,3,22,22,0,0,1-5.89.5l-3.72-.1a2.91,2.91,0,0,1-2.4-1.32,5.93,5.93,0,0,1-.94-2.56,9.82,9.82,0,0,1-.1-1.43V89.05h-19.2l.54,1.2A5.42,5.42,0,0,1,203.09,94a7.34,7.34,0,0,1,.33,2.18v38.39Z"/><path d="M192.12,134.61l4.36-11.78-1.36-.48a19.18,19.18,0,0,1-20.4,7.81,5.79,5.79,0,0,1-1.45-.5,6.08,6.08,0,0,1-2.27-2,6.71,6.71,0,0,1-.9-3.12V113.73h10.34a36,36,0,0,0,3.6-.11,5.22,5.22,0,0,0,1.24-.3,2,2,0,0,0,1.2-1.33,4.85,4.85,0,0,0,.17-.91v-6h-7.89a8.76,8.76,0,0,0-2.58.42,3.62,3.62,0,0,0-1.64,1.2c-.24.28-.5.56-.77.82a5.86,5.86,0,0,1-1.57,1,4.92,4.92,0,0,1-1.38.23H170v-10a5.77,5.77,0,0,1,1.61-4.19,6,6,0,0,1,4.29-1.67,21.15,21.15,0,0,1,14,5.37l2.83,2.48,1.82-.53-3.89-11.19H151.36v1.77a5.13,5.13,0,0,1,3.85,3.9,9.32,9.32,0,0,1,.25,2.17v37.72Z"/><path d="M377.81,75.14a19.16,19.16,0,0,0-14.1-6.67H127.57v68.82a26.76,26.76,0,0,0,2.27,11.53,15.65,15.65,0,0,0,10.53,8.57,27.76,27.76,0,0,0,7.43.91H260.58v-5.05H147.83a18.31,18.31,0,0,1-8-1.54,11.48,11.48,0,0,1-5.89-6.66,25.82,25.82,0,0,1-1.4-9.1V73.47H362.21a14.77,14.77,0,0,1,9.91,3.41,16.26,16.26,0,0,1,5,9.52,27,27,0,0,1,.41,4.66v62.19H360.19v5.05h22.48V89.91A22.81,22.81,0,0,0,377.81,75.14Z"/><path d="M364.51,93.16a7,7,0,1,0-7-7,7,7,0,0,0,7,7Zm0-12.88a5.9,5.9,0,1,1-5.9,5.9h0A5.9,5.9,0,0,1,364.51,80.28Z"/><path d="M363.1,86.92h1.68a.89.89,0,0,1,1.16.52.91.91,0,0,1,0,.54,8,8,0,0,0,0,1.2,2.29,2.29,0,0,0,.14.69h1.74v-.21a.43.43,0,0,1-.3-.31,3.18,3.18,0,0,1-.07-.75v-.66a2.36,2.36,0,0,0-.1-1,1.23,1.23,0,0,0-.78-.66,1.74,1.74,0,0,0,.87-.69,2.14,2.14,0,0,0-.24-2.58,2.36,2.36,0,0,0-1.8-.67h-3.83v7.54h1.54Zm0-3.3h2A1.08,1.08,0,0,1,366,84a.91.91,0,0,1,.23.65,1.11,1.11,0,0,1-.25.78,1.17,1.17,0,0,1-.86.27h-2Z"/><path d="M272.42,147.3a5.7,5.7,0,0,0-6,5.38v.1a5.38,5.38,0,0,0,5.38,5.37l.39,0c1.91,0,4.88-1.2,4.88-2.75,0-.39-.37-1-.81-1s-1.2.93-2.82.93c-1,0-2.4-.87-2.4-1.9,0-.35.33-.29.56-.29h4.6c.67,0,1.31-.18,1.31-1.55A4.8,4.8,0,0,0,272.42,147.3Zm-.12,3.81c-.55,0-1.27.17-1.27-.57a1.37,1.37,0,0,1,1.27-1.37,1.19,1.19,0,0,1,1.2,1.19v.13c.05.74-.64.62-1.2.62Z"/><path d="M285.44,155.53a5.83,5.83,0,0,1-.09-1.38v-4c0-2.95.28-5.22.28-5.69s-.17-1.08-.89-1.08c-.3,0-5.81.44-5.81,2.23,0,1.2,1.2.64,1.58,2.16a20.09,20.09,0,0,1,.14,3.29,22.65,22.65,0,0,1-.28,4.43c-.25.77-1.2.5-1.2,1.2,0,1.46,3,1.35,3.93,1.35s3.49.11,3.49-1.27C286.62,155.92,285.66,156.27,285.44,155.53Z"/><path d="M294,147.3a5.69,5.69,0,0,0-5.94,5.45v0a5.38,5.38,0,0,0,5.38,5.37l.39,0c1.91,0,4.88-1.2,4.88-2.75,0-.39-.37-1-.81-1s-1.2.93-2.82.93c-1,0-2.4-.87-2.4-1.9,0-.35.33-.29.56-.29h4.59c.67,0,1.3-.18,1.3-1.55A4.8,4.8,0,0,0,294,147.3Zm-.12,3.81c-.55,0-1.27.17-1.27-.57a1.37,1.37,0,0,1,1.27-1.37,1.19,1.19,0,0,1,1.2,1.19v.13c.05.74-.64.62-1.2.62Z"/><path d="M314.48,154.64c-.39-.48-2.88-3.44-2.88-4,0-.25.83-.66,1-.77,1.2-.75,2.05-.32,2.05-1.2,0-1.27-2.32-1.29-3.18-1.29s-2.89,0-2.89,1.14c0,.4.42.57.42.86s-1.36,1-1.69,1c-.52,0-.52-.52-.47-1.84l.11-4.36c0-.46,0-.8-.6-.8-1.12,0-5.91,1-5.91,2.4,0,1.2,1.64,0,1.64,1.73v2.95c0,.91-.11,2.87-.17,4.31-.06,1.74-1.2,1-1.2,2,0,1.37,2,1.3,3.7,1.3,3.3,0,3.45-.84,3.45-1.42,0-1-.93-.36-.87-2.18,0-.13,0-.59.22-.59s.72.71.8.83l2,2.46c.51.63.61.67,1.45.67h3c1.63,0,2.11-.55,2.11-1.2C316.59,155.78,315.43,155.79,314.48,154.64Z"/><path d="M326.86,154.62c-.38,0-.76.48-1.41.48s-1.2-.34-1.2-1.72v-3.07c0-.75,0-.77.78-.77h1.46c.82,0,1-.08,1-1.2,0-.92,0-1-.91-1h-1.48c-.54,0-.7,0-.76-.17a6.52,6.52,0,0,1-.06-1.53c0-.94,0-.86-.89-.86a1.69,1.69,0,0,0-1.1.23l-4.8,3c-.25.16-.19.39-.19.68,0,.47,0,.67.1.82s.38.08.93.08a2.89,2.89,0,0,1,.83,0c.1.06.1.2.1.58v4.24a3.6,3.6,0,0,0,3.45,3.75H323c2.13,0,4.54-1.2,4.54-2.57C327.58,155.19,327.28,154.62,326.86,154.62Z"/><path d="M338,147.36c-1.82,0-2.13,1.63-2.65,1.63s-.34-.48-.36-.72c-.08-.71-.1-.91-.9-.91-.19,0-5.15.45-5.15,2.08,0,1.2,1.31.12,1.31,2.15v1.2a10.23,10.23,0,0,1-.23,2.27c-.23.72-1.2.72-1.2,1.58,0,1.43,2.88,1.38,3.85,1.38,2.33,0,4.2-.09,4.2-1.4s-1.6-.67-1.74-1.58a17.32,17.32,0,0,1-.16-2.27c0-.37-.11-1.75.48-1.75s.93,1.2,2.31,1.2a2.55,2.55,0,0,0,2.59-2.48,2.26,2.26,0,0,0-2.14-2.38A.74.74,0,0,0,338,147.36Z"/><path d="M348.46,147.3c-3.49,0-6.81,2.08-6.81,5.77,0,3.26,2.67,5.06,5.8,5.06s6.83-2.06,6.83-5.45a5.56,5.56,0,0,0-5.71-5.39Zm0,8.23c-1.46-.09-1.85-3.27-1.93-4.56a1.1,1.1,0,0,1,1-1.2h.05c1.44,0,1.87,3.6,1.87,4.51,0,.62-.18,1.28-1,1.25Z"/></svg>