<svg id="Layer_1" data-name="Layer 1" xmlns="http://www.w3.org/2000/svg" viewBox="0 0 510.24 226.77"><path d="M166,104.67a8.52,8.52,0,0,0-3.15-2.4,10.69,10.69,0,0,0-4.42-.86,11,11,0,0,0-4.56,1A10.71,10.71,0,0,0,150.2,105a12,12,0,0,0-2.4,4.07,15.44,15.44,0,0,0,0,10.22,12.76,12.76,0,0,0,2.37,4,11.15,11.15,0,0,0,3.57,2.67,10.18,10.18,0,0,0,4.42.94,9.76,9.76,0,0,0,4.76-1.12,9.63,9.63,0,0,0,3.42-3.14l7.36,5.44a15.2,15.2,0,0,1-6.39,5.22,20,20,0,0,1-8,1.68,24.18,24.18,0,0,1-8.58-1.48,19.76,19.76,0,0,1-6.78-4.15,19.13,19.13,0,0,1-4.42-6.59,24,24,0,0,1,0-17.27A19.13,19.13,0,0,1,144,99a19.65,19.65,0,0,1,6.8-4.17,24.35,24.35,0,0,1,8.58-1.47,21.65,21.65,0,0,1,3.5.29,20.21,20.21,0,0,1,3.58,1,16,16,0,0,1,3.39,1.8,13.24,13.24,0,0,1,2.95,2.74Z"/><path d="M179,94.35h8.74v14.74h17V94.35h8.75V134h-8.75V116.89h-17V134H179Z"/><path d="M222.1,94.35h15.37a27.11,27.11,0,0,1,5.75.59,14,14,0,0,1,4.76,2,9.82,9.82,0,0,1,3.25,3.7,12.7,12.7,0,0,1,1.21,5.81,11.6,11.6,0,0,1-2.19,7.15,9.89,9.89,0,0,1-6.38,3.73L254,134H243.47l-8.3-15.86h-4.32V134H222.1Zm8.75,16.44H236a24,24,0,0,0,2.49-.09,7.84,7.84,0,0,0,2.39-.5,4.24,4.24,0,0,0,1.77-1.33,4,4,0,0,0,.69-2.52,4.3,4.3,0,0,0-.6-2.4,4.23,4.23,0,0,0-1.58-1.39,6.91,6.91,0,0,0-2.18-.63,16.32,16.32,0,0,0-2.42-.18h-5.72Z"/><path d="M256.86,114.21a22.42,22.42,0,0,1,1.6-8.64A19.08,19.08,0,0,1,262.88,99a19.57,19.57,0,0,1,6.78-4.17,26,26,0,0,1,17.15,0A19.52,19.52,0,0,1,293.6,99a18.85,18.85,0,0,1,4.42,6.59,23.93,23.93,0,0,1,0,17.27,18.85,18.85,0,0,1-4.42,6.59,19.52,19.52,0,0,1-6.79,4.17,26,26,0,0,1-17.15,0,19.57,19.57,0,0,1-6.78-4.17,19,19,0,0,1-4.42-6.59A22.4,22.4,0,0,1,256.86,114.21Zm9.08,0a14.66,14.66,0,0,0,.87,5.12,11.69,11.69,0,0,0,2.51,4,11.46,11.46,0,0,0,3.89,2.67,14.1,14.1,0,0,0,10.15,0,11.6,11.6,0,0,0,3.89-2.67,11.84,11.84,0,0,0,2.51-4,15.7,15.7,0,0,0,0-10.22,11.67,11.67,0,0,0-2.51-4.07,11.23,11.23,0,0,0-3.89-2.67,13.89,13.89,0,0,0-10.15,0,11,11,0,0,0-3.95,2.67,11.67,11.67,0,0,0-2.51,4.07A14.69,14.69,0,0,0,265.94,114.21Z"/><path d="M306.2,94.35h14.74a30,30,0,0,1,5.9.56,13,13,0,0,1,4.78,1.94,9.91,9.91,0,0,1,3.26,3.69,12.81,12.81,0,0,1,1.21,5.9,13.54,13.54,0,0,1-1.12,5.89,9.74,9.74,0,0,1-3.09,3.76,12.57,12.57,0,0,1-4.65,2,27.76,27.76,0,0,1-5.89.59h-6.4V134H306.2Zm8.74,16.82h5.9a11.57,11.57,0,0,0,2.27-.22,6.08,6.08,0,0,0,2-.75,3.9,3.9,0,0,0,1.4-1.48,4.69,4.69,0,0,0,.53-2.33,3.91,3.91,0,0,0-.7-2.43,4.65,4.65,0,0,0-1.79-1.47,7.65,7.65,0,0,0-2.43-.63,22.32,22.32,0,0,0-2.58-.15h-4.56Z"/><path d="M351.78,117.12,336.93,94.35h10.88l8.4,14.86,8.91-14.86h10.32l-14.81,22.77V134h-8.85Z"/><path d="M379,94.35h11.88l16.94,27.59h0V94.35h8.84V134H405.18l-17.35-28.24h-.1V134H379Z"/><path d="M425.56,94.35h27v8.08H434.31v7.37h17.2v8.07h-17.2V126h19.23V134h-28Zm10.23-11,3.53,4.42,3.47-4.42h7.57l-6.68,8.08h-9.13l-6.5-8.08Z"/><path d="M179,139.55h4.22l2.95,8.26h0l2.94-8.26h4.2v12.66h-2.78V142.5h0l-3.33,9.71H185l-3.2-9.71h0v9.71H179Z"/><path d="M196,139.55h8.59v2.57h-5.81v2.37h5.48v2.56h-5.48v2.58h6.13v2.58h-8.84Zm3.22-4,1.12,1.4,1.14-1.46h2.4l-2.12,2.58H198.8l-2.05-2.58Z"/><path d="M213.39,142.65a1.9,1.9,0,0,0-.91-.64,3.13,3.13,0,0,0-1.74-.14,2.82,2.82,0,0,0-.61.23,1.16,1.16,0,0,0-.45.4,1,1,0,0,0-.18.6.94.94,0,0,0,.43.87,4,4,0,0,0,1.07.53l1.48.43a5.38,5.38,0,0,1,1.47.61,3,3,0,0,1,1.5,2.83,4.07,4.07,0,0,1-.39,1.84A3.62,3.62,0,0,1,214,151.5a4.07,4.07,0,0,1-1.47.77,6.61,6.61,0,0,1-1.87.27,6.79,6.79,0,0,1-2.28-.39,5.84,5.84,0,0,1-2-1.21l2-2.19a3,3,0,0,0,1.08.9,3.14,3.14,0,0,0,1.35.31,3.1,3.1,0,0,0,.69-.09,2.22,2.22,0,0,0,.62-.24,1.18,1.18,0,0,0,.45-.41,1,1,0,0,0,.17-.59,1.07,1.07,0,0,0-.44-.9,4.17,4.17,0,0,0-1.11-.57c-.42-.15-.91-.31-1.47-.46a7.28,7.28,0,0,1-1.47-.62,3.31,3.31,0,0,1-1.09-1.05,2.94,2.94,0,0,1-.45-1.69,3.9,3.9,0,0,1,.4-1.78,4.24,4.24,0,0,1,1.08-1.3,4.41,4.41,0,0,1,1.47-.77,6.55,6.55,0,0,1,1.81-.26,7.61,7.61,0,0,1,2.07.29,4.87,4.87,0,0,1,1.81,1Z"/><path d="M219.85,142h-3.64v-2.46h10V142H222.6v10.2h-2.78Z"/><path d="M227,145.82a7.23,7.23,0,0,1,.51-2.76A6,6,0,0,1,229,141a5.86,5.86,0,0,1,2.16-1.34,8.36,8.36,0,0,1,5.47,0,5.9,5.9,0,0,1,2.17,1.34,6.15,6.15,0,0,1,1.47,2.09,7.59,7.59,0,0,1,0,5.51,5.91,5.91,0,0,1-3.58,3.44,8,8,0,0,1-2.74.47,7.73,7.73,0,0,1-2.73-.47,5.91,5.91,0,0,1-3.58-3.44A7.08,7.08,0,0,1,227,145.82Zm3,0a4.76,4.76,0,0,0,.26,1.63,4,4,0,0,0,.8,1.3,3.93,3.93,0,0,0,1.25.84,4.39,4.39,0,0,0,3.23,0,4,4,0,0,0,1.25-.84,4,4,0,0,0,.79-1.3,5.06,5.06,0,0,0,0-3.26,3.66,3.66,0,0,0-.79-1.29,3.83,3.83,0,0,0-1.25-.86,4.6,4.6,0,0,0-3.23,0,3.73,3.73,0,0,0-1.25.86,3.83,3.83,0,0,0-.8,1.29,4.76,4.76,0,0,0-.31,1.63Z"/><path d="M122.74,73.68H56.81V76.2l-.12,42.74v.63h0a34.24,34.24,0,0,0,68.46,0h0V119l.11-42.81V73.68ZM122.63,119h0a31.71,31.71,0,0,1-63.37,0h0l.12-42.81h63.36Z"/><path d="M95,89.82a.78.78,0,0,0-.78-.79.79.79,0,1,0,.78.79Z"/><path d="M67.24,120.23a.39.39,0,0,0-.12.53l0,0a23,23,0,0,0,19.16,9.89,23.39,23.39,0,0,0,12.23-3.31,2.63,2.63,0,0,0,1.47-3.14c-.33-.93-1.47-1.86-3.68-1.48a25.74,25.74,0,0,1-6.31.61h-.88a14.72,14.72,0,0,1-6.07-1.31,2.92,2.92,0,0,0,.23-1.2,3.28,3.28,0,0,0-3.27-3.3,3.32,3.32,0,0,0-2.11.75c-.28-.32-.56-.66-.82-1a.41.41,0,0,0-.56-.08h0a.38.38,0,0,0-.1.53l0,0a14.78,14.78,0,0,0,1.14,1.37l.3.32.29-.32a2.47,2.47,0,0,1,4.29,1.69,2.43,2.43,0,0,1-.32,1.21l-.21.37.4.19a15.71,15.71,0,0,0,6.78,1.47H90a25.52,25.52,0,0,0,6.46-.62,2.93,2.93,0,0,1,2.19.23,14.46,14.46,0,0,1-7.85,2.94,33.27,33.27,0,0,1-9.31-1.29h-.12l-2.95.88a.42.42,0,0,0-.2.55.42.42,0,0,0,.44.23l2.71-.82a34.45,34.45,0,0,0,8.91,1.29h.53a14.89,14.89,0,0,0,8.39-3.11v.09a1.87,1.87,0,0,1-1.09,2.2,22.95,22.95,0,0,1-30.32-6.32.38.38,0,0,0-.55-.11Z"/><path d="M81.66,87.69a.43.43,0,0,0-.49-.31,22.72,22.72,0,0,0-17.68,21.76v1.25a.39.39,0,0,0,.39.38h0a.41.41,0,0,0,.39-.43v-1.2a21.9,21.9,0,0,1,17.08-21A.43.43,0,0,0,81.66,87.69Z"/><path d="M72.42,126.81a.37.37,0,0,0-.48-.25h0a7.27,7.27,0,0,1-7.63-1.25c-.19-.22-.62-.77-.39-1.2s1.48-.94,4.13-.62a.39.39,0,0,0,.44-.34h0a.41.41,0,0,0-.35-.46c-3.42-.39-4.57.36-4.94,1.06a1.85,1.85,0,0,0,.5,2.1,7.51,7.51,0,0,0,5.4,2.06,8.7,8.7,0,0,0,3.14-.59.38.38,0,0,0,.23-.49Z"/><path d="M80,123.06a1.76,1.76,0,0,0,0-3.51h0a1.76,1.76,0,0,0,0,3.51Zm0-2.69a.94.94,0,1,1-.94.94h0A.94.94,0,0,1,80,120.37Z"/><path d="M84.4,94.32a.41.41,0,0,0-.34.74c4.07,1.87,6.26,2.42,7.5,2.42A1.84,1.84,0,0,0,93,97c.55-.56.51-1.47-.14-2.83a.42.42,0,0,0-.55-.17.4.4,0,0,0-.18.53c.46,1,.56,1.63.28,1.91S90.68,97.18,84.4,94.32Z"/><path d="M101.82,89.64a29.5,29.5,0,0,0,5.89-3l-.28,5-1.47.33a.4.4,0,1,0,.09.79h.09l2.06-.46.43-7.29-.68.47a32.21,32.21,0,0,1-6.32,3.3.42.42,0,0,0-.25.52A.39.39,0,0,0,101.82,89.64Z"/><path d="M65.06,109.47a.8.8,0,0,0,.78.8.8.8,0,1,0-.78-.81Z"/><path d="M68.25,102.27a.8.8,0,0,0-1.59,0,.8.8,0,1,0,1.59,0Z"/><path d="M67.13,106a.79.79,0,0,0-1.57,0,.78.78,0,0,0,.79.78h0A.81.81,0,0,0,67.13,106Z"/><path d="M69.31,99.17a.8.8,0,0,0,0,1.59.8.8,0,0,0,0-1.59Z"/><path d="M71.31,97.46a.78.78,0,1,0-.78.79h0A.8.8,0,0,0,71.31,97.46Z"/><path d="M72.2,95.33a.77.77,0,0,0,.76.79h0a.8.8,0,0,0,.68-.89.73.73,0,0,0-1.46.1Z"/><path d="M76.62,92.44a.77.77,0,0,0-.75-.78h0a.78.78,0,1,0,.78.78Z"/><path d="M74.73,95.33a.8.8,0,1,0,.81-.78h0A.79.79,0,0,0,74.73,95.33Z"/><path d="M70.1,104.69a.79.79,0,1,0-.68.68A.79.79,0,0,0,70.1,104.69Z"/><path d="M68.23,112.1a.78.78,0,0,0,.78-.78.77.77,0,0,0-.77-.78h0a.78.78,0,1,0,0,1.56Z"/><path d="M71.15,122.47a.78.78,0,1,0-.8-.78.79.79,0,0,0,.8.78Z"/><path d="M85.86,83A1.26,1.26,0,1,0,84.6,84.2h0A1.25,1.25,0,0,0,85.86,83Zm-1.68,0a.44.44,0,0,1,.44-.44h0a.45.45,0,0,1,.44.44.44.44,0,0,1-.44.44h0a.43.43,0,0,1-.44-.41Z"/><path d="M74.24,119.66h.24l.1-.22a11.72,11.72,0,0,1,3.1-3.51,11.24,11.24,0,0,0,4.92,1.28A13,13,0,0,0,87.49,116l.93-.35a7.54,7.54,0,0,0,2,7.28.39.39,0,0,0,.29.13.36.36,0,0,0,.28-.12.39.39,0,0,0,0-.56,6.69,6.69,0,0,1-1.57-7.07,11,11,0,0,1,5.44-.44c-.2,2.34,1,4.8,3.39,7.23a26,26,0,0,0,4.87,3.75l-8.84,8.66L92.86,133a5.28,5.28,0,0,0-7.37-.4l-.3.27,7,7.75,14.13-5v-.31s-.43-6.75,4.86-9.66A21,21,0,0,1,90.5,144.12c-7.37,0-12.82-4.29-16.06-7.88-1.09-1.2-2.18-1.67-2.79-1.18-.19.15-.74.78.34,2.31a26.12,26.12,0,0,0,21.32,11.11,25.34,25.34,0,0,0,25.63-24.95,24.88,24.88,0,0,0-12.08-21.22l2.37-5-.13-.19A24.24,24.24,0,0,0,93.56,87.5a.41.41,0,0,0-.47.31.42.42,0,0,0,.31.49,23.59,23.59,0,0,1,14.89,9l-2.15,4.58a26.25,26.25,0,0,0-5.63-2.37c-2.85-4.24-6.86-7.37-11.41-7.37a16,16,0,0,0-15.9,16.14,15.32,15.32,0,0,0,.31,3,.4.4,0,0,0,.4.34h0a.4.4,0,0,0,.31-.47h0a14.6,14.6,0,0,1-.28-3A15.16,15.16,0,0,1,89,93h.12c3.32,0,7.22,2.14,10.32,6.28a26.09,26.09,0,0,0-9.23-.53.4.4,0,0,0,.09.79,24.14,24.14,0,0,1,3.06-.17,25.37,25.37,0,0,1,6.78.92,26.37,26.37,0,0,1,3.33,7.68l.28,1.09,2.76-6a24,24,0,0,1,11.64,20.48A24.53,24.53,0,0,1,93.3,147.73,25.26,25.26,0,0,1,72.67,137c-.56-.78-.53-1.17-.5-1.21s.75,0,1.68,1.09c3.36,3.71,9,8.15,16.66,8.15a21.85,21.85,0,0,0,21.42-19.81,8.7,8.7,0,0,1,1.15-.41.41.41,0,1,0-.22-.78c-7.2,2.09-7.51,9.42-7.48,11l-13,4.68-6-6.74a4.44,4.44,0,0,1,6,.6l2,2.19,10.31-10-.48-.25c-.11,0-11-6-7.73-12.58a.39.39,0,0,0-.16-.54h0a.42.42,0,0,0-.55.2,6.75,6.75,0,0,0-.56,1.6,13,13,0,0,0-7.78,1.12c-2.59,1-4.85,1.9-8.84.13a14.23,14.23,0,0,1,2.27-1.23.4.4,0,0,0,.2-.53.4.4,0,0,0-.53-.21A13.5,13.5,0,0,0,74,118.86l-10.46.43-2.09-7.49A4.45,4.45,0,0,1,66.54,115l.12.41,6.64-2.28a.42.42,0,0,0,.26-.51h0a.4.4,0,0,0-.51-.25l-5.9,2a5.26,5.26,0,0,0-6.38-3.21l-.38.1,2.5,8.84Zm29.66-13a28.63,28.63,0,0,0-2.64-6.09,24.32,24.32,0,0,1,4.61,2Z"/><path d="M64.83,99.57h.09a.4.4,0,0,0,.29-.48h0l-1.86-7.8,5.16-7.55a4.42,4.42,0,0,1,.84,5.9l-1.47,2.08a.37.37,0,0,0,.07.53l0,0a.41.41,0,0,0,.56-.1h0L70,90.1a5.3,5.3,0,0,0-1.36-7.36h0l-.33-.22L62.48,91l1.94,8.23A.4.4,0,0,0,64.83,99.57Z"/><path d="M84,130.93l-3.41,1.77-3.14-3.37a.39.39,0,0,0-.56,0,.4.4,0,0,0,0,.57l3.55,3.83,4-2.06a.41.41,0,0,0,.19-.53v0a.41.41,0,0,0-.51-.24Z"/><path d="M76.69,88.34h.09a.39.39,0,0,0,.4-.31,10,10,0,0,1,2.15-4l.23-.26-.23-.27a1.09,1.09,0,0,1-.3-.75,1.16,1.16,0,0,1,1.15-1.15,1.12,1.12,0,0,1,.83.36l.23.25.28-.21a9.62,9.62,0,0,1,5.62-2,5.72,5.72,0,0,1,3.48,1.21l.29.22.25-.28a1.1,1.1,0,0,1,.86-.41,1.15,1.15,0,0,1,1.15,1.15,1.11,1.11,0,0,1-.52,1l-.32.21.19.34a7,7,0,0,1,.93,3.48.39.39,0,0,0,.39.4.4.4,0,0,0,.4-.4,7.8,7.8,0,0,0-.85-3.51A2,2,0,0,0,94,81.89a2,2,0,0,0-3.16-1.48,6.53,6.53,0,0,0-3.68-1.16,10.25,10.25,0,0,0-5.9,1.93,1.91,1.91,0,0,0-1.13-.37,2,2,0,0,0-2,2,2,2,0,0,0,.29,1,10.59,10.59,0,0,0-2.12,4.12.41.41,0,0,0,.37.43Z"/><path d="M82.69,87.83a2,2,0,0,0,.69,1.81,1.27,1.27,0,0,0,.64.16,5.1,5.1,0,0,0,2.1-.78,4.43,4.43,0,0,1,1.26-.55,4.66,4.66,0,0,1,1.19.46c.93.44,2,.94,2.71.49a1.71,1.71,0,0,0,.63-1.59c0-1.48-2-2.73-4.61-2.73S82.69,86.29,82.69,87.83Zm5-1.83a.54.54,0,0,1-.44.15.82.82,0,0,1-.43-.12.74.74,0,0,1,.43-.12A1.64,1.64,0,0,1,87.74,86Zm-1.69,0h0c0,.51.54.93,1.25.93s1.25-.42,1.25-.93h0c1.48.28,2.55,1,2.55,1.81,0,.47-.08.8-.25.9a4.86,4.86,0,0,1-1.93-.52,4.23,4.23,0,0,0-1.54-.54,4,4,0,0,0-1.64.63c-.66.37-1.58.86-1.93.65s-.31-.51-.31-1.12c.07-.81,1.09-1.52,2.55-1.8Z"/><path d="M90,83a1.25,1.25,0,1,0-1.25,1.25h0A1.25,1.25,0,0,0,90,83Zm-1.69,0a.45.45,0,0,1,.44-.44.44.44,0,0,1,.44.44h0a.42.42,0,0,1-.41.44h0A.44.44,0,0,1,88.35,83Z"/><path d="M90.63,101.18l2.18,1.07a.28.28,0,0,0,.18,0,.42.42,0,0,0,.37-.22.41.41,0,0,0-.19-.54l-2.23-1a.4.4,0,0,0-.54.19.4.4,0,0,0,.21.52Z"/><path d="M90.06,102.47a.4.4,0,0,0,.17.54h0l2.18,1.08h.18a.38.38,0,0,0,.35-.23.39.39,0,0,0-.16-.53h0l-2.18-1.06a.39.39,0,0,0-.53.18Z"/><path d="M96.39,101.61l-2.18-1.08a.4.4,0,0,0-.54.19.39.39,0,0,0,.19.53h0L96,102.33a.54.54,0,0,0,.18,0,.45.45,0,0,0,.37-.22A.42.42,0,0,0,96.39,101.61Z"/><path d="M95.23,103.08a.39.39,0,0,0,.15.52h0l2.18,1.08a.48.48,0,0,0,.17,0,.41.41,0,0,0,.37-.23.39.39,0,0,0-.17-.53h0l-2.18-1.08a.38.38,0,0,0-.51.19S95.24,103.06,95.23,103.08Z"/><path d="M100.14,102.83l-2.2-1.08a.39.39,0,0,0-.52.16v0a.39.39,0,0,0,.18.53l2.19,1.08a.28.28,0,0,0,.18,0,.39.39,0,0,0,.35-.22A.41.41,0,0,0,100.14,102.83Z"/><path d="M99,106.16a.41.41,0,0,0,.19.54l2.19,1.08a.48.48,0,0,0,.17,0,.41.41,0,0,0,.18-.77h0l-2.18-1A.41.41,0,0,0,99,106.16Z"/><path d="M108.63,107.4h.19a.41.41,0,0,0,.35-.24.39.39,0,0,0-.18-.53l-2.19-1.08a.39.39,0,0,0-.52.17v0a.4.4,0,0,0,.17.53Z"/><path d="M105.56,108.77a.4.4,0,0,0,.17.53h0l2.18,1.06a.28.28,0,0,0,.18,0,.36.36,0,0,0,.35-.22.4.4,0,0,0-.16-.54h0l-2.18-1.08a.41.41,0,0,0-.54.22Z"/><path d="M113.14,110.2,111,109.12a.4.4,0,0,0-.35.72l2.18,1.08a.54.54,0,0,0,.18,0,.4.4,0,0,0,.37-.24A.38.38,0,0,0,113.14,110.2Z"/><path d="M109.32,112a.39.39,0,0,0,.19.53h0l2.18,1.07a.54.54,0,0,0,.18,0,.41.41,0,0,0,.37-.23.39.39,0,0,0-.17-.52l0,0-2.18-1.07a.41.41,0,0,0-.54.22Z"/><path d="M115.33,114.5l-2.19-1.11a.38.38,0,0,0-.52.16l0,0a.43.43,0,0,0,.18.55l2.18,1.07h.19a.37.37,0,0,0,.36-.22A.42.42,0,0,0,115.33,114.5Z"/><path d="M114.11,117.3a.43.43,0,0,0-.19-.55l-2.18-1.07a.41.41,0,0,0-.54.17v0a.4.4,0,0,0,.19.53h0l2.18,1.08h.18A.46.46,0,0,0,114.11,117.3Z"/><path d="M103.26,110.45a.38.38,0,0,0-.52.16v0a.38.38,0,0,0,.16.52h0l2.18,1.08a.54.54,0,0,0,.18,0,.43.43,0,0,0,.36-.23.39.39,0,0,0-.17-.53h0Z"/><path d="M114.18,119.79l2.2,1.08h.17a.41.41,0,0,0,.36-.22.41.41,0,0,0-.18-.55l-2.21-1a.39.39,0,0,0-.53.18A.4.4,0,0,0,114.18,119.79Z"/><path d="M85.52,99.93a.41.41,0,0,0-.47.2.42.42,0,0,0,.19.55l2.18,1.07a.28.28,0,0,0,.18,0,.4.4,0,0,0,.36-.23.38.38,0,0,0-.16-.52h0Z"/><path d="M83.57,97.18a.42.42,0,0,0,.18.55L86,98.79h.17a.37.37,0,0,0,.36-.22A.42.42,0,0,0,86.3,98L84.12,97a.41.41,0,0,0-.54.22Z"/><path d="M83.22,101.4a.4.4,0,0,0,.19.54L85.59,103a.54.54,0,0,0,.18,0,.4.4,0,0,0,.37-.24.37.37,0,0,0-.17-.51l0,0-2.19-1.07a.41.41,0,0,0-.54.21Z"/><path d="M82.22,113.82a.41.41,0,0,0,.19.55l2.18,1.06h.18a.39.39,0,0,0,.42-.37.4.4,0,0,0-.25-.4l-2.18-1.07a.41.41,0,0,0-.54.22Z"/><path d="M86,112.16l-2.18-1.08a.43.43,0,0,0-.55.19.42.42,0,0,0,.2.55l2.18,1.06a.49.49,0,0,0,.17,0,.42.42,0,0,0,.37-.22A.4.4,0,0,0,86,112.16Z"/></svg>