<svg id="Layer_1" data-name="Layer 1" xmlns="http://www.w3.org/2000/svg" viewBox="0 0 510.24 226.77"><defs><style>.cls-1{fill-rule:evenodd;}</style></defs><path d="M233.23,170.08,242,155.29l-7-40.14h18L254,137.51l10.15-22.36h17.54l-32.08,54.93Zm-24.4-14,.75-4.52a22.78,22.78,0,0,1-6,4.28,14.84,14.84,0,0,1-6.22,1.32q-5.7,0-8.89-3.71T185.25,143q0-12.39,5.75-20.65c3.85-5.5,8.59-8.25,14.27-8.25a12.06,12.06,0,0,1,5.78,1.33,13.66,13.66,0,0,1,4.47,4.26l5.09-27.26h17.2L226,156.09Zm4.1-24.71a6.25,6.25,0,0,0-.86-3.63,3,3,0,0,0-2.59-1.2c-1.72,0-3.19,1.25-4.4,3.78a21.34,21.34,0,0,0-1.82,9.36,6.39,6.39,0,0,0,.81,3.63,3,3,0,0,0,2.56,1.13c1.73,0,3.24-1.27,4.46-3.79A21.12,21.12,0,0,0,212.93,131.38Zm-75,24.71,7.58-40.94h15.61l-.8,4.23a17.33,17.33,0,0,1,12.24-4.95q5.58,0,8.64,2.42a8.2,8.2,0,0,1,3.06,6.82,21.1,21.1,0,0,1-.14,2.36c-.1.87-.26,2-.51,3.36l-4.92,26.7h-17.3l4.49-24.15a3.62,3.62,0,0,1,0-.48c.1-.53.15-.83.15-.91a2.25,2.25,0,0,0-.75-1.8,3.13,3.13,0,0,0-2.11-.65,3,3,0,0,0-2.31,1,5.78,5.78,0,0,0-1.23,3l-4.49,24ZM110.06,135.7h7.62l.24-21.62ZM83.5,156.09l25.67-58.36h22.49l4.82,58.36H117.21l.1-8.6H106l-3,8.6Z"/><path d="M423.82,88.14h-9l-12.55,68h9Zm-34.95,68h9l7.66-41.35h-9l-.87,4.59h-.19a8.12,8.12,0,0,0-1.51-2.7,6.84,6.84,0,0,0-2.53-1.86,9,9,0,0,0-3.62-.68,11.65,11.65,0,0,0-5,1.06A12.41,12.41,0,0,0,379,118a18.13,18.13,0,0,0-2.74,4,29,29,0,0,0-1.92,4.53A45.94,45.94,0,0,0,373.1,131c-.34,1.46-.59,2.77-.8,3.93s-.45,2.45-.67,3.94-.37,3.07-.47,4.71a28.14,28.14,0,0,0,.16,4.79,13.14,13.14,0,0,0,1.19,4.24,7.16,7.16,0,0,0,2.64,3,8.35,8.35,0,0,0,4.52,1.16A11.67,11.67,0,0,0,384,156a9.4,9.4,0,0,0,3.09-2.08,21.93,21.93,0,0,0,2.54-3.15h.19Zm-4.22-6.22A4,4,0,0,1,382,149a4.54,4.54,0,0,1-1.35-2.16,10.22,10.22,0,0,1-.42-3,23.77,23.77,0,0,1,.19-3.26c.15-1.08.31-2.09.48-3s.34-1.68.47-2.26.23-1.33.39-2.24.39-1.91.64-3a29.38,29.38,0,0,1,1-3.23,14.7,14.7,0,0,1,1.51-3,7.59,7.59,0,0,1,2.14-2.16A5.26,5.26,0,0,1,390,121a3.33,3.33,0,0,1,2.37.83,4.65,4.65,0,0,1,1.21,2.17,11.12,11.12,0,0,1,.38,3,23.44,23.44,0,0,1-.16,3.24c-.12,1.09-.27,2.09-.43,3s-.29,1.65-.4,2.21-.22,1.29-.4,2.21-.39,1.91-.67,3a29.36,29.36,0,0,1-1.05,3.26,15.2,15.2,0,0,1-1.5,3,7.51,7.51,0,0,1-2,2.18A4.56,4.56,0,0,1,384.65,149.87ZM364.16,103l-2.2,11.7h-4.89l-1.15,6.06h4.89l-6.52,35.29h9l6.51-35.29h4.79l1.15-6.06H371l2.2-11.7Zm-10.54,12.85A13.45,13.45,0,0,0,350,114.5a18.24,18.24,0,0,0-4.18-.41,16.77,16.77,0,0,0-7,1.47,14.8,14.8,0,0,0-5.27,4,13,13,0,0,0-2.74,5.84,9.85,9.85,0,0,0,.22,4.9,9.56,9.56,0,0,0,2.14,3.56,22,22,0,0,0,3.14,2.73q1.71,1.2,3.21,2.37a9.32,9.32,0,0,1,2.33,2.53,4.4,4.4,0,0,1,.54,3.15,6,6,0,0,1-2.23,3.82,7.62,7.62,0,0,1-4.76,1.42,10.11,10.11,0,0,1-3.89-.72,13.75,13.75,0,0,1-3.1-1.9L327,154.78a15.72,15.72,0,0,0,2.3,1.13,11.38,11.38,0,0,0,2.36.63,17,17,0,0,0,2.81.21,18.65,18.65,0,0,0,7.71-1.57,14.42,14.42,0,0,0,8.38-10.71,10.67,10.67,0,0,0-.16-5,9.65,9.65,0,0,0-2.11-3.61,19.49,19.49,0,0,0-3.09-2.72c-1.14-.79-2.19-1.55-3.2-2.3a10.27,10.27,0,0,1-2.39-2.41,4.33,4.33,0,0,1-.64-3A4.82,4.82,0,0,1,340.3,123a6.62,6.62,0,0,1,2.49-1.5A9.17,9.17,0,0,1,346,121a9.69,9.69,0,0,1,2.29.28,11.25,11.25,0,0,1,2.2.77,8.68,8.68,0,0,1,1.83,1.16Zm-45.2-1.15h-9l-7.66,41.35h9l4.79-25.79c.16-.9.35-1.88.57-3a14,14,0,0,1,1-3,6.22,6.22,0,0,1,2-2.39,6.12,6.12,0,0,1,3.52-1,5.44,5.44,0,0,1,2.75.61,3.15,3.15,0,0,1,1.32,1.58,5.52,5.52,0,0,1,.32,2.12,11.15,11.15,0,0,1-.27,2.24l-5.27,28.57h9l5.26-28.41c.24-1.27.45-2.55.59-3.83a16.83,16.83,0,0,0,.07-3.67,7.37,7.37,0,0,0-1-3.13,5.59,5.59,0,0,0-2.52-2.16,11.39,11.39,0,0,0-4.55-.8,13.89,13.89,0,0,0-3.32.37,11.58,11.58,0,0,0-2.91,1.1,14.82,14.82,0,0,0-2.36,1.65,16.73,16.73,0,0,0-2.14,2.28h-.19Zm-16.56-7.36a7.68,7.68,0,0,0,5.6-2.56,5.25,5.25,0,0,0,1.29-2.6,3.85,3.85,0,0,0-.33-2.55,4.4,4.4,0,0,0-1.82-1.83,5.9,5.9,0,0,0-2.83-.7,7.77,7.77,0,0,0-3.18.7,7.25,7.25,0,0,0-2.48,1.83,5.61,5.61,0,0,0-1.33,2.55,4.19,4.19,0,0,0,.37,2.6,4.3,4.3,0,0,0,1.8,1.86A6.1,6.1,0,0,0,291.86,107.38Zm3.06,7.36h-9l-7.66,41.35h9Z"/><path class="cls-1" d="M304,97.94h36l59.57-41.25,27.22,18.53-2,8.44L400,66.84l-55.38,37.69-2.44.34H304.36a10,10,0,0,0,.26-1.08A9.77,9.77,0,0,0,304,97.94Zm-60.32,0h39.14a10.75,10.75,0,0,0-1.38,3.58,10.19,10.19,0,0,0-.05,3.35H242.25Z"/><path d="M304,97.94h36l59.57-41.25,27.22,18.53-2,8.44L400,66.84l-55.38,37.69-2.44.34H304.36a10,10,0,0,0,.26-1.08A9.77,9.77,0,0,0,304,97.94Zm-60.32,0h39.14a10.75,10.75,0,0,0-1.38,3.58,10.19,10.19,0,0,0-.05,3.35H242.25Z"/><polygon class="cls-1" points="147.83 97.94 213.73 97.94 212.3 104.87 146.44 104.87 147.83 97.94"/><polygon points="147.83 97.94 213.73 97.94 212.3 104.87 146.44 104.87 147.83 97.94"/></svg>