<svg xmlns="http://www.w3.org/2000/svg" viewBox="0 0 30 30"><defs><style>.cls-1{fill:#242650;}</style></defs><g id="Layer_2" data-name="Layer 2"><path class="cls-1" d="M22.4,24.94V2.81a.55.55,0,0,0-.55-.55H6a.55.55,0,0,0-.55.55V24.94a.55.55,0,0,0,.55.55H21.85A.55.55,0,0,0,22.4,24.94Zm-1.1-.55H6.52v-21H21.3Z"/><path class="cls-1" d="M24,4.51a.55.55,0,0,0-.55.55V26.64H8.15a.55.55,0,1,0,0,1.1H24a.55.55,0,0,0,.55-.55V5.06A.55.55,0,0,0,24,4.51Z"/><path class="cls-1" d="M9,7.9h9.77a.55.55,0,0,0,.55-.55.54.54,0,0,0-.55-.55H9a.54.54,0,0,0-.55.55A.55.55,0,0,0,9,7.9Z"/><path class="cls-1" d="M9,11.83h9.77a.55.55,0,0,0,.55-.55.54.54,0,0,0-.55-.55H9a.54.54,0,0,0-.55.55A.55.55,0,0,0,9,11.83Z"/><path class="cls-1" d="M9,15.76h7.07a.55.55,0,0,0,.55-.55.54.54,0,0,0-.55-.55H9a.54.54,0,0,0-.55.55A.55.55,0,0,0,9,15.76Z"/></g></svg>