<svg xmlns="http://www.w3.org/2000/svg" viewBox="0 0 30 30"><defs><style>.cls-1{fill:#242650;}</style></defs><g id="Layer_2" data-name="Layer 2"><path class="cls-1" d="M23.75,2.26H6.25a.55.55,0,0,0-.55.55V27.19a.55.55,0,0,0,.55.55h17.5a.55.55,0,0,0,.55-.55V2.81A.55.55,0,0,0,23.75,2.26ZM23.2,26.64H6.8V3.36H23.2Z"/><path class="cls-1" d="M9.89,21.23a.55.55,0,0,0,.55-.55v-4.6a3.27,3.27,0,0,0,2.71-3.21c0-1.9-2.56-4.76-2.86-5.08a.52.52,0,0,0-.6-.14.55.55,0,0,0-.35.51V20.68A.55.55,0,0,0,9.89,21.23Zm.55-11.54a7.15,7.15,0,0,1,1.61,3.18A2.16,2.16,0,0,1,10.44,15Z"/><path class="cls-1" d="M17.34,14.9v5.78a.55.55,0,0,0,.55.55.55.55,0,0,0,.55-.55V14.9a3.53,3.53,0,0,0,2.22-3.61c0-2.06-1.22-3.68-2.77-3.68s-2.78,1.62-2.78,3.68A3.54,3.54,0,0,0,17.34,14.9Zm.55-6.19c.91,0,1.67,1.18,1.67,2.58s-.76,2.58-1.67,2.58-1.68-1.18-1.68-2.58S17,8.71,17.89,8.71Z"/></g></svg>