<svg xmlns="http://www.w3.org/2000/svg" viewBox="0 0 30 30"><defs><style>.cls-1{fill:#242650;}</style></defs><g id="Layer_2" data-name="Layer 2"><path class="cls-1" d="M14.89,7.2A7.14,7.14,0,0,0,8,14.58a7,7,0,0,0,2.34,4.92,3.87,3.87,0,0,1,1.21,2.9v1.12a.55.55,0,0,0,.55.55H18a.55.55,0,0,0,.55-.55v-1a4.15,4.15,0,0,1,1.27-3.09,7.09,7.09,0,0,0,2.29-5.2,7,7,0,0,0-2.11-5A6.9,6.9,0,0,0,14.89,7.2ZM19,18.64a5.24,5.24,0,0,0-1.63,3.9V23H15.55V19.26l2.57-2.57a.55.55,0,0,0,0-.77.54.54,0,0,0-.78,0L15,18.25l-2.34-2.33a.54.54,0,0,0-.78,0,.55.55,0,0,0,0,.77l2.57,2.57V23H12.6V22.4A5,5,0,0,0,11,18.68a5.87,5.87,0,0,1-2-4.15,6,6,0,0,1,1.64-4.33A5.92,5.92,0,0,1,14.9,8.3H15a6,6,0,0,1,6,5.95A6,6,0,0,1,19,18.64Z"/><path class="cls-1" d="M17.8,24.8H12.2a.55.55,0,0,0-.55.55.55.55,0,0,0,.55.55h5.6a.55.55,0,0,0,.55-.55A.55.55,0,0,0,17.8,24.8Z"/><path class="cls-1" d="M16.32,26.64H13.68a.55.55,0,0,0,0,1.1h2.64a.55.55,0,0,0,0-1.1Z"/><path class="cls-1" d="M15,6a.55.55,0,0,0,.55-.55V2.81a.55.55,0,0,0-1.1,0V5.46A.55.55,0,0,0,15,6Z"/><path class="cls-1" d="M24.39,6.79a.56.56,0,0,0-.78-.09L21.54,8.35a.55.55,0,1,0,.68.86L24.3,7.56A.55.55,0,0,0,24.39,6.79Z"/><path class="cls-1" d="M26.44,13.7H23.79a.55.55,0,0,0,0,1.1h2.65a.55.55,0,1,0,0-1.1Z"/><path class="cls-1" d="M6.21,13.7H3.56a.55.55,0,1,0,0,1.1H6.21a.55.55,0,0,0,0-1.1Z"/><path class="cls-1" d="M8.6,9.06a.54.54,0,0,0-.09-.77l-2-1.67a.55.55,0,0,0-.7.86L7.82,9.15a.57.57,0,0,0,.35.12A.54.54,0,0,0,8.6,9.06Z"/></g></svg>