<svg xmlns="http://www.w3.org/2000/svg" viewBox="0 0 30 30"><defs><style>.cls-1{fill:#242650;}</style></defs><g id="Layer_2" data-name="Layer 2"><path class="cls-1" d="M24.44,5.24l-4.65-2.9a.55.55,0,0,0-.76.18L11.41,14.77a.47.47,0,0,0-.09.28l-.06,5.29a.54.54,0,0,0,.55.56.57.57,0,0,0,.25-.06l4.72-2.4a.45.45,0,0,0,.21-.2L24.62,6a.6.6,0,0,0,.07-.42A.61.61,0,0,0,24.44,5.24Zm-12,10.4a3.72,3.72,0,0,1,2,.55,3.64,3.64,0,0,1,1.37,1.54l-3.39,1.72Zm4.14,1.24a4.69,4.69,0,0,0-3.72-2.32l6.84-11,3.72,2.31Z"/><path class="cls-1" d="M21.29,13.32a.55.55,0,0,0-.55.55V26.64H6.4V6.22H15a.54.54,0,0,0,.54-.55A.55.55,0,0,0,15,5.12H5.85a.55.55,0,0,0-.55.55V27.19a.55.55,0,0,0,.55.55H21.29a.55.55,0,0,0,.55-.55V13.87A.55.55,0,0,0,21.29,13.32Z"/></g></svg>