<svg xmlns="http://www.w3.org/2000/svg" viewBox="0 0 30 30"><defs><style>.cls-1{fill:#242650;}</style></defs><g id="Layer_2" data-name="Layer 2"><path class="cls-1" d="M27.27,16.85l-1.63-.72a1.24,1.24,0,0,1,0-2.26l1.63-.72a.55.55,0,0,0,.31-.67l-.92-2.83A.55.55,0,0,0,26,9.28l-1.75.38A1.23,1.23,0,0,1,23,9.18,1.21,1.21,0,0,1,23,7.83l.89-1.54a.55.55,0,0,0-.15-.72L21.28,3.82a.54.54,0,0,0-.73.08L19.36,5.23a1.24,1.24,0,0,1-2.15-.7L17,2.76a.54.54,0,0,0-.54-.5h-3a.54.54,0,0,0-.54.5l-.18,1.77a1.24,1.24,0,0,1-2.15.7L9.45,3.9a.54.54,0,0,0-.73-.08L6.31,5.57a.54.54,0,0,0-.15.72l.89,1.54A1.19,1.19,0,0,1,7,9.18a1.21,1.21,0,0,1-1.25.48L4,9.28a.56.56,0,0,0-.64.37l-.92,2.83a.55.55,0,0,0,.31.67l1.63.72a1.24,1.24,0,0,1,0,2.26l-1.63.72a.55.55,0,0,0-.31.67l.92,2.83a.55.55,0,0,0,.64.37l1.75-.38a1.23,1.23,0,0,1,1.32,1.83l-.89,1.54a.54.54,0,0,0,.15.72l2.41,1.75a.54.54,0,0,0,.73-.08l1.19-1.33a1.24,1.24,0,0,1,2.15.7L13,27.24a.54.54,0,0,0,.54.5h3a.54.54,0,0,0,.54-.5l.18-1.77a1.23,1.23,0,0,1,.85-1,1.2,1.2,0,0,1,1.3.35l1.19,1.33a.54.54,0,0,0,.73.08l2.41-1.75a.55.55,0,0,0,.15-.72L23,22.17a1.23,1.23,0,0,1,1.32-1.83l1.75.38a.55.55,0,0,0,.64-.37l.92-2.83A.55.55,0,0,0,27.27,16.85Zm-1.51,2.69-1.25-.27A2.33,2.33,0,0,0,22,22.72l.65,1.11L21,25l-.86-1a2.3,2.3,0,0,0-2.46-.67,2.33,2.33,0,0,0-1.6,2L16,26.64H14l-.13-1.28A2.33,2.33,0,0,0,9.82,24L9,25l-1.6-1.17L8,22.72a2.27,2.27,0,0,0-.13-2.54,2.3,2.3,0,0,0-2.38-.91l-1.25.27-.62-1.89,1.18-.51a2.34,2.34,0,0,0,0-4.28l-1.18-.51.62-1.89,1.25.27a2.32,2.32,0,0,0,2.39-.91A2.28,2.28,0,0,0,8,7.28L7.36,6.17,9,5l.86,1a2.34,2.34,0,0,0,4.06-1.32L14,3.36h2l.13,1.28A2.34,2.34,0,0,0,20.18,6L21,5l1.6,1.17L22,7.28a2.33,2.33,0,0,0,2.52,3.45l1.25-.27.61,1.88h0l-1.18.51a2.34,2.34,0,0,0,0,4.28l1.18.51Z"/><path class="cls-1" d="M15,10a5,5,0,1,0,5,5A5,5,0,0,0,15,10Zm0,8.86A3.88,3.88,0,1,1,18.88,15,3.88,3.88,0,0,1,15,18.88Z"/></g></svg>