<svg xmlns="http://www.w3.org/2000/svg" viewBox="0 0 30 30"><defs><style>.cls-1{fill:#242650;}</style></defs><g id="Layer_2" data-name="Layer 2"><path class="cls-1" d="M22,7.18a.55.55,0,0,0-.55.55V24.27a2.37,2.37,0,0,1-2.37,2.37H10.9a2.37,2.37,0,0,1-2.37-2.37V7.73A.55.55,0,0,0,8,7.18a.55.55,0,0,0-.55.55V24.27a3.47,3.47,0,0,0,3.47,3.47h8.2a3.47,3.47,0,0,0,3.47-3.47V7.73A.55.55,0,0,0,22,7.18Z"/><path class="cls-1" d="M23.81,4.81H18.4v-2a.55.55,0,0,0-.55-.55h-5.7a.55.55,0,0,0-.55.55v2H6.19a.55.55,0,1,0,0,1.1H23.81a.55.55,0,1,0,0-1.1ZM12.69,3.36H17.3V4.81H12.69Z"/><path class="cls-1" d="M12.06,23.93V7.73a.55.55,0,0,0-.55-.55.55.55,0,0,0-.55.55v16.2a.55.55,0,0,0,.55.55A.55.55,0,0,0,12.06,23.93Z"/><path class="cls-1" d="M15.55,23.93V7.73a.55.55,0,0,0-1.1,0v16.2a.55.55,0,0,0,1.1,0Z"/><path class="cls-1" d="M19,23.93V7.73a.55.55,0,0,0-.55-.55.55.55,0,0,0-.55.55v16.2a.55.55,0,0,0,.55.55A.55.55,0,0,0,19,23.93Z"/></g></svg>