<svg id="Layer_1" data-name="Layer 1" xmlns="http://www.w3.org/2000/svg" viewBox="0 0 549.5 314.48"><defs><style>.cls-1{fill:#0fa;}</style></defs><title>dz_19_dzpage</title><path d="M71.7,157.17c-6,7-14.34,13-29.44,13H4.34V35.85H42.26c15.1,0,23.4,6,29.44,13,9.43,10.75,10,29.24,10,54S81.13,146.42,71.7,157.17Zm-20-91.32A10.65,10.65,0,0,0,41.7,60H31.13v86H41.7a10.65,10.65,0,0,0,10-5.85c3.21-6.23,3.21-22.45,3.21-37.36S54.91,72.08,51.7,65.85Z"/><path d="M103.2,170.19V35.85h61.89V60H130V90.38h30.19v24.15H130V146h35.1v24.15ZM144.33,27.36H125.09L105.09,0h18.49l11.13,14.53L145.84,0h18.49Z"/><path d="M229,60V170.19H202.25V60H179.61V35.85h72.07V60Z"/><path d="M67.17,304.48c-6,5.85-16.23,10-29.25,10-13.2,0-23-3.77-29.05-9.81C2.26,298.06,0,288.63,0,274.86H26.79c0,5.47.38,9.43,2.83,12.26,1.51,1.7,4.15,3.21,8.3,3.21s6.8-1.13,8.5-3.4c1.88-2.26,2.64-5.85,2.64-11.32,0-12.83-2.08-15.09-11.7-19.06l-17-7C6.79,243.91,1.13,236.74,1.13,215.8c0-12.45,4-22.83,12.08-29.81,6.41-5.47,14.53-8.49,24.71-8.49,11.89,0,20.57,3,26.42,8.49,7.36,6.79,10.38,17.54,10.38,31.13H47.93c0-4.72,0-9.06-2.27-12.08-1.51-2.07-3.77-3.39-7.74-3.39a9,9,0,0,0-7.73,3.58c-1.7,2.27-2.27,5.1-2.27,9.63,0,8.49,1.51,10.94,9.25,14.15L54,235.8c17,7,21.89,14.53,21.89,38.87C75.85,288.25,74.15,297.69,67.17,304.48Z"/><path d="M152.07,313l-19.25-49.06L124.14,282V313H97.35V178.63h26.79v57.74l25.47-57.74h26.8l-26.8,55.85L180.75,313Z"/><path d="M197,313V178.63h61.89v24.15h-35.1v30.38h30.19v24.15H223.75v31.51h35.1V313Zm57.42-142.83H237.77l14.34-27.36H272.3Z"/><path class="cls-1" d="M275.18,151.89l52.26-93.4H295.55l4.53-22.64H359l-3.59,18.3-52.26,93.4h34l-4.53,22.64H271.59Z"/><path class="cls-1" d="M408.38,170.19l.19-21.7H379.13l-8.68,21.7H343.28L402.9,35.85h24.91l6,134.34Zm0-97-20.19,52.64h20ZM425.92.75H446.3L424,27.74h-17Z"/><path class="cls-1" d="M460.63,35.85h27.93l-5.47,95.66,33.2-95.66h27.93L488.75,170.19H462.33Z"/><path class="cls-1" d="M305.74,187.69c7.17-7.17,15.47-10.57,28.11-10.57,14,0,22.27,4.91,26.8,13,3.39,6,4.34,10.94,4.34,19.43,0,8.3-1.89,21-5.1,36.23C352,284.29,348,295.23,339.33,303.91c-7.17,7.17-15.47,10.57-28.12,10.57-14,0-22.26-4.91-26.79-13-3.4-6-4.34-10.94-4.34-19.43,0-8.31,1.89-20.95,5.09-36.23C293.1,207.31,297.06,196.36,305.74,187.69Zm-.38,94c0,6.23,2.08,10.19,8.31,10.19a10.82,10.82,0,0,0,8.11-3.59c4.34-4.34,7.17-14.15,12.83-42.45,2.64-13.21,5.09-27.74,5.09-35.85,0-6.23-2.07-10.19-8.3-10.19a10.82,10.82,0,0,0-8.11,3.59c-4.34,4.33-7.17,14.15-12.83,42.45C307.82,259,305.36,273.54,305.36,281.65Z"/><path class="cls-1" d="M393.85,178.63h34.71c14.15,0,20.57,4.72,25.85,13.21,3.21,5.09,4.53,11.51,4.53,19.43,0,6-2.45,19.62-5.28,34.34-6.61,33-10.38,47-19.25,55.85C426.49,309.38,417.62,313,404,313h-37Zm12.26,111.7a13.17,13.17,0,0,0,11.51-5.85c4.15-6.23,7.74-24,10.76-38.87,2.45-12.07,5.28-26.6,5.28-34.34a10.9,10.9,0,0,0-2.45-7.36,8.52,8.52,0,0,0-6.61-2.64h-10l-17.73,89.06Z"/><path class="cls-1" d="M482.71,261.46l-8.49-82.83h26.23l1.32,49.81L522,178.63H549.5l-41.88,84.72L497.8,313H472.52Z"/></svg>