<svg id="Layer_1" data-name="Layer 1" xmlns="http://www.w3.org/2000/svg" viewBox="0 0 467.05 205.54">
<defs>
<style>.cls-1{fill:#1b1a19;}</style>
</defs><title>logo</title><path class="cls-1" d="M283.92,203.53L280,215.86c-1.84,5.8-4.94,8.66-9.38,8.66h-4.38c-4.43,0-5.72-2.87-3.87-8.66l9.57-30.12c1.84-5.8,4.94-8.66,9.38-8.66h4.28c4.43,0,5.71,2.86,3.87,8.66L286,196.67h-7l3.15-9.93c0.36-1.13.12-1.66-.75-1.66h-0.81c-0.86,0-1.44.53-1.8,1.66l-8.94,28.12c-0.36,1.13-.12,1.66.75,1.66h0.91c0.87,0,1.44-.53,1.8-1.66l3.6-11.33h7Z" transform="translate(-246.72 -177.08)"/><path class="cls-1" d="M308.37,247.86h-7.13l5.06-15.93L310,201.2h7.43l-2.64,15.86,7.59-15.86h6.78l-15.56,30.06Z" transform="translate(-246.72 -177.08)"/><path class="cls-1" d="M368,224.13l3.39-22.06-7,22.06h-7.13L372,177.48h7.13l-7,21.92,10.95-21.92h7.39l-12,22.92-3.06,23.72H368Z" transform="translate(-246.72 -177.08)"/><path class="cls-1" d="M423.27,201.2L411.1,239.52h5.14l-2.65,8.33H401.32l14.82-46.65h7.13Z" transform="translate(-246.72 -177.08)"/><path class="cls-1" d="M460.72,224.53h-4.59c-4.43,0-5.71-2.87-3.87-8.66l9.57-30.12c1.84-5.8,4.95-8.66,9.38-8.66h4.59c4.43,0,5.71,2.86,3.87,8.66l-9.57,30.12C468.25,221.66,465.15,224.53,460.72,224.53Zm10.75-39.45h-1c-0.87,0-1.44.53-1.8,1.66l-8.93,28.12c-0.36,1.13-.12,1.66.74,1.66h1c0.87,0,1.45-.53,1.81-1.66l8.94-28.12C472.57,185.61,472.33,185.08,471.47,185.08Z" transform="translate(-246.72 -177.08)"/><path class="cls-1" d="M512.36,231l-2.74,8.6c-1.84,5.8-4.94,8.66-9.37,8.66h-4c-4.43,0-5.71-2.86-3.87-8.66l3.16-9.93h7l-2.88,9.06c-0.36,1.13-.12,1.66.74,1.66h0.67c0.87,0,1.44-.53,1.8-1.66l1.78-5.6c0.47-1.47.34-2.2-.27-3l-4.23-5.93c-1.53-2.07-1.58-4-.52-7.33l2.35-7.4c1.84-5.8,4.94-8.67,9.38-8.67h3.87c4.43,0,5.72,2.86,3.88,8.67L516.38,218h-7l2.44-7.66c0.36-1.13.12-1.66-.74-1.66h-0.56c-0.87,0-1.45.53-1.81,1.66l-1.4,4.4c-0.46,1.46-.33,2.2.28,3l4.23,5.93C513.36,225.73,513.45,227.53,512.36,231Z" transform="translate(-246.72 -177.08)"/><path class="cls-1" d="M555.21,224.13h-7.13l14.83-46.65h10.44c4.43,0,5.72,2.86,3.88,8.66L573,199.27c-1.84,5.8-4.95,8.66-9.38,8.66h-3.31ZM569,185.48h-1.53l-4.59,14.46h1.53c0.86,0,1.44-.53,1.8-1.67l3.54-11.13C570.13,186,569.88,185.48,569,185.48Z" transform="translate(-246.72 -177.08)"/><path class="cls-1" d="M598.42,248.25h-4.59c-4.43,0-5.71-2.86-3.87-8.66l9.57-30.12c1.84-5.8,4.94-8.67,9.37-8.67h4.59c4.43,0,5.71,2.86,3.87,8.67l-9.57,30.12C606,245.39,602.86,248.25,598.42,248.25Zm10.75-39.45h-1c-0.87,0-1.44.54-1.81,1.67l-8.93,28.12c-0.36,1.13-.12,1.67.74,1.67h1c0.86,0,1.44-.54,1.8-1.67l8.94-28.12C610.28,209.33,610,208.8,609.18,208.8Z" transform="translate(-246.72 -177.08)"/><path class="cls-1" d="M668.79,208.07l-5.1,16.06h-7.13l5.08-16c0.36-1.13.12-1.67-.74-1.67h-1.78l-5.61,17.67h-7.14l14.83-46.65h10.65c4.43,0,5.72,2.86,3.88,8.66l-2.86,9c-1.27,4-3,6-5.26,6.93C669.52,202.87,669.87,204.67,668.79,208.07Zm-1.32-22.46h-1.73l-4.11,12.93h1.74c0.86,0,1.44-.53,1.8-1.67l3-9.6C668.57,186.14,668.33,185.61,667.46,185.61Z" transform="translate(-246.72 -177.08)"/><path class="cls-1" d="M687.48,247.86l12.18-38.32h-4.34L698,201.2h15.8l-2.64,8.33h-4.34l-12.17,38.32h-7.13Z" transform="translate(-246.72 -177.08)"/><path class="cls-1" d="M283.08,314.07l-5.75,16.6c-2.7,7.81-7.71,11.67-15.13,11.67h-7.34c-7.43,0-9.76-3.86-7.06-11.67l14-40.56c2.7-7.81,7.71-11.67,15.13-11.67h7.17c7.43,0,9.76,3.86,7.05,11.67l-5.09,14.71H274.33L279,291.46c0.52-1.53.09-2.24-1.36-2.24h-1.36a2.87,2.87,0,0,0-2.91,2.24l-13.1,37.86c-0.53,1.53-.09,2.25,1.36,2.25h1.53a2.87,2.87,0,0,0,2.91-2.25l5.28-15.25h11.77Z" transform="translate(-246.72 -177.08)"/><path class="cls-1" d="M304.88,315.54L311,297.83h8.36l-15.22,44h-8.36l6.37-18.4H298l-6.37,18.4h-8.36l15.22-44h8.36l-6.13,17.71h4.18Z" transform="translate(-246.72 -177.08)"/><path class="cls-1" d="M358.64,361l-7.48,21.62H339.21l7.46-21.53c0.53-1.53.09-2.25-1.36-2.25h-3l-8.23,23.78H322.15l21.74-62.81h17.83c7.43,0,9.76,3.86,7.05,11.66l-4.19,12.12c-1.87,5.38-4.67,8.07-8.35,9.32C359.53,354,360.23,356.42,358.64,361Zm-3.69-30.24H352l-6,17.41h2.9a2.87,2.87,0,0,0,2.91-2.24L356.3,333C356.83,331.48,356.4,330.76,354.95,330.76Z" transform="translate(-246.72 -177.08)"/><path class="cls-1" d="M414.73,342.34H407c-7.43,0-9.76-3.86-7.05-11.67l14-40.56c2.7-7.81,7.7-11.67,15.13-11.67h7.68c7.43,0,9.76,3.86,7.06,11.67l-14,40.56C427.15,338.48,422.15,342.34,414.73,342.34Zm15.4-53.12h-1.71a2.87,2.87,0,0,0-2.91,2.24L412.4,329.32c-0.53,1.53-.09,2.25,1.36,2.25h1.71a2.87,2.87,0,0,0,2.91-2.25l13.11-37.86C432,289.94,431.57,289.22,430.13,289.22Z" transform="translate(-246.72 -177.08)"/><path class="cls-1" d="M459.69,382.62H447.75l21.74-62.81H487c7.42,0,9.76,3.86,7.05,11.66l-6.12,17.67c-2.7,7.81-7.71,11.67-15.13,11.67h-5.55Zm20.58-52h-2.56L471,350h2.55a2.87,2.87,0,0,0,2.91-2.24l5.18-15C482.15,331.3,481.72,330.58,480.27,330.58Z" transform="translate(-246.72 -177.08)"/><path class="cls-1" d="M536.11,341.79H524.17l7.42-21.44L535.83,279h12.46l-3.38,21.35L556.57,279h11.35l-24.08,40.47Z" transform="translate(-246.72 -177.08)"/><path class="cls-1" d="M588.27,382.62l4.24-34.19-5.36,16L581,382.62H570.69l21.74-62.81h12.2L600.77,351l6.1-18.13,4.42-13h10.33l-21.75,62.81H588.27Z" transform="translate(-246.72 -177.08)"/><polygon class="cls-1" points="447.86 101.91 443.98 113.12 433.74 113.12 428.86 127.21 438.68 127.21 434.79 138.43 424.98 138.43 419.77 153.5 430.18 153.5 426.29 164.71 403.93 164.71 425.68 101.91 447.86 101.91"/>
<polygon class="cls-1" points="442.12 98.76 433.59 98.76 430.65 89.52 437.56 89.52 440 92.57 444.55 89.52 451.46 89.52 442.12 98.76"/></svg>