<svg id="Layer_1" data-name="Layer 1" xmlns="http://www.w3.org/2000/svg" viewBox="0 0 189.22 117.06"><title>logo</title><path d="M89.05,69.81c-.64-1.31-1.33-2.6-2.09-4.11h38.85c.53,0,1.06,0,1.59,0a3.34,3.34,0,0,0,3.23-2.76,10,10,0,0,0,.18-2.11q0-10.45,0-20.92c0-3.91-1.14-5-5.09-5H72.33c-.66,0-1.33-.08-2.16-.14a5.3,5.3,0,0,1,3.79-3A16.34,16.34,0,0,1,87,33c.53.29,1.09.53,1.69.82V25.25A19.26,19.26,0,0,0,86,24.46c-3.33-.5-6.65-1.14-10-1.32a28.29,28.29,0,0,0-11.15,1.61c-4.6,1.65-8,4.5-9.39,9.36a4.19,4.19,0,0,1-.44.75H36.51a15.82,15.82,0,0,0-1.95.07,3.49,3.49,0,0,0-3.35,3.3,9.64,9.64,0,0,0-.06,1.42q0,10.64,0,21.27a9.26,9.26,0,0,0,.23,2.1,3.24,3.24,0,0,0,3.11,2.67c.47,0,.94,0,1.42,0H71.35c1.18,1.65,2.33,3.15,3.36,4.73a41.56,41.56,0,0,1,2.5,4.28c2,3.92.68,7.51-3.29,9.35a10.59,10.59,0,0,1-1.65.63,18.4,18.4,0,0,1-15-2.15l-1.51-.89v9.28a16.9,16.9,0,0,0,8,2.77,45.17,45.17,0,0,0,12.18-.36,19.52,19.52,0,0,0,10.94-5,13.21,13.21,0,0,0,4.35-11.8A21.42,21.42,0,0,0,89.05,69.81ZM107.3,43A10.15,10.15,0,0,1,118,39c4.43.86,7,3.79,8.14,7.95a14.42,14.42,0,0,1,.19,6.31c-.74,4.44-5.26,9.09-10.72,8.71a10.62,10.62,0,0,1-10.5-9.77C104.76,48.91,105.18,45.73,107.3,43ZM54.56,50.63c-2.49.18-4.9.07-7.29.09h-7a6.22,6.22,0,0,0,5.87,7.13,14.18,14.18,0,0,0,6.53-1.36c.42-.2.83-.42,1.51-.77.11,1.66.19,3.06.28,4.49a4,4,0,0,1-.92.59,23.2,23.2,0,0,1-9.6,1.12,9,9,0,0,1-6.06-3.66c-3.38-4.1-3.13-12.26-.25-16A9.33,9.33,0,0,1,47,38.51c3.46.53,5.62,2.81,6.83,6A13.94,13.94,0,0,1,54.56,50.63ZM71.4,65.18c-4.53-5.89-9.71-11.35-13.32-18a19.19,19.19,0,0,1-2.71-9.94c0-.63.18-1.25.28-1.94H69.28c-.69,3.6.49,6.76,2.17,9.68a79.56,79.56,0,0,0,5,7.28c2.8,3.79,5.7,7.52,8.54,11.28.34.46.6,1,1,1.62Zm14.89-6.37a11.82,11.82,0,0,1-2.81-7.3,20.73,20.73,0,0,1,.57-5.77c1.71-6.75,8-9,13.73-6.94.55.2,1.08.47,1.77.78.65,1.72.29,3.4.32,5.2-.79-.47-1.43-.88-2.1-1.24-4.06-2.17-7.79-.69-9.3,3.68a9.56,9.56,0,0,0,0,6.25,6.36,6.36,0,0,0,8,4.22c1.18-.31,2.32-.79,3.73-1.28,0,.81.07,1.49.09,2.16s0,1.41,0,2C96.57,62.83,89.54,62.66,86.29,58.81Z"/><path d="M125,69.9l-8.58,15.57-2.87-5.33c.86-.35,1.6-.57,2.27-.93a5.06,5.06,0,0,0,2.63-5,4.48,4.48,0,0,0-3.66-4,21.06,21.06,0,0,0-6.41-.23c-1,5.33-2,10.51-3.06,15.85H108c.5-2.37,1-4.74,1.56-7.49l4.16,7.52h5.46l2.49-4.36h5.83l1,4.31h2.66C130,80.35,129,75.13,127.89,69.9Zm-15.39,7.64c.33-1.7.65-3.3,1-5.1.9,0,1.71,0,2.52,0a2.28,2.28,0,0,1,2.4,1.91,2.63,2.63,0,0,1-1.66,3A7.59,7.59,0,0,1,109.63,77.54Zm13.45,1.12,2.63-5.06h.37c.29,1.6.58,3.21.92,5Z"/><path d="M142.89,70.74c-2.66-1.29-5.46-.93-8.34-.78-1,5.29-2,10.42-3,15.64a2.81,2.81,0,0,0,.71.28c1.77,0,3.54.08,5.31,0,5.78-.26,9.43-4.65,8.59-10.37A5.87,5.87,0,0,0,142.89,70.74Zm-5.2,12.6c-.87,0-1.75,0-2.88,0,.32-3.77,1.28-7.24,1.91-10.85a28.59,28.59,0,0,1,3.6,0,3.35,3.35,0,0,1,2.78,2.19C144.49,78.21,142.69,83.15,137.69,83.34Z"/><path d="M149.78,70c-1,5.27-2,10.45-3.07,15.81h8.41l.38-2.45h-5.62c.31-1.53.56-2.82.86-4.32h5.66l.51-2.47h-5.72c.28-1.46.52-2.67.81-4.19h5.72c.12-.57.21-.91.26-1.26s.06-.66.1-1.12Z"/><path d="M106.79,70H97.58l-.49,2.31,3.32.32L97.93,85.79h2.6q1.34-6.65,2.65-13.27l3.28-.18Z"/><path d="M45.61,42.57a5,5,0,0,0-5.27,5.34h9.6C50.15,44.83,48.41,42.74,45.61,42.57Z"/><path d="M116.1,58.2a6,6,0,0,0,5.2-3.7,8.72,8.72,0,0,0-1.38-9.75,5.83,5.83,0,0,0-9,.47,9.22,9.22,0,0,0-.39,10.17A6,6,0,0,0,116.1,58.2Z"/></svg>