<svg id="Layer_1" data-name="Layer 1" xmlns="http://www.w3.org/2000/svg" viewBox="0 0 245.03 117.06"><defs><style>.cls-1{fill-rule:evenodd;}</style></defs><title>logo</title><path d="M204.2,73.57c.55,0,1-.06,1-.71s-.53-.6-1-.6h-.89v1.31Zm-.82,2.52h-.73V71.64h1.7c1.07,0,1.62.37,1.62,1.28a1.15,1.15,0,0,1-1.16,1.22l1.24,2h-.83l-1.14-1.9h-.7v1.9Zm.8-5.62a3.33,3.33,0,1,0,3.08,3.32,3.11,3.11,0,0,0-3.08-3.32Zm0,7.34a4,4,0,1,1,3.94-4,3.87,3.87,0,0,1-3.94,4Z"/><path class="cls-1" d="M59.7,57.89c4.17-8.29,21-8.83,30.41-2.89l7.27-15C64.24,34.21,35,45.59,33.14,60.3c-1,14.27,18,21,46,17.52l7.48-15.44c-11.11,5.66-30,5-26.89-4.49"/><path class="cls-1" d="M144.48,52.54,150,41C134.36,35.48,101,38.19,95.8,52.12c-4.85,14.3,29,8.4,24.2,14.19-4.07,3.5-19.4.41-24.52-3l-5.9,12.25C115.52,83,147.7,76.85,146.4,61.51c-2-10.38-27.38-6.63-25.41-10.95,2-2.3,16-2.72,23.49,2"/><polygon class="cls-1" points="157.01 38.38 150.75 51.35 166.6 51.35 153.41 78.72 177.92 78.72 191.2 51.35 205.62 51.35 211.93 38.38 157.01 38.38"/></svg>