<?xml version="1.0" encoding="utf-8"?>
<!-- Generator: Adobe Illustrator 26.0.2, SVG Export Plug-In . SVG Version: 6.00 Build 0)  -->
<svg version="1.1" id="Layer_1" xmlns="http://www.w3.org/2000/svg" xmlns:xlink="http://www.w3.org/1999/xlink" x="0px" y="0px"
	 viewBox="0 0 949.7 107.7" style="enable-background:new 0 0 949.7 107.7;" xml:space="preserve">
<style type="text/css">
	.st0{fill-rule:evenodd;clip-rule:evenodd;}
	.st1{fill:#231F20;}
</style>
<g>
	<path class="st0" d="M35.9,35.1h45.2c2.7,0,4-1.3,4-4V14c0-2.7-1.3-4-4-4H35.9V35.1z M152.5,18.1h69.2c8.4,0,12.6,4.2,12.6,12.6
		v0.6c0,8.3-4.2,12.5-12.6,12.5H116.3l8.6-8.7h73.4c2.7,0,4-1.3,4-3.8v-0.6c0-2.7-1.3-4-4-4h-69.3c-8.4,0-12.7-4.2-12.7-12.6l0,0
		c0-8.4,4.2-12.6,12.6-12.6h105.5l-8.6,8.6h-73.3c-2.7,0-4,1.3-4,4l0,0C148.5,16.8,149.8,18.1,152.5,18.1z M314.9,43.8h-62.2
		c-8.4,0-12.6-4.2-12.6-12.6V14c0-8.4,4.2-12.6,12.6-12.6h80.1l-8.6,8.6h-54.3c-2.7,0-4,1.3-4,4v17.1c0,2.7,1.3,4,4,4h45V22.6h35.9
		v40.6h-35.9V43.8z M35.9,43.8v19.4H0V1.4h98.3c8.4,0,12.6,4.2,12.6,12.6v17.1c0,8.4-4.2,12.6-12.6,12.6H35.9z"/>
	<path d="M345.9,6.6c0,0.6-0.4,0.8-0.9,0.8h-1.7l-0.1-0.1V5.8l0.1-0.1h1.7C345.6,5.8,345.9,5.9,345.9,6.6z M347.2,6.6
		c0-1.3-0.9-1.9-2.1-1.9h-3L342,4.8v6.1L342,11h1.1l0.1-0.1V8.5l0.1-0.1h1l0.2,0.1l1.8,2.3l0.2,0.1h0.5l0.1-0.1V10l-1.2-1.5V8.4
		C346.7,8.1,347.2,7.4,347.2,6.6z"/>
	<path class="st0" d="M344.4,3c2.7,0,4.9,2.2,4.9,4.9c0,2.7-2.2,4.9-4.9,4.9c-2.7,0-4.9-2.2-4.9-4.9C339.5,5.2,341.7,3,344.4,3z
		 M344.4,1.5c3.5,0,6.4,2.9,6.4,6.4c0,3.5-2.9,6.4-6.4,6.4l0,0c-3.5,0-6.4-2.9-6.4-6.4l0,0C338,4.4,340.9,1.5,344.4,1.5z"/>
	<path class="st0" d="M228.8,63.2L261.6,96l32.9-32.9H228.8z M142.5,63.2L175.4,96l32.9-32.9H142.5z M56.2,63.2L89.1,96l32.9-32.9
		H56.2z M99.3,97.8h65.7l-32.9-32.9L99.3,97.8z M218.5,64.9l-32.9,32.9h65.7L218.5,64.9z M44.1,54.6h262.4v8.5l-43.1,43.1H87.3
		L44.1,63.2L44.1,54.6z"/>
	<path d="M519.5,0v107.7h275.3V0H519.5z M793.3,106.2H521V1.5h272.3V106.2z M581.3,17.1c0.1,0,0.2,0,0.3,0h0.2l0.2,0.1l0.2,0.1h0.1
		l0.1,0.1l0.1,0.1l0.1,0.1c0.1,0,0.1,0.1,0.1,0.2l0.1,0.1c0.1,0.1,0.1,0.2,0.1,0.3c0.1,0.8-0.1,1.7-0.5,2.4l-21.7,39
		c-2.2,3.7-5.3,3.7-5.3,3.7h-16.4l-3.2,6.3h61.7L601,63h-17.5c-0.3,0-0.6-0.1-0.9-0.3c0,0-0.1-0.1-0.1-0.1l-0.1-0.1c0,0,0-0.1,0-0.1
		c0-0.1,0-0.1-0.1-0.2c0,0,0-0.1,0-0.1s0-0.1,0-0.2s0-0.1,0-0.1c0-0.1,0-0.2,0-0.3c0.1-0.6,0.3-1.2,0.6-1.8c0,0,0-0.1,0-0.1
		c0.1-0.3,0.3-0.5,0.5-0.8l2-3.5l0,0l18.8-33.7v-0.1l2.2,5l19.1,43h24l74.8-46.9l-19.9,37.5c-2.1,3.2-4.6,3-4.6,3h-17l-3.7,6.3h74.6
		l3.5-6.3l0,0c-11.2,0-11.2,0-17.2,0c-1.9,0-2.7-0.5-3-1.1c-0.1-0.2-0.2-0.5-0.2-0.7l0,0c0-0.4,0.1-0.7,0.2-1.1l0,0l0,0l0.1-0.1
		c0.1-0.1,0.1-0.3,0.2-0.4L757.3,23l0,0c0.1-0.2,0.2-0.5,0.3-0.7l0.2-0.3l0.1-0.2c0.3-0.4,0.5-0.8,0.8-1.2l0.1-0.2
		c0.2-0.2,0.3-0.4,0.5-0.5s0.2-0.2,0.3-0.3l0.3-0.3c0.2-0.2,0.5-0.4,0.7-0.5c0.1-0.1,0.2-0.1,0.3-0.2l0.3-0.2l0.3-0.2l0.6-0.2
		l0.3-0.1l0.5-0.2l0.2-0.1c0.3-0.1,0.5-0.1,0.8-0.1h0.2c0.3,0,0.6,0,0.8,0h14.4l4.1-7.2H716l-63.5,40.1l-16.9-40.1h-65.7l-3.3,6.8
		h14.7V17.1z M759.7,22.7L759.7,22.7l-3.7,6.9c7.6,3.8,13.4,9.1,13.3,14.5c-0.2,6.9-7.2,12.2-18.7,17.1h10l0,0l-2.8,5.1l0,0
		c16.5-6,26.5-14,26.5-22.2C784.3,36.2,775.1,28.6,759.7,22.7L759.7,22.7z M555.6,97.1c-0.1-6.1-0.1-10.9-0.1-17
		c0.8,0.2,0.8,0.2,1.6,0.4c0-1.3,0-2,0-3c-3.7-0.7-5-1.1-8.7-1.8c-1.7,5.2-2.6,10.8-4.4,18.6c-1.8-8-2.7-14.3-4.5-20.5
		c-3.7-0.8-5-1.2-8.7-2.1v3.7c0.8,0.2,0.8,0.2,1.6,0.4c0,7.3,0,13.4,0,20.8h-1.7v3.7h7.5c0-1.2,0-1.9,0-3.5c-0.9,0-0.9,0-1.8-0.1
		c0-7,0-12.8-0.1-19.9c1.9,8.4,2.9,15.4,4.8,22.2h5.1c1.8-6.6,2.8-12.8,4.6-19.6c0,6.3,0.1,11.3,0.1,17.6h-1.5c0,1.4,0,2.1,0,3.2
		h7.7c0-1.1,0-1.7,0-3C556.4,97.2,556.4,97.2,555.6,97.1z M613.6,97.8c0-4.4,0-6.6,0-11c0.8,0,0.8,0,1.7,0.1c0-1,0-1.4,0-2.3
		c-3.6-0.2-4.9-0.3-8.5-0.5v2.4l2,0.1c0,1.7,0,2.5,0,4.2c-2.8-0.1-4.2-0.2-7-0.3c0-1.8,0-2.7,0-4.3l2,0.1c0-1,0-1.5,0-2.4
		c-3.6-0.2-4.9-0.4-8.5-0.8c0,1,0,1.5,0,2.5c0.8,0.1,0.8,0.1,1.7,0.2c0,4.6,0,7.4,0.1,12h-1.7c0,1,0,1.5,0,2.5h8.4
		c0-0.9,0-1.4,0-2.4h-2c0-1.6,0-2.4,0-4.1l7,0.2c0,1.6,0,2.4,0,4h-2c0,1,0,1.5,0,2.4h8.4v-2.5L613.6,97.8z M649.9,85.6v1.8h1.9v8
		c-3-4.1-4.3-5.7-7.3-9.9c-2.9-0.1-4-0.2-6.9-0.2v2h1.7c0,4.2,0,6.4,0,10.6h-1.7c0,0.9,0,1.4,0,2.3h8.2v-2.3h-2.3v-8.1
		c3,4.2,4.5,6.3,7.4,10.4h5.1V87.4h1.5v-1.7C654.1,85.7,653.3,85.6,649.9,85.6L649.9,85.6z M635.3,97.9c-1.8-4.3-2.7-6.4-4.4-10.7
		h2.1v-2c-5.6-0.2-7.4-0.3-13.1-0.6c0,1,0,1.4,0,2.3l2,0c-1.8,4.3-2.6,6.5-4.4,10.8h-1c0,1,0,1.5,0,2.4h7.3v-2.3h-2.1
		c0.3-0.9,0.5-1.4,0.8-2.3h6.9c0.3,0.9,0.5,1.4,0.8,2.3h-2v2.3h7.9v-2.3L635.3,97.9z M623.6,93.2l2.3-6.2h0.5
		c0.9,2.5,1.4,3.8,2.3,6.2L623.6,93.2z M571.3,94.8c0,1.1,0,1.6,0,2.7l-6.3-0.1c0-2.2,0-3.5,0-6c3.3,0.2,4.9,0.3,8.2,0.6
		c0-1.5,0-2.2,0-3.7c-3.3-0.3-4.9-0.5-8.2-0.9c0-2.4,0-3.6,0-5.6c2.5,0.4,3.8,0.6,6.3,1c0,1,0,1.5,0,2.6c1.6,0.2,2,0.3,3.6,0.5
		c0-2.3,0-3.4,0-5.2c-6.9-1.1-9.5-1.7-16.4-3c0,1.1,0,1.7,0,3c0.8,0.2,0.8,0.2,1.6,0.4c0.1,5.9,0.1,10.4,0.2,16.3l-1.6,0
		c0,1.3,0,2,0,3H575c0-1.8,0-3,0-5.3L571.3,94.8z M589,94.2c0,1,0,1.4,0,2.3l-1.1,0.9l-4.8-0.1c-0.5-0.4-0.8-0.7-1.3-1.1
		c0-4.2,0-6.8-0.1-10.9l1.3-0.9c1.9,0.2,2.9,0.3,4.8,0.6l1.1,1.1c0,0.9,0,1.3,0,2.2l4.8,0.4c0-1.4,0-2.1,0-3.4
		c-1.3-1.1-1.9-1.7-3.2-2.7c-4.2-0.5-6.3-0.8-10.5-1.3c-1.1,0.6-2.2,1.3-3.2,2.1c0,5.2,0.1,9,0.1,14.3c1,0.9,2.1,1.8,3.2,2.6h10.5
		c1.2-0.9,1.9-1.4,3.1-2.4c0-1.3,0-2,0-3.5L589,94.2z M658.9,87.4h1.9c0,4.2,0,6.3,0,10.5h-1.9v2.3h8.6v-2.3h-1.9V87.4h1.9v-1.8
		c-3.8,0-4.8,0.1-8.6,0.1L658.9,87.4z M781.9,96.5V90c-0.9-1.1-1.3-1.7-2.2-2.8c0.9-1.3,1.3-1.9,2.2-3.2c0-3.2,0-4.8,0-7.5
		c-0.9-0.9-1.9-1.8-3-2.6c-6.4,1.2-9.1,1.8-15.4,3c0,1.2,0,1.8,0,3.2c0.8-0.1,0.8-0.2,1.7-0.3c0,6.3,0,11,0.1,17.3
		c-0.8,0-0.8,0-1.7,0c0,1.4,0,2,0,3.2h8.8c0-1.2,0-1.9,0-3.4l-2.3,0.1c0-2.4,0-3.8,0-6.5L776,90l1.2,1.5c0,3,0,4.5,0,7
		c0.7,0.8,1.1,1.1,1.8,1.8h4.5v-3.6H782C782,96.6,782,96.6,781.9,96.5L781.9,96.5z M775.9,85.5l-5.9,0.6c0-3.1,0-4.6,0-7.3l6-1
		c0.4,0.4,0.7,0.6,1.1,1.1c0,1.8,0,2.9,0,4.9L775.9,85.5z M681.6,92.2c1.9-2,2.9-3,4.8-5.1h1.6c0-1,0-1.3,0-2.3
		c-3.4,0.2-5,0.3-8.4,0.4c0,1,0,1.1,0,2h2.2c-1.4,1.6-2,2.4-3.4,4c-1.2-1.6-1.9-2.3-3.1-3.9h2.4c0-0.9,0-1,0-2
		c-3.7,0.1-5,0.2-8.7,0.2c0,0.9,0,0.9,0,1.8h1c1.9,2,2.8,3,4.7,5c-2,2.2-3,3.3-4.9,5.5h-0.9v2.3h8c0-0.9,0-1.4,0-2.3h-2.4l3.5-4.1
		c1.4,1.6,2.1,2.5,3.5,4.1h-2.6v2.3h9.3v-2.4h-1.4C684.7,95.6,683.7,94.5,681.6,92.2L681.6,92.2z M761.3,97
		c-1.8-6.1-2.7-10.5-4.5-16.1c1-0.2,1.1-0.2,2.2-0.4c0-1.3,0-2,0-3.1c-5.6,1-7.5,1.5-13.1,2.3c0,1,0,1.6,0,2.8c1-0.1,1-0.2,2-0.3
		c-1.7,5.8-2.6,9.7-4.3,15.1c-0.6,0-0.4,0-1,0c0,1.2,0,1.7,0,2.8h7.3c0-1,0-1.6,0-2.8h-2c0.3-1.2,0.5-1.8,0.8-3.1l6.9-0.3
		c0.3,1.3,0.5,2,0.8,3.2h-2c0,1.3,0,1.9,0,2.9h7.7c0-1.1,0-1.8,0-3.2L761.3,97z M749.6,90.8c0.9-3.7,1.4-5.8,2.3-9.2l0.5-0.1
		c0.9,3.2,1.4,5.1,2.3,8.9L749.6,90.8z M737.3,95c0,1,0,1.5,0,2.5l-6.3,0.1c0-1.9,0-3,0-5c3.3-0.2,4.9-0.2,8.2-0.4
		c0-1.4,0-2.2,0-3.6c-3.3,0.3-4.9,0.4-8.2,0.7c0-2,0-3,0-4.8c2.5-0.3,3.8-0.4,6.3-0.7c0,1,0,1.5,0,2.5c1.6-0.2,2-0.3,3.6-0.4
		c0-2.3,0-3.4,0-5.3c-6.9,1-9.4,1.5-16.3,2.2v2.5c0.8-0.1,0.8-0.1,1.6-0.2c0,4.8,0,7.9,0,12.7h-1.7v2.5h16.4c0-1.9,0-3,0-5.3
		C739.3,94.9,738.9,95,737.3,95z M715.9,83.4c0,1,0,1.5,0,2.5l2.3-0.2c-0.9,4.4-1.3,7-2.2,11.3c-1.4-5.4-2-8.4-3.4-13.3
		c-2.4,0.2-3.5,0.3-5.9,0.4c-1.4,5.1-2.1,7.9-3.5,13c-0.9-4.1-1.3-6.2-2.2-10.3l2.4-0.1c0-1,0-1.5,0-2.4c-3.3,0.3-4.5,0.4-7.9,0.6
		v2.1h1.1c1.3,5.3,2,8,3.3,13.3h6.2c1.4-5,2-7.9,3.4-13.2c1.3,5.2,2,8.2,3.3,13.2h6c1.3-5.3,2-9,3.4-14.9c0.6-0.1,0.5-0.1,1.1-0.2
		v-2.5C720.1,83,719.1,83.2,715.9,83.4L715.9,83.4z M786.1,75.6h0.7l0.4,1h0.4l-0.4-1l0.3-0.3v-0.8l-0.4-0.4h-1.5v2.6h0.4V75.6z
		 M786.1,74.4h0.8l0.2,0.2v0.5l-0.2,0.2h-0.8V74.4z M788,77.5l0.8-0.8v-3L788,73h-2.8l-0.8,0.8v3l0.8,0.8L788,77.5z M784.8,73.9
		l0.5-0.5h2.4l0.5,0.5v2.7l-0.5,0.5h-2.4l-0.5-0.5V73.9z M545,61.1h10h0.2c1.3-0.4,2.5-1.2,3.2-2.4l0,0l0,0
		c-8.4-4.4-13.3-9.3-13.3-14.6c0-8.5,11.9-15.8,31.6-21.4l0.9-0.3l1.6-3.4h-13.9c-21.7,6.4-35.3,15.3-35.3,25
		C530.1,50.2,535.3,55.9,545,61.1z M640,13.7c5.9-0.3,11.8-0.4,17.7-0.4c15.2,0,30.5,0.9,45.6,2.7l4.4-2.8c1.2-0.7,2.3-1.4,3.2-2
		l-0.6-0.1c-17.5-2.2-35.2-3.3-52.9-3.2c-6.4,0-13,0.2-19.5,0.4h-0.7l2.4,5.4L640,13.7z M729.9,73.8c3-0.6,5.9-1.2,8.8-1.9v-0.5
		h-29.5c-17.1,2.4-34.3,3.5-51.5,3.5c-17.5,0.1-35-1.1-52.4-3.5h-29.6v0.5L576,72c22.5,5.4,51.7,8.4,81.1,8.3h1.8
		C684.5,80.2,709.1,77.9,729.9,73.8z"/>
	<g>
		<polygon class="st1" points="453.8,30.9 452,29.1 434.8,46.3 409.9,46.3 409.9,49.3 431.8,49.3 416.4,64.8 418.1,66.5 435.4,49.3 
			460.3,49.3 460.3,46.3 438.4,46.3 		"/>
		<rect x="861.4" y="46.3" class="st1" width="50.4" height="3"/>
		<polygon class="st1" points="872.4,36.5 865.8,36.5 872.4,27.8 872.4,25.7 862.9,25.7 862.9,28 869.1,28 862.6,36.8 862.6,38.9 
			872.4,38.9 		"/>
		<polygon class="st1" points="883.9,19.1 880.9,19.1 879,23.3 881,23.3 		"/>
		<path class="st1" d="M879.3,31.2c-3,0-4.6,1.6-4.6,3.8c0,1.1,0.4,2.1,1,2.8c0.8,0.8,1.9,1.2,3.5,1.2s2.5-0.4,3.5-1.4v1.2h2.6V30
			c0-3-1.8-4.5-5.4-4.5c-2.2,0-3.5,0.5-4.7,1.9l1.7,1.6c0.8-0.9,1.5-1.3,2.9-1.3c2.1,0,2.9,0.8,2.9,2.5v0.9H879.3z M882.8,34.1
			c0,0.9-0.2,1.6-0.6,1.9c-0.7,0.7-1.5,0.8-2.4,0.8c-1.7,0-2.5-0.7-2.5-1.9c0-1.2,0.8-1.9,2.4-1.9h3V34.1z"/>
		<polygon class="st1" points="894.6,38.9 899.4,25.7 896.6,25.7 893.5,35 890.4,25.7 887.6,25.7 892.5,38.9 		"/>
		<path class="st1" d="M906.4,25.5c-1.8,0-3.1,0.7-3.9,1.6c-1.2,1.3-1.6,3-1.6,5.2c0,2.2,0.3,3.9,1.6,5.2c0.9,0.9,2.1,1.6,3.9,1.6
			s3.1-0.7,4-1.6c1.2-1.3,1.6-3,1.6-5.2c0-2.2-0.3-3.9-1.6-5.2C909.5,26.2,908.2,25.5,906.4,25.5z M908.3,35.9
			c-0.5,0.5-1.2,0.8-2,0.8s-1.4-0.3-1.9-0.8c-0.8-0.8-0.9-2.2-0.9-3.6c0-1.4,0.1-2.8,0.9-3.6c0.5-0.5,1.1-0.8,1.9-0.8s1.5,0.3,2,0.8
			c0.8,0.8,0.9,2.2,0.9,3.6C909.2,33.7,909.1,35.1,908.3,35.9z"/>
		<path class="st1" d="M923,27c-1-1.1-2.1-1.5-3.5-1.5c-1.3,0-2.5,0.4-3.2,1.2c-1.3,1.3-1.5,3.4-1.5,5.6c0,2.2,0.2,4.3,1.5,5.6
			c0.7,0.7,1.9,1.2,3.2,1.2c1.4,0,2.5-0.4,3.5-1.6v1.4h2.6V20.3H923V27z M920.3,36.6c-2.4,0-2.8-2.1-2.8-4.4c0-2.3,0.3-4.4,2.8-4.4
			c2.4,0,2.7,2,2.7,4.4C923,34.6,922.6,36.6,920.3,36.6z"/>
		<path class="st1" d="M936,25.5c-1.3,0-2.6,0.5-3.5,1.5v-1.3h-2.6v13.2h2.7v-8c0-2,1.2-2.9,2.7-2.9s2.7,0.9,2.7,2.9v8h2.7v-8.4
			c0-1.5-0.3-2.7-1.3-3.7C938.4,26,937.3,25.5,936,25.5z"/>
		<polygon class="st1" points="949.7,19.1 946.8,19.1 944.8,23.3 946.8,23.3 		"/>
		<rect x="944.6" y="25.7" class="st1" width="2.7" height="13.2"/>
		<path class="st1" d="M866.5,55.9h-2.7v3.8h-1.5v2h1.5v7.5c0,1.9,1.1,3.7,3.6,3.7h1.6v-2.3H868c-1,0-1.5-0.6-1.5-1.5v-7.4h2.5v-2
			h-2.5V55.9z"/>
		<path class="st1" d="M876.5,69l-3.1-9.3h-2.8l4.6,12.6l-0.7,2.1c-0.4,1.1-0.8,1.4-1.9,1.4h-0.7v2.4h1.1c1,0,2-0.2,2.7-1
			c0.4-0.4,0.7-0.9,1-1.6l5.8-15.8h-2.8L876.5,69z"/>
		<polygon class="st1" points="880,53.1 877.1,53.1 875.1,57.3 877.1,57.3 		"/>
		<path class="st1" d="M898.6,59.5c-1.7,0-3.1,0.6-4.1,1.9c-0.8-1.3-2.1-1.9-3.7-1.9c-1.3,0-2.6,0.5-3.5,1.5v-1.3h-2.6v13.2h2.7v-8
			c0-2,1.2-2.9,2.7-2.9s2.7,0.9,2.7,2.9v8h2.7v-8.2c0-1.9,1.3-2.8,2.7-2.8c1.5,0,2.7,0.9,2.7,2.9v8h2.7v-8.4c0-1.5-0.4-2.7-1.4-3.7
			C901.1,60,899.9,59.5,898.6,59.5z"/>
	</g>
</g>
</svg>
