<svg id="Layer_1" data-name="Layer 1" xmlns="http://www.w3.org/2000/svg" viewBox="0 0 189.22 117.06"><title>logo</title><polygon points="39.37 100.97 53.53 103.47 53.53 98.47 39.37 100.97"/><path d="M72.59,44.27c1-1-1.66-1.81-1.53-.09C71.16,45.4,72.37,44.49,72.59,44.27Z"/><path d="M76.83,39.53a5.67,5.67,0,0,0,2.69-1.68c2-2.85,3.6-6,3.21-5.9s-2.25,3.21-3.66,4.9A12.07,12.07,0,0,1,76.68,39C76,39.35,76,39.73,76.83,39.53Z"/><path d="M98.74,13.79a44,44,0,0,0-4.42-.2A43,43,0,0,0,52.77,66.9a1,1,0,0,1,0,.17c.17.68.36,1.37.57,2l.09.29c.2.65.41,1.28.64,1.92l.08.21h0c.12.32.22.64.35,1l1.65-.29c-.13-.32-.24-.64-.36-1L136,57.1c0,.34,0,.68,0,1l1.64-.29c0-.35,0-.68,0-1h0A43.07,43.07,0,0,0,98.74,13.79Zm-28.59,21C73.67,28.49,80.86,25,88,23.37a28.74,28.74,0,0,1,5.09-.78c3.22-.16,3.32-.3.41.87a22.93,22.93,0,0,0-6.18,3.81c-2,1.64-1.26,1.46.67.46,2.19-1.13,6.07-2.93,9.76-3.09,3-.13,2.66-.11.19.71a27.63,27.63,0,0,0-6.12,2.9c-.53.39-5,2.6,1.62,1.25a59.11,59.11,0,0,1,9-.88c3.26-.05,4.53,0,.1,1.2-7.65,2.08-15,2.74-21.17,6.87-.77.51-1,1.57-1.65,2.11-1.2,1-1.86.79-1.86,1.47,0,1.07.24,2.07-.34,2.83-1.59-2-8.32-4.44-8.3-4.92A10.28,10.28,0,0,1,70.15,34.75ZM82,37.84c1.76.43,2.59,3.11,1,4.23a2.6,2.6,0,0,1-3.37-.51c-.51-.7-.51-1.88.12-.87a1.81,1.81,0,0,0,2.67.51C84.18,39.68,80.67,37.52,82,37.84Zm-12.72,2a41.76,41.76,0,0,1,7.55,3.71c.27.37-.93.05-1.36.19-.9.29-1.9.75-3,1.17a1.49,1.49,0,0,1-1.87-.28A9.07,9.07,0,0,0,68,42.67C67.72,41.07,68.61,39.75,69.28,39.83Zm.35,16.05c-3.88-3.73-5.72-9.54-2.27-12.59a5.2,5.2,0,0,1,1.86,1.31,5.25,5.25,0,0,0-1.85,2.93,5.84,5.84,0,0,0,0,3.65A13.62,13.62,0,0,0,69.6,55.3C70.34,56.33,70.71,56.93,69.63,55.88Zm1.25-3.61c-.3.84-.09,2.65-.8,1.3-1.33-2.53-1-4.16,0-5.67.83-1.26,2.67-1,3.71-1,4.06,0,.17-1,7.2.13,3.2.54,3.29.78,0,.62a18.46,18.46,0,0,0-6.11.65A6.41,6.41,0,0,0,70.88,52.27Zm10.71-.11a9.47,9.47,0,0,1-1.1,3.44c-.46.71-2.26,2.47-.91.47a11,11,0,0,0,1.61-3.85C81.34,51.26,81.71,51,81.59,52.16Zm-5.78-3.31c3,.93,3.88,2,4.35,4.75.07.38-.68,1.55-.78,1.06-.27-1.38-.38-2.89-1.18-4A6,6,0,0,0,75.81,48.85Zm2.68,12.84c-.71-1.83.24-3.45,2.08-5,.5-.42.49-.1.07.46-1,1.45-1.81,2.21-1.92,4.35C78.69,62.1,78.66,62.13,78.49,61.69Zm3.84,2.4c-.83,1-1.62-1.81-2.29-3.89-.42-1.28-.06-1.5.48-.14.35.86.75,2.54,1.12,3.25.21.42.42.62.43-.21,0-2-.35-3.42-.15-5.16.23-2,1-3.19,1.93-4.9a7.62,7.62,0,0,0,.86-3.82,4.7,4.7,0,0,1,.28-2c.24-.66.64-.92.38.08a6,6,0,0,0-.08,2.18,7.8,7.8,0,0,1-.91,3.71,26.61,26.61,0,0,0-1.61,3.69C82,59.4,82.89,63.43,82.33,64.09Zm.78-4.41c-.12-3.61,3-6.77,4.3-7.43s.87-.41.13.55c-2.1,2.75-3.89,4.71-4.06,8.1C83.34,63.6,83.14,60.58,83.11,59.68Zm6.25-.86c-.58-.57-2-1.8-2.6-2.27-.09-.09.82-1.08.94-.94a13.69,13.69,0,0,1,2.2,3C90.32,59.79,89.8,59.25,89.36,58.82Zm5.15-1.91c-1.93-.63-3.75-1.62-6-2.24-.3-.08,1.28-1.56,1.7-1.36a19.61,19.61,0,0,1,4.85,3.15C96.14,57.38,95.78,57.31,94.51,56.91Zm3.91-2.61A22.28,22.28,0,0,0,91,52.61c-.41,0,1.39-1.79,2.06-1.68A20.48,20.48,0,0,1,99,53.86C100.82,55.18,100.14,55,98.42,54.3Zm23.82,2.93c-2.73-4.08-9.79-7.46-14.33-8.61-.72-.18-1.43-.06-1,.24a57.9,57.9,0,0,1,5.76,3.6c3.27,2.53.15.8-2.11-.23s-5-2.33-7-3c-2.48-.84,3.75,3.32,3.89,3.71-4.85-2.06-7.54-3.26-11.16-3.29-1.92,0-1-.27-.3-.69,4.43-2.58,11.14-3.59,15.56-1.75,4.18,1.74,8.44,4.38,11.2,9.88C124.52,60.58,123.59,59.26,122.24,57.23Zm1.7-3.1c-2.91-3.66-7-6-11.86-8.17-5.32-2.31-12-.79-17.27,1.45a50.73,50.73,0,0,0-6.22,3.09c-1.92,1.14-2.42.5-.73-.7,1.93-1.38,1.68-2.29-.32-1.67-.76.24-1-.09-.24-.59,2.53-1.77,2.42-2-.37-1-1,.35-.91,0-.23-.65,1.54-1.49,3.15-2.5-.39-1.4-3,.94-3.9.94-6.18-.05-.82-.36-1.42,0-1.61-.17s.85-.66,1.42-.47a5,5,0,0,0,3.84.06,4.88,4.88,0,0,0,2.85-4.92c-.29-3.5.8-1.08,4.23-3.18,2.92-1.79,4.46-2.15,8-2.79,2.24-.41,2.42-.17.13.65-4.34,1.56-6.16,2.09-9.47,5.31-1.09,1-.32,1.3,1.44.22a29.94,29.94,0,0,1,8.46-3.79c1.87-.6,2.16-.17.29.67a36.22,36.22,0,0,0-6.92,4.1c-2.93,2.28-3.26,3.27.68,1.24,4.52-2.32,5.48-3,9.54-4.06,3.9-1,4.25-.31.25.95-4.19,1.33-7.58,3.73-11.39,6.52-1.42,1-1.17,1.8.61.89,4.85-2.47,11.87-6.05,17.24-6.52,6.08-.52,3.11,1.17.52,1.83-2.21.55,1.9,2.64,2.7,3,6.5,3,10,6.89,11.6,9.71C126.37,56.85,125.67,56.32,123.94,54.13Z"/><path d="M101,97.74c-.57.1-.89-.15-.89-.68a1.31,1.31,0,0,1,.24-.77c.68.18,1.45.15,1.46.66s-.37.71-.81.79m.18-3.69a.51.51,0,0,1,.68.55,1.39,1.39,0,0,1-.33.8c-.55-.09-1-.18-1-.63a.74.74,0,0,1,.69-.72m1,1.5a1.63,1.63,0,0,0,.6-1.2c0-.8-.63-1.16-1.69-1a1.92,1.92,0,0,0-1.72,1.77,1,1,0,0,0,.45.92,2,2,0,0,0-.63,1.32c0,.93.72,1.3,1.92,1.09s1.93-.89,1.93-1.83a1.06,1.06,0,0,0-.86-1.09M98.57,98l-2.19.41c1.34-1,2.14-2,2.14-3s-.7-1.43-1.92-1.21a7.58,7.58,0,0,0-1.62.49l.11.76a5.51,5.51,0,0,1,1.06-.31c.74-.13,1.13.09,1.13.71,0,.8-.78,1.66-2.31,3v.68l3.6-.63Zm-6.71-1.35a.92.92,0,0,1,.68-1c.46-.08.79.4.83,1.41a2.09,2.09,0,0,1-.74.31c-.47.08-.77-.13-.77-.71m.67-1.73a2,2,0,0,0-1.81,2c0,.93.63,1.37,1.64,1.19a2.86,2.86,0,0,0,1-.35,1.63,1.63,0,0,1-1.4,1.52,3.14,3.14,0,0,1-.83,0l-.15.81a4.27,4.27,0,0,0,1.19,0A3,3,0,0,0,94.55,97c0-1.57-.78-2.29-2-2.07m-2.27,4.71-1.17.1V95.58L89,95.5l0,0h0l-2.39.6v.68l1.3-.18v3.28l-1.3.34v.71l3.65-.64Z"/><path d="M80.75,83.46c0,.8.59,1.16,1.52,1A3.26,3.26,0,0,0,83.38,84V81.9l-1.3.23C81.18,82.29,80.75,82.71,80.75,83.46Z"/><path d="M39.35,75.17V99.92L149.87,80.44V55.68ZM68,88.7c-2.05.36-3.08-.62-3.7-3.21L64,84.19l-1.2.21v3.17l1,.06v1.62l-4.78.84V88.48l1-.41V80l-1-.07V78.22l4.87-.86V79l-1,.44v3.26l1.41-.25,1.75-3.65H65V77.17l4.71-.85v1.61l-1.15.46L66,83.11l.67,1.33c.85,1.67,1.41,2.31,2.47,2.13a3.43,3.43,0,0,0,.5-.14l.13,1.72A9.91,9.91,0,0,1,68,88.7ZM77.25,80l-.19.21a6.74,6.74,0,0,0-2.66.71v4.6l1.2.06v1.61L70.76,88V86.39l.93-.39V80.5l-.93-.06V78.83l3-.54.43,1.15a4.87,4.87,0,0,1,2.85-2l.17.16Zm9.88,5.16a7.11,7.11,0,0,1-1.63.49c-.88.16-1.5,0-1.83-.44a4.48,4.48,0,0,1-2.33,1.18c-1.92.33-3.23-.59-3.23-2.33s1.16-2.78,3.2-3.14l2.07-.37v-.28c0-1.13-.68-1.61-2-1.38a13.86,13.86,0,0,0-2.5.76l-.28-1.79a15.82,15.82,0,0,1,3.86-1.26c2.36-.42,3.61.39,3.61,2.51v4c0,.45.2.62.65.55a2.17,2.17,0,0,0,.39-.11Zm10.71-1.89-4.52.8V82.41l.93-.4V77.6c0-.67-.38-1-1.11-.84a4.2,4.2,0,0,0-1.42.57v5.14l.92.06v1.62l-4.56.8V83.34L89,83V74.12l-.93-.06V72.45l3.37-.8.25.14,0,3.9a5.44,5.44,0,0,1,2.61-1.23c1.68-.29,2.63.44,2.63,2v5.06l.88.07Zm10.35-1.82-2.83.5-.49-.69A5.64,5.64,0,0,1,102,82.7c-1.69.3-2.61-.44-2.61-2.07l0-5-.94-.06V74l3.44-.61.2.17v6.27c0,.65.4,1,1.11.83a3.31,3.31,0,0,0,1.38-.64V74.76l-.94-.12V73l3.44-.61.2.17v7.18h.92Zm5.58-1-4.56.81V79.61l.93-.38V70.39l-.93,0V68.72l3.43-.81.21.17V78.75l.92.06Zm5.56-1-4.56.81V78.63l.93-.38V72.74l-.93-.08V71.05l3.43-.59.21.17v7.14l.92.06Zm-1.73-9.93L115.94,69l1.41-3.86,2.33.65ZM128.45,78c-1.78.32-2.7-.3-3.24-3.08l-.11-.59-1.16.21v2.21l.92.06v1.62l-4.56.8V77.66l.94-.39V68.44l-.94-.06V66.77l3.44-.82.2.17V72.9l1.16-.2,1.15-1.93-1,.06v-1.6l4.53-.82V70l-1,.34-2.07,2.83.3.65c.78,1.65,1.58,2.33,2.71,2.13l.19,0,.09,1.65A7.66,7.66,0,0,1,128.45,78Z"/></svg>