<svg id="Layer_1" data-name="Layer 1" xmlns="http://www.w3.org/2000/svg" viewBox="0 0 315.93 117.06"><title>logo</title><rect x="261.92" y="55.56" width="17.93" height="2.7"/><polygon points="243.47 66.41 256.66 66.41 256.66 60.36 237.42 60.36 237.42 72.25 235.33 72.25 235.33 77.62 237.42 77.62 237.42 88.83 243.47 88.83 243.47 77.62 252.07 77.62 252.07 72.25 243.47 72.25 243.47 66.41"/><path d="M204.32,67.23c-5.48-3.53-13.72-.24-13.72,7.32,0,7.92,8.73,11.09,14,7.07,1.22,1.38,2.42,2.77,3.62,4.14a14.58,14.58,0,1,1-.32-22.71C206.73,64.45,205.52,65.84,204.32,67.23Z"/><polygon points="279.74 66.41 279.74 60.36 260.49 60.36 260.49 72.25 258.41 72.25 258.41 77.62 260.49 77.62 260.49 88.83 279.74 88.83 279.74 83.46 266.55 83.46 266.55 77.62 275.15 77.62 275.15 72.25 266.55 72.25 266.55 66.41 279.74 66.41"/><path d="M226.11,60.36h-6.58l-5.63,21h-3.75v5.37h2.32l-.55,2.09h6l.56-2.09h8.6l.56,2.09h6Zm-6.15,21,2.85-10.69,2.87,10.69Z"/><path d="M183.29,65.42c-1.77-.12-3.54-.24-5.3-.44s-3.52-.39-5.26-.7c-.87-.16-1.76-.28-2.61-.47s-1.74-.36-2.6-.56l-2.59-.61a9.33,9.33,0,0,0-1.32-.25,7,7,0,0,0-1.29,0,1.43,1.43,0,0,0-.93-.42c-.37,0-.68,0-1,.06-.66.07-1.33.06-2,.19l-2,.31-1.95.52a14.06,14.06,0,0,0-1.9.7l-.94.39-.89.48a16.6,16.6,0,0,0-1.7,1.12,13.85,13.85,0,0,0-1.54,1.33,12.92,12.92,0,0,0-1.32,1.54c-.2.28-.41.53-.6.85l-.49.87a13.11,13.11,0,0,0-.81,1.89,15.22,15.22,0,0,0-.52,2,15.5,15.5,0,0,0-.21,2,13.49,13.49,0,0,0,.08,2,16.8,16.8,0,0,0,.41,2,13.88,13.88,0,0,0,.58,1.68l-1.52.91c-.58.34-1.19.61-1.78.92s-1.22.54-1.84.81a15.56,15.56,0,0,1-1.88.67,13.07,13.07,0,0,1-1.93.51l-2,.39a30.85,30.85,0,0,1-4,.15c-.29,0-.66-.09-1-.13l-.46-.06-.49-.14a7.76,7.76,0,0,1-1.8-.71A6.79,6.79,0,0,1,124.46,84a8.8,8.8,0,0,1-1.13-1.55,13.25,13.25,0,0,1-.72-1.82,15.2,15.2,0,0,1-.45-1.92c-.07-.66-.19-1.32-.2-2s0-1.21,0-1.83c.84-.74,1.74-1.47,2.53-2.26L127,70.22c.87-.79,1.68-1.66,2.49-2.53l2.44-2.59c.81-.9,1.53-1.8,2.31-2.7s1.55-1.78,2.25-2.74l2.15-2.84,1.07-1.43,1-1.48,1.94-3c.65-1,1.18-2.06,1.77-3.09s1.18-2.06,1.72-3.15,1-2.1,1.43-3.25a29.08,29.08,0,0,0,1.17-3.4c.15-.58.26-1.19.39-1.78s.14-1.22.19-1.83,0-1.19-.08-1.88l-.17-.87-.32-.93c-.17-.39-.3-.55-.45-.84a3.77,3.77,0,0,0-.62-.76l-.35-.38a4,4,0,0,0-.43-.29l-.36-.24-.19-.12-.1-.06-.06,0-.05,0h0c-.14.3.11-.3,0,0l-.15-.07h0a4.35,4.35,0,0,0-1-.25l-.87-.05a5.77,5.77,0,0,0-1,.11l-.25.05a.74.74,0,0,0-.15,0l-.11,0-.41.14A10.61,10.61,0,0,0,139,29.81a17.8,17.8,0,0,0-2.56,2.44,32.12,32.12,0,0,0-2.24,2.66l-1.06,1.41c-.36.53-.63,1-.95,1.48l-1.86,2.92-.46.73c-.19.32-.29.53-.44.8l-.81,1.52-1.64,3L125.54,50l-.72,1.59-.37.81-.31.81-1.23,3.23-.61,1.62-.5,1.67-1,3.35c-.37,1.15-.53,2.26-.81,3.39a24,24,0,0,0-.63,3.42l-.41,3.24L116.58,75c-.82.69-1.71,1.29-2.58,1.92l-1.3.94c-.38.3-.9.57-1.34.85l-2.77,1.69a22.07,22.07,0,0,1-2.84,1.5l-2.88,1.38c-.92.45-2,.76-3,1.15s-2,.61-3,.86-2.13.46-3.17.53a25.41,25.41,0,0,1-3.12.17,13.79,13.79,0,0,1-1.47-.2l-.76-.27-.38-.14-.3-.19-.6-.37-.56-.52a6.63,6.63,0,0,1-1-1.16,11.65,11.65,0,0,1-1.46-4.37,11.45,11.45,0,0,1-.13-1.56,16.72,16.72,0,0,1,.16-3.15,17.91,17.91,0,0,1,.52-2.81L92.52,70l2.07-.32c.7-.12,1.37-.27,2-.4s1.38-.26,2-.42l1-.24a6.13,6.13,0,0,0,1-.34l0,0h0l.12-.06,0,0,.09,0,0,0,.23-.15.24-.16,0,0,.08-.07h0l0,0,.1-.1a5.11,5.11,0,0,0,.79-1,5.66,5.66,0,0,0,.52-1.14,8.55,8.55,0,0,0,.29-1.11l.07-.62,0-.16a.66.66,0,0,1,0-.11v-.35a6.16,6.16,0,0,0-.1-1.17,7,7,0,0,0-.76-2.28,10.7,10.7,0,0,0-.62-1,12.09,12.09,0,0,0-.86-.9,7,7,0,0,0-2.08-1.24A7.78,7.78,0,0,0,96.8,56a11.61,11.61,0,0,0-1.18,0c-.45,0-.76.1-1.15.15a10.3,10.3,0,0,0-1.15.2l-.3.08-.26.07-.56.18c-.39.15-.69.25-1.08.43l-.51.24a4,4,0,0,0-.54.3l-1,.58c-.4.26-.63.46-.94.69a19,19,0,0,0-1.74,1.54A19.29,19.29,0,0,0,85,62.28c-.23.32-.45.59-.68,1l-.56,1a16.58,16.58,0,0,0-1.07,2l-.77,1.86-3.05.27-1.65.15a7.5,7.5,0,0,1-.82,0l-.81,0-.83,0c-.22,0-.55-.06-.82-.07l-1.66-.13-2.72-.21a13.46,13.46,0,0,0,.56-1.51l.31-1.1a7.18,7.18,0,0,0,.2-1.12,5.12,5.12,0,0,0-.3-2.36,2.73,2.73,0,0,0-.29-.6L69.66,61a4.1,4.1,0,0,0-1-.83l-.49-.24c-.19-.07-.41-.13-.61-.19a9.54,9.54,0,0,0-1.16-.13h-.35l-.27,0-.55.05c-.39.08-.76.13-1.16.24a21.63,21.63,0,0,0-2.1.71c-.36.15-.69.26-1.06.45l-1,.5c-.66.36-1.28.63-2,1.06l-.93.59a8.1,8.1,0,0,0-.89.75l-.1.09,0,0,0,0h0l-.07.07v0l-.16.22c-.11.19-.18.23-.34.53A3.22,3.22,0,0,0,55,66.18a3.75,3.75,0,0,0,0,.57c0,.22.09.45.15.67l.26.53a4.89,4.89,0,0,0,.43.55,5.28,5.28,0,0,0,.9.73,10.87,10.87,0,0,0,1,.51,11.3,11.3,0,0,0,1.12.38l1.07.24c.73.15,1.39.33,2.19.46l1.51.21-1.29,1.83L61.6,74c-.26.37-.6.76-.89,1.14l-1.82,2.27L58,78.58c-.27.35-.63.73-.95,1.08-.64.73-1.29,1.46-2,2.12l-1,1c-.31.31-.72.63-1.08.94l-1.11.94c-.31.24-.79.52-1.17.78s-.83.41-1.2.53l-.35.08a1.77,1.77,0,0,0-.22,0h0l0,0L48.66,86s0-.09-.09-.12a3.48,3.48,0,0,1-.17-.54L48.33,85s0-.2,0-.29c0-.45-.11-1-.09-1.35,0-.92,0-1.85,0-2.77.1-1.82.23-3.66.39-5.5l.43-5.53c0-.46,0-1,0-1.41l0-1.39,0-.69c0-.33,0-.49-.08-.74l0-.17A.7.7,0,0,0,49,65l0-.08-.1-.33c0-.08,0,0-.1-.23l-.08-.15-.29-.33a1.62,1.62,0,0,0-.23-.17l-.11,0-.05,0,0,0h-.1c-.23-.07-.44-.11-.67-.16l-.73-.1c-.49-.06-1-.08-1.43-.13l-.73,0-.73,0c-.22,0-.5,0-.73,0l-.72,0c-1,0-1.91,0-2.87.15s-1.93.17-2.87.32l-.33,0,0,.33.11,1.21,0,.33.32,0c.84,0,1.65,0,2.49,0h1.24l1.25,0,1.25.05.61,0,.62,0,.6.07.62.09c.38,0,.74.1,1.12.17,0,.36,0,.73-.05,1.11l-.08,1.4c0,.47-.09.88-.14,1.37L46,71.23l-.65,5.56c-.12.93-.18,1.88-.26,2.8,0,.47-.1.93-.1,1.4l0,1.42c0,.48,0,.92,0,1.43l.11,1.4a7.38,7.38,0,0,0,.3,1.44A4.23,4.23,0,0,0,46,88l.06,0a2.85,2.85,0,0,0,.68.65,4.08,4.08,0,0,0,2.85.7l.9-.19c.39-.11.61-.22.92-.33A9,9,0,0,0,53.06,88c.26-.18.49-.31.79-.53l.7-.6L56,85.63c.52-.44.87-.89,1.32-1.33L58.55,83l1.27-1.34.65-.69.58-.72,2.3-2.88c.36-.47.81-1,1.14-1.48l1.05-1.52,2.07-3,6.8.51c.29,0,.59,0,.88,0s.61,0,.89,0l.87,0,.89-.08,3.14-.28a23,23,0,0,0-.46,3.09,20.22,20.22,0,0,0,0,3.48,18.31,18.31,0,0,0,.59,3.45c.16.58.38,1.09.57,1.64s.53,1,.8,1.57.69.94,1,1.42.86.82,1.29,1.23A8.72,8.72,0,0,0,88,88.94a12.7,12.7,0,0,0,3.48.34c1.18-.12,2.3-.19,3.45-.35s2.29-.4,3.41-.73a33.08,33.08,0,0,0,3.3-1l1.63-.6c.56-.21,1-.49,1.57-.73l3.11-1.5a27.89,27.89,0,0,0,3-1.71l3-1.82c1-.65,1.86-1.36,2.79-2l2.48-1.86c0,.63.08,1.26.18,1.88a18,18,0,0,0,.42,2.19,12.94,12.94,0,0,0,.76,2.11,10.52,10.52,0,0,0,1.11,2,5.56,5.56,0,0,0,.72.86,6.47,6.47,0,0,0,.78.79,9.26,9.26,0,0,0,1.9,1.24c.33.16.66.34,1,.47l1.09.32a13.53,13.53,0,0,0,4.45.39l2.2-.15c.74-.08,1.47-.27,2.2-.4l1.1-.22,1.06-.33a18,18,0,0,0,2.1-.73,21.62,21.62,0,0,0,2-.88c.66-.34,1.34-.65,2-1l1.81-1.07.74.93c.13.17.31.31.46.47l.47.45a2.85,2.85,0,0,0,.5.43l.52.39a9.09,9.09,0,0,0,1.12.69,8.68,8.68,0,0,0,1.2.55,7.29,7.29,0,0,0,1.25.4,4.27,4.27,0,0,0,.64.15l.64.09a9.36,9.36,0,0,0,1.3.1H155c.71,0,1.39,0,2.11-.09a16.17,16.17,0,0,0,2.09-.29,9.72,9.72,0,0,0,2-.49,19.94,19.94,0,0,0,2-.74c.31-.16.63-.31.93-.48l.9-.57a11.18,11.18,0,0,0,1.62-1.37,12.36,12.36,0,0,0,1.38-1.61,13,13,0,0,0,1-1.86,5.6,5.6,0,0,0,.4-1,8.48,8.48,0,0,0,.32-1l.25-1,.15-1a15.06,15.06,0,0,0,.11-2.12,13.46,13.46,0,0,0-.21-2.1l-.14-1c-.06-.35-.19-.68-.28-1a17.56,17.56,0,0,0-.64-2,16.63,16.63,0,0,0-.92-1.9,14,14,0,0,0-1.06-1.58l3,.81c1.08.27,2.15.51,3.24.71a63.35,63.35,0,0,0,6.57.81h0l1.65-1.29a8,8,0,0,1,.87-.56l.87-.55.2-.13Zm-26.24.09.09,0,.37-.08,2.28-.45-.23.66L159,66.76l-.59,1.17a12.1,12.1,0,0,1-.66,1.08c-.47.73-.91,1.5-1.44,2.17l-.77,1c-.26.35-.49.69-.78,1-.57.66-1.12,1.34-1.7,2l-1.84,1.83c-.64.57-1.31,1.14-2,1.71s-1.3,1.06-2,1.58L147,79a6.23,6.23,0,0,1-.11-1.48A5.5,5.5,0,0,1,147,76a13.69,13.69,0,0,1,.23-1.45c.16-.46.29-.92.43-1.38a9.33,9.33,0,0,1,.65-1.31l.36-.67c.12-.2.29-.37.43-.56l.85-1.06,1.13-1a6.93,6.93,0,0,1,1.17-.85,10.12,10.12,0,0,1,1.19-.74l1.37-.65a13.51,13.51,0,0,1,1.37-.51l.69-.23.18-.06Zm-6.16,15.56L153,79l3.83-4.36c.34-.4.6-.77.91-1.16l.89-1.14c.3-.38.55-.8.84-1.2l.81-1.22a11.74,11.74,0,0,0,.75-1.27l.69-1.28c.11-.22.22-.39.35-.66l.26-.68.26-.67a2.88,2.88,0,0,0,.12-.4l.76.75c.31.36.6.74.89,1.11a6.7,6.7,0,0,1,.39.59l.38.61a6.33,6.33,0,0,1,.68,1.25l.59,1.3c.14.45.25.92.38,1.38l.19.69.1.71.19,1.41,0,1.71a10.24,10.24,0,0,1-.26,1.66c-.06.27-.1.56-.17.82l-.3.8a9.78,9.78,0,0,1-.77,1.47,7.5,7.5,0,0,1-1,1.28c-.2.2-.4.41-.61.59l-.63.49a11.67,11.67,0,0,1-1.41.81l-.37.18-.36.12-.81.27-.81.26-.8.14c-.54.07-1,.22-1.6.25-.26,0-.62.06-.8.06l-.85,0c-.27,0-.61,0-.79,0l-.4,0-.42-.06-.43-.06a3.29,3.29,0,0,1-.34-.08,5.64,5.64,0,0,1-.79-.24l-.71-.29-.69-.39a7.52,7.52,0,0,1-.64-.47l-.16-.12s-.08-.06-.06,0l-.07-.08-.31-.3a5.67,5.67,0,0,1-.78-.87Zm-6.34-50.29.07,0,.08,0c.05,0,.16.06.17.08l.33.21,0,0h0l.13.15a1.78,1.78,0,0,1,.23.28,3.37,3.37,0,0,1,.42,1.22l0,.17v0h0V34.3c-.06.48-.12,1-.19,1.42-.26,1-.49,2.07-.8,3s-.69,2-1.12,2.9l-.64,1.4-.31.68-.38.68-1.5,2.74a28.31,28.31,0,0,1-1.57,2.67l-1.69,2.6-.84,1.3-.92,1.25-1.86,2.5c-1.23,1.68-2.6,3.23-3.89,4.85-.63.81-1.38,1.55-2.06,2.33l-2.1,2.31c-.7.76-1.46,1.46-2.2,2.2l-2.15,2.11.52-3.3.77-3.43,1.58-5c.24-.84.62-1.63.94-2.44l1-2.42a24.06,24.06,0,0,1,1.07-2.38l1.15-2.36c.39-.78.74-1.59,1.19-2.33l1.26-2.28c.42-.75.84-1.55,1.26-2.25l1.42-2.2,1.41-2.21c.42-.67,1-1.39,1.52-2.08s1.11-1.32,1.66-2l.43-.48.17-.21.25-.21,1-.88c.31-.27.68-.63.93-.83a8.46,8.46,0,0,1,1-.68,5.11,5.11,0,0,1,1-.43,3.64,3.64,0,0,1,.62-.08C144.24,30.77,144.37,30.74,144.55,30.78ZM99.91,64.36l0,.07-.14.29c-.09.23-.2.23-.28.38l0,0,0,0h0l0,0-.06,0,0,0-.35.11-.43.11-.89.21c-.57.14-1.18.25-1.77.38l-.89.18c-.31.06-.58.13-.88.18l-1.8.31c-2.34.41-4.67.9-7,1.32.22-.51.44-1,.68-1.54l.94-1.59.78-1c.28-.33.58-.63.87-.94s.65-.56,1-.83a10.28,10.28,0,0,1,1-.73,8.24,8.24,0,0,1,1.1-.61,7.83,7.83,0,0,1,1.15-.48A8.23,8.23,0,0,1,94,59.89l.27-.07c.09,0,.26,0,.27,0l.64-.09.58-.08h.65a6.06,6.06,0,0,1,1.11.16l.5.16c.18.1.41.19.55.29a3.27,3.27,0,0,1,.76.73l.16.22,0,.06s0,0,0,0l.07.14a2.4,2.4,0,0,1,.23.55,3.32,3.32,0,0,1,.21,1.11,3.44,3.44,0,0,1-.11,1.15l0,.13S99.88,64.42,99.91,64.36ZM65.8,67.78l-.75-.16c-.33-.08-.66-.14-1-.2l-1-.16-.5-.08-.44-.1-2-.39-.25,0h0l-.12,0-.48-.18-.39-.14a.89.89,0,0,1,.21-.16l.6-.4.3-.2.07-.05h0l0,0,.15-.09.64-.34,1.28-.7.32-.18.3-.13.66-.3c.44-.22.89-.34,1.33-.51l.32-.12.36-.07.71-.14a2.29,2.29,0,0,1,.69,0,2.11,2.11,0,0,1,.3.1c.09.11.18.13.2.26a1.84,1.84,0,0,1,.08.7,4.29,4.29,0,0,1-.08.71,8.59,8.59,0,0,1-.71,1.78C66.37,66.88,66.09,67.32,65.8,67.78Zm-5.9-1.12ZM146.11,28l-.22.48h0ZM48.05,63.59l0,0s.07,0,.12.23a.31.31,0,0,1-.05.22,1,1,0,0,0-.26-.16Z"/><path d="M48.42,63.82h0l0,0Z"/></svg>