<svg id="Layer_1" data-name="Layer 1" xmlns="http://www.w3.org/2000/svg" viewBox="0 0 189.22 117.06"><title>logo</title><path d="M88.39,37.77h-2.9v4.51H89.3v-4l0-.14A3.35,3.35,0,0,1,88.39,37.77Zm-1.35,4h-.68V38c.5.13.68.74.68,1.66Zm1.65,0H88V38c.5.13.68.74.68,1.66Z"/><polygon points="87.4 27.34 85.54 32.18 89.26 32.18 87.4 27.34"/><path d="M99.51,47.24h3.8V42.73h-3.8Zm1.22-2.63c0-.92.18-1.52.68-1.65v3.77h-.68Z"/><path d="M99.54,38.11l0,.14v4h3.8V37.77h-2.9A3.28,3.28,0,0,1,99.54,38.11Zm2.23,1.55c0-.92.18-1.53.67-1.66v3.78h-.67Zm-1-1.66v3.78h-.68V39.66C100.11,38.74,100.29,38.13,100.79,38Z"/><path d="M92.87,33.07c-.1,0-.12-.06-.12-.12s0-.12.45-1.21h2.53A10.21,10.21,0,0,1,96.21,33s0,.08-.13.08v.09h1.08v-.09c-.17,0-.18,0-.24-.2L95.14,28.7l-.66-1.58L94.1,28l-.85,2.12-1,2.41c-.19.44-.18.5-.39.5v.09h1Zm1.57-4.47,1,2.52h-2Z"/><path d="M100.72,32.88l.07.06a3,3,0,0,1,.75.77,2.84,2.84,0,0,1,.4,1.45,2.94,2.94,0,0,1-.21,1.12,3,3,0,0,1-.55.86h2.13V32.62h-3A4.28,4.28,0,0,1,100.72,32.88Zm1.72,0v3.78h-.67v-.05a2.89,2.89,0,0,0,.38-1.42,2.85,2.85,0,0,0-.34-1.33C101.89,33.3,102.08,33,102.44,32.85Z"/><path d="M85.49,47.24H89.3V42.73H85.49ZM87.4,43c.5.13.68.73.68,1.65v2.12H87.4Z"/><path d="M95.34,28.65h.23c.51,0,.88.26.88.77a.75.75,0,0,1-.45.78l.25.58a1.33,1.33,0,0,0,.91-1.32A1.42,1.42,0,0,0,95.55,28h-.47l.25.58Z"/><polygon points="101.41 27.34 99.55 32.18 103.27 32.18 101.41 27.34"/><path d="M87.07,36.28a2.94,2.94,0,0,1-.21-1.12,2.85,2.85,0,0,1,.41-1.45,3,3,0,0,1,.74-.77l.08-.06a4.28,4.28,0,0,1,.42-.26h-3v4.52h2.13A3.23,3.23,0,0,1,87.07,36.28Zm0,.35h-.68V32.85c.36.1.56.45.64,1a2.74,2.74,0,0,0-.34,1.33A2.79,2.79,0,0,0,87,36.58Z"/><polygon points="94.91 30.27 94 30.27 93.76 30.89 95.16 30.89 94.91 30.27"/><path d="M92.1,28.28v4.2L93,30.27h-.16V28.65h.81l.25-.61h-2v.08C92.06,28.12,92.1,28.15,92.1,28.28Z"/><path d="M98,32.8c2.54.78,1.77,1.93,1.34,2.33-1,.93-2.4-.75-4.93-.78h0c-2.52,0-3.92,1.71-4.92.78-.43-.4-1.2-1.55,1.33-2.33.43-.15-.17-.34-1.21,0-4,1.25-2.29,5.16.31,5.16,5.57,0,1.42,4.79,2.55,6.57-1.4-1.81,1.67-6.21-2.76-6.21,0,0,.19.61.19.61a1.87,1.87,0,0,1,1.4,1.32,2.87,2.87,0,0,0-1.1-.29L92,45.84a1.09,1.09,0,0,1,.26,0,1,1,0,0,1,1,1c0,.43.61.67,1.09.67s1.07-.24,1.1-.67a1,1,0,0,1,1-1,1.17,1.17,0,0,1,.27,0L98.61,40a2.87,2.87,0,0,0-1.1.29,1.88,1.88,0,0,1,1.41-1.32s.19-.62.18-.61c-4.42,0-1.36,4.4-2.75,6.21,1.13-1.78-3-6.57,2.55-6.57,2.59,0,4.28-3.91.3-5.16C98.17,32.46,97.56,32.65,98,32.8Z"/><path d="M96.87,46.48a.7.7,0,0,0-.52-.15.53.53,0,0,0-.41.28c-.12.27.24.6.28.91.09.65-.85.92-1.83.92s-1.93-.27-1.84-.92c0-.31.4-.64.27-.91a.5.5,0,0,0-.4-.28.71.71,0,0,0-.52.15,2.28,2.28,0,0,0-.59.88c-.45,1.32,1,2.57,3.08,2.57s3.52-1.25,3.07-2.57A2.28,2.28,0,0,0,96.87,46.48Z"/><path d="M86.33,24.58a.25.25,0,0,0,.23.15h0a9.67,9.67,0,0,0,2.83.38c-3.94.22-7.72.56-7.72.56.48,8.9.46,17.89.46,17.89,0,9.34,8.92,7.28,12.34,9.44h0c3.41-2.16,12.34-.1,12.34-9.44,0,0,0-9,.46-17.89,0,0-3.88-.35-7.88-.57a8.87,8.87,0,0,0,2.69-.37h0a.25.25,0,0,0,.23-.15s1.26-3.43,1.89-4.94a.34.34,0,0,0,0-.34.28.28,0,0,0-.23-.12.53.53,0,0,0-.38.24l-.71.67a10.52,10.52,0,0,0-6.81-3.55,1.35,1.35,0,0,0-.85-.78v-.88h.56V13.43H95.3v-.77H93.54v.77H93v1.45h.56v.87a1.39,1.39,0,0,0-.88.78,10.47,10.47,0,0,0-6.88,3.59l-.74-.7a.53.53,0,0,0-.38-.24.28.28,0,0,0-.23.12.37.37,0,0,0,0,.34C85.07,21.15,86.32,24.54,86.33,24.58Zm19.74,1.89V43.31c0,8.87-8.34,6.24-11.57,8.29-3.25-2.05-11.59.58-11.59-8.29V26.47s5-.54,11.59-.54S106.07,26.47,106.07,26.47ZM94.38,16.81c3.78,0,7,1.76,8.35,3.5l-1.16,1.08s0,0,0,0a.78.78,0,0,0-.65-.46h-.06a.77.77,0,0,0-.61.38.25.25,0,0,0,0-.19l-.88-1.55a.23.23,0,0,0-.18-.12h0a.23.23,0,0,0-.17.07l-1.24,1.31,0,0a1,1,0,0,0-.85-.63h0a.86.86,0,0,0-.6.24.24.24,0,0,0-.05-.14c-.52-.65-1.06-1.3-1.6-1.93a.27.27,0,0,0-.16-.08h0a.23.23,0,0,0-.16.08c-.55.63-1.09,1.28-1.61,1.93a.24.24,0,0,0,0,.14.86.86,0,0,0-.6-.24h0a.92.92,0,0,0-.65.32,1,1,0,0,0-.21.31s0,0,0,0l-1.24-1.31a.23.23,0,0,0-.17-.07h0a.23.23,0,0,0-.18.12l-.88,1.55a.21.21,0,0,0,0,.19.77.77,0,0,0-.61-.38h-.06a.78.78,0,0,0-.65.46l0,0L86,20.34C87.34,18.58,90.58,16.81,94.38,16.81Zm-9.51,2.77a25.81,25.81,0,0,0,2,1.92s-.15.75-.22,1.12l1-.12a.66.66,0,0,1-.34-.57.61.61,0,0,1,.52-.73c.26,0,.55.28.58.62a.74.74,0,0,1-.24.62l1.54-.15c-.35-.37-.93-1.1-.93-1.1l.8-1.48L90.85,21s-.48.83-.79,1.25c.54,0,1.07-.07,1.61-.09a1,1,0,0,1-.49-.8.86.86,0,0,1,.73-.89.82.82,0,0,1,.75.83,1,1,0,0,1-.4.83c.61,0,1.24,0,1.87,0-.44-.54-.9-1.08-1.37-1.61.52-.65,1.06-1.29,1.6-1.93.55.64,1.08,1.28,1.6,1.93-.47.53-.92,1.07-1.37,1.61.65,0,1.27,0,1.88,0a1,1,0,0,1-.4-.84.81.81,0,0,1,.75-.82.86.86,0,0,1,.73.89,1,1,0,0,1-.49.8c.54,0,1.08.06,1.61.1-.3-.42-.79-1.26-.79-1.26l1.24-1.31.8,1.48s-.59.74-.94,1.11c.52,0,1,.1,1.58.16a.71.71,0,0,1-.26-.64c0-.34.31-.65.57-.62a.61.61,0,0,1,.52.73.63.63,0,0,1-.37.58l1,.12c-.08-.37-.16-.75-.23-1.12.63-.73,1.66-1.43,2.33-2.14-.64,1.53-1.44,3.55-2,5.1a56.42,56.42,0,0,0-15.43,0c-.58-1.54-1.36-3.4-2-4.93C84.57,19.37,84.69,19.37,84.87,19.58Z"/><path d="M123.58,43.4c0,.54,0,.92-.55,1.25v0h2.61v0c-.49-.25-.47-.75-.47-1.21V38.65h0a4.78,4.78,0,0,1-2.47,1.43v0l.9.23Z"/><path d="M126.86,43.07a1.56,1.56,0,0,0,.87,1.37,3.56,3.56,0,0,0,1.64.35c1.2,0,2.4-.5,2.4-1.85a1.65,1.65,0,0,0-1.12-1.57,1.22,1.22,0,0,0,.89-1.16,1.49,1.49,0,0,0-.81-1.27,3,3,0,0,0-1.38-.29,3,3,0,0,0-1.54.34,1.45,1.45,0,0,0-.77,1.3,1.6,1.6,0,0,0,.9,1.4A1.43,1.43,0,0,0,126.86,43.07Zm2.48-3.62a.9.9,0,0,1,.91.94A.72.72,0,0,1,130,41l-.22-.1c-.39-.17-1.08-.41-1.08-.91A.61.61,0,0,1,129.34,39.45Zm-.75,2.64.56.25c.38.18,1,.39,1,.89s-.46.72-.9.72a1,1,0,0,1-1.08-1A1,1,0,0,1,128.59,42.09Z"/><path d="M133.62,39.64a5.2,5.2,0,0,1,1.1.11l-2.05,4.9v0H135v0a.62.62,0,0,1-.28-.5,2.49,2.49,0,0,1,.22-.75l1.77-4.61h-4.32L132,40.05h0A3,3,0,0,1,133.62,39.64Z"/><path d="M138.29,42.43l-1.38,2.24h4.29l.42-1.29a3.44,3.44,0,0,1-1.62.43,2.94,2.94,0,0,1-.72-.08l.11-.16,1.06-1.64a4.11,4.11,0,0,0,.71-1.79c0-1-1-1.49-1.89-1.49a4.37,4.37,0,0,0-1.6.3l-.38,1.22a2.63,2.63,0,0,1,1.44-.59.6.6,0,0,1,.65.59,2.42,2.42,0,0,1-.39,1Z"/><path d="M52.68,44.27l.48-1.34a3.06,3.06,0,0,1-1.83.53l-1-.08,2.56-4.71h-4l-.45,1.21a2.94,2.94,0,0,1,1.5-.41l.68,0L48,44.27Z"/><path d="M55.06,44.25c-.16-.13-.31-.24-.31-.48a2.18,2.18,0,0,1,.15-.61l.21-.58h1.71l.29.82a.75.75,0,0,1,.06.33.58.58,0,0,1-.35.52v0h2.61a2.28,2.28,0,0,1-.74-1.19l-1.64-4.39H54.94v0a.59.59,0,0,1,.32.49,2.76,2.76,0,0,1-.19.68l-1.19,3.4a2.11,2.11,0,0,1-.6,1v0h1.78Zm.87-4.14h0l.59,1.68H55.36Z"/><path d="M64,43.08a2,2,0,0,1-1.23.38,2.15,2.15,0,0,1-.91-.15V39.9c0-.45-.06-.94.36-1.2v0H59.9v0c.42.26.36.75.36,1.19v3.17c0,.45.06.92-.36,1.19v0h3.77Z"/><path d="M65.56,44.38a.82.82,0,0,0,.85-.81.8.8,0,0,0-.81-.8.82.82,0,0,0-.83.83A.8.8,0,0,0,65.56,44.38Z"/><path d="M77.13,51c1.62.77,2.73.69,3.07.25,0,0-2.81-2.71-4-3.52a9.15,9.15,0,0,0-3.4-1.57A9.44,9.44,0,0,0,77.13,51Z"/><path d="M78.69,49.3s-.35-5.68-1.76-7.84a4.53,4.53,0,0,0-1,3.21A6.61,6.61,0,0,0,78.69,49.3Z"/><path d="M73.29,44.83c1.12,1.16,2.07,1.47,2.48,1.24V46S74,42.48,73.55,41.82A12.3,12.3,0,0,0,71,39.31,9.31,9.31,0,0,0,73.29,44.83Z"/><path d="M74.33,38.94a5.67,5.67,0,0,0,.91,4.63s1.37-5,.84-7.18A4.72,4.72,0,0,0,74.33,38.94Z"/><path d="M71.37,32.61a8.76,8.76,0,0,0,.49,5.57c.66,1.4,1.4,2,1.83,1.93,0,0-.61-3.68-.81-4.43A11.36,11.36,0,0,0,71.37,32.61Z"/><path d="M74.36,33.26a6.3,6.3,0,0,0-.55,4.5s2.74-3.12,2.84-5.95A3.24,3.24,0,0,0,74.36,33.26Z"/><path d="M80.1,24.72a18,18,0,0,0-2.18,3,3.46,3.46,0,0,0-2,.77,5.67,5.67,0,0,0-1.62,2.74,4.39,4.39,0,0,0,0,1.23s3.15-2.56,4-4.47a16.05,16.05,0,0,1,5.6-6.36A14,14,0,0,0,80.1,24.72Z"/><path d="M77.35,24.74a6.63,6.63,0,0,0-2.62,2.79c-.5,1.06-.47,1.81-.21,2l.61-.74s1-1.07,1.63-1.83a7.37,7.37,0,0,0,1-2.2,19.31,19.31,0,0,1,5.87-5,18.17,18.17,0,0,0-4.54,3.05A18.69,18.69,0,0,0,77.35,24.74Z"/><path d="M74,26.4c-.33.52-.63,1.05-.91,1.59a6.63,6.63,0,0,0-.55,4.24c.17,1.32.63,2,1,2.07,0,0,.46-2.52.52-3.87a7.6,7.6,0,0,0-.32-2.64c.2-.39.4-.78.63-1.15a17.53,17.53,0,0,1,6.42-6.32A15.56,15.56,0,0,0,77,22.86,18.05,18.05,0,0,0,74,26.4Z"/><path d="M84.66,53.7A33,33,0,0,0,80.91,47c-.12-.18-.32-.39-.51-.62h0a16.93,16.93,0,0,1-3.17-10.13A16.71,16.71,0,0,1,80.7,25.73a16,16,0,0,0-4,10.91,16.62,16.62,0,0,0,3,9.71A5.17,5.17,0,0,0,80,49.8,9.26,9.26,0,0,0,84.66,53.7Z"/><path d="M76.4,52.74a10.44,10.44,0,0,0,6.31,3.12c2.21.2,2.81-.1,3.8-.69a29.68,29.68,0,0,0-5.22-2.35,15.11,15.11,0,0,0-4.15-.43c-4-3.1-6.77-8.35-6.77-15.49,0-7.64,3.61-14.15,8.71-16.73-5.4,2.41-9.35,9-9.49,16.77C69.48,43.67,72.23,49.58,76.4,52.74Z"/><path d="M78.37,55.49c7.88,5.27,8.11-.18,12,1.62C86,53.91,87.2,58.32,78.37,55.49Z"/><path d="M89.16,56c-.7-2.62-2.2-1.77-4.68-4C86.84,56,87.7,54.55,89.16,56Z"/><path d="M108.9,51.28c.35.44,1.46.52,3.07-.25a9.4,9.4,0,0,0,4.31-4.84,9.11,9.11,0,0,0-3.39,1.57C111.72,48.57,108.9,51.28,108.9,51.28Z"/><path d="M110.42,49.3a6.61,6.61,0,0,0,2.77-4.63,4.44,4.44,0,0,0-1-3.21C110.76,43.62,110.42,49.3,110.42,49.3Z"/><path d="M115.55,41.82c-.46.66-2.22,4.19-2.22,4.19v.06c.42.23,1.36-.08,2.48-1.24a9.32,9.32,0,0,0,2.35-5.52A12.38,12.38,0,0,0,115.55,41.82Z"/><path d="M114.78,38.94A4.72,4.72,0,0,0,113,36.39c-.52,2.2.84,7.18.84,7.18A5.7,5.7,0,0,0,114.78,38.94Z"/><path d="M116.23,35.68c-.2.75-.82,4.43-.82,4.43.43.06,1.18-.53,1.83-1.93a8.7,8.7,0,0,0,.5-5.57A11.07,11.07,0,0,0,116.23,35.68Z"/><path d="M112.45,31.81c.11,2.83,2.84,5.95,2.84,5.95a6.33,6.33,0,0,0-.54-4.5A3.25,3.25,0,0,0,112.45,31.81Z"/><path d="M110.78,28c.86,1.91,4,4.47,4,4.47a4.25,4.25,0,0,0,0-1.23,5.67,5.67,0,0,0-1.62-2.74,3.51,3.51,0,0,0-2-.77,18.58,18.58,0,0,0-2.18-3,14,14,0,0,0-3.84-3.12A16.15,16.15,0,0,1,110.78,28Z"/><path d="M111.31,24.81a7.37,7.37,0,0,0,1,2.2c.58.76,1.62,1.81,1.62,1.83l.62.74c.26-.24.28-1-.22-2a6.63,6.63,0,0,0-2.62-2.79,18.59,18.59,0,0,0-1.76-1.9,18,18,0,0,0-4.55-3.05A19.31,19.31,0,0,1,111.31,24.81Z"/><path d="M114.74,26.64a12.83,12.83,0,0,1,.63,1.15,7.39,7.39,0,0,0-.31,2.64,36.45,36.45,0,0,0,.52,3.87c.38-.06.85-.75,1-2.07A6.57,6.57,0,0,0,116,28c-.28-.54-.58-1.07-.91-1.59a17.67,17.67,0,0,0-3-3.54,16,16,0,0,0-3.83-2.54A17.5,17.5,0,0,1,114.74,26.64Z"/><path d="M104.44,53.7a9.22,9.22,0,0,0,4.7-3.9,5.11,5.11,0,0,0,.25-3.45,16.62,16.62,0,0,0,3-9.71,16,16,0,0,0-3.95-10.91,16.71,16.71,0,0,1,3.45,10.49,16.86,16.86,0,0,1-3.17,10.13h0c-.18.23-.39.44-.5.62A33.26,33.26,0,0,0,104.44,53.7Z"/><path d="M118.74,36.9c0,7.14-2.73,12.39-6.77,15.49a15.22,15.22,0,0,0-4.16.43,29.84,29.84,0,0,0-5.21,2.35c1,.59,1.59.89,3.79.69a10.44,10.44,0,0,0,6.31-3.12c4.17-3.16,6.93-9.07,6.81-15.8-.14-7.79-4.08-14.36-9.48-16.77C115.12,22.75,118.74,29.26,118.74,36.9Z"/><path d="M110.74,55.49c-8.83,2.83-7.62-1.58-12,1.62C102.62,55.31,102.86,60.76,110.74,55.49Z"/><path d="M99.94,56c1.47-1.44,2.32,0,4.68-4C102.15,54.22,100.65,53.37,99.94,56Z"/><path d="M157.79,72.51a8.77,8.77,0,0,1-5.07,8.43,8.27,8.27,0,0,1,.69.77,8.94,8.94,0,0,0,5.46-8.66,9.31,9.31,0,0,0-3.18-7.57,8.76,8.76,0,0,0-.9-.64,9.1,9.1,0,0,1,.63.9A9.47,9.47,0,0,1,157.79,72.51Z"/><path d="M143.29,76.21V69.59a5.41,5.41,0,0,1,.84.09,4.91,4.91,0,0,0-.34-.5,7.66,7.66,0,0,0-1.57-.23v8.22A3.67,3.67,0,0,0,143.29,76.21Z"/><path d="M153.57,81.91c.22.3.43.6.62.91a18,18,0,0,1,3.1,5.87,32.4,32.4,0,0,0,1.27,3.06,19.62,19.62,0,0,0,2.67,4.16l1.8,1.68.43.36.23.17c-1.14-1-2.05-1.86-4.07-5.87-.47-.94-.86-2-1.28-3.06C157.32,86.49,156.19,83.52,153.57,81.91Z"/><path d="M142.22,83.94v9a6.89,6.89,0,0,0,.43,2.63l1.19,1a6.47,6.47,0,0,1-.55-3.1V85.88A15.35,15.35,0,0,0,142.22,83.94Z"/><path d="M164.75,99l-2.38.06c-.2,0-4.92.16-6.27.16a11.07,11.07,0,0,1-5-1,.69.69,0,0,0,.13.11c2,1.53,4.91,1.53,5.87,1.53,1.35,0,6.07-.16,6.27-.17l2.13-.07Z"/><polygon points="126.41 98.94 127.18 99.58 147.17 99.57 146.41 98.94 126.41 98.94"/><path d="M28.22,69.12c2.2-1.93,8.86-4,11.41-4.35a22.11,22.11,0,0,1,2.4-.21l.64-1.3a28,28,0,0,0-4.07.25c-2.63.41-9.06,2.57-11.31,4.54l-2.2,2-.39-.32v0l1.44,1.19Z"/><path d="M61.71,103.47H24l-.23-.2h0l1.39,1.13h37.5L63.24,94a8.76,8.76,0,0,1-.91-1.81Z"/><path d="M43.48,94.71l.4,0L59.82,62.81l-1.23-1L42.3,94.57A9.72,9.72,0,0,1,43.48,94.71Z"/><polygon points="60.89 60.69 62.84 56.77 61.59 55.73 59.13 60.68 60.89 60.69"/><path d="M160,97.46l1.89-.06-1.38-1.29c-.77-.72-1.74-1.8-3.62-5.51-.48-1-.89-2.06-1.29-3.11-1.11-2.9-2.25-5.91-5-7.32l-.61-.31.63-.26a8.46,8.46,0,0,0,5.51-8.4,8.77,8.77,0,0,0-3-7.23,11.6,11.6,0,0,0-7.7-2.62H127l1.51,1.42a3.08,3.08,0,0,1,.91,1.46l0,.07a10.77,10.77,0,0,1,.34,3.28V91.74c0,2-.44,3.41-1.33,4.17l-1.6,1.37h16.73L142,95.91c-1-.85-1.49-2.27-1.49-4.23V82.17l.51,0c1.64.17,3.12,3.88,4.43,7.16,1.18,2.95,2.29,5.74,3.69,6.79,1.89,1.44,4.68,1.44,5.6,1.44S158.14,97.53,160,97.46ZM130.12,63.1a3.73,3.73,0,0,1,1.13,1.81,11.15,11.15,0,0,1,.39,3.55V92.63a7.36,7.36,0,0,1-.84,3.82h-1.58c1.07-.92,1.6-2.49,1.6-4.75V67.53a11.18,11.18,0,0,0-.38-3.55,3.83,3.83,0,0,0-1.14-1.81h16.4a10.53,10.53,0,0,1,7.1,2.36,7.24,7.24,0,0,1,1.26,1.34l-.44-.41a10.56,10.56,0,0,0-7.11-2.36Zm10.4,4.19h.33a4.14,4.14,0,0,1,3.43,1.49,5.09,5.09,0,0,1,1.17,3.69,6.11,6.11,0,0,1-1.65,4.08,5.29,5.29,0,0,1-2.88,1.88l-.4.11Zm.71,13-.45.07V79.26A6.25,6.25,0,0,0,144.65,77a6.92,6.92,0,0,0,1.81-4.53,6,6,0,0,0-1.06-3.85,4.1,4.1,0,0,1,.5.52,5.92,5.92,0,0,1,1.38,4.26,6.93,6.93,0,0,1-1.82,4.53A6.28,6.28,0,0,1,141.23,80.26ZM146.41,89a30.5,30.5,0,0,0-2.87-6c1.4,1.25,2.52,4,3.68,6.94a32.52,32.52,0,0,0,2.57,5.5C148.59,94.48,147.48,91.71,146.41,89Zm3-7.87-1.77-.34,1.68-.41a6.39,6.39,0,0,1,3.39,2.43A6.3,6.3,0,0,0,149.44,81.15Z"/><path d="M98.36,67.21v24c0,2.26-.55,3.82-1.52,4.77l-1.37,1.34h18.77a13.63,13.63,0,0,0,6.4-1.55,11.7,11.7,0,0,0,3.94-4,10.7,10.7,0,0,0,1.48-5.16A10.19,10.19,0,0,0,124.12,80a8.6,8.6,0,0,0-4-3l-.69-.24.65-.34a7.38,7.38,0,0,0,2.5-2,8,8,0,0,0,.55-8,9.26,9.26,0,0,0-4.37-4.18,17,17,0,0,0-6.22-1H95.78l1.28,1.4C97.94,63.67,98.36,65.13,98.36,67.21Zm10.74,23.9V80.42h1a5.79,5.79,0,0,1,4.32,1.5,5.89,5.89,0,0,1,1.19,4.46,6.31,6.31,0,0,1-1.43,3.92,4.64,4.64,0,0,1-3.22,1.3,4.37,4.37,0,0,1-1.64-.4Zm4.43-23q.21.18.42.39A5,5,0,0,1,115,72h0a4.61,4.61,0,0,1-1.37,3.47,5.78,5.78,0,0,1-3,1.33c-.41,0-.72,0-.87,0h-.48v-.92l.54,0a5.78,5.78,0,0,0,3-1.33,4.64,4.64,0,0,0,1.36-3.47h0A5.51,5.51,0,0,0,113.53,68.16ZM112.19,74l0,.05a5,5,0,0,1-2.53,1.1l-.47,0,0-.35V67.32l.21-.08a2.68,2.68,0,0,1,.86-.13h0a3.11,3.11,0,0,1,2.2,1,4.13,4.13,0,0,1,.89,2.89A3.91,3.91,0,0,1,112.19,74Zm5.14,13.4a7,7,0,0,1-1.68,4.44,5.43,5.43,0,0,1-3.78,1.51h0a4.55,4.55,0,0,1-2.36-.74l-.17-.12V92a5.15,5.15,0,0,0,1.72.39h0a5.46,5.46,0,0,0,3.78-1.52,7,7,0,0,0,1.67-4.44,7.22,7.22,0,0,0-.94-4.46c.12.11.25.23.36.35A6.56,6.56,0,0,1,117.33,87.36Zm6.33-6.85a0,0,0,0,1,0,0,8,8,0,0,0-4.87-2.31L116.89,78l1.85-.54.07,0A7.88,7.88,0,0,1,123.66,80.51Zm-10.94-18.3a16.56,16.56,0,0,1,5.92.83,7.2,7.2,0,0,1,3,2.46A6.48,6.48,0,0,0,119.46,64a16.58,16.58,0,0,0-5.93-.83H98.6c1,1.07,1.52,2.71,1.52,5v24a8.88,8.88,0,0,1-1,4.38H97.55c1.13-1.1,1.7-2.84,1.76-5.31v-24c0-2.29-.5-3.93-1.53-5Z"/><path d="M77.27,98.29h.06A38.73,38.73,0,0,0,82.2,98a15.09,15.09,0,0,0,6.87-2.47c2.15-1.54,3.27-4.31,3.34-8.24V68.43a16.82,16.82,0,0,1,.37-4.19,3,3,0,0,1,1.11-1.51l1.56-1.3h0l.1-.08H79l1.47,1.35a3.16,3.16,0,0,1,.91,1.47l0,.06a12.09,12.09,0,0,1,.4,3.83v17.5a7.18,7.18,0,0,1-1,3.89c-.37.66-1.14,1.56-3.46,1.56s-3.1-.93-3.49-1.62a7,7,0,0,1-1-3.83V68.06a12.21,12.21,0,0,1,.4-3.84l0-.07a3.14,3.14,0,0,1,.91-1.45l1.47-1.35H59l1.69,1.38a2.86,2.86,0,0,1,1.1,1.6,16,16,0,0,1,.35,4.1V87.3c.07,3.91,1.2,6.68,3.37,8.23A15.05,15.05,0,0,0,72.35,98,39.16,39.16,0,0,0,77.27,98.29Zm.17-6.5c2,0,3.41-.65,4.15-2a7.88,7.88,0,0,0,1.12-4.26V68.06a12.54,12.54,0,0,0-.46-4.12,3.85,3.85,0,0,0-1.13-1.81H93.55a4.56,4.56,0,0,0-.88.93H81.94a3.91,3.91,0,0,1,1.12,1.81A12.27,12.27,0,0,1,83.52,69v17.5a7.79,7.79,0,0,1-1.12,4.26c-.74,1.32-2.09,2-4.15,2s-3.32-.62-4.08-1.87A5.11,5.11,0,0,0,77.44,91.79ZM61.35,62.13H73.76a3.84,3.84,0,0,0-.74.93H62.23A4.46,4.46,0,0,0,61.35,62.13Zm1.74,25.15V68.43a17.23,17.23,0,0,0-.39-4.34,2.88,2.88,0,0,0-.38-.89A3.5,3.5,0,0,1,63.52,65a17.78,17.78,0,0,1,.38,4.34V88.21a10.91,10.91,0,0,0,1.65,6.2C64,93,63.14,90.56,63.09,87.28Z"/><path d="M61,88.29l-1.39,1.57c-3.56,4-6.07,5.82-11.55,5.82a39.32,39.32,0,0,1-4.67-.32c-.85-.1-1.71-.18-2.54-.22l-.49,0,17-34.27.07-.14,2.43-4.9H25.82l-.83,12,1.32-1.16c2.21-1.94,8.75-4.13,11.32-4.54A30.58,30.58,0,0,1,42,61.91l1.53,0,.5,0L24.16,102.12h36ZM27.48,57.52l-.54,7.89a8.33,8.33,0,0,0-.93.69l.65-9.51H58.85l-.46.93Zm-1.94,43.82L45,62.09l1,0h.26l-19.41,39.2Zm23.51-4a40.84,40.84,0,0,1-4.76-.32,24.87,24.87,0,0,0-3.88-.23h-.28l.47-.93c.67,0,1.66.08,2.88.23a40.68,40.68,0,0,0,4.75.32c5.62,0,8.38-1.87,12.09-6.06l-.12,1.94C56.94,95.82,54.18,97.39,49.05,97.39Z"/><path d="M74.81,65.35a11.65,11.65,0,0,0-.39,3.72v17.5a6.79,6.79,0,0,0,.77,3.35,3,3,0,0,0,.8.29,7,7,0,0,1-.5-2.76V70a11.86,11.86,0,0,1,.38-3.69l0-.07a7.51,7.51,0,0,1,2.57-2.72l.64-.27L77.78,62l-.39.25a8,8,0,0,0-2.56,3Z"/><path d="M95.11,70.32a15.94,15.94,0,0,1,.34-4l0,0A3.12,3.12,0,0,1,97,64.51l.27-.17a3.68,3.68,0,0,0-.55-1c-.06-.06-.14-.1-.21-.16l-.5.32a3.36,3.36,0,0,0-1.65,1.84A16.51,16.51,0,0,0,94,69.44V88.29c-.06,4-1.24,6.91-3.49,8.52a15.34,15.34,0,0,1-7,2.53,41,41,0,0,1-4.87.31h-.19a40.7,40.7,0,0,1-4.87-.31,15.56,15.56,0,0,1-6.54-2.22l-.63-.33a7.14,7.14,0,0,0,1.08,1,15.47,15.47,0,0,0,7,2.54,39.75,39.75,0,0,0,5,.31h0a39.67,39.67,0,0,0,5-.31,15.45,15.45,0,0,0,7.06-2.55c2.28-1.62,3.46-4.51,3.53-8.59Z"/><path d="M125.51,71.5a6.75,6.75,0,0,1-3.07,6,8.83,8.83,0,0,1,.9.74,8,8,0,0,0,2.41-10.09,10.94,10.94,0,0,0-3.64-3.93,13.64,13.64,0,0,1,2.56,3.42A7.84,7.84,0,0,1,125.51,71.5Z"/><path d="M111.51,68.74a2.22,2.22,0,0,0-.72.11v5.24a3.56,3.56,0,0,0,.79-.46V69.48a3.68,3.68,0,0,1,.82-.08,2.78,2.78,0,0,0-.25-.55A2.59,2.59,0,0,0,111.51,68.74Z"/><path d="M111.58,90.89V82.7h.82a8.1,8.1,0,0,1,1.95.25,3,3,0,0,0-.27-.42,7.21,7.21,0,0,0-2.68-.48h-.61v8.88H111A4.46,4.46,0,0,0,111.58,90.89Z"/><path d="M128.69,88.46a10.62,10.62,0,0,0-2-6.83,9.42,9.42,0,0,0-2.16-2.12l.09.12a11.07,11.07,0,0,1,.77,1.2l.22.29a10.53,10.53,0,0,1,2,6.78,11.11,11.11,0,0,1-1.51,5.31,12,12,0,0,1-4,4.11,13.65,13.65,0,0,1-6.51,1.59H95.15l-1.21-1h0l2,1.65h20.63A13.91,13.91,0,0,0,123.1,98a12.11,12.11,0,0,0,4.07-4.15A11.29,11.29,0,0,0,128.69,88.46Z"/></svg>