<svg id="Layer_1" data-name="Layer 1" xmlns="http://www.w3.org/2000/svg" viewBox="0 0 189.22 117.06"><defs><style>.cls-1{fill-rule:evenodd;}</style></defs><title>logo</title><path class="cls-1" d="M150.08,78.16c-3-.38-5.19.63-8.86.07-.28-5-5.78-3.86-9.21-3.81-2.34,0-4.9-.52-6.75.29a4.87,4.87,0,0,0-2.93,3.55l-1.6,0h0a57.25,57.25,0,0,0,6.11-19.09,63.79,63.79,0,0,0,.5-10.19c3.91-2.36,6.8-5.36,3.74-8a15.1,15.1,0,0,0-4.9-2.63c-2.64-13.83-9.81-27.05-22.88-32-8.91-3.4-18.37-1.31-25.66,4.65-16.39,13.44-20.24,41.29-12,61.84h.59l-4.06,0a6.86,6.86,0,0,0-5.37,2.37,4.93,4.93,0,0,0-4.12-2.15l-12.87.15a5.3,5.3,0,0,0-5,4l-1,4a4.57,4.57,0,0,0,1.35,5.08L29.68,105.6c-1.05,3.71,1.7,6.61,5.28,6.6h3.92c3.07,0,5.74-.35,8.29-2.32,3.74,3.73,9.14,2.79,13.19,1.05a9.5,9.5,0,0,0,5.25.83A17.54,17.54,0,0,0,72,110.35c1.25,1.18,4.36,1.25,6.18,1.19a13.93,13.93,0,0,0,7.21-1.83c3.9,3.59,9.29,1.86,13-.19,5.07,3.58,14.8,2.4,19.32-.54,4,4,10.61,2.33,14.66.34,4.28,3.24,10.26,1.82,14.28.63,1.06-4.76,2.58-12.22,4.33-14.53,3.08.4,5.8-1,6.55-3.86l2-7.81C161.06,77.81,154.21,76.82,150.08,78.16ZM125.33,61a55,55,0,0,1-6,17.18h0a11.23,11.23,0,0,0-3.18.48,12.73,12.73,0,0,0-3.23-.6h0c4.49-6.7,7.36-15.83,7.64-25.93a46.29,46.29,0,0,0,5.58-2.55A64,64,0,0,1,125.33,61ZM72.18,47.55c-2.32-.77-5.73-2.18-7.22-3.74a4.18,4.18,0,0,1-.9-1.35c-.2-.63-.17-1.05.45-.15a5.64,5.64,0,0,0,1.13,1.17l.3.22h0l.12.08.21.15.13.08c.6.39.89.09,1.84-.37a15.11,15.11,0,0,1,5.24-1.08c2.26-.1,3.51.62,1.91.83-8.34,1.09-2.46,3.38-1.25,4A112,112,0,0,0,92.85,51.1c4.38.56,9.7.8,12.61,1,7.05.47,1.21.38-1.63.28-3.25-.1-6.9-.35-11-.78A103.41,103.41,0,0,1,72.18,47.55Zm10.47,24.7A34,34,0,0,1,79,59.17c-.12-3.17.38-2.48.65.09a44.15,44.15,0,0,0,3.57,12.92C84.12,74.34,84.16,75.25,82.65,72.25Zm6.29-35.19c-3-1.25-4.12-2.12.17-1.34a59.36,59.36,0,0,0,6.36.85,30.53,30.53,0,0,0,7.4-.08,44.76,44.76,0,0,0,6.67-1.34c2.15-.58,2.39-.47.52,1a2.83,2.83,0,0,0-.6,3.88,3.61,3.61,0,0,0,3.29,1c3.44-.47,2.63.16-1,1.27a38.78,38.78,0,0,1-5.06,1.07,41.08,41.08,0,0,1-11,.39,41,41,0,0,1-8.35-1.25c-5.16-1.58-3-1.33.15-1.39C92.33,41,94.05,39.16,88.94,37.06Zm22.49-6.16c-1.92.25-5.1-.22-6.1-2.11-.92-1.74-.28-3.63.44-5.47.39-.93,1.13-1.75,1.15-.25,0,2.58.85,4.73,3.8,6.11C112.32,29.94,113.34,30.64,111.43,30.9Zm-3.27-14.32c-1.52,1.56-3.44,2.7-4.51,4.56a6.79,6.79,0,0,0-.84,3.64c.08,6.08-1.3,6.1-2.5.06-.87-4.26-4.51-5.81-7.85-7.54-1.75-.85-1.18-1.42,1.83-.23,8.71,3.46,6.41,4,13.72-1.6C110.15,13.81,109.55,15.17,108.16,16.58ZM93.89,25.16c6.22.61.92,2-1.49,2.91-6.93,2.55-11.37,3.14-12-2.53-.15-1.67-.83-5.77,1.32-5.72,2.63.07,3.83,3.36,6,4.36C89.7,25,91.87,25,93.89,25.16Zm6.81,49.53a10.86,10.86,0,0,1-3.58-.43,6.29,6.29,0,0,0-4.32.42c-.87.51-1,.06.29-1.3a13.38,13.38,0,0,1,3.81-3c1.66-.88,1.24.66,1.49,1.18A5.32,5.32,0,0,0,101,74C101.83,74.38,101.31,74.64,100.7,74.69Zm1.54.83c1-.15,1.31.11.41,1a4.74,4.74,0,0,1-4.26.68c-.71-.28-1.3-.59-1.27-1.07s.56-.65,1.13-.51A7.81,7.81,0,0,0,102.24,75.52Zm-7.88.16c.94,0,1.17-.08,1.6.94a10.92,10.92,0,0,0,.56,1.26c.42.74.07,1.32,3.19,1.17,2.8-.13,2.57-1,3.77-2.51a6,6,0,0,1,1.7-1.56c1.17-.69,2.15.32,1.23,1.42-2,2.34-3.13,5.16-5.17,6.52-1.52,1-4.89,1.41-6.52.32a8.23,8.23,0,0,1-4-5.12C90,75.64,92.78,75.63,94.36,75.68ZM105,74c-1.5.66-2.18.18-.85-1.42.38-.5,4.21-3.7,3.54-4.31-1.25-1.19-1.36,2.65-3.11,1.51-1.49-1-2.71-.94-4.53-.91-.83,0-.76-1.06,0-1.34a10.42,10.42,0,0,0,2.63-1.25c1.46-1,2.35-1.77,2.42-3.44.18-5.58,1-5.34,2.08,1.18a8.46,8.46,0,0,0,.88,2.78c.78,1.37.85-.17,1.11-1.23.16-.67.42-.8,1-1.09a5.57,5.57,0,0,0,1.48-.88c.52-.5,2.22-3.33,1.89-1a20.21,20.21,0,0,1-1.72,5.61c-1,1.59-2.16-1.09-2.49-.57-.63.95-.47,3.62-.93,5.58-.4,1.73-.31,1.23-1.33.62C106.48,73.47,105.88,73.64,105,74Zm24-31.82c1.78.72.71.67-.79.41a31.56,31.56,0,0,0-9.33-.23c-2.54.35-2.23-.4-1.17-.84,1.55-.66.4-2,2.92-1.61A38.49,38.49,0,0,1,129,42.17Zm-53.17-28C83.93,6,95.58,3.14,106,8.82s16.51,17,18.91,29.06a27.44,27.44,0,0,0-5.45-1,2.84,2.84,0,0,1-.52-.07,50.77,50.77,0,0,0-1.71-5.48c-.1-.38-.2-.77-.31-1.17-1.09-3.95-3.06-21.5-10.24-17.38-.78.45-1.55,1-2.38,1.47a18.81,18.81,0,0,0-9.93-2.91,18.15,18.15,0,0,0-7.66,1.75c-2.73-.16-5.35.21-7.09,1.64s-3.2,3.82-3.7,8.2A45.55,45.55,0,0,0,69.75,37.9a15.72,15.72,0,0,0-3.51,1,11.5,11.5,0,0,0-2.81,1.58C65,30.4,69.15,21,75.82,14.2ZM63,43.64A11,11,0,0,0,66.11,46c.84.52,1.61.94,2.36,1.31-.06,1-.08,2.12-.08,3.19,0,11.19,3.25,21.3,8.35,28.41-1.7,0-3.47.18-4.95.17,1.47-3-1.53-6.35-4.72-6.38H67A60.57,60.57,0,0,1,63,43.64Zm95.43,39.78-1.75,7.14c-.64,2.57-2.49,4.15-6.09,3.68-1.78-.2-4.39,12.79-4.92,14.68-3.76,1.14-9.8,2.39-13.17-1.07-4.26,2.26-11.26,4.06-14.65-.53a14.16,14.16,0,0,1-6.65,2.73c-3.87.61-9.62.78-12.74-2-3.94,2.27-9.59,4.22-13,.06-3,2.38-10.94,3.17-13.27.75-3,1.58-9.26,2.51-11.75.63-4,1.92-10.39,3.13-13.17-1.42a10.23,10.23,0,0,1-7.2,2.93H35.72c-3.47,0-5.64-2.28-4.86-5.06l5.57-20a.53.53,0,0,1,.06-.19,3.62,3.62,0,0,1-1.61-4c.75-3.22,1.07-7.43,5.07-7.49l12.74-.17c2,0,3.16,1.22,3.85,3,2.62-2.75,3.7-3.26,6.07-3.25l4.49,0c2.8,0,5.09,3.86,2.76,6.28,2.23.29,8.9-.66,10.29.54a13.82,13.82,0,0,1,7.34-1c.93.71,1.92,1.35,3,2.06.89.57,1.74,1.16,2.62,1.67h0a17,17,0,0,0-3.92,2.34c-.34-2.21-1.47-3.08-4.09-3s-4.89.93-7.92,3.09l.36-1.28.26-1c.11-.39-.19-.46-.56-.43l-1,.12c-1.15.11-2.13.17-3.33.2A24.94,24.94,0,0,1,69,83.35a.61.61,0,0,0-.68.44l-4.45,16a4.74,4.74,0,0,1-2,.79c-.95,0-1.08-.61-.53-2.58l.83-3a13,13,0,0,0,.58-2.26c.31-1.56.16-2.49-.49-3.13-.91-1-2.17-1.22-5.68-1.17L66.65,77.63a.3.3,0,0,0-.23-.5l-5.52.05a.63.63,0,0,0-.43.17L49.74,88.55c1-3.51,2-7,2.93-10.51a.59.59,0,0,0-.58-.75l-6.88.09H44l-2,0-2.29,0a.65.65,0,0,0-.58.46L38,82.1a.29.29,0,0,0,.3.37l2.33,0L39.6,86l-5.66,20.25a.61.61,0,0,0,.6.76L39.9,107c3.46,0,5.22-1.85,6.23-5.41l2.41-8.69,1-.06c2.69,0,2.82.33,1.5,5l-.73,2.49c-.83,3-1,3.93-.64,4.91.45,1.28,1.81,2.07,3.72,2,2.82,0,6.48-1.65,9.57-4.24l-.75,2.73a.61.61,0,0,0,.71.74l3.83-.33c3.56-.31,5.23-1.45,6.2-5L76,90.09a4.21,4.21,0,0,1,2.09-1c.67,0,.73.61.13,2.74l-3.85,13.83a.61.61,0,0,0,.7.73l3.86-.32c2.93-.25,4.82-.58,6-5L88.1,89.94c1-.76,1.48-1,2.06-1,.83,0,.85.39.19,2.79l-2.23,8c-.76,2.68-.9,3.7-.75,4.7a2.87,2.87,0,0,0,3,2.23c2.37,0,4.83-1.17,9.37-4.24a3.24,3.24,0,0,0,.52,2.48c.86,1.06,3.31,1.61,6.79,1.56,4-.05,7.1-1.07,8.73-2.81.94-1,1.34-2,2.24-5.17l1.58-5.64a8.52,8.52,0,0,1-3.43.07l-1.54,5.57a7.81,7.81,0,0,1-1,2.63,2.75,2.75,0,0,1-2.22,1c-1.73,0-2.06-.83-1.4-3.22L112.52,90c.62-2.21,1.14-3,2-3a2.49,2.49,0,0,1,1.28.47l-.48,1.73c-.34,1.21-.38,1.93-.06,2.37a1.57,1.57,0,0,0,.7.48,3.28,3.28,0,0,0,.86.17,9.6,9.6,0,0,0,2.24-.08,10.91,10.91,0,0,0,1.65-.38,11.22,11.22,0,0,0,2.68-1.4l-2.71,9.71c-.81,2.89-.88,3.47-.6,4.26.38,1.15,1.85,1.89,3.75,1.86,3.1,0,6.43-1.41,10.1-4.13a3.57,3.57,0,0,0,.13,2c.51,1.32,2.09,2,4.48,2a17.87,17.87,0,0,0,3.83-.53c1-3.58,2-7.17,3-10.75a8.21,8.21,0,0,1,1.32-3,3.91,3.91,0,0,1,3.13-1.53,5.83,5.83,0,0,1,1.78.24.61.61,0,0,0,.74-.45l2.15-7.68a.29.29,0,0,0-.26-.37H154c-2.94-.14-4.81,1-5.88,3.06l.62-2.25a.29.29,0,0,0-.35-.38,19.11,19.11,0,0,1-4,.44,26.17,26.17,0,0,1-4.53-.34.57.57,0,0,0-.67.43L134.71,99a11.75,11.75,0,0,1-3.39,1.18c-.86,0-1-.67-.44-2.56l2.84-10.17,2.28,0a.59.59,0,0,0,.58-.44l1.17-4.18a.3.3,0,0,0-.3-.37l-2.34,0,1-3.58a.29.29,0,0,0-.31-.39,26.74,26.74,0,0,1-4.27.38,23.62,23.62,0,0,1-4.26-.26.65.65,0,0,0-.69.43l-2.27,8.18a4.5,4.5,0,0,1-2,.86c-.52,0-.6-.52-.29-1.67l1-3.37a.32.32,0,0,0-.32-.39c-1.06.11-1.69.15-2.63.17a22,22,0,0,1-2.32-.1.6.6,0,0,0-.63.43l-.26.89a8.79,8.79,0,0,0-5.29-1.56,9.35,9.35,0,0,0-5.57,1.73c-1.24,1-1.87,2.1-2.62,4.81l-2.86,10.24a4.68,4.68,0,0,1-2.18.93c-.65,0-.67-.57-.14-2.48l2.38-8.55c.68-2.42.83-3.66.56-4.57h0a8.18,8.18,0,0,0,3.16-2.81h0a13.27,13.27,0,0,1,12-1.8c.78-.43,5.71-.63,7.09-.49,1.35-4.86,4.9-3.68,8.68-3.81,4.19-.16,8.78-1,8.15,3.63,4.86.8,7-.43,10.11.11C153.6,78.19,159.67,78.48,158.44,83.42Z"/></svg>