<svg id="Layer_1" data-name="Layer 1" xmlns="http://www.w3.org/2000/svg" viewBox="0 0 141.73 141.73"><defs><style>.cls-1{fill-rule:evenodd;}</style></defs><title>cst_logo</title><path d="M116.53,79.36c.31,0,.58,0,.58-.39s-.29-.34-.54-.34h-.49v.73Zm-.46,1.41h-.41V78.28h.94c.6,0,.91.21.91.72a.64.64,0,0,1-.65.68l.69,1.1h-.46l-.64-1.06h-.39v1.06Zm.45-3.15a1.75,1.75,0,0,0-1.73,1.86,1.73,1.73,0,0,0,1.72,1.87,1.87,1.87,0,0,0,0-3.73Zm0,4.12a2.26,2.26,0,1,1,2.21-2.25,2.18,2.18,0,0,1-2.21,2.25Z"/><path class="cls-1" d="M35.71,70.37c2.34-4.63,11.77-4.91,17-1.57l4.09-8.39c-18.53-3.28-34.93,3-36,11.27-.56,8,10,11.78,25.69,9.87l4.21-8.63c-6.23,3.16-16.81,2.74-15-2.55"/><path class="cls-1" d="M83.15,67.51l3.08-6.44C77.51,58,58.85,59.41,55.92,67.2c-2.74,8,16.21,4.74,13.51,8-2.28,2-10.85.21-13.71-1.7L52.4,80.32c14.5,4.19,32.52.79,31.81-7.79C83.08,66.72,68.9,68.78,70,66.36c1.11-1.28,8.94-1.49,13.14,1.15"/><polygon class="cls-1" points="90.18 59.61 86.66 66.85 95.53 66.87 88.11 82.17 101.82 82.2 109.29 66.91 117.36 66.93 120.91 59.69 90.18 59.61"/></svg>