<svg id="Layer_1" data-name="Layer 1" xmlns="http://www.w3.org/2000/svg" viewBox="0 0 141.73 141.73"><defs><style>.cls-1{fill-rule:evenodd;}</style></defs><title>mrx_logo</title><path class="cls-1" d="M101.74,65l3.56,4.18L118.19,65h9.37l-20.23,6.55,4.36,5.1h-8l-1.17-1.37c-.82-1.1-2-1.07-3.74-.5L93,76.69H83.68l12-3.89C98.16,72,98.8,71,97.5,69.48L93.71,65Z"/><path class="cls-1" d="M71.12,76.69l-5.39-6.41H83.15a2.64,2.64,0,0,0,2.43-.91c.64-.9.53-1.34-.33-1.36H58.1l2.1-3H88.27c2.56,0,3.51,2,1.84,4.33-1.81,2.67-3.83,3.94-7,3.95H74.57l3.17,3.36Zm-25.1,0,4.63-6.61-12,4.37c-4.84,1.79-6.25,1.74-10-.94l-5.31-3.43-4.61,6.61H14.17L22.32,65h5.24l7.72,4.81c1.62,1,2.43.85,4.68,0L52.86,65h5.9L50.57,76.69Z"/></svg>