<?xml version="1.0" encoding="utf-8"?>
<!-- Generator: Adobe Illustrator 16.0.0, SVG Export Plug-In . SVG Version: 6.00 Build 0)  -->
<!DOCTYPE svg PUBLIC "-//W3C//DTD SVG 1.1//EN" "http://www.w3.org/Graphics/SVG/1.1/DTD/svg11.dtd">
<svg version="1.1" xmlns="http://www.w3.org/2000/svg" xmlns:xlink="http://www.w3.org/1999/xlink" x="0px" y="0px"
	 width="218.44px" height="75.761px" viewBox="0 0 218.44 75.761" enable-background="new 0 0 218.44 75.761" xml:space="preserve">
<g id="Guides_For_Artboard_1_">
</g>
<g id="Guides_For_Artboard">
</g>
<g id="Vrstva_1">
	<path fill="#CFE7F9" d="M69.026-78.865c0,0.129-0.111,0.234-0.25,0.234h-8.059c-0.139,0-0.252-0.105-0.252-0.234v-8.094
		c0-0.129,0.113-0.233,0.252-0.233h8.059c0.139,0,0.25,0.104,0.25,0.233V-78.865z"/>
	<path fill="#A0C9ED" d="M69.026-64.693c0,0.131-0.111,0.234-0.25,0.234h-8.059c-0.139,0-0.252-0.104-0.252-0.234v-8.092
		c0-0.129,0.113-0.234,0.252-0.234h8.059c0.139,0,0.25,0.105,0.25,0.234V-64.693z"/>
	<path fill="#61A4D7" d="M69.026-50.52c0,0.129-0.111,0.234-0.25,0.234h-8.059c-0.139,0-0.252-0.105-0.252-0.234v-8.094
		c0-0.127,0.113-0.232,0.252-0.232h8.059c0.139,0,0.25,0.105,0.25,0.232V-50.52z"/>
	<path fill="#00457C" d="M69.026-36.348c0,0.131-0.111,0.234-0.25,0.234h-8.059c-0.139,0-0.252-0.104-0.252-0.234v-8.092
		c0-0.129,0.113-0.234,0.252-0.234h8.059c0.139,0,0.25,0.105,0.25,0.234V-36.348z"/>
	<g>
		<g>
			<path fill="#CFE7F9" d="M41.042-177.988c0,0.273-0.236,0.494-0.527,0.494H23.543c-0.292,0-0.528-0.22-0.528-0.494v-17.044
				c0-0.271,0.236-0.492,0.528-0.492h16.972c0.291,0,0.527,0.221,0.527,0.492V-177.988z"/>
			<path fill="#A0C9ED" d="M61.22-177.988c0,0.273-0.236,0.494-0.527,0.494H43.72c-0.291,0-0.527-0.22-0.527-0.494v-17.044
				c0-0.271,0.236-0.492,0.527-0.492h16.972c0.291,0,0.527,0.221,0.527,0.492V-177.988z"/>
			<path fill="#61A4D7" d="M61.22-157.755c0,0.27-0.236,0.492-0.527,0.492H43.72c-0.291,0-0.527-0.222-0.527-0.492V-174.8
				c0-0.271,0.236-0.492,0.527-0.492h16.972c0.291,0,0.527,0.22,0.527,0.492V-157.755z"/>
			<path fill="#00457C" d="M81.334-157.755c0,0.27-0.236,0.492-0.527,0.492H63.833c-0.291,0-0.527-0.222-0.527-0.492V-174.8
				c0-0.271,0.236-0.492,0.527-0.492h16.973c0.291,0,0.527,0.22,0.527,0.492V-157.755z"/>
		</g>
		<g>
			<path fill="#00457C" d="M90.188-158.574l5.765-13.195h-4.739c-0.325,0-0.599,0.039-0.821,0.115v-3.591h10.634v1.129
				l-5.893,13.563h5.047c0.154,0,0.294-0.008,0.422-0.025c0.127-0.019,0.261-0.051,0.398-0.101v3.385H90.188V-158.574z"/>
			<path fill="#00457C" d="M106.554-175.263v17.935h-3.583v-17.935H106.554z"/>
			<path fill="#00457C" d="M114.72-175.263l-3.535,4.047h-2.742l2.894-4.047H114.72z M112.503-170.138v12.81h-3.585v-12.81H112.503z
				"/>
			<path fill="#00457C" d="M124.148-157.292h-3.584v-9.006c0-0.241-0.037-0.411-0.115-0.514c-0.074-0.103-0.216-0.154-0.42-0.154
				h-1.758v9.674h-3.583v-12.827h6.213c1.193,0,2.032,0.315,2.52,0.948c0.485,0.631,0.728,1.454,0.728,2.462V-157.292z"/>
			<path fill="#00457C" d="M134.316-170.12v3.437c-0.152-0.103-0.346-0.177-0.575-0.218c-0.232-0.045-0.465-0.066-0.706-0.066
				h-2.944c-0.325,0-0.488,0.171-0.488,0.512v0.156c0,0.239,0.146,0.434,0.437,0.588l2.435,0.975c0.426,0.173,0.78,0.35,1.062,0.539
				c0.284,0.189,0.514,0.407,0.693,0.656c0.179,0.247,0.307,0.535,0.385,0.858c0.075,0.325,0.114,0.711,0.114,1.156v0.822
				c0,1.179-0.273,2.044-0.822,2.591c-0.545,0.549-1.359,0.821-2.439,0.821h-5.302v-3.363c0.154,0.103,0.346,0.173,0.576,0.218
				c0.23,0.041,0.465,0.064,0.703,0.064h3.383c0.136,0,0.249-0.047,0.334-0.142c0.086-0.095,0.127-0.229,0.127-0.399v-0.232
				c0-0.29-0.136-0.506-0.409-0.642l-2.254-0.926c-0.461-0.189-0.852-0.384-1.166-0.592c-0.316-0.206-0.574-0.444-0.77-0.72
				c-0.197-0.273-0.333-0.596-0.409-0.962c-0.078-0.37-0.115-0.812-0.115-1.327v-0.386c0-1.08,0.266-1.917,0.801-2.52
				c0.528-0.601,1.361-0.899,2.494-0.899H134.316z"/>
			<path fill="#00457C" d="M141.883-166.286l1.229-3.792h3.768l-1.641,4.535c-0.087,0.236-0.218,0.462-0.399,0.674
				c-0.177,0.214-0.361,0.36-0.549,0.446c0.171,0.086,0.342,0.243,0.512,0.473c0.171,0.23,0.301,0.465,0.387,0.704l2.073,5.954
				h-4.125l-1.23-4.86c-0.119-0.391-0.357-0.586-0.716-0.586h-0.871v5.446h-3.583v-17.909h3.583v9.452h0.845
				C141.525-165.749,141.762-165.928,141.883-166.286z"/>
			<path fill="#00457C" d="M150.181-152.203l1.744-5.125h-0.411l-3.405-12.81h4.071l1.565,9.147l1.612-9.147h3.92l-4.995,17.935
				H150.181z M158.381-175.263l-3.537,4.047h-2.742l2.898-4.047H158.381z"/>
			<path fill="#00457C" d="M172.135-166.286l1.23-3.792h3.766l-1.64,4.535c-0.086,0.236-0.218,0.462-0.396,0.674
				c-0.179,0.214-0.362,0.36-0.552,0.446c0.173,0.086,0.342,0.243,0.515,0.473c0.169,0.23,0.298,0.465,0.383,0.704l2.074,5.954
				h-4.123l-1.229-4.86c-0.122-0.391-0.36-0.586-0.718-0.586h-0.872v5.446h-3.583v-17.909h3.583v9.452h0.847
				C171.777-165.749,172.016-165.928,172.135-166.286z"/>
			<path fill="#00457C" d="M184.03-166.716c-0.461,0-0.79,0.132-0.985,0.397c-0.197,0.267-0.296,0.586-0.296,0.964v8.062h-3.582
				v-12.827h3.148v1.715c0.203-1.146,0.913-1.715,2.126-1.715h1.612v3.686c-0.255-0.189-0.623-0.282-1.1-0.282H184.03z"/>
			<path fill="#00457C" d="M193.213-165.426v-0.946c0-0.238-0.039-0.411-0.117-0.514c-0.076-0.101-0.225-0.15-0.446-0.15h-3.476
				c-0.238,0-0.473,0.019-0.705,0.062c-0.229,0.042-0.42,0.113-0.574,0.216v-3.361h5.635c0.595,0,1.103,0.081,1.519,0.243
				c0.417,0.163,0.752,0.393,1.007,0.693c0.256,0.298,0.442,0.658,0.562,1.078c0.117,0.417,0.18,0.876,0.18,1.372v9.442h-6.197
				c-1.19,0-2.031-0.317-2.525-0.948c-0.493-0.633-0.738-1.454-0.738-2.464v-1.359c0-0.991,0.247-1.801,0.74-2.424
				c0.494-0.625,1.337-0.938,2.532-0.938H193.213z M191.048-162.667c-0.087,0.12-0.13,0.292-0.13,0.514v1.059
				c0,0.479,0.197,0.72,0.594,0.72h1.701v-2.472h-1.676C191.296-162.845,191.134-162.786,191.048-162.667z"/>
			<path fill="#00457C" d="M202.568-157.292c0,0.886-0.072,1.758-0.218,2.616c-0.145,0.852-0.346,1.69-0.603,2.509h-3.737
				c0.273-0.72,0.504-1.539,0.691-2.462c0.189-0.921,0.281-1.81,0.281-2.663v-12.811h3.585V-157.292z M202.568-174.924v3.694h-3.585
				v-3.694H202.568z"/>
		</g>
	</g>
	<g>
		<g>
			<path d="M41.042,33.738c0,0.273-0.236,0.494-0.527,0.494H23.543c-0.292,0-0.528-0.22-0.528-0.494V16.694
				c0-0.271,0.236-0.492,0.528-0.492h16.972c0.291,0,0.527,0.221,0.527,0.492V33.738z"/>
			<path d="M61.22,33.738c0,0.273-0.236,0.494-0.527,0.494H43.72c-0.291,0-0.527-0.22-0.527-0.494V16.694
				c0-0.271,0.236-0.492,0.527-0.492h16.972c0.291,0,0.527,0.221,0.527,0.492V33.738z"/>
			<path d="M61.22,53.971c0,0.27-0.236,0.492-0.527,0.492H43.72c-0.291,0-0.527-0.223-0.527-0.492V36.926
				c0-0.271,0.236-0.492,0.527-0.492h16.972c0.291,0,0.527,0.22,0.527,0.492V53.971z"/>
			<path d="M81.334,53.971c0,0.27-0.236,0.492-0.527,0.492H63.833c-0.291,0-0.527-0.223-0.527-0.492V36.926
				c0-0.271,0.236-0.492,0.527-0.492h16.973c0.291,0,0.527,0.22,0.527,0.492V53.971z"/>
		</g>
		<g>
			<path d="M90.188,53.152l5.765-13.195h-4.739c-0.325,0-0.599,0.039-0.821,0.115v-3.591h10.634v1.129l-5.893,13.563h5.047
				c0.154,0,0.294-0.008,0.422-0.025c0.127-0.018,0.261-0.051,0.398-0.1v3.385H90.188V53.152z"/>
			<path d="M106.554,36.463v17.935h-3.583V36.463H106.554z"/>
			<path d="M114.72,36.463l-3.535,4.046h-2.742l2.894-4.046H114.72z M112.503,41.588v12.811h-3.585V41.588H112.503z"/>
			<path d="M124.148,54.434h-3.584v-9.006c0-0.24-0.037-0.411-0.115-0.514c-0.074-0.104-0.216-0.154-0.42-0.154h-1.758v9.674h-3.583
				V41.606h6.213c1.193,0,2.032,0.315,2.52,0.948c0.485,0.631,0.728,1.454,0.728,2.462V54.434z"/>
			<path d="M134.316,41.606v3.437c-0.152-0.103-0.346-0.177-0.575-0.218c-0.232-0.046-0.465-0.065-0.706-0.065h-2.944
				c-0.325,0-0.488,0.17-0.488,0.512v0.156c0,0.238,0.146,0.434,0.437,0.588l2.435,0.975c0.426,0.174,0.78,0.35,1.062,0.539
				c0.284,0.189,0.514,0.408,0.693,0.656c0.179,0.247,0.307,0.535,0.385,0.857c0.075,0.325,0.114,0.712,0.114,1.156v0.822
				c0,1.179-0.273,2.045-0.822,2.592c-0.545,0.549-1.359,0.82-2.439,0.82h-5.302V51.07c0.154,0.104,0.346,0.174,0.576,0.219
				c0.23,0.041,0.465,0.064,0.703,0.064h3.383c0.136,0,0.249-0.048,0.334-0.143c0.086-0.095,0.127-0.229,0.127-0.398V50.58
				c0-0.291-0.136-0.506-0.409-0.643l-2.254-0.926c-0.461-0.188-0.852-0.384-1.166-0.592c-0.316-0.205-0.574-0.443-0.77-0.72
				c-0.197-0.273-0.333-0.597-0.409-0.962c-0.078-0.371-0.115-0.812-0.115-1.327v-0.386c0-1.08,0.266-1.918,0.801-2.52
				c0.528-0.602,1.361-0.899,2.494-0.899H134.316z"/>
			<path d="M141.883,45.439l1.229-3.791h3.768l-1.641,4.534c-0.087,0.236-0.218,0.462-0.399,0.675
				c-0.177,0.213-0.361,0.359-0.549,0.445c0.171,0.087,0.342,0.243,0.512,0.474c0.171,0.23,0.301,0.465,0.387,0.704l2.073,5.953
				h-4.125l-1.23-4.859c-0.119-0.391-0.357-0.586-0.716-0.586h-0.871v5.445h-3.583V36.525h3.583v9.452h0.845
				C141.525,45.977,141.762,45.798,141.883,45.439z"/>
			<path d="M150.181,59.523l1.744-5.125h-0.411l-3.405-12.811h4.071l1.565,9.148l1.612-9.148h3.92l-4.995,17.936H150.181z
				 M158.381,36.463l-3.537,4.046h-2.742L155,36.463H158.381z"/>
			<path d="M172.135,45.439l1.23-3.791h3.766l-1.64,4.534c-0.086,0.236-0.218,0.462-0.396,0.675s-0.362,0.359-0.552,0.445
				c0.173,0.087,0.342,0.243,0.515,0.474c0.169,0.23,0.298,0.465,0.383,0.704l2.074,5.953h-4.123l-1.229-4.859
				c-0.122-0.391-0.36-0.586-0.718-0.586h-0.872v5.445h-3.583V36.525h3.583v9.452h0.847
				C171.777,45.977,172.016,45.798,172.135,45.439z"/>
			<path d="M184.03,45.01c-0.461,0-0.79,0.133-0.985,0.397c-0.197,0.267-0.296,0.586-0.296,0.964v8.062h-3.582V41.606h3.148v1.716
				c0.203-1.146,0.913-1.716,2.126-1.716h1.612v3.686c-0.255-0.188-0.623-0.282-1.1-0.282H184.03z"/>
			<path d="M193.213,46.3v-0.946c0-0.238-0.039-0.411-0.117-0.514c-0.076-0.102-0.225-0.15-0.446-0.15h-3.476
				c-0.238,0-0.473,0.019-0.705,0.062c-0.229,0.042-0.42,0.113-0.574,0.216v-3.36h5.635c0.595,0,1.103,0.081,1.519,0.243
				c0.417,0.162,0.752,0.393,1.007,0.693c0.256,0.297,0.442,0.658,0.562,1.077c0.117,0.417,0.18,0.876,0.18,1.372v9.441h-6.197
				c-1.19,0-2.031-0.316-2.525-0.948c-0.493-0.634-0.738-1.454-0.738-2.464v-1.359c0-0.991,0.247-1.801,0.74-2.424
				c0.494-0.626,1.337-0.938,2.532-0.938H193.213z M191.048,49.06c-0.087,0.12-0.13,0.292-0.13,0.515v1.059
				c0,0.479,0.197,0.721,0.594,0.721h1.701v-2.473h-1.676C191.296,48.881,191.134,48.94,191.048,49.06z"/>
			<path d="M202.568,54.434c0,0.887-0.072,1.758-0.218,2.615c-0.145,0.852-0.346,1.691-0.603,2.51h-3.737
				c0.273-0.72,0.504-1.539,0.691-2.462c0.189-0.921,0.281-1.81,0.281-2.663V41.623h3.585V54.434z M202.568,36.802v3.694h-3.585
				v-3.694H202.568z"/>
		</g>
	</g>
	<g>
		<g>
			<path fill="#00457C" d="M15.849-22.984l2.737-6.266h-2.25c-0.154,0-0.285,0.019-0.391,0.055V-30.9h5.05v0.536l-2.798,6.44h2.396
				c0.072,0,0.139-0.004,0.2-0.012c0.061-0.009,0.124-0.024,0.188-0.048v1.607h-5.134V-22.984z"/>
			<path fill="#00457C" d="M23.619-30.909v8.517h-1.701v-8.517H23.619z"/>
			<path fill="#00457C" d="M27.497-30.909l-1.679,1.922h-1.302l1.374-1.922H27.497z M26.444-28.476v6.083h-1.702v-6.083H26.444z"/>
		</g>
		<g>
			<path fill="#00457C" d="M31.975-22.376h-1.702v-4.276c0-0.114-0.018-0.195-0.055-0.244c-0.035-0.049-0.103-0.073-0.199-0.073
				h-0.835v4.594h-1.701v-6.091h2.95c0.566,0,0.965,0.149,1.196,0.45c0.23,0.3,0.346,0.69,0.346,1.169V-22.376z"/>
			<path fill="#00457C" d="M36.803-28.467v1.632c-0.072-0.049-0.164-0.084-0.273-0.104c-0.11-0.021-0.221-0.031-0.335-0.031h-1.398
				c-0.154,0-0.231,0.081-0.231,0.243v0.074c0,0.113,0.069,0.206,0.207,0.279l1.156,0.463c0.202,0.082,0.37,0.166,0.504,0.256
				c0.135,0.09,0.244,0.193,0.329,0.312c0.085,0.117,0.146,0.254,0.183,0.407c0.036,0.154,0.055,0.338,0.055,0.549v0.391
				c0,0.56-0.13,0.971-0.391,1.23c-0.259,0.261-0.646,0.39-1.158,0.39h-2.518v-1.597c0.073,0.049,0.164,0.082,0.273,0.104
				c0.109,0.02,0.221,0.03,0.334,0.03h1.606c0.064,0,0.118-0.022,0.158-0.067c0.041-0.045,0.061-0.108,0.061-0.189v-0.11
				c0-0.138-0.064-0.24-0.194-0.305L34.1-24.95c-0.219-0.09-0.404-0.183-0.554-0.281c-0.15-0.098-0.272-0.211-0.365-0.342
				c-0.094-0.13-0.158-0.283-0.194-0.457c-0.037-0.176-0.055-0.386-0.055-0.63v-0.184c0-0.513,0.126-0.91,0.38-1.196
				c0.251-0.285,0.646-0.427,1.185-0.427H36.803z"/>
			<path fill="#00457C" d="M40.396-26.646l0.584-1.801h1.789l-0.779,2.153c-0.041,0.112-0.104,0.22-0.189,0.32
				c-0.084,0.102-0.172,0.171-0.261,0.212c0.081,0.041,0.162,0.115,0.243,0.225s0.143,0.221,0.184,0.334l0.984,2.827h-1.959
				l-0.584-2.308c-0.057-0.186-0.17-0.278-0.34-0.278h-0.414v2.586h-1.701v-8.504h1.701v4.488h0.401
				C40.226-26.392,40.338-26.477,40.396-26.646z"/>
			<path fill="#00457C" d="M44.336-19.959l0.828-2.434h-0.195l-1.617-6.083h1.934l0.743,4.344l0.766-4.344h1.861l-2.372,8.517
				H44.336z M48.229-30.909l-1.68,1.922h-1.302l1.376-1.922H48.229z"/>
			<path fill="#00457C" d="M54.761-26.646l0.584-1.801h1.788l-0.778,2.153c-0.041,0.112-0.104,0.22-0.188,0.32
				c-0.085,0.102-0.172,0.171-0.262,0.212c0.082,0.041,0.162,0.115,0.244,0.225c0.08,0.109,0.142,0.221,0.182,0.334l0.985,2.827
				h-1.958l-0.584-2.308c-0.058-0.186-0.171-0.278-0.341-0.278h-0.414v2.586h-1.701v-8.504h1.701v4.488h0.402
				C54.591-26.392,54.704-26.477,54.761-26.646z"/>
			<path fill="#00457C" d="M60.409-26.851c-0.219,0-0.375,0.062-0.468,0.188c-0.094,0.127-0.141,0.278-0.141,0.458v3.828H58.1
				v-6.091h1.495v0.814c0.097-0.544,0.434-0.814,1.01-0.814h0.766v1.75c-0.121-0.09-0.296-0.134-0.522-0.134H60.409z"/>
			<path fill="#00457C" d="M64.77-26.238v-0.449c0-0.113-0.019-0.195-0.056-0.244c-0.036-0.048-0.106-0.071-0.212-0.071h-1.65
				c-0.113,0-0.225,0.009-0.335,0.029c-0.108,0.02-0.199,0.054-0.272,0.103v-1.596h2.676c0.282,0,0.523,0.038,0.721,0.115
				c0.198,0.077,0.357,0.187,0.479,0.329c0.121,0.142,0.21,0.312,0.267,0.512c0.056,0.198,0.085,0.416,0.085,0.651v4.483h-2.942
				c-0.565,0-0.965-0.15-1.199-0.45c-0.234-0.301-0.351-0.69-0.351-1.17v-0.646c0-0.471,0.117-0.855,0.352-1.151
				c0.234-0.297,0.635-0.445,1.202-0.445H64.77z M63.741-24.928c-0.041,0.057-0.062,0.139-0.062,0.244v0.503
				c0,0.228,0.094,0.342,0.282,0.342h0.808v-1.174h-0.796C63.859-25.013,63.782-24.984,63.741-24.928z"/>
			<path fill="#00457C" d="M69.212-22.376c0,0.421-0.034,0.835-0.104,1.242c-0.068,0.404-0.164,0.803-0.286,1.191h-1.774
				c0.13-0.342,0.239-0.73,0.328-1.169c0.09-0.438,0.134-0.859,0.134-1.265v-6.083h1.702V-22.376z M69.212-30.748v1.754H67.51
				v-1.754H69.212z"/>
		</g>
	</g>
	<g>
		<path d="M76.481-84.426c0.336-0.063,0.776-0.111,1.336-0.111c0.688,0,1.192,0.16,1.513,0.447c0.296,0.257,0.479,0.648,0.479,1.12
			c0,0.488-0.144,0.872-0.424,1.152c-0.367,0.392-0.968,0.592-1.648,0.592c-0.207,0-0.399-0.008-0.559-0.048v2.168h-0.697V-84.426z
			 M77.179-81.842c0.151,0.04,0.344,0.057,0.575,0.057c0.84,0,1.353-0.408,1.353-1.145c0-0.712-0.504-1.056-1.272-1.056
			c-0.304,0-0.536,0.024-0.655,0.056V-81.842z"/>
		<path d="M83.233-80.033c0,0.336,0.017,0.664,0.057,0.928h-0.633l-0.063-0.488h-0.024c-0.207,0.305-0.631,0.576-1.184,0.576
			c-0.783,0-1.184-0.552-1.184-1.112c0-0.936,0.832-1.447,2.328-1.439v-0.08c0-0.32-0.088-0.904-0.881-0.896
			c-0.367,0-0.744,0.104-1.016,0.288l-0.16-0.472c0.32-0.2,0.792-0.336,1.28-0.336c1.192,0,1.479,0.808,1.479,1.584V-80.033z
			 M82.546-81.081c-0.768-0.017-1.641,0.119-1.641,0.872c0,0.464,0.305,0.672,0.656,0.672c0.512,0,0.84-0.32,0.952-0.648
			c0.024-0.072,0.032-0.152,0.032-0.224V-81.081z"/>
		<path d="M84.362-81.93c0-0.408-0.008-0.728-0.032-1.048h0.624l0.04,0.632h0.017c0.191-0.359,0.64-0.72,1.279-0.72
			c0.536,0,1.368,0.32,1.368,1.648v2.312h-0.704v-2.232c0-0.624-0.231-1.151-0.896-1.151c-0.456,0-0.816,0.328-0.944,0.72
			c-0.032,0.088-0.048,0.216-0.048,0.328v2.336h-0.704V-81.93z"/>
		<path d="M89.617-83.905v0.928h1.009v0.536h-1.009v2.08c0,0.479,0.137,0.752,0.528,0.752c0.192,0,0.304-0.016,0.408-0.048
			l0.032,0.536c-0.137,0.048-0.353,0.096-0.624,0.096c-0.328,0-0.593-0.112-0.761-0.296c-0.191-0.216-0.271-0.561-0.271-1.017
			v-2.104h-0.601v-0.536h0.601v-0.712L89.617-83.905z"/>
		<path d="M92.946-79.018c-1.04,0-1.856-0.768-1.856-1.992c0-1.296,0.856-2.056,1.92-2.056c1.112,0,1.864,0.808,1.864,1.984
			c0,1.439-1,2.063-1.92,2.063H92.946z M92.979-79.546c0.672,0,1.176-0.632,1.176-1.512c0-0.656-0.328-1.479-1.16-1.479
			c-0.824,0-1.184,0.768-1.184,1.504c0,0.848,0.479,1.487,1.159,1.487H92.979z"/>
		<path d="M95.762-81.93c0-0.408-0.008-0.728-0.032-1.048h0.624l0.04,0.632h0.017c0.191-0.359,0.64-0.72,1.279-0.72
			c0.536,0,1.368,0.32,1.368,1.648v2.312h-0.704v-2.232c0-0.624-0.231-1.151-0.896-1.151c-0.456,0-0.816,0.328-0.944,0.72
			c-0.032,0.088-0.048,0.216-0.048,0.328v2.336h-0.704V-81.93z"/>
		<path d="M100.603-80.913c0.016,0.943,0.615,1.336,1.319,1.336c0.504,0,0.816-0.088,1.072-0.2l0.128,0.504
			c-0.248,0.112-0.68,0.248-1.296,0.248c-1.184,0-1.904-0.792-1.904-1.952c0-1.168,0.696-2.088,1.824-2.088
			c1.264,0,1.592,1.112,1.592,1.824c0,0.144-0.008,0.248-0.023,0.328H100.603z M102.658-81.417c0.008-0.448-0.184-1.145-0.968-1.145
			c-0.721,0-1.024,0.656-1.08,1.145H102.658z"/>
		<path d="M108.786-83.714h-1.983l-0.2,1.336c0.12-0.016,0.231-0.031,0.424-0.031c0.408,0,0.8,0.088,1.12,0.279
			c0.408,0.225,0.744,0.681,0.744,1.336c0,1.017-0.809,1.776-1.937,1.776c-0.567,0-1.04-0.16-1.296-0.32l0.176-0.535
			c0.216,0.128,0.641,0.287,1.12,0.287c0.656,0,1.232-0.432,1.224-1.136c0-0.664-0.455-1.144-1.487-1.144
			c-0.304,0-0.536,0.023-0.729,0.056l0.336-2.496h2.488V-83.714z"/>
		<path d="M111.962-79.105v-1.424h-2.416v-0.456l2.32-3.32h0.76v3.232h0.728v0.544h-0.728v1.424H111.962z M111.962-81.073v-1.736
			c0-0.271,0.008-0.544,0.023-0.815h-0.023c-0.16,0.304-0.288,0.527-0.433,0.768l-1.271,1.768v0.017H111.962z"/>
		<path d="M116.993-83.714h-1.983l-0.2,1.336c0.12-0.016,0.231-0.031,0.424-0.031c0.408,0,0.8,0.088,1.12,0.279
			c0.408,0.225,0.744,0.681,0.744,1.336c0,1.017-0.809,1.776-1.937,1.776c-0.567,0-1.04-0.16-1.296-0.32l0.176-0.535
			c0.216,0.128,0.641,0.287,1.12,0.287c0.656,0,1.232-0.432,1.224-1.136c0-0.664-0.455-1.144-1.487-1.144
			c-0.304,0-0.536,0.023-0.729,0.056l0.336-2.496h2.488V-83.714z"/>
		<path d="M119.321-78.785l2.224-5.8h0.552l-2.239,5.8H119.321z"/>
		<path d="M128.138-79.281c-0.248,0.128-0.769,0.256-1.424,0.256c-1.521,0-2.656-0.96-2.656-2.729c0-1.688,1.144-2.823,2.815-2.823
			c0.664,0,1.097,0.144,1.28,0.231l-0.176,0.576c-0.256-0.128-0.632-0.224-1.08-0.224c-1.264,0-2.104,0.808-2.104,2.216
			c0,1.32,0.76,2.16,2.063,2.16c0.432,0,0.864-0.088,1.145-0.225L128.138-79.281z"/>
		<path d="M128.729-81.802v-0.479h4.128v0.479H128.729z M128.729-80.233v-0.48h4.128v0.48H128.729z"/>
		<path d="M133.537-79.105v-0.432l0.552-0.536c1.328-1.265,1.936-1.937,1.936-2.72c0-0.528-0.248-1.017-1.023-1.017
			c-0.473,0-0.864,0.24-1.104,0.44l-0.224-0.496c0.352-0.296,0.872-0.528,1.472-0.528c1.112,0,1.584,0.769,1.584,1.512
			c0,0.96-0.695,1.736-1.792,2.792l-0.408,0.385v0.016h2.328v0.584H133.537z"/>
		<path d="M140.745-83.714h-1.983l-0.2,1.336c0.12-0.016,0.231-0.031,0.424-0.031c0.408,0,0.8,0.088,1.12,0.279
			c0.408,0.225,0.744,0.681,0.744,1.336c0,1.017-0.809,1.776-1.937,1.776c-0.567,0-1.04-0.16-1.296-0.32l0.176-0.535
			c0.216,0.128,0.641,0.287,1.12,0.287c0.656,0,1.232-0.432,1.224-1.136c0-0.664-0.455-1.144-1.487-1.144
			c-0.304,0-0.536,0.023-0.729,0.056l0.336-2.496h2.488V-83.714z"/>
		<path d="M141.513-78.113c0.176-0.48,0.392-1.336,0.48-1.92l0.783-0.08c-0.191,0.68-0.544,1.567-0.768,1.943L141.513-78.113z"/>
		<path d="M149.889-81.474c-0.04-0.744-0.089-1.664-0.089-2.328h-0.016c-0.192,0.624-0.408,1.312-0.68,2.048l-0.952,2.616h-0.528
			l-0.88-2.567c-0.256-0.761-0.464-1.456-0.616-2.097h-0.016c-0.016,0.672-0.056,1.576-0.104,2.385l-0.144,2.312H145.2l0.376-5.392
			h0.888l0.921,2.607c0.224,0.664,0.399,1.265,0.544,1.824h0.016c0.144-0.544,0.336-1.144,0.576-1.824l0.96-2.607h0.888l0.336,5.392
			h-0.688L149.889-81.474z"/>
		<path d="M151.488-81.802v-0.479h4.128v0.479H151.488z M151.488-80.233v-0.48h4.128v0.48H151.488z"/>
		<path d="M157.824-83.649h-0.016l-0.904,0.488l-0.136-0.536l1.136-0.608h0.601v5.2h-0.681V-83.649z"/>
		<path d="M160.4-79.105v-0.432l0.552-0.536c1.328-1.265,1.936-1.937,1.936-2.72c0-0.528-0.248-1.017-1.023-1.017
			c-0.473,0-0.864,0.24-1.104,0.44l-0.224-0.496c0.352-0.296,0.872-0.528,1.472-0.528c1.112,0,1.584,0.769,1.584,1.512
			c0,0.96-0.695,1.736-1.792,2.792l-0.408,0.385v0.016h2.328v0.584H160.4z"/>
		<path d="M164.272-78.113c0.176-0.48,0.392-1.336,0.48-1.92l0.783-0.08c-0.191,0.68-0.544,1.567-0.768,1.943L164.272-78.113z"/>
		<path d="M168.936-79.105v-2.288l-1.712-3.104h0.8l0.761,1.487c0.2,0.408,0.368,0.736,0.536,1.112h0.016
			c0.144-0.352,0.336-0.704,0.544-1.112l0.776-1.487h0.783l-1.8,3.096v2.296H168.936z"/>
		<path d="M171.776-81.802v-0.479h4.128v0.479H171.776z M171.776-80.233v-0.48h4.128v0.48H171.776z"/>
		<path d="M178.239-79.018c-1.016,0-1.712-0.952-1.728-2.672c0-1.752,0.76-2.704,1.815-2.704c1.089,0,1.721,0.977,1.721,2.632
			c0,1.769-0.664,2.744-1.8,2.744H178.239z M178.279-79.562c0.712,0,1.057-0.84,1.057-2.168c0-1.28-0.32-2.12-1.057-2.12
			c-0.64,0-1.056,0.816-1.056,2.12c-0.016,1.352,0.4,2.168,1.048,2.168H178.279z"/>
		<path d="M180.456-78.113c0.176-0.48,0.392-1.336,0.48-1.92l0.783-0.08c-0.191,0.68-0.544,1.567-0.768,1.943L180.456-78.113z"/>
		<path d="M184.288-84.497h0.695v2.6h0.024c0.144-0.208,0.288-0.4,0.424-0.576l1.648-2.023h0.863l-1.952,2.288l2.104,3.104h-0.824
			l-1.768-2.648l-0.521,0.593v2.056h-0.695V-84.497z"/>
		<path d="M188.336-81.802v-0.479h4.128v0.479H188.336z M188.336-80.233v-0.48h4.128v0.48H188.336z"/>
		<path d="M196.52-84.306v0.464l-2.265,4.736h-0.72l2.248-4.6v-0.017h-2.544v-0.584H196.52z"/>
	</g>
	<g>
		<path d="M76.481-70.252c0.336-0.063,0.776-0.111,1.336-0.111c0.688,0,1.192,0.16,1.513,0.447c0.296,0.257,0.479,0.648,0.479,1.12
			c0,0.488-0.144,0.872-0.424,1.152c-0.367,0.392-0.968,0.592-1.648,0.592c-0.207,0-0.399-0.008-0.559-0.048v2.168h-0.697V-70.252z
			 M77.179-67.668c0.151,0.04,0.344,0.057,0.575,0.057c0.84,0,1.353-0.408,1.353-1.145c0-0.712-0.504-1.056-1.272-1.056
			c-0.304,0-0.536,0.024-0.655,0.056V-67.668z"/>
		<path d="M83.233-65.86c0,0.336,0.017,0.664,0.057,0.928h-0.633l-0.063-0.488h-0.024c-0.207,0.305-0.631,0.576-1.184,0.576
			c-0.783,0-1.184-0.552-1.184-1.112c0-0.936,0.832-1.447,2.328-1.439v-0.08c0-0.32-0.088-0.904-0.881-0.896
			c-0.367,0-0.744,0.104-1.016,0.288l-0.16-0.472c0.32-0.2,0.792-0.336,1.28-0.336c1.192,0,1.479,0.808,1.479,1.584V-65.86z
			 M82.546-66.908c-0.768-0.017-1.641,0.119-1.641,0.872c0,0.464,0.305,0.672,0.656,0.672c0.512,0,0.84-0.32,0.952-0.648
			c0.024-0.072,0.032-0.152,0.032-0.224V-66.908z"/>
		<path d="M84.362-67.756c0-0.408-0.008-0.728-0.032-1.048h0.624l0.04,0.632h0.017c0.191-0.359,0.64-0.72,1.279-0.72
			c0.536,0,1.368,0.32,1.368,1.648v2.312h-0.704v-2.232c0-0.624-0.231-1.151-0.896-1.151c-0.456,0-0.816,0.328-0.944,0.72
			c-0.032,0.088-0.048,0.216-0.048,0.328v2.336h-0.704V-67.756z"/>
		<path d="M89.617-69.732v0.928h1.009v0.536h-1.009v2.08c0,0.479,0.137,0.752,0.528,0.752c0.192,0,0.304-0.016,0.408-0.048
			l0.032,0.536c-0.137,0.048-0.353,0.096-0.624,0.096c-0.328,0-0.593-0.112-0.761-0.296c-0.191-0.216-0.271-0.561-0.271-1.017
			v-2.104h-0.601v-0.536h0.601v-0.712L89.617-69.732z"/>
		<path d="M92.946-64.844c-1.04,0-1.856-0.768-1.856-1.992c0-1.296,0.856-2.056,1.92-2.056c1.112,0,1.864,0.808,1.864,1.984
			c0,1.439-1,2.063-1.92,2.063H92.946z M92.979-65.373c0.672,0,1.176-0.632,1.176-1.512c0-0.656-0.328-1.479-1.16-1.479
			c-0.824,0-1.184,0.768-1.184,1.504c0,0.848,0.479,1.487,1.159,1.487H92.979z"/>
		<path d="M95.762-67.756c0-0.408-0.008-0.728-0.032-1.048h0.624l0.04,0.632h0.017c0.191-0.359,0.64-0.72,1.279-0.72
			c0.536,0,1.368,0.32,1.368,1.648v2.312h-0.704v-2.232c0-0.624-0.231-1.151-0.896-1.151c-0.456,0-0.816,0.328-0.944,0.72
			c-0.032,0.088-0.048,0.216-0.048,0.328v2.336h-0.704V-67.756z"/>
		<path d="M100.603-66.74c0.016,0.943,0.615,1.336,1.319,1.336c0.504,0,0.816-0.088,1.072-0.2l0.128,0.504
			c-0.248,0.112-0.68,0.248-1.296,0.248c-1.184,0-1.904-0.792-1.904-1.952c0-1.168,0.696-2.088,1.824-2.088
			c1.264,0,1.592,1.112,1.592,1.824c0,0.144-0.008,0.248-0.023,0.328H100.603z M102.658-67.244c0.008-0.448-0.184-1.145-0.968-1.145
			c-0.721,0-1.024,0.656-1.08,1.145H102.658z"/>
		<path d="M108.786-69.541h-1.983l-0.2,1.336c0.12-0.016,0.231-0.031,0.424-0.031c0.408,0,0.8,0.088,1.12,0.279
			c0.408,0.225,0.744,0.681,0.744,1.336c0,1.017-0.809,1.776-1.937,1.776c-0.567,0-1.04-0.16-1.296-0.32l0.176-0.535
			c0.216,0.128,0.641,0.287,1.12,0.287c0.656,0,1.232-0.432,1.224-1.136c0-0.664-0.455-1.144-1.487-1.144
			c-0.304,0-0.536,0.023-0.729,0.056l0.336-2.496h2.488V-69.541z"/>
		<path d="M111.962-64.932v-1.424h-2.416v-0.456l2.32-3.32h0.76v3.232h0.728v0.544h-0.728v1.424H111.962z M111.962-66.9v-1.736
			c0-0.271,0.008-0.544,0.023-0.815h-0.023c-0.16,0.304-0.288,0.527-0.433,0.768l-1.271,1.768v0.017H111.962z"/>
		<path d="M114.058-65.732c0.199,0.12,0.655,0.319,1.151,0.319c0.896,0,1.185-0.567,1.176-1.008c-0.008-0.728-0.663-1.04-1.344-1.04
			h-0.392v-0.527h0.392c0.513,0,1.16-0.265,1.16-0.88c0-0.416-0.264-0.784-0.912-0.784c-0.416,0-0.815,0.184-1.04,0.344
			l-0.191-0.512c0.279-0.2,0.808-0.4,1.367-0.4c1.024,0,1.488,0.608,1.488,1.24c0,0.544-0.328,1-0.96,1.231v0.017
			c0.64,0.12,1.16,0.6,1.16,1.328c0,0.832-0.656,1.56-1.896,1.56c-0.584,0-1.096-0.184-1.352-0.352L114.058-65.732z"/>
		<path d="M119.321-64.612l2.224-5.8h0.552l-2.239,5.8H119.321z"/>
		<path d="M128.138-65.108c-0.248,0.128-0.769,0.256-1.424,0.256c-1.521,0-2.656-0.96-2.656-2.729c0-1.688,1.144-2.823,2.815-2.823
			c0.664,0,1.097,0.144,1.28,0.231l-0.176,0.576c-0.256-0.128-0.632-0.224-1.08-0.224c-1.264,0-2.104,0.808-2.104,2.216
			c0,1.32,0.76,2.16,2.063,2.16c0.432,0,0.864-0.088,1.145-0.225L128.138-65.108z"/>
		<path d="M128.729-67.628v-0.479h4.128v0.479H128.729z M128.729-66.06v-0.48h4.128v0.48H128.729z"/>
		<path d="M136.641-69.541h-1.984l-0.199,1.336c0.12-0.016,0.231-0.031,0.424-0.031c0.408,0,0.8,0.088,1.12,0.279
			c0.408,0.225,0.744,0.681,0.744,1.336c0,1.017-0.809,1.776-1.937,1.776c-0.567,0-1.04-0.16-1.296-0.32l0.176-0.535
			c0.216,0.128,0.641,0.287,1.12,0.287c0.656,0,1.232-0.432,1.225-1.136c0-0.664-0.456-1.144-1.488-1.144
			c-0.304,0-0.536,0.023-0.729,0.056l0.336-2.496h2.488V-69.541z"/>
		<path d="M139.297-64.844c-1.016,0-1.712-0.952-1.728-2.672c0-1.752,0.76-2.704,1.815-2.704c1.089,0,1.721,0.977,1.721,2.632
			c0,1.769-0.664,2.744-1.8,2.744H139.297z M139.337-65.388c0.712,0,1.057-0.84,1.057-2.168c0-1.28-0.32-2.12-1.057-2.12
			c-0.64,0-1.056,0.816-1.056,2.12c-0.016,1.352,0.4,2.168,1.048,2.168H139.337z"/>
		<path d="M141.513-63.94c0.176-0.48,0.392-1.336,0.48-1.92l0.783-0.08c-0.191,0.68-0.544,1.567-0.768,1.943L141.513-63.94z"/>
		<path d="M149.889-67.3c-0.04-0.744-0.089-1.664-0.089-2.328h-0.016c-0.192,0.624-0.408,1.312-0.68,2.048l-0.952,2.616h-0.528
			l-0.88-2.567c-0.256-0.761-0.464-1.456-0.616-2.097h-0.016c-0.016,0.672-0.056,1.576-0.104,2.385l-0.144,2.312H145.2l0.376-5.392
			h0.888l0.921,2.607c0.224,0.664,0.399,1.265,0.544,1.824h0.016c0.144-0.544,0.336-1.144,0.576-1.824l0.96-2.607h0.888l0.336,5.392
			h-0.688L149.889-67.3z"/>
		<path d="M151.488-67.628v-0.479h4.128v0.479H151.488z M151.488-66.06v-0.48h4.128v0.48H151.488z"/>
		<path d="M156.297-64.932v-0.432l0.552-0.536c1.328-1.265,1.936-1.937,1.936-2.72c0-0.528-0.248-1.017-1.023-1.017
			c-0.473,0-0.864,0.24-1.104,0.44l-0.224-0.496c0.352-0.296,0.872-0.528,1.472-0.528c1.112,0,1.584,0.769,1.584,1.512
			c0,0.96-0.695,1.736-1.792,2.792l-0.408,0.385v0.016h2.328v0.584H156.297z"/>
		<path d="M163.504-69.541h-1.984l-0.199,1.336c0.12-0.016,0.231-0.031,0.424-0.031c0.408,0,0.8,0.088,1.12,0.279
			c0.408,0.225,0.744,0.681,0.744,1.336c0,1.017-0.809,1.776-1.937,1.776c-0.567,0-1.04-0.16-1.296-0.32l0.176-0.535
			c0.216,0.128,0.641,0.287,1.12,0.287c0.656,0,1.232-0.432,1.225-1.136c0-0.664-0.456-1.144-1.488-1.144
			c-0.304,0-0.536,0.023-0.729,0.056l0.336-2.496h2.488V-69.541z"/>
		<path d="M164.272-63.94c0.176-0.48,0.392-1.336,0.48-1.92l0.783-0.08c-0.191,0.68-0.544,1.567-0.768,1.943L164.272-63.94z"/>
		<path d="M168.936-64.932v-2.288l-1.712-3.104h0.8l0.761,1.487c0.2,0.408,0.368,0.736,0.536,1.112h0.016
			c0.144-0.352,0.336-0.704,0.544-1.112l0.776-1.487h0.783l-1.8,3.096v2.296H168.936z"/>
		<path d="M171.776-67.628v-0.479h4.128v0.479H171.776z M171.776-66.06v-0.48h4.128v0.48H171.776z"/>
		<path d="M178.239-64.844c-1.016,0-1.712-0.952-1.728-2.672c0-1.752,0.76-2.704,1.815-2.704c1.089,0,1.721,0.977,1.721,2.632
			c0,1.769-0.664,2.744-1.8,2.744H178.239z M178.279-65.388c0.712,0,1.057-0.84,1.057-2.168c0-1.28-0.32-2.12-1.057-2.12
			c-0.64,0-1.056,0.816-1.056,2.12c-0.016,1.352,0.4,2.168,1.048,2.168H178.279z"/>
		<path d="M180.456-63.94c0.176-0.48,0.392-1.336,0.48-1.92l0.783-0.08c-0.191,0.68-0.544,1.567-0.768,1.943L180.456-63.94z"/>
		<path d="M184.288-70.324h0.695v2.6h0.024c0.144-0.208,0.288-0.4,0.424-0.576l1.648-2.023h0.863l-1.952,2.288l2.104,3.104h-0.824
			l-1.768-2.648l-0.521,0.593v2.056h-0.695V-70.324z"/>
		<path d="M188.336-67.628v-0.479h4.128v0.479H188.336z M188.336-66.06v-0.48h4.128v0.48H188.336z"/>
		<path d="M194.671-69.476h-0.016l-0.904,0.488l-0.136-0.536l1.136-0.608h0.601v5.2h-0.681V-69.476z"/>
		<path d="M200.352-69.541h-1.984l-0.199,1.336c0.12-0.016,0.231-0.031,0.424-0.031c0.408,0,0.8,0.088,1.12,0.279
			c0.408,0.225,0.744,0.681,0.744,1.336c0,1.017-0.809,1.776-1.937,1.776c-0.567,0-1.04-0.16-1.296-0.32l0.176-0.535
			c0.216,0.128,0.641,0.287,1.12,0.287c0.656,0,1.232-0.432,1.225-1.136c0-0.664-0.456-1.144-1.488-1.144
			c-0.304,0-0.536,0.023-0.729,0.056l0.336-2.496h2.488V-69.541z"/>
	</g>
	<g>
		<path d="M76.481-56.079c0.336-0.063,0.776-0.111,1.336-0.111c0.688,0,1.192,0.16,1.513,0.447c0.296,0.257,0.479,0.648,0.479,1.12
			c0,0.488-0.144,0.872-0.424,1.152c-0.367,0.392-0.968,0.592-1.648,0.592c-0.207,0-0.399-0.008-0.559-0.048v2.168h-0.697V-56.079z
			 M77.179-53.495c0.151,0.04,0.344,0.057,0.575,0.057c0.84,0,1.353-0.408,1.353-1.145c0-0.712-0.504-1.056-1.272-1.056
			c-0.304,0-0.536,0.024-0.655,0.056V-53.495z"/>
		<path d="M83.233-51.687c0,0.336,0.017,0.664,0.057,0.928h-0.633l-0.063-0.488h-0.024c-0.207,0.305-0.631,0.576-1.184,0.576
			c-0.783,0-1.184-0.552-1.184-1.112c0-0.936,0.832-1.447,2.328-1.439v-0.08c0-0.32-0.088-0.904-0.881-0.896
			c-0.367,0-0.744,0.104-1.016,0.288l-0.16-0.472c0.32-0.2,0.792-0.336,1.28-0.336c1.192,0,1.479,0.808,1.479,1.584V-51.687z
			 M82.546-52.734c-0.768-0.017-1.641,0.119-1.641,0.872c0,0.464,0.305,0.672,0.656,0.672c0.512,0,0.84-0.32,0.952-0.648
			c0.024-0.072,0.032-0.152,0.032-0.224V-52.734z"/>
		<path d="M84.362-53.583c0-0.408-0.008-0.728-0.032-1.048h0.624l0.04,0.632h0.017c0.191-0.359,0.64-0.72,1.279-0.72
			c0.536,0,1.368,0.32,1.368,1.648v2.312h-0.704v-2.232c0-0.624-0.231-1.151-0.896-1.151c-0.456,0-0.816,0.328-0.944,0.72
			c-0.032,0.088-0.048,0.216-0.048,0.328v2.336h-0.704V-53.583z"/>
		<path d="M89.617-55.559v0.928h1.009v0.536h-1.009v2.08c0,0.479,0.137,0.752,0.528,0.752c0.192,0,0.304-0.016,0.408-0.048
			l0.032,0.536c-0.137,0.048-0.353,0.096-0.624,0.096c-0.328,0-0.593-0.112-0.761-0.296c-0.191-0.216-0.271-0.561-0.271-1.017
			v-2.104h-0.601v-0.536h0.601v-0.712L89.617-55.559z"/>
		<path d="M92.946-50.671c-1.04,0-1.856-0.768-1.856-1.992c0-1.296,0.856-2.056,1.92-2.056c1.112,0,1.864,0.808,1.864,1.984
			c0,1.439-1,2.063-1.92,2.063H92.946z M92.979-51.199c0.672,0,1.176-0.632,1.176-1.512c0-0.656-0.328-1.479-1.16-1.479
			c-0.824,0-1.184,0.768-1.184,1.504c0,0.848,0.479,1.487,1.159,1.487H92.979z"/>
		<path d="M95.762-53.583c0-0.408-0.008-0.728-0.032-1.048h0.624l0.04,0.632h0.017c0.191-0.359,0.64-0.72,1.279-0.72
			c0.536,0,1.368,0.32,1.368,1.648v2.312h-0.704v-2.232c0-0.624-0.231-1.151-0.896-1.151c-0.456,0-0.816,0.328-0.944,0.72
			c-0.032,0.088-0.048,0.216-0.048,0.328v2.336h-0.704V-53.583z"/>
		<path d="M100.603-52.566c0.016,0.943,0.615,1.336,1.319,1.336c0.504,0,0.816-0.088,1.072-0.2l0.128,0.504
			c-0.248,0.112-0.68,0.248-1.296,0.248c-1.184,0-1.904-0.792-1.904-1.952c0-1.168,0.696-2.088,1.824-2.088
			c1.264,0,1.592,1.112,1.592,1.824c0,0.144-0.008,0.248-0.023,0.328H100.603z M102.658-53.07c0.008-0.448-0.184-1.145-0.968-1.145
			c-0.721,0-1.024,0.656-1.08,1.145H102.658z"/>
		<path d="M108.786-55.367h-1.983l-0.2,1.336c0.12-0.016,0.231-0.031,0.424-0.031c0.408,0,0.8,0.088,1.12,0.279
			c0.408,0.225,0.744,0.681,0.744,1.336c0,1.017-0.809,1.776-1.937,1.776c-0.567,0-1.04-0.16-1.296-0.32l0.176-0.535
			c0.216,0.128,0.641,0.287,1.12,0.287c0.656,0,1.232-0.432,1.224-1.136c0-0.664-0.455-1.144-1.487-1.144
			c-0.304,0-0.536,0.023-0.729,0.056l0.336-2.496h2.488V-55.367z"/>
		<path d="M111.962-50.759v-1.424h-2.416v-0.456l2.32-3.32h0.76v3.232h0.728v0.544h-0.728v1.424H111.962z M111.962-52.727v-1.736
			c0-0.271,0.008-0.544,0.023-0.815h-0.023c-0.16,0.304-0.288,0.527-0.433,0.768l-1.271,1.768v0.017H111.962z"/>
		<path d="M113.89-50.759v-0.432l0.552-0.536c1.328-1.265,1.936-1.937,1.936-2.72c0-0.528-0.248-1.017-1.023-1.017
			c-0.473,0-0.864,0.24-1.104,0.44l-0.224-0.496c0.352-0.296,0.872-0.528,1.472-0.528c1.112,0,1.584,0.769,1.584,1.512
			c0,0.96-0.696,1.736-1.792,2.792l-0.408,0.385v0.016h2.328v0.584H113.89z"/>
		<path d="M119.321-50.438l2.224-5.8h0.552l-2.239,5.8H119.321z"/>
		<path d="M128.138-50.935c-0.248,0.128-0.769,0.256-1.424,0.256c-1.521,0-2.656-0.96-2.656-2.729c0-1.688,1.144-2.823,2.815-2.823
			c0.664,0,1.097,0.144,1.28,0.231l-0.176,0.576c-0.256-0.128-0.632-0.224-1.08-0.224c-1.264,0-2.104,0.808-2.104,2.216
			c0,1.32,0.76,2.16,2.063,2.16c0.432,0,0.864-0.088,1.145-0.225L128.138-50.935z"/>
		<path d="M128.729-53.455v-0.479h4.128v0.479H128.729z M128.729-51.887v-0.48h4.128v0.48H128.729z"/>
		<path d="M135.28-56.047c1.009,0,1.521,0.624,1.521,1.28c0,0.439-0.224,0.92-0.864,1.216v0.024c0.648,0.256,1.048,0.72,1.048,1.344
			c0,0.912-0.775,1.512-1.768,1.512c-1.088,0-1.744-0.64-1.744-1.399c0-0.656,0.393-1.129,1.024-1.4v-0.024
			c-0.584-0.271-0.832-0.72-0.832-1.168c0-0.823,0.695-1.384,1.607-1.384H135.28z M135.232-51.183c0.632,0,1.04-0.393,1.04-0.928
			c0-0.624-0.439-0.937-1.144-1.137c-0.608,0.177-0.937,0.584-0.937,1.08c-0.023,0.521,0.376,0.984,1.032,0.984H135.232z
			 M135.24-55.543c-0.584,0-0.903,0.384-0.903,0.832c-0.008,0.521,0.392,0.8,0.992,0.96c0.447-0.151,0.792-0.472,0.792-0.943
			c0-0.416-0.248-0.849-0.872-0.849H135.24z"/>
		<path d="M139.297-50.671c-1.016,0-1.712-0.952-1.728-2.672c0-1.752,0.76-2.704,1.815-2.704c1.089,0,1.721,0.977,1.721,2.632
			c0,1.769-0.664,2.744-1.8,2.744H139.297z M139.337-51.215c0.712,0,1.057-0.84,1.057-2.168c0-1.28-0.32-2.12-1.057-2.12
			c-0.64,0-1.056,0.816-1.056,2.12c-0.016,1.352,0.4,2.168,1.048,2.168H139.337z"/>
		<path d="M141.513-49.767c0.176-0.48,0.392-1.336,0.48-1.92l0.783-0.08c-0.191,0.68-0.544,1.567-0.768,1.943L141.513-49.767z"/>
		<path d="M149.889-53.127c-0.04-0.744-0.089-1.664-0.089-2.328h-0.016c-0.192,0.624-0.408,1.312-0.68,2.048l-0.952,2.616h-0.528
			l-0.88-2.567c-0.256-0.761-0.464-1.456-0.616-2.097h-0.016c-0.016,0.672-0.056,1.576-0.104,2.385l-0.144,2.312H145.2l0.376-5.392
			h0.888l0.921,2.607c0.224,0.664,0.399,1.265,0.544,1.824h0.016c0.144-0.544,0.336-1.144,0.576-1.824l0.96-2.607h0.888l0.336,5.392
			h-0.688L149.889-53.127z"/>
		<path d="M151.488-53.455v-0.479h4.128v0.479H151.488z M151.488-51.887v-0.48h4.128v0.48H151.488z"/>
		<path d="M158.473-50.759v-1.424h-2.416v-0.456l2.32-3.32h0.76v3.232h0.728v0.544h-0.728v1.424H158.473z M158.473-52.727v-1.736
			c0-0.271,0.008-0.544,0.023-0.815h-0.023c-0.16,0.304-0.288,0.527-0.433,0.768l-1.271,1.768v0.017H158.473z"/>
		<path d="M162.056-50.671c-1.016,0-1.712-0.952-1.728-2.672c0-1.752,0.76-2.704,1.815-2.704c1.089,0,1.721,0.977,1.721,2.632
			c0,1.769-0.664,2.744-1.8,2.744H162.056z M162.096-51.215c0.712,0,1.057-0.84,1.057-2.168c0-1.28-0.32-2.12-1.057-2.12
			c-0.64,0-1.056,0.816-1.056,2.12c-0.016,1.352,0.4,2.168,1.048,2.168H162.096z"/>
		<path d="M164.272-49.767c0.176-0.48,0.392-1.336,0.48-1.92l0.783-0.08c-0.191,0.68-0.544,1.567-0.768,1.943L164.272-49.767z"/>
		<path d="M168.936-50.759v-2.288l-1.712-3.104h0.8l0.761,1.487c0.2,0.408,0.368,0.736,0.536,1.112h0.016
			c0.144-0.352,0.336-0.704,0.544-1.112l0.776-1.487h0.783l-1.8,3.096v2.296H168.936z"/>
		<path d="M171.776-53.455v-0.479h4.128v0.479H171.776z M171.776-51.887v-0.48h4.128v0.48H171.776z"/>
		<path d="M178.239-50.671c-1.016,0-1.712-0.952-1.728-2.672c0-1.752,0.76-2.704,1.815-2.704c1.089,0,1.721,0.977,1.721,2.632
			c0,1.769-0.664,2.744-1.8,2.744H178.239z M178.279-51.215c0.712,0,1.057-0.84,1.057-2.168c0-1.28-0.32-2.12-1.057-2.12
			c-0.64,0-1.056,0.816-1.056,2.12c-0.016,1.352,0.4,2.168,1.048,2.168H178.279z"/>
		<path d="M180.456-49.767c0.176-0.48,0.392-1.336,0.48-1.92l0.783-0.08c-0.191,0.68-0.544,1.567-0.768,1.943L180.456-49.767z"/>
		<path d="M184.288-56.15h0.695v2.6h0.024c0.144-0.208,0.288-0.4,0.424-0.576l1.648-2.023h0.863l-1.952,2.288l2.104,3.104h-0.824
			l-1.768-2.648l-0.521,0.593v2.056h-0.695V-56.15z"/>
		<path d="M188.336-53.455v-0.479h4.128v0.479H188.336z M188.336-51.887v-0.48h4.128v0.48H188.336z"/>
		<path d="M193.144-50.759v-0.432l0.552-0.536c1.328-1.265,1.936-1.937,1.936-2.72c0-0.528-0.248-1.017-1.023-1.017
			c-0.473,0-0.864,0.24-1.104,0.44l-0.224-0.496c0.352-0.296,0.872-0.528,1.472-0.528c1.112,0,1.584,0.769,1.584,1.512
			c0,0.96-0.696,1.736-1.792,2.792l-0.408,0.385v0.016h2.328v0.584H193.144z"/>
		<path d="M200.352-55.367h-1.984l-0.199,1.336c0.12-0.016,0.231-0.031,0.424-0.031c0.408,0,0.8,0.088,1.12,0.279
			c0.408,0.225,0.744,0.681,0.744,1.336c0,1.017-0.809,1.776-1.937,1.776c-0.567,0-1.04-0.16-1.296-0.32l0.176-0.535
			c0.216,0.128,0.641,0.287,1.12,0.287c0.656,0,1.232-0.432,1.225-1.136c0-0.664-0.456-1.144-1.488-1.144
			c-0.304,0-0.536,0.023-0.729,0.056l0.336-2.496h2.488V-55.367z"/>
	</g>
	<g>
		<path d="M76.481-41.906c0.336-0.063,0.776-0.111,1.336-0.111c0.688,0,1.192,0.16,1.513,0.447c0.296,0.257,0.479,0.648,0.479,1.12
			c0,0.488-0.144,0.872-0.424,1.152c-0.367,0.392-0.968,0.592-1.648,0.592c-0.207,0-0.399-0.008-0.559-0.048v2.168h-0.697V-41.906z
			 M77.179-39.322c0.151,0.04,0.344,0.057,0.575,0.057c0.84,0,1.353-0.408,1.353-1.145c0-0.712-0.504-1.056-1.272-1.056
			c-0.304,0-0.536,0.024-0.655,0.056V-39.322z"/>
		<path d="M83.233-37.514c0,0.336,0.017,0.664,0.057,0.928h-0.633l-0.063-0.488h-0.024c-0.207,0.305-0.631,0.576-1.184,0.576
			c-0.783,0-1.184-0.552-1.184-1.112c0-0.936,0.832-1.447,2.328-1.439v-0.08c0-0.32-0.088-0.904-0.881-0.896
			c-0.367,0-0.744,0.104-1.016,0.288l-0.16-0.472c0.32-0.2,0.792-0.336,1.28-0.336c1.192,0,1.479,0.808,1.479,1.584V-37.514z
			 M82.546-38.562c-0.768-0.017-1.641,0.119-1.641,0.872c0,0.464,0.305,0.672,0.656,0.672c0.512,0,0.84-0.32,0.952-0.648
			c0.024-0.072,0.032-0.152,0.032-0.224V-38.562z"/>
		<path d="M84.362-39.41c0-0.408-0.008-0.728-0.032-1.048h0.624l0.04,0.632h0.017c0.191-0.359,0.64-0.72,1.279-0.72
			c0.536,0,1.368,0.32,1.368,1.648v2.312h-0.704v-2.232c0-0.624-0.231-1.151-0.896-1.151c-0.456,0-0.816,0.328-0.944,0.72
			c-0.032,0.088-0.048,0.216-0.048,0.328v2.336h-0.704V-39.41z"/>
		<path d="M89.617-41.386v0.928h1.009v0.536h-1.009v2.08c0,0.479,0.137,0.752,0.528,0.752c0.192,0,0.304-0.016,0.408-0.048
			l0.032,0.536c-0.137,0.048-0.353,0.096-0.624,0.096c-0.328,0-0.593-0.112-0.761-0.296c-0.191-0.216-0.271-0.561-0.271-1.017
			v-2.104h-0.601v-0.536h0.601v-0.712L89.617-41.386z"/>
		<path d="M92.946-36.498c-1.04,0-1.856-0.768-1.856-1.992c0-1.296,0.856-2.056,1.92-2.056c1.112,0,1.864,0.808,1.864,1.984
			c0,1.439-1,2.063-1.92,2.063H92.946z M92.979-37.026c0.672,0,1.176-0.632,1.176-1.512c0-0.656-0.328-1.479-1.16-1.479
			c-0.824,0-1.184,0.768-1.184,1.504c0,0.848,0.479,1.487,1.159,1.487H92.979z"/>
		<path d="M95.762-39.41c0-0.408-0.008-0.728-0.032-1.048h0.624l0.04,0.632h0.017c0.191-0.359,0.64-0.72,1.279-0.72
			c0.536,0,1.368,0.32,1.368,1.648v2.312h-0.704v-2.232c0-0.624-0.231-1.151-0.896-1.151c-0.456,0-0.816,0.328-0.944,0.72
			c-0.032,0.088-0.048,0.216-0.048,0.328v2.336h-0.704V-39.41z"/>
		<path d="M100.603-38.394c0.016,0.943,0.615,1.336,1.319,1.336c0.504,0,0.816-0.088,1.072-0.2l0.128,0.504
			c-0.248,0.112-0.68,0.248-1.296,0.248c-1.184,0-1.904-0.792-1.904-1.952c0-1.168,0.696-2.088,1.824-2.088
			c1.264,0,1.592,1.112,1.592,1.824c0,0.144-0.008,0.248-0.023,0.328H100.603z M102.658-38.897c0.008-0.448-0.184-1.145-0.968-1.145
			c-0.721,0-1.024,0.656-1.08,1.145H102.658z"/>
		<path d="M108.786-41.194h-1.983l-0.2,1.336c0.12-0.016,0.231-0.031,0.424-0.031c0.408,0,0.8,0.088,1.12,0.279
			c0.408,0.225,0.744,0.681,0.744,1.336c0,1.017-0.809,1.776-1.937,1.776c-0.567,0-1.04-0.16-1.296-0.32l0.176-0.535
			c0.216,0.128,0.641,0.287,1.12,0.287c0.656,0,1.232-0.432,1.224-1.136c0-0.664-0.455-1.144-1.487-1.144
			c-0.304,0-0.536,0.023-0.729,0.056l0.336-2.496h2.488V-41.194z"/>
		<path d="M111.962-36.586v-1.424h-2.416v-0.456l2.32-3.32h0.76v3.232h0.728v0.544h-0.728v1.424H111.962z M111.962-38.554v-1.736
			c0-0.271,0.008-0.544,0.023-0.815h-0.023c-0.16,0.304-0.288,0.527-0.433,0.768l-1.271,1.768v0.017H111.962z"/>
		<path d="M115.417-41.13h-0.016l-0.904,0.488l-0.136-0.536l1.136-0.608h0.601v5.2h-0.681V-41.13z"/>
		<path d="M119.321-36.266l2.224-5.8h0.552l-2.239,5.8H119.321z"/>
		<path d="M128.138-36.762c-0.248,0.128-0.769,0.256-1.424,0.256c-1.521,0-2.656-0.96-2.656-2.729c0-1.688,1.144-2.823,2.815-2.823
			c0.664,0,1.097,0.144,1.28,0.231l-0.176,0.576c-0.256-0.128-0.632-0.224-1.08-0.224c-1.264,0-2.104,0.808-2.104,2.216
			c0,1.32,0.76,2.16,2.063,2.16c0.432,0,0.864-0.088,1.145-0.225L128.138-36.762z"/>
		<path d="M128.729-39.282v-0.479h4.128v0.479H128.729z M128.729-37.714v-0.48h4.128v0.48H128.729z"/>
		<path d="M135.064-41.13h-0.016l-0.904,0.488l-0.136-0.536l1.136-0.608h0.601v5.2h-0.681V-41.13z"/>
		<path d="M139.297-36.498c-1.016,0-1.712-0.952-1.728-2.672c0-1.752,0.76-2.704,1.815-2.704c1.089,0,1.721,0.977,1.721,2.632
			c0,1.769-0.664,2.744-1.8,2.744H139.297z M139.337-37.042c0.712,0,1.057-0.84,1.057-2.168c0-1.28-0.32-2.12-1.057-2.12
			c-0.64,0-1.056,0.816-1.056,2.12c-0.016,1.352,0.4,2.168,1.048,2.168H139.337z"/>
		<path d="M143.4-36.498c-1.016,0-1.712-0.952-1.728-2.672c0-1.752,0.76-2.704,1.815-2.704c1.089,0,1.721,0.977,1.721,2.632
			c0,1.769-0.664,2.744-1.8,2.744H143.4z M143.44-37.042c0.712,0,1.057-0.84,1.057-2.168c0-1.28-0.32-2.12-1.057-2.12
			c-0.64,0-1.056,0.816-1.056,2.12c-0.016,1.352,0.4,2.168,1.048,2.168H143.44z"/>
		<path d="M145.616-35.594c0.176-0.48,0.392-1.336,0.48-1.92l0.783-0.08c-0.191,0.68-0.544,1.567-0.768,1.943L145.616-35.594z"/>
		<path d="M153.993-38.954c-0.04-0.744-0.089-1.664-0.089-2.328h-0.016c-0.192,0.624-0.408,1.312-0.68,2.048l-0.952,2.616h-0.528
			l-0.88-2.567c-0.256-0.761-0.464-1.456-0.616-2.097h-0.016c-0.016,0.672-0.056,1.576-0.104,2.385l-0.145,2.312h-0.664l0.376-5.392
			h0.888l0.921,2.607c0.224,0.664,0.399,1.265,0.544,1.824h0.016c0.144-0.544,0.336-1.144,0.576-1.824l0.96-2.607h0.888l0.336,5.392
			h-0.688L153.993-38.954z"/>
		<path d="M155.593-39.282v-0.479h4.128v0.479H155.593z M155.593-37.714v-0.48h4.128v0.48H155.593z"/>
		<path d="M163.504-41.194h-1.984l-0.199,1.336c0.12-0.016,0.231-0.031,0.424-0.031c0.408,0,0.8,0.088,1.12,0.279
			c0.408,0.225,0.744,0.681,0.744,1.336c0,1.017-0.809,1.776-1.937,1.776c-0.567,0-1.04-0.16-1.296-0.32l0.176-0.535
			c0.216,0.128,0.641,0.287,1.12,0.287c0.656,0,1.232-0.432,1.225-1.136c0-0.664-0.456-1.144-1.488-1.144
			c-0.304,0-0.536,0.023-0.729,0.056l0.336-2.496h2.488V-41.194z"/>
		<path d="M166.032-41.13h-0.016l-0.904,0.488l-0.136-0.536l1.136-0.608h0.601v5.2h-0.681V-41.13z"/>
		<path d="M168.376-35.594c0.176-0.48,0.392-1.336,0.48-1.92l0.783-0.08c-0.191,0.68-0.544,1.567-0.768,1.943L168.376-35.594z"/>
		<path d="M173.04-36.586v-2.288l-1.712-3.104h0.8l0.761,1.487c0.2,0.408,0.368,0.736,0.536,1.112h0.016
			c0.144-0.352,0.336-0.704,0.544-1.112l0.776-1.487h0.783l-1.8,3.096v2.296H173.04z"/>
		<path d="M175.88-39.282v-0.479h4.128v0.479H175.88z M175.88-37.714v-0.48h4.128v0.48H175.88z"/>
		<path d="M182.344-36.498c-1.016,0-1.712-0.952-1.728-2.672c0-1.752,0.76-2.704,1.815-2.704c1.089,0,1.721,0.977,1.721,2.632
			c0,1.769-0.664,2.744-1.8,2.744H182.344z M182.384-37.042c0.712,0,1.057-0.84,1.057-2.168c0-1.28-0.32-2.12-1.057-2.12
			c-0.64,0-1.056,0.816-1.056,2.12c-0.016,1.352,0.4,2.168,1.048,2.168H182.384z"/>
		<path d="M184.56-35.594c0.176-0.48,0.392-1.336,0.48-1.92l0.783-0.08c-0.191,0.68-0.544,1.567-0.768,1.943L184.56-35.594z"/>
		<path d="M188.392-41.978h0.695v2.6h0.024c0.144-0.208,0.288-0.4,0.424-0.576l1.648-2.023h0.863l-1.952,2.288l2.104,3.104h-0.824
			l-1.768-2.648l-0.521,0.593v2.056h-0.695V-41.978z"/>
		<path d="M192.439-39.282v-0.479h4.128v0.479H192.439z M192.439-37.714v-0.48h4.128v0.48H192.439z"/>
		<path d="M197.416-37.386c0.199,0.12,0.655,0.319,1.151,0.319c0.896,0,1.185-0.567,1.177-1.008c-0.009-0.728-0.664-1.04-1.345-1.04
			h-0.392v-0.527h0.392c0.513,0,1.16-0.265,1.16-0.88c0-0.416-0.264-0.784-0.912-0.784c-0.416,0-0.815,0.184-1.04,0.344
			l-0.191-0.512c0.279-0.2,0.808-0.4,1.367-0.4c1.024,0,1.488,0.608,1.488,1.24c0,0.544-0.328,1-0.96,1.231v0.017
			c0.64,0.12,1.16,0.6,1.16,1.328c0,0.832-0.656,1.56-1.896,1.56c-0.584,0-1.096-0.184-1.352-0.352L197.416-37.386z"/>
		<path d="M203.007-36.498c-1.016,0-1.712-0.952-1.728-2.672c0-1.752,0.76-2.704,1.815-2.704c1.089,0,1.721,0.977,1.721,2.632
			c0,1.769-0.664,2.744-1.8,2.744H203.007z M203.047-37.042c0.712,0,1.057-0.84,1.057-2.168c0-1.28-0.32-2.12-1.057-2.12
			c-0.64,0-1.056,0.816-1.056,2.12c-0.016,1.352,0.4,2.168,1.048,2.168H203.047z"/>
		<path d="M205.975-36.498c-0.271,0-0.464-0.216-0.464-0.504s0.2-0.504,0.479-0.504c0.28,0,0.473,0.208,0.473,0.504
			c0,0.288-0.192,0.504-0.48,0.504H205.975z"/>
		<path d="M210.215-41.194h-1.984l-0.199,1.336c0.12-0.016,0.231-0.031,0.424-0.031c0.408,0,0.8,0.088,1.12,0.279
			c0.408,0.225,0.744,0.681,0.744,1.336c0,1.017-0.809,1.776-1.937,1.776c-0.567,0-1.04-0.16-1.296-0.32l0.176-0.535
			c0.216,0.128,0.641,0.287,1.12,0.287c0.656,0,1.232-0.432,1.225-1.136c0-0.664-0.456-1.144-1.488-1.144
			c-0.304,0-0.536,0.023-0.729,0.056l0.336-2.496h2.488V-41.194z"/>
	</g>
	<g>
		<path d="M76.481-27.733c0.336-0.063,0.776-0.111,1.336-0.111c0.688,0,1.192,0.16,1.513,0.447c0.296,0.257,0.479,0.648,0.479,1.12
			c0,0.488-0.144,0.872-0.424,1.152c-0.367,0.392-0.968,0.592-1.648,0.592c-0.207,0-0.399-0.008-0.559-0.048v2.168h-0.697V-27.733z
			 M77.179-25.149c0.151,0.04,0.344,0.057,0.575,0.057c0.84,0,1.353-0.408,1.353-1.145c0-0.712-0.504-1.056-1.272-1.056
			c-0.304,0-0.536,0.024-0.655,0.056V-25.149z"/>
		<path d="M83.233-23.34c0,0.336,0.017,0.664,0.057,0.928h-0.633l-0.063-0.488h-0.024c-0.207,0.305-0.631,0.576-1.184,0.576
			c-0.783,0-1.184-0.552-1.184-1.112c0-0.936,0.832-1.447,2.328-1.439v-0.08c0-0.32-0.088-0.904-0.881-0.896
			c-0.367,0-0.744,0.104-1.016,0.288l-0.16-0.472c0.32-0.2,0.792-0.336,1.28-0.336c1.192,0,1.479,0.808,1.479,1.584V-23.34z
			 M82.546-24.388c-0.768-0.017-1.641,0.119-1.641,0.872c0,0.464,0.305,0.672,0.656,0.672c0.512,0,0.84-0.32,0.952-0.648
			c0.024-0.072,0.032-0.152,0.032-0.224V-24.388z"/>
		<path d="M84.362-25.237c0-0.408-0.008-0.728-0.032-1.048h0.624l0.04,0.632h0.017c0.191-0.359,0.64-0.72,1.279-0.72
			c0.536,0,1.368,0.32,1.368,1.648v2.312h-0.704v-2.232c0-0.624-0.231-1.151-0.896-1.151c-0.456,0-0.816,0.328-0.944,0.72
			c-0.032,0.088-0.048,0.216-0.048,0.328v2.336h-0.704V-25.237z"/>
		<path d="M89.617-27.212v0.928h1.009v0.536h-1.009v2.08c0,0.479,0.137,0.752,0.528,0.752c0.192,0,0.304-0.016,0.408-0.048
			l0.032,0.536c-0.137,0.048-0.353,0.096-0.624,0.096c-0.328,0-0.593-0.112-0.761-0.296c-0.191-0.216-0.271-0.561-0.271-1.017
			v-2.104h-0.601v-0.536h0.601v-0.712L89.617-27.212z"/>
		<path d="M92.946-22.325c-1.04,0-1.856-0.768-1.856-1.992c0-1.296,0.856-2.056,1.92-2.056c1.112,0,1.864,0.808,1.864,1.984
			c0,1.439-1,2.063-1.92,2.063H92.946z M92.979-22.853c0.672,0,1.176-0.632,1.176-1.512c0-0.656-0.328-1.479-1.16-1.479
			c-0.824,0-1.184,0.768-1.184,1.504c0,0.848,0.479,1.487,1.159,1.487H92.979z"/>
		<path d="M95.762-25.237c0-0.408-0.008-0.728-0.032-1.048h0.624l0.04,0.632h0.017c0.191-0.359,0.64-0.72,1.279-0.72
			c0.536,0,1.368,0.32,1.368,1.648v2.312h-0.704v-2.232c0-0.624-0.231-1.151-0.896-1.151c-0.456,0-0.816,0.328-0.944,0.72
			c-0.032,0.088-0.048,0.216-0.048,0.328v2.336h-0.704V-25.237z"/>
		<path d="M100.603-24.22c0.016,0.943,0.615,1.336,1.319,1.336c0.504,0,0.816-0.088,1.072-0.2l0.128,0.504
			c-0.248,0.112-0.68,0.248-1.296,0.248c-1.184,0-1.904-0.792-1.904-1.952c0-1.168,0.696-2.088,1.824-2.088
			c1.264,0,1.592,1.112,1.592,1.824c0,0.144-0.008,0.248-0.023,0.328H100.603z M102.658-24.724c0.008-0.448-0.184-1.145-0.968-1.145
			c-0.721,0-1.024,0.656-1.08,1.145H102.658z"/>
		<path d="M108.786-27.021h-1.983l-0.2,1.336c0.12-0.016,0.231-0.031,0.424-0.031c0.408,0,0.8,0.088,1.12,0.279
			c0.408,0.225,0.744,0.681,0.744,1.336c0,1.017-0.809,1.776-1.937,1.776c-0.567,0-1.04-0.16-1.296-0.32l0.176-0.535
			c0.216,0.128,0.641,0.287,1.12,0.287c0.656,0,1.232-0.432,1.224-1.136c0-0.664-0.455-1.144-1.487-1.144
			c-0.304,0-0.536,0.023-0.729,0.056l0.336-2.496h2.488V-27.021z"/>
		<path d="M111.962-22.413v-1.424h-2.416v-0.456l2.32-3.32h0.76v3.232h0.728v0.544h-0.728v1.424H111.962z M111.962-24.38v-1.736
			c0-0.271,0.008-0.544,0.023-0.815h-0.023c-0.16,0.304-0.288,0.527-0.433,0.768l-1.271,1.768v0.017H111.962z"/>
		<path d="M115.417-26.957h-0.016l-0.904,0.488l-0.136-0.536l1.136-0.608h0.601v5.2h-0.681V-26.957z"/>
		<path d="M119.321-22.092l2.224-5.8h0.552l-2.239,5.8H119.321z"/>
		<path d="M128.138-22.588c-0.248,0.128-0.769,0.256-1.424,0.256c-1.521,0-2.656-0.96-2.656-2.729c0-1.688,1.144-2.823,2.815-2.823
			c0.664,0,1.097,0.144,1.28,0.231l-0.176,0.576c-0.256-0.128-0.632-0.224-1.08-0.224c-1.264,0-2.104,0.808-2.104,2.216
			c0,1.32,0.76,2.16,2.063,2.16c0.432,0,0.864-0.088,1.145-0.225L128.138-22.588z"/>
		<path d="M128.729-25.109v-0.479h4.128v0.479H128.729z M128.729-23.541v-0.48h4.128v0.48H128.729z"/>
		<path d="M135.064-26.957h-0.016l-0.904,0.488l-0.136-0.536l1.136-0.608h0.601v5.2h-0.681V-26.957z"/>
		<path d="M139.297-22.325c-1.016,0-1.712-0.952-1.728-2.672c0-1.752,0.76-2.704,1.815-2.704c1.089,0,1.721,0.977,1.721,2.632
			c0,1.769-0.664,2.744-1.8,2.744H139.297z M139.337-22.869c0.712,0,1.057-0.84,1.057-2.168c0-1.28-0.32-2.12-1.057-2.12
			c-0.64,0-1.056,0.816-1.056,2.12c-0.016,1.352,0.4,2.168,1.048,2.168H139.337z"/>
		<path d="M143.4-22.325c-1.016,0-1.712-0.952-1.728-2.672c0-1.752,0.76-2.704,1.815-2.704c1.089,0,1.721,0.977,1.721,2.632
			c0,1.769-0.664,2.744-1.8,2.744H143.4z M143.44-22.869c0.712,0,1.057-0.84,1.057-2.168c0-1.28-0.32-2.12-1.057-2.12
			c-0.64,0-1.056,0.816-1.056,2.12c-0.016,1.352,0.4,2.168,1.048,2.168H143.44z"/>
		<path d="M145.616-21.42c0.176-0.48,0.392-1.336,0.48-1.92l0.783-0.08c-0.191,0.68-0.544,1.567-0.768,1.943L145.616-21.42z"/>
		<path d="M153.993-24.781c-0.04-0.744-0.089-1.664-0.089-2.328h-0.016c-0.192,0.624-0.408,1.312-0.68,2.048l-0.952,2.616h-0.528
			l-0.88-2.567c-0.256-0.761-0.464-1.456-0.616-2.097h-0.016c-0.016,0.672-0.056,1.576-0.104,2.385l-0.145,2.312h-0.664l0.376-5.392
			h0.888l0.921,2.607c0.224,0.664,0.399,1.265,0.544,1.824h0.016c0.144-0.544,0.336-1.144,0.576-1.824l0.96-2.607h0.888l0.336,5.392
			h-0.688L153.993-24.781z"/>
		<path d="M155.593-25.109v-0.479h4.128v0.479H155.593z M155.593-23.541v-0.48h4.128v0.48H155.593z"/>
		<path d="M163.504-27.021h-1.984l-0.199,1.336c0.12-0.016,0.231-0.031,0.424-0.031c0.408,0,0.8,0.088,1.12,0.279
			c0.408,0.225,0.744,0.681,0.744,1.336c0,1.017-0.809,1.776-1.937,1.776c-0.567,0-1.04-0.16-1.296-0.32l0.176-0.535
			c0.216,0.128,0.641,0.287,1.12,0.287c0.656,0,1.232-0.432,1.225-1.136c0-0.664-0.456-1.144-1.488-1.144
			c-0.304,0-0.536,0.023-0.729,0.056l0.336-2.496h2.488V-27.021z"/>
		<path d="M166.032-26.957h-0.016l-0.904,0.488l-0.136-0.536l1.136-0.608h0.601v5.2h-0.681V-26.957z"/>
		<path d="M168.376-21.42c0.176-0.48,0.392-1.336,0.48-1.92l0.783-0.08c-0.191,0.68-0.544,1.567-0.768,1.943L168.376-21.42z"/>
		<path d="M173.04-22.413v-2.288l-1.712-3.104h0.8l0.761,1.487c0.2,0.408,0.368,0.736,0.536,1.112h0.016
			c0.144-0.352,0.336-0.704,0.544-1.112l0.776-1.487h0.783l-1.8,3.096v2.296H173.04z"/>
		<path d="M175.88-25.109v-0.479h4.128v0.479H175.88z M175.88-23.541v-0.48h4.128v0.48H175.88z"/>
		<path d="M182.344-22.325c-1.016,0-1.712-0.952-1.728-2.672c0-1.752,0.76-2.704,1.815-2.704c1.089,0,1.721,0.977,1.721,2.632
			c0,1.769-0.664,2.744-1.8,2.744H182.344z M182.384-22.869c0.712,0,1.057-0.84,1.057-2.168c0-1.28-0.32-2.12-1.057-2.12
			c-0.64,0-1.056,0.816-1.056,2.12c-0.016,1.352,0.4,2.168,1.048,2.168H182.384z"/>
		<path d="M184.56-21.42c0.176-0.48,0.392-1.336,0.48-1.92l0.783-0.08c-0.191,0.68-0.544,1.567-0.768,1.943L184.56-21.42z"/>
		<path d="M188.392-27.804h0.695v2.6h0.024c0.144-0.208,0.288-0.4,0.424-0.576l1.648-2.023h0.863l-1.952,2.288l2.104,3.104h-0.824
			l-1.768-2.648l-0.521,0.593v2.056h-0.695V-27.804z"/>
		<path d="M192.439-25.109v-0.479h4.128v0.479H192.439z M192.439-23.541v-0.48h4.128v0.48H192.439z"/>
		<path d="M197.416-23.212c0.199,0.12,0.655,0.319,1.151,0.319c0.896,0,1.185-0.567,1.177-1.008c-0.009-0.728-0.664-1.04-1.345-1.04
			h-0.392v-0.527h0.392c0.513,0,1.16-0.265,1.16-0.88c0-0.416-0.264-0.784-0.912-0.784c-0.416,0-0.815,0.184-1.04,0.344
			l-0.191-0.512c0.279-0.2,0.808-0.4,1.367-0.4c1.024,0,1.488,0.608,1.488,1.24c0,0.544-0.328,1-0.96,1.231v0.017
			c0.64,0.12,1.16,0.6,1.16,1.328c0,0.832-0.656,1.56-1.896,1.56c-0.584,0-1.096-0.184-1.352-0.352L197.416-23.212z"/>
		<path d="M203.007-22.325c-1.016,0-1.712-0.952-1.728-2.672c0-1.752,0.76-2.704,1.815-2.704c1.089,0,1.721,0.977,1.721,2.632
			c0,1.769-0.664,2.744-1.8,2.744H203.007z M203.047-22.869c0.712,0,1.057-0.84,1.057-2.168c0-1.28-0.32-2.12-1.057-2.12
			c-0.64,0-1.056,0.816-1.056,2.12c-0.016,1.352,0.4,2.168,1.048,2.168H203.047z"/>
		<path d="M205.975-22.325c-0.271,0-0.464-0.216-0.464-0.504s0.2-0.504,0.479-0.504c0.28,0,0.473,0.208,0.473,0.504
			c0,0.288-0.192,0.504-0.48,0.504H205.975z"/>
		<path d="M210.215-27.021h-1.984l-0.199,1.336c0.12-0.016,0.231-0.031,0.424-0.031c0.408,0,0.8,0.088,1.12,0.279
			c0.408,0.225,0.744,0.681,0.744,1.336c0,1.017-0.809,1.776-1.937,1.776c-0.567,0-1.04-0.16-1.296-0.32l0.176-0.535
			c0.216,0.128,0.641,0.287,1.12,0.287c0.656,0,1.232-0.432,1.225-1.136c0-0.664-0.456-1.144-1.488-1.144
			c-0.304,0-0.536,0.023-0.729,0.056l0.336-2.496h2.488V-27.021z"/>
	</g>
</g>
</svg>
