<?xml version="1.0" encoding="utf-8"?>
<!-- Generator: Adobe Illustrator 16.0.0, SVG Export Plug-In . SVG Version: 6.00 Build 0)  -->
<!DOCTYPE svg PUBLIC "-//W3C//DTD SVG 1.1//EN" "http://www.w3.org/Graphics/SVG/1.1/DTD/svg11.dtd">
<svg version="1.1" id="Layer_1" xmlns="http://www.w3.org/2000/svg" xmlns:xlink="http://www.w3.org/1999/xlink" x="0px" y="0px"
	 width="42.52px" height="42.52px" viewBox="0 0 42.52 42.52" enable-background="new 0 0 42.52 42.52" xml:space="preserve">
<g>
	<path d="M11.503,14.476l-3.098,2.052v-3.002l3.098-2.025h3.11v19.681h-3.11V14.476z"/>
	<path d="M21.692,28.536l8.517-9.63c0.33-0.388,0.555-0.749,0.675-1.083c0.079-0.315,0.119-0.613,0.119-0.892
		c0-0.739-0.255-1.384-0.764-1.935c-0.529-0.55-1.277-0.833-2.246-0.851c-0.859,0-1.572,0.248-2.143,0.743
		c-0.589,0.496-0.938,1.195-1.048,2.097h-3.11c0.079-1.635,0.687-2.987,1.823-4.056c1.146-1.042,2.557-1.572,4.23-1.59
		c1.873,0.018,3.394,0.559,4.559,1.622c1.187,1.053,1.789,2.391,1.81,4.012c0,1.296-0.438,2.449-1.315,3.458l-7.008,7.944h8.323
		v2.807H21.692V28.536z"/>
</g>
</svg>
