<?xml version="1.0" encoding="utf-8"?>
<!-- Generator: Adobe Illustrator 16.0.0, SVG Export Plug-In . SVG Version: 6.00 Build 0)  -->
<!DOCTYPE svg PUBLIC "-//W3C//DTD SVG 1.1//EN" "http://www.w3.org/Graphics/SVG/1.1/DTD/svg11.dtd">
<svg version="1.1" id="Layer_1" xmlns="http://www.w3.org/2000/svg" xmlns:xlink="http://www.w3.org/1999/xlink" x="0px" y="0px"
	 width="42.52px" height="42.52px" viewBox="0 0 42.52 42.52" enable-background="new 0 0 42.52 42.52" xml:space="preserve">
<g>
	<polygon points="8.698,12.948 8.698,16.917 11.433,14.848 11.433,31.313 14.929,31.313 14.929,10.72 11.683,10.72 	"/>
</g>
<g>
	<path d="M21.646,25.498c0.022-1.965,0.938-3.493,2.746-4.583c-0.69-0.532-1.232-1.141-1.626-1.83
		c-0.457-0.643-0.686-1.405-0.686-2.292c0.021-1.695,0.655-3.096,1.901-4.206c1.176-1.098,2.691-1.657,4.547-1.676
		c1.887,0.019,3.428,0.578,4.624,1.674c1.207,1.109,1.82,2.51,1.841,4.205c0,0.884-0.207,1.647-0.622,2.291
		c-0.437,0.688-0.999,1.297-1.689,1.828c1.809,1.088,2.724,2.615,2.745,4.58c-0.021,1.833-0.688,3.301-2,4.399
		c-1.331,1.126-2.965,1.698-4.897,1.717c-1.923-0.019-3.53-0.591-4.82-1.715C22.354,28.794,21.665,27.331,21.646,25.498z
		 M24.866,25.469c0.022,0.935,0.396,1.699,1.123,2.297c0.695,0.625,1.542,0.938,2.54,0.938c1.028,0,1.89-0.313,2.587-0.938
		c0.705-0.598,1.069-1.363,1.09-2.297c-0.021-0.951-0.385-1.726-1.09-2.324c-0.697-0.586-1.559-0.89-2.587-0.91
		c-0.996,0.02-1.845,0.323-2.54,0.91C25.261,23.744,24.888,24.518,24.866,25.469z M25.298,16.736
		c0.022,0.944,0.358,1.665,1.01,2.162c0.642,0.514,1.382,0.771,2.222,0.771c0.869,0,1.626-0.257,2.268-0.771
		c0.632-0.497,0.959-1.217,0.979-2.162c-0.021-0.975-0.347-1.708-0.979-2.205c-0.642-0.478-1.398-0.716-2.268-0.716
		c-0.84,0-1.58,0.238-2.222,0.716C25.656,15.028,25.319,15.762,25.298,16.736z"/>
</g>
</svg>
