<?xml version="1.0" encoding="utf-8"?>
<!-- Generator: Adobe Illustrator 24.1.2, SVG Export Plug-In . SVG Version: 6.00 Build 0)  -->
<svg version="1.1" id="Layer_1" xmlns="http://www.w3.org/2000/svg" xmlns:xlink="http://www.w3.org/1999/xlink" x="0px" y="0px"
	 width="42.52px" height="42.52px" viewBox="0 0 42.5 42.5" style="enable-background:new 0 0 42.5 42.5;" xml:space="preserve">
<g>
	<path d="M11.5,14.5l-3.1,2.1v-3l3.1-2h3.1v19.7h-3.1V14.5z"/>
	<path d="M21.8,16.9c0-1.8,0.7-3.2,1.9-4.2c1.2-1,2.6-1.4,4.2-1.4c1.7,0,3.1,0.5,4.3,1.4c1.2,1,1.8,2.4,1.9,4.2v8.6
		c0,1.8-0.7,3.2-1.9,4.2c-1.2,1-2.6,1.5-4.3,1.5c-1.4,0-2.7-0.4-3.8-1.2c-1.1-0.7-1.9-1.8-2.2-3.2h3.2c0.5,1.1,1.4,1.6,2.8,1.6
		c2,0,3-1,3-3v-1.8c-1.5,0.4-2.9,0.6-4.1,0.6c-1.4,0-2.6-0.4-3.6-1.3c-1-0.9-1.5-2.2-1.5-4.1L21.8,16.9L21.8,16.9z M24.9,18.7
		c0,2,1.1,3,3,3c2,0,3-1,3.1-3v-1.6c-0.1-2-1.1-3-3.1-3c-2,0-3,1-3,3V18.7z"/>
</g>
</svg>
