<?xml version="1.0" encoding="utf-8"?>
<!-- Generator: Adobe Illustrator 16.0.0, SVG Export Plug-In . SVG Version: 6.00 Build 0)  -->
<!DOCTYPE svg PUBLIC "-//W3C//DTD SVG 1.1//EN" "http://www.w3.org/Graphics/SVG/1.1/DTD/svg11.dtd">
<svg version="1.1" id="Layer_1" xmlns="http://www.w3.org/2000/svg" xmlns:xlink="http://www.w3.org/1999/xlink" x="0px" y="0px"
	 width="65px" height="46px" viewBox="0 0 1190.549 841.891" enable-background="new 0 0 1190.549 841.891"
	 xml:space="preserve">
<path d="M497.305,420.945c0-54.111,43.854-97.988,97.964-97.988s97.987,43.877,97.987,97.988c0,54.11-43.877,97.988-97.987,97.988
	S497.305,475.056,497.305,420.945 M444.335,420.945c0,83.362,67.573,150.935,150.935,150.935
	c83.361,0,150.935-67.572,150.935-150.935S678.631,270.01,595.27,270.01C511.907,270.01,444.335,337.583,444.335,420.945
	 M716.906,264.027c0,19.469,15.789,35.282,35.282,35.282c19.469,0,35.282-15.813,35.282-35.282c0-19.47-15.789-35.259-35.282-35.259
	S716.906,244.557,716.906,264.027 M476.506,660.204c-28.657-1.306-44.233-6.078-54.585-10.114
	c-13.723-5.342-23.505-11.705-33.81-21.986c-10.281-10.28-16.668-20.062-21.986-33.786c-4.037-10.353-8.809-25.928-10.114-54.586
	c-1.425-30.984-1.709-40.292-1.709-118.787s0.308-87.778,1.709-118.787c1.305-28.658,6.102-44.21,10.114-54.585
	c5.342-13.724,11.705-23.506,21.986-33.811c10.281-10.28,20.063-16.667,33.81-21.986c10.352-4.036,25.928-8.809,54.585-10.115
	c30.985-1.424,40.292-1.709,118.764-1.709c78.495,0,87.778,0.309,118.787,1.709c28.657,1.306,44.209,6.102,54.585,10.115
	c13.724,5.318,23.506,11.706,33.811,21.986c10.28,10.281,16.644,20.087,21.985,33.811c4.037,10.352,8.81,25.927,10.115,54.585
	c1.425,31.008,1.709,40.292,1.709,118.787c0,78.471-0.284,87.779-1.709,118.787c-1.306,28.658-6.103,44.234-10.115,54.586
	c-5.342,13.724-11.705,23.506-21.985,33.786c-10.281,10.281-20.087,16.645-33.811,21.986c-10.352,4.036-25.928,8.809-54.585,10.114
	c-30.985,1.425-40.292,1.71-118.787,1.71C516.798,661.914,507.491,661.629,476.506,660.204 M474.085,128.786
	c-31.293,1.424-52.663,6.387-71.349,13.652c-19.326,7.502-35.709,17.569-52.068,33.905c-16.335,16.335-26.402,32.718-33.905,52.069
	c-7.265,18.686-12.228,40.055-13.652,71.348c-1.448,31.341-1.781,41.361-1.781,121.186c0,79.824,0.333,89.844,1.781,121.185
	c1.424,31.293,6.387,52.663,13.652,71.348c7.503,19.327,17.546,35.734,33.905,52.069c16.335,16.335,32.718,26.378,52.068,33.905
	c18.71,7.266,40.056,12.228,71.349,13.652c31.364,1.425,41.361,1.781,121.185,1.781c79.848,0,89.844-0.333,121.185-1.781
	c31.294-1.425,52.662-6.387,71.349-13.652c19.327-7.527,35.709-17.57,52.068-33.905c16.335-16.335,26.379-32.742,33.905-52.069
	c7.265-18.685,12.251-40.055,13.652-71.348c1.424-31.365,1.757-41.36,1.757-121.185c0-79.824-0.333-89.844-1.757-121.185
	c-1.425-31.293-6.388-52.662-13.652-71.348c-7.526-19.327-17.57-35.71-33.905-52.069c-16.335-16.335-32.741-26.402-52.045-33.905
	c-18.71-7.266-40.078-12.252-71.349-13.652c-31.341-1.425-41.36-1.781-121.185-1.781
	C515.446,127.005,505.449,127.337,474.085,128.786"/>
</svg>
