<svg id="Layer_1" data-name="Layer 1" xmlns="http://www.w3.org/2000/svg" viewBox="0 0 294.8 170.08"><title>oddil</title><path d="M86.92,79.08a5.82,5.82,0,0,0-2.14-1.63,7.24,7.24,0,0,0-3-.58,7.41,7.41,0,0,0-3.09.65,7.29,7.29,0,0,0-2.48,1.81,8.24,8.24,0,0,0-1.63,2.76,10.5,10.5,0,0,0,0,6.94,8.66,8.66,0,0,0,1.61,2.74,7.54,7.54,0,0,0,2.42,1.81,7,7,0,0,0,3,.64,6.67,6.67,0,0,0,3.23-.76,6.48,6.48,0,0,0,2.32-2.13l5,3.69a10.34,10.34,0,0,1-4.34,3.54,13.43,13.43,0,0,1-5.4,1.14,16.54,16.54,0,0,1-5.82-1A13.37,13.37,0,0,1,72,95.88a12.85,12.85,0,0,1-3-4.47,16.3,16.3,0,0,1,0-11.72,12.85,12.85,0,0,1,3-4.47,13.37,13.37,0,0,1,4.61-2.83,16.54,16.54,0,0,1,5.82-1,15.39,15.39,0,0,1,2.38.2,13.3,13.3,0,0,1,2.43.67,11.07,11.07,0,0,1,2.3,1.22,9.16,9.16,0,0,1,2,1.86Z"/><path d="M95.75,72.08h5.93v10h11.53v-10h5.94V99h-5.94V87.37H101.68V99H95.75Z"/><path d="M125,72.08h10.43a18.16,18.16,0,0,1,3.9.4,9.36,9.36,0,0,1,3.23,1.33,6.65,6.65,0,0,1,2.21,2.51,8.61,8.61,0,0,1,.82,3.94,7.9,7.9,0,0,1-1.49,4.85,6.7,6.7,0,0,1-4.33,2.53L146.61,99H139.5l-5.63-10.76h-2.93V99H125Zm5.94,11.15h3.5c.53,0,1.09,0,1.69-.06a5.35,5.35,0,0,0,1.62-.34,2.81,2.81,0,0,0,1.2-.9,2.74,2.74,0,0,0,.47-1.71,2.89,2.89,0,0,0-.41-1.63,2.84,2.84,0,0,0-1.07-.94,4.74,4.74,0,0,0-1.48-.43,11.63,11.63,0,0,0-1.64-.12h-3.88Z"/><path d="M148.59,85.55a15.26,15.26,0,0,1,1.08-5.86,13,13,0,0,1,3-4.47,13.33,13.33,0,0,1,4.6-2.83,17.6,17.6,0,0,1,11.64,0,13.28,13.28,0,0,1,4.61,2.83,12.85,12.85,0,0,1,3,4.47,16.3,16.3,0,0,1,0,11.72,12.85,12.85,0,0,1-3,4.47,13.28,13.28,0,0,1-4.61,2.83,17.6,17.6,0,0,1-11.64,0,13.33,13.33,0,0,1-4.6-2.83,13,13,0,0,1-3-4.47A15.26,15.26,0,0,1,148.59,85.55Zm6.16,0a9.93,9.93,0,0,0,.59,3.48,8,8,0,0,0,1.7,2.74,7.81,7.81,0,0,0,2.64,1.81,9.59,9.59,0,0,0,6.89,0,7.91,7.91,0,0,0,2.64-1.81,8,8,0,0,0,1.7-2.74,10.67,10.67,0,0,0,0-6.94,7.92,7.92,0,0,0-1.7-2.76,7.63,7.63,0,0,0-2.64-1.81,9.45,9.45,0,0,0-6.89,0A7.54,7.54,0,0,0,157,79.33a7.92,7.92,0,0,0-1.7,2.76A10,10,0,0,0,154.75,85.55Z"/><path d="M182.07,72.08h10a20,20,0,0,1,4,.38,8.92,8.92,0,0,1,3.25,1.31,6.73,6.73,0,0,1,2.21,2.51,8.7,8.7,0,0,1,.82,4,9.17,9.17,0,0,1-.76,4,6.59,6.59,0,0,1-2.1,2.55,8.5,8.5,0,0,1-3.15,1.35,19,19,0,0,1-4,.4H188V99h-5.93ZM188,83.49h4a7.74,7.74,0,0,0,1.54-.15,4,4,0,0,0,1.33-.51,2.66,2.66,0,0,0,.95-1,3.16,3.16,0,0,0,.36-1.58,2.63,2.63,0,0,0-.47-1.65,3.18,3.18,0,0,0-1.22-1,5.26,5.26,0,0,0-1.65-.43,15.41,15.41,0,0,0-1.75-.1H188Z"/><path d="M213,87.53,202.92,72.08h7.38L216,82.16l6.05-10.08h7L219,87.53V99H213Z"/><path d="M231.45,72.08h8.06L251,90.8H251V72.08H257V99h-7.77L237.46,79.84h-.07V99h-5.94Z"/><path d="M263.06,72.08h18.3v5.48H269v5h11.67v5.48H269v5.48h13.05V99h-19ZM270,64.62l2.4,3,2.35-3h5.14l-4.53,5.48h-6.2l-4.41-5.48Z"/><path d="M95.75,102.75h2.86l2,5.6h0l2-5.6h2.85v8.59h-1.89v-6.59h0l-2.26,6.59H99.84l-2.17-6.59h0v6.59H95.75Z"/><path d="M107.28,102.75h5.83v1.74h-3.94v1.61h3.72v1.74h-3.72v1.75h4.16v1.75h-6Zm2.19-2.71.76.95L111,100h1.63l-1.44,1.75h-2L107.8,100Z"/><path d="M119.09,104.85a1.27,1.27,0,0,0-.62-.43,2.16,2.16,0,0,0-1.18-.1,2.05,2.05,0,0,0-.41.16.81.81,0,0,0-.31.27.69.69,0,0,0-.12.41.65.65,0,0,0,.29.59,2.76,2.76,0,0,0,.73.36l1,.29a3.71,3.71,0,0,1,1,.41,2.28,2.28,0,0,1,.73.72,2.22,2.22,0,0,1,.29,1.2,2.77,2.77,0,0,1-.27,1.25,2.47,2.47,0,0,1-.72.88,2.87,2.87,0,0,1-1,.52,4.43,4.43,0,0,1-1.27.18,4.54,4.54,0,0,1-1.55-.26,4,4,0,0,1-1.34-.82l1.35-1.49a2.06,2.06,0,0,0,.73.61,2.13,2.13,0,0,0,.92.21,2,2,0,0,0,.47-.06,1.52,1.52,0,0,0,.42-.16.81.81,0,0,0,.3-.28.68.68,0,0,0,.12-.4.72.72,0,0,0-.3-.61,2.92,2.92,0,0,0-.75-.39c-.29-.1-.62-.21-1-.31a5.26,5.26,0,0,1-1-.42,2.39,2.39,0,0,1-.74-.71,2,2,0,0,1-.3-1.15,2.57,2.57,0,0,1,.27-1.21,2.84,2.84,0,0,1,.73-.88,3,3,0,0,1,1-.52,4.26,4.26,0,0,1,1.23-.18,5,5,0,0,1,1.4.2,3.15,3.15,0,0,1,1.23.7Z"/><path d="M123.47,104.42H121v-1.67h6.79v1.67h-2.45v6.92h-1.89Z"/><path d="M128.31,107a4.9,4.9,0,0,1,.35-1.87,4.15,4.15,0,0,1,1-1.42,4.1,4.1,0,0,1,1.47-.91,5.24,5.24,0,0,1,1.85-.31,5.3,5.3,0,0,1,1.86.31,4.1,4.1,0,0,1,1.47.91,4.15,4.15,0,0,1,1,1.42,5.17,5.17,0,0,1,0,3.74,4,4,0,0,1-2.43,2.33,5.3,5.3,0,0,1-1.86.32,5.24,5.24,0,0,1-1.85-.32,4,4,0,0,1-2.43-2.33A4.87,4.87,0,0,1,128.31,107Zm2,0a3.23,3.23,0,0,0,.18,1.11,2.71,2.71,0,0,0,.54.88,2.65,2.65,0,0,0,.85.57,3,3,0,0,0,2.19,0,2.65,2.65,0,0,0,.85-.57,2.71,2.71,0,0,0,.54-.88,3.48,3.48,0,0,0,0-2.21,2.61,2.61,0,0,0-.54-.88,2.52,2.52,0,0,0-.85-.58,3.1,3.1,0,0,0-2.19,0,2.52,2.52,0,0,0-.85.58,2.61,2.61,0,0,0-.54.88A3.25,3.25,0,0,0,130.28,107Z"/><path d="M57.58,58.05H12.84v1.71l-.08,29v.43h0a23.23,23.23,0,0,0,46.45,0h0v-.4l.08-29.05V58.05ZM57.5,88.8h0a21.52,21.52,0,0,1-43,0h0l.08-29.05h43Z"/><path d="M38.76,69a.53.53,0,0,0-.53-.53.54.54,0,0,0,0,1.07A.54.54,0,0,0,38.76,69Z"/><path d="M19.92,89.64a.26.26,0,0,0-.07.38,15.61,15.61,0,0,0,13,6.71,15.84,15.84,0,0,0,8.3-2.25,1.79,1.79,0,0,0,1-2.13c-.23-.63-1-1.26-2.5-1a17.47,17.47,0,0,1-4.28.41h-.6a10,10,0,0,1-4.12-.89,2.05,2.05,0,0,0,.16-.81,2.23,2.23,0,0,0-3.65-1.73c-.19-.22-.38-.45-.56-.68a.27.27,0,0,0-.38-.05.26.26,0,0,0-.05.38,9.85,9.85,0,0,0,.78.93l.2.22.2-.22a1.67,1.67,0,0,1,1.23-.54,1.69,1.69,0,0,1,1.68,1.69,1.66,1.66,0,0,1-.22.82l-.14.25.27.13a10.7,10.7,0,0,0,4.6,1h.6a17.4,17.4,0,0,0,4.38-.42,2,2,0,0,1,1.49.15,9.82,9.82,0,0,1-5.33,2,22.59,22.59,0,0,1-6.32-.88l-.08,0-2,.6a.28.28,0,0,0,.16.53l1.84-.56a23.32,23.32,0,0,0,6.05.88h.36a10.16,10.16,0,0,0,5.69-2.11l0,.06A1.26,1.26,0,0,1,40.87,94a15.14,15.14,0,0,1-8,2.18A15.08,15.08,0,0,1,20.3,89.71.27.27,0,0,0,19.92,89.64Z"/><path d="M29.7,67.56a.28.28,0,0,0-.33-.21,15.42,15.42,0,0,0-12,14.76c0,.28,0,.57,0,.85a.27.27,0,0,0,.27.26h0a.28.28,0,0,0,.26-.29c0-.28,0-.55,0-.82A14.86,14.86,0,0,1,29.49,67.89.29.29,0,0,0,29.7,67.56Z"/><path d="M23.43,94.1a.26.26,0,0,0-.35-.16,4.93,4.93,0,0,1-5.18-.85c-.13-.15-.42-.52-.26-.81s1-.64,2.8-.42a.27.27,0,0,0,.3-.24.28.28,0,0,0-.24-.31c-2.32-.27-3.1.24-3.35.72a1.25,1.25,0,0,0,.34,1.42,5.09,5.09,0,0,0,3.66,1.4,6,6,0,0,0,2.13-.4A.26.26,0,0,0,23.43,94.1Z"/><path d="M28.57,91.56a1.19,1.19,0,1,0,0-2.38,1.19,1.19,0,0,0,0,2.38Zm0-1.83a.64.64,0,1,1-.64.64A.64.64,0,0,1,28.57,89.73Z"/><path d="M31.56,72.06a.28.28,0,0,0-.36.13.29.29,0,0,0,.13.37c2.76,1.27,4.25,1.64,5.09,1.64a1.26,1.26,0,0,0,1-.33c.37-.38.34-1-.1-1.92a.28.28,0,0,0-.37-.12.27.27,0,0,0-.12.36c.31.65.38,1.11.19,1.3S35.82,74,31.56,72.06Z"/><path d="M43.38,68.88a20.18,20.18,0,0,0,4-2l-.19,3.42-1,.22a.27.27,0,0,0,.06.54h.06l1.4-.31L48,65.8l-.46.32a22,22,0,0,1-4.29,2.24.28.28,0,0,0-.17.35A.27.27,0,0,0,43.38,68.88Z"/><path d="M18.44,82.34a.54.54,0,0,0,.53.54.54.54,0,1,0-.53-.54Z"/><path d="M20.6,77.45a.53.53,0,0,0-.53-.53.54.54,0,1,0,.53.53Z"/><path d="M19.84,80a.53.53,0,1,0-.53.53A.54.54,0,0,0,19.84,80Z"/><path d="M21.32,75.35a.53.53,0,0,0-.53.53.54.54,0,1,0,.53-.53Z"/><path d="M22.68,74.19a.53.53,0,1,0-.53.53A.54.54,0,0,0,22.68,74.19Z"/><path d="M23.28,72.74a.53.53,0,0,0,.53.54.54.54,0,0,0,0-1.07A.53.53,0,0,0,23.28,72.74Z"/><path d="M26.28,70.78a.52.52,0,0,0-.53-.53.53.53,0,0,0-.53.53.53.53,0,0,0,.53.53A.53.53,0,0,0,26.28,70.78Z"/><path d="M25,72.74a.54.54,0,1,0,.53-.53A.54.54,0,0,0,25,72.74Z"/><path d="M21.86,79.09a.54.54,0,0,0-1.07,0,.54.54,0,0,0,1.07,0Z"/><path d="M20.59,84.12a.53.53,0,1,0,0-1.06.53.53,0,0,0,0,1.06Z"/><path d="M22.57,91.16a.53.53,0,1,0-.54-.53A.53.53,0,0,0,22.57,91.16Z"/><path d="M32.55,64.34a.85.85,0,1,0-.84.85A.85.85,0,0,0,32.55,64.34Zm-1.14,0a.3.3,0,0,1,.3-.3.31.31,0,0,1,.3.3.3.3,0,0,1-.3.3A.29.29,0,0,1,31.41,64.34Z"/><path d="M24.67,89.25h.16l.07-.15A8,8,0,0,1,27,86.72a7.66,7.66,0,0,0,3.34.87,8.87,8.87,0,0,0,3.32-.82l.63-.24a5.12,5.12,0,0,0,1.39,4.94.27.27,0,0,0,.2.09.29.29,0,0,0,.19-.08.27.27,0,0,0,0-.38A4.54,4.54,0,0,1,35,86.3,7.45,7.45,0,0,1,38.69,86c-.13,1.59.65,3.26,2.3,4.91a17.75,17.75,0,0,0,3.31,2.54l-6,5.88-1-1.06a3.58,3.58,0,0,0-5-.27l-.2.18,4.71,5.26,9.59-3.39,0-.21s-.29-4.58,3.3-6.56a14.27,14.27,0,0,1-14,12.57c-5,0-8.7-2.91-10.9-5.35-.74-.81-1.48-1.13-1.89-.8-.13.1-.5.53.23,1.57a17.73,17.73,0,0,0,14.47,7.54A17.2,17.2,0,0,0,55,91.88a16.88,16.88,0,0,0-8.2-14.4l1.61-3.43-.09-.13a16.44,16.44,0,0,0-10.54-6.49.28.28,0,0,0-.32.21.28.28,0,0,0,.21.33A16,16,0,0,1,47.77,74.1l-1.46,3.11a17.45,17.45,0,0,0-3.82-1.61c-1.93-2.88-4.65-5-7.74-5a10.87,10.87,0,0,0-10.58,13,.27.27,0,0,0,.27.23h0a.27.27,0,0,0,.21-.32,10.5,10.5,0,0,1-.19-2A10.29,10.29,0,0,1,34.75,71.14c2.25,0,4.9,1.45,7,4.26a17.53,17.53,0,0,0-4.12-.49,18.92,18.92,0,0,0-2.14.13.27.27,0,0,0,.06.54,17.87,17.87,0,0,1,2.08-.12,17.09,17.09,0,0,1,4.6.63,18,18,0,0,1,2.26,5.21l.19.74L46.55,78a16.33,16.33,0,0,1,7.9,13.9A16.65,16.65,0,0,1,37.6,108.3a17.14,17.14,0,0,1-14-7.31c-.38-.53-.36-.79-.34-.82s.51,0,1.14.74c2.28,2.52,6.09,5.53,11.31,5.53A14.82,14.82,0,0,0,50.24,93a6,6,0,0,1,.78-.28.28.28,0,0,0,.19-.34.28.28,0,0,0-.34-.19c-4.88,1.42-5.09,6.39-5.07,7.48L37,102.84l-4.1-4.57a3,3,0,0,1,4.06.41l1.33,1.48,7-6.8-.33-.17c-.07,0-7.46-4.08-5.24-8.54a.27.27,0,0,0-.12-.37.28.28,0,0,0-.37.13,4.56,4.56,0,0,0-.38,1.09,8.78,8.78,0,0,0-5.28.76c-1.76.69-3.29,1.29-6,.09a9.67,9.67,0,0,1,1.54-.84.27.27,0,1,0-.22-.5,9.16,9.16,0,0,0-4.37,3.7L17.42,89,16,83.92a3,3,0,0,1,2,.33,3,3,0,0,1,1.44,1.81l.08.28,4.51-1.55a.27.27,0,0,0,.17-.35.28.28,0,0,0-.35-.17l-4,1.37a3.57,3.57,0,0,0-4.33-2.18l-.26.07,1.7,6Zm20.12-8.8A19.08,19.08,0,0,0,43,76.32a16.53,16.53,0,0,1,3.13,1.38Z"/><path d="M18.28,75.62h.06a.27.27,0,0,0,.2-.33L17.28,70l3.5-5.12a3,3,0,0,1,.57,4l-1,1.41a.26.26,0,0,0,.07.38.27.27,0,0,0,.38-.07l1-1.41a3.59,3.59,0,0,0-.93-5l-.23-.15-3.95,5.78L18,75.4A.28.28,0,0,0,18.28,75.62Z"/><path d="M31.32,96.9,29,98.1l-2.13-2.29a.27.27,0,0,0-.38,0,.28.28,0,0,0,0,.39l2.41,2.6,2.71-1.4a.27.27,0,0,0,.12-.37A.27.27,0,0,0,31.32,96.9Z"/><path d="M26.33,68h.06a.27.27,0,0,0,.27-.21,6.81,6.81,0,0,1,1.46-2.74l.16-.18-.16-.18a.74.74,0,0,1-.2-.51.78.78,0,0,1,.78-.78.76.76,0,0,1,.56.24l.16.17.19-.14a6.53,6.53,0,0,1,3.81-1.33,3.89,3.89,0,0,1,2.36.82l.2.15.17-.19a.75.75,0,0,1,.58-.28.78.78,0,0,1,.78.78.76.76,0,0,1-.35.65l-.22.14.13.23A4.76,4.76,0,0,1,37.7,67a.27.27,0,0,0,.54,0,5.29,5.29,0,0,0-.58-2.38,1.35,1.35,0,0,0,.4-1,1.32,1.32,0,0,0-2.14-1,4.43,4.43,0,0,0-2.5-.79,6.94,6.94,0,0,0-4,1.31,1.31,1.31,0,0,0-.77-.25,1.34,1.34,0,0,0-1.33,1.33,1.32,1.32,0,0,0,.2.69,7.14,7.14,0,0,0-1.44,2.8A.27.27,0,0,0,26.33,68Z"/><path d="M30.4,67.65a1.34,1.34,0,0,0,.47,1.23.84.84,0,0,0,.43.11,3.44,3.44,0,0,0,1.43-.53,2.92,2.92,0,0,1,.85-.37,3,3,0,0,1,.81.31c.63.3,1.35.64,1.84.33a1.18,1.18,0,0,0,.43-1.08c0-1-1.37-1.85-3.13-1.85S30.4,66.61,30.4,67.65Zm3.43-1.24a.37.37,0,0,1-.3.1.5.5,0,0,1-.29-.08.5.5,0,0,1,.29-.08A1.11,1.11,0,0,1,33.83,66.41Zm-1.15,0h0c0,.35.37.63.85.63s.85-.28.85-.63h0c1,.19,1.73.67,1.73,1.23,0,.32-.06.54-.17.61s-.86-.14-1.31-.35a2.82,2.82,0,0,0-1.05-.37,2.75,2.75,0,0,0-1.11.43c-.45.25-1.07.58-1.31.44s-.21-.35-.21-.76C31,67.09,31.69,66.61,32.68,66.42Z"/><path d="M35.39,64.34a.85.85,0,1,0-.85.85A.85.85,0,0,0,35.39,64.34Zm-1.15,0a.31.31,0,0,1,.3-.3.3.3,0,0,1,.3.3.29.29,0,0,1-.3.3A.3.3,0,0,1,34.24,64.34Z"/><path d="M35.79,76.71l1.48.73a.27.27,0,0,0,.12,0,.29.29,0,0,0,.25-.15.28.28,0,0,0-.13-.37L36,76.22a.28.28,0,0,0-.37.13A.27.27,0,0,0,35.79,76.71Z"/><path d="M35.4,77.59a.27.27,0,0,0,.13.37l1.48.73.12,0a.25.25,0,0,0,.24-.15.27.27,0,0,0-.12-.37l-1.48-.72A.27.27,0,0,0,35.4,77.59Z"/><path d="M39.7,77l-1.48-.73a.28.28,0,0,0-.37.13.27.27,0,0,0,.13.36l1.48.73a.27.27,0,0,0,.12,0,.29.29,0,0,0,.25-.15A.28.28,0,0,0,39.7,77Z"/><path d="M38.91,78a.26.26,0,0,0,.12.36l1.48.73a.27.27,0,0,0,.12,0,.28.28,0,0,0,.25-.15.27.27,0,0,0-.13-.37l-1.48-.73A.26.26,0,0,0,38.91,78Z"/><path d="M42.24,77.83l-1.49-.73a.26.26,0,0,0-.36.13.27.27,0,0,0,.12.36l1.49.73a.24.24,0,0,0,.12,0,.27.27,0,0,0,.24-.15A.28.28,0,0,0,42.24,77.83Z"/><path d="M41.45,80.09a.28.28,0,0,0,.13.37l1.48.73a.27.27,0,0,0,.12,0,.28.28,0,0,0,.25-.16.27.27,0,0,0-.13-.36L41.82,80A.28.28,0,0,0,41.45,80.09Z"/><path d="M48,80.93a.28.28,0,0,0,.13,0,.27.27,0,0,0,.24-.16.27.27,0,0,0-.12-.36l-1.49-.73a.26.26,0,0,0-.36.13.27.27,0,0,0,.12.36Z"/><path d="M45.92,81.86a.27.27,0,0,0,.13.37l1.48.72a.27.27,0,0,0,.12,0,.25.25,0,0,0,.24-.15.27.27,0,0,0-.12-.37l-1.48-.73A.28.28,0,0,0,45.92,81.86Z"/><path d="M51.06,82.83l-1.48-.73a.27.27,0,1,0-.24.49l1.48.73a.27.27,0,0,0,.12,0,.28.28,0,0,0,.25-.16A.26.26,0,0,0,51.06,82.83Z"/><path d="M48.47,84.05a.27.27,0,0,0,.13.36l1.48.73a.27.27,0,0,0,.12,0,.28.28,0,0,0,.25-.16.26.26,0,0,0-.13-.36l-1.48-.73A.28.28,0,0,0,48.47,84.05Z"/><path d="M52.55,85.75,51.06,85a.26.26,0,0,0-.36.12.28.28,0,0,0,.12.37l1.48.73.13,0a.26.26,0,0,0,.24-.15A.28.28,0,0,0,52.55,85.75Z"/><path d="M51.72,87.65a.28.28,0,0,0-.13-.37l-1.48-.73a.27.27,0,0,0-.37.13.27.27,0,0,0,.13.36l1.48.73a.27.27,0,0,0,.12,0A.29.29,0,0,0,51.72,87.65Z"/><path d="M44.36,83a.26.26,0,0,0-.36.13.26.26,0,0,0,.12.36l1.48.73a.27.27,0,0,0,.12,0,.29.29,0,0,0,.25-.15.27.27,0,0,0-.13-.37Z"/><path d="M51.77,89.34l1.49.73a.23.23,0,0,0,.12,0,.26.26,0,0,0,.24-.15.28.28,0,0,0-.12-.37L52,88.85a.27.27,0,0,0-.36.12A.28.28,0,0,0,51.77,89.34Z"/><path d="M32.32,75.86A.28.28,0,0,0,32,76a.28.28,0,0,0,.13.37l1.48.73a.27.27,0,0,0,.12,0,.28.28,0,0,0,.25-.16.26.26,0,0,0-.13-.36Z"/><path d="M31,74a.28.28,0,0,0,.12.37l1.49.72a.27.27,0,0,0,.12,0,.25.25,0,0,0,.24-.15.28.28,0,0,0-.12-.37l-1.48-.73A.28.28,0,0,0,31,74Z"/><path d="M30.76,76.86a.28.28,0,0,0,.13.37l1.48.73a.27.27,0,0,0,.12,0,.28.28,0,0,0,.25-.16.26.26,0,0,0-.13-.36l-1.48-.73A.28.28,0,0,0,30.76,76.86Z"/><path d="M30.08,85.29a.28.28,0,0,0,.13.37l1.48.72a.27.27,0,0,0,.12,0,.27.27,0,0,0,.12-.52l-1.48-.73A.28.28,0,0,0,30.08,85.29Z"/><path d="M32.62,84.16l-1.48-.73a.28.28,0,0,0-.37.13.28.28,0,0,0,.13.37l1.48.72a.27.27,0,0,0,.12,0,.29.29,0,0,0,.25-.15A.28.28,0,0,0,32.62,84.16Z"/></svg>