<svg id="Layer_1" data-name="Layer 1" xmlns="http://www.w3.org/2000/svg" viewBox="0 0 294.8 170.08"><defs><style>.cls-1{fill-rule:evenodd;}</style></defs><title>oddil</title><path class="cls-1" d="M263.36,57.78a3.49,3.49,0,0,0-.68-1.06,3.08,3.08,0,0,0-1.06-.68,2.38,2.38,0,0,0-1.11-.26h-.17a3.75,3.75,0,0,0-1.24.21,3.13,3.13,0,0,0-1.07.73,3.82,3.82,0,0,0-.72,1.06,3.48,3.48,0,0,0-.26,1.28,3.06,3.06,0,0,0,.26,1.24,3.54,3.54,0,0,0,.72,1.07,3.25,3.25,0,0,0,1.07.72,3.1,3.1,0,0,0,1.24.26s.12-.05.17-.05a2.9,2.9,0,0,0,1.06-.21,3.93,3.93,0,0,0,1.11-.72,4.28,4.28,0,0,0,.68-1.07,2.9,2.9,0,0,0,.26-1.24,3,3,0,0,0-.26-1.28ZM263,60.17a3.15,3.15,0,0,1-.59.94,3.74,3.74,0,0,1-1,.64,3.08,3.08,0,0,1-.93.21h-.17a3.13,3.13,0,0,1-1.11-.21,3.63,3.63,0,0,1-.94-.64,2.67,2.67,0,0,1-.64-.94,2.55,2.55,0,0,1-.21-1.11,2.5,2.5,0,0,1,.21-1.11,3,3,0,0,1,.64-1,4.83,4.83,0,0,1,.94-.63,3.14,3.14,0,0,1,1.11-.22h.17a3.12,3.12,0,0,1,.93.26,3,3,0,0,1,1,.59,3.15,3.15,0,0,1,.59.94,2.8,2.8,0,0,1,.22,1.15,2.45,2.45,0,0,1-.22,1.11Zm-1-2a.84.84,0,0,1-.26.64,1.14,1.14,0,0,1-.64.34L262,60.9h-.68l-.77-1.67h-.9V60.9h-.55V57.1h1.45a2,2,0,0,1,1.11.26.89.89,0,0,1,.38.81Zm-.85.51a1.2,1.2,0,0,1-.64.17h-.9V57.48h.9a1.71,1.71,0,0,1,.64.18.61.61,0,0,1,.25.55.5.5,0,0,1-.25.47ZM237.7,77.1V69.17h25.41V96H237.7V83.32s-10.66.26-14.37.26c-23.15,0-39.9-2-39.9-13.73S197,55.52,220.69,55.52c16.07,0,27.75.86,27.75.86l-1,2.08s-.38,2.22-3.5,2.39c0,0-8.48-.25-18-.25-7.42,0-22.3.3-22.42,8.82-.09,6.57,11.34,7.68,22.8,7.68ZM73.13,83.45c21.23-.22,36.58-1.88,36.58-13.3s-13.56-14-36.58-14.41c-3-.05-6.18-.09-9.51-.09H31.18v40.5H56.59V83.49h5.29c3.88,0,7.63,0,11.25,0ZM56.59,77.52V60.85h4.9c4.14,0,8.1,0,11.64.26,9.72.55,16.5,2.39,16.5,8.1s-6,7.5-16.5,8.06c-3.37.21-7.2.25-11.42.25Zm91.06,6.19L108.56,83l1.75-2.9s1.19-3,4.22-2.6h23.62c8.57,0,14,.3,14-2.21,0-1.71-2.39-1.88-6.27-2.26-14.06-1.32-32.82.08-32.65-9.47.17-7.5,13-8.4,32.1-8.06l33.68.94-1.24,2.09s-.81,2.35-4.22,2.3H151.19c-4.22,0-10.7-.17-10.7,2.39,0,1.45,3.24,1.79,8.19,2.22,13.68,1.19,31.93,1.62,31.89,10.49,0,7.54-14.07,8.09-32.92,7.76Zm42.68,5.37h-130V96L88.1,114.57h44.63l14.71.05h58.75L233.9,96v-6.9H190.33ZM89.2,108a3.51,3.51,0,0,1-2.6-.69L67.93,94.45h42.51L103.57,99l-12.49,8.31a4.65,4.65,0,0,1-1.88.69Zm43.53,1h-36l6.86-4.56,12.54-8.36a4.34,4.34,0,0,1,1.87-.68,3.71,3.71,0,0,1,2.6.68l12.15,8.44,6.48,4.48Zm14.71-1a3.41,3.41,0,0,1-2.56-.69l-12.15-8.39-6.48-4.48h42.47l-7.21,4.77-12.19,8.1a4.35,4.35,0,0,1-1.88.69Zm42.89,1h6.57l-6.57-4.52-12.11-8.4a3.71,3.71,0,0,0-2.6-.68,4.34,4.34,0,0,0-1.87.68l-12.24,8.14L154.35,109h36Zm36-14.58H183.77L190.33,99l12.11,8.35a3.5,3.5,0,0,0,2.6.69,4.65,4.65,0,0,0,1.88-.69Z"/></svg>