<svg id="Layer_1" data-name="Layer 1" xmlns="http://www.w3.org/2000/svg" viewBox="0 0 294.8 170.08"><defs><style>.cls-1{fill-rule:evenodd;}</style></defs><title>oddil</title><path class="cls-1" d="M198.54,103.36c-2.71-.36-4.78.56-8.16,0-.24-4.63-5.31-3.57-8.47-3.53-2.15,0-4.51-.5-6.22.24a4.5,4.5,0,0,0-2.71,3.26l-1.47,0h0a52.92,52.92,0,0,0,5.69-17.57,59.54,59.54,0,0,0,.49-9.38c3.61-2.16,6.28-4.92,3.47-7.39a14,14,0,0,0-4.51-2.44c-2.39-12.75-9-25-21-29.58-8.2-3.16-16.92-1.26-23.65,4.2-15.14,12.33-18.77,38-11.27,56.92h.54l-3.74,0a6.28,6.28,0,0,0-5,2.17,4.55,4.55,0,0,0-3.79-2L97,98.32A4.88,4.88,0,0,0,92.34,102l-1,3.67a4.23,4.23,0,0,0,1.23,4.68l-5,17.92c-1,3.41,1.55,6.09,4.85,6.09l3.6,0c2.84,0,5.3-.31,7.65-2.12,3.44,3.45,8.4,2.6,12.14,1a8.76,8.76,0,0,0,4.84.79,16.18,16.18,0,0,0,5.87-1.29c1.15,1.1,4,1.17,5.69,1.11a12.74,12.74,0,0,0,6.64-1.65c3.59,3.31,8.56,1.74,12-.14,4.67,3.31,13.63,2.26,17.8-.44,3.67,3.67,9.77,2.18,13.51.36,3.92,3,9.44,1.7,13.15.63,1-4.39,2.4-11.26,4-13.37,2.83.37,5.34-.91,6-3.54l1.86-7.19C208.65,103.07,202.35,102.13,198.54,103.36ZM175.8,87.51a50.89,50.89,0,0,1-5.57,15.81h0a9.94,9.94,0,0,0-2.92.43,11.75,11.75,0,0,0-3-.57h0c4.15-6.15,6.82-14.55,7.11-23.85A43,43,0,0,0,176.6,77,58.61,58.61,0,0,1,175.8,87.51ZM126.89,74.92c-2.14-.71-5.28-2-6.65-3.46a3.79,3.79,0,0,1-.81-1.25c-.19-.58-.16-1,.4-.14a5.08,5.08,0,0,0,1,1.08,1.89,1.89,0,0,0,.27.2h0l.11.07.19.14.13.08c.54.35.82.08,1.69-.35a14.11,14.11,0,0,1,4.83-1c2.08-.08,3.23.58,1.76.77-7.69,1-2.28,3.11-1.17,3.64a103.58,103.58,0,0,0,17.22,3.51c4,.53,8.93.77,11.61,1,6.49.46,1.11.36-1.5.26-3-.11-6.35-.34-10.16-.75A95.77,95.77,0,0,1,126.89,74.92Zm9.56,22.79a31.48,31.48,0,0,1-3.36-12.06c-.11-2.92.36-2.29.59.08a40.9,40.9,0,0,0,3.25,11.91C137.8,99.64,137.83,100.47,136.45,97.71Zm5.91-32.4c-2.78-1.16-3.79-2,.15-1.23a55,55,0,0,0,5.86.8,28.2,28.2,0,0,0,6.81,0,42,42,0,0,0,6.15-1.21c2-.53,2.2-.43.48.87a2.6,2.6,0,0,0-.56,3.57,3.28,3.28,0,0,0,3,1c3.18-.42,2.42.16-1,1.16a33.71,33.71,0,0,1-4.66,1,38,38,0,0,1-10.11.32,37.11,37.11,0,0,1-7.68-1.18c-4.75-1.46-2.79-1.23.13-1.28C145.47,68.93,147.06,67.26,142.36,65.31Zm20.73-5.6c-1.78.22-4.7-.22-5.62-2s-.24-3.35.43-5c.36-.86,1-1.61,1.06-.22a5.64,5.64,0,0,0,3.48,5.63C163.91,58.82,164.85,59.47,163.09,59.71Zm-3-13.2c-1.4,1.43-3.18,2.47-4.17,4.18a6.32,6.32,0,0,0-.78,3.35c.05,5.6-1.22,5.62-2.31.05-.78-3.93-4.13-5.36-7.2-7-1.61-.78-1.08-1.31,1.69-.2,8,3.21,5.89,3.69,12.63-1.44C162,44,161.4,45.21,160.12,46.51ZM147,54.36c5.72.58.84,1.88-1.38,2.69-6.39,2.32-10.49,2.85-11-2.38-.13-1.54-.75-5.31,1.23-5.26,2.43.07,3.52,3.11,5.55,4C143.09,54.23,145.09,54.18,147,54.36ZM153.07,100a10.38,10.38,0,0,1-3.3-.41,5.73,5.73,0,0,0-4,.38c-.8.46-.9,0,.28-1.2A12.47,12.47,0,0,1,149.58,96c1.54-.8,1.15.62,1.37,1.09a4.79,4.79,0,0,0,2.39,2.22C154.11,99.72,153.63,100,153.07,100Zm1.41.77c.89-.14,1.22.1.38.89a4.36,4.36,0,0,1-3.93.61c-.65-.25-1.19-.54-1.16-1s.51-.6,1-.46A7.23,7.23,0,0,0,154.48,100.78Zm-7.25.12c.87,0,1.07-.07,1.46.87.18.41.35.87.52,1.16.39.68.07,1.21,2.93,1.09,2.58-.12,2.38-.94,3.49-2.3a5.5,5.5,0,0,1,1.57-1.44c1.08-.63,2,.31,1.13,1.32-1.83,2.15-2.91,4.75-4.79,6-1.4.91-4.5,1.28-6,.28a7.6,7.6,0,0,1-3.65-4.73C143.2,100.85,145.77,100.85,147.23,100.9Zm9.82-1.52c-1.39.6-2,.15-.79-1.32.36-.46,3.89-3.39,3.28-4-1.15-1.09-1.26,2.44-2.87,1.39-1.37-.91-2.49-.88-4.17-.86-.77,0-.7-1,0-1.23a9.25,9.25,0,0,0,2.42-1.14c1.35-.89,2.17-1.62,2.24-3.16.19-5.14.9-4.92,1.91,1.09a7.9,7.9,0,0,0,.8,2.56c.72,1.27.79-.15,1-1.12.15-.62.39-.74.94-1a5.07,5.07,0,0,0,1.36-.8c.48-.47,2.05-3.06,1.75-.93a19,19,0,0,1-1.61,5.16c-.89,1.47-2-1-2.29-.53-.58.87-.44,3.33-.87,5.14-.37,1.59-.29,1.13-1.23.57C158.39,98.9,157.85,99.05,157.05,99.38Zm22.18-29.24c1.64.67.65.62-.74.38a28.91,28.91,0,0,0-8.59-.24c-2.33.31-2-.38-1.07-.79,1.43-.59.37-1.84,2.7-1.46A35.12,35.12,0,0,1,179.23,70.14ZM130.34,44.22c7.49-7.58,18.24-10.13,27.82-4.87s15.15,15.74,17.33,26.82a25.31,25.31,0,0,0-5-.89,3.25,3.25,0,0,1-.48-.07,48,48,0,0,0-1.56-5c-.09-.36-.19-.72-.28-1.08-1-3.64-2.75-19.81-9.38-16-.72.41-1.43.9-2.2,1.35a17.22,17.22,0,0,0-9.14-2.71,16.72,16.72,0,0,0-7.05,1.58c-2.52-.15-4.93.19-6.54,1.49s-3,3.51-3.43,7.54A41.84,41.84,0,0,0,124.68,66a14.13,14.13,0,0,0-3.24.87,10.15,10.15,0,0,0-2.59,1.45C120.36,59.1,124.18,50.45,130.34,44.22ZM118.45,71.29a10,10,0,0,0,2.85,2.22c.77.47,1.48.86,2.17,1.2,0,1-.08,2-.08,3,0,10.3,2.92,19.62,7.6,26.19-1.56,0-3.2.15-4.56.14,1.36-2.78-1.39-5.86-4.32-5.89H122A55.94,55.94,0,0,1,118.45,71.29Zm87.78,36.93-1.64,6.58c-.6,2.36-2.31,3.81-5.62,3.36-1.64-.18-4.08,11.77-4.58,13.51-3.46,1-9,2.17-12.12-1-3.93,2.06-10.38,3.7-13.49-.53a13.12,13.12,0,0,1-6.13,2.49c-3.57.55-8.87.68-11.73-1.88-3.64,2.09-8.85,3.86-12,0-2.75,2.19-10.1,2.89-12.23.65-2.77,1.45-8.54,2.29-10.83.54-3.72,1.76-9.58,2.86-12.12-1.34a9.46,9.46,0,0,1-6.64,2.68l-4,0c-3.19,0-5.19-2.12-4.46-4.68l5.19-18.39a.69.69,0,0,1,0-.17,3.34,3.34,0,0,1-1.46-3.69c.7-3,1-6.85,4.69-6.88l11.73-.12c1.83,0,2.91,1.12,3.54,2.82,2.42-2.53,3.41-3,5.6-3l4.13.06c2.58,0,4.68,3.56,2.53,5.78,2,.28,8.2-.58,9.48.53a12.76,12.76,0,0,1,6.76-.88c.85.66,1.77,1.25,2.75,1.91.82.53,1.6,1.07,2.4,1.55h0a15.44,15.44,0,0,0-3.61,2.14c-.31-2-1.35-2.84-3.76-2.8s-4.51.83-7.31,2.81l.34-1.17.24-.88c.1-.35-.17-.42-.51-.39s-.68.07-.92.1c-1.06.11-2,.16-3.08.18a23.36,23.36,0,0,1-3.62-.23.58.58,0,0,0-.63.41L119,123a4.3,4.3,0,0,1-1.88.72c-.87,0-1-.56-.47-2.37l.76-2.74a12.12,12.12,0,0,0,.55-2.08c.29-1.43.15-2.29-.44-2.88-.84-.89-2-1.13-5.23-1.1l9.38-10a.28.28,0,0,0-.21-.46l-5.09,0a.58.58,0,0,0-.39.15l-9.92,10.28c.92-3.22,1.84-6.42,2.73-9.66a.55.55,0,0,0-.53-.7l-6.33.07H99l-2.12,0a.61.61,0,0,0-.53.43l-1.09,3.86a.27.27,0,0,0,.27.34l2.16,0-.93,3.28-5.27,18.63a.55.55,0,0,0,.54.7l4.94,0c3.19,0,4.81-1.69,5.75-5l2.26-8,.87-.06c2.47,0,2.59.31,1.37,4.65l-.69,2.29c-.77,2.73-.9,3.62-.6,4.52.41,1.18,1.66,1.92,3.42,1.9,2.6,0,6-1.5,8.83-3.88l-.7,2.51c-.12.43.25.72.65.69l3.53-.29c3.28-.28,4.82-1.32,5.72-4.55l2.91-10.24a3.8,3.8,0,0,1,1.93-1c.61,0,.66.56.1,2.53l-3.59,12.72a.57.57,0,0,0,.65.68l3.55-.29c2.7-.22,4.44-.51,5.59-4.56l2.9-10.23c.89-.7,1.37-1,1.9-1,.76,0,.78.36.17,2.56L141.4,123c-.7,2.46-.83,3.4-.7,4.32a2.65,2.65,0,0,0,2.8,2.07c2.19,0,4.46-1.06,8.64-3.88a3,3,0,0,0,.48,2.29c.79,1,3,1.48,6.25,1.45,3.67,0,6.54-1,8-2.56.87-.91,1.24-1.81,2.08-4.75l1.47-5.19a7.87,7.87,0,0,1-3.16,0l-1.44,5.12a7.34,7.34,0,0,1-.93,2.43,2.55,2.55,0,0,1-2.05,1c-1.59,0-1.9-.76-1.28-3l2.3-8.18c.58-2,1.06-2.73,1.88-2.75a2.21,2.21,0,0,1,1.18.45l-.45,1.59c-.32,1.11-.36,1.77-.07,2.18a1.59,1.59,0,0,0,.65.45,3.79,3.79,0,0,0,.79.15,8.66,8.66,0,0,0,2.07-.07,10.67,10.67,0,0,0,1.52-.34,10.34,10.34,0,0,0,2.47-1.28l-2.53,8.93c-.75,2.66-.82,3.19-.56,3.93.34,1.06,1.69,1.74,3.45,1.72,2.85,0,5.93-1.28,9.31-3.77a3.21,3.21,0,0,0,.12,1.86c.46,1.21,1.91,1.86,4.11,1.84a16.27,16.27,0,0,0,3.54-.47c.94-3.3,1.84-6.6,2.8-9.89a7.49,7.49,0,0,1,1.23-2.77,3.55,3.55,0,0,1,2.88-1.4,5.83,5.83,0,0,1,1.64.22.56.56,0,0,0,.69-.41l2-7.07a.26.26,0,0,0-.23-.34h-.23c-2.71-.13-4.44.89-5.43,2.8l.58-2.06a.27.27,0,0,0-.32-.36,17.46,17.46,0,0,1-3.71.39,22.83,22.83,0,0,1-4.16-.32.53.53,0,0,0-.62.39l-4.18,14.81a10.49,10.49,0,0,1-3.13,1.07c-.78,0-.89-.61-.39-2.36l2.65-9.35,2.1,0a.54.54,0,0,0,.53-.41l1.09-3.84a.27.27,0,0,0-.27-.34l-2.16,0,.93-3.3a.28.28,0,0,0-.29-.36,23.55,23.55,0,0,1-3.93.34,22.79,22.79,0,0,1-3.93-.25.58.58,0,0,0-.63.39l-2.12,7.53a4.09,4.09,0,0,1-1.88.79c-.48,0-.54-.48-.25-1.54l.88-3.11a.28.28,0,0,0-.29-.36c-1,.1-1.55.14-2.42.16a21.08,21.08,0,0,1-2.13-.11.58.58,0,0,0-.59.4l-.23.82a8.13,8.13,0,0,0-4.87-1.46,8.61,8.61,0,0,0-5.14,1.58c-1.15.9-1.73,1.93-2.43,4.42l-2.66,9.43a4.37,4.37,0,0,1-2,.85c-.59,0-.61-.53-.12-2.29l2.22-7.87c.63-2.23.78-3.37.54-4.2h0a7.51,7.51,0,0,0,2.91-2.58h0a12.2,12.2,0,0,1,11-1.62c.71-.4,5.26-.57,6.52-.43,1.26-4.47,4.52-3.38,8-3.48,3.86-.14,8.09-.88,7.5,3.36,4.47.75,6.43-.38,9.3.14C201.79,103.39,207.37,103.68,206.23,108.22Z"/></svg>