<svg id="Layer_1" data-name="Layer 1" xmlns="http://www.w3.org/2000/svg" viewBox="0 0 294.8 170.08"><defs><style>.cls-1{fill-rule:evenodd;}</style></defs><title>oddil</title><path d="M253.58,104.59c.72,0,1.35-.07,1.35-.92s-.69-.78-1.26-.78h-1.15v1.7Zm-1.06,3.28h-1v-5.79h2.21c1.39,0,2.1.49,2.1,1.66a1.49,1.49,0,0,1-1.5,1.59l1.62,2.54h-1.08l-1.49-2.47h-.9v2.47Zm1-7.31a4.33,4.33,0,1,0,4,4.32,4.05,4.05,0,0,0-4-4.32Zm0,9.55a5.23,5.23,0,1,1,5.12-5.23,5,5,0,0,1-5.12,5.23Z"/><path class="cls-1" d="M65.75,84.21c5.42-10.77,27.31-11.48,39.53-3.75l9.45-19.53c-43.08-7.5-81.14,7.29-83.51,26.41C30,105.89,54.57,114.64,91,110.12L100.7,90c-14.44,7.37-39,6.46-34.95-5.83"/><path class="cls-1" d="M176,77.26l7.1-15c-20.26-7.18-63.6-3.67-70.37,14.44-6.31,18.59,37.69,10.92,31.45,18.44-5.29,4.55-25.22.54-31.87-3.86l-7.67,15.93c33.72,9.63,75.55,1.63,73.86-18.31-2.66-13.49-35.6-8.61-33-14.23,2.57-3,20.75-3.53,30.53,2.58"/><polygon class="cls-1" points="192.24 58.86 184.1 75.71 204.7 75.71 187.56 111.29 219.41 111.29 236.67 75.71 255.43 75.71 263.62 58.86 192.24 58.86"/></svg>