<?xml version="1.0" encoding="utf-8"?>
<!-- Generator: Adobe Illustrator 16.0.0, SVG Export Plug-In . SVG Version: 6.00 Build 0)  -->
<!DOCTYPE svg PUBLIC "-//W3C//DTD SVG 1.1//EN" "http://www.w3.org/Graphics/SVG/1.1/DTD/svg11.dtd">
<svg version="1.1" id="Layer_1" xmlns="http://www.w3.org/2000/svg" xmlns:xlink="http://www.w3.org/1999/xlink" x="0px" y="0px"
	 width="42.52px" height="42.52px" viewBox="0 0 42.52 42.52" enable-background="new 0 0 42.52 42.52" xml:space="preserve">
<path d="M32.25,19.718c-0.459,0-0.902,0.062-1.334,0.154l-0.186-0.558c0.49-0.115,0.994-0.191,1.52-0.191
	c0.578,0,1.148,0.074,1.703,0.22c0.352,0.077,0.689-0.117,0.781-0.459c0.088-0.343-0.119-0.688-0.459-0.78
	c-0.658-0.168-1.34-0.257-2.025-0.257c-0.666,0-1.305,0.105-1.926,0.26l-1.057-3.154l1.729-1.438
	c0.039-0.03,0.035-0.083,0.062-0.118c0.053-0.065,0.084-0.127,0.107-0.207c0.023-0.081,0.027-0.149,0.021-0.232
	c-0.006-0.047,0.023-0.09,0.008-0.135l-0.777-2.372c-0.33-1.076-1.303-1.817-2.424-1.854c-0.006,0-0.006,0.006-0.012,0.003
	c-0.004,0-0.004-0.003-0.01-0.003h-1.752c-0.355,0-0.639,0.288-0.639,0.64c0,0.353,0.283,0.638,0.639,0.638h1.734
	c0.574,0.019,1.072,0.4,1.246,0.963l0.643,1.972l-1.732,1.441c-0.033,0.031-0.033,0.084-0.061,0.121
	c-0.053,0.064-0.086,0.124-0.109,0.207s-0.023,0.149-0.014,0.235c0.006,0.044-0.025,0.087-0.01,0.131l0.389,1.155l-10.211,1.733
	l-0.65-2.469h2.084c0.352,0,0.637-0.287,0.637-0.64c0-0.352-0.285-0.637-0.637-0.637h-3.754c-0.352,0-0.639,0.285-0.639,0.637
	c0,0.353,0.287,0.64,0.639,0.64h0.35l0.787,3.004l-1.455,1.435c-1.453-1.235-3.26-1.94-5.189-1.94c-2.146,0-4.168,0.835-5.689,2.354
	c-0.248,0.251-0.248,0.656,0,0.904c0.125,0.125,0.289,0.188,0.449,0.188c0.164,0,0.328-0.062,0.455-0.188
	c1.277-1.277,2.979-1.98,4.785-1.98c1.586,0,3.068,0.565,4.275,1.559l-0.426,0.419c-1.055-0.861-2.383-1.397-3.85-1.397
	c-3.383,0-6.135,2.754-6.135,6.134c0,2.443,1.459,4.621,3.666,5.597c0,0.003-0.002,0.003-0.002,0.005
	c0,1.363,1.109,2.473,2.475,2.473c1.363,0,2.471-1.109,2.471-2.473c0-0.002,0-0.002,0-0.005c2.025-0.896,3.408-2.812,3.619-5.012
	h3.168c0.16,0,0.318-0.06,0.443-0.183l8.842-8.637l0.295,0.874c-2.857,1.226-4.867,4.062-4.867,7.36c0,0.352,0.287,0.64,0.639,0.64
	s0.639-0.288,0.639-0.64c0-2.737,1.65-5.086,4-6.135l0.189,0.567c-2.111,0.969-3.594,3.094-3.594,5.567
	c0,3.384,2.75,6.139,6.135,6.139s6.137-2.755,6.137-6.139C38.387,22.472,35.635,19.718,32.25,19.718z M8.195,30.187
	c-1.666-0.801-2.785-2.451-2.785-4.335c0-2.676,2.182-4.856,4.857-4.856c1.113,0,2.123,0.388,2.941,1.016l-1.715,1.686
	c-0.365-0.214-0.768-0.372-1.223-0.372c-1.365,0-2.475,1.11-2.475,2.474c0,1.135,0.789,2.055,1.836,2.343v0.967
	C9.02,29.274,8.523,29.656,8.195,30.187z M9.678,26.04c0.1,0.238,0.336,0.396,0.594,0.396h0.982
	c-0.215,0.325-0.566,0.555-0.982,0.555c-0.658,0-1.197-0.536-1.197-1.193c0-0.659,0.539-1.196,1.197-1.196
	c0.092,0,0.168,0.033,0.254,0.053l-0.703,0.688C9.639,25.522,9.58,25.799,9.678,26.04z M10.271,32.649
	c-0.658,0-1.197-0.536-1.197-1.196s0.539-1.196,1.197-1.196s1.193,0.536,1.193,1.196S10.93,32.649,10.271,32.649z M12.344,30.187
	c-0.326-0.53-0.824-0.912-1.434-1.079v-0.967c0.836-0.229,1.473-0.867,1.701-1.704h2.426C14.836,28.073,13.834,29.471,12.344,30.187
	z M12.611,25.157c-0.055-0.195-0.121-0.378-0.221-0.553l1.721-1.692c0.494,0.646,0.826,1.408,0.949,2.245H12.611z M16.338,25.157
	c-0.139-1.185-0.604-2.257-1.314-3.14l2.264-2.231l0.25,0.944c0,0,0,0,0,0.001l1.162,4.426H16.338z M19.869,24.574l-1.447-5.505
	l8.566-1.453L19.869,24.574z M32.25,30.711c-2.678,0-4.857-2.18-4.857-4.859c0-1.91,1.119-3.552,2.729-4.345l1.111,3.314
	c-0.248,0.273-0.41,0.632-0.41,1.03c0,0.86,0.699,1.558,1.557,1.558s1.553-0.697,1.553-1.558c0-0.848-0.682-1.535-1.527-1.55
	l-1.078-3.212c0.299-0.059,0.609-0.095,0.924-0.095c2.68,0,4.859,2.181,4.859,4.856C37.109,28.531,34.93,30.711,32.25,30.711z"/>
</svg>
