<?xml version="1.0" encoding="utf-8"?>
<!-- Generator: Adobe Illustrator 16.0.0, SVG Export Plug-In . SVG Version: 6.00 Build 0)  -->
<!DOCTYPE svg PUBLIC "-//W3C//DTD SVG 1.1//EN" "http://www.w3.org/Graphics/SVG/1.1/DTD/svg11.dtd">
<svg version="1.1" id="Layer_1" xmlns="http://www.w3.org/2000/svg" xmlns:xlink="http://www.w3.org/1999/xlink" x="0px" y="0px"
	 width="42.52px" height="42.52px" viewBox="0 0 42.52 42.52" enable-background="new 0 0 42.52 42.52" xml:space="preserve">
<g>
	<circle cx="11.4" cy="27.216" r="1.634"/>
	<path d="M30.104,21.591c-0.503,0-0.977,0.101-1.429,0.25l-0.261-0.52c0.537-0.184,1.102-0.298,1.689-0.298
		c0.609,0,1.203,0.104,1.765,0.309c0.356,0.123,0.745-0.057,0.873-0.409c0.128-0.352-0.054-0.743-0.407-0.873
		c-0.711-0.259-1.461-0.389-2.23-0.389c-0.806,0-1.577,0.162-2.302,0.437l-0.947-1.884v-2.087c0-0.048,0.013-0.53,0.216-1.094h1.069
		c1.458,0,2.645-1.188,2.645-2.646c0-0.374-0.305-0.681-0.681-0.681c-2.024,0-3.204,0.905-3.869,1.964h-3.829
		c-0.379,0-0.683,0.307-0.683,0.682s0.304,0.682,0.683,0.682h3.241c-0.096,0.394-0.154,0.771-0.154,1.089c0,0,0,0,0,0.002v1.569
		h-1.464c-1.587,0.064-4.583,1.1-4.583,4.578c0,0.114-0.003,1.057-0.011,1.283h-2.411v-0.57h1.331c0.375,0,0.681-0.305,0.681-0.681
		s-0.306-0.681-0.681-0.681h-4.041c-0.421,0-0.724-0.105-0.934-0.315c-0.354-0.358-0.352-0.946-0.352-0.952
		c0.009-0.375-0.285-0.688-0.659-0.698c-0.456-0.03-0.689,0.289-0.702,0.661c-0.004,0.117-0.015,1.165,0.73,1.932
		c0.471,0.487,1.118,0.734,1.916,0.734h1.347v1.251c0,0.376,0.304,0.681,0.682,0.681h2.242c-0.105,0.203-0.181,0.423-0.181,0.667
		c0,0.027,0.014,0.05,0.016,0.077c-0.882,0.766-2.024,0.871-2.077,0.875h-1.485c-0.327-1.645-1.716-2.914-3.459-2.914
		c-1.98,0-3.596,1.612-3.596,3.596c0,1.981,1.615,3.598,3.596,3.598c1.743,0,3.132-1.27,3.459-2.917h1.517
		c0.752-0.037,1.868-0.331,2.793-1.054c0.212,0.119,0.443,0.205,0.704,0.205c0.04,0,0.073-0.02,0.113-0.022l0.907,1.486h2.06
		c0.362,0,0.655-0.294,0.655-0.656c0-0.361-0.293-0.655-0.655-0.655h-1.323l-0.529-0.865c0.138-0.223,0.238-0.472,0.238-0.753
		c0-0.313-0.121-0.589-0.289-0.828c0.763-0.153,1.684-0.472,2.438-1.193c0.681-0.659,1.091-1.511,1.21-2.541h1.438
		c-0.992,0.761-1.78,1.794-2.209,3.029c-0.125,0.354,0.062,0.742,0.418,0.866c0.075,0.025,0.148,0.038,0.224,0.038
		c0.282,0,0.549-0.176,0.645-0.457c0.375-1.073,1.088-1.951,1.985-2.563l0.255,0.509c-1.182,0.836-1.958,2.206-1.958,3.76
		c0,2.545,2.067,4.612,4.611,4.612c2.545,0,4.612-2.067,4.612-4.612C34.717,23.658,32.649,21.591,30.104,21.591z M29.12,13.186
		c-0.236,0.288-0.578,0.484-0.979,0.484h-0.063C28.356,13.463,28.691,13.29,29.12,13.186z M11.398,29.451
		c-1.229,0-2.232-1.003-2.232-2.234c0-1.233,1.003-2.233,2.232-2.233c1.235,0,2.235,1,2.235,2.233
		C13.634,28.448,12.634,29.451,11.398,29.451z M24.055,19.657c-0.378,0-0.681,0.307-0.681,0.683c0,0.952-0.279,1.703-0.827,2.232
		c-0.509,0.492-1.18,0.731-1.746,0.854c0.005-0.391,0.008-1.057,0.008-1.155c0-2.978,2.938-3.198,3.246-3.215h1.698l0.301,0.601
		H24.055z M28.957,25.441l0.538,1.067c0.168,0.335,0.581,0.462,0.916,0.303c0.335-0.17,0.471-0.58,0.303-0.915l-0.543-1.084
		c0.74,0.035,1.336,0.64,1.336,1.39c0,0.774-0.627,1.403-1.402,1.403c-0.774,0-1.402-0.629-1.402-1.403
		C28.702,25.915,28.809,25.662,28.957,25.441z M30.104,29.451c-1.791,0-3.249-1.458-3.249-3.249c0-1.019,0.5-1.892,1.235-2.488
		l0.218,0.429c-0.583,0.508-0.97,1.229-0.97,2.06c0,1.525,1.24,2.766,2.766,2.766s2.766-1.24,2.766-2.766
		c0-1.524-1.24-2.765-2.766-2.765c-0.199,0-0.38,0.074-0.566,0.114l-0.224-0.439c0.261-0.065,0.511-0.16,0.79-0.16
		c1.791,0,3.25,1.459,3.25,3.25S31.896,29.451,30.104,29.451z"/>
</g>
</svg>
