<svg id="Layer_1" data-name="Layer 1" xmlns="http://www.w3.org/2000/svg" viewBox="0 0 670.89 167.97"><defs><style>.cls-1{fill:#fff;}</style></defs><title>dz_19_mainpage</title><path d="M38.3,84c-3.23,3.73-7.66,7-15.73,7H2.32V19.15H22.57c8.07,0,12.5,3.22,15.73,7,5,5.75,5.34,15.62,5.34,28.83S43.34,78.21,38.3,84ZM27.61,35.17a5.68,5.68,0,0,0-5.34-3.12H16.63V78h5.64a5.68,5.68,0,0,0,5.34-3.12c1.72-3.33,1.72-12,1.72-19.95S29.33,38.5,27.61,35.17Z"/><path d="M55.12,90.9V19.15H88.18v12.9H69.43V48.27H85.56v12.9H69.43V78H88.18V90.9Zm22-76.29H66.81L56.13,0H66L72,7.76,77.9,0h9.87Z"/><path d="M122.34,32.05V90.9H108V32.05H95.93V19.15h38.5v12.9Z"/><path d="M35.88,162.63c-3.23,3.13-8.67,5.34-15.62,5.34S8,166,4.74,162.73C1.21,159.21,0,154.17,0,146.81H14.31c0,2.92.2,5,1.51,6.55a5.7,5.7,0,0,0,4.44,1.71c2.21,0,3.62-.6,4.53-1.81s1.41-3.12,1.41-6c0-6.85-1.11-8.06-6.25-10.18l-9.07-3.73c-7.25-3-10.28-6.85-10.28-18,0-6.66,2.12-12.2,6.45-15.93a19.62,19.62,0,0,1,13.21-4.53c6.35,0,11,1.61,14.11,4.53,3.93,3.63,5.54,9.37,5.54,16.63H25.6c0-2.52,0-4.84-1.21-6.45a4.63,4.63,0,0,0-4.13-1.81,4.81,4.81,0,0,0-4.14,1.91c-.9,1.21-1.2,2.72-1.2,5.14,0,4.54.8,5.85,4.93,7.56l9,3.63c9.07,3.73,11.69,7.76,11.69,20.76C40.51,154,39.61,159,35.88,162.63Z"/><path d="M81.22,167.17,70.94,141l-4.63,9.68v16.53H52V95.41H66.31v30.84l13.6-30.84H94.22L79.91,125.24l16.63,41.93Z"/><path d="M105.2,167.17V95.41h33.06v12.9H119.51v16.23h16.13v12.9H119.51v16.83h18.75v12.9Zm30.67-76.29H127l7.66-14.62h10.78Z"/><path class="cls-1" d="M147,81.13,174.9,31.24h-17l2.42-12.09h31.45l-1.92,9.77L161.89,78.81H180L177.62,90.9H145.06Z"/><path class="cls-1" d="M218.13,90.9l.1-11.59H202.5L197.87,90.9H183.36L215.2,19.15h13.31l3.22,71.75Zm0-51.8L207.34,67.22H218ZM227.5.4h10.88L226.49,14.81h-9.07Z"/><path class="cls-1" d="M246,19.15H261L258,70.24l17.74-51.09h14.91L261.05,90.9H247Z"/><path class="cls-1" d="M301,24c3.83-3.83,8.27-5.65,15-5.65,7.46,0,11.89,2.62,14.31,7,1.81,3.22,2.32,5.84,2.32,10.38s-1,11.18-2.72,19.35c-4.24,20.56-6.35,26.4-11,31-3.83,3.83-8.26,5.64-15,5.64-7.46,0-11.9-2.62-14.31-6.95-1.82-3.23-2.32-5.85-2.32-10.38s1-11.19,2.72-19.35C294.26,34.47,296.38,28.62,301,24Zm-.2,50.18c0,3.33,1.11,5.45,4.44,5.45a5.79,5.79,0,0,0,4.33-1.92c2.32-2.32,3.83-7.56,6.85-22.67,1.41-7.06,2.72-14.82,2.72-19.15,0-3.33-1.1-5.44-4.43-5.44a5.79,5.79,0,0,0-4.33,1.91c-2.32,2.32-3.83,7.56-6.86,22.68C302.12,62.08,300.81,69.84,300.81,74.17Z"/><path class="cls-1" d="M348.07,19.15h18.55c7.55,0,11,2.52,13.8,7.05,1.72,2.72,2.42,6.15,2.42,10.38,0,3.23-1.31,10.48-2.82,18.35-3.53,17.63-5.54,25.09-10.28,29.83-4.23,4.23-9,6.14-16.22,6.14H333.76Zm6.55,59.66a7,7,0,0,0,6.15-3.12c2.22-3.33,4.13-12.8,5.75-20.76,1.31-6.45,2.82-14.21,2.82-18.35A5.84,5.84,0,0,0,368,32.65a4.59,4.59,0,0,0-3.53-1.41h-5.34l-9.47,47.57Z"/><path class="cls-1" d="M395.54,63.39,391,19.15h14l.71,26.6,10.78-26.6h14.71L408.84,64.4,403.6,90.9H390.09Z"/><path class="cls-1" d="M409,167.17v-6.44l19.38-23.56c1.91-2.33,2.69-4.17,2.69-6.72,0-4.52-2.69-7.64-7.35-7.64-3.82,0-7.43,2.13-7.43,7.79h-7.22c0-8.56,6.09-14.22,14.65-14.22s14.57,5.44,14.57,14.14c0,4.46-1.63,7.08-4.74,10.9l-15.78,19.31H438.3v6.44Z"/><path class="cls-1" d="M462.21,167.59c-8.7,0-14.93-5.73-14.93-15.07,0-4.1,1.56-8,3.75-12.37l11.46-23.35h7.71l-10.82,21.65a11.51,11.51,0,0,1,4.46-.78c7.28,0,13.22,5.73,13.22,14.57C477.06,161.51,470.91,167.59,462.21,167.59Zm-.07-23.91c-4.53,0-7.64,3.26-7.64,8.7s3.11,8.77,7.64,8.77,7.71-3.39,7.71-8.77C469.85,147.43,467,143.68,462.14,143.68Z"/><path class="cls-1" d="M487.61,167.17v-8.63h8.62v8.63Z"/><path class="cls-1" d="M550.49,163.7c-2.26,2.26-5.73,4-10.61,4s-8.56-1.7-10.75-3.89c-2.69-2.69-3.54-6-3.82-9.62h7.22c.56,4.46,2.83,7,7.35,7a7.27,7.27,0,0,0,5.24-2c2.12-2.12,2.4-5.44,2.4-8.84,0-6-1.55-10.54-7.36-10.54-4.1,0-6.36,2.05-7.14,4.53h-6.58V116.8h27.17v6.44H533v13.3c1.7-1.77,4.67-2.9,8.35-2.9,4,0,7,1.2,9.05,3.25,3.82,3.82,4.39,8.7,4.39,13.44C554.74,155.71,554.17,160,550.49,163.7Z"/><path class="cls-1" d="M565.14,167.17v-8.63h8.63v8.63Z"/><path class="cls-1" d="M616.28,167.17V124.65l-9.83,8.63v-8l9.83-8.49h7.22v50.37Z"/><path class="cls-1" d="M667.14,143.82l-11.45,23.35H648l10.83-21.65a11.9,11.9,0,0,1-4.53.78c-7.29,0-13.16-5.73-13.16-14.57,0-9.27,6.16-15.35,14.86-15.35s14.92,5.73,14.92,15.06C670.89,135.55,669.34,139.44,667.14,143.82Zm-11.17-21c-4.53,0-7.64,3.4-7.64,8.78,0,4.95,2.83,8.7,7.64,8.7,4.52,0,7.71-3.26,7.71-8.7S660.49,122.81,656,122.81Z"/></svg>