<svg viewBox="0 0 510.24 226.77" xmlns="http://www.w3.org/2000/svg"><g fill-rule="evenodd"><path d="m182.21 142.46-2.31 6a20.88 20.88 0 0 0 4.71.54 26.2 26.2 0 0 0 5-.53l.52-1.36a24.85 24.85 0 0 1 -5 .59 19.32 19.32 0 0 1 -3.49-.33l1.49-3.79a21.58 21.58 0 0 1 3.54-.33 19.77 19.77 0 0 1 4.72.6l.53-1.36a20.67 20.67 0 0 0 -4.7-.54 25 25 0 0 0 -5 .55"/><path d="m194.57 142.46-2.32 6a20.88 20.88 0 0 0 4.75.54 25.47 25.47 0 0 0 5-.54l2.31-6a20 20 0 0 0 -4.69-.55 24.88 24.88 0 0 0 -5.05.55m6.5 4.89a22.74 22.74 0 0 1 -3.55.31 19.13 19.13 0 0 1 -3.48-.33l1.48-3.79a21.68 21.68 0 0 1 3.54-.33 18.13 18.13 0 0 1 3.47.34z"/><path d="m212.92 141.3h-1.36l-.25.63a26 26 0 0 0 -4.39.53l-2.52 6.54h1.36l2.11-5.45a22.68 22.68 0 0 1 2.94-.31l-2 5.12h1.36l2-5.12a19.93 19.93 0 0 1 2.72.32l-2.11 5.44h1.36l2.52-6.53a21.39 21.39 0 0 0 -4-.53z"/><path d="m219.22 142.46-1 .22-.45 1.15 1-.13-2.07 5.3h1.36l1.13-2.89h2.81a53.52 53.52 0 0 0 5.64-.31l.75-1.95.52-1.36a20.58 20.58 0 0 0 -4.69-.54 23.45 23.45 0 0 0 -5.05.55m7.54 2.14c-1.18.08-2.59.13-4.23.13h-2.84l.46-1.2a22.87 22.87 0 0 1 3.56-.32 19 19 0 0 1 3.46.34z"/><path d="m232.62 142.46-2.31 6a20.73 20.73 0 0 0 4.7.54 25.4 25.4 0 0 0 5-.54l2.31-6a20 20 0 0 0 -4.69-.55 24.88 24.88 0 0 0 -5 .55m6.5 4.89a22.64 22.64 0 0 1 -3.55.31 19.13 19.13 0 0 1 -3.48-.33l1.48-3.79a21.68 21.68 0 0 1 3.54-.33 18.13 18.13 0 0 1 3.47.34z"/><path d="m246.65 142.18c-.11.14-.22.28-.31.42l.06-.17.06-.18c-.48.07-1 .16-1.47.26l-2.54 6.49h1.36l2.11-5.45a21.79 21.79 0 0 1 3.55-.33 19 19 0 0 1 3.47.34l-2.1 5.44h1.35l2.53-6.53a20.11 20.11 0 0 0 -4.69-.55 24.43 24.43 0 0 0 -3.38.27"/><path d="m259.13 142.16-.32.81-1.81 4.72-.37.95a32.19 32.19 0 0 0 5.09.32 33.78 33.78 0 0 0 5.09-.32l.53-1.37a41.2 41.2 0 0 1 -5.53.37 28.87 28.87 0 0 1 -3.38-.18l.54-1.39h6.69l.51-1.34h-6.69l.53-1.37a29.45 29.45 0 0 1 3.5-.19 37.31 37.31 0 0 1 5.34.37l.53-1.38a40.64 40.64 0 0 0 -4.92-.25 46.85 46.85 0 0 0 -5.32.25"/><path d="m274 142.18a3.77 3.77 0 0 0 -.31.42l.07-.17.06-.18c-.48.07-1 .16-1.47.26l-2.57 6.49h1.36l2.11-5.45a21.79 21.79 0 0 1 3.55-.33 19 19 0 0 1 3.47.34l-2.1 5.44h1.35l2.53-6.53a20.19 20.19 0 0 0 -4.7-.55 24.42 24.42 0 0 0 -3.37.27"/><path d="m283.65 142.43-.53 1.36a27.73 27.73 0 0 1 4.42-.59l-2.24 5.8h1.36l2.24-5.76a20.4 20.4 0 0 1 4 .59l.52-1.36a20.88 20.88 0 0 0 -4.71-.54 25.3 25.3 0 0 0 -5 .54"/><path d="m296.27 142.46-1.41 3.64h8.39l-.49 1.26a21.59 21.59 0 0 1 -3.55.33 19.5 19.5 0 0 1 -4.73-.61l-.52 1.35a20.26 20.26 0 0 0 4.71.54 24.58 24.58 0 0 0 5-.54l1.43-3.67h-8.39l.47-1.22a21.81 21.81 0 0 1 3.56-.33 19.83 19.83 0 0 1 4.72.6l.53-1.36a20.67 20.67 0 0 0 -4.7-.54 25 25 0 0 0 -5.05.55"/><path d="m316.29 142.16-.29.84-2.32 6h1.32l1.13-2.89h6.69l.51-1.34h-6.69l.53-1.37a29.16 29.16 0 0 1 3.49-.19 37.31 37.31 0 0 1 5.34.37l.53-1.38a40.64 40.64 0 0 0 -4.92-.25 46.85 46.85 0 0 0 -5.32.25"/><path d="m329.9 142.46-2.32 6a20.88 20.88 0 0 0 4.71.54 25.47 25.47 0 0 0 5-.54l2.31-6a20 20 0 0 0 -4.69-.55 24.81 24.81 0 0 0 -5.05.55m6.5 4.89a22.74 22.74 0 0 1 -3.55.31 19.32 19.32 0 0 1 -3.49-.33l1.49-3.79a21.58 21.58 0 0 1 3.54-.33 18.13 18.13 0 0 1 3.47.34z"/><path d="m342.25 142.46-1 .22-.47 1.23.95-.15-2 5.2h1.35l1.13-2.9h3.19a8 8 0 0 1 3.55.75l-.83 2.11h1.34l1.06-2.73a2.5 2.5 0 0 0 -1.28-.57l1.61-.29.61-1.56.53-1.35a20.19 20.19 0 0 0 -4.7-.55 22.27 22.27 0 0 0 -5.05.55m7.61 2a27.36 27.36 0 0 1 -3.29.27h-3.84l.46-1.2a22.87 22.87 0 0 1 3.56-.32 19 19 0 0 1 3.46.34z"/><path d="m368.23 144.39a26.38 26.38 0 0 1 -2.79.31l.49-1.28h-1.35l-.49 1.29a19.49 19.49 0 0 1 -2.9-.32l1-2.48h-1.39l-1.38 3.56a20.89 20.89 0 0 0 4.17.54l-1.16 3h1.36l1.17-3a28.3 28.3 0 0 0 4.2-.52l1.38-3.56h-1.35z"/><path d="m373.35 142.46-2.32 6a20.88 20.88 0 0 0 4.71.54 25.47 25.47 0 0 0 5-.54l2.31-6a20.11 20.11 0 0 0 -4.69-.55 24.81 24.81 0 0 0 -5 .55m6.5 4.89a22.74 22.74 0 0 1 -3.55.31 19.32 19.32 0 0 1 -3.49-.33l1.49-3.79a21.58 21.58 0 0 1 3.54-.33 18.13 18.13 0 0 1 3.47.34z"/><path d="m392.19 147.37a21.69 21.69 0 0 1 -3.55.32 19.21 19.21 0 0 1 -3.48-.33l2.11-5.45h-1.35l-2.54 6.54a20.82 20.82 0 0 0 4.71.54 25.47 25.47 0 0 0 5-.54l2.53-6.54h-1.32z"/><path d="m231.89 123.27a5.71 5.71 0 0 0 1.07 6.27q2.25 2.44 6.72 2.45h30.32a15.4 15.4 0 0 0 8.4-2.45 12.19 12.19 0 0 0 5.51-6.27l7.36-20.87a5.75 5.75 0 0 0 -1.1-6.23c-1.51-1.66-3.74-2.5-6.66-2.5h-30.31a16 16 0 0 0 -8.52 2.5 12.36 12.36 0 0 0 -5.44 6.23zm12.75-20.86a4.22 4.22 0 0 1 2.22-2.2 9.36 9.36 0 0 1 4.42-1.09h30.22a5.46 5.46 0 0 1 3.61 1.09 1.89 1.89 0 0 1 .71 2.2l-7.35 20.85a4.38 4.38 0 0 1 -2.28 2.24 8.9 8.9 0 0 1 -4.33 1.09h-30.27a5.45 5.45 0 0 1 -3.65-1.09 1.92 1.92 0 0 1 -.66-2.24z"/><path d="m291.16 132 5.84-16.53h36.2a5.5 5.5 0 0 1 3.67 1.14 1.89 1.89 0 0 1 .7 2.23l-4.64 13.16h5.34l5.18-14.68a7.35 7.35 0 0 0 -.08-1.26 9.83 9.83 0 0 0 -.29-1.16 14.91 14.91 0 0 0 -1.12-2c.55-.42 1.05-.8 1.47-1.15a13.77 13.77 0 0 0 1.17-1 10.73 10.73 0 0 0 1-1.18 8.46 8.46 0 0 0 .72-1.18q1.18-2.64 2.35-5.92a5.71 5.71 0 0 0 -1.14-6.23c-1.51-1.66-3.74-2.5-6.66-2.5h-30.72a16 16 0 0 0 -8.51 2.5 12.34 12.34 0 0 0 -5.45 6.23l-10.43 29.53zm10.43-29.58a4.23 4.23 0 0 1 2.67-2.45 9.68 9.68 0 0 1 3.93-.84h30.81a5.41 5.41 0 0 1 3.6 1.09 1.89 1.89 0 0 1 .72 2.2l-1.55 4.38a4.35 4.35 0 0 1 -2.29 2.28 9.38 9.38 0 0 1 -4.36 1.05h-36.25z"/><path d="m406.89 102.41a4.21 4.21 0 0 1 2.22-2.19 9.28 9.28 0 0 1 4.42-1.1h38.22l1.79-5.4h-38.1a16 16 0 0 0 -8.51 2.5 12.31 12.31 0 0 0 -5.46 6.27q-.18.66-.39 1.23l-.4 1.14q-.63 1.8-1 3.24a5 5 0 0 0 0 2.63 6 6 0 0 0 .43 1 8.33 8.33 0 0 0 .76 1.14 33.21 33.21 0 0 0 -2.73 2.14c-.38.42-.71.81-1 1.19a8.36 8.36 0 0 0 -.74 1.23c-.35.81-.72 1.71-1.11 2.69s-.79 2-1.19 3.18a5.71 5.71 0 0 0 1.08 6.27q2.25 2.44 6.72 2.45h38.87l1.8-5.4h-38.72a5.45 5.45 0 0 1 -3.65-1.09 1.92 1.92 0 0 1 -.66-2.24l1.54-4.38a4.58 4.58 0 0 1 2.24-2.24 9.25 9.25 0 0 1 4.42-1.1h21.65l1.91-5.39h-21.66a5.42 5.42 0 0 1 -3.64-1.1 1.9 1.9 0 0 1 -.66-2.23z"/><path d="m190.52 116h26.42l1.91-5.39h-26.42l3-8.53a4.25 4.25 0 0 1 2.23-2.2 8.94 8.94 0 0 1 4.34-1.11h34.75c1.26-2.59 4.35-4.93 4.9-5.45h-37.65a15.88 15.88 0 0 0 -8.51 2.5 12.25 12.25 0 0 0 -5.45 6.23l-10.43 29.59h5.39z"/><path d="m391.12 131.88.07-.22a8.61 8.61 0 0 1 -2.19-5.06h-33.6a5.43 5.43 0 0 1 -3.65-1.09 1.92 1.92 0 0 1 -.66-2.24l7.36-20.85a4.15 4.15 0 0 1 2.21-2.19 9.26 9.26 0 0 1 4.43-1.1h32.81a16.65 16.65 0 0 1 5.35-5.43h-36.25a16 16 0 0 0 -8.51 2.49 12.31 12.31 0 0 0 -5.49 6.21l-7.36 20.87a5.75 5.75 0 0 0 1.08 6.27c1.5 1.64 3.74 2.45 6.72 2.45h35.85a15.78 15.78 0 0 0 1.83-.11"/><path d="m81.45 82.44c-7 4.35-10 9.63-11.3 13.29l-13.46 38.27h12.7l11.68-33.52c1.31-3.72 4.07-6.9 8.19-9.46a23.42 23.42 0 0 1 12.49-3.66h55.73l-4.27 12.07h-54a9.57 9.57 0 0 0 -4.62 1.16 3.5 3.5 0 0 0 -1.74 1.53l-2.81 8h59.34s-6.36 12-13.85 12h-49.71c-.35 1-3.53 10-4.2 11.91 4.91 0 25.58-.06 49.28-.06 12.13 0 24.35-10.1 28.08-20.37 3.64-10 13.33-35.78 13.33-35.78h-75a29.76 29.76 0 0 0 -15.81 4.66"/><path d="m183.48 87a13.73 13.73 0 0 1 .8 1.15l1.1 1.74h1.39l-1.45-2.28a5.78 5.78 0 0 0 -.92-1.11 2.7 2.7 0 0 0 -.66-.41 3 3 0 0 0 1.77-.78 2.09 2.09 0 0 0 .58-1.5 2.39 2.39 0 0 0 -.35-1.26 1.9 1.9 0 0 0 -.93-.8 4.91 4.91 0 0 0 -1.7-.22h-3.7v8.36h1.11v-3.69h1.28a3 3 0 0 1 .61 0 1.41 1.41 0 0 1 .51.22 2.43 2.43 0 0 1 .56.56m-3-1.78v-2.73h2.64a2 2 0 0 1 1.36.38 1.25 1.25 0 0 1 .43 1 1.34 1.34 0 0 1 -.22.75 1.26 1.26 0 0 1 -.65.5 3.44 3.44 0 0 1 -1.19.16z"/><path d="m190.23 85.73a7.49 7.49 0 1 0 -7.49 7.49 7.49 7.49 0 0 0 7.49-7.49m-14.37 0a6.88 6.88 0 1 1 6.88 6.88 6.88 6.88 0 0 1 -6.88-6.88z"/></g></svg>