<svg id="Layer_1" data-name="Layer 1" xmlns="http://www.w3.org/2000/svg" viewBox="0 0 510.24 226.77"><path d="M96.53,104.23a1.13,1.13,0,0,1-1.16,1.09H57.86a1.12,1.12,0,0,1-1.17-1.09V66.55a1.12,1.12,0,0,1,1.17-1.08H95.37a1.13,1.13,0,0,1,1.16,1.08Z"/><path d="M141.13,104.23a1.13,1.13,0,0,1-1.16,1.09H102.45a1.12,1.12,0,0,1-1.16-1.09V66.55a1.12,1.12,0,0,1,1.16-1.08H140a1.13,1.13,0,0,1,1.16,1.08Z"/><path d="M141.13,149A1.12,1.12,0,0,1,140,150H102.45a1.11,1.11,0,0,1-1.16-1.08V111.27a1.12,1.12,0,0,1,1.16-1.09H140a1.13,1.13,0,0,1,1.16,1.09Z"/><path d="M185.59,149a1.13,1.13,0,0,1-1.17,1.08H146.9a1.11,1.11,0,0,1-1.15-1.08V111.27a1.12,1.12,0,0,1,1.15-1.09h37.52a1.14,1.14,0,0,1,1.17,1.09Z"/><path d="M205.16,147.14,217.89,118H207.42a5.53,5.53,0,0,0-1.81.25v-7.94h23.5v2.5l-13,30h11.17a6.63,6.63,0,0,0,.92,0,4.28,4.28,0,0,0,.89-.22V150h-23.9Z"/><rect x="233.41" y="110.25" width="7.92" height="39.64"/><path d="M254.48,149.89h-7.93V121.58h7.93Zm4.9-39.64-7.82,8.94H245.5l6.4-8.94Z"/><path d="M280.22,150h-7.93V130.06a2,2,0,0,0-.25-1.13,1.06,1.06,0,0,0-.93-.34h-3.88V150H259.3V121.62H273c2.64,0,4.48.7,5.58,2.1a8.75,8.75,0,0,1,1.6,5.44Z"/><path d="M302.69,121.62v7.59a3.39,3.39,0,0,0-1.28-.48,8,8,0,0,0-1.56-.14h-6.51c-.71,0-1.07.38-1.07,1.13v.34a1.5,1.5,0,0,0,1,1.3l5.38,2.16a12.79,12.79,0,0,1,2.35,1.19,6.2,6.2,0,0,1,1.52,1.45,5.06,5.06,0,0,1,.85,1.9,11.12,11.12,0,0,1,.26,2.55v1.82q0,3.91-1.82,5.72a7.25,7.25,0,0,1-5.39,1.82H284.67v-7.43a3.58,3.58,0,0,0,1.27.48,9,9,0,0,0,1.55.14H295a1,1,0,0,0,.74-.31A1.24,1.24,0,0,0,296,142v-.51a1.49,1.49,0,0,0-.9-1.42l-5-2a15.68,15.68,0,0,1-2.57-1.31,6,6,0,0,1-1.7-1.59,5.69,5.69,0,0,1-.91-2.13,15.46,15.46,0,0,1-.25-2.93v-.86a8,8,0,0,1,1.77-5.56c1.17-1.33,3-2,5.5-2Z"/><path d="M319.41,130.09l2.72-8.38h8.33l-3.64,10a4.84,4.84,0,0,1-.87,1.49,3.4,3.4,0,0,1-1.22,1,3.3,3.3,0,0,1,1.13,1,6.29,6.29,0,0,1,.86,1.55L331.29,150h-9.11l-2.72-10.75a1.58,1.58,0,0,0-1.58-1.29H316v12h-7.91V110.39H316v20.89h1.86a1.55,1.55,0,0,0,1.59-1.19"/><path d="M355.87,110.25h0l-7.81,8.94H342l6.41-8.94Zm-18.12,51,3.86-11.33h-.91l-7.53-28.31h9l3.46,20.22,3.57-20.22h8.64l-11,39.64Z"/><path d="M386.27,130.09l2.72-8.38h8.33l-3.63,10a5,5,0,0,1-.87,1.49,3.48,3.48,0,0,1-1.22,1,3.51,3.51,0,0,1,1.14,1,6.2,6.2,0,0,1,.84,1.55L398.17,150h-9.12l-2.71-10.75a1.61,1.61,0,0,0-1.59-1.29h-1.93v12H374.9V110.39h7.92v20.89h1.88a1.54,1.54,0,0,0,1.57-1.19"/><path d="M412.57,129.15a2.55,2.55,0,0,0-2.18.86,3.49,3.49,0,0,0-.66,2.14V150h-7.91V121.62h7v3.8c.44-2.54,2-3.8,4.69-3.8H417v8.14a4.1,4.1,0,0,0-2.43-.61Z"/><path d="M428.08,138.1h0a1.8,1.8,0,0,0-.29,1.12v2.35c0,1.05.43,1.59,1.32,1.59h3.76V137.7h-3.72a1.22,1.22,0,0,0-1.07.4m4.79-6.11V129.9a2,2,0,0,0-.27-1.14,1.2,1.2,0,0,0-1-.32h-7.67a8.8,8.8,0,0,0-1.56.13,3.18,3.18,0,0,0-1.27.48v-7.43h12.45a9.26,9.26,0,0,1,3.36.53,5.37,5.37,0,0,1,2.22,1.54,6.45,6.45,0,0,1,1.25,2.38,11.52,11.52,0,0,1,.39,3V150h-13.7c-2.62,0-4.49-.7-5.59-2.1a8.65,8.65,0,0,1-1.62-5.44v-3a8.41,8.41,0,0,1,1.63-5.36q1.65-2.07,5.6-2.07Z"/><path d="M453.54,119.17h-7.92V111h7.92Zm0,30.8a33.57,33.57,0,0,1-.49,5.78,41.87,41.87,0,0,1-1.32,5.55h-8.26a35.08,35.08,0,0,0,1.52-5.45,29.08,29.08,0,0,0,.63-5.88V121.65h7.92Z"/></svg>