<svg id="Layer_1" data-name="Layer 1" xmlns="http://www.w3.org/2000/svg" viewBox="0 0 510.24 226.77"><path d="M288.48,184.83l18.23,7.7,13.19-14.39a87.58,87.58,0,0,0,7.09-7.92l.18.07.16.07.17.08a86.58,86.58,0,0,0-.72,10.61l-.88,19.58L343.3,208l0-77h-16l-.16.25c-.08.16.07,14.08-9.35,24.87-6.48,7.39-29.36,28.76-29.36,28.76"/><path d="M411,184.83l-18.23,7.7L379.6,178.14a89,89,0,0,1-7.1-7.92l-.18.07-.15.07-.18.08a87,87,0,0,1,.73,10.61l.89,19.58L356.2,208l0-77h16l.16.25c.08.16-.08,14.08,9.35,24.87,6.47,7.39,29.36,28.76,29.36,28.76"/><path d="M293.42,117c0,3.11-2.18,4.8-5.35,4.8a17.1,17.1,0,0,1-1.93-.13v-9c.37,0,1.43-.12,2.18-.12,3.79,0,5.1,2,5.1,4.48m15.12,28.32-7.4-12.82c-.94-1.62-1.93-3.17-3.05-4.85,4.73-1.75,7.53-6.54,7.53-11.52,0-9.33-6-13.13-16.68-13.13-5.29,0-10.46.06-14.38.32v42h11.58V130h.56l7.78,15.31ZM265.4,96.14l-2.18-5.28-8.52,2.92-8.84-3L243.5,96.4l10.95,5.16Zm.07,48.18L263.91,134a15.79,15.79,0,0,1-6.22,1.31c-6.54,0-9.34-3.92-9.34-11.2,0-6.79,3.42-10.58,8.9-10.58a18.27,18.27,0,0,1,6.66,1.18l1.43-10.58a28.5,28.5,0,0,0-8.09-1.12c-13.75,0-21.66,9-21.66,23,0,8.47,3.42,19.87,19.92,19.87a30.89,30.89,0,0,0,10-1.56"/><path d="M191.28,131.56c0-13.38-16.19-11.39-16.19-16.68,0-1.62,1.37-2.8,4.61-2.8a21,21,0,0,1,7.15,1.24l1-10a38.76,38.76,0,0,0-7.71-.81c-11.08,0-17.49,5.36-17.49,13.7,0,14.37,15.67,10.76,15.67,16.86,0,2-1.79,3-4,3a24.42,24.42,0,0,1-9.64-2l-1,11A42.22,42.22,0,0,0,174,146.12c10.09,0,17.25-6.28,17.25-14.56m-37.05,13.75v-10h-13v-6.78h12.32v-9.46H141.22v-5.91h13V103.3H129.64v42Zm-31.86,0V135H110.79V103.3H99.21v42Z"/><path d="M193.46,103.3l12.95,0,4.25,12a55.46,55.46,0,0,1,2.26,6.59h.36a56.46,56.46,0,0,1,2.28-6.58l4.47-12h12.36l-18,42.48-11.29-.15,0-.19c0-.12,3.65-8.46.73-17.36-2-6.13-10.33-24.84-10.33-24.84"/></svg>