<svg id="Layer_1" data-name="Layer 1" xmlns="http://www.w3.org/2000/svg" viewBox="0 0 510.24 226.77"><defs><style>.cls-1{fill-rule:evenodd;}</style></defs><path class="cls-1" d="M114.18,103.79h45.66c2.68,0,4-1.34,4-4V82.49c0-2.69-1.35-4-4-4H114.18ZM232,86.57h69.95q12.76,0,12.76,12.76v.57q0,12.63-12.76,12.62H195.43l8.73-8.73h74c2.69,0,4-1.29,4-3.89v-.57q0-4-4-4h-70q-12.75,0-12.76-12.76v-.05q0-12.76,12.76-12.76H314.75L306,78.46H232c-2.68,0-4,1.34-4,4v.05C228,85.23,229.31,86.57,232,86.57Zm164,26H333.21q-12.75,0-12.76-12.75V82.49q0-12.76,12.76-12.76h81l-8.73,8.73H350.57c-2.68,0-4,1.34-4,4V99.77c0,2.68,1.35,4,4,4H396V91.13h36.25v41H396Zm-281.85,0v19.64H78V69.73h99.24Q190,69.73,190,82.49V99.77q0,12.75-12.76,12.75Z"/><path d="M427.4,74.93c0,.63-.36.81-.91.81h-1.72l-.09-.09V74.2l.09-.09h1.72C427,74.11,427.4,74.3,427.4,74.93Zm1.27,0c0-1.27-.91-1.9-2.18-1.9h-3l-.09.09v6.16l.09.09h1.08l.09-.09V76.92l.09-.09h.91l.18.09,1.81,2.36.18.09h.55l.09-.09v-.91l-1.18-1.54v-.09A1.79,1.79,0,0,0,428.67,74.93Z"/><path class="cls-1" d="M425.84,71.33a5,5,0,1,1-5,5A5,5,0,0,1,425.84,71.33Zm0-1.47a6.45,6.45,0,1,1-6.45,6.44A6.44,6.44,0,0,1,425.84,69.86Z"/><path class="cls-1" d="M309.05,132.09l33.2,33.19,33.19-33.19Zm-87.17,0,33.2,33.19,33.2-33.19Zm-87.16,0,33.19,33.19,33.2-33.19Zm43.58,35h66.39l-33.19-33.2Zm120.36-33.2-33.19,33.2h66.39ZM122.55,123.48H387.61v8.61L344,175.67H166.13l-43.58-43.58Z"/></svg>