<svg id="Layer_1" data-name="Layer 1" xmlns="http://www.w3.org/2000/svg" viewBox="0 0 510.24 226.77"><defs><style>.cls-1{fill-rule:evenodd;}</style></defs><path class="cls-1" d="M77.05,159l16.64-16.43h0c2.87-2.68,1.83-4.6-.12-7.94L81.74,114.3c-2-3.48-4.62-4.9-10-7.69L69,105.19l6.85,11.74c2.14,3.65,3.33,6.06-.06,9.22L42.52,159Z"/><path class="cls-1" d="M65,67.77,48.32,84.2v0c-2.87,2.67-1.84,4.59.11,7.93l11.86,20.32c2,3.48,4.62,4.9,10,7.69L73,121.58l-6.85-11.74c-2.13-3.64-3.33-6.06.07-9.22L99.5,67.77Z"/><path d="M307.59,127.21c-22.42-9.24-33.85,4.87-64.42,4.87-16.21,0-32.73-2.81-38.34-10.82-6.37,11-33.84,10.82-48.48,10.82-15.46,0-40.67-.77-38.62-13.49l34,0c-.09,1.34.63,2.3,2.19,2.88s4.21.89,8,.89a31.75,31.75,0,0,0,7.31-.65c1.72-.43,2.67-1.08,2.87-2q.52-2.25-12-2.95c-14.23-1-40.34-.08-37.39-12.75,1-4.41,5.08-7.66,12.14-9.69s17.83-3.08,32.27-3.08c13.63,0,22.4,1.05,28.56,3.13s9,5.33,8.39,9.71H172c.11-1.29-.64-2.22-2.27-2.8s-3.23-.86-7.11-.86a31.53,31.53,0,0,0-7.41.64c-1.64.44-2.57,1.11-2.78,2q-.51,2.2,10.24,2.73l6.12.34c10.34.56,27.61.49,34.42,5.5,3.61-15.41,28-20.41,49.43-20.41,24.08,0,34.31,6.76,38.21,16.83l4-15.52h27.84l-4.35,17.64c-1.72,7,6.29,7.83,11.23,7.83,8.15,0,10.73-3,11.85-7.5l4.44-18h27.84l-5.23,21.17c-2.71,11-11.89,17.83-30.78,17.83-33.76,0-29.08-24-74.78-23.77a7.36,7.36,0,0,0-4.14-4c-5.78-2.48-14.89-1.66-20.36,1.09-4.84,2.44-9,9.32-3.19,13.26,2.67,1.83,6.43,2.58,10.24,2.57,23.56,0,42.8-8,62.09,6.46m92.87-23.57-2.84,11.55c-.64,2.53.43,3.86,3.4,3.86h21c9.13,0,15.29-1.67,16.78-7.72s-3.94-7.69-13-7.69Zm-24-11.09H432.3c20.53,0,38.49,4.86,35,19.17s-23.88,19.09-44.39,19.09h-40c-8.58,0-14.9-4-12.51-13.66Z"/><path class="cls-1" d="M318.3,135.53h-17c-1.37-3.49-6-9.75-22.5-7.93,18-4.88,31,1.68,39.5,7.93"/></svg>