<svg id="Layer_1" data-name="Layer 1" xmlns="http://www.w3.org/2000/svg" viewBox="0 0 510.24 226.77"><rect x="412.26" y="108.9" width="27.11" height="4.08"/><polygon points="384.36 125.31 404.31 125.31 404.31 116.16 375.22 116.16 375.22 134.14 372.06 134.14 372.06 142.25 375.22 142.25 375.22 159.21 384.36 159.21 384.36 142.25 397.37 142.25 397.37 134.14 384.36 134.14 384.36 125.31"/><path d="M325.17,126.55c-8.29-5.34-20.75-.37-20.75,11.06,0,12,13.2,16.77,21.17,10.69,1.85,2.09,3.66,4.19,5.48,6.26a22,22,0,1,1-.49-34.33C328.81,122.34,327,124.44,325.17,126.55Z"/><polygon points="439.2 125.31 439.2 116.16 410.1 116.16 410.1 134.14 406.95 134.14 406.95 142.25 410.1 142.25 410.1 159.21 439.2 159.21 439.2 151.09 419.26 151.09 419.26 142.25 432.26 142.25 432.26 134.14 419.26 134.14 419.26 125.31 439.2 125.31"/><path d="M358.12,116.16h-9.95l-8.52,31.75H334V156h3.51l-.83,3.16h9.07l.85-3.16h13l.85,3.16h9.07Zm-9.3,31.75,4.31-16.16,4.34,16.16Z"/><path d="M293.37,123.81c-2.67-.18-5.35-.36-8-.67s-5.32-.59-8-1c-1.31-.25-2.66-.43-3.94-.72s-2.63-.54-3.93-.84l-3.92-.92a13.44,13.44,0,0,0-2-.38,10.58,10.58,0,0,0-1.95,0,2.17,2.17,0,0,0-1.41-.64,8.07,8.07,0,0,0-1.51.09c-1,.11-2,.09-3,.29l-3,.47-2.95.79a21,21,0,0,0-2.87,1l-1.42.59-1.35.73a25.87,25.87,0,0,0-2.57,1.69,23.49,23.49,0,0,0-2.33,2,20.07,20.07,0,0,0-2,2.33c-.31.43-.62.8-.91,1.29l-.74,1.31a21.24,21.24,0,0,0-1.23,2.86,22.7,22.7,0,0,0-.78,3,23.58,23.58,0,0,0-.32,3,20.29,20.29,0,0,0,.12,3,26.25,26.25,0,0,0,.62,3,21.19,21.19,0,0,0,.88,2.54l-2.3,1.37c-.88.52-1.8.92-2.69,1.39s-1.85.82-2.78,1.23a24.12,24.12,0,0,1-2.85,1,19.29,19.29,0,0,1-2.92.77l-3,.59a47,47,0,0,1-6.05.23c-.44,0-1-.14-1.51-.2l-.69-.09-.75-.21a11.75,11.75,0,0,1-2.72-1.07,10.62,10.62,0,0,1-2.16-1.85,13.13,13.13,0,0,1-1.71-2.34,21,21,0,0,1-1.09-2.75,24.54,24.54,0,0,1-.68-2.91c-.1-1-.28-2-.3-3s0-1.83,0-2.77c1.27-1.12,2.63-2.22,3.83-3.41l3.79-3.63c1.32-1.2,2.54-2.51,3.77-3.83l3.69-3.91c1.22-1.37,2.31-2.73,3.49-4.09s2.34-2.69,3.4-4.14l3.25-4.29,1.62-2.17,1.51-2.23,2.93-4.54c1-1.51,1.79-3.11,2.68-4.67s1.78-3.12,2.6-4.77a49,49,0,0,0,2.16-4.91,42.13,42.13,0,0,0,1.77-5.14c.23-.88.4-1.8.59-2.69a21.13,21.13,0,0,0,.29-2.77,14.6,14.6,0,0,0-.12-2.84l-.26-1.32-.48-1.4c-.26-.59-.46-.83-.68-1.27a5.77,5.77,0,0,0-.94-1.15l-.53-.58a5.62,5.62,0,0,0-.65-.43l-.54-.37-.29-.18-.15-.09h-.17c-.21.45.17-.45,0,0l-.23-.11h0a6.41,6.41,0,0,0-1.51-.37l-1.31-.08a8.63,8.63,0,0,0-1.52.17l-.37.07h-.4l-.62.21A15.87,15.87,0,0,0,226.41,70a26.54,26.54,0,0,0-3.88,3.69,46.37,46.37,0,0,0-3.38,4l-1.61,2.13c-.54.8-.95,1.51-1.43,2.24l-2.81,4.41-.7,1.11c-.29.48-.44.8-.66,1.21l-1.23,2.29-2.48,4.54-2.18,4.88L205,102.9l-.56,1.22-.47,1.23-1.86,4.88-.93,2.45-.75,2.53-1.51,5.06c-.56,1.74-.8,3.42-1.23,5.13a35.92,35.92,0,0,0-.95,5.17l-.62,4.9-3.58,2.82c-1.24,1.05-2.59,2-3.9,2.91l-2,1.42c-.57.45-1.36.86-2,1.28l-4.18,2.56a33.29,33.29,0,0,1-4.3,2.27l-4.35,2.08c-1.39.68-3,1.15-4.54,1.74a36.36,36.36,0,0,1-4.54,1.3,27.54,27.54,0,0,1-4.79.8,37.13,37.13,0,0,1-4.72.26,21.11,21.11,0,0,1-2.22-.3l-1.15-.41-.57-.21-.46-.29-.9-.56-.85-.78a10.11,10.11,0,0,1-1.51-1.76,17.59,17.59,0,0,1-2.21-6.61,18.47,18.47,0,0,1-.2-2.35,25.35,25.35,0,0,1,.25-4.77,26.91,26.91,0,0,1,.78-4.25l12-1.89,3.13-.48c1.06-.18,2.07-.41,3-.6s2.09-.4,3-.64l1.51-.36a9,9,0,0,0,1.51-.52h0l.18-.09h.14l.34-.22.37-.25h0l.12-.1h0l.15-.15a7.6,7.6,0,0,0,1.19-1.52,8.37,8.37,0,0,0,.79-1.72,13.83,13.83,0,0,0,.44-1.68l.1-.93v-.94a8.7,8.7,0,0,0-.15-1.77,10.56,10.56,0,0,0-1.15-3.45,15.7,15.7,0,0,0-.93-1.51,18.6,18.6,0,0,0-1.3-1.36,10.71,10.71,0,0,0-3.15-1.88,11.61,11.61,0,0,0-2.87-1,17.81,17.81,0,0,0-1.79,0,12.55,12.55,0,0,0-1.73.22,14.39,14.39,0,0,0-1.74.31l-.46.12-.39.1-.85.27c-.59.23-1,.38-1.63.65l-.77.37a6.53,6.53,0,0,0-.82.45l-1.51.88c-.6.39-.95.69-1.42,1a29,29,0,0,0-2.63,2.33,26.63,26.63,0,0,0-2.1,2.75,15.19,15.19,0,0,0-1,1.51l-.85,1.52a25.05,25.05,0,0,0-1.62,3l-1.16,2.81-4.61.41-2.5.23c-.41,0-.82,0-1.24,0h-2.48c-.33,0-.83-.09-1.24-.11l-2.51-.2-4.11-.31a21,21,0,0,0,.85-2.29l.47-1.66a12.21,12.21,0,0,0,.3-1.69,7.75,7.75,0,0,0-.45-3.57,4.25,4.25,0,0,0-.44-.91l-.58-.69a6.11,6.11,0,0,0-1.51-1.26l-.74-.36c-.29-.11-.62-.2-.92-.29a14.81,14.81,0,0,0-1.76-.2h-.93l-.83.08c-.59.12-1.15.2-1.76.36a32.87,32.87,0,0,0-3.17,1.08,16.81,16.81,0,0,0-1.61.68l-1.51.75c-1,.55-1.93,1-3,1.61l-1.41.89a12,12,0,0,0-1.34,1.13l-.16.14h0l-.1.1h0l-.24.34a7.54,7.54,0,0,0-.52.8,4.75,4.75,0,0,0-.63,2,6.17,6.17,0,0,0,0,.86,4.07,4.07,0,0,0,.22,1l.4.8a6.5,6.5,0,0,0,.65.84,8.5,8.5,0,0,0,1.36,1.1,16.47,16.47,0,0,0,1.51.77c.55.22,1.12.41,1.69.58l1.62.36c1.11.22,2.1.5,3.31.69l2.29.32-2,2.77-1.12,1.72c-.4.56-.91,1.15-1.35,1.73l-2.75,3.43-1.35,1.77c-.4.53-1,1.1-1.43,1.63a43.73,43.73,0,0,1-3,3.21L98,150.06c-.47.47-1.09.95-1.63,1.42l-1.68,1.42c-.47.36-1.19.79-1.77,1.18a7,7,0,0,1-1.81.8l-.53.12H90.2l-.39-.07a.21.21,0,0,0-.13-.19,4.5,4.5,0,0,1-.26-.81l-.11-.52V153c0-.69-.16-1.52-.13-2v-4.18c.15-2.76.34-5.54.59-8.32l.65-8.36v-5.28a3.21,3.21,0,0,0-.12-1.12v-.25l0-.25v-.12l-.16-.5c0-.12,0,0-.15-.34L89.9,122l-.44-.5a2.18,2.18,0,0,0-.34-.26h-.4c-.34-.1-.66-.16-1-.24l-1.1-.15c-.74-.09-1.52-.12-2.17-.2H80a27.14,27.14,0,0,0-4.34.23c-1.45.23-2.91.26-4.33.48h-.5v.5l.16,1.83v.5h8l1.89.08H82.8l.9.1.94.14a9,9,0,0,1,1.69.26,13.57,13.57,0,0,1-.07,1.67l-.12,2.12c0,.71-.14,1.33-.21,2.07l-.14,2-1,8.41c-.18,1.41-.28,2.84-.4,4.23,0,.71-.15,1.41-.15,2.12v4.31l.17,2.12a11.3,11.3,0,0,0,.45,2.17,6.36,6.36,0,0,0,.91,2h.09a4.36,4.36,0,0,0,1,1A6.16,6.16,0,0,0,91.22,160l1.36-.29a14.5,14.5,0,0,0,1.39-.5A13.49,13.49,0,0,0,96.46,158c.4-.27.75-.47,1.2-.8l1.06-.91,2.19-1.87c.79-.67,1.31-1.35,2-2l1.86-2,1.92-2,1-1,.88-1.09,3.47-4.35c.55-.71,1.23-1.51,1.73-2.24l1.58-2.3,3.13-4.53,10.29.77h4l1.34-.12,4.75-.43a35.08,35.08,0,0,0-.7,4.67,30.92,30.92,0,0,0,0,5.27,27.84,27.84,0,0,0,.9,5.21c.24.88.57,1.65.86,2.48s.8,1.51,1.21,2.38a17.64,17.64,0,0,0,1.51,2.14,11.91,11.91,0,0,0,1.95,1.86,13.25,13.25,0,0,0,4.73,2.33,19.5,19.5,0,0,0,5.27.52c1.78-.19,3.47-.29,5.21-.53a36.78,36.78,0,0,0,5.16-1.11,48.55,48.55,0,0,0,5-1.51l2.46-.91c.85-.31,1.51-.74,2.38-1.1l4.7-2.27a43,43,0,0,0,4.53-2.58l4.54-2.76c1.51-1,2.81-2.05,4.22-3l3.75-2.81a18.08,18.08,0,0,0,.27,2.84,26.49,26.49,0,0,0,.64,3.31,19.85,19.85,0,0,0,1.14,3.19,16,16,0,0,0,1.68,3,9.63,9.63,0,0,0,1.09,1.3,9.48,9.48,0,0,0,1.18,1.19,14.34,14.34,0,0,0,2.87,1.88c.5.24,1,.51,1.52.71l1.64.48a20.36,20.36,0,0,0,6.73.59l3.33-.23c1.12-.12,2.22-.41,3.32-.6l1.67-.33,1.6-.5a27.85,27.85,0,0,0,3.18-1.11,31.1,31.1,0,0,0,3-1.33c1-.51,2-1,3-1.51l2.74-1.62,1.12,1.41c.2.26.47.47.69.71l.72.68a4.67,4.67,0,0,0,.75.65l.79.59a12.78,12.78,0,0,0,1.69,1,12,12,0,0,0,1.82.83,11.26,11.26,0,0,0,1.89.61,6.38,6.38,0,0,0,1,.23l1,.13a13,13,0,0,0,2,.15h.09A32.71,32.71,0,0,0,257,159a15,15,0,0,0,3-.74,29.74,29.74,0,0,0,3-1.12c.46-.24.95-.47,1.4-.73l1.36-.86a16.68,16.68,0,0,0,2.45-2.07,19.29,19.29,0,0,0,2.09-2.43,20.1,20.1,0,0,0,1.51-2.82,9,9,0,0,0,.61-1.51,13.24,13.24,0,0,0,.48-1.51l.38-1.51.22-1.52a22.8,22.8,0,0,0,.17-3.2,19.93,19.93,0,0,0-.32-3.18l-.21-1.51c-.09-.53-.29-1-.42-1.51a25.91,25.91,0,0,0-1-3,25.44,25.44,0,0,0-1.39-2.88,22.62,22.62,0,0,0-1.6-2.39l4.53,1.23c1.64.41,3.25.77,4.9,1.07a97.55,97.55,0,0,0,9.93,1.23h0l2.5-2a11.41,11.41,0,0,1,1.32-.85l1.31-.83.3-.2Zm-39.67.13h.13l.56-.12,3.45-.68-.35,1-.84,1.69-.9,1.77a17,17,0,0,1-1,1.64c-.72,1.1-1.38,2.26-2.18,3.28L251.41,134a16,16,0,0,1-1.18,1.51c-.86,1-1.69,2-2.57,3l-2.78,2.76c-1,.86-2,1.73-3,2.59s-2,1.6-3,2.39l-.33-2a9.87,9.87,0,0,1-.17-2.24,8.37,8.37,0,0,1,.17-2.29,20.54,20.54,0,0,1,.35-2.2c.24-.69.44-1.39.65-2.08a13,13,0,0,1,1-2l.55-1a8.58,8.58,0,0,1,.65-.84l1.28-1.61,1.71-1.51a10.09,10.09,0,0,1,1.77-1.28,13.88,13.88,0,0,1,1.8-1.12l2.07-1c.68-.29,1.37-.55,2.07-.77l1-.34.28-.09Zm-9.32,23.53,3.19-3.13,5.79-6.59c.52-.61.91-1.16,1.38-1.75l1.35-1.73c.45-.57.83-1.21,1.27-1.81l1.22-1.85a15.34,15.34,0,0,0,1.13-1.92l1.05-1.93c.16-.34.33-.59.53-1l.39-1,.39-1a3.28,3.28,0,0,0,.18-.61l1.15,1.14c.47.54.91,1.12,1.35,1.68a9.15,9.15,0,0,1,.59.89l.57.92a9.12,9.12,0,0,1,1,1.89l.89,2c.22.68.38,1.39.58,2.08l.29,1,.15,1.07.28,2.13v2.59a15.4,15.4,0,0,1-.39,2.51c-.09.4-.15.84-.26,1.24l-.45,1.21a14.65,14.65,0,0,1-1.16,2.22,11,11,0,0,1-1.52,1.93c-.3.31-.6.62-.92.9l-.95.74a18.63,18.63,0,0,1-2.13,1.22l-.56.27-.55.19-1.22.4-1.23.4-1.21.21c-.81.1-1.51.33-2.41.38-.4,0-.94.09-1.21.09h-3.09l-.63-.09-.65-.09-.52-.13a8.55,8.55,0,0,1-1.19-.36l-1.08-.44-1-.59a10.93,10.93,0,0,1-1-.71l-.24-.18s-.12-.09-.09,0l-.11-.12-.46-.45a8.2,8.2,0,0,1-1.18-1.32Zm-9.58-76H235a.49.49,0,0,1,.26.12l.5.32h0l.2.23a2.72,2.72,0,0,1,.34.42,5.1,5.1,0,0,1,.64,1.85v.25h0v2.14c-.09.72-.18,1.51-.29,2.14-.39,1.51-.74,3.13-1.21,4.54a40.33,40.33,0,0,1-1.69,4.38l-1,2.12-.47,1-.57,1-2.27,4.14a45.39,45.39,0,0,1-2.37,4l-2.56,3.93-1.27,2L221.9,108l-2.81,3.78c-1.86,2.54-3.93,4.89-5.88,7.34-1,1.22-2.09,2.34-3.12,3.52l-3.17,3.49c-1.06,1.15-2.21,2.21-3.33,3.33l-3.25,3.19.78-5,1.17-5.19,2.39-7.56c.36-1.27.94-2.46,1.42-3.69l1.51-3.66a34.92,34.92,0,0,1,1.62-3.59l1.74-3.57c.59-1.18,1.12-2.41,1.8-3.53l1.9-3.44c.64-1.14,1.27-2.35,1.91-3.4l2.14-3.33,2.14-3.34c.63-1,1.51-2.1,2.29-3.15s1.68-2,2.51-3l.65-.73.26-.31.38-.32,1.51-1.33c.47-.41,1-1,1.41-1.26a13,13,0,0,1,1.51-1,8.39,8.39,0,0,1,1.51-.65,7.32,7.32,0,0,1,.94-.12,6.53,6.53,0,0,1,1,0Zm-67.5,50.78v.1l-.21.44c-.14.35-.3.35-.42.58h-.09l-.53.16-.65.17-1.35.32c-.86.21-1.78.37-2.68.57l-1.34.27c-.47.09-.88.2-1.33.27l-2.72.47c-3.54.62-7.06,1.36-10.59,2l1-2.33,1.42-2.4,1.18-1.52c.42-.49.88-1,1.32-1.42a12.38,12.38,0,0,1,1.51-1.25,16.27,16.27,0,0,1,1.51-1.11,13.45,13.45,0,0,1,1.66-.92,11,11,0,0,1,1.74-.72,11.28,11.28,0,0,1,1.61-.44l.4-.11h.41l1-.13.88-.13h1a8.63,8.63,0,0,1,1.68.25l.75.24c.28.15.62.29.84.44a4.76,4.76,0,0,1,1.14,1.1l.25.33v.09h0l.1.22a3.57,3.57,0,0,1,.35.83,5,5,0,0,1,.32,1.68,5.31,5.31,0,0,1-.17,1.73v.2S167.26,122.3,167.3,122.21Zm-51.57,5.17-1.14-.24c-.5-.13-1-.22-1.51-.31l-1.51-.24-.76-.12-.66-.15-3-.59h-.56l-.72-.27-.59-.21a1.31,1.31,0,0,1,.32-.25l.9-.6.46-.3.1-.08h0l.23-.14,1-.51,1.93-1.06.49-.27.45-.2,1-.45c.66-.33,1.34-.51,2-.77l.48-.18.55-.11,1.07-.21a3.62,3.62,0,0,1,1,0,3.53,3.53,0,0,1,.46.15c.13.17.27.2.3.39a2.75,2.75,0,0,1,.12,1.06,6.61,6.61,0,0,1-.12,1.08,13.84,13.84,0,0,1-1.07,2.69C116.59,126,116.17,126.68,115.73,127.38ZM237.16,67.23l-.34.73h0ZM88.89,121h0s.1,0,.18.35a.43.43,0,0,1-.08.33,1.41,1.41,0,0,0-.39-.24Z"/></svg>