<svg id="Layer_1" data-name="Layer 1" xmlns="http://www.w3.org/2000/svg" viewBox="0 0 510.24 226.77"><defs><style>.cls-1{fill-rule:evenodd;}</style></defs><path d="M230.87,176.21l9.69-16.39-7.78-44.47h19.95l1.18,24.76,11.25-24.76H284.6l-35.55,60.86Zm-27.05-15.5.83-5a25.19,25.19,0,0,1-6.68,4.74,16.43,16.43,0,0,1-6.9,1.46q-6.31,0-9.85-4.11t-3.52-11.61q0-13.73,6.37-22.88c4.26-6.1,9.51-9.15,15.81-9.15a13.27,13.27,0,0,1,6.4,1.48,15,15,0,0,1,4.95,4.72l5.65-30.21h19.06l-13.05,70.57Zm4.55-27.39a6.87,6.87,0,0,0-1-4,3.27,3.27,0,0,0-2.86-1.33c-1.91,0-3.54,1.39-4.88,4.19a23.7,23.7,0,0,0-2,10.37,7.06,7.06,0,0,0,.9,4,3.28,3.28,0,0,0,2.83,1.25c1.93,0,3.59-1.41,5-4.2A23.34,23.34,0,0,0,208.37,133.32Zm-83.11,27.39,8.4-45.36H151l-.89,4.68a19.12,19.12,0,0,1,13.57-5.49c4.12,0,7.3.9,9.57,2.68a9.08,9.08,0,0,1,3.39,7.56,23.75,23.75,0,0,1-.16,2.62c-.1,1-.28,2.2-.56,3.72l-5.45,29.59H151.26l5-26.77a4.8,4.8,0,0,1,.05-.52,9.83,9.83,0,0,0,.16-1,2.46,2.46,0,0,0-.83-2,3.5,3.5,0,0,0-2.34-.71,3.31,3.31,0,0,0-2.56,1.13,6.54,6.54,0,0,0-1.36,3.3l-5,26.58ZM94.38,138.12h8.43l.27-24ZM65,160.71,93.39,96h24.92l5.34,64.67H102.3l.11-9.53H89.92l-3.31,9.53Z"/><path d="M442.06,85.41h-10l-13.91,75.3h10Zm-38.73,75.3h10l8.49-45.82h-10l-1,5.08h-.21a9,9,0,0,0-1.68-3,7.51,7.51,0,0,0-2.8-2.06,9.89,9.89,0,0,0-4-.75,12.66,12.66,0,0,0-5.55,1.18,13.34,13.34,0,0,0-4.21,3.1,20.29,20.29,0,0,0-3,4.38,34.47,34.47,0,0,0-2.12,5q-.84,2.58-1.38,5c-.37,1.61-.65,3.07-.88,4.35s-.5,2.72-.74,4.37-.41,3.4-.52,5.22a31.16,31.16,0,0,0,.18,5.31,14.56,14.56,0,0,0,1.31,4.7,8,8,0,0,0,2.93,3.34,9.27,9.27,0,0,0,5,1.29,12.72,12.72,0,0,0,4.79-.84,10.32,10.32,0,0,0,3.43-2.29,24.58,24.58,0,0,0,2.82-3.5h.21Zm-4.67-6.9a4.34,4.34,0,0,1-2.9-.92,4.9,4.9,0,0,1-1.51-2.39,11.3,11.3,0,0,1-.46-3.28,25.73,25.73,0,0,1,.22-3.61c.16-1.2.33-2.32.53-3.34s.37-1.86.51-2.51.26-1.47.44-2.49.43-2.11.71-3.31a34.29,34.29,0,0,1,1.11-3.58A16.6,16.6,0,0,1,399,125.1a8.18,8.18,0,0,1,2.37-2.39,5.81,5.81,0,0,1,3.24-.92,3.68,3.68,0,0,1,2.62.92,5.08,5.08,0,0,1,1.34,2.4,12.26,12.26,0,0,1,.43,3.3,28.62,28.62,0,0,1-.18,3.58c-.14,1.21-.3,2.32-.48,3.32s-.32,1.83-.44,2.45-.25,1.43-.44,2.44-.44,2.12-.75,3.33a33.74,33.74,0,0,1-1.16,3.62,16.82,16.82,0,0,1-1.67,3.31,8.48,8.48,0,0,1-2.26,2.42A5.1,5.1,0,0,1,398.66,153.81ZM376,101.92l-2.44,13h-5.42l-1.27,6.72h5.41L365,160.71h10l7.22-39.1h5.3l1.28-6.72h-5.31l2.44-13Zm-11.68,14.24a14.88,14.88,0,0,0-4.06-1.54,20,20,0,0,0-4.64-.45,18.68,18.68,0,0,0-7.78,1.63,16.4,16.4,0,0,0-5.84,4.41,14.59,14.59,0,0,0-3,6.48,10.94,10.94,0,0,0,.25,5.42,10.57,10.57,0,0,0,2.37,3.95,24.47,24.47,0,0,0,3.48,3c1.26.89,2.44,1.76,3.56,2.63a10.49,10.49,0,0,1,2.58,2.79,5,5,0,0,1,.6,3.5,6.71,6.71,0,0,1-2.47,4.23,8.43,8.43,0,0,1-5.27,1.57,11,11,0,0,1-4.32-.8,15,15,0,0,1-3.43-2.1l-1.49,8.35a18.68,18.68,0,0,0,2.55,1.25,13.11,13.11,0,0,0,2.62.7,19.44,19.44,0,0,0,3.11.23,20.47,20.47,0,0,0,8.54-1.74,16,16,0,0,0,9.29-11.87,11.73,11.73,0,0,0-.18-5.57,10.68,10.68,0,0,0-2.33-4,22.83,22.83,0,0,0-3.43-3c-1.26-.87-2.43-1.72-3.54-2.55a11.12,11.12,0,0,1-2.65-2.66,4.73,4.73,0,0,1-.71-3.34,5.25,5.25,0,0,1,1.47-2.65,7.09,7.09,0,0,1,2.76-1.66,10.12,10.12,0,0,1,3.52-.59,10.53,10.53,0,0,1,2.52.31,12.91,12.91,0,0,1,2.45.85,9.93,9.93,0,0,1,2,1.29Zm-50.08-1.27h-10l-8.49,45.82h10l5.3-28.58c.18-1,.39-2.09.64-3.27a15.24,15.24,0,0,1,1.15-3.37,6.86,6.86,0,0,1,2.26-2.64,6.73,6.73,0,0,1,3.91-1.06,5.87,5.87,0,0,1,3,.68,3.45,3.45,0,0,1,1.47,1.75,6.07,6.07,0,0,1,.36,2.35,13.67,13.67,0,0,1-.3,2.48l-5.84,31.66h10l5.84-31.48c.27-1.41.5-2.83.65-4.25a18.62,18.62,0,0,0,.08-4.07,8.13,8.13,0,0,0-1.07-3.46,6.15,6.15,0,0,0-2.79-2.39,12.34,12.34,0,0,0-5-.89,15.78,15.78,0,0,0-3.68.4,13.16,13.16,0,0,0-3.22,1.23,15.71,15.71,0,0,0-2.62,1.83,18.51,18.51,0,0,0-2.37,2.52h-.21Zm-18.36-8.16A8.62,8.62,0,0,0,302,103.9a5.93,5.93,0,0,0,1.43-2.89,4.3,4.3,0,0,0-.37-2.83,4.91,4.91,0,0,0-2-2,6.45,6.45,0,0,0-3.13-.77,8.53,8.53,0,0,0-3.52.77,8.1,8.1,0,0,0-2.76,2A6.38,6.38,0,0,0,290.2,101a4.67,4.67,0,0,0,.41,2.89,4.81,4.81,0,0,0,2,2A6.72,6.72,0,0,0,295.83,106.73Zm3.39,8.16h-10l-8.49,45.82h10Z"/><path class="cls-1" d="M309.23,96.27h39.88l66-45.71,30.16,20.53-2.2,9.36L415.7,61.8l-61.37,41.77-2.71.37H309.69a11.46,11.46,0,0,0,.28-1.19A10.82,10.82,0,0,0,309.23,96.27Zm-66.84,0h43.37a12,12,0,0,0-1.53,4,11.51,11.51,0,0,0-.06,3.7H240.86Z"/><path d="M309.23,96.27h39.88l66-45.71,30.16,20.53-2.2,9.36L415.7,61.8l-61.37,41.77-2.71.37H309.69a11.46,11.46,0,0,0,.28-1.19A10.82,10.82,0,0,0,309.23,96.27Zm-66.84,0h43.37a12,12,0,0,0-1.53,4,11.51,11.51,0,0,0-.06,3.7H240.86Z"/><polygon class="cls-1" points="136.23 96.27 209.26 96.27 207.67 103.94 134.69 103.94 136.23 96.27"/><polygon points="136.23 96.27 209.26 96.27 207.67 103.94 134.69 103.94 136.23 96.27"/></svg>