<svg id="Layer_1" data-name="Layer 1" xmlns="http://www.w3.org/2000/svg" viewBox="0 0 510.24 226.77"><defs><style>.cls-1{fill:#2d2a26;}.cls-2{fill:#231f20;}</style></defs><path class="cls-1" d="M474.8,135.89v3h-2.48v-3ZM462,125.07c-2,0-3.25.32-3.73,1s-.72,2.35-.72,5.1.24,4.45.72,5.1,1.72,1,3.73,1,3.26-.32,3.73-1,.72-2.35.72-5.1-.24-4.45-.72-5.1S464,125.07,462,125.07Zm0-1.88q4.27,0,5.55,1.49t1.28,6.46q0,5-1.28,6.46T462,139.09q-4.28,0-5.55-1.49t-1.27-6.46q0-5,1.27-6.46T462,123.19Zm-10.36,12.7v3h-2.49v-3Zm-15.45-12.47h2.26l-.22,1.77.05,0a4.78,4.78,0,0,1,4.42-2.18c2.84,0,4.27,1.47,4.27,4.4l0,1.06h-2.23l.05-.38c0-.41.05-.69.05-.83,0-1.58-.87-2.37-2.59-2.37-2.52,0-3.78,1.56-3.78,4.66v9.26h-2.26ZM432,135.89v3h-2.49v-3Zm-6.19-8.43h-2.26c0-1.08-.21-1.75-.65-2a8.59,8.59,0,0,0-3.37-.38,7.43,7.43,0,0,0-3.19.41c-.46.28-.68.93-.68,2a2.18,2.18,0,0,0,2.27,2.49l1.83.09,2.31.12c2.8.13,4.2,1.6,4.2,4.39,0,1.73-.47,2.92-1.39,3.57s-2.63,1-5.09,1-4.28-.31-5.23-.92a3.71,3.71,0,0,1-1.43-3.38l0-.84h2.34l0,.73a2.3,2.3,0,0,0,.77,2,6.2,6.2,0,0,0,3.05.5,8.15,8.15,0,0,0,3.68-.53,2.4,2.4,0,0,0,.88-2.23c0-1.62-.74-2.44-2.21-2.44-3.44,0-5.69-.29-6.78-.87s-1.62-1.79-1.62-3.62.43-2.89,1.28-3.46,2.56-.87,5.12-.87c4.09,0,6.13,1.24,6.13,3.7Zm-25.66,5.83h2.26v.84c0,3.3-2.16,5-6.49,5q-4.17,0-5.51-1.57c-.89-1-1.34-3.2-1.34-6.46,0-3.06.46-5.13,1.37-6.23s2.64-1.64,5.19-1.64,4.22.37,5.13,1.11,1.38,2.12,1.38,4.16h-2.26v-.4a2.74,2.74,0,0,0-.89-2.4,7.06,7.06,0,0,0-3.54-.59c-1.7,0-2.79.37-3.28,1.13s-.73,2.44-.73,5.07.28,4.2.84,4.9,1.85,1,3.88,1c1.73,0,2.82-.23,3.28-.69S400.11,135,400.11,133.29Zm-14.8-9.87v15.44h-2.26l.16-2,0,0c-.79,1.52-2.47,2.29-5.05,2.29q-5.42,0-5.41-5.4V123.42H375v10.27a4.13,4.13,0,0,0,.69,2.81,3.87,3.87,0,0,0,2.74.71c1.77,0,3-.35,3.66-1.06s1-2,1-3.88v-8.85Zm-22.95,1.65c-2,0-3.25.32-3.73,1s-.72,2.35-.72,5.1.24,4.45.72,5.1,1.72,1,3.73,1,3.26-.32,3.73-1,.72-2.35.72-5.1-.24-4.45-.72-5.1S364.37,125.07,362.36,125.07Zm0-1.88q4.27,0,5.55,1.49t1.28,6.46q0,5-1.28,6.46t-5.55,1.49q-4.28,0-5.55-1.49t-1.27-6.46q0-5,1.27-6.46T362.36,123.19Zm-33.7.23h2.26l-.05,2.32.05.05q1.31-2.6,5-2.6,3.92,0,4.76,2.6h.07q1.45-2.6,5.31-2.6,5.47,0,5.47,5.58v10.09H349.3v-10.3a4,4,0,0,0-.72-2.77,4,4,0,0,0-2.75-.72c-1.79,0-3,.33-3.64,1s-.95,2-.95,3.85v8.93H339V128.77l0-.71q0-3-3.4-3c-3.09,0-4.62,1.67-4.62,5v8.77h-2.26Zm-10.35,1.65c-2,0-3.25.32-3.73,1s-.72,2.35-.72,5.1.24,4.45.72,5.1,1.72,1,3.73,1,3.25-.32,3.73-1,.72-2.35.72-5.1-.24-4.45-.72-5.1S320.32,125.07,318.31,125.07Zm0-1.88q4.28,0,5.55,1.49t1.28,6.46q0,5-1.28,6.46t-5.55,1.49q-4.28,0-5.55-1.49t-1.27-6.46q0-5,1.27-6.46T318.31,123.19ZM308,116.81v22.05h-2.27V116.81Zm-14.4,1.88c-3.49,0-5.53.38-6.12,1.16s-.89,3.44-.89,8,.3,7.22.89,8,2.63,1.17,6.12,1.17,5.55-.39,6.14-1.17.89-3.44.89-8v-1.44l0-2.08c0-2.44-.41-4-1.22-4.64S296.59,118.69,293.55,118.69Zm0-2.1c4.17,0,6.77.6,7.82,1.82s1.57,4.26,1.57,9.13c0,5.24-.51,8.48-1.51,9.71s-3.63,1.84-7.88,1.84-6.86-.61-7.87-1.83-1.53-4.36-1.53-9.43v-1.55l0-2.08c0-2.94.66-4.93,2-6S290,116.59,293.57,116.59Zm-21,6.83-4.37,16.33a12.57,12.57,0,0,1-2,4.75,4,4,0,0,1-3.21,1.29,7.27,7.27,0,0,1-1.08-.11V143.8a4.62,4.62,0,0,0,.79.12c1.21.06,2.12-.92,2.71-3l.44-1.52.14-.58h-.85l-5.59-15.44h2.41l2.37,6.88,1.19,3.42.59,1.73.59,1.72h.07l.42-1.72.4-1.73.87-3.42,1.75-6.88Zm-22.93-6.61v12.81h1l5.46-6.2H259l-6.6,7.09,7.8,8.35h-3.06l-6.55-7.48h-.92v7.48h-2.26V116.81Zm-4.85,6.61v1.87h-5.94v9.45c0,1.65.73,2.47,2.19,2.47a1.94,1.94,0,0,0,2.19-2.21v-.76l0-.85h2.1l0,1.14c0,3-1.45,4.56-4.33,4.56s-4.48-1.26-4.48-3.79v-10h-2.12v-1.87h2.12V119.7h2.27v3.72Zm-19.06,7.8a6.67,6.67,0,0,0-3.38.55c-.53.36-.79,1.15-.79,2.36a3,3,0,0,0,.78,2.48,5.6,5.6,0,0,0,3.15.6q4.78,0,4.78-2.9a2.78,2.78,0,0,0-.93-2.46A7.05,7.05,0,0,0,225.74,131.22Zm-3.64-3.47h-2.24c0-1.8.41-3,1.22-3.63s2.4-.93,4.77-.93q3.85,0,5.22,1.14c.9.76,1.35,2.2,1.35,4.34v10.19h-2.26l.18-1.66-.05,0c-.86,1.28-2.61,1.91-5.25,1.91-3.9,0-5.84-1.57-5.84-4.7,0-1.86.43-3.15,1.3-3.86s2.46-1.07,4.74-1.07c2.71,0,4.34.54,4.88,1.6l0,0v-1.87c0-1.77-.24-2.91-.72-3.44s-1.55-.78-3.19-.78q-4.16,0-4.16,2.34C222.09,127.37,222.09,127.52,222.1,127.75Zm-4.94-4.33v1.87h-5.95v9.45c0,1.65.74,2.47,2.2,2.47A1.94,1.94,0,0,0,215.6,135v-.76l0-.85h2.1l0,1.14c0,3-1.45,4.56-4.33,4.56S209,137.83,209,135.3v-10h-2.13v-1.87H209V119.7h2.26v3.72Zm-11.89,4H203q0-1.62-.66-2a8.49,8.49,0,0,0-3.36-.38,7.48,7.48,0,0,0-3.2.41c-.45.28-.68.93-.68,2a2.18,2.18,0,0,0,2.28,2.49l1.82.09,2.32.12c2.79.13,4.19,1.6,4.19,4.39,0,1.73-.46,2.92-1.39,3.57s-2.62,1-5.09,1-4.27-.31-5.22-.92-1.43-1.74-1.43-3.38V134H195v.73a2.28,2.28,0,0,0,.78,2,6.15,6.15,0,0,0,3,.5,8.1,8.1,0,0,0,3.67-.53,2.4,2.4,0,0,0,.89-2.23c0-1.62-.74-2.44-2.22-2.44q-5.15,0-6.77-.87c-1.08-.58-1.62-1.79-1.62-3.62s.43-2.89,1.28-3.46,2.56-.87,5.11-.87c4.09,0,6.14,1.24,6.14,3.7Zm-33.1,3.76a6.67,6.67,0,0,0-3.38.55c-.53.36-.78,1.15-.78,2.36a3,3,0,0,0,.77,2.48,5.62,5.62,0,0,0,3.15.6q4.78,0,4.78-2.9a2.8,2.8,0,0,0-.92-2.46A7.12,7.12,0,0,0,172.17,131.22Zm-3.64-3.47h-2.24c0-1.8.41-3,1.22-3.63s2.4-.93,4.77-.93c2.57,0,4.32.38,5.22,1.14s1.36,2.2,1.36,4.34v10.19H176.6l.17-1.66-.05,0c-.86,1.28-2.61,1.91-5.25,1.91q-5.83,0-5.84-4.7c0-1.86.44-3.15,1.31-3.86s2.45-1.07,4.73-1.07c2.72,0,4.34.54,4.88,1.6l0,0v-1.87c0-1.77-.25-2.91-.73-3.44s-1.55-.78-3.18-.78q-4.17,0-4.17,2.34C168.52,127.37,168.52,127.52,168.53,127.75Zm244.21-39.9-4.37,16.33a12.4,12.4,0,0,1-2.05,4.75,4,4,0,0,1-3.2,1.29,7.51,7.51,0,0,1-1.09-.11v-1.88a4.86,4.86,0,0,0,.8.12c1.21.06,2.12-.92,2.71-3l.44-1.52.14-.58h-.85l-5.59-15.44h2.41l2.37,6.88,1.19,3.42.59,1.73.59,1.72h.07l.42-1.72.4-1.73.87-3.42,1.75-6.88Zm-14.66,4h-2.26q0-1.62-.66-2a8.56,8.56,0,0,0-3.36-.38,7.45,7.45,0,0,0-3.2.41c-.45.28-.68.93-.68,2a2.18,2.18,0,0,0,2.28,2.49l1.82.09,2.31.12c2.8.13,4.2,1.6,4.2,4.39,0,1.73-.47,2.92-1.39,3.57s-2.62,1-5.09,1-4.27-.31-5.23-.92a3.71,3.71,0,0,1-1.43-3.38l0-.84h2.34l0,.73a2.28,2.28,0,0,0,.78,2,6.27,6.27,0,0,0,3.05.5,8.1,8.1,0,0,0,3.67-.53,2.4,2.4,0,0,0,.88-2.23c0-1.63-.74-2.44-2.21-2.44q-5.15,0-6.78-.87c-1.08-.58-1.62-1.79-1.62-3.62s.43-2.89,1.29-3.46,2.56-.87,5.11-.87c4.09,0,6.14,1.24,6.14,3.7Zm-17.85,2.34,0-.73c0-1.67-.27-2.75-.83-3.25s-1.73-.75-3.55-.75-3,.29-3.56.88-.82,1.87-.82,3.85Zm0,4.39h2.31v.57a3.75,3.75,0,0,1-1.46,3.37q-1.47,1-5.13,1c-2.85,0-4.71-.52-5.6-1.56S369,98.74,369,95.41q0-4.62,1.34-6.21c.89-1,2.65-1.58,5.25-1.58,2.84,0,4.71.46,5.59,1.37s1.33,2.84,1.33,5.78V96H371.42q0,3.65.78,4.65c.53.67,1.75,1,3.67,1a8.44,8.44,0,0,0,3.54-.47,2.22,2.22,0,0,0,.82-2.06ZM365.51,81.24v22.05h-2.27V81.24Zm-18.13.23,1.16,1.58L343.78,86,343,84.78Zm1.72,12.76,0-.73c0-1.67-.28-2.75-.83-3.25s-1.73-.75-3.55-.75-3,.29-3.56.88-.82,1.87-.82,3.85Zm0,4.39h2.31v.57a3.75,3.75,0,0,1-1.46,3.37q-1.47,1-5.13,1c-2.85,0-4.71-.52-5.6-1.56s-1.33-3.22-1.33-6.55c0-3.08.44-5.15,1.34-6.21s2.64-1.58,5.25-1.58c2.84,0,4.71.46,5.59,1.37s1.33,2.84,1.33,5.78V96H340.29q0,3.65.78,4.65c.53.67,1.75,1,3.66,1a8.53,8.53,0,0,0,3.55-.47,2.22,2.22,0,0,0,.82-2.06ZM326.38,81.24V94.05h1l5.46-6.2h2.84l-6.6,7.09,7.8,8.35h-3.06l-6.55-7.48h-.92v7.48h-2.26V81.24Zm-6,10.65h-2.26q0-1.62-.66-2a8.53,8.53,0,0,0-3.36-.38,7.48,7.48,0,0,0-3.2.41c-.45.28-.68.93-.68,2a2.18,2.18,0,0,0,2.28,2.49l1.82.09,2.31.12c2.8.13,4.2,1.6,4.2,4.39,0,1.73-.46,2.92-1.39,3.57s-2.62,1-5.09,1-4.27-.31-5.23-.92-1.42-1.74-1.42-3.38v-.84h2.35v.73a2.28,2.28,0,0,0,.78,2,6.27,6.27,0,0,0,3.05.5,8.1,8.1,0,0,0,3.67-.53,2.4,2.4,0,0,0,.88-2.23c0-1.63-.74-2.44-2.21-2.44q-5.14,0-6.77-.87c-1.08-.58-1.63-1.79-1.63-3.62s.43-2.89,1.29-3.46,2.56-.87,5.11-.87c4.09,0,6.14,1.24,6.14,3.7Zm-22.2-2.39q-2.72,0-3.54,1.17c-.55.78-.82,2.45-.82,5,0,2.38.29,4,.88,4.76s1.79,1.18,3.57,1.18,2.83-.38,3.37-1.14.82-2.35.82-4.73c0-2.64-.27-4.33-.8-5.11S300,89.5,298.22,89.5Zm-6.66-1.65h2.26l-.11,2,.06,0c.79-1.48,2.48-2.23,5.08-2.23q3.43,0,4.73,1.74c.86,1.17,1.29,3.31,1.29,6.44,0,2.89-.43,4.91-1.3,6s-2.43,1.69-4.66,1.69q-3.81,0-5-2h-.05v8.45h-2.26Zm-4.18,0v15.44h-2.26l.16-2,0,0c-.79,1.52-2.47,2.29-5.05,2.29q-5.42,0-5.41-5.4V87.85H277V98.12a4.13,4.13,0,0,0,.69,2.81,3.87,3.87,0,0,0,2.74.71c1.77,0,3-.35,3.66-1.06s1-2,1-3.88V87.85Zm-24.57-6.61V94.05h1l5.46-6.2h2.84l-6.6,7.09,7.8,8.35h-3l-6.56-7.48h-.92v7.48h-2.26V81.24Zm-6,10.65h-2.26q0-1.62-.66-2a8.49,8.49,0,0,0-3.36-.38,7.48,7.48,0,0,0-3.2.41c-.45.28-.68.93-.68,2A2.18,2.18,0,0,0,249,94.38l1.82.09,2.31.12c2.8.13,4.2,1.6,4.2,4.39,0,1.73-.46,2.92-1.39,3.57s-2.62,1-5.09,1-4.27-.31-5.23-.92-1.42-1.74-1.42-3.38v-.84h2.34l0,.73a2.28,2.28,0,0,0,.78,2,6.27,6.27,0,0,0,3.05.5,8.1,8.1,0,0,0,3.67-.53,2.4,2.4,0,0,0,.88-2.23c0-1.63-.74-2.44-2.21-2.44q-5.15,0-6.77-.87c-1.09-.58-1.63-1.79-1.63-3.62s.43-2.89,1.29-3.46,2.56-.87,5.11-.87c4.09,0,6.14,1.24,6.14,3.7Zm-15.93-4v15.44h-2.26V87.85Zm0-6.61v2.54h-2.26V81.24ZM228.54,89.5c-1.77,0-3,.38-3.56,1.14s-.91,2.26-.91,4.52c0,2.8.27,4.57.82,5.34s1.8,1.14,3.75,1.14c1.66,0,2.75-.39,3.29-1.16s.8-2.39.8-4.81-.27-4.22-.8-5S230.28,89.5,228.54,89.5Zm-6.8,13.79V81.24H224v8.58l.05.05q.76-2.25,5.07-2.25,3.39,0,4.69,1.76c.86,1.18,1.29,3.3,1.29,6.39,0,2.91-.46,4.94-1.37,6.06s-2.56,1.69-4.94,1.69-4-.72-4.84-2.15l-.06,0,.11,1.9Zm-4-15.44v15.44h-2.26V87.85Zm0-6.61v2.54h-2.26V81.24ZM210.1,97.72h2.26l0,.83q0,5-6.5,5c-2.78,0-4.61-.53-5.51-1.57S199,98.75,199,95.49c0-3.06.46-5.13,1.37-6.23s2.64-1.64,5.19-1.64,4.22.37,5.14,1.11,1.37,2.12,1.37,4.16h-2.26v-.4a2.74,2.74,0,0,0-.89-2.4,7,7,0,0,0-3.54-.59c-1.7,0-2.79.37-3.27,1.13s-.73,2.44-.73,5.07.28,4.2.83,4.9,1.85,1,3.88,1c1.73,0,2.82-.23,3.28-.69S210.1,99.42,210.1,97.72Zm-23.57-9.87h2.26l-.23,1.77.05,0A4.8,4.8,0,0,1,193,87.49q4.26,0,4.26,4.4V93h-2.23l0-.38c0-.41.05-.69.05-.83q0-2.37-2.58-2.37c-2.53,0-3.78,1.55-3.78,4.66v9.26h-2.26Zm-7.41,8.9-4.9-13.47-4.83,13.47Zm.72,1.87H168.68L167,103.29h-2.64l8.08-22.05h3.49l8.24,22.05h-2.61Z"/><path class="cls-2" d="M93.5,170.46l-.56-.32c-6.6-3.87-16.6-5.83-29.74-5.83a156.34,156.34,0,0,0-20,1.37l-2.35.33,2-1.34a286.31,286.31,0,0,1,44.41-25.06c-.62-.65-1.09-1.17-1.47-1.62s-1-1.19-1.48-1.78a317.8,317.8,0,0,0-46,26l-2.84,1.95,29.51-39.07L43.69,133,98.15,56.31l42.69,54.5-12.63-.22,16.92,11.51-2-.11c-1.32-.08-2.67-.12-4-.12a91,91,0,0,0-17,1.74,45.42,45.42,0,0,1-2.36,5,90.24,90.24,0,0,1,18.46-2.1c1.32,0,2.62,0,3.85.11l2.33.15-2.13.93c-34.61,15.12-45.45,34.52-48.5,42.16Zm-30.3-7.28c13,0,23,1.9,29.74,5.66,3.28-7.8,14.13-26.38,46.65-41.19h-1.4a89.49,89.49,0,0,0-19.22,2.3,56.38,56.38,0,0,1-6.14,8.4,60,60,0,0,1-13,10.8l0,0v0h0l-.33.18-.33-.18h0v0l0,0a59.11,59.11,0,0,1-11-8.66,293.31,293.31,0,0,0-42.7,23.8A155.9,155.9,0,0,1,63.2,163.18Zm4.94-40.44-27.7,36.68a303.48,303.48,0,0,1,43.05-24.14,46.32,46.32,0,0,1-9.66-23.14,49.65,49.65,0,0,1,1.54-20.25l.13-.38h47.84l.09.26a49.71,49.71,0,0,1,1.86,17.65l13.21.22L98.19,58.19,46.71,130.65Zm39.28-.79-7.06,25.48c1.43-1,2.84-2,4.27-3.06a80.74,80.74,0,0,0,7-6.49Zm-18.5,17.77.14.13a62.12,62.12,0,0,0,9.39,7.56L91,121.9l-4.14,15.64C87.36,138.11,88.53,139.31,88.92,139.72Zm36.33-29.79c-.06.72-.14,1.46-.23,2.2a46.92,46.92,0,0,1-2.44,10.23,89,89,0,0,1,18.61-1.58ZM112,118.74h9.94l-5-23.32Zm-11.7,0h10l-5-23.31Zm-11.69,0h9.94l-5-23.31Zm-11.7,0h9.94l-5-23.32Z"/></svg>