<svg id="Layer_1" data-name="Layer 1" xmlns="http://www.w3.org/2000/svg" viewBox="0 0 510.24 226.77"><defs><style>.cls-1{fill-rule:evenodd;}</style></defs><path class="cls-1" d="M374.74,90.81,388.53,107l50-16.2H474.8l-78.39,25.38L413.3,136H382.36l-4.54-5.33c-3.18-4.23-7.73-4.13-14.5-1.92L341,136H304.78l46.43-15.07c9.69-3.08,12.16-7,7.11-12.88l-14.68-17.2Z"/><path class="cls-1" d="M256.08,136,235.2,111.11l67.52,0c3.33,0,7-.13,9.42-3.53s2-5.19-1.28-5.27l-105.23,0,8.14-11.58H322.55c9.93.06,13.62,7.61,7.13,16.79-7,10.31-14.83,15.27-27.15,15.3l-33.08,0,12.31,13Zm-97.26,0,18-25.61-46.41,17c-18.74,6.93-24.22,6.7-38.86-3.67l-20.57-13.3L53.05,136H35.43L67,90.81h20.3l29.91,18.62c6.26,3.83,9.38,3.31,18.11-.14l50-18.48H208.2L176.46,136Z"/></svg>