<svg id="Layer_1" data-name="Layer 1" xmlns="http://www.w3.org/2000/svg" viewBox="0 0 510.24 226.77"><defs><style>.cls-1{fill:#1d1d1b;}</style></defs><path class="cls-1" d="M244.65,78.43h-4.88V86h6.41V79.24c0-.09,0-.16-.06-.23A5.5,5.5,0,0,1,244.65,78.43Zm-2.28,6.76h-1.14V78.81c.84.24,1.14,1.25,1.14,2.8Zm2.78,0H244V78.81c.84.24,1.14,1.25,1.14,2.8Z"/><polygon class="cls-1" points="242.98 60.87 239.85 69.02 246.11 69.02 242.98 60.87"/><path class="cls-1" d="M263.36,94.38h6.41v-7.6h-6.41ZM265.43,90c0-1.55.3-2.56,1.14-2.8v6.37h-1.14Z"/><path class="cls-1" d="M263.43,79c0,.07-.05.14-.07.23V86h6.41v-7.6h-4.88A5.43,5.43,0,0,1,263.43,79Zm3.74,2.6c0-1.55.3-2.56,1.14-2.8v6.38h-1.14Zm-1.64-2.8v6.38h-1.14V81.61C264.39,80.06,264.69,79.05,265.53,78.81Z"/><path class="cls-1" d="M252.18,70.52c-.16,0-.19-.1-.19-.2s.06-.21.76-2H257a18.62,18.62,0,0,1,.81,2.11c0,.08-.07.13-.22.14v.15h1.82v-.15c-.29,0-.3-.08-.42-.34l-3-7-1.11-2.65L254.26,62l-1.43,3.57-1.62,4.06c-.31.75-.29.84-.65.85v.15h1.62ZM254.83,63l1.76,4.24h-3.43Z"/><path class="cls-1" d="M265.41,70.2l.12.09a5.47,5.47,0,0,1,1.25,1.3,4.73,4.73,0,0,1,.69,2.45,4.89,4.89,0,0,1-.36,1.89,5.11,5.11,0,0,1-.92,1.44h3.58V69.76H264.7A7.09,7.09,0,0,1,265.41,70.2Zm2.9,0v6.37h-1.14v-.08a4.79,4.79,0,0,0,.08-4.64C267.37,70.91,267.7,70.31,268.31,70.15Z"/><path class="cls-1" d="M239.77,94.38h6.41v-7.6h-6.41ZM243,87.16c.84.24,1.14,1.25,1.14,2.8v3.57H243Z"/><path class="cls-1" d="M256.35,63.08h.39c.85,0,1.47.44,1.47,1.3a1.23,1.23,0,0,1-.75,1.3l.42,1a2.22,2.22,0,0,0,1.54-2.22A2.41,2.41,0,0,0,256.7,62h-.79l.42,1Z"/><polygon class="cls-1" points="266.57 60.87 263.43 69.02 269.69 69.02 266.57 60.87"/><path class="cls-1" d="M242.43,75.93a4.89,4.89,0,0,1-.36-1.89,4.73,4.73,0,0,1,.69-2.45,5.47,5.47,0,0,1,1.25-1.3l.12-.09a7.09,7.09,0,0,1,.71-.44h-5.07v7.61h3.58A5.11,5.11,0,0,1,242.43,75.93Zm-.06.59h-1.14V70.15c.61.16.93.76,1.07,1.65a4.72,4.72,0,0,0-.57,2.24,4.83,4.83,0,0,0,.64,2.4Z"/><polygon class="cls-1" points="255.63 65.81 254.09 65.81 253.68 66.85 256.05 66.85 255.63 65.81"/><path class="cls-1" d="M250.9,62.45v7.07l1.47-3.71h-.27V63.08h1.37l.41-1h-3.32v.14C250.82,62.18,250.9,62.23,250.9,62.45Z"/><path class="cls-1" d="M260.81,70.06c4.27,1.32,3,3.26,2.26,3.93-1.68,1.57-4.05-1.27-8.3-1.32h0c-4.24,0-6.61,2.89-8.29,1.32-.73-.67-2-2.61,2.25-3.93.71-.24-.29-.57-2,0-6.69,2.11-3.86,8.69.51,8.69,9.39,0,2.4,8.07,4.3,11.08-2.35-3.06,2.81-10.47-4.64-10.47,0,0,.31,1,.31,1a3.17,3.17,0,0,1,2.36,2.22,4.91,4.91,0,0,0-1.85-.49L250.79,92a2.12,2.12,0,0,1,.44-.06,1.62,1.62,0,0,1,1.7,1.68c0,.72,1,1.13,1.84,1.13s1.79-.41,1.85-1.13A1.62,1.62,0,0,1,258.31,92a2.12,2.12,0,0,1,.44.06l3.11-9.92a5,5,0,0,0-1.85.49,3.17,3.17,0,0,1,2.37-2.22s.32-1.05.31-1c-7.45,0-2.29,7.41-4.64,10.47,1.9-3-5.1-11.08,4.29-11.08,4.37,0,7.21-6.58.51-8.69C261.11,69.49,260.09,69.82,260.81,70.06Z"/><path class="cls-1" d="M258.92,93.1a1.19,1.19,0,0,0-.86-.26.94.94,0,0,0-.7.47c-.21.47.4,1,.48,1.54.15,1.09-1.44,1.55-3.1,1.55s-3.24-.46-3.09-1.55c.07-.52.68-1.07.46-1.54a.89.89,0,0,0-.69-.47,1.19,1.19,0,0,0-.86.26,3.89,3.89,0,0,0-1,1.48c-.75,2.22,1.75,4.32,5.18,4.33s5.94-2.11,5.18-4.33A3.89,3.89,0,0,0,258.92,93.1Z"/><path class="cls-1" d="M241.18,56.22a.42.42,0,0,0,.38.25h0c.31.26,2.11.49,4.77.65-6.63.36-13,.94-13,.94.81,15,.77,30.12.77,30.12,0,15.72,15,12.25,20.79,15.9h0c5.75-3.65,20.78-.18,20.78-15.9,0,0,0-15.13.78-30.12,0,0-6.54-.6-13.27-1,2.54-.16,4.24-.38,4.54-.63h.06a.38.38,0,0,0,.37-.25c0-.06,2.14-5.77,3.2-8.32a.56.56,0,0,0,0-.56.44.44,0,0,0-.38-.21.91.91,0,0,0-.64.4l-1.2,1.13c-1.91-2.62-6.21-5.23-11.47-6a2.33,2.33,0,0,0-1.44-1.31V39.89h1V37.44h-1V36.15h-2.95v1.29h-.95v2.45h.95v1.46a2.34,2.34,0,0,0-1.48,1.32c-5.33.73-9.69,3.37-11.59,6-.64-.6-1.18-1.11-1.24-1.18a1,1,0,0,0-.65-.4.45.45,0,0,0-.38.21.58.58,0,0,0,0,.56C239.05,50.45,241.17,56.16,241.18,56.22Zm33.24,3.18V87.77c0,14.92-14,10.5-19.49,14-5.47-3.45-19.5,1-19.5-14V59.4s8.46-.9,19.5-.9S274.42,59.4,274.42,59.4ZM254.74,43.14c6.36,0,11.79,3,14.05,5.89l-2,1.82-.07.07a1.29,1.29,0,0,0-1.08-.78h-.1a1.31,1.31,0,0,0-1,.63.42.42,0,0,0,0-.31L263,47.83a.4.4,0,0,0-.29-.2h-.06a.4.4,0,0,0-.29.12L260.31,50a.12.12,0,0,0-.05,0,1.94,1.94,0,0,0-.33-.51,1.6,1.6,0,0,0-1.1-.55h-.06a1.43,1.43,0,0,0-1,.42.36.36,0,0,0-.08-.23c-.88-1.1-1.79-2.2-2.7-3.26a.42.42,0,0,0-.27-.14h0a.4.4,0,0,0-.27.14c-.92,1.06-1.83,2.16-2.7,3.26a.32.32,0,0,0-.09.23,1.43,1.43,0,0,0-1-.42h-.05a1.63,1.63,0,0,0-1.11.55,1.94,1.94,0,0,0-.33.51s0,0-.05,0L247,47.75a.38.38,0,0,0-.28-.12h0a.4.4,0,0,0-.3.2l-1.49,2.62a.37.37,0,0,0,0,.31,1.29,1.29,0,0,0-1-.63h-.1a1.29,1.29,0,0,0-1.08.78.46.46,0,0,1-.07-.07l-1.91-1.77C242.88,46.11,248.34,43.14,254.74,43.14Zm-16,4.66A44.69,44.69,0,0,0,242.08,51s-.26,1.26-.39,1.89l1.76-.22a1.1,1.1,0,0,1-.58-.94,1.06,1.06,0,0,1,.88-1.24c.44,0,.92.47,1,1a1.21,1.21,0,0,1-.4,1c.88-.1,1.75-.18,2.61-.25-.6-.62-1.58-1.86-1.58-1.86L246.7,48l2.09,2.2s-.82,1.41-1.33,2.11c.91-.06,1.8-.12,2.7-.15a1.62,1.62,0,0,1-.82-1.35,1.44,1.44,0,0,1,1.23-1.49,1.35,1.35,0,0,1,1.26,1.39,1.62,1.62,0,0,1-.67,1.4c1,0,2.09,0,3.16-.05-.75-.91-1.52-1.82-2.31-2.7.88-1.1,1.77-2.18,2.69-3.26.92,1.08,1.82,2.16,2.69,3.25-.78.89-1.55,1.8-2.3,2.71,1.08,0,2.14,0,3.17.06a1.65,1.65,0,0,1-.68-1.41,1.36,1.36,0,0,1,1.26-1.39,1.42,1.42,0,0,1,1.23,1.49,1.58,1.58,0,0,1-.83,1.35c.91,0,1.82.1,2.72.17-.51-.71-1.33-2.13-1.33-2.13l2.09-2.2,1.35,2.49s-1,1.25-1.59,1.88c.87.07,1.75.16,2.65.26a1.21,1.21,0,0,1-.43-1.08c0-.57.53-1.09,1-1a1.19,1.19,0,0,1,.25,2.2l1.64.21c-.14-.63-.26-1.26-.39-1.89,1.06-1.23,2.81-2.4,3.94-3.6-1.08,2.58-2.43,6-3.41,8.59a95.24,95.24,0,0,0-26,0c-1-2.6-2.3-5.72-3.37-8.3C238.21,47.44,238.42,47.46,238.72,47.8Z"/><path class="cls-1" d="M303.9,87.9c0,.92,0,1.57-.92,2.11v0h4.38v0c-.82-.41-.77-1.26-.77-2V79.92h0a8,8,0,0,1-4.16,2.4v.05l1.52.39Z"/><path class="cls-1" d="M309.42,87.36a2.61,2.61,0,0,0,1.46,2.3,6,6,0,0,0,2.77.59c2,0,4.05-.84,4.05-3.11a2.8,2.8,0,0,0-1.9-2.65,2,2,0,0,0,1.5-1.95,2.5,2.5,0,0,0-1.36-2.14,6,6,0,0,0-4.92.09,2.45,2.45,0,0,0-1.3,2.18A2.69,2.69,0,0,0,311.25,85,2.42,2.42,0,0,0,309.42,87.36Zm4.18-6.1a1.51,1.51,0,0,1,1.53,1.58,1.24,1.24,0,0,1-.49,1l-.36-.17c-.66-.28-1.82-.69-1.82-1.53C312.46,81.56,313,81.26,313.6,81.26Zm-1.27,4.45.95.42c.64.3,1.62.66,1.62,1.5s-.78,1.21-1.53,1.21a1.75,1.75,0,0,1-1.81-1.75A1.63,1.63,0,0,1,312.33,85.71Z"/><path class="cls-1" d="M320.81,81.59a8.26,8.26,0,0,1,1.84.18L319.2,90v0h4v0a1.06,1.06,0,0,1-.48-.83,4.3,4.3,0,0,1,.39-1.28l3-7.74h-7.28L318,82.28H318A4.93,4.93,0,0,1,320.81,81.59Z"/><path class="cls-1" d="M328.68,86.28l-2.34,3.77h7.23l.7-2.18a5.68,5.68,0,0,1-2.72.73,5.46,5.46,0,0,1-1.21-.12l.19-.27,1.78-2.77a6.84,6.84,0,0,0,1.2-3c0-1.66-1.72-2.5-3.2-2.5a7.33,7.33,0,0,0-2.69.5L327,82.48a4.4,4.4,0,0,1,2.43-1,1,1,0,0,1,1.09,1,4.17,4.17,0,0,1-.65,1.7Z"/><path class="cls-1" d="M184.51,89.38l.82-2.26a5.15,5.15,0,0,1-3.09.89l-1.76-.13L184.79,80h-6.68l-.77,2a4.89,4.89,0,0,1,2.53-.69l1.15.07-4.34,8Z"/><path class="cls-1" d="M188.52,89.34c-.26-.22-.53-.4-.53-.81a3.49,3.49,0,0,1,.27-1l.35-1h2.88l.48,1.39a1.27,1.27,0,0,1,.11.54c0,.46-.26.66-.59.88v0h4.39v0a3.88,3.88,0,0,1-1.25-2L191.88,80h-3.57v0a1,1,0,0,1,.56.83,5.78,5.78,0,0,1-.32,1.15l-2,5.72a3.39,3.39,0,0,1-1,1.65v0h3Zm1.47-7h0l1,2.83h-2Z"/><path class="cls-1" d="M203.57,87.37a3.19,3.19,0,0,1-2.07.64,3.6,3.6,0,0,1-1.53-.25V82c0-.76-.1-1.57.62-2v0h-3.92v0c.71.45.61,1.26.61,2v5.35c0,.74.1,1.54-.61,2v0H203Z"/><path class="cls-1" d="M206.21,89.57a1.38,1.38,0,0,0,1.42-1.38,1.36,1.36,0,0,0-1.35-1.35,1.39,1.39,0,0,0-1.4,1.41A1.35,1.35,0,0,0,206.21,89.57Z"/><path class="cls-1" d="M225.69,100.76c2.72,1.29,4.59,1.16,5.17.43,0,0-4.74-4.57-6.71-5.94a15.31,15.31,0,0,0-5.71-2.64C220,96.17,222.47,99.26,225.69,100.76Z"/><path class="cls-1" d="M228.31,97.84s-.58-9.55-2.95-13.19a7.53,7.53,0,0,0-1.73,5.4A11.12,11.12,0,0,0,228.31,97.84Z"/><path class="cls-1" d="M219.23,90.31c1.88,2,3.47,2.48,4.17,2.09v-.09s-3-5.94-3.75-7.06A20.52,20.52,0,0,0,215.27,81,15.64,15.64,0,0,0,219.23,90.31Z"/><path class="cls-1" d="M221,80.41c-1.25,4.09,1.54,7.78,1.54,7.78s2.29-8.38,1.41-12.07C223.38,76.26,221.63,78.14,221,80.41Z"/><path class="cls-1" d="M216,69.74a14.74,14.74,0,0,0,.83,9.38c1.11,2.35,2.36,3.36,3.08,3.25,0,0-1-6.2-1.37-7.46A18.53,18.53,0,0,0,216,69.74Z"/><path class="cls-1" d="M221,70.84a10.65,10.65,0,0,0-.91,7.57s4.61-5.25,4.78-10A5.48,5.48,0,0,0,221,70.84Z"/><path class="cls-1" d="M230.69,56.46a30.37,30.37,0,0,0-3.68,5,5.82,5.82,0,0,0-3.31,1.29A9.64,9.64,0,0,0,221,67.36a7.17,7.17,0,0,0,0,2.08s5.29-4.31,6.74-7.53a27.05,27.05,0,0,1,9.44-10.7A23.62,23.62,0,0,0,230.69,56.46Z"/><path class="cls-1" d="M226.06,56.49a11.13,11.13,0,0,0-4.41,4.7c-.85,1.78-.8,3-.36,3.45l1-1.24s1.75-1.81,2.74-3.09a12.35,12.35,0,0,0,1.74-3.7,32.64,32.64,0,0,1,9.89-8.46A30.8,30.8,0,0,0,229,53.29,32.15,32.15,0,0,0,226.06,56.49Z"/><path class="cls-1" d="M220.37,59.29A30.85,30.85,0,0,0,218.84,62c-1.31,2.19-1.24,4.91-.93,7.13s1.07,3.39,1.71,3.49a63.5,63.5,0,0,0,.87-6.51,12.57,12.57,0,0,0-.53-4.46c.33-.65.68-1.3,1.06-1.93a29.47,29.47,0,0,1,10.81-10.63,25.55,25.55,0,0,0-6.45,4.27A29.85,29.85,0,0,0,220.37,59.29Z"/><path class="cls-1" d="M238.37,105.26s-3-7.32-6.33-11.34c-.19-.29-.54-.65-.84-1h0a28.37,28.37,0,0,1-5.34-17.06,28.12,28.12,0,0,1,5.81-17.66c-4,4.34-6.65,11-6.65,18.38a28,28,0,0,0,5,16.33,8.7,8.7,0,0,0,.42,5.81A15.62,15.62,0,0,0,238.37,105.26Z"/><path class="cls-1" d="M224.46,103.64c3.24,2.94,6.49,4.91,10.63,5.25,3.71.33,4.73-.17,6.38-1.16,0,0-5.86-3.29-8.78-4a25.62,25.62,0,0,0-7-.72C218.89,97.83,214.3,89,214.3,77c0-12.85,6.09-23.81,14.66-28.16-9.09,4.06-15.73,15.12-16,28.24C212.8,88.37,217.44,98.32,224.46,103.64Z"/><path class="cls-1" d="M227.77,108.27C241,117.14,241.43,108,248,111,240.59,105.61,242.63,113,227.77,108.27Z"/><path class="cls-1" d="M246,109.11c-1.19-4.42-3.71-3-7.88-6.73C242,109.09,243.48,106.68,246,109.11Z"/><path class="cls-1" d="M279.19,101.19c.58.73,2.44.86,5.17-.43,3.21-1.5,5.66-4.59,7.25-8.15a15.17,15.17,0,0,0-5.71,2.64C283.93,96.62,279.19,101.19,279.19,101.19Z"/><path class="cls-1" d="M281.74,97.84a11.12,11.12,0,0,0,4.67-7.79,7.54,7.54,0,0,0-1.72-5.4C282.32,88.29,281.74,97.84,281.74,97.84Z"/><path class="cls-1" d="M290.38,85.25c-.78,1.12-3.74,7.06-3.74,7.06v.09c.69.39,2.28-.13,4.17-2.09A15.62,15.62,0,0,0,294.77,81,20.76,20.76,0,0,0,290.38,85.25Z"/><path class="cls-1" d="M289.08,80.41c-.67-2.27-2.41-4.15-3-4.29-.88,3.69,1.42,12.07,1.42,12.07S290.33,84.5,289.08,80.41Z"/><path class="cls-1" d="M291.52,74.91c-.33,1.26-1.37,7.46-1.37,7.46.72.11,2-.9,3.08-3.25a14.74,14.74,0,0,0,.83-9.38A18.81,18.81,0,0,0,291.52,74.91Z"/><path class="cls-1" d="M285.16,68.4c.18,4.76,4.78,10,4.78,10a10.59,10.59,0,0,0-.91-7.57A5.46,5.46,0,0,0,285.16,68.4Z"/><path class="cls-1" d="M282.34,61.91c1.45,3.22,6.75,7.53,6.75,7.53a7.57,7.57,0,0,0,0-2.08,9.64,9.64,0,0,0-2.73-4.61A5.82,5.82,0,0,0,283,61.46a31.56,31.56,0,0,0-3.68-5,23.77,23.77,0,0,0-6.45-5.25A27,27,0,0,1,282.34,61.91Z"/><path class="cls-1" d="M283.24,56.61a12.59,12.59,0,0,0,1.74,3.7c1,1.28,2.74,3,2.74,3.09l1,1.24c.44-.41.48-1.67-.36-3.45a11.09,11.09,0,0,0-4.42-4.7,29.94,29.94,0,0,0-3-3.2,30.92,30.92,0,0,0-7.65-5.14A32.48,32.48,0,0,1,283.24,56.61Z"/><path class="cls-1" d="M289,59.69c.38.63.73,1.28,1.06,1.93a12.81,12.81,0,0,0-.53,4.46,65.53,65.53,0,0,0,.88,6.51c.64-.1,1.42-1.26,1.71-3.49s.38-4.94-.94-7.13a30.75,30.75,0,0,0-1.52-2.68,29.89,29.89,0,0,0-5-6,25.32,25.32,0,0,0-6.44-4.27A29.37,29.37,0,0,1,289,59.69Z"/><path class="cls-1" d="M271.68,105.26a15.57,15.57,0,0,0,7.91-6.58,8.64,8.64,0,0,0,.42-5.81,28,28,0,0,0,5-16.33c0-7.42-2.59-14-6.65-18.38a28.06,28.06,0,0,1,5.81,17.66,28.43,28.43,0,0,1-5.33,17.06h0c-.31.39-.66.75-.85,1C274.69,97.94,271.68,105.26,271.68,105.26Z"/><path class="cls-1" d="M295.75,77c0,12-4.59,20.87-11.4,26.09a25.69,25.69,0,0,0-7,.72c-2.92.67-8.78,4-8.78,4,1.66,1,2.68,1.49,6.38,1.16,4.15-.34,7.4-2.31,10.63-5.25,7-5.32,11.66-15.27,11.47-26.6-.23-13.12-6.87-24.18-16-28.24C289.65,53.15,295.75,64.11,295.75,77Z"/><path class="cls-1" d="M282.27,108.27c-14.86,4.76-12.82-2.66-20.22,2.73C268.61,108,269,117.14,282.27,108.27Z"/><path class="cls-1" d="M264.1,109.11c2.46-2.43,3.91,0,7.87-6.73C267.81,106.14,265.29,104.69,264.1,109.11Z"/><path class="cls-1" d="M361.51,136.93c0,6.65-3,11.5-8.54,14.2a14.07,14.07,0,0,1,1.16,1.29c7.42-3.33,9.15-9.57,9.18-14.58,0-5.45-1.76-9.74-5.34-12.74a12.82,12.82,0,0,0-1.51-1.08,14.51,14.51,0,0,1,1.05,1.51C360.2,128.4,361.55,132.23,361.51,136.93Z"/><path class="cls-1" d="M337.08,143.17V132a11.83,11.83,0,0,1,1.42.16q-.25-.42-.57-.84a13,13,0,0,0-2.65-.38v13.83A6.06,6.06,0,0,0,337.08,143.17Z"/><path class="cls-1" d="M354.4,152.76q.56.74,1.05,1.53c2.47,2.71,3.86,6.34,5.2,9.88a55.25,55.25,0,0,0,2.16,5.16,32.31,32.31,0,0,0,4.49,7l3,2.83.71.6.4.29c-1.93-1.66-3.45-3.14-6.85-9.88-.79-1.59-1.45-3.32-2.15-5.16C360.71,160.47,358.8,155.46,354.4,152.76Z"/><path class="cls-1" d="M335.28,156.17v15.25a11.77,11.77,0,0,0,.73,4.42l2,1.7a10.83,10.83,0,0,1-.94-5.21v-12.9A26.64,26.64,0,0,0,335.28,156.17Z"/><path class="cls-1" d="M373.23,181.58l-4,.1c-.34,0-8.28.28-10.56.28a18.6,18.6,0,0,1-8.46-1.69l.22.19c3.39,2.57,8.28,2.57,9.88,2.57,2.28,0,10.23-.27,10.57-.29l3.57-.11Z"/><polygon class="cls-1" points="308.66 181.43 309.96 182.51 343.62 182.49 342.34 181.43 308.66 181.43"/><path class="cls-1" d="M143.32,131.22c3.71-3.24,14.93-6.65,19.22-7.33a35.19,35.19,0,0,1,4.05-.35l1.08-2.18a49.26,49.26,0,0,0-6.86.41c-4.43.7-15.26,4.33-19,7.64l-3.72,3.31-.65-.54v0l2.42,2Z"/><path class="cls-1" d="M199.73,189.07H136.25l-.4-.34h-.06l2.34,1.89h63.14l1-17.49a15.44,15.44,0,0,1-1.53-3Z"/><path class="cls-1" d="M169,174.31l.69.07,26.84-53.78-2.08-1.71L167,174.07A19.78,19.78,0,0,1,169,174.31Z"/><polygon class="cls-1" points="198.33 117.02 201.63 110.42 199.51 108.68 195.37 117.02 198.33 117.02"/><path class="cls-1" d="M365.25,179l3.18-.1-2.32-2.18c-1.3-1.21-2.95-3-6.1-9.29a55.48,55.48,0,0,1-2.18-5.22c-1.86-4.9-3.78-9.95-8.48-12.33l-1-.52,1.07-.44c6.11-2.55,9.23-7.31,9.28-14.15,0-5.29-1.63-9.27-5.09-12.17a19.55,19.55,0,0,0-13-4.42H309.71l2.53,2.41a5.17,5.17,0,0,1,1.55,2.45l0,.11a18,18,0,0,1,.57,5.52v40.7c0,3.37-.75,5.72-2.24,7l-2.7,2.32h28.18l-2.7-2.32c-1.66-1.42-2.51-3.82-2.51-7.11v-16l.87.08c2.75.29,5.25,6.53,7.45,12,2,5,3.86,9.66,6.21,11.43,3.19,2.42,7.89,2.42,9.44,2.42S362.09,179.05,365.25,179ZM314.9,121.08a6.22,6.22,0,0,1,1.91,3.06,18.75,18.75,0,0,1,.65,6v40.69a12.49,12.49,0,0,1-1.4,6.44h-2.67c1.82-1.56,2.7-4.2,2.7-8V128.55a18.75,18.75,0,0,0-.65-6,6.46,6.46,0,0,0-1.91-3.06h27.61c4.88,0,8.79,1.3,12,4a12.79,12.79,0,0,1,2.11,2.25c-.24-.23-.48-.47-.74-.69-3.17-2.67-7.09-4-12-4Zm17.52,7,.55,0c2.71.08,4.49.84,5.78,2.49a8.62,8.62,0,0,1,2,6.22,10.38,10.38,0,0,1-2.78,6.88,9,9,0,0,1-4.85,3.16l-.68.18Zm1.2,21.85-.76.11V148.3a10.5,10.5,0,0,0,6.51-3.82,11.64,11.64,0,0,0,3.06-7.64,10.22,10.22,0,0,0-1.78-6.48,8.7,8.7,0,0,1,.83.88,9.9,9.9,0,0,1,2.32,7.16,11.74,11.74,0,0,1-3.05,7.64A10.68,10.68,0,0,1,333.62,150Zm8.72,14.75c-1.57-3.92-3.08-7.69-4.83-10.13,2.36,2.11,4.24,6.79,6.2,11.7,1.39,3.48,2.82,7,4.33,9.25C346,173.93,344.14,169.26,342.34,164.73Zm5.11-13.24-3-.58,2.83-.69a10.64,10.64,0,0,1,5.71,4.09A10.61,10.61,0,0,0,347.45,151.49Z"/><path class="cls-1" d="M261.44,128v40.34c-.09,3.81-.93,6.43-2.57,8l-2.31,2.25h31.6A23.18,23.18,0,0,0,299,176a19.82,19.82,0,0,0,6.63-6.7,18.13,18.13,0,0,0,2.48-8.68,17.14,17.14,0,0,0-3.27-11.05,14.37,14.37,0,0,0-6.71-5l-1.16-.42,1.1-.56a12.44,12.44,0,0,0,4.2-3.31,13.47,13.47,0,0,0,.93-13.46c-2.23-3.67-4.71-6-7.36-7a28.68,28.68,0,0,0-10.47-1.64H257.1l2.14,2.36C260.72,122,261.44,124.49,261.44,128Zm18.08,40.24v-18h1.61c3.32,0,5.76.9,7.27,2.53s2.2,4.17,2,7.52-1.39,5.65-2.4,6.59a7.79,7.79,0,0,1-5.42,2.2,7.53,7.53,0,0,1-2.78-.68ZM287,129.61c.23.2.46.41.69.65a8.33,8.33,0,0,1,1.84,5.82v0h0c-.12,2.67-.89,4.64-2.3,5.84a9.66,9.66,0,0,1-5.09,2.23c-.69.06-1.21.07-1.46.07h-.82v-1.56l.91-.06a9.6,9.6,0,0,0,5.08-2.23c1.41-1.2,2.19-3.16,2.31-5.84h0v0A9.37,9.37,0,0,0,287,129.61Zm-2.27,9.77-.09.07a8.29,8.29,0,0,1-4.25,1.85l-.79.07-.07-.58V128.18l.36-.12a4.63,4.63,0,0,1,1.44-.23h0a5.25,5.25,0,0,1,3.7,1.74,7,7,0,0,1,1.49,4.88C286.46,136.78,285.84,138.42,284.72,139.38Zm8.65,22.56c-.22,3.57-1.58,6.32-2.82,7.47a9.14,9.14,0,0,1-6.36,2.55h-.07a7.86,7.86,0,0,1-4-1.25l-.28-.2v-.78a8.63,8.63,0,0,0,2.9.66h.06a9.21,9.21,0,0,0,6.37-2.55c1.24-1.15,2.59-3.91,2.82-7.48a12.14,12.14,0,0,0-1.59-7.5,8.22,8.22,0,0,1,.61.57C292.8,155.36,293.59,158.21,293.37,161.94ZM304,150.4s0,0,0,0a13.39,13.39,0,0,0-8.19-3.88l-3.22-.39,3.11-.91.12,0A13.25,13.25,0,0,1,304,150.4Zm-18.42-30.82c4.32,0,7.58.46,10,1.41a12.07,12.07,0,0,1,5.12,4.14,10.31,10.31,0,0,0-3.74-2.57c-2.39-1-5.65-1.41-10-1.41H261.83c1.73,1.8,2.57,4.57,2.57,8.42V170a14.8,14.8,0,0,1-1.73,7.36h-2.6c1.9-1.85,2.87-4.78,3-8.93V128c0-3.86-.84-6.63-2.57-8.43Z"/><path class="cls-1" d="M225.93,180.34H226a67.89,67.89,0,0,0,8.2-.52,25.32,25.32,0,0,0,11.57-4.17c3.62-2.58,5.51-7.25,5.62-13.87V130.05a27.63,27.63,0,0,1,.63-7,5.06,5.06,0,0,1,1.87-2.55l2.62-2.19h0l.16-.14H228.76l2.49,2.28a5.49,5.49,0,0,1,1.52,2.47l0,.11a20.07,20.07,0,0,1,.68,6.44V158.9a12.08,12.08,0,0,1-1.73,6.55c-.62,1.12-1.92,2.62-5.82,2.62s-5.23-1.55-5.89-2.73a11.89,11.89,0,0,1-1.67-6.44V129.43a20.26,20.26,0,0,1,.69-6.46l0-.11a5.36,5.36,0,0,1,1.55-2.45l2.47-2.28h-28l2.84,2.34a4.87,4.87,0,0,1,1.86,2.68,27.44,27.44,0,0,1,.59,6.9v31.77c.11,6.59,2,11.26,5.67,13.87a25.27,25.27,0,0,0,11.52,4.13A68.59,68.59,0,0,0,225.93,180.34Zm.27-11c3.46,0,5.75-1.09,7-3.32a13.15,13.15,0,0,0,1.89-7.17V129.43c0-3.37-.25-5.57-.78-6.94a6.52,6.52,0,0,0-1.89-3h20.93a7.93,7.93,0,0,0-1.49,1.57H233.78a6.47,6.47,0,0,1,1.89,3c.53,1.37.78,3.57.78,6.94v29.47a13.18,13.18,0,0,1-1.89,7.17c-1.24,2.22-3.53,3.31-7,3.31s-5.6-1-6.87-3.14A8.53,8.53,0,0,0,226.2,169.39Zm-27.09-49.94H220a6.26,6.26,0,0,0-1.26,1.57H200.6A7.5,7.5,0,0,0,199.11,119.45ZM202,161.8V130.05a29.27,29.27,0,0,0-.65-7.29,4.77,4.77,0,0,0-.65-1.51,5.82,5.82,0,0,1,2,3.07,29.37,29.37,0,0,1,.65,7.3v31.74c.08,4.48,1,8,2.78,10.45C203.53,171.35,202.13,167.32,202,161.8Z"/><path class="cls-1" d="M198.54,163.49l-2.34,2.66c-6,6.78-10.22,9.8-19.45,9.8a68.64,68.64,0,0,1-7.86-.54c-1.43-.18-2.87-.3-4.28-.37l-.82,0,28.67-57.7.11-.23,4.11-8.26H139.29l-1.39,20.28,2.22-2c3.72-3.26,14.73-7,19-7.63a49.94,49.94,0,0,1,7.4-.43c.94,0,1.81,0,2.58,0l.83,0-33.49,67.65h60.69Zm-56.46-51.8L141.17,125a12.89,12.89,0,0,0-1.56,1.15l1.1-16H194.9l-.77,1.57Zm-3.27,73.79,32.72-66.09c1,0,1.65.06,1.67.06l.44,0-32.68,66Zm39.59-6.65a69,69,0,0,1-8-.55,43,43,0,0,0-6.53-.39h-.47l.78-1.57c1.14,0,2.8.13,4.85.39a68.74,68.74,0,0,0,8,.54c9.45,0,14.11-3.16,20.34-10.21l-.19,3.28C191.68,176.18,187.05,178.83,178.4,178.83Z"/><path class="cls-1" d="M221.77,124.87a20,20,0,0,0-.65,6.27v29.47a11.36,11.36,0,0,0,1.31,5.64,5,5,0,0,0,1.34.49,11.89,11.89,0,0,1-.84-4.66V132.62a19.83,19.83,0,0,1,.64-6.22l0-.1c.42-1.41,3.07-3.84,4.34-4.59l1.07-.46-2.24-2-.66.42c-1.27.75-3.86,3.59-4.31,5.09Z"/><path class="cls-1" d="M256,133.24a26.47,26.47,0,0,1,.57-6.75l0-.09c.22-1,1.09-1.94,2.66-3l.44-.28a6.07,6.07,0,0,0-.91-1.65c-.11-.09-.24-.17-.36-.26l-.85.54c-1.62,1-2.55,2.07-2.78,3.09a28.07,28.07,0,0,0-.6,6.87v31.75c-.11,6.81-2.09,11.63-5.88,14.33a25.79,25.79,0,0,1-11.82,4.26,66.2,66.2,0,0,1-8.2.53h-.32a66,66,0,0,1-8.2-.53,26.11,26.11,0,0,1-11-3.73l-1.05-.55a12,12,0,0,0,1.83,1.65,26,26,0,0,0,11.86,4.27,67.59,67.59,0,0,0,8.38.53h0a67.32,67.32,0,0,0,8.34-.53A26,26,0,0,0,250,179.45c3.84-2.73,5.84-7.59,6-14.46Z"/><path class="cls-1" d="M307.15,135.23a12.11,12.11,0,0,1-2.41,7.56,11.81,11.81,0,0,1-2.76,2.53,16,16,0,0,1,1.52,1.23,12,12,0,0,0,3.05-2.72,14.26,14.26,0,0,0,1-14.25,18.45,18.45,0,0,0-6.14-6.63,23.48,23.48,0,0,1,4.32,5.76A13.15,13.15,0,0,1,307.15,135.23Z"/><path class="cls-1" d="M283.57,130.58a3.68,3.68,0,0,0-1.2.18v8.83a6.05,6.05,0,0,0,1.32-.78v-7a7.72,7.72,0,0,1,1.39-.13,4.58,4.58,0,0,0-.42-.92A4.68,4.68,0,0,0,283.57,130.58Z"/><path class="cls-1" d="M283.69,167.87V154.09h1.38a13.42,13.42,0,0,1,3.29.42,4.19,4.19,0,0,0-.45-.7,12,12,0,0,0-4.52-.82h-1v14.95l.26,0A6.24,6.24,0,0,0,283.69,167.87Z"/><path class="cls-1" d="M312.51,163.79a18,18,0,0,0-3.37-11.51,16.34,16.34,0,0,0-3.64-3.56,1.46,1.46,0,0,0,.16.19,18.26,18.26,0,0,1,1.28,2c.13.15.26.31.38.48a17.74,17.74,0,0,1,3.34,11.41,18.67,18.67,0,0,1-2.54,8.95,20.14,20.14,0,0,1-6.8,6.92,23.14,23.14,0,0,1-11,2.68H256l-2-1.69h0l3.32,2.79h34.74a23.3,23.3,0,0,0,11-2.7,20.48,20.48,0,0,0,6.86-7A19,19,0,0,0,312.51,163.79Z"/></svg>