<svg id="Layer_1" data-name="Layer 1" xmlns="http://www.w3.org/2000/svg" viewBox="0 0 510.24 226.77"><path d="M229.92,109.86a.71.71,0,0,1-.11.39.74.74,0,0,1-.38.25,5.13,5.13,0,0,1-.69.16,6.6,6.6,0,0,1-1.1.07,6.52,6.52,0,0,1-1.07-.07,4.54,4.54,0,0,1-.71-.16.81.81,0,0,1-.37-.25.71.71,0,0,1-.1-.39V79.45h-.06L212.91,110a.79.79,0,0,1-.23.31,1,1,0,0,1-.43.23,2.92,2.92,0,0,1-.67.14c-.27,0-.57,0-.93,0a9,9,0,0,1-1,0,4,4,0,0,1-.67-.15,1.36,1.36,0,0,1-.42-.23.72.72,0,0,1-.2-.29L196.47,79.45h0v30.41a.71.71,0,0,1-.11.39.74.74,0,0,1-.38.25,5.15,5.15,0,0,1-.71.16,6.73,6.73,0,0,1-1.11.07,6.58,6.58,0,0,1-1.08-.07,4.48,4.48,0,0,1-.69-.16.64.64,0,0,1-.36-.25.8.8,0,0,1-.09-.39V77.75a2,2,0,0,1,.59-1.62,2.07,2.07,0,0,1,1.33-.48h2.82a6.19,6.19,0,0,1,1.51.16,3.29,3.29,0,0,1,1.14.51,3.15,3.15,0,0,1,.81.89,6,6,0,0,1,.57,1.27l10.13,25.29h.13l10.5-25.2a7.89,7.89,0,0,1,.65-1.39,3.67,3.67,0,0,1,.77-.9,3,3,0,0,1,.94-.49,4.68,4.68,0,0,1,1.19-.14h3a2.42,2.42,0,0,1,.76.12,1.61,1.61,0,0,1,.63.38,1.83,1.83,0,0,1,.42.65,2.62,2.62,0,0,1,.16,1v32.11Z"/><path d="M258.6,108.69a5.27,5.27,0,0,1-.05.84,1.75,1.75,0,0,1-.19.61.9.9,0,0,1-.31.35.81.81,0,0,1-.39.1H240.94a1.87,1.87,0,0,1-1.17-.42,1.71,1.71,0,0,1-.56-1.46V77.54a1.77,1.77,0,0,1,.56-1.48,1.92,1.92,0,0,1,1.17-.41h16.54a.68.68,0,0,1,.39.11.69.69,0,0,1,.28.34,3,3,0,0,1,.18.61,4.65,4.65,0,0,1,.06.9,4.24,4.24,0,0,1-.06.84,2.3,2.3,0,0,1-.18.59.68.68,0,0,1-.67.44H243.89v11h11.64a.61.61,0,0,1,.39.13,1.07,1.07,0,0,1,.3.33,2,2,0,0,1,.17.6,7.53,7.53,0,0,1,.05.89,6.82,6.82,0,0,1-.05.85,1.77,1.77,0,0,1-.17.56.81.81,0,0,1-.3.31.73.73,0,0,1-.39.1H243.89v12.55h13.78a.8.8,0,0,1,.38.11,1,1,0,0,1,.31.33,1.64,1.64,0,0,1,.19.59,6,6,0,0,1,.05.91Zm-10-35.76h0c-.38,0-.7,0-.94,0a4,4,0,0,1-.67-.1,1.57,1.57,0,0,1-.48-.26,4.83,4.83,0,0,1-.45-.4L240.33,66a1.51,1.51,0,0,1-.3-.48.3.3,0,0,1,.11-.33,1.31,1.31,0,0,1,.54-.17,8.07,8.07,0,0,1,1-.06c.54,0,1,0,1.3,0a7.92,7.92,0,0,1,.79.11,1.18,1.18,0,0,1,.45.21c.11.08.21.18.32.27l4.16,4.65L253,65.7a2.36,2.36,0,0,1,.42-.36,1.72,1.72,0,0,1,.55-.23,4.54,4.54,0,0,1,.79-.11c.32,0,.73,0,1.21,0A7,7,0,0,1,257,65a1.34,1.34,0,0,1,.53.19.28.28,0,0,1,.06.33,1.46,1.46,0,0,1-.28.45l-6,6.13a2,2,0,0,1-.46.39,1.91,1.91,0,0,1-.54.25,2.75,2.75,0,0,1-.69.12c-.25,0-.58,0-1,0Z"/><path d="M284.39,100.78a10.08,10.08,0,0,1-.91,4.36A9.36,9.36,0,0,1,281,108.4a10.88,10.88,0,0,1-3.78,2,15.94,15.94,0,0,1-4.68.67,17.38,17.38,0,0,1-3.25-.29,17.61,17.61,0,0,1-2.67-.73,13,13,0,0,1-2-.88,5.58,5.58,0,0,1-1.1-.78,1.93,1.93,0,0,1-.46-.82,4.85,4.85,0,0,1-.15-1.34,7,7,0,0,1,.06-1,2.3,2.3,0,0,1,.16-.63.64.64,0,0,1,.27-.34.74.74,0,0,1,.38-.09,2.22,2.22,0,0,1,1.06.45,16.21,16.21,0,0,0,1.77,1,17.61,17.61,0,0,0,2.59,1,12.1,12.1,0,0,0,3.52.47,8.89,8.89,0,0,0,2.76-.4,6.37,6.37,0,0,0,2.16-1.15,4.86,4.86,0,0,0,1.39-1.81,6,6,0,0,0,.48-2.45,4.57,4.57,0,0,0-.67-2.53,6.79,6.79,0,0,0-1.78-1.85,15.56,15.56,0,0,0-2.53-1.46l-2.9-1.35a30.38,30.38,0,0,1-2.88-1.52,12.2,12.2,0,0,1-2.52-2A9.1,9.1,0,0,1,264.43,88a8.85,8.85,0,0,1-.69-3.66,9.15,9.15,0,0,1,.8-3.9,8.22,8.22,0,0,1,2.21-2.87,9.94,9.94,0,0,1,3.39-1.77,14.37,14.37,0,0,1,4.23-.6,14.22,14.22,0,0,1,2.34.2,15.66,15.66,0,0,1,2.22.55,11.86,11.86,0,0,1,1.85.75,5.41,5.41,0,0,1,1.07.68,2.3,2.3,0,0,1,.34.41,1.15,1.15,0,0,1,.13.37,3.5,3.5,0,0,1,.09.55c0,.22,0,.5,0,.84a7.31,7.31,0,0,1,0,.86,3.18,3.18,0,0,1-.12.64.72.72,0,0,1-.23.37.48.48,0,0,1-.34.13,2.16,2.16,0,0,1-.93-.39c-.43-.25-.94-.54-1.55-.85a14.72,14.72,0,0,0-2.18-.88,9.19,9.19,0,0,0-2.82-.4,7.26,7.26,0,0,0-2.55.4,5.09,5.09,0,0,0-1.78,1A4,4,0,0,0,268.84,82a5,5,0,0,0-.35,1.89,4.55,4.55,0,0,0,.67,2.51A7,7,0,0,0,271,88.24a16.27,16.27,0,0,0,2.55,1.48c1,.45,1.93.91,2.92,1.36s2,1,2.91,1.51a12.11,12.11,0,0,1,2.56,2,8.4,8.4,0,0,1,2.5,6.24Z"/><path d="M312.64,77.67a7.85,7.85,0,0,1-.05.9,1.71,1.71,0,0,1-.18.6.78.78,0,0,1-.3.34.71.71,0,0,1-.39.11H301.9v30.24a.71.71,0,0,1-.11.39.74.74,0,0,1-.38.25,5,5,0,0,1-.72.16,9,9,0,0,1-2.24,0,4.61,4.61,0,0,1-.73-.16.7.7,0,0,1-.38-.25.64.64,0,0,1-.11-.39V79.62H287.4a.77.77,0,0,1-.39-.11.69.69,0,0,1-.28-.34,2.71,2.71,0,0,1-.18-.6,6,6,0,0,1-.06-.9,6.07,6.07,0,0,1,.06-.92,2.87,2.87,0,0,1,.18-.63.7.7,0,0,1,.28-.36.68.68,0,0,1,.39-.11h24.32a.64.64,0,0,1,.39.11.79.79,0,0,1,.3.36,1.82,1.82,0,0,1,.18.63,8,8,0,0,1,.05.92Z"/><path d="M345.36,92.72a26.91,26.91,0,0,1-1,7.63,15.92,15.92,0,0,1-3,5.78,13.1,13.1,0,0,1-5,3.67,17.6,17.6,0,0,1-7,1.28,18.06,18.06,0,0,1-6.82-1.17,12.06,12.06,0,0,1-4.75-3.41,14.79,14.79,0,0,1-2.8-5.56,28.74,28.74,0,0,1-.92-7.63,26.23,26.23,0,0,1,1-7.5,15.64,15.64,0,0,1,3-5.73,13.35,13.35,0,0,1,5-3.64,19.91,19.91,0,0,1,13.72-.12,12.14,12.14,0,0,1,4.76,3.38,14.22,14.22,0,0,1,2.84,5.5,27.63,27.63,0,0,1,.93,7.52Zm-4.88.32h0a28.13,28.13,0,0,0-.52-5.52,12.75,12.75,0,0,0-1.77-4.41,8.45,8.45,0,0,0-3.28-2.93,11.12,11.12,0,0,0-5.09-1.05,10.38,10.38,0,0,0-5.09,1.14,9.59,9.59,0,0,0-3.34,3,12.42,12.42,0,0,0-1.84,4.41A24.42,24.42,0,0,0,319,93a29.18,29.18,0,0,0,.51,5.66,12.64,12.64,0,0,0,1.73,4.46A8.34,8.34,0,0,0,324.5,106a11.32,11.32,0,0,0,5.13,1,10.7,10.7,0,0,0,5.14-1.14,9.23,9.23,0,0,0,3.36-3.05,13.08,13.08,0,0,0,1.81-4.46,25.61,25.61,0,0,0,.54-5.35Z"/><path d="M214.71,160.54a.86.86,0,0,1-.09.39.76.76,0,0,1-.36.28,2.91,2.91,0,0,1-.73.17,7.89,7.89,0,0,1-1.2.07,13,13,0,0,1-1.54-.07,2.15,2.15,0,0,1-.89-.3,2.27,2.27,0,0,1-.49-.49l-12.83-17.45v17.45a.69.69,0,0,1-.11.36.72.72,0,0,1-.38.28,4,4,0,0,1-.72.15,7.16,7.16,0,0,1-1.13.07,7.06,7.06,0,0,1-1.11-.07,4.13,4.13,0,0,1-.74-.15A.76.76,0,0,1,192,161a.68.68,0,0,1-.1-.36v-33.5a.66.66,0,0,1,.1-.37.8.8,0,0,1,.38-.26,3.33,3.33,0,0,1,.74-.16,6.93,6.93,0,0,1,1.11-.08,7,7,0,0,1,1.13.08,3.25,3.25,0,0,1,.72.16.75.75,0,0,1,.38.26.67.67,0,0,1,.11.37V142.6l12.35-15.51a1.84,1.84,0,0,1,.38-.41,1.56,1.56,0,0,1,.52-.24,4.18,4.18,0,0,1,.76-.16,11.26,11.26,0,0,1,1.15-.06,6.89,6.89,0,0,1,1.14.08,2.44,2.44,0,0,1,.69.18.61.61,0,0,1,.35.26.74.74,0,0,1,.1.35,1.49,1.49,0,0,1-.18.7,6.15,6.15,0,0,1-.66,1L201.6,142.6l12.47,16.56a7.71,7.71,0,0,1,.55,1,1.43,1.43,0,0,1,.09.43Z"/><path d="M244,160.59a.92.92,0,0,1-.08.38.58.58,0,0,1-.35.26,2.78,2.78,0,0,1-.76.17c-.32,0-.76,0-1.29,0s-.85,0-1.15,0a3.18,3.18,0,0,1-.72-.17,1.07,1.07,0,0,1-.41-.34,2.09,2.09,0,0,1-.26-.54l-3.21-8.21c-.37-.93-.77-1.79-1.17-2.57a8.45,8.45,0,0,0-1.44-2,5.79,5.79,0,0,0-2-1.32,6.94,6.94,0,0,0-2.72-.47h-3.1v14.83a.58.58,0,0,1-.12.38.85.85,0,0,1-.38.26,3.6,3.6,0,0,1-.7.15,7.16,7.16,0,0,1-1.13.07,7.08,7.08,0,0,1-1.13-.07,4,4,0,0,1-.72-.15.75.75,0,0,1-.38-.26.7.7,0,0,1-.11-.38V128.26a1.76,1.76,0,0,1,.55-1.47,1.92,1.92,0,0,1,1.18-.42h7.42c.88,0,1.61,0,2.19.07s1.12.1,1.59.14a13.85,13.85,0,0,1,3.57,1.11,8.66,8.66,0,0,1,2.6,1.92,7.89,7.89,0,0,1,1.58,2.66,10.05,10.05,0,0,1,.53,3.32,9.93,9.93,0,0,1-.47,3.15A7.75,7.75,0,0,1,240,141.2a9.56,9.56,0,0,1-2.13,1.86,13.91,13.91,0,0,1-2.77,1.32,6.85,6.85,0,0,1,1.56,1,8.32,8.32,0,0,1,1.31,1.39,13.49,13.49,0,0,1,1.15,1.86c.36.7.71,1.49,1.08,2.37l3.12,7.67c.26.65.42,1.11.49,1.36a2.63,2.63,0,0,1,.11.61Zm-7-24.52h0a6.28,6.28,0,0,0-.92-3.47,5.2,5.2,0,0,0-3.08-2,10,10,0,0,0-1.52-.26,22.13,22.13,0,0,0-2.23-.09h-3.91V142h4.54a10,10,0,0,0,3.17-.45,6.37,6.37,0,0,0,2.22-1.25,4.86,4.86,0,0,0,1.31-1.87,6.77,6.77,0,0,0,.42-2.36Z"/><path d="M279.38,143.44a26.86,26.86,0,0,1-1,7.63,16,16,0,0,1-3,5.78,12.93,12.93,0,0,1-5,3.67,17.63,17.63,0,0,1-7,1.28,18.06,18.06,0,0,1-6.82-1.17,11.88,11.88,0,0,1-4.75-3.42,14.67,14.67,0,0,1-2.8-5.55,28.74,28.74,0,0,1-.92-7.63,26.59,26.59,0,0,1,1-7.5,15.8,15.8,0,0,1,3-5.73,13.35,13.35,0,0,1,5-3.64,17.72,17.72,0,0,1,7-1.28,17.92,17.92,0,0,1,6.73,1.16,12.09,12.09,0,0,1,4.76,3.39,14.39,14.39,0,0,1,2.84,5.49,27.68,27.68,0,0,1,.93,7.52Zm-4.88.32h0a27.36,27.36,0,0,0-.53-5.52,12.55,12.55,0,0,0-1.76-4.41,8.45,8.45,0,0,0-3.28-2.93,11.25,11.25,0,0,0-5.09-1.05,10.64,10.64,0,0,0-5.09,1.13,9.74,9.74,0,0,0-3.34,3,12.56,12.56,0,0,0-1.84,4.4,24.52,24.52,0,0,0-.55,5.29,29.33,29.33,0,0,0,.51,5.66,12.7,12.7,0,0,0,1.73,4.45,8.34,8.34,0,0,0,3.26,2.91,11.33,11.33,0,0,0,5.14,1,10.57,10.57,0,0,0,5.13-1.14,9.23,9.23,0,0,0,3.36-3.05,13.08,13.08,0,0,0,1.81-4.46,25.54,25.54,0,0,0,.54-5.35Z"/><path d="M324.81,160.59a.7.7,0,0,1-.11.38.75.75,0,0,1-.38.26,4,4,0,0,1-.7.15,8.37,8.37,0,0,1-2.16,0,3.73,3.73,0,0,1-.71-.15.72.72,0,0,1-.37-.26.7.7,0,0,1-.11-.38V130.18h0L307.8,160.73a.9.9,0,0,1-.23.32,1.32,1.32,0,0,1-.43.23,4.59,4.59,0,0,1-.67.14q-.41,0-.93,0a8.83,8.83,0,0,1-1,0,4,4,0,0,1-.67-.15,1.18,1.18,0,0,1-.42-.23.66.66,0,0,1-.2-.29l-11.91-30.55h0v30.41a.7.7,0,0,1-.11.38.75.75,0,0,1-.38.26,4.18,4.18,0,0,1-.7.15,7,7,0,0,1-1.12.07,6.71,6.71,0,0,1-1.09-.07,4,4,0,0,1-.69-.15.7.7,0,0,1-.35-.26.8.8,0,0,1-.1-.38V128.48a2,2,0,0,1,.6-1.62,2.08,2.08,0,0,1,1.33-.49h2.81a6.19,6.19,0,0,1,1.52.17,2.94,2.94,0,0,1,1.95,1.39,6.82,6.82,0,0,1,.57,1.27l10.13,25.29h.14l10.49-25.2a7.42,7.42,0,0,1,.65-1.38,3.52,3.52,0,0,1,.77-.91,2.54,2.54,0,0,1,.94-.48,3.91,3.91,0,0,1,1.19-.15h2.95a2.43,2.43,0,0,1,.77.12,1.83,1.83,0,0,1,.63.38,1.77,1.77,0,0,1,.41.65,2.43,2.43,0,0,1,.17,1v32.11Z"/><path d="M353.49,159.41a5.48,5.48,0,0,1-.05.85,1.84,1.84,0,0,1-.19.6,1.08,1.08,0,0,1-.31.35.71.71,0,0,1-.39.1H335.83a1.87,1.87,0,0,1-1.17-.42,1.71,1.71,0,0,1-.55-1.47V128.26a1.73,1.73,0,0,1,.55-1.47,1.87,1.87,0,0,1,1.17-.42h16.54a.66.66,0,0,1,.39.11.72.72,0,0,1,.28.35,3.09,3.09,0,0,1,.18.6,5.71,5.71,0,0,1,.06.9,5.08,5.08,0,0,1-.06.84,2.6,2.6,0,0,1-.18.59.69.69,0,0,1-.28.34.71.71,0,0,1-.39.1h-13.6v11h11.65a.62.62,0,0,1,.39.12,1,1,0,0,1,.29.34,1.79,1.79,0,0,1,.18.59,7.53,7.53,0,0,1,.05.89,6.82,6.82,0,0,1-.05.85,1.91,1.91,0,0,1-.18.57.68.68,0,0,1-.29.31.86.86,0,0,1-.39.09H338.77v12.55h13.79a.64.64,0,0,1,.38.12.9.9,0,0,1,.31.33,1.71,1.71,0,0,1,.19.59,5.77,5.77,0,0,1,.05.9Zm-10-35.76h0c-.38,0-.69,0-.95,0a3.84,3.84,0,0,1-.66-.1,1.37,1.37,0,0,1-.48-.25,3.25,3.25,0,0,1-.44-.41l-5.78-6.13a1.34,1.34,0,0,1-.3-.48.3.3,0,0,1,.11-.33,1.48,1.48,0,0,1,.54-.17,8.43,8.43,0,0,1,1,0c.53,0,1,0,1.29,0a6.91,6.91,0,0,1,.78.12,1,1,0,0,1,.46.2l.33.27,4.14,4.65,4.29-4.54a2.07,2.07,0,0,1,.42-.37,2.2,2.2,0,0,1,.54-.23,4,4,0,0,1,.8-.1c.32,0,.73,0,1.22,0a5.91,5.91,0,0,1,1,.07,1,1,0,0,1,.52.19.27.27,0,0,1,.07.32,1.21,1.21,0,0,1-.28.45l-6,6.13a2.23,2.23,0,0,1-1,.64,2.75,2.75,0,0,1-.69.12c-.26,0-.58,0-1,0Z"/><path d="M384.42,160.59a.92.92,0,0,1-.08.38.61.61,0,0,1-.35.26,2.87,2.87,0,0,1-.76.17c-.32,0-.76,0-1.29,0s-.86,0-1.15,0a3.18,3.18,0,0,1-.72-.17,1.28,1.28,0,0,1-.42-.34,2.09,2.09,0,0,1-.25-.54l-3.21-8.21c-.38-.93-.77-1.79-1.17-2.57a8.18,8.18,0,0,0-1.44-2,5.79,5.79,0,0,0-2-1.32,6.94,6.94,0,0,0-2.72-.47h-3.1v14.83a.63.63,0,0,1-.11.38.83.83,0,0,1-.39.26,3.6,3.6,0,0,1-.7.15,9.16,9.16,0,0,1-2.26,0,4,4,0,0,1-.72-.15.75.75,0,0,1-.38-.26.7.7,0,0,1-.11-.38V128.26a1.76,1.76,0,0,1,.55-1.47,1.94,1.94,0,0,1,1.18-.42h7.42c.88,0,1.61,0,2.2.07s1.11.1,1.58.14a13.73,13.73,0,0,1,3.57,1.11,8.66,8.66,0,0,1,2.6,1.92,7.89,7.89,0,0,1,1.58,2.66,10.05,10.05,0,0,1,.52,3.32,9.65,9.65,0,0,1-.47,3.15,7.56,7.56,0,0,1-1.36,2.46,9.08,9.08,0,0,1-2.12,1.86,13.74,13.74,0,0,1-2.78,1.32,6.71,6.71,0,0,1,1.57,1,8.32,8.32,0,0,1,1.31,1.39,13.49,13.49,0,0,1,1.15,1.86c.35.7.71,1.49,1.07,2.37l3.13,7.67c.26.65.42,1.11.49,1.36a2.63,2.63,0,0,1,.11.61Zm-13.53-36.94h0c-.37,0-.69,0-.94,0a3.84,3.84,0,0,1-.66-.1,1.37,1.37,0,0,1-.48-.25,4,4,0,0,1-.45-.41l-5.77-6.13a1.51,1.51,0,0,1-.3-.48.3.3,0,0,1,.11-.33,1.48,1.48,0,0,1,.54-.17,8.24,8.24,0,0,1,1,0c.54,0,1,0,1.3,0a7.29,7.29,0,0,1,.78.12,1,1,0,0,1,.46.2l.32.27,4.15,4.65,4.29-4.54a2.07,2.07,0,0,1,.42-.37,1.91,1.91,0,0,1,.54-.23,3.94,3.94,0,0,1,.8-.1c.32,0,.73,0,1.21,0a6,6,0,0,1,1.05.07,1.09,1.09,0,0,1,.53.19.3.3,0,0,1,.06.32,1.35,1.35,0,0,1-.28.45l-6,6.13a1.8,1.8,0,0,1-.45.39,2,2,0,0,1-.54.25,2.83,2.83,0,0,1-.69.12q-.39,0-1,0Zm6.55,12.42h0a6.36,6.36,0,0,0-.91-3.47,5.2,5.2,0,0,0-3.08-2,10,10,0,0,0-1.52-.26,22.13,22.13,0,0,0-2.23-.09h-3.91V142h4.53a9.93,9.93,0,0,0,3.17-.45,6.42,6.42,0,0,0,2.23-1.25,4.83,4.83,0,0,0,1.3-1.87,6.55,6.55,0,0,0,.42-2.36Z"/><path d="M396.55,116.73a2.36,2.36,0,0,1,1.22-.85,6.61,6.61,0,0,1,.83-.15c.33,0,.71,0,1.16,0a5.28,5.28,0,0,1,1.27.12,1.4,1.4,0,0,1,.65.31.42.42,0,0,1,.12.43,1.45,1.45,0,0,1-.31.52l-6.13,5.73a2.93,2.93,0,0,1-.5.42,2.07,2.07,0,0,1-.52.24,3.23,3.23,0,0,1-.69.14,8.73,8.73,0,0,1-1,0,5.05,5.05,0,0,1-1-.07.83.83,0,0,1-.48-.22.35.35,0,0,1-.08-.36,1.41,1.41,0,0,1,.3-.51l5.1-5.76Zm-.71,43.86h0a.7.7,0,0,1-.11.38.75.75,0,0,1-.38.26,4,4,0,0,1-.72.15,9,9,0,0,1-2.24,0,4,4,0,0,1-.73-.15.75.75,0,0,1-.38-.26.63.63,0,0,1-.11-.38v-33.5a.61.61,0,0,1,.12-.37.86.86,0,0,1,.41-.26,3.5,3.5,0,0,1,.73-.16,6.58,6.58,0,0,1,1.07-.08,6.93,6.93,0,0,1,1.13.08,3.25,3.25,0,0,1,.72.16.75.75,0,0,1,.38.26.67.67,0,0,1,.11.37v33.5Z"/><path d="M425.2,159.37a5.44,5.44,0,0,1-.06.88,2,2,0,0,1-.17.61.85.85,0,0,1-.3.34.73.73,0,0,1-.42.11H403.61a1.54,1.54,0,0,1-1.14-.43,1.86,1.86,0,0,1-.43-1.37v-1a4.31,4.31,0,0,1,0-.64,2.55,2.55,0,0,1,.17-.64,5.53,5.53,0,0,1,.39-.76c.15-.27.35-.6.59-1l16.11-25.21H403.39a1,1,0,0,1-.46-.11.74.74,0,0,1-.31-.34,1.94,1.94,0,0,1-.18-.6,7.08,7.08,0,0,1-.05-.85,8.14,8.14,0,0,1,.05-.93,2,2,0,0,1,.18-.61.75.75,0,0,1,.31-.36,1,1,0,0,1,.46-.11h19.47a1.56,1.56,0,0,1,1.15.42,1.76,1.76,0,0,1,.42,1.29v1.06a5.74,5.74,0,0,1-.05.77,4.43,4.43,0,0,1-.19.69,5.19,5.19,0,0,1-.37.75,8.56,8.56,0,0,1-.61,1l-16,25.11h17.06a.76.76,0,0,1,.69.46,3.38,3.38,0,0,1,.25,1.5Zm-11.86-35.72h0c-.37,0-.69,0-.94,0a3.84,3.84,0,0,1-.66-.1,1.37,1.37,0,0,1-.48-.25,4,4,0,0,1-.45-.41L405,116.73a1.51,1.51,0,0,1-.3-.48.3.3,0,0,1,.11-.33,1.48,1.48,0,0,1,.54-.17,8.37,8.37,0,0,1,1,0c.54,0,1,0,1.3,0a7.29,7.29,0,0,1,.78.12,1,1,0,0,1,.46.2l.32.27,4.15,4.65,4.29-4.54a2.07,2.07,0,0,1,.42-.37,1.91,1.91,0,0,1,.54-.23,4,4,0,0,1,.8-.1c.32,0,.73,0,1.22,0a5.84,5.84,0,0,1,1,.07,1,1,0,0,1,.52.19.28.28,0,0,1,.07.32,1.35,1.35,0,0,1-.28.45l-6,6.13a2,2,0,0,1-.46.39,2.2,2.2,0,0,1-.54.25,2.75,2.75,0,0,1-.69.12q-.39,0-1,0Z"/><path d="M85,75.47v85.65h85.65V75.47Zm66.82,67h0s-6.41-4.07-8.16-4.07H111.82c-1.46,0-8.22,4.07-8.22,4.07s4.06-6.41,4.06-8.16V102.41c0-1.75-4.06-8.16-4.06-8.16s6.76,4.06,8.22,4.06H143.7c1.75,0,8.16-4.06,8.16-4.06s-4.06,6.75-4.06,8.22v31.75c0,1.46,4.06,8.22,4.06,8.22Z"/></svg>