<svg id="Layer_1" data-name="Layer 1" xmlns="http://www.w3.org/2000/svg" viewBox="0 0 510.24 226.77"><defs><style>.cls-1{fill:#010101;}</style></defs><path class="cls-1" d="M100.81,89.54l-2.36,7c-1.16,3.29-3,5-5.61,5h-2.7c-2.7,0-3.43-1.65-2.32-4.94l5.73-17.16c1.11-3.31,3-4.94,5.63-4.94h2.56c2.7,0,3.43,1.63,2.32,4.94L102,85.69H97.76l2-5.71c.21-.64.08-.94-.45-.94h-.48c-.52,0-.87.3-1.08.94l-5.4,16c-.22.64,0,.95.45.95h.55c.52,0,.86-.31,1.08-.95l2.16-6.46Z"/><path class="cls-1" d="M129.05,101.56h-4.28l3-9.12,2.25-17.54h4.46l-1.6,9,4.55-9h4.05l-9.34,17.21Z"/><path class="cls-1" d="M168.13,101.56l2-12.63-4.24,12.63h-4.26L170.53,75h4.26l-4.17,12.49L177.18,75h4.43L174.44,88l-1.83,13.49Z"/><path class="cls-1" d="M215,74.9l-7.29,21.86h3.08l-1.58,4.8h-7.37l8.84-26.66Z"/><path class="cls-1" d="M240.67,101.56H238c-2.7,0-3.48-1.65-2.32-4.94l5.73-17.16c1.11-3.31,3-4.94,5.62-4.94h2.69c2.7,0,3.43,1.63,2.33,4.94l-5.74,17.11C245.17,99.8,243.31,101.56,240.67,101.56ZM247.06,79h-.6c-.53,0-.87.29-1.08.94L240,96c-.22.63-.08.94.44.94H241c.53,0,.87-.31,1.08-.94l5.4-16C247.72,79.32,247.51,79,247.06,79Z"/><path class="cls-1" d="M285.1,91.71l-1.6,4.9c-1.1,3.3-3,4.94-5.62,4.94h-2.37c-2.7,0-3.43-1.64-2.32-4.94l1.89-5.67h4.22l-1.77,5.22c-.21.65-.08,1,.45,1h.39c.52,0,.86-.31,1.08-1L280.51,93a1.55,1.55,0,0,0-.16-1.72l-2.54-3.37c-.91-1.19-.94-2.28-.31-4.18l1.42-4.21c1.09-3.31,3-4.94,5.61-4.94h2.33c2.69,0,3.41,1.63,2.32,4.94l-1.64,4.84h-4.23L284.84,80c.21-.63,0-.94-.45-.94h-.33c-.52,0-.87.31-1.08.94l-.83,2.47a1.53,1.53,0,0,0,.14,1.71l2.54,3.38C285.69,88.66,285.76,89.74,285.1,91.71Z"/><path class="cls-1" d="M314,101.56h-4.27L318.65,75h6.26c2.7,0,3.42,1.63,2.32,4.94l-2.5,7.47c-1.11,3.31-3,4.94-5.63,4.94h-2Zm8.28-22h-.92l-2.7,8.25h.92c.52,0,.86-.3,1.08-1l2.12-6.34c.16-.7,0-1-.5-1Z"/><path class="cls-1" d="M353.47,101.56h-2.7c-2.7,0-3.42-1.63-2.32-4.94l5.74-17.16c1.1-3.31,2.95-4.94,5.61-4.94h2.7c2.7,0,3.41,1.63,2.32,4.94l-5.76,17.11C357.94,99.87,356.08,101.56,353.47,101.56Zm6.45-22.48h-.61c-.52,0-.87.3-1.09.94l-5.4,16c-.21.65-.08,1,.45,1h.61c.51,0,.86-.31,1.08-1L360.35,80c.18-.65,0-.94-.48-.94Z"/><path class="cls-1" d="M398.85,92.34l-3.06,9.22h-4.27l3-9.12c.21-.65.08-1-.45-1h-1.06l-3.36,10.07h-4.28L394.29,75h6.41c2.7,0,3.43,1.63,2.32,4.94L401.28,85a5.67,5.67,0,0,1-3.09,3.9C399.35,89.41,399.54,90.36,398.85,92.34ZM398,79.56h-1l-2.46,7.37h1c.51,0,.86-.31,1.08-.94l1.82-5.48C398.71,79.86,398.58,79.56,398,79.56Z"/><path class="cls-1" d="M423.64,101.56l7.28-21.85h-2.59L429.92,75h9.45l-1.59,4.73h-2.59l-7.32,21.85Z"/><path class="cls-1" d="M92.32,136.14l-3.2,9.45c-1.49,4.44-4.43,6.64-8.89,6.64H75.85c-4.46,0-5.91-2.2-4.42-6.64l7.82-23.12c1.5-4.45,4.44-6.65,8.89-6.65h4.29c4.45,0,5.91,2.2,4.4,6.65L94,130.84H87l2.57-7.61c.29-.88,0-1.35-.85-1.35h-.83a1.63,1.63,0,0,0-1.71,1.35l-7.29,21.59c-.29.86,0,1.27.85,1.27h.92a1.65,1.65,0,0,0,1.71-1.27l2.93-8.69Z"/><path class="cls-1" d="M105.38,137l3.4-10.1h5l-8.42,25.06h-5l3.55-10.48h-2.56L97.8,151.93h-5l8.5-25h5L102.93,137Z"/><path class="cls-1" d="M160.21,139.66,155.84,152h-7.16L153,139.66c.31-.86,0-1.35-.83-1.35h-1.79l-4.81,13.5h-7.15L151.17,116h10.7c4.44,0,5.85,2.2,4.27,6.66l-2.44,6.89a7.7,7.7,0,0,1-5,5.32C160.71,135.62,161.14,137,160.21,139.66Zm-2.39-17.28h-1.74l-3.47,9.92h1.74a1.69,1.69,0,0,0,1.73-1.27l2.62-7.37C159,122.74,158.71,122.38,157.82,122.38Z"/><path class="cls-1" d="M200.9,152.24h-4.61c-4.44,0-5.86-2.2-4.28-6.64l8.2-23.11c1.58-4.46,4.57-6.66,9-6.66h4.6c4.45,0,5.87,2.2,4.28,6.66L209.9,145.6C208.32,150,205.34,152.24,200.9,152.24Zm9-30.27h-1a1.7,1.7,0,0,0-1.73,1.35l-7.66,21.59c-.31.87,0,1.27.82,1.27h1a1.67,1.67,0,0,0,1.74-1.27l7.67-21.59C211,122.38,210.73,122,209.86,122Z"/><path class="cls-1" d="M250.52,152.24h-7.15l12.71-35.84h10.48c4.44,0,5.86,2.2,4.28,6.64l-3.54,10.13c-1.58,4.44-4.56,6.64-9,6.64H255Zm12.07-29.69h-1.53l-3.94,11.11h1.52a1.68,1.68,0,0,0,1.74-1.35l3-8.54c.31-.77,0-1.19-.83-1.19Z"/><path class="cls-1" d="M303.25,152.24h-7.17L300.43,140l2.35-23.61h7.51l-1.93,12.15,6.89-12.15H322l-14.21,23.1Z"/><path class="cls-1" d="M357.16,152.24l2.53-19.48-3.21,9.1-3.67,10.38h-6.19l13-35.84H367l-2.31,17.73,3.65-10.32,2.7-7.41h6.18l-13,35.79Z"/><path class="cls-1" d="M427.77,116.4l-2.27,6.38h-6.14l-2.85,8.1h5.87l-2.26,6.4h-5.93l-3.05,8.58h6.24l-2.27,6.39h-13.4l12.67-35.73Zm-3.46-1.81H419.2l-1.81-5.26h4.14l1.47,1.74,2.7-1.74h4.14Z"/></svg>