<?xml version="1.0" encoding="UTF-8"?>
<svg width="58px" height="64px" viewBox="0 0 58 64" version="1.1" xmlns="http://www.w3.org/2000/svg" xmlns:xlink="http://www.w3.org/1999/xlink">
    <!-- Generator: Sketch 53.2 (72643) - https://sketchapp.com -->
    <title>Group</title>
    <desc>Created with Sketch.</desc>
    <g id="Page-1" stroke="none" stroke-width="1" fill="none" fill-rule="evenodd">
        <g id="kafe" fill="#000000" fill-rule="nonzero">
            <g id="Group">
                <path d="M8.2,26 C7.3,26 6.6,25.3 6.6,24.4 L6.6,17 C6.6,12.6 8.7,10.3 10.5,8.3 C12.1,6.5 13.4,5 13.4,2.3 C13.4,1.4 14.1,0.7 15,0.7 C15.9,0.7 16.6,1.4 16.6,2.3 C16.6,6.3 14.6,8.5 12.9,10.4 C11.3,12.3 9.8,13.9 9.8,17 L9.8,24.4 C9.8,25.3 9.1,26 8.2,26 Z" id="Path"></path>
                <path d="M21.3,23 C20.4,23 19.7,22.3 19.7,21.4 L19.7,17 C19.7,12.6 21.8,10.3 23.6,8.3 C25.2,6.5 26.5,5 26.5,2.3 C26.5,1.4 27.2,0.7 28.1,0.7 C29,0.7 29.7,1.4 29.7,2.3 C29.7,6.3 27.7,8.5 26,10.4 C24.4,12.3 22.9,13.9 22.9,17 L22.9,21.4 C22.9,22.3 22.1,23 21.3,23 Z" id="Path"></path>
                <path d="M34.1,24.2 C33.2,24.2 32.5,23.5 32.5,22.6 L32.5,17 C32.5,12.6 34.6,10.3 36.4,8.3 C38,6.5 39.3,5 39.3,2.3 C39.3,1.4 40,0.7 40.9,0.7 C41.8,0.7 42.5,1.4 42.5,2.3 C42.5,6.3 40.5,8.5 38.8,10.4 C37.2,12.3 35.7,13.9 35.7,17 L35.7,22.6 C35.7,23.5 35,24.2 34.1,24.2 Z" id="Path"></path>
                <g transform="translate(0.000000, 27.000000)" id="Path">
                    <path d="M23.7,36.8 C17.1,36.8 10.8,34.3 6.4,29.9 C2.6,26.1 0.6,21.3 0.7,16 L0.7,2 C0.7,1 1.5,0.1 2.6,0.1 C3.7,0.1 4.5,0.9 4.5,2 L4.5,16 C4.5,20.3 6.1,24.2 9.1,27.3 C12.8,31 18.1,33.1 23.7,33.1 C24.7,33.1 25.6,33.9 25.6,35 C25.6,36 24.8,36.8 23.7,36.8 Z"></path>
                    <path d="M23.7,36.8 C22.7,36.8 21.8,36 21.8,34.9 C21.8,33.9 22.6,33 23.7,33 C29.3,33 34.7,30.9 38.3,27.2 C41.4,24.1 43,20.2 42.9,15.9 L42.9,2 C42.9,1 43.7,0.1 44.8,0.1 C45.8,0.1 46.7,0.9 46.7,2 L46.7,16 C46.7,21.3 44.7,26.2 41,29.9 C36.6,34.3 30.4,36.8 23.7,36.8 Z"></path>
                </g>
                <path d="M23.7,37.9 C15.6,37.9 7.9,35.3 1.4,30.5 C0.9,30.1 0.6,29.6 0.6,29 C0.6,28.4 0.9,27.9 1.4,27.5 C7.9,22.7 15.6,20.1 23.7,20.1 C31.8,20.1 39.5,22.7 46,27.5 C46.5,27.9 46.8,28.4 46.8,29 C46.8,29.6 46.5,30.1 46,30.5 C39.5,35.3 31.8,37.9 23.7,37.9 Z M5.9,29 C11.3,32.4 17.4,34.2 23.8,34.2 C30.2,34.2 36.3,32.4 41.7,29 C36.3,25.6 30.2,23.8 23.8,23.8 C17.4,23.9 11.2,25.6 5.9,29 Z" id="Shape"></path>
                <path d="M47.1,52.5 C46.1,52.5 45.2,51.7 45.2,50.6 C45.2,49.6 46,48.7 47.1,48.7 C50.6,48.7 53.4,45.9 53.4,42.4 C53.4,38.9 50.6,36.1 47.1,36.1 C46.1,36.1 45.2,35.3 45.2,34.2 C45.2,33.2 46,32.3 47.1,32.3 C52.7,32.3 57.2,36.8 57.2,42.4 C57.2,48 52.7,52.5 47.1,52.5 Z" id="Path"></path>
            </g>
        </g>
    </g>
</svg>