<?xml version="1.0" encoding="utf-8"?>
<!-- Generator: Adobe Illustrator 22.0.1, SVG Export Plug-In . SVG Version: 6.00 Build 0)  -->
<svg version="1.1" id="Layer_1" xmlns="http://www.w3.org/2000/svg" xmlns:xlink="http://www.w3.org/1999/xlink" x="0px" y="0px"
	 width="700px" height="140px" viewBox="0 0 700 140" style="enable-background:new 0 0 700 140;" xml:space="preserve">
<g>
	<path d="M52.2,59c-0.9,0-1.6-0.7-1.6-1.6V50c0-4.4,2.1-6.7,3.9-8.7c1.6-1.8,2.9-3.3,2.9-6c0-0.9,0.7-1.6,1.6-1.6
		c0.9,0,1.6,0.7,1.6,1.6c0,4-2,6.2-3.7,8.1c-1.6,1.9-3.1,3.5-3.1,6.6v7.4C53.8,58.3,53.1,59,52.2,59z"/>
	<path d="M65.3,56c-0.9,0-1.6-0.7-1.6-1.6V50c0-4.4,2.1-6.7,3.9-8.7c1.6-1.8,2.9-3.3,2.9-6c0-0.9,0.7-1.6,1.6-1.6
		c0.9,0,1.6,0.7,1.6,1.6c0,4-2,6.2-3.7,8.1c-1.6,1.9-3.1,3.5-3.1,6.6v4.4C66.9,55.3,66.1,56,65.3,56z"/>
	<path d="M78.1,57.2c-0.9,0-1.6-0.7-1.6-1.6V50c0-4.4,2.1-6.7,3.9-8.7c1.6-1.8,2.9-3.3,2.9-6c0-0.9,0.7-1.6,1.6-1.6
		c0.9,0,1.6,0.7,1.6,1.6c0,4-2,6.2-3.7,8.1c-1.6,1.9-3.1,3.5-3.1,6.6v5.6C79.7,56.5,79,57.2,78.1,57.2z"/>
	<g>
		<path d="M67.7,96.8c-6.6,0-12.9-2.5-17.3-6.9c-3.8-3.8-5.8-8.6-5.7-13.9V62c0-1,0.8-1.9,1.9-1.9s1.9,0.8,1.9,1.9v14
			c0,4.3,1.6,8.2,4.6,11.3c3.7,3.7,9,5.8,14.6,5.8c1,0,1.9,0.8,1.9,1.9C69.6,96,68.8,96.8,67.7,96.8z"/>
		<path d="M67.7,96.8c-1,0-1.9-0.8-1.9-1.9c0-1,0.8-1.9,1.9-1.9c5.6,0,11-2.1,14.6-5.8c3.1-3.1,4.7-7,4.6-11.3V62
			c0-1,0.8-1.9,1.9-1.9c1,0,1.9,0.8,1.9,1.9v14c0,5.3-2,10.2-5.7,13.9C80.6,94.3,74.4,96.8,67.7,96.8z"/>
	</g>
	<path d="M67.7,70.9c-8.1,0-15.8-2.6-22.3-7.4c-0.5-0.4-0.8-0.9-0.8-1.5c0-0.6,0.3-1.1,0.8-1.5c6.5-4.8,14.2-7.4,22.3-7.4
		s15.8,2.6,22.3,7.4c0.5,0.4,0.8,0.9,0.8,1.5c0,0.6-0.3,1.1-0.8,1.5C83.5,68.3,75.8,70.9,67.7,70.9z M49.9,62
		c5.4,3.4,11.5,5.2,17.9,5.2s12.5-1.8,17.9-5.2c-5.4-3.4-11.5-5.2-17.9-5.2C61.4,56.9,55.2,58.6,49.9,62z"/>
	<path d="M91.1,85.5c-1,0-1.9-0.8-1.9-1.9c0-1,0.8-1.9,1.9-1.9c3.5,0,6.3-2.8,6.3-6.3c0-3.5-2.8-6.3-6.3-6.3c-1,0-1.9-0.8-1.9-1.9
		c0-1,0.8-1.9,1.9-1.9c5.6,0,10.1,4.5,10.1,10.1C101.2,81,96.7,85.5,91.1,85.5z"/>
</g>
<g>
	<rect x="200.9" y="47.4" width="3.6" height="46.2"/>
	<path d="M202.7,67.8v-3.6c1.5,0,2.9-0.6,3.8-1.5c0.5-0.5,1.1-1.4,1.1-2.7V47.4h3.6V60c0,2-0.7,3.8-2.2,5.3
		C207.4,66.8,205.1,67.8,202.7,67.8z"/>
	<path d="M202.8,67.8c-2.4,0-4.7-0.9-6.3-2.5c-1.4-1.4-2.2-3.3-2.2-5.3V47.4h3.6V60c0,1.3,0.6,2.2,1.1,2.7c0.9,0.9,2.3,1.5,3.8,1.5
		V67.8z"/>
	<path d="M225.7,75.1c-2.4,0-4.7-0.9-6.3-2.5c-1.4-1.4-2.2-3.3-2.2-5.3V54.7h3.6v12.6c0,1.3,0.6,2.2,1.1,2.8
		c0.9,0.9,2.4,1.5,3.8,1.5V75.1z"/>
	<path d="M227.4,93.6l-3.6,0l0.1-42.8c-0.8,0.3-1.5,0.7-2,1.2c-0.5,0.5-1.1,1.4-1.1,2.7v12.6h-3.6V54.8c0-2,0.7-3.8,2.2-5.3
		c1.6-1.6,3.9-2.5,6.3-2.5h1.8L227.4,93.6z"/>
</g>
<g>
	<path d="M346.9,88.6c-1.4-8.3,0.5-12.3,4.9-17.6c3.5-4.2,5.8-7.8,4.1-14.6l4-1c2.3,9.3-1.9,14.4-4.9,18.2c-3.6,4.4-5.2,7.3-4,14.3
		L346.9,88.6z"/>
	<path d="M352.9,98.7c-14.6,0-26.5-11.9-26.5-26.5c0-14.6,11.9-26.5,26.5-26.5c14.6,0,26.5,11.9,26.5,26.5
		C379.4,86.8,367.5,98.7,352.9,98.7z M352.9,49.8c-12.3,0-22.4,10-22.4,22.4s10,22.4,22.4,22.4c12.3,0,22.4-10,22.4-22.4
		S365.2,49.8,352.9,49.8z"/>
</g>
<g>
	<path d="M516.5,89.1c-1.2,0-2.3-0.4-3.3-1.1c-2.7-2-5.4-4-8.2-5.8c-8-4.7-22.1-4.7-30.3,0c-2.6,1.5-5.1,3.4-7.5,5.3l-0.6,0.5
		c-1.5,1.1-3.3,1.4-5.1,0.9c-1.7-0.6-2.9-1.9-3.4-3.6c-0.7-2.3-0.4-5.2,0.9-8.4c1.4-3.7,9.6-21.9,31.6-21.9
		c18.8,0,28.2,13.9,30.8,22.1c0.7,2.1,1.3,5.2,0.3,8.3c-0.4,1.7-1.7,3-3.4,3.5C517.6,89,517,89.1,516.5,89.1z M508.9,80.2
		c2.2,1.5,4.4,3.1,6.6,4.7c0.5,0.4,1,0.5,1.5,0.3c0.5-0.2,0.8-0.5,0.9-1c0.7-2.2,0.2-4.5-0.3-6c-0.1-0.2-0.7-2-2-4.5
		C513.3,75.8,511,78,508.9,80.2z M464.4,74.1c-1.1,1.8-1.7,3.3-2,4.1c-0.9,2.4-1.2,4.4-0.7,6c0.1,0.5,0.5,0.9,0.9,1
		c0.5,0.2,1.1,0.1,1.5-0.3l0.6-0.5c1.9-1.5,3.9-3,5.9-4.3C468.6,78.1,466.5,76,464.4,74.1z M466.5,70.8c2.6,2.4,5.1,4.8,7.5,7.4
		c1.6-0.8,3.2-1.4,5-1.9c-1-5.1-2-9.3-3.1-14C471.7,64.7,468.6,67.9,466.5,70.8z M501.1,76.4c1.6,0.5,3.1,1.1,4.5,1.8
		c2.5-2.6,5.2-5.2,8-7.8c-2.1-2.9-5.1-6-9.3-8.3C503.1,67.1,502.1,71.7,501.1,76.4z M489.9,74.8c2.5,0,5.1,0.2,7.5,0.7
		c1-4.9,2.1-9.7,3.4-15c-3-1.1-6.4-1.8-10.3-1.8c-4.2,0-7.9,0.8-11,2c1.2,4.9,2.2,9.4,3.3,14.8C485.1,75,487.5,74.8,489.9,74.8z"/>
</g>
<g>
	<path d="M600.2,73.9c-4.7,0-8.6-3.9-8.6-8.6s3.9-8.6,8.6-8.6c0.1,0,0.2,0,0.2,0l27.2,4.3l-0.5,3l-27.1-4.3c-3,0.1-5.5,2.5-5.5,5.6
		c0,3,2.5,5.5,5.5,5.6c1.5-0.2,18.2-2.9,27.1-4.3l0.5,3C600.5,73.9,600.4,73.9,600.2,73.9z"/>
	<path d="M645.5,102.4c-2.6,0-4.7-2.1-4.7-4.7c0-0.2,0-0.3,0.1-0.5l3.3-8.3c0.2-0.5,0.7-0.8,1.2-0.8l0,0c0.5,0,1,0.3,1.2,0.8
		l3.3,8.1c0.1,0.2,0.2,0.4,0.2,0.7C650.1,100.3,648.1,102.4,645.5,102.4z M643.4,98c0.1,1,1,1.9,2.1,1.9c1.1,0,1.9-0.8,2.1-1.8
		l-2.1-5.1L643.4,98z"/>
	<path d="M645.5,89.8c-2.6,0-4.7-2.1-4.7-4.7c0-0.2,0-0.3,0.1-0.5l3.3-8.3c0.2-0.5,0.7-0.8,1.2-0.8l0,0c0.5,0,1,0.3,1.2,0.8l3.3,8.1
		c0.1,0.2,0.2,0.4,0.2,0.7C650.1,87.7,648.1,89.8,645.5,89.8z M643.4,85.4c0.1,1,1,1.9,2.1,1.9c1.1,0,1.9-0.8,2.1-1.8l-2.1-5.1
		L643.4,85.4z"/>
	<path d="M644.4,76.6c-6.2,0-12.1-2-17.1-5.7c-0.4-0.3-0.6-0.7-0.6-1.2V59.5c0-0.8,0.7-1.5,1.5-1.5c0.8,0,1.5,0.7,1.5,1.5V69
		c4.3,3,9.4,4.6,14.7,4.6c5.3,0,10.3-1.6,14.7-4.6v-9.5c0-0.8,0.7-1.5,1.5-1.5c0.8,0,1.5,0.7,1.5,1.5v10.2c0,0.5-0.2,0.9-0.6,1.2
		C656.4,74.7,650.5,76.6,644.4,76.6z"/>
	<path d="M644.4,66.4c-6.2,0-12.1-2-17.1-5.7c-0.4-0.3-0.6-0.7-0.6-1.2c0-0.5,0.2-0.9,0.6-1.2c5-3.7,10.9-5.7,17.1-5.7
		c6.2,0,12.1,2,17.1,5.7c0.4,0.3,0.6,0.7,0.6,1.2c0,0.5-0.2,0.9-0.6,1.2C656.4,64.4,650.5,66.4,644.4,66.4z M630.9,59.5
		c4.1,2.5,8.7,3.9,13.5,3.9c4.8,0,9.4-1.3,13.5-3.9c-4.1-2.5-8.7-3.9-13.5-3.9C639.6,55.7,634.9,57,630.9,59.5z"/>
</g>
</svg>
