<?xml version="1.0" encoding="utf-8"?>
<!-- Generator: Adobe Illustrator 16.0.0, SVG Export Plug-In . SVG Version: 6.00 Build 0)  -->
<!DOCTYPE svg PUBLIC "-//W3C//DTD SVG 1.1//EN" "http://www.w3.org/Graphics/SVG/1.1/DTD/svg11.dtd">
<svg version="1.1" id="Layer_12" xmlns="http://www.w3.org/2000/svg" xmlns:xlink="http://www.w3.org/1999/xlink" x="0px" y="0px"
	 width="100px" height="100px" viewBox="0 0 100 100" enable-background="new 0 0 100 100" xml:space="preserve">
<path d="M87.393,77.402c-0.034,5.533-8.502,6.867-12.612,6.792c-2.329-0.043-4.937-0.583-6.577-2.353
	c-2.83-3.053,1.166-5.517,3.423-7.207c4.947-3.702,7.214-8.569,4.271-14.407c-2.304-4.57-6.464-7.706-9.963-11.346l1.575-1.575
	l-5.339-5.339c-1.009-1.009-2.452-1.317-3.727-0.926l-1.638-1.638c-0.051-0.051-0.108-0.09-0.163-0.133
	C68.946,26.426,76.983,15.12,75.007,13.144c-2.167-2.166-15.531,7.688-29.851,22.007c-2.845,2.846-5.511,5.651-7.945,8.341
	c0.057-2.915-0.918-4.338-2.418-6.672l-13.552,6.667c1.895,5.083,6.996,7.46,9.098,7.216c-0.083,0.484-0.015,0.878,0.231,1.124
	c0.77,0.771,2.975-0.186,4.924-2.135s2.905-4.153,2.135-4.924c-0.158-0.158-0.378-0.239-0.642-0.259
	c0.049-0.202,0.097-0.409,0.142-0.621c1.14-0.692,2.024-0.958,2.368-0.614c0.681,0.681-0.987,3.452-3.726,6.19
	c-2.738,2.738-5.509,4.407-6.19,3.726c-0.11-0.11-0.153-0.279-0.146-0.49c-4.96,6.399-7.495,11.094-6.287,12.303
	c2.166,2.165,15.531-7.688,29.851-22.008c0.342-0.343,0.679-0.684,1.016-1.023c0.034,0.04,0.063,0.084,0.101,0.123l1.771,1.771
	c-0.237,1.181,0.101,2.454,1.016,3.37l5.339,5.339l1.658-1.657c4.104,4.08,9.085,7.875,10.363,13.463
	c1.724,7.537-10.443,8.498-10.111,15.579c0.313,6.671,9.32,7.671,14.212,7.032c5.146-0.672,11.991-3.47,12.029-9.588
	C90.404,75.467,87.404,75.469,87.393,77.402z M16.607,76.166c0.056,0.036,0.095,0.093,0.109,0.157
	c0.014,0.064,0.002,0.133-0.034,0.188l-0.516,0.799c-0.048,0.074-0.128,0.114-0.21,0.114c-0.047,0-0.094-0.013-0.135-0.04
	l-0.4-0.258c-0.056-0.036-0.095-0.093-0.109-0.157c-0.014-0.064-0.002-0.133,0.034-0.188l0.516-0.799
	c0.075-0.117,0.231-0.149,0.345-0.074L16.607,76.166z M18.027,67.097c-0.062-0.123-0.011-0.273,0.112-0.335l1.455-0.725
	c0.123-0.061,0.273-0.012,0.335,0.112l0.212,0.425c0.03,0.06,0.035,0.128,0.014,0.19c-0.021,0.063-0.066,0.115-0.126,0.145
	l-1.455,0.725c-0.035,0.018-0.073,0.026-0.111,0.026c-0.027,0-0.054-0.004-0.08-0.013c-0.063-0.021-0.115-0.066-0.144-0.126
	L18.027,67.097z M15.33,68.972l-0.212-0.426c-0.062-0.123-0.011-0.273,0.112-0.335l1.455-0.725c0.06-0.029,0.129-0.034,0.191-0.014
	c0.063,0.021,0.115,0.066,0.144,0.126l0.212,0.426c0.062,0.123,0.011,0.273-0.112,0.335l-1.455,0.725
	c-0.035,0.018-0.073,0.026-0.111,0.026c-0.027,0-0.054-0.004-0.08-0.013C15.411,69.076,15.359,69.031,15.33,68.972z M18.37,73.436
	c0.116,0.075,0.149,0.229,0.074,0.346l-0.881,1.365c-0.048,0.074-0.128,0.114-0.21,0.114c-0.046,0-0.094-0.013-0.135-0.04
	l-0.4-0.258c-0.056-0.036-0.095-0.093-0.109-0.157c-0.014-0.064-0.002-0.133,0.034-0.188l0.881-1.365
	c0.076-0.117,0.23-0.148,0.346-0.074L18.37,73.436z M14.322,69.474c0.062,0.123,0.012,0.273-0.112,0.335l-1.454,0.726
	c-0.036,0.018-0.074,0.026-0.112,0.026c-0.091,0-0.18-0.051-0.224-0.139l-0.213-0.426c-0.03-0.059-0.035-0.128-0.014-0.19
	c0.021-0.063,0.066-0.115,0.125-0.145l1.455-0.726c0.125-0.061,0.274-0.011,0.335,0.112L14.322,69.474z M20.936,65.647
	c-0.03-0.059-0.035-0.128-0.014-0.19s0.066-0.115,0.125-0.145l0.851-0.425c0.06-0.029,0.128-0.034,0.191-0.014
	c0.063,0.021,0.115,0.066,0.145,0.126l0.212,0.426c0.062,0.123,0.012,0.273-0.112,0.335l-0.851,0.425
	c-0.036,0.018-0.074,0.026-0.112,0.026c-0.091,0-0.18-0.051-0.224-0.139L20.936,65.647z M11.413,70.924
	c0.03,0.06,0.035,0.128,0.014,0.19c-0.021,0.063-0.066,0.115-0.126,0.145l-0.851,0.424c-0.036,0.018-0.074,0.026-0.111,0.026
	c-0.092,0-0.18-0.051-0.224-0.139l-0.212-0.426c-0.03-0.06-0.035-0.128-0.014-0.19c0.021-0.063,0.066-0.115,0.126-0.145l0.851-0.424
	c0.123-0.061,0.274-0.012,0.335,0.112L11.413,70.924z M21.089,69.684c-0.048,0.074-0.128,0.114-0.21,0.114
	c-0.046,0-0.093-0.013-0.135-0.04l-0.4-0.258c-0.056-0.036-0.095-0.093-0.109-0.157c-0.014-0.064-0.002-0.133,0.034-0.188
	l0.882-1.365c0.075-0.117,0.229-0.149,0.346-0.074l0.399,0.258c0.116,0.075,0.149,0.229,0.074,0.346L21.089,69.684z M23.902,66.696
	l-0.134,0.94c-0.009,0.065-0.044,0.125-0.098,0.165c-0.043,0.032-0.096,0.05-0.15,0.05c-0.012,0-0.023-0.001-0.035-0.003
	l-0.471-0.067c-0.137-0.02-0.232-0.146-0.212-0.282l0.086-0.603l-0.037,0.057c-0.048,0.074-0.128,0.114-0.21,0.114
	c-0.047,0-0.094-0.013-0.135-0.04l-0.4-0.258c-0.056-0.036-0.095-0.093-0.109-0.157c-0.014-0.064-0.001-0.133,0.035-0.188
	l0.516-0.799c0.075-0.117,0.23-0.148,0.346-0.074l0.399,0.258c0.056,0.036,0.095,0.093,0.109,0.157
	c0.014,0.064,0.001,0.133-0.035,0.188l-0.126,0.195l0.449,0.064C23.826,66.434,23.921,66.56,23.902,66.696z M23.538,69.246
	l-0.229,1.608c-0.018,0.125-0.125,0.215-0.247,0.215c-0.012,0-0.023-0.001-0.035-0.002L22.555,71
	c-0.066-0.009-0.125-0.044-0.165-0.097c-0.04-0.054-0.057-0.12-0.048-0.186l0.23-1.609c0.009-0.065,0.044-0.125,0.098-0.165
	c0.053-0.039,0.118-0.058,0.186-0.047l0.471,0.067C23.462,68.983,23.558,69.109,23.538,69.246z M22.113,78.714
	c0.04,0.053,0.057,0.12,0.048,0.186l-0.134,0.941c-0.009,0.065-0.044,0.125-0.098,0.165c-0.043,0.032-0.096,0.05-0.15,0.05
	c-0.012,0-0.023-0.001-0.035-0.003l-0.472-0.067c-0.066-0.009-0.125-0.044-0.165-0.097c-0.04-0.054-0.057-0.12-0.047-0.186
	l0.135-0.94c0.02-0.137,0.14-0.234,0.283-0.212l0.471,0.066C22.014,78.626,22.073,78.661,22.113,78.714z M20.133,70.704
	c0.116,0.075,0.149,0.229,0.074,0.346l-0.881,1.365c-0.048,0.074-0.128,0.114-0.21,0.114c-0.046,0-0.094-0.013-0.135-0.04
	l-0.4-0.258c-0.056-0.036-0.095-0.093-0.109-0.157c-0.014-0.064-0.002-0.133,0.034-0.188l0.881-1.365
	c0.075-0.117,0.23-0.15,0.346-0.074L20.133,70.704z M22.62,75.682l-0.229,1.609c-0.009,0.065-0.044,0.125-0.098,0.165
	c-0.043,0.032-0.096,0.05-0.15,0.05c-0.012,0-0.023-0.001-0.036-0.003l-0.471-0.067c-0.136-0.02-0.231-0.146-0.212-0.282
	l0.229-1.609c0.009-0.065,0.044-0.125,0.098-0.165c0.053-0.039,0.118-0.057,0.186-0.047l0.471,0.067
	C22.544,75.419,22.639,75.545,22.62,75.682z M23.079,72.464l-0.229,1.609c-0.009,0.065-0.044,0.125-0.098,0.165
	c-0.043,0.032-0.096,0.05-0.15,0.05c-0.012,0-0.024-0.001-0.036-0.003l-0.472-0.068c-0.136-0.02-0.231-0.146-0.211-0.282l0.23-1.608
	c0.009-0.065,0.044-0.125,0.098-0.165c0.053-0.039,0.119-0.057,0.186-0.047l0.471,0.067C23.003,72.201,23.099,72.327,23.079,72.464z
	"/>
</svg>
