<?xml version="1.0" encoding="utf-8"?>
<!-- Generator: Adobe Illustrator 16.0.0, SVG Export Plug-In . SVG Version: 6.00 Build 0)  -->
<!DOCTYPE svg PUBLIC "-//W3C//DTD SVG 1.1//EN" "http://www.w3.org/Graphics/SVG/1.1/DTD/svg11.dtd">
<svg version="1.1" id="Layer_13" xmlns="http://www.w3.org/2000/svg" xmlns:xlink="http://www.w3.org/1999/xlink" x="0px" y="0px"
	 width="100px" height="100px" viewBox="0 0 100 100" enable-background="new 0 0 100 100" xml:space="preserve">
<path d="M43.227,47.373h6.158v5.737h-6.158v6.157H37.49v-6.157h-6.158v-5.737h6.158v-6.158h5.736V47.373z M85.812,53.948
	c0,0.468,0.381,0.848,0.849,0.848h2.754v4.346c-0.235-0.069-0.483-0.108-0.741-0.108c-0.597,0-1.146,0.2-1.59,0.534v7.409
	c0.444,0.333,0.993,0.534,1.59,0.534c0.258,0,0.506-0.039,0.741-0.107v1.803c0,1.755-1.423,3.178-3.179,3.178h-0.999
	c-0.481-5.17-4.829-9.218-10.126-9.218c-5.296,0-9.644,4.047-10.125,9.218h-0.999H34.062c-0.481-5.17-4.83-9.218-10.126-9.218
	c-5.295,0-9.644,4.047-10.125,9.218h-0.046c-1.756,0-3.179-1.423-3.179-3.178V34.56c0-1.756,1.423-3.179,3.179-3.179H69.39
	c0.253,0,0.498,0.032,0.735,0.088c0.506-0.057,0.914-0.088,1.172-0.088L86.235,44.89c1.756,0,3.179,1.423,3.179,3.179v5.033H86.66
	C86.192,53.101,85.812,53.48,85.812,53.948z M53.604,50.241c0-7.314-5.931-13.244-13.246-13.244c-7.313,0-13.243,5.93-13.243,13.244
	c0,7.314,5.931,13.244,13.243,13.244C47.673,63.485,53.604,57.555,53.604,50.241z M72.25,51.883h-4.661v1.006h4.661V51.883z
	 M84.301,47.937L68.728,34.269c-0.183-0.182-0.456-0.236-0.693-0.138c-0.238,0.098-0.393,0.331-0.393,0.588v13.667
	c0,0.351,0.284,0.635,0.636,0.635h15.574c0.258,0,0.488-0.155,0.588-0.392C84.537,48.392,84.483,48.118,84.301,47.937z
	 M62.629,29.95h3.349c0.29,0,0.525-0.234,0.525-0.524v-3.349c0-0.289-0.235-0.524-0.525-0.524h-3.349
	c-0.289,0-0.523,0.235-0.523,0.524v3.349C62.105,29.716,62.34,29.95,62.629,29.95z M57.921,28.229h2.796
	c0.264,0,0.477-0.213,0.477-0.477c0-0.264-0.213-0.477-0.477-0.477h-2.796c-0.264,0-0.477,0.213-0.477,0.477
	C57.444,28.015,57.657,28.229,57.921,28.229z M60.801,24.745c0.093,0.093,0.216,0.14,0.337,0.14c0.122,0,0.244-0.047,0.337-0.14
	c0.187-0.186,0.187-0.488,0-0.674l-1.978-1.977c-0.186-0.187-0.487-0.187-0.674,0c-0.187,0.186-0.187,0.488,0,0.674L60.801,24.745z
	 M67.845,27.752c0,0.263,0.214,0.477,0.477,0.477h2.797c0.263,0,0.477-0.213,0.477-0.477c0-0.264-0.214-0.477-0.477-0.477h-2.797
	C68.059,27.275,67.845,27.488,67.845,27.752z M67.457,24.726c0.121,0,0.244-0.046,0.336-0.14l1.978-1.977
	c0.187-0.186,0.187-0.488,0-0.674s-0.488-0.186-0.675,0l-1.977,1.978c-0.186,0.186-0.186,0.488,0,0.674
	C67.213,24.679,67.335,24.726,67.457,24.726z M64.463,23.896c0.264,0,0.477-0.213,0.477-0.477v-2.797
	c0-0.263-0.213-0.477-0.477-0.477c-0.263,0-0.477,0.213-0.477,0.477v2.797C63.986,23.682,64.2,23.896,64.463,23.896z M31.088,72.384
	c0,4.125-3.345,7.47-7.47,7.47s-7.47-3.345-7.47-7.47c0-4.125,3.345-7.469,7.47-7.469S31.088,68.259,31.088,72.384z M26.956,72.384
	c0-1.84-1.498-3.337-3.338-3.337s-3.337,1.497-3.337,3.337s1.497,3.337,3.337,3.337S26.956,74.225,26.956,72.384z M82.784,72.384
	c0,4.125-3.344,7.47-7.471,7.47c-4.126,0-7.469-3.345-7.469-7.47c0-4.125,3.343-7.469,7.469-7.469
	C79.44,64.915,82.784,68.259,82.784,72.384z M78.651,72.384c0-1.84-1.497-3.337-3.338-3.337c-1.839,0-3.337,1.497-3.337,3.337
	s1.498,3.337,3.337,3.337C77.154,75.722,78.651,74.225,78.651,72.384z"/>
</svg>
