<?xml version="1.0" encoding="utf-8"?>
<!-- Generator: Adobe Illustrator 16.0.0, SVG Export Plug-In . SVG Version: 6.00 Build 0)  -->
<!DOCTYPE svg PUBLIC "-//W3C//DTD SVG 1.1//EN" "http://www.w3.org/Graphics/SVG/1.1/DTD/svg11.dtd">
<svg version="1.1" id="Layer_11" xmlns="http://www.w3.org/2000/svg" xmlns:xlink="http://www.w3.org/1999/xlink" x="0px" y="0px"
	 width="100px" height="100px" viewBox="0 0 100 100" enable-background="new 0 0 100 100" xml:space="preserve">
<path d="M58.568,24.209c-3.282,0-6.415,0.77-9.289,2.165c0.545-2.005,1.508-4.156,3.237-5.702c2.217-1.98,5.407-2.658,9.484-2.016
	l0.611-3.869c-5.307-0.841-9.587,0.164-12.724,2.981c-2.9,2.603-4.191,6.238-4.766,9.194c-3.174-1.765-6.701-2.754-10.418-2.754
	c-7.242,0-13.763,2.665-18.339,7.611c1.126,0.31,2.205,0.727,3.228,1.243c1.712-1.582,3.469-2.284,4.376-1.594
	c0.882,0.671,0.709,2.464-0.279,4.465c3.397,3.192,5.531,7.714,5.531,12.743c0,2.796-0.672,5.429-1.838,7.772
	c1.163,2.025,1.838,4.367,1.838,6.871c0,6.443-4.41,11.841-10.372,13.38c4.32,5.13,9.84,8.448,15.856,8.448
	c4.319,0,8.384,1.283,11.932-1.056c3.548,2.339,7.613,1.056,11.932,1.056c13.844,0,25.068-17.56,25.068-34.388
	C83.636,33.933,72.412,24.209,58.568,24.209z M77.324,55.59c-1.082,0-1.958-0.878-1.958-1.959c0-11.881-8.006-21.547-17.847-21.547
	c-1.082,0-1.959-0.878-1.959-1.959c0-1.082,0.877-1.959,1.959-1.959c12.001,0,21.765,11.424,21.765,25.465
	C79.283,54.712,78.406,55.59,77.324,55.59z"/>
</svg>
