<?xml version="1.0" encoding="utf-8"?>
<!-- Generator: Adobe Illustrator 16.0.0, SVG Export Plug-In . SVG Version: 6.00 Build 0)  -->
<!DOCTYPE svg PUBLIC "-//W3C//DTD SVG 1.1//EN" "http://www.w3.org/Graphics/SVG/1.1/DTD/svg11.dtd">
<svg version="1.1" id="Layer_11" xmlns="http://www.w3.org/2000/svg" xmlns:xlink="http://www.w3.org/1999/xlink" x="0px" y="0px"
	 width="100px" height="100px" viewBox="0 0 100 100" enable-background="new 0 0 100 100" xml:space="preserve">
<path d="M78.566,46.24l-6.922,3.783l0.58-6.131l1.436,0.376l16.424-5.548l-3.037-10.497l-13.73,4.637l-14.852-3.892l-14.514,2.276
	L30.43,28.716l-10.109,8.94l6.299,8.324l-0.264,0.008l-9.982,3.899L8.9,45.442L4.156,55.01l11.6,6.9l12.813-5.004l3.576-0.113
	l-3.738,8.75l11.969,6.233l12.51-5.721l14.635-1.298l13.471-7.365l14.443,1.183l0.41-10.92L78.566,46.24z M31.594,33.501
	l12.301,2.301l14.371-2.255l15.191,3.98l10.857-3.667l0.553,1.908L73.52,39.602l-15.342-4.02l-14.309,2.245l-11.758-2.199
	l-4.762,4.211l-1.172-1.549L31.594,33.501z M33.277,40.413l10.533,1.971l5.236-0.821l-8.355,3.971l-13.697,0.435L33.277,40.413z
	 M27.662,52.439l-11.654,4.552l-6.215-3.695l0.863-1.739l5.463,3.249l11.143-4.351l14.477-0.46l14.324-6.809l11.861,1.652
	l-0.186,1.978l-11.352-1.58l-14.184,6.741L27.662,52.439z M43.252,56.439l13.867-6.592l11.834,1.647l-4.609,2.52l-14.285,1.267
	l-9.746,4.457l-5.801-3.021L43.252,56.439z M91.422,53.766l-11.424-0.935l-13.777,7.532l-14.492,1.285L40.35,66.852l-6.414-3.338
	l0.764-1.786l5.639,2.936l10.877-4.975l14.428-1.278l13.916-7.607l11.938,0.979L91.422,53.766z"/>
</svg>
