<?xml version="1.0" encoding="utf-8"?>
<!-- Generator: Adobe Illustrator 16.0.0, SVG Export Plug-In . SVG Version: 6.00 Build 0)  -->
<!DOCTYPE svg PUBLIC "-//W3C//DTD SVG 1.1//EN" "http://www.w3.org/Graphics/SVG/1.1/DTD/svg11.dtd">
<svg version="1.1" id="Layer_13" xmlns="http://www.w3.org/2000/svg" xmlns:xlink="http://www.w3.org/1999/xlink" x="0px" y="0px"
	 width="100px" height="100px" viewBox="0 0 100 100" enable-background="new 0 0 100 100" xml:space="preserve">
<g>
	<path d="M10.313,51.218c0.104,0.026,0.213-0.037,0.242-0.145l7.504-29.634l9.969,29.648c0.029,0.084,0.105,0.136,0.189,0.136
		c0.02,0,0.041-0.004,0.063-0.011c0.104-0.034,0.16-0.146,0.125-0.251L18.221,20.674c-0.029-0.083-0.109-0.137-0.195-0.135
		c-0.09,0.003-0.164,0.064-0.186,0.149l-7.672,30.288C10.141,51.083,10.207,51.19,10.313,51.218z"/>
	<path d="M79.447,40.45c-0.088,0.002-0.164,0.063-0.184,0.149l-7.672,30.287c-0.027,0.106,0.037,0.215,0.145,0.242
		c0.104,0.026,0.213-0.037,0.24-0.145l7.506-29.635l9.969,29.649c0.027,0.083,0.105,0.136,0.189,0.136
		c0.02,0,0.041-0.004,0.063-0.011c0.104-0.034,0.16-0.146,0.125-0.251L79.643,40.585C79.615,40.502,79.531,40.448,79.447,40.45z"/>
	<path d="M19.287,55.589c5.389,0,9.756-1.747,9.756-3.902H9.533C9.533,53.842,13.9,55.589,19.287,55.589z"/>
	<path d="M70.955,71.598c0,2.154,4.369,3.902,9.758,3.902c5.387,0,9.754-1.748,9.754-3.902H70.955z"/>
	<path d="M52.148,73.958c0.174-1.265,0.322-2.635,0.434-4.083c0.123-1.449,0.193-2.977,0.182-4.558
		c-0.014-1.581-0.133-3.214-0.27-4.873c-0.137-1.66-0.266-3.347-0.354-5.032c-0.088-1.687-0.174-3.372-0.26-5.032
		c-0.076-1.659-0.191-3.293-0.289-4.873c-0.102-1.58-0.199-3.108-0.295-4.557c-0.102-1.45-0.197-2.819-0.285-4.084
		c-0.314-4.288-0.582-7.354-0.656-8.192c17.982,5.793,32.129,11.615,32.625,10.064c0.504-1.563-13.105-9.793-31.279-15.629
		c-18.174-5.835-34.029-7.065-34.531-5.503c-0.5,1.559,14.533,5.085,32.643,10.893c-0.041,0.461-0.328,3.689-0.67,8.367
		c-0.088,1.265-0.186,2.634-0.287,4.084c-0.094,1.448-0.193,2.977-0.295,4.557c-0.098,1.58-0.211,3.214-0.289,4.873
		c-0.086,1.66-0.172,3.346-0.258,5.032c-0.09,1.686-0.217,3.372-0.355,5.032c-0.137,1.659-0.256,3.292-0.27,4.873
		c-0.012,1.581,0.059,3.108,0.182,4.558c0.111,1.448,0.262,2.818,0.434,4.083c0.299,2.238,0.674,4.145,1.014,5.576h-8.246v3.479
		h18.609v-3.479h-8.244C51.475,78.103,51.85,76.196,52.148,73.958z M49.004,25.48c0.322-1.011,1.406-1.568,2.416-1.243
		c1.014,0.325,1.57,1.408,1.244,2.418c-0.324,1.012-1.408,1.567-2.418,1.243S48.678,26.491,49.004,25.48z"/>
</g>
</svg>
