<?xml version="1.0" encoding="utf-8"?>
<!-- Generator: Adobe Illustrator 16.0.0, SVG Export Plug-In . SVG Version: 6.00 Build 0)  -->
<!DOCTYPE svg PUBLIC "-//W3C//DTD SVG 1.1//EN" "http://www.w3.org/Graphics/SVG/1.1/DTD/svg11.dtd">
<svg version="1.1" id="Layer_13" xmlns="http://www.w3.org/2000/svg" xmlns:xlink="http://www.w3.org/1999/xlink" x="0px" y="0px"
	 width="100px" height="100px" viewBox="0 0 100 100" enable-background="new 0 0 100 100" xml:space="preserve">
<g>
	<path d="M68.197,28.318C68.197,16.232,60.26,6.4,50.5,6.4c-9.758,0-17.697,9.832-17.697,21.918c0,11.185,6.801,20.433,15.549,21.75
		l-0.021,0.12c-0.889,0.435-1.686,1.023-2.285,1.866c-0.916,1.285-0.807,2.995-0.434,4.441c0.928,3.591,3.57,6.416,4.869,9.84
		c1.756,4.633-0.326,9.215-1.996,13.524c-1.736,4.489-2.57,8.988-0.115,13.394c0.441,0.792,1.656,0.084,1.215-0.709
		c-2.389-4.283-1.203-8.572,0.471-12.861c1.551-3.975,3.154-7.984,2.199-12.314c-0.729-3.303-3.021-6.078-4.463-9.082
		c-0.65-1.354-1.291-2.983-0.973-4.509c0.158-0.767,0.602-1.342,1.184-1.784l-0.416,2.293c-0.051,0.274,0.023,0.556,0.203,0.769
		c0.178,0.214,0.441,0.337,0.719,0.337h4.688c0.271,0,0.529-0.117,0.707-0.32c0.178-0.205,0.26-0.476,0.223-0.744l-0.604-4.419
		C61.846,48.128,68.197,39.128,68.197,28.318z M49.631,53.518l0.459-2.523c0.406-0.126,0.809-0.229,1.184-0.315
		c0.207-0.046,0.342-0.158,0.42-0.297l0.428,3.136H49.631z M50.5,48.36c-8.725,0-15.822-8.99-15.822-20.042S41.775,8.275,50.5,8.275
		s15.822,8.991,15.822,20.043S59.225,48.36,50.5,48.36z"/>
	<path d="M48.615,12.502c-6.84-0.771-9.352,8.961-9.455,9.377c-0.127,0.502,0.178,1.01,0.68,1.137
		c0.078,0.019,0.154,0.027,0.23,0.027c0.42,0,0.801-0.283,0.908-0.709c0.021-0.086,2.227-8.575,7.422-7.969
		c0.514,0.058,0.979-0.31,1.039-0.824C49.498,13.025,49.129,12.561,48.615,12.502z"/>
</g>
</svg>
