<?xml version="1.0" encoding="utf-8"?>
<!-- Generator: Adobe Illustrator 16.0.0, SVG Export Plug-In . SVG Version: 6.00 Build 0)  -->
<!DOCTYPE svg PUBLIC "-//W3C//DTD SVG 1.1//EN" "http://www.w3.org/Graphics/SVG/1.1/DTD/svg11.dtd">
<svg version="1.1" id="Layer_11" xmlns="http://www.w3.org/2000/svg" xmlns:xlink="http://www.w3.org/1999/xlink" x="0px" y="0px"
	 width="100px" height="100px" viewBox="0 0 100 100" enable-background="new 0 0 100 100" xml:space="preserve">
<path d="M89.978,40.875c-0.388-1.387-0.865-2.742-1.42-4.029c-0.96-2.236-1.854-3.512-2.023-3.746
	c-0.459-0.629-1.075-1.119-1.773-1.443c-0.041-1.43,0.361-2.266,0.811-2.748c0.066,0.178,0.137,0.354,0.191,0.535
	c2.778,9.205,8.881,3.393,3.406-4.939c-5.475-8.33-19.975-13.775-19.975-13.775l-3.406,4.939c0,0,2.729,0.727,6.184,2.18
	c-0.186,1.365-0.855,1.975-1.343,2.24c-0.422-0.439-0.931-0.801-1.503-1.045c-1.508-0.625-3.273-0.371-4.541,0.648l-2.381,1.912
	c-0.469,0.375-0.988,0.795-1.625,1.313c-1.202,0.973-2.615,2.117-4.246,3.383c-0.774,0.623-1.609,1.246-2.492,1.906l-1.027,0.773
	c-0.418,0.289-0.838,0.588-1.318,0.932c-0.848,0.602-1.725,1.225-2.6,1.777l-0.148,0.1c-0.322,0.223-0.658,0.428-1.025,0.652
	c-0.305,0.188-0.611,0.377-0.836,0.525c-0.322,0.182-0.639,0.371-0.955,0.563l-0.098,0.059c-0.292,0.176-0.584,0.352-0.885,0.504
	c-0.082,0.041-0.163,0.084-0.26,0.141c-1.042,0.611-2.18,1.139-3.373,1.691l-0.791,0.361c-1.399,0.568-2.723,1.105-4.125,1.514
	l-1.002,0.326l-1.105,0.279c-0.08,0.021-0.16,0.043-0.239,0.068c-0.359,0.113-0.812,0.209-1.328,0.318l-0.868,0.191
	c-0.319,0.084-0.689,0.143-1.131,0.215c-0.316,0.051-0.635,0.104-1.053,0.184c-0.395,0.086-0.833,0.139-1.389,0.209
	c-0.225,0.029-0.452,0.057-0.697,0.094l-1.018,0.148l-0.275,0.02c-0.293,0.018-0.584,0.039-0.842,0.07
	c-0.271,0.025-0.541,0.055-0.9,0.094c-0.373,0.039-0.74,0.078-1.078,0.098c-0.658,0.027-1.307,0.074-2.004,0.125
	c-0.717,0.053-1.393,0.102-2.082,0.107c-0.578,0.021-1.135,0.053-1.744,0.092c-0.535,0.031-1.033,0.063-1.574,0.066
	c-2.041,0.064-3.381,0.232-3.528,0.252c-1.616,0.211-2.994,1.283-3.597,2.797c-0.604,1.514-0.338,3.24,0.689,4.504
	c0.094,0.115,0.961,1.168,2.562,2.646c0.946,0.924,2.036,1.717,3.231,2.561c1.389,1.037,2.959,1.848,4.643,2.719
	c0.336,0.174,0.684,0.332,1.044,0.484c0.104,0.043,0.217,0.086,0.323,0.129c-0.009,0.002-0.027,0.008-0.033,0.01
	c-1.546,0.518-2.693,1.834-2.994,3.436c-0.303,1.602,0.288,3.244,1.539,4.287c0.113,0.096,1.167,0.963,3.021,2.107
	c1.106,0.727,2.327,1.295,3.661,1.895c1.552,0.746,3.236,1.24,5.041,1.768c-0.047,0.027-0.076,0.045-0.076,0.045
	c-1.408,0.82-2.264,2.344-2.231,3.973c0.031,1.629,0.944,3.117,2.381,3.885c0.131,0.068,1.339,0.703,3.388,1.445
	c1.225,0.484,2.539,0.791,3.97,1.107c0.831,0.207,1.683,0.344,2.556,0.449c-0.461,0.85-0.653,1.836-0.512,2.824
	c0.234,1.643,1.342,3.035,2.887,3.631c0.14,0.053,1.423,0.541,3.637,1.049c1.314,0.34,2.689,0.488,4.184,0.631
	c0.768,0.092,1.607,0.137,2.568,0.137c0.945,0,1.926-0.043,2.954-0.088c0.389-0.016,0.778-0.051,1.177-0.1
	c0.369-0.047,0.744-0.104,1.123-0.164c0.273-0.043,0.551-0.086,0.881-0.129c0.57-0.078,1.141-0.188,1.711-0.305
	c0.08-0.016,0.158-0.031,0.253-0.057l1.485-0.387c1.158-0.303,2.396-0.654,3.564-1.154l0.169-0.066
	c1.038-0.408,2.216-0.873,3.386-1.527c1.135-0.588,2.346-1.246,3.486-2.053l1.502-1.027c0.11-0.076,0.217-0.156,0.313-0.236
	l1.426-1.17c1.968-1.619,3.878-3.637,5.821-6.15c0.043-0.055,0.084-0.109,0.127-0.17c1.834-2.582,3.195-4.93,4.137-7.123
	c0.486-1.014,0.836-1.994,1.144-2.855l0.293-0.807c0.041-0.111,0.079-0.225,0.108-0.328l0.223-0.762
	c0.271-0.92,0.553-1.869,0.746-2.865c0.498-2.174,0.787-4.465,0.911-7.244c0.05-2.41-0.05-4.484-0.306-6.332
	C90.817,44.33,90.454,42.545,89.978,40.875z M79.345,21.783c0.769,0.529,1.508,1.092,2.197,1.691
	c-1.533,0.441-3.393,1.545-5.41,3.922c-0.113-0.326-0.26-0.639-0.446-0.928C76.665,24.273,78.077,22.771,79.345,21.783z
	 M84.013,26.285c-1.164,0.91-2.197,2.52-2.236,5.059c-0.635,0.15-1.223,0.426-1.729,0.813c-0.369-0.928-0.666-1.496-0.75-1.646
	c-0.238-0.43-0.566-0.797-0.932-1.121C81.37,25.811,83.446,26.107,84.013,26.285z M76.669,20.123
	c-1.215,1.09-2.445,2.553-3.411,4.475c-0.155-0.053-0.312-0.102-0.474-0.137c-0.281-0.057-0.566-0.076-0.85-0.078
	c0.01-0.799-0.026-1.328-0.049-1.564c1.133-0.566,2.361-1.725,2.879-3.699C75.397,19.432,76.034,19.768,76.669,20.123z
	 M21.425,53.303c-1.617-0.836-3.013-1.557-4.236-2.469c-1.117-0.791-2.107-1.508-2.927-2.309c-1.503-1.389-2.269-2.324-2.301-2.363
	c-0.343-0.422-0.431-0.996-0.229-1.502c0.201-0.504,0.66-0.861,1.197-0.932c0.053-0.006,1.303-0.166,3.201-0.227
	c0.558-0.006,1.105-0.037,1.781-0.076c0.503-0.031,1.033-0.064,1.543-0.082c0.746-0.008,1.469-0.061,2.303-0.121
	c0.6-0.045,1.215-0.09,1.855-0.115c0.405-0.021,0.828-0.064,1.355-0.121c0.254-0.027,0.51-0.055,0.801-0.084
	c0.236-0.027,0.471-0.043,0.717-0.059c0.123-0.006,0.246-0.014,0.443-0.035l1.089-0.16c0.225-0.031,0.435-0.059,0.733-0.096
	c0.514-0.064,1.044-0.131,1.52-0.234c0.351-0.066,0.64-0.115,0.994-0.172c0.479-0.078,0.932-0.152,1.403-0.279l0.715-0.15
	c0.552-0.117,1.072-0.229,1.652-0.408l1.188-0.305l1.053-0.338c1.512-0.439,2.904-1.004,4.436-1.629l0.855-0.389
	c1.271-0.59,2.472-1.146,3.623-1.822l0.102-0.055c0.372-0.186,0.73-0.4,1.089-0.617l0.097-0.057
	c0.292-0.176,0.584-0.352,0.959-0.566c0.283-0.182,0.57-0.359,0.883-0.551c0.385-0.236,0.77-0.473,1.195-0.768
	c0.928-0.586,1.838-1.232,2.781-1.902c0.41-0.293,0.818-0.584,1.273-0.9l1.093-0.82c0.888-0.662,1.751-1.309,2.532-1.938
	c1.627-1.264,3.057-2.422,4.346-3.465c0.559-0.453,1.073-0.869,1.539-1.242l2.385-1.914c0.345-0.277,0.791-0.387,1.227-0.303
	c0.097,0.02,0.193,0.047,0.273,0.08c0.5,0.213,0.873,0.707,0.93,1.23c0.006,0.045,0.096,0.965-0.013,2.486
	c-0.152,0.137-0.296,0.283-0.429,0.441l-1.971,2.334c-0.389,0.455-0.818,0.969-1.344,1.598c-0.994,1.186-2.162,2.578-3.52,4.133
	c-0.641,0.762-1.342,1.533-2.082,2.348l-0.859,0.957c-0.355,0.365-0.711,0.738-1.116,1.166c-0.716,0.754-1.458,1.533-2.212,2.242
	l-0.125,0.127c-0.273,0.281-0.565,0.547-0.882,0.838c-0.265,0.242-0.528,0.486-0.72,0.674c-0.281,0.24-0.557,0.486-0.83,0.734
	l-0.085,0.076c-0.253,0.229-0.505,0.459-0.772,0.666c-0.072,0.055-0.143,0.113-0.227,0.186c-0.906,0.801-1.922,1.535-2.988,2.307
	l-0.706,0.506c-1.265,0.826-2.46,1.607-3.759,2.277l-0.922,0.51l-1.031,0.486c-0.075,0.037-0.148,0.074-0.222,0.113
	c-0.331,0.18-0.757,0.361-1.243,0.566l-0.815,0.354c-0.297,0.145-0.648,0.273-1.067,0.43c-0.303,0.109-0.604,0.223-0.999,0.381
	c-0.372,0.16-0.791,0.297-1.323,0.471c-0.215,0.072-0.433,0.143-0.666,0.225l-0.971,0.342l-0.267,0.072
	c-0.284,0.074-0.565,0.15-0.812,0.23c-0.262,0.076-0.521,0.156-0.866,0.264c-0.358,0.109-0.712,0.219-1.04,0.301
	c-0.642,0.154-1.269,0.324-1.943,0.508c-0.692,0.188-1.347,0.365-2.021,0.504c-0.463,0.107-0.914,0.223-1.387,0.346l-1.166-0.32
	c-0.49-0.162-0.967-0.326-1.414-0.506c-0.315-0.129-0.595-0.236-0.867-0.34c-0.32-0.123-0.635-0.244-0.936-0.371
	C21.993,53.58,21.716,53.455,21.425,53.303z M27.896,65.607c-1.248-0.561-2.357-1.076-3.314-1.705
	c-1.742-1.074-2.672-1.846-2.711-1.879c-0.418-0.348-0.613-0.896-0.514-1.43c0.102-0.533,0.483-0.973,0.996-1.145
	c0.051-0.016,1.248-0.412,3.1-0.834c0.547-0.113,1.078-0.248,1.733-0.418c0.487-0.127,1.003-0.26,1.499-0.375
	c0.73-0.15,1.43-0.34,2.236-0.559c0.58-0.158,1.176-0.32,1.801-0.469c0.393-0.1,0.799-0.223,1.306-0.379
	c0.245-0.076,0.489-0.152,0.771-0.234c0.227-0.072,0.453-0.133,0.692-0.195c0.119-0.031,0.238-0.063,0.428-0.121l1.038-0.363
	c0.215-0.076,0.416-0.141,0.701-0.236c0.492-0.16,1-0.328,1.447-0.52c0.332-0.133,0.605-0.236,0.943-0.359
	c0.455-0.17,0.885-0.33,1.324-0.543l0.672-0.285c0.519-0.221,1.009-0.43,1.544-0.717l1.108-0.525l0.968-0.533
	c1.4-0.723,2.659-1.543,4.042-2.449l0.765-0.545c1.135-0.822,2.207-1.598,3.208-2.482l0.088-0.072
	c0.33-0.256,0.642-0.535,0.951-0.814l0.084-0.076c0.253-0.229,0.506-0.457,0.834-0.738c0.242-0.232,0.49-0.461,0.76-0.711
	c0.332-0.305,0.664-0.609,1.026-0.98c0.798-0.752,1.568-1.563,2.366-2.4c0.346-0.365,0.691-0.729,1.077-1.127l0.915-1.016
	c0.744-0.82,1.469-1.619,2.114-2.387c1.355-1.551,2.537-2.961,3.603-4.23c0.462-0.553,0.887-1.061,1.273-1.516l1.974-2.336
	c0.284-0.338,0.702-0.531,1.146-0.531c0.099,0,0.199,0.01,0.283,0.027c0.002,0,0.002,0,0.004,0
	c-0.088,0.309-0.182,0.607-0.254,0.934l1.463,0.328c-0.826,0.404-1.527,1.053-1.98,1.891l-1.455,2.688
	c-0.286,0.525-0.602,1.115-0.945,1.756c-0.74,1.383-1.613,3.012-2.646,4.846c-0.469,0.869-0.991,1.76-1.558,2.723l-0.648,1.113
	c-0.273,0.43-0.544,0.867-0.826,1.322c-0.557,0.898-1.133,1.83-1.721,2.672c-0.04,0.057-0.079,0.115-0.113,0.172
	c-0.205,0.322-0.43,0.633-0.689,0.996c-0.211,0.293-0.421,0.588-0.566,0.807c-0.229,0.293-0.447,0.592-0.666,0.891l-0.061,0.084
	c-0.203,0.279-0.405,0.557-0.625,0.814c-0.063,0.074-0.124,0.15-0.186,0.232c-0.721,0.961-1.566,1.891-2.454,2.867l-0.589,0.637
	c-1.068,1.066-2.078,2.074-3.216,2.998l-0.798,0.688l-0.904,0.682c-0.07,0.053-0.139,0.107-0.199,0.16
	c-0.291,0.246-0.676,0.512-1.104,0.809l-0.723,0.512c-0.27,0.207-0.598,0.408-0.965,0.641c-0.271,0.17-0.543,0.34-0.895,0.574
	c-0.331,0.23-0.714,0.451-1.121,0.686l-0.092,0.053c-0.192,0.111-0.387,0.223-0.596,0.348l-0.873,0.531l-0.252,0.127
	c-0.262,0.131-0.523,0.262-0.746,0.389c-0.241,0.129-0.48,0.262-0.773,0.424c-0.336,0.186-0.666,0.369-0.98,0.521
	c-0.596,0.281-1.176,0.574-1.768,0.877c-0.65,0.33-1.264,0.643-1.908,0.922c-0.523,0.242-1.023,0.488-1.494,0.721l-0.113,0.057
	c-0.018,0.008-0.035,0.016-0.053,0.025c-0.248-0.037-0.506-0.068-0.742-0.113c-0.334-0.066-0.629-0.119-0.917-0.168
	c-0.337-0.059-0.669-0.117-0.989-0.184c-0.3-0.064-0.596-0.135-0.911-0.227C30.778,66.709,29.271,66.27,27.896,65.607z
	 M39.786,77.631c-1.34-0.297-2.532-0.574-3.593-0.992c-1.925-0.699-2.991-1.264-3.036-1.287c-0.48-0.256-0.784-0.752-0.795-1.297
	c-0.01-0.543,0.274-1.049,0.75-1.326c0.01-0.006,1.092-0.639,2.854-1.445c0.502-0.215,0.983-0.451,1.498-0.705l0.115-0.057
	c0.451-0.225,0.93-0.459,1.393-0.674c0.693-0.299,1.348-0.633,2.076-1.004c0.535-0.273,1.086-0.553,1.662-0.824
	c0.374-0.18,0.756-0.391,1.205-0.639c0.223-0.125,0.447-0.248,0.706-0.387c0.206-0.117,0.417-0.223,0.696-0.361l1.277-0.744
	c0.19-0.113,0.371-0.219,0.549-0.322l0.09-0.051c0.426-0.246,0.91-0.523,1.312-0.805c0.299-0.199,0.548-0.355,0.819-0.525
	c0.422-0.266,0.82-0.516,1.217-0.82l0.584-0.408c0.469-0.324,0.91-0.631,1.381-1.023l0.977-0.742l0.839-0.719
	c1.228-0.994,2.29-2.057,3.457-3.223l0.638-0.689c0.946-1.039,1.84-2.02,2.707-3.174c0.273-0.318,0.522-0.658,0.771-1l0.061-0.082
	c0.199-0.275,0.4-0.549,0.666-0.895c0.188-0.277,0.384-0.551,0.617-0.875c0.257-0.357,0.514-0.717,0.785-1.145
	c0.639-0.914,1.236-1.879,1.826-2.832c0.265-0.428,0.528-0.854,0.824-1.322l0.704-1.205c0.556-0.945,1.097-1.869,1.569-2.744
	c1.03-1.83,1.914-3.479,2.662-4.877c0.34-0.635,0.653-1.219,0.938-1.742l1.457-2.689c0.242-0.449,0.699-0.73,1.191-0.771
	c0.184,0.012,0.365,0.035,0.547,0.061c0.375,0.115,0.707,0.365,0.892,0.697c0.026,0.049,0.661,1.205,1.256,3.25
	c0.03,0.102,0.054,0.209,0.08,0.314l-0.596,1.518c-0.226,0.572-0.475,1.215-0.762,1.959c-0.577,1.492-1.258,3.248-2.073,5.229
	c-0.373,0.959-0.803,1.947-1.247,2.975l-0.522,1.219c-0.209,0.438-0.413,0.883-0.619,1.328l-0.06,0.129
	c-0.454,0.986-0.925,2.006-1.417,2.938c-0.035,0.066-0.068,0.131-0.094,0.188c-0.168,0.352-0.355,0.693-0.579,1.105
	c-0.179,0.324-0.356,0.652-0.479,0.898c-0.194,0.326-0.38,0.656-0.603,1.057c-0.177,0.318-0.353,0.639-0.563,0.955
	c-0.053,0.082-0.102,0.162-0.146,0.24c-0.609,1.066-1.352,2.113-2.146,3.236l-0.521,0.727c-0.957,1.223-1.861,2.379-2.908,3.463
	l-0.73,0.805l-0.842,0.816c-0.059,0.057-0.115,0.115-0.176,0.18c-0.274,0.297-0.654,0.635-1.027,0.967l-0.523,0.473
	c-0.05,0.043-0.098,0.088-0.148,0.139c-0.244,0.242-0.548,0.486-0.902,0.775c-0.257,0.207-0.513,0.414-0.842,0.699
	c-0.309,0.277-0.674,0.551-1.131,0.895c-0.188,0.141-0.377,0.283-0.579,0.441l-0.832,0.656l-0.235,0.158
	c-0.252,0.166-0.499,0.332-0.715,0.492l-0.723,0.52c-0.323,0.236-0.641,0.467-0.945,0.662c-0.574,0.361-1.127,0.734-1.684,1.111
	c-0.627,0.422-1.217,0.82-1.841,1.188c-0.505,0.313-0.984,0.627-1.432,0.922l-0.168,0.109c-0.427,0.279-0.829,0.543-1.278,0.807
	c-0.445,0.275-0.844,0.529-1.199,0.762c-0.019,0-0.037,0-0.056-0.002C42.845,78.123,41.272,77.998,39.786,77.631z M88.363,52.406
	c-0.114,2.557-0.38,4.678-0.848,6.721c-0.177,0.902-0.437,1.783-0.692,2.646l-0.225,0.77l-0.343,0.953
	c-0.298,0.836-0.605,1.699-1.05,2.627c-0.882,2.053-2.142,4.221-3.891,6.678c-1.82,2.355-3.576,4.217-5.368,5.689l-1.431,1.174
	c-0.033,0.027-0.069,0.055-0.102,0.076l-1.518,1.039c-1.013,0.715-2.115,1.314-3.195,1.875c-1.035,0.578-2.113,1.002-3.066,1.379
	l-0.207,0.082c-1.077,0.459-2.209,0.77-3.183,1.025l-1.568,0.404c-0.519,0.105-1.027,0.205-1.521,0.273
	c-0.347,0.045-0.649,0.092-0.949,0.139c-0.347,0.055-0.688,0.107-1.022,0.148c-0.313,0.039-0.625,0.068-0.939,0.082
	c-1.898,0.084-3.65,0.135-5.07-0.035c-1.402-0.135-2.653-0.268-3.795-0.563c-2.083-0.479-3.25-0.928-3.265-0.934
	c-0.536-0.207-0.919-0.688-1-1.256c-0.081-0.566,0.151-1.135,0.614-1.488c0.006-0.004,0.318-0.238,0.858-0.611
	c0.197,0,0.401-0.008,0.603-0.014c0.004-0.139,0.023-0.277,0.035-0.418c0.36-0.238,0.771-0.504,1.238-0.791
	c0.465-0.271,0.907-0.561,1.377-0.867l0.172-0.113c0.433-0.285,0.891-0.584,1.338-0.863c0.671-0.395,1.3-0.818,1.986-1.281
	c0.513-0.346,1.039-0.701,1.596-1.051c0.362-0.232,0.729-0.498,1.141-0.797l0.676-0.486c0.196-0.146,0.398-0.281,0.682-0.467
	l1.194-0.91c0.185-0.145,0.359-0.275,0.604-0.461c0.402-0.303,0.859-0.646,1.235-0.984c0.279-0.24,0.513-0.43,0.79-0.654
	c0.389-0.318,0.756-0.617,1.119-0.975l0.525-0.473c0.421-0.375,0.856-0.762,1.227-1.162l0.971-0.947l0.766-0.842
	c1.127-1.166,2.076-2.381,3.119-3.715l0.582-0.809c0.826-1.17,1.607-2.275,2.293-3.471l0.049-0.08
	c0.244-0.369,0.461-0.756,0.711-1.205c0.171-0.307,0.342-0.613,0.567-0.996c0.157-0.307,0.323-0.609,0.528-0.986
	c0.215-0.393,0.428-0.785,0.65-1.252c0.534-1.01,1.021-2.066,1.504-3.113l0.049-0.105c0.201-0.436,0.4-0.869,0.627-1.348
	l0.549-1.275c0.455-1.049,0.896-2.072,1.273-3.039c0.813-1.975,1.502-3.752,2.104-5.309c0.267-0.691,0.513-1.326,0.737-1.895
	l1.146-2.928c0.212-0.539,0.699-0.918,1.26-0.99c0.061-0.008,0.121-0.012,0.182-0.012c0.52,0,1.023,0.25,1.314,0.648
	c0.033,0.045,0.826,1.146,1.693,3.166c0.502,1.166,0.936,2.395,1.289,3.658c0.438,1.535,0.77,3.174,0.991,4.879
	C88.317,48.271,88.409,50.191,88.363,52.406z"/>
</svg>
