<?xml version="1.0" encoding="utf-8"?>
<!-- Generator: Adobe Illustrator 16.0.0, SVG Export Plug-In . SVG Version: 6.00 Build 0)  -->
<!DOCTYPE svg PUBLIC "-//W3C//DTD SVG 1.1//EN" "http://www.w3.org/Graphics/SVG/1.1/DTD/svg11.dtd">
<svg version="1.1" id="Layer_13" xmlns="http://www.w3.org/2000/svg" xmlns:xlink="http://www.w3.org/1999/xlink" x="0px" y="0px"
	 width="100px" height="100px" viewBox="0 0 100 100" enable-background="new 0 0 100 100" xml:space="preserve">
<g>
	<path d="M53.311,34.956c-0.665-0.665-1.742-0.665-2.408,0L34.955,50.903c-0.664,0.665-0.664,1.742,0,2.407l11.734,11.734
		c0.665,0.665,1.742,0.665,2.408,0l15.947-15.947c0.664-0.665,0.664-1.742,0-2.407L53.311,34.956z M49.94,38.763
		c0.608-0.608,1.595-0.608,2.203,0s0.607,1.595,0,2.203c-0.608,0.608-1.595,0.609-2.203,0C49.331,40.358,49.332,39.372,49.94,38.763
		z M47.519,43.227c0.608-0.608,1.595-0.608,2.203,0c0.608,0.609,0.608,1.594,0,2.203c-0.608,0.608-1.595,0.608-2.203,0
		C46.91,44.821,46.91,43.836,47.519,43.227z M42.926,45.778c0.607-0.608,1.594-0.608,2.203,0c0.607,0.608,0.607,1.594,0,2.202
		c-0.609,0.609-1.596,0.609-2.203,0.001C42.316,47.373,42.316,46.386,42.926,45.778z M42.788,52.802
		c-0.608,0.608-1.595,0.608-2.204,0c-0.608-0.608-0.608-1.595,0-2.204c0.609-0.608,1.596-0.608,2.204,0S43.396,52.193,42.788,52.802
		z M46.633,56.647c-0.607,0.608-1.595,0.608-2.203,0c-0.608-0.608-0.608-1.595,0-2.203c0.608-0.609,1.596-0.609,2.203,0
		C47.241,55.052,47.241,56.039,46.633,56.647z M46.771,51.827c-0.609-0.608-0.609-1.595,0-2.204c0.607-0.608,1.594-0.607,2.203,0
		c0.607,0.608,0.608,1.595,0,2.203S47.379,52.436,46.771,51.827z M50.641,60.655c-0.608,0.608-1.595,0.608-2.203,0
		c-0.608-0.609-0.608-1.595,0-2.204c0.608-0.608,1.595-0.608,2.203,0C51.25,59.06,51.25,60.046,50.641,60.655z M52.982,55.834
		c-0.609,0.609-1.596,0.608-2.204,0c-0.608-0.608-0.608-1.595,0-2.204c0.608-0.608,1.595-0.607,2.203,0.001
		C53.59,54.24,53.59,55.227,52.982,55.834z M53.567,49.276c-0.608,0.608-1.595,0.608-2.203-0.001
		c-0.608-0.608-0.608-1.594-0.001-2.203c0.609-0.609,1.596-0.608,2.204,0S54.176,48.667,53.567,49.276z M53.786,44.812
		c-0.608-0.608-0.608-1.595,0-2.203c0.607-0.609,1.595-0.608,2.203,0c0.608,0.608,0.608,1.595,0,2.203
		C55.381,45.42,54.394,45.42,53.786,44.812z M57.575,53.284c-0.608,0.608-1.595,0.608-2.203,0s-0.609-1.595-0.001-2.203
		c0.609-0.609,1.596-0.608,2.204,0S58.184,52.675,57.575,53.284z M59.997,48.82c-0.608,0.608-1.595,0.608-2.204,0
		c-0.608-0.608-0.608-1.595,0-2.204c0.609-0.608,1.596-0.608,2.204,0C60.604,47.225,60.604,48.211,59.997,48.82z"/>
	<path d="M91.479,27.681c-1.749-4.602-4.308-8.605-7.606-11.903c-4.918-4.918-9.977-6.766-11.356-7.203
		c-1.104-0.77-2.637-0.664-3.621,0.32L8.895,68.896c-1.129,1.129-0.571,2.908-0.374,3.423c1.749,4.601,4.309,8.605,7.605,11.903
		c0.001,0,0.001,0,0.001,0c4.918,4.918,9.977,6.766,11.356,7.203c1.104,0.77,2.638,0.664,3.621-0.32l60.001-60.001
		C92.234,29.975,91.677,28.196,91.479,27.681z M29.093,88.459l-0.398-0.109c-0.053-0.015-5.255-1.474-10.239-6.457
		c-2.967-2.968-5.273-6.582-6.857-10.747c-0.018-0.047-0.044-0.139-0.065-0.232l59.372-59.372l0.406,0.107
		c0.052,0.014,5.21,1.433,10.233,6.456c2.968,2.967,5.274,6.582,6.858,10.747c0.018,0.047,0.044,0.139,0.065,0.232L29.093,88.459z"
		/>
</g>
</svg>
