<?xml version="1.0" encoding="utf-8"?>
<!-- Generator: Adobe Illustrator 16.0.0, SVG Export Plug-In . SVG Version: 6.00 Build 0)  -->
<!DOCTYPE svg PUBLIC "-//W3C//DTD SVG 1.1//EN" "http://www.w3.org/Graphics/SVG/1.1/DTD/svg11.dtd">
<svg version="1.1" id="Layer_13" xmlns="http://www.w3.org/2000/svg" xmlns:xlink="http://www.w3.org/1999/xlink" x="0px" y="0px"
	 width="100px" height="100px" viewBox="0 0 100 100" enable-background="new 0 0 100 100" xml:space="preserve">
<path d="M9.834,45.083h3.332v29.833H9.834V45.083z M86.834,25.083v49.833h3.332V25.083H86.834z M72.168,51.417
	c2.945,0,5.334-2.388,5.334-5.333s-2.389-5.333-5.334-5.333s-5.334,2.388-5.334,5.333S69.223,51.417,72.168,51.417z M23.072,52.942
	H38.17c0.197,0,0.385-0.039,0.563-0.094c0.855,0.979,2.1,1.61,3.502,1.61h19.332c2.578,0,4.668-2.089,4.668-4.667
	c0-2.577-2.09-4.667-4.668-4.667H42.234c-2.352,0-4.277,1.745-4.602,4.006H23.072c-1.053,0-1.906,0.853-1.906,1.905
	C21.166,52.089,22.02,52.942,23.072,52.942z M77.127,52.875h-5.75c-1.588,0-2.875,1.287-2.875,2.875H15.166v8h68.668v-8h-3.832
	C80.002,54.162,78.715,52.875,77.127,52.875z"/>
</svg>
