<?xml version="1.0" encoding="utf-8"?>
<!-- Generator: Adobe Illustrator 16.0.0, SVG Export Plug-In . SVG Version: 6.00 Build 0)  -->
<!DOCTYPE svg PUBLIC "-//W3C//DTD SVG 1.1//EN" "http://www.w3.org/Graphics/SVG/1.1/DTD/svg11.dtd">
<svg version="1.1" id="Layer_12" xmlns="http://www.w3.org/2000/svg" xmlns:xlink="http://www.w3.org/1999/xlink" x="0px" y="0px"
	 width="100px" height="100px" viewBox="0 0 100 100" enable-background="new 0 0 100 100" xml:space="preserve">
<g>
	<path d="M81.415,82.713V11.396c0-0.276-0.224-0.5-0.5-0.5H79.55H24.61c-3.325,0-6.03,2.728-6.03,6.082v69.437
		c0,0.869,0.185,1.695,0.513,2.444c0.596,2.094,2.502,3.638,4.788,3.638h0.729h44.94h2.831c0.245,0,0.48-0.038,0.716-0.072
		c0.036,0.009,0.069,0.022,0.107,0.022c0.023,0,0.045,0,0.068,0c2.33,0,4.215-0.733,5.605-2.181
		C81.604,87.425,81.423,82.882,81.415,82.713z M63,52.696h-8.25v20.5h-9.5v-20.5H37v-9.5h8.25v-7h9.5v7H63V52.696z M72.381,15.829
		h-52.66c0.519-2.248,2.508-3.933,4.889-3.933h54.94c0.115,0,0.208,0.004,0.281,0.01c-0.179,0.22-0.484,0.529-0.727,0.774
		c-1.065,1.077-2.524,2.551-2.524,4.297v1.153C75.69,16.749,74.146,15.829,72.381,15.829z M78.155,89.573
		c-0.62,0.646-1.363,1.122-2.22,1.435c0.852-0.862,1.38-2.035,1.427-3.331c0.14-0.405,0.217-0.827,0.217-1.263V16.978
		c0-1.335,1.292-2.641,2.235-3.594c0.227-0.229,0.428-0.435,0.6-0.627l0,69.98C80.417,82.779,80.588,87.039,78.155,89.573z"/>
	<path d="M53.25,37.696h-6.5v7H38.5v6.5h8.25v20.5h6.5v-20.5h8.25v-6.5h-8.25V37.696z M51.75,70.196h-3.5v-20.5H40v-3.5h8.25v-7h3.5
		v7H60v3.5h-8.25"/>
</g>
</svg>
