<?xml version="1.0" encoding="utf-8"?>
<!-- Generator: Adobe Illustrator 16.0.0, SVG Export Plug-In . SVG Version: 6.00 Build 0)  -->
<!DOCTYPE svg PUBLIC "-//W3C//DTD SVG 1.1//EN" "http://www.w3.org/Graphics/SVG/1.1/DTD/svg11.dtd">
<svg version="1.1" id="Layer_12" xmlns="http://www.w3.org/2000/svg" xmlns:xlink="http://www.w3.org/1999/xlink" x="0px" y="0px"
	 width="100px" height="100px" viewBox="0 0 100 100" enable-background="new 0 0 100 100" xml:space="preserve">
<path d="M93.229,19.446H6.771c-1,0-1.811,0.811-1.811,1.811v57.486c0,1,0.811,1.811,1.811,1.811h86.457
	c0.998,0,1.811-0.811,1.811-1.811V21.257C95.039,20.257,94.227,19.446,93.229,19.446z M91.418,76.933H8.582V23.067h82.836V76.933z
	 M29.893,28.398c0.025,1.675,0.074,3.313,0.121,4.74c-0.18,0.379-0.164,0.839,0.039,1.218c0.07,2.127,0.127,4.049,0.133,5.965
	c0,0.447,0.213,0.836,0.572,1.065c0.158,0.232,0.385,0.399,0.662,0.488c1.223,0.403,2.619,0.634,3.828,0.634
	c1.682,0,3.006-0.442,3.83-1.28c0.691-0.699,1.033-1.646,1.016-2.814c-0.031-2.11-1.311-3.862-3.553-4.93
	c0.328-0.134,0.65-0.273,0.967-0.417c3.398-1.544,3.898-3.201,3.717-4.32c-0.355-2.188-2.24-3.251-5.764-3.251
	c-1.197,0-2.381,0.112-3.426,0.211l-0.209,0.02c-0.447-0.245-1.084-0.195-1.479,0.111c-0.043,0.001-0.086,0.002-0.127,0.002
	c-0.83,0.009-1.273,0.685-1.271,1.315C28.953,27.687,29.283,28.246,29.893,28.398z M37.461,38.194
	c0.129,0.509,0.096,0.893-0.096,1.139c-0.287,0.368-0.994,0.57-1.988,0.57c-0.896,0-1.877-0.165-2.602-0.344
	c-0.014-1.54-0.055-3.058-0.102-4.494C34.205,35.212,36.863,35.816,37.461,38.194z M32.686,28.31
	c0.672-0.047,1.365-0.096,2.051-0.115l0.195-0.005c0.246-0.008,0.529-0.016,0.832-0.016c1.736,0,2.715,0.324,2.904,0.961
	c0.002,0.007,0.107,0.716-3.316,2.038l-0.154,0.06c-0.857,0.334-1.736,0.62-2.617,0.851c-0.035-1.115-0.07-2.418-0.088-3.76
	L32.686,28.31z M42.355,33.955c0.57-5.655,5.379-8.186,9.889-8.186c1.154,0,2.311,0.157,3.434,0.468
	c0.738,0.204,0.998,0.875,0.924,1.411c-0.074,0.553-0.545,1.142-1.268,1.142c-0.115,0-0.232-0.016-0.348-0.048
	c-2.891-0.801-5.508-0.526-7.363,0.812c-1.578,1.135-2.607,2.932-2.688,4.69c-0.086,1.886,0.73,3.507,2.18,4.339
	c1.092,0.626,2.361,0.93,3.881,0.93c1.334,0,2.803-0.23,4.621-0.724c0.119-0.032,0.238-0.049,0.355-0.049
	c0.727,0,1.184,0.579,1.258,1.151c0.072,0.535-0.188,1.203-0.928,1.404c-2.047,0.557-3.82,0.827-5.428,0.827
	c-2.188,0-4.029-0.522-5.471-1.553C43.234,39.016,42.094,36.543,42.355,33.955z M12.578,42.282c0.207,0,0.412-0.048,0.611-0.143
	c1.742-0.837,3.201-2.39,4.336-4.616c0.049-0.028,0.1-0.062,0.152-0.103c1.662-1.29,3.32-2.144,4.938-2.542
	c0.404,1.625,0.719,3.329,0.938,5.071c0.105,0.826,0.818,1.258,1.469,1.258c0.387,0,0.742-0.149,0.971-0.41
	c0.156-0.177,0.33-0.487,0.27-0.961c-0.229-1.829-0.547-3.601-0.943-5.275c0.598-0.169,0.912-0.725,0.918-1.275
	c0.006-0.661-0.455-1.373-1.391-1.39c-0.086,0-0.17,0.002-0.254,0.007c-0.705-2.249-1.572-4.257-2.586-5.975
	c-0.311-0.527-1.002-0.805-1.559-0.614c-2.51,0.856-3.23,3.684-3.758,5.747l-0.199,0.801c-0.789,3.173-1.604,6.455-4.607,7.897
	c-0.559,0.268-0.822,0.799-0.689,1.385C11.342,41.793,11.936,42.282,12.578,42.282z M18.963,33.044
	c0.273-1.549,0.602-3.426,1.387-4.448c0.568,1.128,1.076,2.359,1.512,3.673c-0.984,0.256-1.965,0.642-2.969,1.169
	C18.916,33.309,18.939,33.177,18.963,33.044z M74.67,74.314v-2.112c0-0.25,0.203-0.453,0.453-0.453h12.371
	c0.25,0,0.453,0.203,0.453,0.453v2.112c0,0.25-0.203,0.453-0.453,0.453H75.123C74.873,74.767,74.67,74.564,74.67,74.314z
	 M74.67,70.567v-0.623c0-0.25,0.203-0.453,0.453-0.453h12.371c0.25,0,0.453,0.202,0.453,0.453v0.623c0,0.25-0.203,0.453-0.453,0.453
	H75.123C74.873,71.02,74.67,70.817,74.67,70.567z"/>
</svg>
