<?xml version="1.0" encoding="utf-8"?>
<!-- Generator: Adobe Illustrator 16.0.0, SVG Export Plug-In . SVG Version: 6.00 Build 0)  -->
<!DOCTYPE svg PUBLIC "-//W3C//DTD SVG 1.1//EN" "http://www.w3.org/Graphics/SVG/1.1/DTD/svg11.dtd">
<svg version="1.1" id="Layer_13" xmlns="http://www.w3.org/2000/svg" xmlns:xlink="http://www.w3.org/1999/xlink" x="0px" y="0px"
	 width="100px" height="100px" viewBox="0 0 100 100" enable-background="new 0 0 100 100" xml:space="preserve">
<path d="M90.602,48.077C82.233,33.616,66.675,24.633,50,24.633c-16.676,0-32.232,8.982-40.602,23.444L8.285,50l1.113,1.924
	C17.767,66.384,33.324,75.367,50,75.367c16.675,0,32.233-8.982,40.602-23.443L91.715,50L90.602,48.077z M17.235,50
	c3.54-5.372,8.314-9.717,13.812-12.76c-2.016,3.377-3.196,7.307-3.196,11.516c0,6.009,2.375,11.458,6.216,15.507
	C27.299,61.237,21.408,56.333,17.235,50z M50.417,33.873c3.126,0,6.026,0.974,8.425,2.627L38.16,57.181
	c-1.653-2.397-2.627-5.298-2.627-8.425C35.533,40.55,42.21,33.873,50.417,33.873z M50.417,63.639c-2.289,0-4.451-0.534-6.391-1.462
	l19.811-19.811c0.928,1.939,1.463,4.101,1.463,6.39C65.3,56.963,58.622,63.639,50.417,63.639z M67.398,63.567
	c3.466-3.968,5.583-9.141,5.583-14.811c0-3.898-0.992-7.566-2.74-10.768C75.197,40.98,79.506,45.053,82.764,50
	C78.896,55.87,73.55,60.51,67.398,63.567z"/>
</svg>
