<?xml version="1.0" encoding="utf-8"?>
<!-- Generator: Adobe Illustrator 16.0.0, SVG Export Plug-In . SVG Version: 6.00 Build 0)  -->
<!DOCTYPE svg PUBLIC "-//W3C//DTD SVG 1.1//EN" "http://www.w3.org/Graphics/SVG/1.1/DTD/svg11.dtd">
<svg version="1.1" id="Layer_13" xmlns="http://www.w3.org/2000/svg" xmlns:xlink="http://www.w3.org/1999/xlink" x="0px" y="0px"
	 width="100px" height="100px" viewBox="0 0 100 100" enable-background="new 0 0 100 100" xml:space="preserve">
<path d="M79.493,12.39H20.507c-4.482,0-8.117,3.634-8.117,8.117v58.986c0,4.482,3.635,8.117,8.117,8.117h58.986
	c4.483,0,8.117-3.635,8.117-8.117V20.507C87.61,16.023,83.977,12.39,79.493,12.39z M66.312,20.844l-6.035,8.955
	c-3.585-2.416-7.059-3.207-10.085-3.199l-4.335-7.348l-1.068,0.579l3.419,6.89c-4.787,0.561-8.05,2.904-8.105,2.945l-6.412-8.688
	C34.329,20.505,49.546,9.545,66.312,20.844z M78.479,70.886c0,4.483-3.634,8.117-8.117,8.117H29.504
	c-4.483,0-8.117-3.634-8.117-8.117V42.221c0-4.483,3.634-8.117,8.117-8.117h40.857c4.483,0,8.117,3.634,8.117,8.117V70.886z"/>
</svg>
