<?xml version="1.0" encoding="utf-8"?>
<!-- Generator: Adobe Illustrator 16.0.0, SVG Export Plug-In . SVG Version: 6.00 Build 0)  -->
<!DOCTYPE svg PUBLIC "-//W3C//DTD SVG 1.1//EN" "http://www.w3.org/Graphics/SVG/1.1/DTD/svg11.dtd">
<svg version="1.1" id="Layer_13" xmlns="http://www.w3.org/2000/svg" xmlns:xlink="http://www.w3.org/1999/xlink" x="0px" y="0px"
	 width="100px" height="100px" viewBox="0 0 100 100" enable-background="new 0 0 100 100" xml:space="preserve">
<path d="M71.728,21.489c-0.913-2.007-2.555-3.539-4.62-4.311c-1.51-0.565-3.154-0.671-4.705-0.319
	c-0.945-1.291-2.245-2.283-3.756-2.848c-0.933-0.349-1.906-0.526-2.895-0.526c-3.425,0-6.534,2.157-7.736,5.367
	c-1.415,3.786,0.137,7.967,3.484,9.976L37.23,66.956c-0.475-0.084-0.956-0.127-1.44-0.127c-3.427,0-6.535,2.156-7.735,5.365
	c-0.773,2.065-0.696,4.309,0.219,6.317c0.914,2.008,2.556,3.539,4.622,4.313c1.507,0.564,3.151,0.671,4.704,0.317
	c0.942,1.289,2.242,2.281,3.757,2.849c0.932,0.349,1.906,0.526,2.894,0.526c3.427,0,6.534-2.157,7.733-5.366
	c0.774-2.066,0.696-4.309-0.217-6.317c-0.703-1.545-1.838-2.808-3.265-3.66l14.27-38.128c0.475,0.084,0.956,0.127,1.44,0.127
	c3.426,0,6.533-2.157,7.733-5.366C72.719,25.74,72.642,23.497,71.728,21.489z M69.136,26.754c-0.764,2.043-2.743,3.417-4.924,3.417
	c-0.628,0-1.247-0.113-1.842-0.335l-1.405-0.527L44.688,72.806l1.405,0.525c1.316,0.492,2.361,1.466,2.943,2.745
	s0.631,2.707,0.138,4.023c-0.764,2.043-2.742,3.417-4.924,3.417c-0.628,0-1.247-0.113-1.842-0.335
	c-1.216-0.456-2.215-1.343-2.813-2.499l-0.622-1.203l-1.26,0.497c-1.214,0.478-2.551,0.495-3.767,0.04
	c-1.315-0.493-2.36-1.468-2.943-2.747c-0.582-1.278-0.632-2.707-0.139-4.022c0.764-2.043,2.743-3.417,4.926-3.417
	c0.627,0,1.247,0.113,1.842,0.335l1.404,0.526l16.277-43.494l-1.405-0.525c-2.715-1.016-4.098-4.052-3.083-6.768
	c0.767-2.044,2.746-3.418,4.927-3.418c0.628,0,1.247,0.113,1.843,0.336c1.213,0.454,2.212,1.342,2.814,2.5l0.623,1.198l1.257-0.494
	c1.215-0.477,2.549-0.493,3.767-0.037c1.315,0.492,2.36,1.467,2.942,2.745C69.579,24.01,69.629,25.438,69.136,26.754z"/>
</svg>
