<?xml version="1.0" encoding="utf-8"?>
<!-- Generator: Adobe Illustrator 16.0.0, SVG Export Plug-In . SVG Version: 6.00 Build 0)  -->
<!DOCTYPE svg PUBLIC "-//W3C//DTD SVG 1.1//EN" "http://www.w3.org/Graphics/SVG/1.1/DTD/svg11.dtd">
<svg version="1.1" id="Layer_12" xmlns="http://www.w3.org/2000/svg" xmlns:xlink="http://www.w3.org/1999/xlink" x="0px" y="0px"
	 width="100px" height="100px" viewBox="0 0 100 100" enable-background="new 0 0 100 100" xml:space="preserve">
<path d="M56.173,21.753V4.679h1.163V2.5H42.664v2.179h1.308V21.69c-4.592,2.384-10.096,6.863-10.096,14.655
	c0,13.364,0,61.155,0,61.155h32.248c0,0,0-52.438,0-61.59C66.124,28.528,60.712,24.14,56.173,21.753z M47.458,35.837
	c0.962,0,1.743,0.781,1.743,1.743c0,0.963-0.781,1.743-1.743,1.743c-0.963,0-1.743-0.78-1.743-1.743
	C45.715,36.618,46.495,35.837,47.458,35.837z M43.754,53.704c-1.444,0-2.615-1.171-2.615-2.615s1.171-2.615,2.615-2.615
	c1.443,0,2.614,1.171,2.614,2.615S45.197,53.704,43.754,53.704z M49.201,69.174c-1.686,0-3.051-1.366-3.051-3.05
	c0-1.685,1.365-3.051,3.051-3.051c1.685,0,3.05,1.366,3.05,3.051C52.251,67.809,50.886,69.174,49.201,69.174z M57.698,81.086
	c-1.685,0-3.05-1.366-3.05-3.05c0-1.685,1.365-3.051,3.05-3.051c1.686,0,3.051,1.366,3.051,3.051
	C60.749,79.72,59.384,81.086,57.698,81.086z M44.625,84.427c-1.685,0-3.051-1.366-3.051-3.051c0-1.685,1.366-3.05,3.051-3.05
	s3.051,1.366,3.051,3.05C47.676,83.061,46.31,84.427,44.625,84.427z M59.224,61.33c-2.527,0-4.575-2.048-4.575-4.576
	c0-2.527,2.048-4.576,4.575-4.576s4.576,2.049,4.576,4.576C63.8,59.282,61.751,61.33,59.224,61.33z"/>
</svg>
