<?xml version="1.0" encoding="utf-8"?>
<!-- Generator: Adobe Illustrator 16.0.0, SVG Export Plug-In . SVG Version: 6.00 Build 0)  -->
<!DOCTYPE svg PUBLIC "-//W3C//DTD SVG 1.1//EN" "http://www.w3.org/Graphics/SVG/1.1/DTD/svg11.dtd">
<svg version="1.1" id="Layer_11" xmlns="http://www.w3.org/2000/svg" xmlns:xlink="http://www.w3.org/1999/xlink" x="0px" y="0px"
	 width="100px" height="100px" viewBox="0 0 100 100" enable-background="new 0 0 100 100" xml:space="preserve">
<g>
	<path d="M50.354,53.292h-1.591c-3.767,0-6.82,3.054-6.82,6.82v7.274c0,3.767,3.054,6.82,6.82,6.82h1.591
		c3.768,0,6.82-3.054,6.82-6.82v-7.274C57.174,56.346,54.121,53.292,50.354,53.292z"/>
	<path d="M97.253,44.369c-0.108-1.213-0.443-2.407-0.891-3.563c-0.491-1.131-1.096-2.228-1.828-3.229
		c-0.169-0.265-0.377-0.491-0.566-0.737c-0.198-0.238-0.382-0.496-0.598-0.718c-0.421-0.453-0.838-0.924-1.298-1.341
		c-0.227-0.212-0.448-0.435-0.683-0.641c-0.237-0.201-0.475-0.403-0.714-0.605l-0.358-0.305l-0.372-0.284
		c-0.248-0.19-0.498-0.38-0.748-0.57c-2.022-1.493-4.247-2.727-6.559-3.825c-2.313-1.099-4.741-2.014-7.231-2.8
		c-2.489-0.789-5.049-1.436-7.65-1.952c-5.206-1.059-10.554-1.563-15.947-1.685c-5.334-0.091-10.731,0.249-15.958,1.055
		c-2.618,0.396-5.197,0.932-7.717,1.585c-2.521,0.65-4.983,1.424-7.354,2.353c-2.369,0.926-4.658,1.979-6.8,3.229
		c-2.141,1.242-4.158,2.65-5.909,4.322c-0.217,0.21-0.435,0.419-0.651,0.626c-0.205,0.223-0.409,0.444-0.613,0.666
		c-0.417,0.428-0.777,0.918-1.152,1.378c-0.703,0.97-1.362,1.967-1.827,3.063c-0.266,0.527-0.43,1.104-0.629,1.652
		c-0.076,0.284-0.142,0.571-0.211,0.854c-0.034,0.143-0.069,0.281-0.099,0.426L2.826,43.78c-0.038,0.3-0.087,0.619-0.107,0.896
		c-0.005,0.253-0.011,0.506-0.016,0.757l-0.005,0.188l-0.002,0.095c-0.004,0.159,0.001,0.074,0.001,0.123L2.7,45.892l0.026,0.422
		c0.011,0.279,0.062,0.555,0.094,0.83c0.327,2.199,1.272,4.117,2.399,5.663c1.145,1.546,2.44,2.79,3.739,3.815
		c2.597,2.065,5.17,3.315,7.287,4.254c2.031,0.894,3.705,1.418,4.878,1.786v13.534c0,0.939,0.765,1.705,1.704,1.705
		c0.128,0,0.256-0.024,0.375-0.071l15.888-6.254c0.829-0.114,1.47-0.828,1.47-1.688V58.464c0-0.851-0.626-1.558-1.44-1.686
		l-15.874-7.092c-0.132-0.059-0.273-0.088-0.418-0.088c-0.939,0-1.704,0.764-1.704,1.704v11.06c-1.11-0.5-2.644-1.235-4.486-2.271
		c-0.989-0.562-2.063-1.22-3.177-2.003c-1.108-0.787-2.279-1.673-3.397-2.741c-1.125-1.058-2.199-2.3-3.073-3.724
		c-0.857-1.427-1.512-3.052-1.63-4.779c-0.008-0.216-0.035-0.432-0.024-0.649l0.002-0.326v-0.029l0.007-0.075l0.016-0.187
		c0.021-0.251,0.043-0.502,0.065-0.755c0.033-0.227,0.086-0.408,0.126-0.616l0.059-0.301l0.1-0.321
		c0.067-0.215,0.136-0.431,0.203-0.647c0.191-0.419,0.334-0.854,0.579-1.261c0.419-0.837,1.004-1.624,1.625-2.394
		c0.341-0.368,0.651-0.76,1.033-1.107c0.184-0.179,0.367-0.357,0.553-0.537c0.196-0.17,0.396-0.34,0.593-0.511
		c0.793-0.684,1.671-1.309,2.571-1.923c0.468-0.286,0.926-0.59,1.407-0.867c0.491-0.268,0.964-0.563,1.474-0.813
		c2.007-1.04,4.15-1.961,6.396-2.744c2.245-0.78,4.581-1.453,6.978-2.012c2.399-0.554,4.858-1.003,7.354-1.353
		c2.497-0.349,5.031-0.571,7.582-0.729c2.556-0.147,5.104-0.207,7.699-0.143c5.102,0.092,10.247,0.567,15.189,1.477
		c2.474,0.461,4.902,1.021,7.262,1.697c2.357,0.679,4.64,1.485,6.812,2.413c2.169,0.931,4.222,2.008,6.077,3.241
		c1.845,1.24,3.505,2.644,4.78,4.224c0.646,0.785,1.161,1.625,1.596,2.479c0.389,0.868,0.688,1.754,0.831,2.652
		c0.048,0.224,0.046,0.45,0.073,0.675l0.032,0.337l0.005,0.042c0.004-0.09,0.001,0.003,0.001-0.004v0.099l-0.001,0.194l-0.002,0.392
		l-0.022,0.31l-0.022,0.309l-0.048,0.33c-0.128,0.881-0.39,1.735-0.738,2.548c-0.702,1.63-1.768,3.067-2.934,4.31
		c-1.159,1.255-2.44,2.307-3.696,3.227c-2.534,1.826-4.991,3.12-7.048,4.097c-0.632,0.293-1.221,0.556-1.775,0.798V51.303
		c0-0.94-0.765-1.704-1.706-1.704c-0.143,0-0.285,0.029-0.416,0.089l-15.874,7.092c-0.815,0.127-1.441,0.834-1.441,1.686v11.423
		c0,0.86,0.641,1.574,1.47,1.688l15.889,6.254c0.118,0.048,0.246,0.071,0.373,0.071c0.941,0,1.706-0.765,1.706-1.705V63.088
		c0.649-0.192,1.351-0.415,2.107-0.68c2.184-0.769,4.835-1.797,7.649-3.497c1.404-0.851,2.864-1.846,4.263-3.113
		c1.399-1.257,2.737-2.807,3.751-4.727C96.909,49.153,97.488,46.806,97.253,44.369z"/>
</g>
</svg>
