<?xml version="1.0" encoding="utf-8"?>
<!-- Generator: Adobe Illustrator 16.0.0, SVG Export Plug-In . SVG Version: 6.00 Build 0)  -->
<!DOCTYPE svg PUBLIC "-//W3C//DTD SVG 1.1//EN" "http://www.w3.org/Graphics/SVG/1.1/DTD/svg11.dtd">
<svg version="1.1" id="Layer_13" xmlns="http://www.w3.org/2000/svg" xmlns:xlink="http://www.w3.org/1999/xlink" x="0px" y="0px"
	 width="100px" height="100px" viewBox="0 0 100 100" enable-background="new 0 0 100 100" xml:space="preserve">
<path d="M50,7.25C26.428,7.25,7.25,26.427,7.25,50S26.428,92.75,50,92.75S92.75,73.573,92.75,50S73.572,7.25,50,7.25z M50,89.073
	c-21.544,0-39.073-17.528-39.073-39.073S28.456,10.927,50,10.927c21.545,0,39.073,17.528,39.073,39.073S71.545,89.073,50,89.073z
	 M54.137,45.758c0,3.809-3.087,6.896-6.896,6.896c-3.808,0-6.895-3.087-6.895-6.896s3.087-6.895,6.895-6.895
	C51.05,38.863,54.137,41.949,54.137,45.758z M39.923,34.571c-3.664,1.035-7.475-1.095-8.51-4.76c-1.036-3.666,1.095-7.475,4.76-8.51
	c3.665-1.036,7.475,1.094,8.51,4.759C45.719,29.726,43.588,33.535,39.923,34.571z M33.911,45.403c0,3.809-3.087,6.895-6.895,6.895
	s-6.895-3.086-6.895-6.895s3.087-6.895,6.895-6.895S33.911,41.595,33.911,45.403z"/>
</svg>
