<?xml version="1.0" encoding="utf-8"?>
<!-- Generator: Adobe Illustrator 16.0.0, SVG Export Plug-In . SVG Version: 6.00 Build 0)  -->
<!DOCTYPE svg PUBLIC "-//W3C//DTD SVG 1.1//EN" "http://www.w3.org/Graphics/SVG/1.1/DTD/svg11.dtd">
<svg version="1.1" id="Layer_13" xmlns="http://www.w3.org/2000/svg" xmlns:xlink="http://www.w3.org/1999/xlink" x="0px" y="0px"
	 width="100px" height="100px" viewBox="0 0 100 100" enable-background="new 0 0 100 100" xml:space="preserve">
<path d="M60.214,41.049c-1.066-2.719-2.199-8.111-2.199-12.752c0-0.461,0.023-0.946,0.072-1.484l0.076-0.834h0.008l0.113-0.691
	c0.123-0.763,0.289-1.58,0.52-2.574l0.219-0.944h0.004l0.15-0.632c0.469-1.953,0.855-3.701,0.855-5.319
	c0-5.924-4.021-10.888-9.117-11.47V4.287h-0.824c-0.027,0-0.055,0-0.1,0.002c-0.027-0.002-0.055-0.002-0.084-0.002l-0.822,0.005
	v0.056c-5.096,0.582-9.117,5.546-9.117,11.47c0,1.618,0.387,3.366,0.854,5.319l0.152,0.632h0.004l0.219,0.944
	c0.23,0.994,0.395,1.812,0.52,2.574l0.111,0.691h0.01l0.074,0.834c0.051,0.538,0.074,1.023,0.074,1.484
	c0,4.641-1.135,10.033-2.201,12.752c-2.473,6.301-3.834,14.65-3.834,23.509c0,12.117,1.766,27.339,10.184,31.038
	c0.32,0.142,0.689,0.152,1.018,0.035h5.697c0.148,0.054,0.307,0.082,0.465,0.082c0.191,0,0.377-0.039,0.553-0.117
	c8.416-3.699,10.184-18.921,10.184-31.038C64.05,55.699,62.687,47.35,60.214,41.049z M49.927,5.939l0.064-0.002l0.082,0.002
	c4.582,0.102,8.313,4.533,8.313,9.878c0,1.272-0.287,2.708-0.66,4.304H42.275c-0.373-1.596-0.66-3.031-0.66-4.304
	C41.615,10.473,45.343,6.041,49.927,5.939z M43.027,23.352h13.947c-0.072,0.344-0.137,0.667-0.195,0.979H43.222
	C43.164,24.019,43.099,23.695,43.027,23.352z M53.333,94.029l-0.074-0.046h-6.52l-0.074,0.046
	c-7.49-3.449-9.068-17.911-9.068-29.472c0-8.658,1.322-16.793,3.723-22.907c1.121-2.859,2.313-8.512,2.313-13.354
	c0-0.238-0.006-0.482-0.018-0.735h12.77c-0.012,0.253-0.018,0.497-0.018,0.735c0,4.842,1.193,10.494,2.314,13.354
	c2.4,6.114,3.721,14.249,3.721,22.907C62.402,76.118,60.824,90.58,53.333,94.029z"/>
</svg>
