<?xml version="1.0" encoding="utf-8"?>
<!-- Generator: Adobe Illustrator 16.0.0, SVG Export Plug-In . SVG Version: 6.00 Build 0)  -->
<!DOCTYPE svg PUBLIC "-//W3C//DTD SVG 1.1//EN" "http://www.w3.org/Graphics/SVG/1.1/DTD/svg11.dtd">
<svg version="1.1" id="Layer_12" xmlns="http://www.w3.org/2000/svg" xmlns:xlink="http://www.w3.org/1999/xlink" x="0px" y="0px"
	 width="100px" height="100px" viewBox="0 0 100 100" enable-background="new 0 0 100 100" xml:space="preserve">
<path d="M7.235,17.473l7.84,0v65.053h-7.84c-0.761,0-1.377,0.616-1.377,1.377s0.616,1.377,1.377,1.377h8.107v8.109
	c0,0.761,0.617,1.377,1.377,1.377c0.761,0,1.377-0.616,1.377-1.377V85.28h64.908v8.109c0,0.761,0.617,1.377,1.377,1.377
	c0.762,0,1.377-0.616,1.377-1.377V85.28l8.109,0c0.761,0,1.377-0.616,1.377-1.377s-0.616-1.377-1.377-1.377h-8.109V17.473h8.109
	c0.761,0,1.377-0.616,1.377-1.377s-0.616-1.377-1.377-1.377h-8.109V6.609c0-0.761-0.615-1.377-1.377-1.377
	c-0.76,0-1.377,0.616-1.377,1.377v7.985H18.097V6.609c0-0.761-0.616-1.377-1.377-1.377c-0.76,0-1.377,0.616-1.377,1.377v8.109
	l-8.107,0c-0.761,0-1.377,0.616-1.377,1.377S6.475,17.473,7.235,17.473z M62.046,17.411h20.959v21.113H62.046V17.411z
	 M62.046,39.442h20.959v21.052H62.046V39.442z M62.046,61.474h20.959v21.052l-20.959,0V61.474z M40.014,17.411h21.114v21.113
	l-21.114,0V17.411z M40.014,39.443l21.114,0v21.052l-21.114,0V39.443z M40.014,61.474l21.114,0v21.052H40.014V61.474z
	 M17.982,17.411h21.113v21.114H17.982V17.411z M17.982,39.443h21.113v21.052H17.982V39.443z M17.982,61.474h21.113v21.052H17.982
	V61.474z M19.645,19.082h17.332v17.332H19.645V19.082z"/>
</svg>
