<?xml version="1.0" encoding="utf-8"?>
<!-- Generator: Adobe Illustrator 16.0.0, SVG Export Plug-In . SVG Version: 6.00 Build 0)  -->
<!DOCTYPE svg PUBLIC "-//W3C//DTD SVG 1.1//EN" "http://www.w3.org/Graphics/SVG/1.1/DTD/svg11.dtd">
<svg version="1.1" id="Layer_12" xmlns="http://www.w3.org/2000/svg" xmlns:xlink="http://www.w3.org/1999/xlink" x="0px" y="0px"
	 width="100px" height="100px" viewBox="0 0 100 100" enable-background="new 0 0 100 100" xml:space="preserve">
<path d="M58.873,24.975c-14.008,0-25.404,11.396-25.404,25.404s11.396,25.403,25.404,25.403s25.404-11.396,25.404-25.403
	S72.881,24.975,58.873,24.975z M58.873,72.907c-12.422,0-22.527-10.106-22.527-22.528s10.105-22.528,22.527-22.528V72.907z
	 M60.285,82.288v12.209c0,0.698-0.566,1.264-1.262,1.264c-0.699,0-1.264-0.565-1.264-1.264V82.288c0-0.698,0.566-1.264,1.264-1.264
	S60.285,81.59,60.285,82.288z M40.865,74.857c0.564,0.411,0.689,1.201,0.279,1.765L33.967,86.5
	c-0.246,0.341-0.631,0.521-1.021,0.521c-0.258,0-0.518-0.079-0.742-0.241c-0.564-0.41-0.689-1.201-0.279-1.765l7.178-9.878
	C39.512,74.574,40.303,74.448,40.865,74.857z M29.801,59.196c0.215,0.664-0.148,1.376-0.811,1.593l-11.613,3.772
	c-0.131,0.042-0.262,0.062-0.391,0.062c-0.533,0-1.027-0.339-1.201-0.873c-0.217-0.663,0.148-1.376,0.811-1.592l11.613-3.773
	C28.873,58.172,29.584,58.534,29.801,59.196z M30.055,40.022c-0.174,0.533-0.67,0.873-1.201,0.873c-0.129,0-0.262-0.021-0.391-0.063
	L16.85,37.06c-0.662-0.215-1.025-0.927-0.811-1.591c0.217-0.663,0.93-1.024,1.592-0.812l11.613,3.773
	C29.906,38.647,30.27,39.358,30.055,40.022z M32.588,14.502c-0.41-0.565-0.285-1.354,0.281-1.764
	c0.563-0.41,1.354-0.285,1.764,0.278l7.178,9.879c0.408,0.563,0.285,1.354-0.281,1.764c-0.225,0.163-0.484,0.24-0.74,0.24
	c-0.391,0-0.777-0.18-1.023-0.52L32.588,14.502z M58.58,17.712V5.503c0-0.698,0.566-1.264,1.264-1.264
	c0.699,0,1.264,0.565,1.264,1.264v12.209c0,0.697-0.564,1.264-1.264,1.264C59.146,18.976,58.58,18.409,58.58,17.712z"/>
</svg>
