<?xml version="1.0" encoding="utf-8"?>
<!-- Generator: Adobe Illustrator 16.0.0, SVG Export Plug-In . SVG Version: 6.00 Build 0)  -->
<!DOCTYPE svg PUBLIC "-//W3C//DTD SVG 1.1//EN" "http://www.w3.org/Graphics/SVG/1.1/DTD/svg11.dtd">
<svg version="1.1" id="Layer_12" xmlns="http://www.w3.org/2000/svg" xmlns:xlink="http://www.w3.org/1999/xlink" x="0px" y="0px"
	 width="100px" height="100px" viewBox="0 0 100 100" enable-background="new 0 0 100 100" xml:space="preserve">
<path d="M82.425,23.368c-5.081,6.005-12.191,13.624-20.021,21.454c-9.474,9.473-18.808,18.036-24.969,22.902
	c-0.498,0.396-1.213,0.353-1.662-0.097l-2.817-2.816c-0.448-0.45-0.49-1.164-0.097-1.663c4.867-6.16,13.431-15.495,22.903-24.968
	c7.829-7.829,15.45-14.94,21.454-20.022c10.152-8.59,11.122-7.62,11.976-6.767C90.047,12.246,91.017,13.216,82.425,23.368z
	 M17.649,72.134c-4.804,4.804-12.003,24.304-3.299,14.1c8.705-10.206,9.295,1.504,14.099-3.3c4.803-4.803,6.28-11.115,3.298-14.097
	C28.765,65.854,22.452,67.331,17.649,72.134z M32.15,65.113c-0.491-0.488-1.282-0.488-1.772,0c-0.489,0.49-0.489,1.282,0,1.771
	l3.211,3.21c0.488,0.489,1.281,0.489,1.771,0s0.489-1.281,0-1.771L32.15,65.113z"/>
</svg>
