<?xml version="1.0" encoding="utf-8"?>
<!-- Generator: Adobe Illustrator 16.0.0, SVG Export Plug-In . SVG Version: 6.00 Build 0)  -->
<!DOCTYPE svg PUBLIC "-//W3C//DTD SVG 1.1//EN" "http://www.w3.org/Graphics/SVG/1.1/DTD/svg11.dtd">
<svg version="1.1" id="Layer_12" xmlns="http://www.w3.org/2000/svg" xmlns:xlink="http://www.w3.org/1999/xlink" x="0px" y="0px"
	 width="100px" height="100px" viewBox="0 0 100 100" enable-background="new 0 0 100 100" xml:space="preserve">
<path d="M93.316,82.526h-7.84V17.474h7.84c0.761,0,1.377-0.617,1.377-1.377c0-0.761-0.616-1.377-1.377-1.377h-8.107V6.61
	c0-0.76-0.617-1.377-1.377-1.377c-0.761,0-1.377,0.617-1.377,1.377v8.109H17.547V6.61c0-0.76-0.617-1.377-1.377-1.377
	c-0.762,0-1.377,0.617-1.377,1.377v8.109H6.684c-0.761,0-1.377,0.616-1.377,1.377c0,0.76,0.616,1.377,1.377,1.377h8.109v65.053
	H6.684c-0.761,0-1.377,0.617-1.377,1.377c0,0.761,0.616,1.377,1.377,1.377h8.109v8.109c0,0.76,0.615,1.377,1.377,1.377
	c0.76,0,1.377-0.617,1.377-1.377v-7.986h64.908v7.986c0,0.76,0.616,1.377,1.377,1.377c0.76,0,1.377-0.617,1.377-1.377V85.28h8.107
	c0.761,0,1.377-0.616,1.377-1.377C94.693,83.143,94.077,82.526,93.316,82.526z M38.506,82.588H17.547V61.475h20.959V82.588z
	 M38.506,60.557H17.547V39.505h20.959V60.557z M38.506,38.525H17.547V17.474h20.959V38.525z M60.538,82.588H39.424V61.475h21.114
	V82.588z M60.538,60.557H39.424V39.505h21.114V60.557z M60.538,38.525H39.424V17.474h21.114V38.525z M82.569,82.588H61.456V61.475
	h21.113V82.588z M82.569,60.557H61.456V39.505h21.113V60.557z M82.569,38.525H61.456V17.474h21.113V38.525z M58.666,58.667H41.334
	V41.333h17.332V58.667z"/>
</svg>
