<?xml version="1.0" encoding="utf-8"?>
<!-- Generator: Adobe Illustrator 16.0.0, SVG Export Plug-In . SVG Version: 6.00 Build 0)  -->
<!DOCTYPE svg PUBLIC "-//W3C//DTD SVG 1.1//EN" "http://www.w3.org/Graphics/SVG/1.1/DTD/svg11.dtd">
<svg version="1.1" id="Layer_11" xmlns="http://www.w3.org/2000/svg" xmlns:xlink="http://www.w3.org/1999/xlink" x="0px" y="0px"
	 width="100px" height="100px" viewBox="0 0 100 100" enable-background="new 0 0 100 100" xml:space="preserve">
<g>
	<path d="M64.25,33.579V7.795h-28.5v25.784c0,13.013,7.845,18.529,12.214,19.961v31.331c-3.32,0.194-5.768,0.854-5.768,1.636
		c0,0.069,0.024,0.135,0.06,0.2c-3.607,0.546-5.973,1.453-5.973,2.479c0,1.667,6.217,3.019,13.887,3.019
		c7.669,0,13.887-1.352,13.887-3.019c0-1.057-2.504-1.985-6.289-2.524c0.021-0.051,0.036-0.104,0.036-0.155
		c0-0.757-2.282-1.397-5.429-1.615v-31.47C56.797,51.824,64.25,46.262,64.25,33.579z M38.464,33.579V10.508h23.071v23.071
		c0,14.139-10.098,17.643-11.535,17.643S38.464,47.718,38.464,33.579z"/>
	<path d="M59.345,34.562v-9.974c0,0-4.935,2.545-9.261,0c-4.325-2.543-9.429,0-9.429,0v9.974c0,11.336,8.059,13.734,9.345,13.776
		C51.285,48.296,59.345,45.897,59.345,34.562z"/>
</g>
</svg>
