<?xml version="1.0" encoding="utf-8"?>
<!-- Generator: Adobe Illustrator 16.0.0, SVG Export Plug-In . SVG Version: 6.00 Build 0)  -->
<!DOCTYPE svg PUBLIC "-//W3C//DTD SVG 1.1//EN" "http://www.w3.org/Graphics/SVG/1.1/DTD/svg11.dtd">
<svg version="1.1" id="Layer_13" xmlns="http://www.w3.org/2000/svg" xmlns:xlink="http://www.w3.org/1999/xlink" x="0px" y="0px"
	 width="100px" height="100px" viewBox="0 0 100 100" enable-background="new 0 0 100 100" xml:space="preserve">
<path fill-rule="evenodd" clip-rule="evenodd" d="M66.088,80.895c-0.574-1.125-1.246-2.201-1.856-3.137
	c0.172-0.24,0.3-0.523,0.375-0.84c0.278-1.16-0.285-2.248-1.431-2.773c-0.26-0.121-0.534-0.188-0.801-0.23
	c-0.409-1.088-0.833-2.174-1.261-3.258c-1.082-2.744-2.201-5.584-2.958-8.432c-0.756-2.846-1.194-5.865-1.616-8.785
	c-0.109-0.742-0.216-1.488-0.329-2.232l1.598-0.002c0.548,0,1.163-0.207,1.646-0.551c1.329-0.957,1.797-2.373,1.281-3.887
	c-0.521-1.535-1.783-2.492-3.295-2.498c-0.063-1.93-0.177-3.963-0.354-6.379c-0.031-0.398,0.07-0.713,0.368-1.154l0.817-1.211
	c1.457-2.15,2.964-4.373,4.356-6.629c0.74-1.197,1.216-2.492,1.341-3.646c0.168-1.555-0.313-3.066-1.354-4.256
	c-1.083-1.236-2.66-1.967-4.326-2.008c-0.349-0.008-0.697-0.01-1.047-0.01l-0.654,0.002c-0.002-0.061-0.004-0.123-0.007-0.186
	c-0.087-1.416-1.017-2.34-2.368-2.352c-3.038-0.029-6.077-0.029-9.114,0c-1.409,0.014-2.326,0.945-2.396,2.428
	c-0.001,0.037-0.002,0.076-0.003,0.111h-0.672c-0.338,0-0.668,0-0.998,0.008c-2.866,0.055-5.206,2.074-5.688,4.908
	c-0.276,1.633,0.133,3.252,1.251,4.945c0.96,1.453,1.929,2.898,2.899,4.344c0.815,1.215,1.63,2.432,2.438,3.65
	c0.109,0.164,0.179,0.281,0.205,0.348c-0.073,2.045-0.174,4.092-0.276,6.176l-0.045,0.912c-1.977,0.191-3.459,1.828-3.428,3.852
	c0.026,1.646,1.45,3.094,3.046,3.098l2.216-0.002c-0.314,3.98-0.735,7.605-1.938,11.072c-0.981,2.832-2.148,5.662-3.276,8.398
	c-0.441,1.07-0.879,2.137-1.308,3.205c-0.68,0.1-1.312,0.434-1.75,0.951c-0.433,0.512-0.64,1.137-0.585,1.764
	c0.049,0.537,0.268,1,0.621,1.352l-0.142,0.268c-0.66,1.223-1.344,2.488-1.829,3.844c-1.163,3.256-0.912,6.354,0.749,9.209
	c-0.26,0.283-0.473,0.631-0.639,1.043c-0.203,0.504-0.278,1.014-0.353,1.504c-0.028,0.193-0.059,0.393-0.099,0.594
	c-0.063,0.318,0.021,0.646,0.228,0.898c0.205,0.25,0.512,0.395,0.835,0.395h31.542c0.542,0,1.003-0.404,1.073-0.943
	c0.238-1.818-0.307-2.873-0.99-3.482C67.669,87.693,67.771,84.197,66.088,80.895z M40.436,71.516
	c1.14-2.766,2.319-5.625,3.322-8.516c1.404-4.049,1.799-8.186,2.138-12.785c0.024-0.303-0.082-0.598-0.286-0.818
	s-0.491-0.346-0.792-0.346l-3.382,0.002c-0.414,0-0.876-0.506-0.883-0.965c-0.015-0.947,0.664-1.648,1.614-1.668
	c0.156-0.004,0.312-0.018,0.505-0.039l0.27-0.025c0.541-0.045,0.963-0.484,0.989-1.025l0.092-1.863
	c0.104-2.115,0.208-4.191,0.281-6.266c0.026-0.672-0.36-1.252-0.566-1.564c-0.812-1.221-1.628-2.439-2.445-3.658
	c-0.967-1.441-1.933-2.883-2.89-4.332c-0.814-1.23-1.107-2.307-0.923-3.387c0.31-1.822,1.753-3.07,3.592-3.105
	c0.316-0.006,0.633-0.008,0.957-0.008l1.754,0.006c0.599,0,1.084-0.486,1.084-1.084l-0.003-0.408
	c-0.003-0.242-0.006-0.467,0.004-0.689c0.012-0.25,0.067-0.334,0.065-0.334c0.006-0.002,0.058-0.027,0.187-0.027
	c3.025-0.031,6.049-0.031,9.075,0c0.095,0,0.143,0.018,0.151,0.023c0.012,0.012,0.062,0.098,0.073,0.291
	c0.013,0.205,0.01,0.41,0.006,0.658l-0.004,0.484c0,0.598,0.485,1.084,1.083,1.084l1.739-0.008c0.333,0,0.665,0.004,0.996,0.012
	c1.062,0.023,2.063,0.486,2.747,1.268c0.637,0.729,0.932,1.65,0.831,2.596c-0.092,0.838-0.458,1.813-1.031,2.74
	c-1.37,2.217-2.862,4.422-4.306,6.555l-0.82,1.213c-0.386,0.572-0.82,1.375-0.734,2.523c0.18,2.449,0.293,4.496,0.355,6.441
	c0.054,1.697,1.235,1.951,1.933,1.951l0.213-0.004c0.819,0,1.154,0.721,1.259,1.029c0.206,0.604,0.057,1.029-0.494,1.426
	c-0.124,0.088-0.303,0.146-0.392,0.146l-2.858,0.002c-0.317,0.002-0.619,0.141-0.824,0.383c-0.205,0.242-0.293,0.563-0.242,0.875
	c0.186,1.148,0.353,2.301,0.52,3.451c0.432,2.98,0.879,6.063,1.667,9.031c0.79,2.971,1.933,5.867,3.038,8.668
	c0.292,0.744,0.585,1.486,0.872,2.232H39.546C39.841,72.959,40.137,72.238,40.436,71.516z M63.783,92.637
	c0.316,0.072,0.756,0.172,0.862,0.912H35.439c0.033-0.154,0.071-0.295,0.12-0.416c0.178-0.441,0.362-0.521,0.538-0.566
	c0.438-0.109,0.761-0.48,0.812-0.93c0.049-0.447-0.184-0.881-0.586-1.086c-0.055-0.027-0.119-0.117-0.16-0.189
	c-1.415-2.326-1.644-4.869-0.682-7.561c0.429-1.199,1.043-2.34,1.694-3.543l0.374-0.699c0.001,0,0.001,0,0.001-0.002
	c0.423-0.213,0.659-0.676,0.581-1.143c-0.078-0.469-0.451-0.832-0.92-0.896c-0.203-0.027-0.266-0.084-0.262-0.102
	c-0.003-0.033,0.021-0.098,0.08-0.17c0.109-0.127,0.279-0.213,0.456-0.227c0.261-0.018,0.522-0.012,0.783-0.008
	c0.144,0.004,0.288,0.006,0.431,0.006h8.314c4.844,0,9.689,0.002,14.535,0.008c0.132,0,0.535,0,0.724,0.088
	c0.272,0.123,0.252,0.211,0.23,0.301c-0.013,0.053-0.025,0.078-0.024,0.08c-0.01,0.004-0.038,0.018-0.09,0.025
	c-0.458,0.086-0.811,0.459-0.874,0.922c-0.062,0.463,0.181,0.916,0.603,1.119c0.048,0.023,0.08,0.041,0.07,0.027
	c0.64,0.969,1.374,2.113,1.974,3.293c1.381,2.709,1.265,5.496-0.354,8.518c-0.075,0.139-0.107,0.148-0.122,0.154
	c-0.462,0.154-0.763,0.596-0.74,1.08C62.967,92.117,63.311,92.527,63.783,92.637z M44.858,12.574
	c-0.952-1.463-0.941-3.787,0.061-5.275c0.781,0.525,1.522,1.123,2.355,1.539c0.361,0.18,1.075,0.16,1.324-0.08
	c0.254-0.248,0.31-0.961,0.141-1.324c-0.394-0.85-0.972-1.613-1.484-2.424c1.093-0.938,3.331-0.99,5.164-0.012
	c-0.341,0.393-0.692,0.758-1,1.158c-0.227,0.295-0.435,0.617-0.585,0.957c-0.256,0.578-0.633,1.318,0.026,1.717
	c0.403,0.246,1.193,0.148,1.665-0.088c0.754-0.379,1.385-0.998,2.104-1.543c0.923,1.797,0.949,3.602,0.036,5.498
	c-0.503-0.428-0.931-0.842-1.412-1.186c-0.347-0.25-0.742-0.494-1.15-0.576c-0.383-0.074-0.952-0.076-1.179,0.15
	c-0.231,0.232-0.302,0.844-0.167,1.178c0.275,0.684,0.721,1.299,1.125,1.922c0.154,0.236,0.389,0.42,0.587,0.627
	c-1.28,1.09-3.675,1.139-5.4,0.094c0.371-0.432,0.782-0.83,1.089-1.295c0.298-0.449,0.559-0.949,0.715-1.467
	c0.292-0.967-0.333-1.637-1.251-1.24C46.646,11.326,45.78,12.004,44.858,12.574z M39.771,81.719
	c-0.024,0.037-2.176,3.523-0.665,6.619c0.262,0.539,0.039,1.188-0.498,1.449c-0.153,0.074-0.315,0.109-0.475,0.109
	c-0.402,0-0.787-0.223-0.975-0.607c-2.048-4.197,0.665-8.547,0.782-8.73c0.32-0.506,0.99-0.654,1.496-0.332
	C39.939,80.547,40.089,81.215,39.771,81.719z M48.211,59.939c-0.023,0.227-0.573,5.662-3.422,12.242
	c-0.177,0.41-0.577,0.652-0.996,0.652c-0.143,0-0.29-0.027-0.43-0.088c-0.549-0.238-0.801-0.877-0.563-1.424
	c2.715-6.273,3.248-11.539,3.253-11.592c0.058-0.596,0.592-1.031,1.182-0.975C47.832,58.814,48.268,59.344,48.211,59.939z"/>
</svg>
