<?xml version="1.0" encoding="utf-8"?>
<!-- Generator: Adobe Illustrator 16.0.0, SVG Export Plug-In . SVG Version: 6.00 Build 0)  -->
<!DOCTYPE svg PUBLIC "-//W3C//DTD SVG 1.1//EN" "http://www.w3.org/Graphics/SVG/1.1/DTD/svg11.dtd">
<svg version="1.1" id="Layer_13" xmlns="http://www.w3.org/2000/svg" xmlns:xlink="http://www.w3.org/1999/xlink" x="0px" y="0px"
	 width="100px" height="100px" viewBox="0 0 100 100" enable-background="new 0 0 100 100" xml:space="preserve">
<path d="M77.413,76.969V64.34c8.271-0.688,13.51-2.207,13.51-3.346c0-1.137-5.238-2.658-13.51-3.346V43.364
	c5.122-0.642,8.23-1.478,8.23-2.394c0-0.791-2.321-1.524-6.25-2.12v-0.063H78.99c-2.602-0.379-5.867-0.7-9.604-0.945L53.069,21.34
	L51.84,7.875l-0.159,2.501l-0.834,11.207l-16.289,16.29c-3.545,0.24-6.65,0.551-9.146,0.914h-0.473v0.073
	c-3.887,0.596-6.181,1.323-6.181,2.11c0,0.913,3.081,1.746,8.161,2.386v14.292c-8.271,0.688-13.509,2.209-13.509,3.346
	c0,1.139,5.238,2.658,13.509,3.346v12.431c-12.374,0.665-20.594,2.837-20.594,4.171c0,1.336,8.22,2.508,20.594,3.173v8.011h3.091
	v-7.859c2.946,0.131,6.087,0.235,9.377,0.308v7.552h7.847v-7.442c1.08,0.007,2.167,0.011,3.266,0.011
	c2.074,0,4.114-0.014,6.111-0.036v7.468H64.6v-7.627c3.32-0.096,6.462-0.223,9.377-0.378v8.005h3.437v-8.209
	c10.495-0.686,17.261-1.763,17.261-2.975C94.674,79.73,87.908,77.653,77.413,76.969z M39.388,76.081h-9.377v-9.793h9.377V76.081z
	 M39.388,56.425h-9.377v-9.794h9.377V56.425z M56.611,76.081h-9.377v-9.793h9.377V76.081z M56.611,56.425h-9.377v-9.794h9.377
	V56.425z M73.977,76.081H64.6v-9.793h9.377V76.081z M73.977,56.425H64.6v-9.794h9.377V56.425z"/>
</svg>
