<?xml version="1.0" encoding="utf-8"?>
<!-- Generator: Adobe Illustrator 16.0.0, SVG Export Plug-In . SVG Version: 6.00 Build 0)  -->
<!DOCTYPE svg PUBLIC "-//W3C//DTD SVG 1.1//EN" "http://www.w3.org/Graphics/SVG/1.1/DTD/svg11.dtd">
<svg version="1.1" id="Layer_12" xmlns="http://www.w3.org/2000/svg" xmlns:xlink="http://www.w3.org/1999/xlink" x="0px" y="0px"
	 width="100px" height="100px" viewBox="0 0 100 100" enable-background="new 0 0 100 100" xml:space="preserve">
<path d="M88.985,50.22c-0.133,0-0.263,0.013-0.395,0.02v-0.083l-76.702,0.03c-0.183,0-1.393,0.032-1.9,0.032
	c-3.452,0-6.25,3.405-6.25,7.604c0,4.199,2.798,7.604,6.25,7.604c0.706,0,2.277,0.032,2.505,0.032l76.097,0.03v-0.083
	c0.131,0.007,0.261,0.02,0.395,0.02c4.2,0,7.604-3.405,7.604-7.604C96.589,53.625,93.185,50.22,88.985,50.22z M34.906,63.777
	c-0.625,0.396-1.321,0.641-2.063,0.684h-18.81c1.626-1.488,2.504-3.735,2.504-6.484c0-2.906-1.034-5.292-2.889-6.789l19.182-0.001
	c0.747,0.041,1.447,0.287,2.076,0.686c1.298,1.699,1.938,3.851,1.938,5.952C36.845,60.127,36.102,62.212,34.906,63.777z
	 M4.17,45.459c-0.255-0.319-0.494-0.729-0.631-1.236c-0.085-0.246-0.093-0.535-0.128-0.821c0.027-0.286,0.033-0.606,0.145-0.886
	c0.101-0.287,0.206-0.589,0.382-0.828c0.156-0.265,0.334-0.512,0.549-0.699c0.206-0.206,0.412-0.423,0.645-0.563L5.745,40
	l0.602-0.399c0.16-0.13,0.243-0.227,0.379-0.331c0.123-0.105,0.203-0.253,0.327-0.366c0.087-0.129,0.153-0.262,0.226-0.396
	c0.075-0.278,0.174-0.573,0.136-0.9c-0.01-0.319-0.093-0.654-0.185-0.966c-0.204-0.622-0.476-1.161-0.675-1.536
	c-0.2-0.377-0.332-0.597-0.332-0.597s0.24,0.088,0.621,0.323c0.375,0.239,0.906,0.615,1.396,1.263
	c0.241,0.325,0.499,0.71,0.637,1.207c0.175,0.478,0.217,1.076,0.101,1.677c-0.08,0.286-0.182,0.589-0.315,0.864
	c-0.16,0.253-0.303,0.531-0.521,0.755c-0.213,0.215-0.456,0.473-0.672,0.639l-0.592,0.413l-0.583,0.383
	c-0.184,0.104-0.317,0.226-0.456,0.346c-0.156,0.115-0.266,0.239-0.369,0.362c-0.133,0.117-0.184,0.251-0.263,0.378
	c-0.094,0.126-0.079,0.27-0.158,0.403c-0.006,0.146-0.062,0.29-0.044,0.446c0.014,0.306,0.061,0.638,0.169,0.942
	c0.203,0.613,0.49,1.146,0.699,1.513c0.21,0.371,0.351,0.585,0.351,0.585s-0.242-0.081-0.63-0.305
	c-0.191-0.114-0.426-0.259-0.665-0.465C4.684,46.038,4.41,45.793,4.17,45.459z M8.842,43.942c0.154-0.154,0.308-0.317,0.482-0.422
	l0.458-0.318l0.45-0.299c0.12-0.097,0.182-0.169,0.284-0.248c0.092-0.079,0.152-0.189,0.245-0.274
	c0.065-0.097,0.114-0.196,0.169-0.296c0.057-0.208,0.131-0.429,0.102-0.674c-0.007-0.239-0.07-0.49-0.138-0.723
	c-0.153-0.465-0.356-0.869-0.505-1.149c-0.149-0.282-0.248-0.447-0.248-0.447s0.179,0.066,0.464,0.242
	c0.28,0.179,0.678,0.46,1.045,0.945c0.18,0.244,0.373,0.531,0.476,0.903c0.131,0.357,0.163,0.805,0.076,1.255
	c-0.06,0.214-0.136,0.441-0.236,0.646c-0.12,0.189-0.227,0.397-0.39,0.565c-0.159,0.161-0.341,0.354-0.503,0.478l-0.443,0.309
	l-0.437,0.287c-0.137,0.078-0.237,0.169-0.341,0.259c-0.117,0.086-0.199,0.179-0.276,0.271c-0.1,0.087-0.138,0.188-0.197,0.283
	c-0.07,0.094-0.059,0.202-0.118,0.302c-0.005,0.109-0.046,0.216-0.033,0.334c0.011,0.229,0.046,0.477,0.126,0.705
	c0.152,0.459,0.367,0.857,0.523,1.133c0.158,0.277,0.263,0.438,0.263,0.438s-0.182-0.06-0.472-0.228
	c-0.143-0.085-0.319-0.194-0.498-0.348c-0.183-0.151-0.388-0.334-0.567-0.583c-0.191-0.239-0.37-0.545-0.473-0.925
	c-0.063-0.184-0.069-0.4-0.096-0.615c0.02-0.214,0.025-0.454,0.108-0.663c0.076-0.215,0.154-0.441,0.286-0.62
	C8.547,44.268,8.681,44.083,8.842,43.942z"/>
</svg>
