<?xml version="1.0" encoding="utf-8"?>
<!-- Generator: Adobe Illustrator 16.0.0, SVG Export Plug-In . SVG Version: 6.00 Build 0)  -->
<!DOCTYPE svg PUBLIC "-//W3C//DTD SVG 1.1//EN" "http://www.w3.org/Graphics/SVG/1.1/DTD/svg11.dtd">
<svg version="1.1" id="Layer_12" xmlns="http://www.w3.org/2000/svg" xmlns:xlink="http://www.w3.org/1999/xlink" x="0px" y="0px"
	 width="100px" height="100px" viewBox="0 0 100 100" enable-background="new 0 0 100 100" xml:space="preserve">
<path d="M72.975,40.101l-3.535,3.535l3.85,3.851H51.684c-1.225-8.394-8.449-14.866-17.178-14.866
	c-9.582,0-17.379,7.796-17.379,17.38s7.797,17.38,17.379,17.38c8.737,0,15.969-6.486,17.182-14.894h21.629l-3.877,3.878l3.535,3.535
	L82.873,50L72.975,40.101z M34.506,60.885c-6.002,0-10.885-4.882-10.885-10.885s4.883-10.885,10.885-10.885S45.391,43.997,45.391,50
	S40.508,60.885,34.506,60.885z"/>
</svg>
