<?xml version="1.0" encoding="utf-8"?>
<!-- Generator: Adobe Illustrator 16.0.0, SVG Export Plug-In . SVG Version: 6.00 Build 0)  -->
<!DOCTYPE svg PUBLIC "-//W3C//DTD SVG 1.1//EN" "http://www.w3.org/Graphics/SVG/1.1/DTD/svg11.dtd">
<svg version="1.1" id="Layer_13" xmlns="http://www.w3.org/2000/svg" xmlns:xlink="http://www.w3.org/1999/xlink" x="0px" y="0px"
	 width="100px" height="100px" viewBox="0 0 100 100" enable-background="new 0 0 100 100" xml:space="preserve">
<g>
	<path d="M50,9.857C27.865,9.857,9.857,27.865,9.857,50S27.865,90.143,50,90.143S90.143,72.135,90.143,50S72.135,9.857,50,9.857z
		 M50,86.877c-20.334,0-36.877-16.543-36.877-36.877S29.666,13.123,50,13.123S86.877,29.666,86.877,50S70.334,86.877,50,86.877z"/>
	<path d="M50,21.184c-15.89,0-28.816,12.927-28.816,28.816c0,15.89,12.927,28.816,28.816,28.816S78.816,65.89,78.816,50
		C78.816,34.111,65.89,21.184,50,21.184z M50,75.551c-14.089,0-25.551-11.462-25.551-25.551S35.911,24.449,50,24.449
		S75.551,35.911,75.551,50S64.089,75.551,50,75.551z"/>
	<path d="M50,39.684c-5.688,0-10.316,4.628-10.316,10.316S44.312,60.316,50,60.316S60.316,55.688,60.316,50S55.688,39.684,50,39.684
		z"/>
</g>
</svg>
