<?xml version="1.0" encoding="utf-8"?>
<!-- Generator: Adobe Illustrator 16.0.0, SVG Export Plug-In . SVG Version: 6.00 Build 0)  -->
<!DOCTYPE svg PUBLIC "-//W3C//DTD SVG 1.1//EN" "http://www.w3.org/Graphics/SVG/1.1/DTD/svg11.dtd">
<svg version="1.1" id="Layer_12" xmlns="http://www.w3.org/2000/svg" xmlns:xlink="http://www.w3.org/1999/xlink" x="0px" y="0px"
	 width="100px" height="100px" viewBox="0 0 100 100" enable-background="new 0 0 100 100" xml:space="preserve">
<path d="M86.156,81.387L59.142,35.368c-0.431-0.735-1.265-1.195-2.174-1.195s-1.743,0.46-2.175,1.197L27.78,81.387
	c-0.306,0.519-0.384,1.12-0.222,1.693c0.173,0.604,0.589,1.104,1.172,1.41c8.588,4.511,17.873,6.797,27.601,6.797h0.003
	c16.476-0.002,28.426-6.546,28.927-6.825c0.563-0.313,0.962-0.814,1.122-1.405C86.536,82.488,86.456,81.898,86.156,81.387z
	 M80.676,80.421c-0.292,1.081-1.002,1.979-1.998,2.534c-0.368,0.207-9.162,5.029-21.189,5.029h-0.002
	c-3.35,0-6.69-0.385-9.926-1.143c-0.686-0.16-1.272-0.592-1.627-1.201c-0.355-0.606-0.446-1.332-0.248-2.005l10.041-40.668
	c0.261-1.005,1.1-1.753,2.126-1.896c1.025-0.145,2.039,0.347,2.564,1.24l19.839,34.989C80.815,78.251,80.965,79.358,80.676,80.421z
	 M34.33,63.607C22.378,60.451,13.542,49.55,13.542,36.622c0-15.388,12.52-27.909,27.908-27.909c15.39,0,27.909,12.521,27.909,27.909
	c0,2.37-0.3,4.672-0.857,6.87l-1.826-3.111c0.747-5.724-0.554-12.021-4.105-17.605C55.285,11.323,41.273,7.15,31.334,13.473
	S19.235,34.257,26.52,45.707c3.113,4.896,7.46,8.456,12.19,10.439L34.33,63.607z"/>
</svg>
