<?xml version="1.0" encoding="utf-8"?>
<!-- Generator: Adobe Illustrator 16.0.0, SVG Export Plug-In . SVG Version: 6.00 Build 0)  -->
<!DOCTYPE svg PUBLIC "-//W3C//DTD SVG 1.1//EN" "http://www.w3.org/Graphics/SVG/1.1/DTD/svg11.dtd">
<svg version="1.1" id="Layer_12" xmlns="http://www.w3.org/2000/svg" xmlns:xlink="http://www.w3.org/1999/xlink" x="0px" y="0px"
	 width="100px" height="100px" viewBox="0 0 100 100" enable-background="new 0 0 100 100" xml:space="preserve">
<path d="M14.876,67.77c0,13.475,10.962,24.438,24.438,24.438c13.475,0,24.437-10.963,24.437-24.438
	c0-13.473-10.962-24.436-24.437-24.436C25.838,43.334,14.876,54.297,14.876,67.77z M30.455,47.5
	c8.703-5.535,20.972-1.883,27.35,8.145c6.377,10.027,4.487,22.689-4.216,28.225c-8.702,5.535-20.972,1.883-27.35-8.145
	C19.862,65.697,21.752,53.035,30.455,47.5z M6.305,46.254L28.311,8.77c0.352-0.602,1.031-0.977,1.771-0.977
	c0.741,0,1.42,0.375,1.771,0.975l13.904,23.686c-0.666,0.385-1.305,0.846-1.861,1.377L32.893,14.422
	c-0.428-0.727-1.252-1.127-2.089-1.008c-0.836,0.115-1.52,0.725-1.731,1.543l-8.137,32.949c-1.403,1.461-2.638,3.082-3.674,4.834
	c-3.504-0.918-6.906-2.234-10.182-3.957c-0.475-0.25-0.814-0.658-0.954-1.148C5.993,47.168,6.058,46.676,6.305,46.254z
	 M66.216,67.328c0,2.834-0.459,5.563-1.298,8.119l4.094,2.143c0.149,0.08,0.313,0.121,0.478,0.121h0.002
	c0.068,0.078,0.146,0.15,0.239,0.207c0.159,0.094,0.337,0.141,0.517,0.141c0.165,0,0.33-0.037,0.479-0.119l22.685-12.303
	c0.326-0.176,0.53-0.518,0.53-0.887V34.818c0-0.008-0.003-0.016-0.003-0.025c-0.001-0.006,0.002-0.014,0.002-0.021
	c-0.002-0.029-0.012-0.055-0.016-0.084c-0.007-0.057-0.015-0.109-0.031-0.164c-0.011-0.037-0.028-0.068-0.043-0.105
	c-0.021-0.047-0.042-0.094-0.07-0.135c-0.021-0.035-0.045-0.064-0.071-0.096c-0.031-0.039-0.064-0.076-0.102-0.111
	c-0.03-0.025-0.062-0.049-0.095-0.074c-0.021-0.016-0.039-0.035-0.062-0.049c-0.022-0.012-0.047-0.018-0.07-0.031
	c-0.02-0.008-0.035-0.023-0.055-0.033l-23.378-11.32c-0.272-0.115-0.581-0.104-0.846,0.029L45.995,34.643
	c-0.339,0.172-0.554,0.518-0.555,0.896c0,0.006,0.002,0.012,0.002,0.018c-0.042,0.111-0.072,0.23-0.071,0.354l0.027,5.842
	C57.268,44.209,66.216,54.742,66.216,67.328z M71.257,48.061L91.924,36.51v27.639L71.257,75.359V48.061z M48.671,35.555
	l20.922-10.945l21.008,10.322L70.236,46.318L48.671,35.555z"/>
</svg>
