<?xml version="1.0" encoding="utf-8"?>
<!-- Generator: Adobe Illustrator 16.0.0, SVG Export Plug-In . SVG Version: 6.00 Build 0)  -->
<!DOCTYPE svg PUBLIC "-//W3C//DTD SVG 1.1//EN" "http://www.w3.org/Graphics/SVG/1.1/DTD/svg11.dtd">
<svg version="1.1" id="Layer_12" xmlns="http://www.w3.org/2000/svg" xmlns:xlink="http://www.w3.org/1999/xlink" x="0px" y="0px"
	 width="100px" height="100px" viewBox="0 0 100 100" enable-background="new 0 0 100 100" xml:space="preserve">
<path d="M79.267,36.62c-6.522,0-11.961,4.694-13.137,10.88H38.129c-0.236-1.244-0.649-2.424-1.205-3.521l14.851-10.536
	c2.391,2.228,5.586,3.604,9.104,3.604c7.377,0,13.379-6.002,13.379-13.38s-6.002-13.38-13.379-13.38S47.5,16.288,47.5,23.666
	c0,2.059,0.481,4.002,1.314,5.745L33.868,40.016c-2.365-2.104-5.469-3.396-8.876-3.396c-7.377,0-13.379,6.002-13.379,13.38
	s6.002,13.38,13.379,13.38c3.119,0,5.985-1.081,8.263-2.878L48.619,72.92c-0.716,1.638-1.119,3.441-1.119,5.34
	c0,7.378,6.002,13.38,13.379,13.38s13.379-6.002,13.379-13.38s-6.002-13.38-13.379-13.38c-3.676,0-7.009,1.491-9.43,3.899
	L36.539,56.727c0.754-1.289,1.302-2.711,1.59-4.227H66.13c1.175,6.186,6.614,10.88,13.137,10.88c7.377,0,13.379-6.002,13.379-13.38
	S86.644,36.62,79.267,36.62z M60.879,15.286c4.621,0,8.379,3.759,8.379,8.38s-3.759,8.38-8.379,8.38s-8.379-3.759-8.379-8.38
	S56.259,15.286,60.879,15.286z M24.992,58.38c-4.621,0-8.379-3.759-8.379-8.38s3.759-8.38,8.379-8.38s8.379,3.759,8.379,8.38
	S29.613,58.38,24.992,58.38z M60.879,69.88c4.621,0,8.379,3.759,8.379,8.38s-3.759,8.38-8.379,8.38S52.5,82.881,52.5,78.26
	S56.259,69.88,60.879,69.88z M79.267,58.38c-4.621,0-8.379-3.759-8.379-8.38s3.759-8.38,8.379-8.38s8.379,3.759,8.379,8.38
	S83.887,58.38,79.267,58.38z"/>
</svg>
