<?xml version="1.0" encoding="utf-8"?>
<!-- Generator: Adobe Illustrator 16.0.0, SVG Export Plug-In . SVG Version: 6.00 Build 0)  -->
<!DOCTYPE svg PUBLIC "-//W3C//DTD SVG 1.1//EN" "http://www.w3.org/Graphics/SVG/1.1/DTD/svg11.dtd">
<svg version="1.1" id="Layer_11" xmlns="http://www.w3.org/2000/svg" xmlns:xlink="http://www.w3.org/1999/xlink" x="0px" y="0px"
	 width="100px" height="100px" viewBox="0 0 100 100" enable-background="new 0 0 100 100" xml:space="preserve">
<path d="M96.384,70.731l-0.065-0.065L52.714,40.838c-0.508-0.483-1.127-0.805-1.795-0.964c0.074-2.67-0.375-4.438-1.381-5.35
	c-0.68-0.615-1.376-0.635-1.684-0.605c-2.565-0.03-4.644-2.127-4.644-4.699c0-2.592,2.108-4.701,4.701-4.701
	c2.592,0,4.701,2.109,4.701,4.701c0,0.543,0.439,0.983,0.983,0.983c0.543,0,0.984-0.44,0.984-0.983c0-3.678-2.992-6.669-6.669-6.669
	c-3.678,0-6.669,2.991-6.669,6.669c0,3.676,2.991,6.668,6.669,6.668c0.041,0,0.082-0.003,0.123-0.008
	c0.03,0.004,0.123,0.027,0.249,0.17c0.252,0.288,0.757,1.209,0.67,3.861c-0.617,0.17-1.191,0.475-1.667,0.927L3.759,70.614
	l-0.141,0.117c-1.13,1.129-1.465,2.813-0.854,4.288s2.038,2.43,3.636,2.43h87.2c1.597,0,3.024-0.954,3.636-2.43
	S97.513,71.86,96.384,70.731z M95.419,74.267c-0.307,0.737-1.02,1.215-1.818,1.215H6.4c-0.798,0-1.512-0.477-1.817-1.215
	c-0.295-0.713-0.148-1.521,0.369-2.085l43.517-29.768l0.14-0.116c0.101-0.1,0.211-0.184,0.328-0.257
	c0.142,0.304,0.433,0.529,0.791,0.564c0.033,0.004,0.065,0.006,0.099,0.006c0.442,0,0.813-0.306,0.931-0.727
	c0.234,0.093,0.452,0.229,0.635,0.413l0.065,0.064l43.591,29.819C95.567,72.745,95.714,73.555,95.419,74.267z"/>
</svg>
