<?xml version="1.0" encoding="utf-8"?>
<!-- Generator: Adobe Illustrator 16.0.0, SVG Export Plug-In . SVG Version: 6.00 Build 0)  -->
<!DOCTYPE svg PUBLIC "-//W3C//DTD SVG 1.1//EN" "http://www.w3.org/Graphics/SVG/1.1/DTD/svg11.dtd">
<svg version="1.1" id="Layer_11" xmlns="http://www.w3.org/2000/svg" xmlns:xlink="http://www.w3.org/1999/xlink" x="0px" y="0px"
	 width="100px" height="100px" viewBox="0 0 100 100" enable-background="new 0 0 100 100" xml:space="preserve">
<path d="M50.209,26.688c-0.463-0.961-1.439-1.632-2.576-1.632c-1.58,0-2.867,1.286-2.867,2.866c0,0.153,0.021,0.301,0.045,0.447
	c-4.076,0.109-8.727-1.574-8.727-1.574l12.508,14.457h2.814l12.51-14.457C63.916,26.796,54.896,25.054,50.209,26.688z
	 M47.633,26.057c1.029,0,1.867,0.837,1.867,1.866s-0.838,1.867-1.867,1.867s-1.867-0.838-1.867-1.867S46.604,26.057,47.633,26.057z
	 M80.738,13.603c0.256-0.295,0.316-0.713,0.152-1.07c-0.162-0.355-0.518-0.584-0.908-0.584H20.018c-0.391,0-0.746,0.229-0.908,0.584
	c-0.164,0.357-0.104,0.775,0.152,1.07L47,45.657v35.117c-2.908,0.246-4.975,0.859-4.975,1.578c0,0.07,0.025,0.135,0.061,0.201
	c-3.607,0.545-5.973,1.453-5.973,2.479c0,1.668,6.217,3.02,13.887,3.02c7.668,0,13.887-1.352,13.887-3.02
	c0-1.057-2.504-1.984-6.289-2.523c0.021-0.051,0.035-0.104,0.035-0.156c0-0.689-1.91-1.279-4.633-1.545V45.659L80.738,13.603z
	 M52.324,43.384h-4.646L22.205,13.948h55.59L52.324,43.384z M42.51,23.156c1.379,0,2.5-1.121,2.5-2.5s-1.121-2.5-2.5-2.5
	s-2.5,1.121-2.5,2.5S41.131,23.156,42.51,23.156z M42.51,19.156c0.826,0,1.5,0.673,1.5,1.5s-0.674,1.5-1.5,1.5
	c-0.828,0-1.5-0.673-1.5-1.5S41.682,19.156,42.51,19.156z M53.799,24.993c1.289,0,2.338-1.049,2.338-2.338s-1.049-2.337-2.338-2.337
	s-2.338,1.048-2.338,2.337S52.51,24.993,53.799,24.993z M53.799,21.318c0.738,0,1.338,0.6,1.338,1.337s-0.6,1.338-1.338,1.338
	c-0.736,0-1.338-0.601-1.338-1.338S53.063,21.318,53.799,21.318z"/>
</svg>
