<?xml version="1.0" encoding="utf-8"?>
<!-- Generator: Adobe Illustrator 16.0.0, SVG Export Plug-In . SVG Version: 6.00 Build 0)  -->
<!DOCTYPE svg PUBLIC "-//W3C//DTD SVG 1.1//EN" "http://www.w3.org/Graphics/SVG/1.1/DTD/svg11.dtd">
<svg version="1.1" id="Layer_11" xmlns="http://www.w3.org/2000/svg" xmlns:xlink="http://www.w3.org/1999/xlink" x="0px" y="0px"
	 width="100px" height="100px" viewBox="0 0 100 100" enable-background="new 0 0 100 100" xml:space="preserve">
<g>
	<path d="M44.167,33.167c-4,2.667-12.783-0.526-12.783-0.526l12.509,14.457h2.814l12.509-14.457
		C59.216,32.641,48.167,30.5,44.167,33.167z"/>
	<path d="M73.242,6.104c-6.606,0-12.011,5.18-12.401,11.689H15.318c-0.392,0-0.747,0.229-0.909,0.584
		c-0.163,0.357-0.104,0.775,0.153,1.07L42.3,51.502v35.117c-2.908,0.246-4.974,0.859-4.974,1.578c0,0.07,0.024,0.135,0.06,0.201
		c-3.607,0.545-5.973,1.453-5.973,2.479c0,1.668,6.217,3.02,13.887,3.02c7.669,0,13.887-1.352,13.887-3.02
		c0-1.057-2.504-1.984-6.289-2.523c0.021-0.051,0.036-0.104,0.036-0.156c0-0.689-1.91-1.279-4.634-1.545V51.504l19.045-22.01
		c1.807,0.975,3.83,1.488,5.897,1.488c6.859,0,12.439-5.58,12.439-12.439S80.102,6.104,73.242,6.104z M47.624,49.229h-4.646
		L17.506,19.793h55.589L47.624,49.229z M73.242,28.982c-1.583,0-3.128-0.375-4.539-1.057l7.335-8.479
		c0.257-0.295,0.316-0.713,0.153-1.07c-0.162-0.355-0.518-0.584-0.909-0.584H62.841c0.387-5.404,4.898-9.689,10.401-9.689
		c5.756,0,10.439,4.684,10.439,10.439S78.998,28.982,73.242,28.982z"/>
</g>
</svg>
