<?xml version="1.0" encoding="utf-8"?>
<!-- Generator: Adobe Illustrator 16.0.0, SVG Export Plug-In . SVG Version: 6.00 Build 0)  -->
<!DOCTYPE svg PUBLIC "-//W3C//DTD SVG 1.1//EN" "http://www.w3.org/Graphics/SVG/1.1/DTD/svg11.dtd">
<svg version="1.1" id="Layer_13" xmlns="http://www.w3.org/2000/svg" xmlns:xlink="http://www.w3.org/1999/xlink" x="0px" y="0px"
	 width="100px" height="100px" viewBox="0 0 100 100" enable-background="new 0 0 100 100" xml:space="preserve">
<path d="M86.761,64.479L35.525,13.244c-2.252-2.252-5.916-2.252-8.168,0L13.249,27.353c-2.213,2.213-2.27,5.738-0.129,8.025
	c0.096,0.104,0.233,0.164,0.375,0.166c0.143,0.002,0.279-0.053,0.38-0.153L27.11,22.154c0.955-0.955,2.51-0.955,3.465,0
	c0.956,0.955,0.956,2.51,0,3.465L17.333,38.862c-0.205,0.205-0.205,0.537,0,0.742l3.713,3.713c0.205,0.205,0.538,0.205,0.743,0
	L35.03,30.074c0.956-0.954,2.51-0.954,3.466,0c0.956,0.956,0.956,2.511,0,3.466L25.253,46.783c-0.205,0.205-0.205,0.537,0,0.742
	l3.805,3.806c0.206,0.204,0.538,0.204,0.743,0l13.242-13.243c0.956-0.955,2.51-0.955,3.465,0c0.956,0.956,0.956,2.511,0,3.466
	L33.267,54.796c-0.205,0.205-0.205,0.537,0,0.742l3.341,3.343c0.205,0.204,0.538,0.204,0.743,0l13.242-13.243
	c0.955-0.955,2.51-0.955,3.465,0c0.956,0.955,0.956,2.51,0,3.466L40.816,62.346c-0.205,0.205-0.205,0.537,0,0.742l3.62,3.619
	c0.205,0.205,0.538,0.205,0.743,0L58.42,53.466c0.956-0.956,2.51-0.956,3.466,0c0.956,0.955,0.956,2.51,0,3.466l-13.242,13.24
	c-0.205,0.206-0.205,0.539,0,0.744l3.341,3.341c0.205,0.205,0.538,0.205,0.743,0L65.97,61.015c0.955-0.955,2.51-0.955,3.465,0
	c0.955,0.955,0.955,2.511,0,3.465L56.193,77.722c-0.205,0.206-0.205,0.538,0,0.743l3.898,3.898c0.205,0.205,0.537,0.205,0.742-0.001
	l13.242-13.241c0.955-0.955,2.51-0.955,3.465,0c0.956,0.955,0.956,2.51,0,3.465L64.299,85.828c-0.205,0.205-0.205,0.538,0,0.742
	l0.186,0.186c2.252,2.252,5.916,2.252,8.168,0l14.108-14.107C89.013,70.396,89.013,66.732,86.761,64.479z"/>
</svg>
