<?xml version="1.0" encoding="utf-8"?>
<!-- Generator: Adobe Illustrator 16.0.0, SVG Export Plug-In . SVG Version: 6.00 Build 0)  -->
<!DOCTYPE svg PUBLIC "-//W3C//DTD SVG 1.1//EN" "http://www.w3.org/Graphics/SVG/1.1/DTD/svg11.dtd">
<svg version="1.1" id="Layer_12" xmlns="http://www.w3.org/2000/svg" xmlns:xlink="http://www.w3.org/1999/xlink" x="0px" y="0px"
	 width="100px" height="100px" viewBox="0 0 100 100" enable-background="new 0 0 100 100" xml:space="preserve">
<g>
	<path d="M78.214,89.079c-0.227-0.795-0.516-1.755-0.854-2.851c-0.339-1.096-0.705-2.341-1.136-3.684
		c-0.432-1.344-0.896-2.8-1.391-4.338c-0.481-1.545-1.044-3.149-1.598-4.822c-0.564-1.667-1.146-3.391-1.737-5.142
		c-0.611-1.743-1.233-3.513-1.854-5.282c-0.519-1.494-1.048-2.979-1.575-4.447h3.495v-2.839h-4.522
		c-0.38-1.041-0.759-2.072-1.13-3.077c-1.215-3.297-2.373-6.362-3.376-8.986c-1.011-2.62-1.854-4.804-2.444-6.332
		c-0.291-0.729-0.492-1.314-0.681-1.709c0.84-1.537,1.318-3.301,1.318-5.174c0-5.177-3.65-9.511-8.513-10.577V7.825h-4.643v11.994
		c-4.859,1.066-8.512,5.4-8.512,10.577c0,2.084,0.603,4.027,1.626,5.682c-0.026,0.011-0.055,0.022-0.075,0.039
		c-0.195,0.393-0.401,1.004-0.705,1.764c-0.59,1.528-1.434,3.711-2.444,6.331c-1.003,2.624-2.161,5.69-3.376,8.986
		c-0.301,0.813-0.604,1.64-0.911,2.477h-4.947v2.839h3.917c-0.602,1.663-1.203,3.352-1.791,5.048
		c-0.621,1.77-1.243,3.54-1.854,5.282c-0.591,1.751-1.173,3.475-1.737,5.143c-0.554,1.672-1.116,3.277-1.598,4.821
		c-0.495,1.539-0.959,2.994-1.391,4.338c-0.431,1.343-0.797,2.588-1.136,3.684c-0.338,1.097-0.627,2.056-0.854,2.85
		c-0.455,1.588-0.717,2.496-0.717,2.496s0.502-0.8,1.378-2.2c0.438-0.7,0.961-1.557,1.548-2.541c0.589-0.985,1.271-2.089,1.98-3.308
		s1.48-2.539,2.296-3.935c0.825-1.391,1.642-2.883,2.517-4.412c0.862-1.534,1.756-3.119,2.662-4.73
		c0.885-1.62,1.786-3.266,2.687-4.912c1.416-2.563,2.796-5.139,4.111-7.623h8.358v5.158h2.58v-5.158h8.884
		c1.22,2.298,2.492,4.666,3.793,7.023c0.9,1.646,1.802,3.291,2.687,4.91c0.906,1.612,1.8,3.197,2.662,4.731
		c0.875,1.529,1.691,3.021,2.517,4.412c0.815,1.396,1.586,2.716,2.296,3.934c0.71,1.22,1.392,2.322,1.98,3.309
		c0.588,0.985,1.109,1.84,1.548,2.54c0.876,1.4,1.378,2.201,1.378,2.201S78.669,90.667,78.214,89.079z M49.896,22.657
		c4.266,0,7.738,3.472,7.738,7.739c0,4.267-3.473,7.738-7.738,7.738c-4.268,0-7.739-3.472-7.739-7.738
		C42.157,26.129,45.629,22.657,49.896,22.657z M51.187,55.675v-3.869h-2.58v3.869h-6.861c1.482-2.819,2.852-5.468,4.027-7.761
		c1.271-2.503,2.331-4.59,3.072-6.05c0.121-0.245,0.233-0.464,0.341-0.67c0.234,0.016,0.471,0.036,0.711,0.036
		c0.408,0,0.81-0.027,1.206-0.071c0.018,0.036,0.033,0.067,0.053,0.104c0.741,1.459,1.802,3.546,3.072,6.05
		c1.26,2.457,2.735,5.313,4.343,8.361H51.187z"/>
	<path d="M50,34.319c2.305,0,4.182-1.875,4.182-4.181S52.305,25.957,50,25.957s-4.182,1.876-4.182,4.182S47.695,34.319,50,34.319z
		 M50,26.73c1.879,0,3.407,1.529,3.407,3.408S51.879,33.546,50,33.546s-3.407-1.528-3.407-3.407S48.121,26.73,50,26.73z"/>
</g>
</svg>
