<?xml version="1.0" encoding="utf-8"?>
<!-- Generator: Adobe Illustrator 16.0.0, SVG Export Plug-In . SVG Version: 6.00 Build 0)  -->
<!DOCTYPE svg PUBLIC "-//W3C//DTD SVG 1.1//EN" "http://www.w3.org/Graphics/SVG/1.1/DTD/svg11.dtd">
<svg version="1.1" id="Layer_12" xmlns="http://www.w3.org/2000/svg" xmlns:xlink="http://www.w3.org/1999/xlink" x="0px" y="0px"
	 width="100px" height="100px" viewBox="0 0 100 100" enable-background="new 0 0 100 100" xml:space="preserve">
<g>
	<path d="M84.276,48.076c-0.007-0.12-0.019-0.238-0.027-0.358c0-0.007-0.001-0.013-0.001-0.019c0-0.007-0.001-0.013-0.002-0.02
		c-0.035-0.523-0.08-1.044-0.138-1.561c-0.01-0.092-0.024-0.184-0.035-0.275c-0.069-0.572-0.152-1.139-0.25-1.701
		c-0.007-0.04-0.014-0.08-0.021-0.119c-0.108-0.615-0.233-1.225-0.374-1.828c0-0.003-0.001-0.006-0.001-0.008
		s-0.001-0.004-0.001-0.005c-0.521-2.229-1.258-4.373-2.191-6.411c-0.001-0.002-0.002-0.004-0.002-0.006
		c-0.93-2.032-2.052-3.958-3.343-5.755c-0.009-0.012-0.018-0.024-0.026-0.036c-0.862-1.197-1.799-2.336-2.805-3.411
		c0,0,0-0.001,0-0.001c-0.001-0.001-0.002-0.001-0.002-0.002c-2.674-2.856-5.829-5.254-9.334-7.068c0,0,0,0,0,0
		s-0.001,0-0.002-0.001c-0.003-0.001-0.006-0.003-0.009-0.004c-0.582-0.302-1.174-0.586-1.774-0.854c-0.001,0-0.002,0-0.003-0.001
		c-0.005-0.002-0.01-0.005-0.015-0.007c-0.003-0.001-0.006-0.002-0.008-0.004c-0.428-0.189-0.86-0.371-1.297-0.544
		c-0.042-0.018-0.085-0.034-0.128-0.051c-0.416-0.163-0.835-0.318-1.259-0.466c-0.068-0.023-0.136-0.046-0.204-0.068
		c-0.412-0.141-0.825-0.274-1.243-0.398c-0.073-0.022-0.147-0.042-0.22-0.063c-0.426-0.123-0.853-0.242-1.285-0.35
		c-0.001,0-0.002-0.001-0.004-0.001c-0.071-0.018-0.143-0.032-0.214-0.05c-0.007-0.002-0.015-0.003-0.022-0.005
		c-1.777-0.428-3.606-0.715-5.478-0.854c-0.005,0-0.01-0.001-0.016-0.001c-0.192-0.014-0.382-0.032-0.575-0.044
		c-0.002,0-0.005,0-0.007,0c-0.647-0.037-1.299-0.06-1.956-0.06c-18.931,0-34.333,15.401-34.333,34.333S31.069,84.333,50,84.333
		c0.613,0,1.223-0.018,1.828-0.05c0.002,0,0.004,0,0.007,0c0.158-0.009,0.313-0.025,0.471-0.036
		c0.007-0.001,0.015-0.001,0.022-0.002c0.446-0.03,0.891-0.063,1.332-0.109c0,0,0,0,0,0c0.006-0.001,0.013-0.002,0.019-0.003
		c0.602-0.063,1.198-0.146,1.79-0.24c0.002,0,0.004-0.001,0.007-0.001c0.133-0.021,0.264-0.048,0.397-0.071
		c0.002,0,0.004-0.001,0.006-0.001c0.542-0.094,1.08-0.2,1.613-0.319c0.03-0.007,0.059-0.014,0.088-0.021h0.001
		c0.492-0.112,0.981-0.232,1.465-0.364c0.003-0.002,0.006-0.002,0.01-0.003c0.068-0.02,0.137-0.039,0.205-0.059
		c0.002-0.001,0.003-0.001,0.005-0.002c3.826-1.074,7.382-2.794,10.544-5.038c0.002-0.001,0.004-0.002,0.005-0.003
		c0-0.001,0.001-0.001,0.002-0.002c0.001-0.001,0.003-0.002,0.004-0.003c0.945-0.671,1.854-1.387,2.725-2.147
		c0.004-0.004,0.009-0.008,0.013-0.012c0.43-0.376,0.85-0.761,1.261-1.157c0.007-0.008,0.015-0.015,0.022-0.021
		c0.413-0.399,0.816-0.809,1.208-1.228c0.001-0.001,0.002-0.002,0.003-0.003c0,0,0-0.001,0.001-0.001
		c0-0.001,0.001-0.001,0.001-0.002c1.086-1.16,2.091-2.396,3.009-3.698c0.002-0.003,0.004-0.006,0.006-0.009
		c1.588-2.253,2.911-4.703,3.925-7.309c0-0.002,0.001-0.004,0.002-0.006c0.001-0.003,0.002-0.005,0.003-0.007
		c0.005-0.013,0.009-0.025,0.014-0.037c0.184-0.475,0.356-0.953,0.52-1.437c0.002-0.006,0.004-0.011,0.006-0.017
		c0.001-0.006,0.003-0.011,0.005-0.016c0.002-0.006,0.003-0.011,0.005-0.017c0.001-0.003,0.002-0.007,0.003-0.01
		s0.002-0.007,0.003-0.01c0.164-0.49,0.317-0.985,0.459-1.485c0.002-0.008,0.004-0.015,0.006-0.021c0-0.001,0-0.002,0-0.002
		c0-0.001,0-0.002,0-0.002c0.144-0.506,0.275-1.017,0.396-1.531c0-0.001,0-0.001,0-0.002c0-0.003,0.001-0.006,0.002-0.008
		s0.001-0.005,0.001-0.008c0.141-0.604,0.266-1.213,0.374-1.828c0.007-0.039,0.015-0.079,0.021-0.119
		c0.097-0.563,0.18-1.129,0.25-1.701c0.011-0.092,0.025-0.184,0.035-0.275c0.059-0.523,0.104-1.051,0.14-1.58
		c0.008-0.126,0.021-0.251,0.028-0.377c0.036-0.637,0.057-1.278,0.057-1.924S84.312,48.713,84.276,48.076z M80.272,51.839
		c-0.007,0.112-0.017,0.225-0.025,0.337c-0.004,0.051-0.008,0.101-0.012,0.151c-0.006,0.083-0.018,0.165-0.025,0.248
		c-0.033,0.389-0.068,0.777-0.116,1.162c-0.018,0.142-0.035,0.284-0.054,0.426c-0.172,1.239-0.415,2.457-0.731,3.645
		c0,0.001,0,0.001,0,0.002c0,0.001,0,0.002,0,0.003h-5.714v7.813h2.394c-0.293,0.487-0.609,0.959-0.93,1.426
		c-0.054,0.08-0.103,0.163-0.158,0.242c-0.03,0.043-0.062,0.086-0.092,0.129c-0.014,0.021-0.028,0.04-0.042,0.06
		c-0.376,0.529-0.765,1.049-1.172,1.553v-3.409h-7.813v7.813h3.452c-0.516,0.424-1.05,0.826-1.593,1.215
		c-0.103,0.074-0.205,0.147-0.308,0.219c-0.354,0.248-0.722,0.477-1.087,0.711c-0.208,0.133-0.408,0.278-0.62,0.406h0v-2.551h-7.813
		v5.87c-1.188,0.317-2.406,0.56-3.646,0.732c-0.042,0.005-0.083,0.01-0.125,0.016c-0.103,0.013-0.206,0.026-0.309,0.039
		c-0.466,0.058-0.935,0.104-1.407,0.14c-0.162,0.013-0.324,0.027-0.488,0.037c-0.609,0.037,0.765,0.093-1.839,0.062
		s-7.313-0.899-7.313-0.899l-0.5-0.126c-2.78-0.741-5.405-1.866-7.813-3.319v-0.021c-8.924-5.297-14.921-15.026-14.921-26.136
		c0-16.749,13.626-30.375,30.375-30.375v0.216c0.058-0.001,0.114-0.006,0.172-0.006v6.896h7.813v-5.87
		c0.66,0.176,1.308,0.378,1.95,0.596c0.075,0.025,0.151,0.05,0.226,0.077c0.649,0.227,1.29,0.471,1.919,0.74
		c0.003,0.001,0.007,0.003,0.011,0.005c0.587,0.251,1.161,0.526,1.728,0.813c0.04,0.021,0.078,0.04,0.118,0.061
		c0.092,0.047,0.184,0.093,0.275,0.141c0.57,0.299,1.132,0.608,1.68,0.942v2.496h3.514c1.6,1.314,3.059,2.793,4.361,4.403v3.409
		h2.395c0,0.001,0.001,0.002,0.001,0.002c0.146,0.242,0.274,0.496,0.413,0.742c0.176,0.314,0.359,0.625,0.526,0.945
		c0.054,0.102,0.106,0.205,0.159,0.309c0.574,1.137,1.075,2.315,1.505,3.528c0.016,0.046,0.037,0.091,0.053,0.137
		c0.014,0.042,0.028,0.083,0.042,0.125c0.011,0.032,0.022,0.064,0.033,0.097c0.119,0.352,0.218,0.711,0.326,1.066
		c0.085,0.284,0.183,0.563,0.26,0.85c0.001,0.004,0.002,0.008,0.003,0.012h-5.714V50h6.739
		C80.333,50.618,80.309,51.23,80.272,51.839z"/>
	<rect x="57.813" y="26.563" width="7.813" height="7.813"/>
	<rect x="50" y="34.375" width="7.813" height="7.813"/>
	<rect x="65.781" y="34.375" width="7.813" height="7.813"/>
	<rect x="57.813" y="42.188" width="7.813" height="7.813"/>
	<rect x="65.625" y="50" width="7.813" height="7.813"/>
	<rect x="57.813" y="57.813" width="7.813" height="7.813"/>
	<rect x="50" y="50" width="7.813" height="7.813"/>
	<rect x="50" y="65.625" width="7.813" height="7.813"/>
</g>
</svg>
