<?xml version="1.0" encoding="utf-8"?>
<!-- Generator: Adobe Illustrator 16.0.0, SVG Export Plug-In . SVG Version: 6.00 Build 0)  -->
<!DOCTYPE svg PUBLIC "-//W3C//DTD SVG 1.1//EN" "http://www.w3.org/Graphics/SVG/1.1/DTD/svg11.dtd">
<svg version="1.1" id="Layer_12" xmlns="http://www.w3.org/2000/svg" xmlns:xlink="http://www.w3.org/1999/xlink" x="0px" y="0px"
	 width="100px" height="100px" viewBox="0 0 100 100" enable-background="new 0 0 100 100" xml:space="preserve">
<path d="M57.021,31.433h-7.418v-3.71h0.357c0.59,0,1.068-0.479,1.068-1.069s-0.479-1.07-1.068-1.07h-25.68
	c-0.59,0-1.07,0.479-1.07,1.07s0.48,1.069,1.07,1.069h1.07v3.71h-6.563c-3.15,0-5.705,2.555-5.705,5.706v52.783
	c0,3.151,2.555,5.706,5.705,5.706h38.232c3.15,0,5.707-2.555,5.707-5.706V37.139C62.729,33.987,60.172,31.433,57.021,31.433z
	 M55.023,81.647H20.502v-31.67h34.521V81.647z M55.168,46.554H20.645V43.13h34.523V46.554z M57.275,26.369l-0.02-14.994
	c-0.004-3.853,3.115-6.979,6.967-6.984l15.691-0.019c3.852-0.005,6.979,3.114,6.984,6.966l0.018,14.996l-12.59,0.014l0.041,34.447
	L69.908,60.8l-0.041-34.446L57.275,26.369z M74.742,62.12l0.352,17.79h-0.6l0,0c-0.074-0.119-0.221-0.087-0.283,0.001l-0.564,0.001
	c-0.027-0.162-0.047-0.324-0.072-0.484c-0.09-0.566-0.066-1.113-0.322-1.637c-0.053-0.108-0.232-0.107-0.285,0.001
	c-0.189,0.387-0.4,0.754-0.52,1.17c-0.066,0.225-0.104,0.46-0.154,0.688c-0.014,0.058-0.053,0.155-0.105,0.264l-0.691,0.001
	c-0.127-0.545-0.15-1.112-0.33-1.647c-0.09-0.273-0.277-0.533-0.582-0.382c-0.541,0.269-0.512,1.368-0.484,2.031l-0.873,0.001
	l0.145-17.79L74.742,62.12z"/>
</svg>
