<?xml version="1.0" encoding="utf-8"?>
<!-- Generator: Adobe Illustrator 16.0.0, SVG Export Plug-In . SVG Version: 6.00 Build 0)  -->
<!DOCTYPE svg PUBLIC "-//W3C//DTD SVG 1.1//EN" "http://www.w3.org/Graphics/SVG/1.1/DTD/svg11.dtd">
<svg version="1.1" id="Layer_11" xmlns="http://www.w3.org/2000/svg" xmlns:xlink="http://www.w3.org/1999/xlink" x="0px" y="0px"
	 width="100px" height="100px" viewBox="0 0 100 100" enable-background="new 0 0 100 100" xml:space="preserve">
<path d="M82.197,54.287c-1.591-0.316-3.276,0.451-5.044-0.201c0.188-0.877,0.291-1.785,0.291-2.719V36.24
	c0-7.16-5.805-12.965-12.965-12.965c0,0-6.915,4.43-14.694,4.537c-7.779,0.109-14.262-4.537-14.262-4.537
	c-7.161,0-12.965,5.805-12.965,12.965v15.127c0,0.889,0.091,1.758,0.262,2.6c-2.002,0.76-3.899,0.088-5.671,0.455
	c-9.563,1.973-15.551-6.137-15.551-0.17S23.267,76.725,50,76.725s48.404-14.941,48.404-22.473S92.142,56.266,82.197,54.287z
	 M48.918,63.926c-13.798,0-24.983-3.529-24.983-7.883c0-0.982,0.574-1.922,1.614-2.789c3.571,2.977,12.685,5.094,23.369,5.094
	s20.122-2.117,23.693-5.094c1.04,0.867,1.29,1.807,1.29,2.789C73.902,60.396,62.717,63.926,48.918,63.926z"/>
</svg>
