<?xml version="1.0" encoding="utf-8"?>
<!-- Generator: Adobe Illustrator 16.0.0, SVG Export Plug-In . SVG Version: 6.00 Build 0)  -->
<!DOCTYPE svg PUBLIC "-//W3C//DTD SVG 1.1//EN" "http://www.w3.org/Graphics/SVG/1.1/DTD/svg11.dtd">
<svg version="1.1" id="Layer_12" xmlns="http://www.w3.org/2000/svg" xmlns:xlink="http://www.w3.org/1999/xlink" x="0px" y="0px"
	 width="100px" height="100px" viewBox="0 0 100 100" enable-background="new 0 0 100 100" xml:space="preserve">
<path d="M7.344,55.864l0.118,25.351c0.001,0.326,0.181,0.624,0.467,0.779l20.249,10.602c0.132,0.071,0.276,0.106,0.421,0.106
	c0.001,0,0.001,0,0.002,0c0.061,0.069,0.129,0.133,0.211,0.182c0.14,0.084,0.297,0.126,0.455,0.126c0.146,0,0.291-0.035,0.423-0.106
	l19.992-10.842c0.183-0.099,0.315-0.261,0.392-0.446c0.081,0.156,0.203,0.292,0.364,0.379l20.248,10.602
	c0.132,0.071,0.277,0.106,0.422,0.106c0.001,0,0.001,0,0.002,0c0.061,0.069,0.129,0.133,0.21,0.182
	c0.141,0.084,0.298,0.126,0.456,0.126c0.146,0,0.29-0.035,0.422-0.106L92.19,82.062c0.287-0.155,0.466-0.456,0.466-0.783V54.902
	c0-0.008-0.003-0.016-0.003-0.023c0-0.006,0.002-0.013,0.002-0.02c-0.001-0.024-0.01-0.049-0.014-0.073
	c-0.007-0.049-0.014-0.097-0.027-0.145c-0.011-0.031-0.024-0.062-0.039-0.093c-0.018-0.042-0.037-0.082-0.062-0.12
	c-0.019-0.03-0.04-0.058-0.062-0.084c-0.028-0.034-0.058-0.066-0.091-0.097c-0.026-0.023-0.054-0.045-0.083-0.066
	c-0.02-0.012-0.035-0.03-0.056-0.043c-0.02-0.011-0.041-0.017-0.062-0.025c-0.018-0.01-0.03-0.023-0.048-0.03l-20.603-9.978
	c-0.082-0.034-0.17-0.038-0.257-0.047V17.856c0-0.007-0.002-0.015-0.002-0.022c-0.001-0.007,0.001-0.013,0.001-0.02
	c-0.001-0.025-0.011-0.049-0.014-0.073c-0.007-0.049-0.014-0.098-0.028-0.145c-0.01-0.032-0.024-0.063-0.038-0.093
	c-0.019-0.042-0.036-0.083-0.061-0.12c-0.02-0.03-0.041-0.057-0.063-0.084c-0.028-0.034-0.057-0.067-0.091-0.097
	c-0.025-0.023-0.054-0.045-0.083-0.065c-0.02-0.014-0.035-0.032-0.055-0.045c-0.021-0.011-0.042-0.016-0.063-0.026
	c-0.018-0.009-0.031-0.021-0.048-0.027L50.108,7.061c-0.24-0.102-0.512-0.093-0.746,0.025L28.999,17.701
	c-0.299,0.151-0.487,0.456-0.489,0.79c0,0.006,0.002,0.011,0.002,0.016c-0.037,0.099-0.063,0.202-0.063,0.312l0.118,25.233
	c-0.106,0.011-0.213,0.03-0.311,0.079L7.893,54.746c-0.298,0.151-0.487,0.456-0.489,0.791c0,0.005,0.003,0.009,0.003,0.015
	C7.369,55.65,7.343,55.755,7.344,55.864z M68.311,17.955L50.362,27.99l-19.005-9.485l18.438-9.646L68.311,17.955z M69.476,43.999
	l-18.214,9.586V29.526l18.214-10.18V43.999z M72.664,66.571l18.214-10.179v24.355L72.664,90.63V66.571z M52.76,55.55l18.438-9.646
	l18.515,9.099L71.765,65.036L52.76,55.55z M30.155,66.571L48.37,56.393v24.355L30.155,90.63V66.571z M10.252,55.55l18.438-9.646
	l18.515,9.099L29.256,65.036L10.252,55.55z"/>
</svg>
