<?xml version="1.0" encoding="utf-8"?>
<!-- Generator: Adobe Illustrator 16.0.0, SVG Export Plug-In . SVG Version: 6.00 Build 0)  -->
<!DOCTYPE svg PUBLIC "-//W3C//DTD SVG 1.1//EN" "http://www.w3.org/Graphics/SVG/1.1/DTD/svg11.dtd">
<svg version="1.1" id="Layer_12" xmlns="http://www.w3.org/2000/svg" xmlns:xlink="http://www.w3.org/1999/xlink" x="0px" y="0px"
	 width="100px" height="100px" viewBox="0 0 100 100" enable-background="new 0 0 100 100" xml:space="preserve">
<path d="M84.117,83.336L59.432,41.284c-0.394-0.673-1.155-1.092-1.986-1.092s-1.594,0.419-1.988,1.094l-24.683,42.05
	c-0.28,0.474-0.352,1.023-0.202,1.547c0.156,0.552,0.538,1.009,1.07,1.29c7.848,4.12,16.333,6.209,25.221,6.209h0.004
	c15.055,0,25.974-5.981,26.434-6.236c0.514-0.288,0.878-0.744,1.024-1.285C84.465,84.344,84.392,83.802,84.117,83.336z
	 M79.11,82.453c-0.269,0.987-0.917,1.809-1.827,2.315c-0.336,0.189-8.372,4.597-19.361,4.597H57.92
	c-3.061,0-6.114-0.353-9.071-1.045c-0.626-0.146-1.162-0.541-1.485-1.098c-0.325-0.554-0.407-1.217-0.228-1.834l9.176-37.16
	c0.238-0.918,1.005-1.602,1.943-1.731c0.938-0.133,1.862,0.315,2.342,1.131l18.13,31.973C79.236,80.47,79.373,81.481,79.11,82.453z
	 M42.62,57.126v-22.82l21.568-12.053v20.725l2.105,3.586V20.487c0-0.01-0.002-0.019-0.002-0.027
	c-0.001-0.009,0.001-0.016,0.001-0.024c-0.001-0.029-0.013-0.057-0.016-0.087c-0.01-0.058-0.016-0.114-0.033-0.17
	c-0.012-0.039-0.029-0.074-0.046-0.11c-0.021-0.05-0.044-0.098-0.072-0.144c-0.021-0.034-0.048-0.066-0.074-0.098
	c-0.033-0.041-0.067-0.08-0.106-0.115c-0.03-0.028-0.064-0.053-0.1-0.078c-0.021-0.016-0.041-0.037-0.064-0.052
	c-0.022-0.014-0.049-0.019-0.073-0.03c-0.021-0.012-0.036-0.026-0.057-0.035L41.254,7.701c-0.284-0.119-0.606-0.109-0.883,0.029
	L16.258,20.303c-0.354,0.177-0.578,0.54-0.581,0.935c0,0.007,0.003,0.013,0.003,0.019c-0.043,0.117-0.074,0.241-0.074,0.37
	l0.14,30.021c0.004,0.386,0.216,0.739,0.555,0.922l22.18,11.613L42.62,57.126z M40.883,9.829l21.926,10.775L41.556,32.486
	L19.049,21.254L40.883,9.829z"/>
</svg>
