<?xml version="1.0" encoding="utf-8"?>
<!-- Generator: Adobe Illustrator 16.0.0, SVG Export Plug-In . SVG Version: 6.00 Build 0)  -->
<!DOCTYPE svg PUBLIC "-//W3C//DTD SVG 1.1//EN" "http://www.w3.org/Graphics/SVG/1.1/DTD/svg11.dtd">
<svg version="1.1" id="Layer_11" xmlns="http://www.w3.org/2000/svg" xmlns:xlink="http://www.w3.org/1999/xlink" x="0px" y="0px"
	 width="100px" height="100px" viewBox="0 0 100 100" enable-background="new 0 0 100 100" xml:space="preserve">
<path d="M85.85,86.479c0,1.725-1.398,3.123-3.121,3.123l-12.395,3.338h-47.73l-11.146-3.338c-1.724,0-3.121-1.398-3.121-3.123
	c0-1.723,1.397-3.121,3.121-3.121h71.271C84.451,83.357,85.85,84.756,85.85,86.479z M91.663,52.641
	c0,9.547-5.265,17.025-11.985,17.025c-0.533,0-1.057-0.051-1.568-0.143c-3.053,7.256-10.228,12.352-18.594,12.352H33.08
	c-11.135,0-20.162-9.025-20.162-20.162V37.07c0-1.066,0.085-2.113,0.244-3.135h66.271c0.086,0.553,0.146,1.115,0.187,1.682
	c0.02,0,0.038-0.002,0.058-0.002C86.398,35.615,91.663,43.094,91.663,52.641z M34.05,75.436l-0.162-2.01
	c-4.026,0.328-7.119-0.768-9.454-3.34c-7.585-8.354-3.959-29.207-3.922-29.416l-1.985-0.355c-0.16,0.895-3.836,22.037,4.412,31.125
	c2.446,2.697,5.683,4.059,9.634,4.059C33.054,75.498,33.547,75.477,34.05,75.436z M87.631,52.641c0-7.043-3.643-12.994-7.953-12.994
	v22.066c0,1.332-0.133,2.631-0.378,3.889c0.126,0.01,0.251,0.033,0.378,0.033C83.988,65.635,87.631,59.684,87.631,52.641z
	 M42.357,26.059c0.081,0.256,0.138,0.502,0.235,0.727c0.181,0.453,0.387,0.84,0.609,1.156c0.21,0.32,0.446,0.566,0.634,0.76
	c0.387,0.383,0.669,0.529,0.669,0.529s-0.04-0.313-0.066-0.813c-0.021-0.502-0.023-1.191,0.068-1.936
	c0.044-0.371,0.123-0.758,0.219-1.145c0.11-0.389,0.235-0.775,0.404-1.16c0.165-0.385,0.357-0.766,0.588-1.145l0.172-0.283
	l0.143-0.252l0.097-0.184c0.129-0.262,0.254-0.443,0.396-0.838c0.281-0.732,0.424-1.359,0.495-2.006
	c0.082-0.643,0.069-1.268,0.016-1.855c-0.056-0.59-0.171-1.141-0.309-1.65c-0.145-0.508-0.32-0.971-0.504-1.385
	c-0.194-0.412-0.39-0.779-0.587-1.09c-0.194-0.314-0.393-0.572-0.558-0.779c-0.156-0.211-0.316-0.361-0.411-0.467
	c-0.102-0.104-0.163-0.152-0.163-0.152s-0.03,0.314-0.062,0.824c-0.031,0.492-0.077,1.195-0.131,2.039
	c-0.056,0.813-0.126,1.727-0.257,2.637c-0.065,0.455-0.151,0.91-0.251,1.35c-0.106,0.434-0.236,0.895-0.361,1.199
	c-0.018,0.143-0.18,0.439-0.291,0.68l-0.089,0.188l-0.021,0.049l-0.011,0.023l-0.005,0.012c-0.012,0.021,0.092-0.17,0.047-0.086
	l-0.004,0.008l-0.053,0.113l-0.209,0.447c-0.15,0.291-0.247,0.609-0.341,0.92c-0.106,0.305-0.164,0.625-0.214,0.938
	c-0.107,0.625-0.101,1.244-0.046,1.811C42.25,25.527,42.295,25.801,42.357,26.059z M50.143,21.027
	c0.081,0.256,0.138,0.504,0.235,0.727c0.181,0.453,0.388,0.842,0.609,1.156c0.21,0.322,0.446,0.566,0.635,0.76
	c0.386,0.383,0.669,0.529,0.669,0.529s-0.041-0.313-0.067-0.813c-0.021-0.502-0.023-1.189,0.068-1.934
	c0.044-0.373,0.123-0.76,0.219-1.146c0.11-0.387,0.236-0.775,0.404-1.16c0.166-0.385,0.357-0.766,0.589-1.143l0.171-0.285
	l0.143-0.252l0.097-0.184c0.13-0.26,0.254-0.443,0.396-0.838c0.281-0.732,0.424-1.359,0.496-2.006
	c0.082-0.641,0.068-1.268,0.015-1.855c-0.056-0.588-0.171-1.141-0.309-1.65c-0.145-0.508-0.32-0.971-0.504-1.385
	c-0.194-0.412-0.39-0.777-0.587-1.09c-0.194-0.313-0.393-0.57-0.558-0.779c-0.156-0.211-0.316-0.361-0.411-0.465
	c-0.101-0.104-0.162-0.154-0.162-0.154s-0.03,0.314-0.063,0.826c-0.031,0.49-0.077,1.193-0.131,2.037
	c-0.055,0.813-0.126,1.727-0.257,2.637c-0.065,0.455-0.151,0.91-0.251,1.35c-0.106,0.436-0.236,0.895-0.361,1.199
	c-0.017,0.143-0.18,0.441-0.291,0.68l-0.089,0.188l-0.021,0.049l-0.011,0.023l-0.005,0.012c-0.012,0.021,0.092-0.17,0.047-0.084
	l-0.004,0.006l-0.053,0.113l-0.209,0.447c-0.15,0.291-0.246,0.609-0.341,0.92c-0.106,0.305-0.164,0.627-0.214,0.939
	c-0.107,0.623-0.101,1.242-0.046,1.811C50.035,20.496,50.08,20.77,50.143,21.027z"/>
</svg>
