<?xml version="1.0" encoding="utf-8"?>
<!-- Generator: Adobe Illustrator 16.0.0, SVG Export Plug-In . SVG Version: 6.00 Build 0)  -->
<!DOCTYPE svg PUBLIC "-//W3C//DTD SVG 1.1//EN" "http://www.w3.org/Graphics/SVG/1.1/DTD/svg11.dtd">
<svg version="1.1" id="Layer_13" xmlns="http://www.w3.org/2000/svg" xmlns:xlink="http://www.w3.org/1999/xlink" x="0px" y="0px"
	 width="100px" height="100px" viewBox="0 0 100 100" enable-background="new 0 0 100 100" xml:space="preserve">
<path d="M82.313,28.547l-32.074-11.74c-0.133-0.049-0.283-0.049-0.42,0L17.688,28.518c-0.242,0.088-0.402,0.32-0.402,0.576
	l0.09,40.484c0,0.25,0.152,0.475,0.385,0.566l31.047,12.4v0.072c0,0.203,0.102,0.393,0.27,0.508c0.168,0.111,0.379,0.135,0.57,0.061
	l0.385-0.154l0.385,0.154c0.072,0.029,0.15,0.045,0.227,0.045c0.121,0,0.24-0.037,0.344-0.105c0.168-0.115,0.27-0.305,0.27-0.508
	v-0.072l31.047-12.4c0.232-0.092,0.385-0.316,0.385-0.568l0.027-40.453C82.715,28.865,82.555,28.637,82.313,28.547z M48.807,79.904
	L19.824,68.332V31.783l28.982,11.572V79.904z M50.031,41.209L21.555,29.836l28.48-10.498L78.77,29.732L50.031,41.209z
	 M80.238,68.332L51.256,79.904V43.355l28.982-11.572V68.332z M31.25,54.791c0-1.693,1.35-2.529,3.016-1.867
	c1.665,0.663,3.016,2.573,3.016,4.268c-0.001,1.693-1.351,2.529-3.017,1.867C32.599,58.396,31.249,56.484,31.25,54.791z
	 M22.77,42.145c0-1.693,1.351-2.529,3.017-1.866c1.666,0.662,3.016,2.572,3.016,4.267s-1.351,2.529-3.017,1.867
	C24.119,45.749,22.77,43.839,22.77,42.145z M39.731,48.894c0-1.694,1.351-2.53,3.017-1.867s3.016,2.573,3.016,4.267
	c0,1.695-1.352,2.53-3.017,1.867C41.081,52.498,39.731,50.588,39.731,48.894z M22.767,59.873c0.001-1.693,1.351-2.529,3.017-1.867
	c1.666,0.664,3.016,2.573,3.016,4.268s-1.351,2.53-3.017,1.867C24.116,63.479,22.767,61.567,22.767,59.873z M39.729,66.623
	c0.001-1.695,1.351-2.529,3.017-1.867s3.016,2.572,3.016,4.268c0,1.693-1.351,2.529-3.017,1.866
	C41.078,70.228,39.729,68.316,39.729,66.623z M44.582,29.481c-0.766,1.228-3.209,2.087-5.462,1.917
	c-2.253-0.169-3.46-1.301-2.695-2.528s3.207-2.085,5.461-1.916C44.137,27.122,45.345,28.254,44.582,29.481z M60.7,30.691
	c-0.763,1.229-3.208,2.086-5.46,1.917c-2.254-0.169-3.46-1.302-2.696-2.528c0.763-1.229,3.209-2.086,5.462-1.918
	C60.257,28.333,61.465,29.465,60.7,30.691z M63.812,59.098c-1.041-1.278-0.764-3.705,0.618-5.42c1.381-1.716,3.344-2.07,4.382-0.792
	c1.04,1.276,0.763,3.704-0.617,5.419C66.813,60.021,64.85,60.375,63.812,59.098z"/>
</svg>
