<?xml version="1.0" encoding="utf-8"?>
<!-- Generator: Adobe Illustrator 16.0.0, SVG Export Plug-In . SVG Version: 6.00 Build 0)  -->
<!DOCTYPE svg PUBLIC "-//W3C//DTD SVG 1.1//EN" "http://www.w3.org/Graphics/SVG/1.1/DTD/svg11.dtd">
<svg version="1.1" id="Layer_11" xmlns="http://www.w3.org/2000/svg" xmlns:xlink="http://www.w3.org/1999/xlink" x="0px" y="0px"
	 width="100px" height="100px" viewBox="0 0 100 100" enable-background="new 0 0 100 100" xml:space="preserve">
<g>
	<polygon points="53.128,14.874 76.679,10.949 76.099,7.46 50.12,11.79 45.465,35.994 48.938,36.662 	"/>
	<path d="M23.321,46.941h4.328l1.689,17.396c1.445-0.471,3.145-0.834,4.96-0.834c1.414,0,2.782,0.22,4.062,0.654
		c4.426,1.5,7.738,5.47,9.848,11.799c1.619,4.858,3.748,7.321,6.329,7.321c3.473-0.048,7.586-4.341,10.105-8.607L67,46.941h4.082
		v-8.255H23.321V46.941z"/>
	<path d="M54.595,86.792l-0.112,0.003c-4.226,0-7.458-3.272-9.608-9.726c-1.745-5.231-4.315-8.454-7.644-9.583
		c-0.906-0.307-1.886-0.463-2.912-0.463c-1.72,0-3.341,0.43-4.629,0.917l2.283,23.492c0.036,0.623,0.553,1.107,1.177,1.107h28.892
		c0.629,0,1.147-0.494,1.177-1.122l0.851-9.999C61.376,84.419,58.062,86.744,54.595,86.792z"/>
</g>
</svg>
