<?xml version="1.0" encoding="utf-8"?>
<!-- Generator: Adobe Illustrator 16.0.0, SVG Export Plug-In . SVG Version: 6.00 Build 0)  -->
<!DOCTYPE svg PUBLIC "-//W3C//DTD SVG 1.1//EN" "http://www.w3.org/Graphics/SVG/1.1/DTD/svg11.dtd">
<svg version="1.1" id="Layer_13" xmlns="http://www.w3.org/2000/svg" xmlns:xlink="http://www.w3.org/1999/xlink" x="0px" y="0px"
	 width="100px" height="100px" viewBox="0 0 100 100" enable-background="new 0 0 100 100" xml:space="preserve">
<path d="M75.508,42.452c-0.285,4.172-1.472,8.133-3.555,11.763c-2.026,3.531-4.587,6.697-6.852,10.071
	c-1.285,1.914-2.51,3.88-3.512,5.958c-1.057,2.192-1.216,3.69-0.537,6.026c1.267,4.351,0.949,8.101-3.246,10.726
	c-7.473,4.676-17.992-0.828-22.396-7.396c-1.186-1.768,1.666-3.413,2.841-1.661c2.073,3.09,5.578,5.542,9.104,6.68
	c3.433,1.106,8.621,1.438,10.728-2.321c1.637-2.923-1.195-6.674-0.766-9.875c0.439-3.276,2.849-6.681,4.657-9.374
	c3.774-5.622,8.653-10.943,9.905-17.821c1.202-6.604-0.351-14.122-3.816-19.872c-5.918-9.819-17.991-13.296-28.497-9.021
	c-4.46,1.816-8.509,5.089-10.551,9.524c-2.321,5.042-1.425,10.654,1.011,15.472c0.954,1.889-1.884,3.555-2.842,1.661
	c-0.804-1.592-1.525-3.253-2.001-4.975c-3.021-10.91,3.323-20.851,13.508-24.854c10.358-4.072,23.031-1.616,30.03,7.388
	C73.417,26.597,76.031,34.789,75.508,42.452z M46.229,27.542c0.54-0.381,1.144-0.665,1.76-0.896c2.079-0.781,4.334-1.124,6.529-1.38
	c2.082-0.242,2.105-3.536,0-3.291c-3.787,0.441-10.028,0.965-12.013,4.934c-1.563,3.125,0.721,6.386,2.604,8.767
	c2.532,3.201,5.564,5.973,8.217,9.07c1.176,1.372,2.268,2.825,3.09,4.44c0.612,1.203,0.874,2.463,0.585,3.531
	c-0.8,2.968-5.818,4.375-8.68,5.134c-2.049,0.544-1.179,3.718,0.875,3.173c4.123-1.094,9.571-2.868,10.979-7.433
	c1.079-3.499-1.266-7.066-3.31-9.688c-2.535-3.25-5.554-6.076-8.268-9.17c-1.084-1.236-2.118-2.529-2.867-4.001
	c-0.508-0.997-0.563-1.854-0.253-2.412C45.6,28.1,45.951,27.737,46.229,27.542z"/>
</svg>
