<?xml version="1.0" encoding="utf-8"?>
<!-- Generator: Adobe Illustrator 16.0.0, SVG Export Plug-In . SVG Version: 6.00 Build 0)  -->
<!DOCTYPE svg PUBLIC "-//W3C//DTD SVG 1.1//EN" "http://www.w3.org/Graphics/SVG/1.1/DTD/svg11.dtd">
<svg version="1.1" id="Layer_13" xmlns="http://www.w3.org/2000/svg" xmlns:xlink="http://www.w3.org/1999/xlink" x="0px" y="0px"
	 width="100px" height="100px" viewBox="0 0 100 100" enable-background="new 0 0 100 100" xml:space="preserve">
<g>
	<path d="M50,7.834C26.712,7.834,7.834,26.712,7.834,50S26.712,92.166,50,92.166S92.166,73.288,92.166,50S73.288,7.834,50,7.834z
		 M16.555,51.089c0.006,1.104-0.884,2.005-1.988,2.012c-0.004,0-0.008,0-0.012,0c-1.099,0-1.993-0.888-2-1.988
		c-0.005-0.8,0.082-19.734,17.302-32.613c0.359-0.269,0.779-0.398,1.196-0.398c0.609,0,1.21,0.277,1.603,0.802
		c0.662,0.885,0.481,2.139-0.404,2.8C16.631,33.386,16.554,50.913,16.555,51.089z M50,73.624c-13.047,0-23.624-10.576-23.624-23.624
		S36.953,26.376,50,26.376S73.624,36.952,73.624,50S63.047,73.624,50,73.624z M80.103,71.871c-0.348,0-0.697-0.12-0.981-0.365
		c-0.626-0.542-0.695-1.489-0.153-2.116c6.924-8.004,6.968-20.556,6.968-20.682c-0.002-0.828,0.667-1.502,1.496-1.504
		c0.001,0,0.003,0,0.004,0c0.827,0,1.498,0.669,1.5,1.496c0.001,0.56-0.049,13.809-7.699,22.652
		C80.941,71.695,80.523,71.871,80.103,71.871z"/>
	<path d="M54.122,49.023v-0.14c3.727-1.771,4.984-4.518,4.984-7.082c0-3.774-2.934-7.453-8.804-7.453
		c-5.311,0-9.363,3.264-9.363,8.061c0,2.609,1.443,5.217,4.798,6.801l0.046,0.14c-3.727,1.582-6.009,4.286-6.009,8.106
		c0,4.423,3.82,8.197,10.154,8.197c5.777,0,10.297-3.539,10.297-8.805C60.225,53.17,57.896,50.515,54.122,49.023z M44.806,42.128
		c0-2.609,1.863-4.842,5.263-4.842c3.681,0,5.125,2.514,5.125,4.937c0,2.747-2.002,4.609-4.613,5.496
		C47.087,46.787,44.806,45.156,44.806,42.128z M50.023,62.671c-3.867,0-6.196-2.7-6.058-5.775c0-2.887,1.912-5.217,5.451-6.239
		c4.1,1.163,6.663,2.932,6.663,6.61C56.08,60.388,53.702,62.671,50.023,62.671z"/>
</g>
</svg>
