<?xml version="1.0" encoding="utf-8"?>
<!-- Generator: Adobe Illustrator 16.0.0, SVG Export Plug-In . SVG Version: 6.00 Build 0)  -->
<!DOCTYPE svg PUBLIC "-//W3C//DTD SVG 1.1//EN" "http://www.w3.org/Graphics/SVG/1.1/DTD/svg11.dtd">
<svg version="1.1" id="Layer_13" xmlns="http://www.w3.org/2000/svg" xmlns:xlink="http://www.w3.org/1999/xlink" x="0px" y="0px"
	 width="100px" height="100px" viewBox="0 0 100 100" enable-background="new 0 0 100 100" xml:space="preserve">
<path d="M6.663,72.913H58.54v2.197H6.663V72.913z M91.588,68.878c-6.908-1.521-8.599-8.77-8.99-14.875
	c-0.244-3.801-0.115-7.611-0.17-11.417c-0.026-1.806-0.078-3.618-0.272-5.415c-0.023-0.216-0.049-0.432-0.076-0.646
	c-0.014-0.089-0.048-0.323-0.053-0.359c-0.062-0.379-0.127-0.757-0.208-1.131c-0.151-0.704-0.329-1.405-0.574-2.082
	c-0.028-0.076-0.188-0.461-0.183-0.462c-0.038-0.082-0.074-0.165-0.115-0.246c-0.144-0.284-0.295-0.566-0.469-0.833
	c-0.07-0.107-0.142-0.214-0.216-0.318c-0.033-0.042-0.064-0.081-0.083-0.103c-0.2-0.226-0.409-0.445-0.639-0.642
	c-0.022-0.018-0.03-0.025-0.046-0.039c-0.12-0.086-0.239-0.173-0.362-0.254c-0.234-0.15-0.469-0.303-0.718-0.431
	c-0.443-0.228-0.446-0.255-0.996-0.356c-0.027-0.006-0.047-0.01-0.069-0.014c-0.03,0.002-0.068,0.004-0.125,0.006
	c-0.058,0.001-0.177,0.021-0.263,0.037c-0.135,0.047-0.287,0.102-0.143,0.025c-0.108,0.055-0.215,0.111-0.315,0.18
	c-0.02,0.014-0.029,0.02-0.045,0.03c-0.07,0.062-0.14,0.124-0.207,0.189c-0.105,0.108-0.207,0.22-0.305,0.334
	c-0.062,0.083-0.186,0.247-0.202,0.271c-0.111,0.173-0.223,0.346-0.324,0.526c-0.5,0.893-0.653,1.27-0.944,2.099
	c-0.347,0.988-0.635,1.994-0.913,3.002l0.804,0.044v30.871l-14.468,4.725H14.357H6.663l4.877-6.776
	c0.188-0.292,4.302-6.608,12.269-13.288V44.94h6.375v1.816c6.812-4.53,14.186-7.706,21.9-9.465
	c-0.005-0.021-0.013-0.039-0.017-0.061c-0.088-0.537,0.276-1.045,0.814-1.133l8.021-1.314c0.538-0.088,1.045,0.276,1.133,0.814
	c0.013,0.077,0.013,0.153,0.008,0.229c2.32-0.159,4.663-0.19,7.02-0.103c0.377-1.397,0.746-2.798,1.251-4.156
	c0.678-1.824,1.537-3.935,3.097-5.2c1.754-1.424,3.86-1.896,6.018-1.079c1.935,0.732,3.627,2.036,4.76,3.771
	c1.818,2.787,2.272,6.321,2.489,9.567c0.253,3.77,0.121,7.552,0.172,11.328c0.026,1.853,0.079,3.711,0.269,5.556
	c0.029,0.28,0.058,0.56,0.093,0.84c0.006,0.045,0.011,0.081,0.014,0.111c0.005,0.032,0.011,0.071,0.02,0.125
	c0.061,0.399,0.126,0.798,0.206,1.193c0.151,0.751,0.328,1.499,0.57,2.226c0.077,0.23,0.154,0.461,0.243,0.688
	c0.017,0.043,0.091,0.212,0.125,0.292c0.122,0.26,0.248,0.519,0.391,0.767c0.168,0.29,0.343,0.578,0.541,0.848
	c0.007,0.01,0.011,0.016,0.017,0.023c0.014,0.016,0.027,0.031,0.045,0.052c0.106,0.123,0.213,0.247,0.328,0.363
	c0.152,0.155,0.306,0.309,0.471,0.45c0.036,0.03,0.141,0.108,0.208,0.159c0.228,0.156,0.46,0.307,0.706,0.434
	c0.108,0.056,0.218,0.108,0.328,0.16c0.087,0.034,0.223,0.089,0.262,0.102c0.353,0.118,0.708,0.215,1.07,0.294
	C95.525,65.248,94.351,69.485,91.588,68.878z M65.574,47.968c-20.044,0.319-33.849,7.506-40.985,14.833h21.345
	c-0.022-0.054-0.034-0.108-0.034-0.165c0-0.88,2.83-1.594,6.32-1.594c3.491,0,6.32,0.714,6.32,1.594
	c0,0.056-0.011,0.109-0.033,0.163l7.067-2.308V47.968z M72.059,62.416h-4.177v2.034h4.177V62.416z"/>
</svg>
