<?xml version="1.0" encoding="utf-8"?>
<!-- Generator: Adobe Illustrator 16.0.0, SVG Export Plug-In . SVG Version: 6.00 Build 0)  -->
<!DOCTYPE svg PUBLIC "-//W3C//DTD SVG 1.1//EN" "http://www.w3.org/Graphics/SVG/1.1/DTD/svg11.dtd">
<svg version="1.1" id="Layer_12" xmlns="http://www.w3.org/2000/svg" xmlns:xlink="http://www.w3.org/1999/xlink" x="0px" y="0px"
	 width="100px" height="100px" viewBox="0 0 100 100" enable-background="new 0 0 100 100" xml:space="preserve">
<g>
	<path d="M91.84,33.422L74.735,16.316c-0.25-0.25-0.652-0.249-0.901,0l-28.06,28.059c-0.248,0.249-0.248,0.652,0,0.9l17.106,17.106
		c0.248,0.248,0.651,0.248,0.9,0l28.059-28.06C92.089,34.073,92.09,33.671,91.84,33.422z"/>
	<path d="M61.23,64.032L44.125,46.926c-0.249-0.248-0.652-0.248-0.901,0L29.119,61.031c-0.248,0.249-0.248,0.651,0,0.9
		l11.777,11.745c0.104,0.104,0.24,0.169,0.386,0.184l10.73-0.042c0.19,0.02,0.38-0.048,0.515-0.183l8.703-8.704
		C61.479,64.684,61.479,64.281,61.23,64.032z"/>
	<path d="M25.75,83.87h6.926c1.758-3.222,3.683-6.537,4.845-10.01c-2.556,2.303-4.942,4.815-7.678,6.912
		C28.495,81.806,27.148,82.893,25.75,83.87z"/>
	<path d="M42.373,83.87h4.83c1.296-3.132,2.92-6.16,4.224-9.274c-0.773,0.975-1.553,1.946-2.398,2.854
		C46.931,79.701,44.657,81.791,42.373,83.87z"/>
	<path d="M59.082,68.697c-0.662,3.803-2.091,7.354-3.766,10.889c-0.672,1.422-1.379,2.842-2.028,4.284h20.573l-3.82-15.173H59.082z"
		/>
	<path d="M34.728,68.697H11.475L7.974,83.87h6.056c0.084-1.355,0.992-2.616,2.749-2.547c4.666,0.185,9.353-4.655,12.542-7.644
		C31.106,72.007,32.87,70.293,34.728,68.697z"/>
</g>
</svg>
