<?xml version="1.0" encoding="utf-8"?>
<!-- Generator: Adobe Illustrator 16.0.0, SVG Export Plug-In . SVG Version: 6.00 Build 0)  -->
<!DOCTYPE svg PUBLIC "-//W3C//DTD SVG 1.1//EN" "http://www.w3.org/Graphics/SVG/1.1/DTD/svg11.dtd">
<svg version="1.1" id="Layer_13" xmlns="http://www.w3.org/2000/svg" xmlns:xlink="http://www.w3.org/1999/xlink" x="0px" y="0px"
	 width="100px" height="100px" viewBox="0 0 100 100" enable-background="new 0 0 100 100" xml:space="preserve">
<path d="M90.602,48.077C82.233,33.616,66.675,24.633,50,24.633c-16.676,0-32.232,8.982-40.603,23.444L8.285,50l1.113,1.924
	C17.767,66.384,33.324,75.367,50,75.367c16.675,0,32.233-8.982,40.601-23.443L91.715,50L90.602,48.077z M50.417,63.639
	c-8.206,0-14.883-6.676-14.883-14.883c0-8.206,6.677-14.883,14.883-14.883S65.3,40.55,65.3,48.756
	C65.3,56.963,58.623,63.639,50.417,63.639z M17.235,50c3.54-5.372,8.314-9.717,13.812-12.76c-2.016,3.377-3.196,7.307-3.196,11.516
	c0,6.009,2.375,11.458,6.216,15.507C27.299,61.237,21.408,56.333,17.235,50z M67.398,63.567c3.466-3.968,5.583-9.141,5.583-14.811
	c0-3.898-0.992-7.566-2.74-10.768C75.197,40.98,79.506,45.053,82.764,50C78.896,55.869,73.55,60.51,67.398,63.567z M56.273,48.464
	c0,3.464-2.809,6.273-6.272,6.273c-3.465,0-6.273-2.809-6.273-6.273c0-3.465,2.809-6.273,6.273-6.273
	C53.464,42.191,56.273,44.999,56.273,48.464z"/>
</svg>
