<?xml version="1.0" encoding="utf-8"?>
<!-- Generator: Adobe Illustrator 16.0.0, SVG Export Plug-In . SVG Version: 6.00 Build 0)  -->
<!DOCTYPE svg PUBLIC "-//W3C//DTD SVG 1.1//EN" "http://www.w3.org/Graphics/SVG/1.1/DTD/svg11.dtd">
<svg version="1.1" id="Layer_11" xmlns="http://www.w3.org/2000/svg" xmlns:xlink="http://www.w3.org/1999/xlink" x="0px" y="0px"
	 width="100px" height="100px" viewBox="0 0 100 100" enable-background="new 0 0 100 100" xml:space="preserve">
<path d="M91.123,22.884c-1.067-9.134-10.037-6.199-21.37-4.874c-16.373,1.912-19.417,4.54-19.722,7.733H49.97
	c-0.305-3.193-3.349-5.821-19.722-7.733c-11.333-1.325-20.302-4.26-21.37,4.874c-1.067,9.132,5.516,19.525,16.849,20.85
	c6.737,0.788,13.61-1.597,18.302-5.577c0.082-0.049,6.488-3.806,11.571-0.329c0.404,0.359,0.824,0.708,1.263,1.044
	c0.003,0.003,0.007,0.007,0.011,0.01l0-0.003c4.646,3.542,11.082,5.594,17.4,4.855c5.455-0.638,9.806-3.379,12.736-7.067v45.34
	c0,0.831,0.673,1.504,1.504,1.504h1.005c0.831,0,1.504-0.673,1.504-1.504V27.532C91.261,25.98,91.302,24.413,91.123,22.884z
	 M40.118,31.602c-0.998,3.082-5.844,4.274-10.823,2.662c-4.98-1.612-8.208-5.418-7.209-8.501c0.998-3.082,5.844-4.274,10.824-2.661
	C37.888,24.713,41.116,28.52,40.118,31.602z M73.225,34.264c-4.979,1.612-9.825,0.42-10.823-2.662s2.229-6.889,7.209-8.5
	c4.979-1.613,9.826-0.421,10.824,2.661C81.432,28.846,78.205,32.651,73.225,34.264z"/>
</svg>
