<?xml version="1.0" encoding="utf-8"?>
<!-- Generator: Adobe Illustrator 16.0.0, SVG Export Plug-In . SVG Version: 6.00 Build 0)  -->
<!DOCTYPE svg PUBLIC "-//W3C//DTD SVG 1.1//EN" "http://www.w3.org/Graphics/SVG/1.1/DTD/svg11.dtd">
<svg version="1.1" id="Layer_13" xmlns="http://www.w3.org/2000/svg" xmlns:xlink="http://www.w3.org/1999/xlink" x="0px" y="0px"
	 width="100px" height="100px" viewBox="0 0 100 100" enable-background="new 0 0 100 100" xml:space="preserve">
<path d="M63.459,29.099c0.379-0.643,0.602-1.389,0.602-2.188c0-2.381-1.93-4.311-4.311-4.311h-4.115
	c0.002-0.068,0.01-0.136,0.01-0.205v-5.336c0-3.061-2.48-5.542-5.541-5.542s-5.543,2.481-5.543,5.542v5.336
	c0,0.069,0.01,0.137,0.012,0.205h-4.115c-2.381,0-4.311,1.93-4.311,4.311c0,0.8,0.221,1.546,0.602,2.188
	c-3.281,1.714-5.527,5.148-5.527,9.1v40.022c0,5.659,4.604,10.263,10.262,10.263h17.24c5.66,0,10.264-4.604,10.264-10.263V38.198
	C68.986,34.247,66.74,30.813,63.459,29.099z M58.723,84.378h-17.24c-3.395,0-6.156-2.762-6.156-6.157V38.198
	c0-3.396,2.762-6.157,6.156-6.157h17.24c3.396,0,6.158,2.762,6.158,6.157v5.679h-8.072c-1.059,0-1.916,0.857-1.916,1.915
	c0,1.059,0.857,1.916,1.916,1.916h8.072v8.758h-8.072c-1.059,0-1.916,0.857-1.916,1.915c0,1.059,0.857,1.916,1.916,1.916h8.072v9.03
	h-8.072c-1.059,0-1.916,0.857-1.916,1.916c0,1.058,0.857,1.915,1.916,1.915h8.072v5.063C64.881,81.616,62.119,84.378,58.723,84.378z
	"/>
</svg>
