<?xml version="1.0" encoding="utf-8"?>
<!-- Generator: Adobe Illustrator 16.0.0, SVG Export Plug-In . SVG Version: 6.00 Build 0)  -->
<!DOCTYPE svg PUBLIC "-//W3C//DTD SVG 1.1//EN" "http://www.w3.org/Graphics/SVG/1.1/DTD/svg11.dtd">
<svg version="1.1" id="Layer_13" xmlns="http://www.w3.org/2000/svg" xmlns:xlink="http://www.w3.org/1999/xlink" x="0px" y="0px"
	 width="100px" height="100px" viewBox="0 0 100 100" enable-background="new 0 0 100 100" xml:space="preserve">
<g>
	<path d="M83.186,16.814C79.84,13.468,75.051,11.7,69.337,11.7c-11.739,0-26.429,7.396-38.334,19.303
		c-8.76,8.759-15.097,18.923-17.846,28.622c-2.834,10.001-1.535,18.369,3.657,23.562c3.346,3.346,8.134,5.114,13.849,5.115
		c0.001,0,0.001,0,0.002,0c11.738,0,26.427-7.396,38.332-19.303c8.76-8.759,15.097-18.923,17.846-28.621
		C89.677,30.375,88.378,22.007,83.186,16.814z M83.956,39.558c-2.611,9.213-8.677,18.915-17.08,27.318
		C55.512,78.241,41.636,85.301,30.663,85.3c-4.901,0-8.957-1.465-11.728-4.236c-4.39-4.39-5.417-11.713-2.892-20.623
		c2.611-9.213,8.677-18.915,17.08-27.318C44.488,21.759,58.363,14.7,69.337,14.7c4.901,0,8.956,1.464,11.728,4.235
		C85.454,23.325,86.481,30.649,83.956,39.558z"/>
	<path d="M65.59,33.362c-0.908-0.81-1.894-1.484-2.77-1.904c-0.523-0.258-1-0.433-1.35-0.537c-0.348-0.108-0.571-0.146-0.571-0.146
		s0.037,0.224,0.146,0.571c0.104,0.351,0.279,0.827,0.535,1.35c0.398,0.828,1.02,1.755,1.77,2.62
		c-0.842,0.74-1.726,1.526-2.633,2.363c-1.118,1.02-2.303,2.091-3.492,3.223c-0.778-0.637-1.591-1.17-2.326-1.523
		c-0.523-0.257-1-0.432-1.351-0.536c-0.347-0.108-0.571-0.145-0.571-0.145s0.038,0.222,0.146,0.57
		c0.104,0.351,0.278,0.828,0.535,1.351c0.344,0.713,0.857,1.5,1.471,2.259c-0.719,0.677-1.444,1.364-2.163,2.072
		c-1.103,1.086-2.221,2.187-3.341,3.289c-0.734-0.584-1.49-1.077-2.179-1.408c-0.523-0.257-0.999-0.432-1.351-0.536
		c-0.348-0.108-0.57-0.146-0.57-0.146s0.037,0.223,0.145,0.57c0.104,0.352,0.278,0.828,0.537,1.351
		c0.331,0.69,0.826,1.449,1.412,2.185c-0.895,0.908-1.784,1.814-2.666,2.71c-0.805,0.821-1.584,1.645-2.352,2.462
		c-0.764-0.618-1.556-1.136-2.272-1.48c-0.522-0.258-0.999-0.433-1.351-0.536c-0.347-0.109-0.57-0.146-0.57-0.146
		s0.037,0.223,0.146,0.57c0.104,0.351,0.278,0.828,0.536,1.351c0.354,0.739,0.89,1.557,1.534,2.34
		c-1.025,1.087-2.006,2.168-2.939,3.191c-0.706,0.764-1.37,1.509-2.007,2.229c-0.859-0.741-1.778-1.354-2.6-1.749
		c-0.522-0.257-0.999-0.432-1.351-0.536c-0.347-0.108-0.569-0.145-0.569-0.145s0.036,0.223,0.146,0.57
		c0.104,0.351,0.278,0.827,0.535,1.351c0.417,0.867,1.082,1.842,1.882,2.742c-1.476,1.7-2.688,3.162-3.57,4.245
		c-1.056,1.294-1.634,2.059-1.634,2.059s0.765-0.578,2.06-1.634c1.081-0.882,2.543-2.093,4.242-3.568
		c0.898,0.8,1.872,1.466,2.741,1.883c0.523,0.257,1,0.431,1.353,0.534c0.348,0.108,0.57,0.144,0.57,0.144s-0.035-0.224-0.144-0.572
		c-0.103-0.351-0.277-0.828-0.534-1.351c-0.395-0.823-1.008-1.741-1.751-2.599c0.72-0.635,1.466-1.299,2.229-2.005
		c1.021-0.933,2.103-1.914,3.188-2.937c0.781,0.644,1.6,1.18,2.34,1.535c0.523,0.256,1,0.43,1.351,0.534
		c0.349,0.108,0.573,0.144,0.573,0.144s-0.037-0.224-0.145-0.571c-0.104-0.352-0.277-0.829-0.534-1.352
		c-0.344-0.718-0.862-1.51-1.481-2.271c0.816-0.769,1.64-1.545,2.461-2.351c0.894-0.88,1.8-1.771,2.707-2.664
		c0.735,0.587,1.494,1.083,2.186,1.413c0.522,0.256,1,0.431,1.351,0.535c0.349,0.107,0.571,0.143,0.571,0.143
		s-0.035-0.223-0.145-0.571c-0.102-0.352-0.276-0.829-0.533-1.352c-0.33-0.689-0.823-1.446-1.408-2.179
		c1.102-1.119,2.202-2.236,3.287-3.339c0.707-0.719,1.394-1.442,2.07-2.161c0.757,0.614,1.544,1.129,2.259,1.471
		c0.521,0.257,0.999,0.431,1.352,0.534c0.347,0.108,0.571,0.144,0.571,0.144s-0.037-0.224-0.145-0.572
		c-0.104-0.351-0.277-0.828-0.533-1.351c-0.354-0.736-0.887-1.549-1.525-2.326c1.132-1.189,2.203-2.373,3.222-3.491
		c0.837-0.906,1.622-1.79,2.36-2.631c0.864,0.752,1.791,1.374,2.62,1.771c0.522,0.256,0.999,0.431,1.352,0.534
		c0.348,0.108,0.571,0.144,0.571,0.144s-0.036-0.223-0.145-0.571c-0.103-0.352-0.277-0.829-0.533-1.352
		c-0.42-0.877-1.096-1.861-1.908-2.767c1.316-1.526,2.403-2.84,3.214-3.835c1.056-1.294,1.632-2.06,1.632-2.06
		s-0.765,0.578-2.06,1.632C68.43,30.958,67.114,32.047,65.59,33.362z"/>
	<path d="M79.775,20.905c-0.351-0.35-0.479-0.478-0.486-0.487c-0.1-0.099-0.216-0.216-0.355-0.355
		c-3.364-3.365-13.75-2.616-13.75-2.616l17.73,17.731c0,0-0.22-11.354-2.695-13.83C80.04,21.169,79.896,21.025,79.775,20.905z"/>
	<path d="M19.773,79.222c0.14,0.14,0.257,0.256,0.355,0.355c0.01,0.009,0.138,0.137,0.487,0.487c0.12,0.121,0.265,0.265,0.443,0.443
		c2.476,2.476,13.828,2.697,13.828,2.697L17.158,65.473C17.158,65.473,16.409,75.858,19.773,79.222z"/>
</g>
</svg>
