<?xml version="1.0" encoding="utf-8"?>
<!-- Generator: Adobe Illustrator 16.0.0, SVG Export Plug-In . SVG Version: 6.00 Build 0)  -->
<!DOCTYPE svg PUBLIC "-//W3C//DTD SVG 1.1//EN" "http://www.w3.org/Graphics/SVG/1.1/DTD/svg11.dtd">
<svg version="1.1" id="Layer_12" xmlns="http://www.w3.org/2000/svg" xmlns:xlink="http://www.w3.org/1999/xlink" x="0px" y="0px"
	 width="100px" height="100px" viewBox="0 0 100 100" enable-background="new 0 0 100 100" xml:space="preserve">
<path d="M85.25,69.477v-4.654c0-6.462-3.706-12.063-9.098-14.822c5.392-2.76,9.098-8.36,9.098-14.822v-4.143l3.864,3.864
	l3.535-3.535l-9.899-9.899l-9.899,9.899l3.535,3.535l3.864-3.864v4.143c0,6.426-5.229,11.654-11.654,11.654H41.895
	c-1.495-8.074-8.577-14.212-17.076-14.212c-9.584,0-17.38,7.796-17.38,17.38s7.796,17.38,17.38,17.38
	c8.499,0,15.58-6.138,17.076-14.212h26.701c6.426,0,11.654,5.229,11.654,11.654v4.654l-3.864-3.864l-3.535,3.535l9.899,9.899
	l9.899-9.899l-3.535-3.535L85.25,69.477z M24.818,60.885c-6.002,0-10.885-4.882-10.885-10.885s4.883-10.885,10.885-10.885
	S35.703,43.997,35.703,50S30.82,60.885,24.818,60.885z"/>
</svg>
