<?xml version="1.0" encoding="utf-8"?>
<!-- Generator: Adobe Illustrator 16.0.0, SVG Export Plug-In . SVG Version: 6.00 Build 0)  -->
<!DOCTYPE svg PUBLIC "-//W3C//DTD SVG 1.1//EN" "http://www.w3.org/Graphics/SVG/1.1/DTD/svg11.dtd">
<svg version="1.1" id="Layer_12" xmlns="http://www.w3.org/2000/svg" xmlns:xlink="http://www.w3.org/1999/xlink" x="0px" y="0px"
	 width="100px" height="100px" viewBox="0 0 100 100" enable-background="new 0 0 100 100" xml:space="preserve">
<path d="M8.646,87.875l3.477,3.477c-2.277,1.196-3.83,1.577-4.441,0.966C7.068,91.704,7.45,90.153,8.646,87.875z M7.807,85.149
	l7.041,7.041c3.833-1.383,8.784-4.256,14.321-8.307L16.114,70.829C12.064,76.366,9.19,81.316,7.807,85.149z M40.296,44.57
	l15.131,15.132c-2.284,2.56-4.732,5.157-7.33,7.755c-5.927,5.927-11.859,11.097-17.307,15.22l-13.47-13.469
	c4.123-5.448,9.293-11.381,15.22-17.308C35.139,49.303,37.736,46.854,40.296,44.57z M31.517,75.957
	c-1.011,0.771-0.034,2.519,0.987,1.738c6.742-5.142,12.388-11.391,18.333-17.397c0.907-0.916-0.507-2.332-1.415-1.414
	C43.613,64.754,38.108,70.928,31.517,75.957z M89.109,27.779L60.745,56.144c-1.067,1.066-2.29,1.878-3.591,2.456L41.398,42.845
	c0.579-1.302,1.389-2.525,2.456-3.592l24.593-24.594l-4.122,1.214L43.147,37.052c-0.585,0.585-1.536,0.585-2.121,0
	c-0.586-0.586-0.586-1.536,0-2.121l21.449-21.449c0.177-0.178,0.396-0.308,0.636-0.379l9.874-2.906
	c4.692-3.951,11.707-3.726,16.125,0.692C93.773,15.553,93.773,23.115,89.109,27.779z M85.309,12.392
	c-1.009-0.773-2.436,0.631-1.414,1.414c3.171,2.428,3.522,6.876,1.782,10.289c-0.583,1.145,1.151,2.141,1.739,0.987
	C89.518,20.959,89.186,15.361,85.309,12.392z"/>
</svg>
