<?xml version="1.0" encoding="utf-8"?>
<!-- Generator: Adobe Illustrator 16.0.0, SVG Export Plug-In . SVG Version: 6.00 Build 0)  -->
<!DOCTYPE svg PUBLIC "-//W3C//DTD SVG 1.1//EN" "http://www.w3.org/Graphics/SVG/1.1/DTD/svg11.dtd">
<svg version="1.1" id="Layer_11" xmlns="http://www.w3.org/2000/svg" xmlns:xlink="http://www.w3.org/1999/xlink" x="0px" y="0px"
	 width="100px" height="100px" viewBox="0 0 100 100" enable-background="new 0 0 100 100" xml:space="preserve">
<g>
	<path d="M44.748,48.505c-5.248,0-9.502,4.255-9.502,9.503c0,5.249,4.254,9.502,9.502,9.502s9.503-4.253,9.503-9.502
		C54.251,52.76,49.996,48.505,44.748,48.505z M47.569,54.006c-1.319-1.198-2.536-1.674-3.611-1.416
		c-1.658,0.396-2.787,2.503-3.082,3.279l-1.333-0.505c0.055-0.144,1.359-3.509,4.082-4.161c1.564-0.375,3.214,0.215,4.903,1.748
		L47.569,54.006z"/>
	<path d="M38.438,78.066c-0.119,0.12-0.238,0.237-0.356,0.355c-0.325,0.326,0.179,0.83,0.504,0.505
		c0.118-0.119,0.237-0.238,0.356-0.356C39.268,78.246,38.764,77.742,38.438,78.066z"/>
	<path d="M57.219,67.628c0,1.069,0,2.138,0,3.208c0,0.459,0.713,0.459,0.713,0c0-1.07,0-2.139,0-3.208
		C57.932,67.169,57.219,67.169,57.219,67.628z"/>
	<path d="M54.726,76.181c-0.459-0.041-0.455,0.673,0,0.713c0.32,0.027,0.604,0.396,0.816,0.606c0.326,0.326,0.829-0.178,0.504-0.502
		C55.667,76.619,55.283,76.229,54.726,76.181z"/>
	<path d="M24.437,71.548c-0.999,0-1.982,0.108-2.746,0.816c-0.338,0.313,0.168,0.816,0.505,0.504
		c0.615-0.571,1.444-0.606,2.241-0.608C24.896,72.26,24.896,71.548,24.437,71.548z"/>
	<path d="M61.852,57.651c-0.46,0-0.46,0.712,0,0.712S62.312,57.651,61.852,57.651z"/>
	<path d="M65.059,47.674c-0.46,0-0.46,0.713,0,0.713C65.518,48.387,65.518,47.674,65.059,47.674z"/>
	<path d="M90.891,29.155L73.306,17.4l-10.877-0.409l-8.148-5.447l-8.308,1.309L32.186,3.637l-7.925,11.856l17.596,11.762
		l-0.599,0.211L26.03,20.898l-5.648,13.094l14.594,6.296C28.734,45.032,24.5,53.295,24.216,62.77
		c-1.902,0.146-3.779,0.616-5.593,1.4c-7.405,3.207-11.311,10.709-8.707,16.724c1.75,4.04,6.071,6.549,11.276,6.549
		c2.294,0,4.671-0.503,6.877-1.46c1.199-0.519,2.337-1.172,3.396-1.944c3.877,4.391,8.863,7.007,14.174,7.426
		c0.568,0.548,1.164,1.056,1.773,1.508c2.947,2.188,6.423,3.392,9.786,3.392l0,0c3.764,0,7.063-1.535,9.05-4.213
		c2.646-3.563,2.642-8.507,0.028-13.024c2.188-3.978,3.484-8.554,3.77-13.313c1.661-0.895,3.06-2.097,4.161-3.581
		c2.429-3.272,3.12-7.512,1.946-11.938c-0.542-2.044-1.466-4.011-2.694-5.831l9.276,4.001l5.647-13.094l-1.279-0.553L90.891,29.155z
		 M33.464,10.065l11.439,7.647l8.308-1.309l7.733,5.17l10.877,0.409l12.641,8.449l-1.685,2.52l-9.948-4.292l-2.607-1.742
		l-10.877-0.409l-7.285-4.87l-8.308,1.309l-13.063-8.731L33.464,10.065z M74.089,50.844c1.003,3.783,0.436,7.376-1.599,10.114
		c-1.017,1.371-2.343,2.453-3.941,3.219l-0.579,0.279l-0.026,0.642c-0.201,4.86-1.525,9.533-3.829,13.51l-0.324,0.561l0.346,0.545
		c2.46,3.901,2.612,8.179,0.396,11.163c-1.603,2.16-4.207,3.349-7.333,3.349l0,0c-2.908,0-5.931-1.054-8.512-2.97
		c-0.629-0.467-1.241-1-1.82-1.583l-0.288-0.291l-0.409-0.024c-5.172-0.297-10.045-2.948-13.722-7.465l-0.68-0.835l-0.83,0.686
		c-1.132,0.935-2.383,1.699-3.72,2.279c-1.938,0.84-4.022,1.284-6.026,1.284c-4.339,0-7.908-2.018-9.314-5.262
		c-2.135-4.933,1.271-11.174,7.595-13.911c1.883-0.815,3.839-1.244,5.813-1.274l1.053-0.025V63.78
		c0-9.72,4.433-18.167,10.933-22.502l3.458,1.492l7.934-2.791l7.587,3.272l10.771-1.565l2.105,0.907
		C71.55,44.966,73.285,47.815,74.089,50.844z M80.315,42.373L67.651,36.91L56.88,38.477l-8.045-3.471l-7.934,2.791l-14.428-6.225
		l1.977-4.582l12.636,5.449l7.933-2.79l8.541,3.685l10.771-1.566l13.961,6.021L80.315,42.373z"/>
</g>
</svg>
