<?xml version="1.0" encoding="utf-8"?>
<!-- Generator: Adobe Illustrator 16.0.0, SVG Export Plug-In . SVG Version: 6.00 Build 0)  -->
<!DOCTYPE svg PUBLIC "-//W3C//DTD SVG 1.1//EN" "http://www.w3.org/Graphics/SVG/1.1/DTD/svg11.dtd">
<svg version="1.1" id="Layer_13" xmlns="http://www.w3.org/2000/svg" xmlns:xlink="http://www.w3.org/1999/xlink" x="0px" y="0px"
	 width="100px" height="100px" viewBox="0 0 100 100" enable-background="new 0 0 100 100" xml:space="preserve">
<g>
	<path d="M65.778,30.762c-13.977,0-25.307,11.331-25.307,25.308c0,13.976,11.33,25.308,25.307,25.308
		c13.977,0,25.308-11.332,25.308-25.308C91.086,42.093,79.755,30.762,65.778,30.762z M70.054,34.588
		c0.078,0.014,3.946,0.742,8.029,3.37l-2.16,2.97c-2.177-1.583-4.373-2.473-6.474-2.898L70.054,34.588z M62.339,34.303l0.501,3.339
		c-3.06,0.462-5.489,1.595-7.414,3.031l-2.011-2.826C53.483,37.8,57.118,35.277,62.339,34.303z M47.431,67.676
		c-0.043-0.061-2.118-3.054-3.231-7.499l3.596-0.541c0.37,2.452,1.174,4.495,2.217,6.204L47.431,67.676z M47.606,51.68l-2.862-0.502
		c0.013-0.076,0.718-3.829,3.25-7.843l2.518,1.833C48.919,47.359,48.029,49.567,47.606,51.68z M61.329,77.733
		c-0.076-0.014-3.847-0.72-7.872-3.268l2.185-3.004c2.114,1.538,4.243,2.417,6.289,2.857L61.329,77.733z M70.354,77.17l-0.463-3.087
		c3.594-0.923,6.009-2.597,6.059-2.633l2.094,2.946C75.937,75.7,73.405,76.71,70.354,77.17z M65.778,69.58
		c-7.461,0-13.51-6.05-13.51-13.511c0-7.462,6.048-13.512,13.51-13.512c7.462,0,13.511,6.05,13.511,13.512
		C79.29,63.53,73.24,69.58,65.778,69.58z M83.738,43.22c1.697,2.325,3.033,5.245,3.583,8.903l-3.345,0.502
		c-0.782-4.367-2.903-7.428-2.941-7.481L83.738,43.22z M81.465,65.754c2.108-3.321,2.695-6.445,2.705-6.507l3.472,0.611
		c-0.527,2.54-1.612,5.192-3.526,7.825L81.465,65.754z"/>
	<circle cx="65.779" cy="56.069" r="9.741"/>
	<path d="M38.796,65.032l-0.464-3.087c0.071-0.019,0.139-0.038,0.209-0.057c-0.367-1.604-0.594-3.256-0.663-4.952
		c-1.164,0.327-2.39,0.506-3.658,0.506c-7.461,0-13.51-6.05-13.51-13.511c0-7.462,6.048-13.512,13.51-13.512
		c4.837,0,9.078,2.543,11.465,6.363c1.236-1.252,2.591-2.384,4.049-3.379c-0.152-0.246-0.249-0.389-0.258-0.398l2.704-1.924
		c0.146,0.201,0.286,0.412,0.427,0.621c0.963-0.497,1.958-0.942,2.983-1.321c-4.489-7.066-12.379-11.759-21.37-11.759
		c-13.977,0-25.307,11.332-25.307,25.309c0,13.976,11.33,25.308,25.307,25.308c2.319,0,4.564-0.319,6.699-0.904
		c-0.573-1.096-1.075-2.236-1.496-3.414C39.215,64.958,39.009,64.999,38.796,65.032z M38.496,22.45
		c0.077,0.015,3.946,0.741,8.029,3.37l-2.16,2.97c-2.177-1.583-4.373-2.473-6.474-2.898L38.496,22.45z M30.781,22.165l0.501,3.339
		c-3.06,0.462-5.489,1.595-7.414,3.031l-2.011-2.826C21.925,25.662,25.56,23.14,30.781,22.165z M15.873,55.538
		c-0.043-0.061-2.118-3.054-3.231-7.499l3.595-0.541c0.37,2.452,1.175,4.495,2.217,6.204L15.873,55.538z M16.048,39.541
		l-2.862-0.501c0.014-0.075,0.718-3.829,3.25-7.843l2.518,1.833C17.361,35.222,16.471,37.43,16.048,39.541z M29.771,65.596
		c-0.076-0.014-3.847-0.721-7.872-3.269l2.185-3.003c2.113,1.538,4.243,2.418,6.289,2.857L29.771,65.596z"/>
	<path d="M24.481,43.932c0,5.379,4.36,9.74,9.74,9.74c1.344,0,2.625-0.273,3.79-0.765c0.521-4.839,2.321-9.3,5.054-13.04
		c-1.541-3.348-4.917-5.677-8.843-5.677C28.841,34.19,24.481,38.552,24.481,43.932z"/>
</g>
</svg>
