<?xml version="1.0" encoding="utf-8"?>
<!-- Generator: Adobe Illustrator 16.0.0, SVG Export Plug-In . SVG Version: 6.00 Build 0)  -->
<!DOCTYPE svg PUBLIC "-//W3C//DTD SVG 1.1//EN" "http://www.w3.org/Graphics/SVG/1.1/DTD/svg11.dtd">
<svg version="1.1" id="Layer_13" xmlns="http://www.w3.org/2000/svg" xmlns:xlink="http://www.w3.org/1999/xlink" x="0px" y="0px"
	 width="100px" height="100px" viewBox="0 0 100 100" enable-background="new 0 0 100 100" xml:space="preserve">
<path d="M94.286,50.274c-0.011-0.028-0.022-0.055-0.033-0.083c-0.013-0.093-0.035-0.187-0.075-0.276
	C93.7,48.868,83.953,24.237,80.9,19.878c-0.063-0.089-0.139-0.167-0.228-0.231c-5.674-4.111-14.069-5.522-20.915-3.973
	c-6.893,1.561-12.869,5.91-15.995,11.634c-0.761,1.247-1.515,3.317-0.816,6.143l1.703,6.732H11.134c-0.294,0-0.573,0.132-0.76,0.36
	c-0.186,0.229-0.26,0.528-0.2,0.816l8.979,43.79c0.047,0.227,0.168,0.418,0.334,0.556v0.301l50.783-0.045
	c1.669-0.081,3.319-0.304,4.905-0.666c3.701-0.846,7.099-2.391,10.097-4.592c0.527-0.388,1.042-0.794,1.558-1.199l0.637-0.5
	l1.968-1.968c0.135-0.196,0.235-0.333,0.35-0.459c2.227-2.568,3.891-5.47,4.928-8.604C96.678,62.047,96.533,56.093,94.286,50.274z
	 M45.446,28.313c0.009-0.015,0.019-0.03,0.026-0.045c2.855-5.249,8.358-9.242,14.719-10.682c6.233-1.412,14.011-0.151,19.195,3.55
	c1.78,1.78,5.332,12.621,8.861,20.128c-1.223-1.078-3.063-2.585-4.526-3.414c-3.632-2.053-7.675-3.139-11.69-3.139
	c-4.744,0-9.418,1.484-13.515,4.292c-0.446,0.307-0.877,0.64-1.31,0.972l-0.572,0.438l-2.254,2.337
	c-0.254,0.321-0.508,0.642-0.752,0.971c-1.972,2.667-3.271,5.585-3.866,8.68l-4.915-19.426
	C44.31,30.797,44.876,29.238,45.446,28.313z M84.256,78.937c-4.222,3.161-9.001,4.856-14.217,5.043v0.01l-1.66,0.024H20.922
	l-8.586-41.871h32.81l4.502,17.788c0.192,1.176,0.487,2.338,0.881,3.481l0.109,0.434c0.035,0.137,0.1,0.258,0.182,0.362
	c1.371,3.537,3.521,6.453,6.402,8.672c2.802,2.157,5.981,3.449,9.453,3.838c3.382,0.376,6.688-0.127,9.804-1.499
	c2.969-1.312,5.398-3.257,7.219-5.782c1.956-2.712,3.009-5.684,3.132-8.832c0.219-5.6-1.677-10.004-5.794-13.462
	c-1.507-1.268-3.29-2.183-5.299-2.724c-2.954-0.792-5.889-0.659-8.737,0.399c-3.23,1.202-5.626,3.291-7.119,6.209
	c-1.592,3.112-1.788,6.38-0.584,9.711c1.505,4.156,5.354,6.949,9.577,6.949l0.217-0.002c3.813-0.085,7.141-2.386,8.281-5.725
	c0.841-2.457,0.295-6.098-2.371-8.009c-1.053-0.755-2.496-1.08-3.843-0.899c-0.013,0-0.026-0.001-0.039,0
	c-0.321,0.026-0.876,0.207-1.105,0.286l-0.001-0.005c-0.019,0.007-0.033,0.016-0.05,0.023c-0.034,0.011-0.054,0.019-0.054,0.019
	l-0.001,0.005c-0.352,0.141-0.685,0.314-0.983,0.526c-1.014,0.721-1.604,1.876-1.538,3.017c0.057,1.021,0.635,1.884,1.626,2.432
	c0.76,0.42,1.631,0.172,2.151-0.592c0.269-0.396,0.312-0.77,0.148-1.287l-0.193-0.617c-0.451-1.209,1.55-2.21,2.551-1.397h0.001
	l0.285,0.237c0.35,0.29,0.712,0.62,0.998,1.076c1.469,2.328,0.898,5.446-1.329,7.251c-2.802,2.266-7.261,2.11-10-0.342
	c-3.407-3.042-4.598-9.187-0.578-13.807c2.193-2.524,5.443-3.972,8.913-3.972c3.113,0,6.114,1.178,8.451,3.316
	c1.91,1.749,3.218,3.899,3.889,6.39c1.415,5.254,0.288,9.97-3.346,14.018c-2.246,2.5-5.215,4.141-8.822,4.88
	c-1.082,0.222-2.194,0.335-3.307,0.335c-5.597,0-10.988-2.852-14.069-7.443c-1.047-1.56-1.851-3.169-2.415-4.821l-0.739-2.921
	c-0.433-2.591-0.304-5.274,0.395-8.034c1.213-4.798,4.023-8.653,8.353-11.459c3.479-2.255,7.524-3.447,11.696-3.447
	c4.982,0,9.813,1.725,13.604,4.857c2.48,2.051,4.412,4.422,5.796,7.084c0.449,0.974,0.758,1.648,0.884,1.926
	c0.753,1.876,1.262,3.88,1.512,6.011C94.929,65.845,91.705,73.361,84.256,78.937z"/>
</svg>
