<?xml version="1.0" encoding="utf-8"?>
<!-- Generator: Adobe Illustrator 16.0.0, SVG Export Plug-In . SVG Version: 6.00 Build 0)  -->
<!DOCTYPE svg PUBLIC "-//W3C//DTD SVG 1.1//EN" "http://www.w3.org/Graphics/SVG/1.1/DTD/svg11.dtd">
<svg version="1.1" id="Layer_12" xmlns="http://www.w3.org/2000/svg" xmlns:xlink="http://www.w3.org/1999/xlink" x="0px" y="0px"
	 width="100px" height="100px" viewBox="0 0 100 100" enable-background="new 0 0 100 100" xml:space="preserve">
<path d="M73.021,33.589V15.932H32.579v18.411l-1.363-2.362L6.038,75.59h43.118c4.841,5.392,11.736,8.479,18.957,8.479
	c14.051,0,25.482-11.432,25.482-25.482C93.596,46.373,84.968,35.927,73.021,33.589z M31.216,38.051l1.363,2.36v15.962h9.216
	l0.861,1.492l-0.007,0.149c-0.01,0.189-0.019,0.38-0.019,0.571c0,5.001,1.444,9.811,4.187,13.971H11.295L31.216,38.051z
	 M69.986,18.967v34.371H35.614V18.967H69.986z M68.113,81.033c-12.378,0-22.448-10.069-22.448-22.447
	c0-0.304,0.017-0.604,0.032-0.905l0.005-0.094l0.171-0.217l-0.146-0.256c0.017-0.248,0.038-0.495,0.063-0.741h27.231V36.688
	c10.199,2.282,17.539,11.395,17.539,21.898C90.561,70.964,80.491,81.033,68.113,81.033z"/>
</svg>
