<?xml version="1.0" encoding="utf-8"?>
<!-- Generator: Adobe Illustrator 16.0.0, SVG Export Plug-In . SVG Version: 6.00 Build 0)  -->
<!DOCTYPE svg PUBLIC "-//W3C//DTD SVG 1.1//EN" "http://www.w3.org/Graphics/SVG/1.1/DTD/svg11.dtd">
<svg version="1.1" id="Layer_12" xmlns="http://www.w3.org/2000/svg" xmlns:xlink="http://www.w3.org/1999/xlink" x="0px" y="0px"
	 width="100px" height="100px" viewBox="0 0 100 100" enable-background="new 0 0 100 100" xml:space="preserve">
<g>
	<path d="M58.813,6.071H14.33c0,21.191,6.725,38.63,19.474,40.824v34.973c-4.171,0.245-7.24,1.069-7.24,2.052
		c0,0.088,0.03,0.169,0.073,0.253c-4.526,0.684-7.492,1.821-7.492,3.108c0,2.093,7.8,3.79,17.427,3.79
		c9.62,0,17.426-1.697,17.426-3.79c0-1.326-3.144-2.49-7.894-3.164c0.025-0.064,0.046-0.132,0.046-0.197
		c0-0.95-2.865-1.752-6.813-2.025V46.896C52.087,44.703,58.813,27.265,58.813,6.071z M24.728,33.146
		c-0.131,0.058-0.269,0.085-0.403,0.085c-0.384,0-0.75-0.223-0.916-0.597c-5.018-11.375-5.563-22.556-5.584-23.026
		c-0.024-0.551,0.403-1.019,0.955-1.043c0.543-0.031,1.019,0.402,1.043,0.955c0.005,0.112,0.555,11.29,5.416,22.307
		C25.462,32.332,25.233,32.922,24.728,33.146z"/>
	<path d="M81.822,6.755h-0.526v25.612c0,0.609-0.775,1.103-1.731,1.103c-0.958,0-1.732-0.493-1.732-1.103V6.755h-3.208v25.612
		c0,0.609-0.775,1.103-1.731,1.103c-0.957,0-1.732-0.493-1.732-1.103V6.755h-1.269c-2.126,0-3.079,1.594-3.079,3.559v24.551
		c0,1.325,4.417,4.584,7.294,6.566v7.162c-1.395,0.482-2.401,1.793-2.401,3.351V90.37c0,1.966,1.593,3.559,3.558,3.559h2.491
		c1.964,0,3.558-1.593,3.558-3.559V51.943c0-1.558-1.008-2.868-2.401-3.351v-7.24c2.709-1.988,6.76-5.181,6.76-6.488V10.313
		C85.67,8.349,83.947,6.755,81.822,6.755z"/>
</g>
</svg>
