<?xml version="1.0" encoding="utf-8"?>
<!-- Generator: Adobe Illustrator 16.0.0, SVG Export Plug-In . SVG Version: 6.00 Build 0)  -->
<!DOCTYPE svg PUBLIC "-//W3C//DTD SVG 1.1//EN" "http://www.w3.org/Graphics/SVG/1.1/DTD/svg11.dtd">
<svg version="1.1" id="Layer_13" xmlns="http://www.w3.org/2000/svg" xmlns:xlink="http://www.w3.org/1999/xlink" x="0px" y="0px"
	 width="100px" height="100px" viewBox="0 0 100 100" enable-background="new 0 0 100 100" xml:space="preserve">
<path d="M7.994,21.111v57.777h2.549V24.813l4.407,2.742v47.725h1.274v-7.908l5.462,5.463l5.556-5.557l5.556,5.557l5.567-5.568
	l5.567,5.568l5.498-5.498l5.459,5.459l5.557-5.557l5.556,5.557l5.567-5.566l5.566,5.566l5.789-5.787v8.271H84.2v-47.6l5.257-3.354
	v54.563h2.549V21.111H7.994z M27.027,67.061l-5.34,5.342l-5.462-5.463v-0.41l5.132-5.133l0.331,0.33l0.33-0.33l5.01,5.01
	L26.7,66.734L27.027,67.061z M21.687,28.166l5.34,5.34L26.7,33.834l0.327,0.326l-5.01,5.01l-0.33-0.328l-0.331,0.328l-5.132-5.131
	v-0.412L21.687,28.166z M16.225,33.195v-5.287h5.288L16.225,33.195z M77.137,60.596l-0.33,0.33l-5.021-5.02l0.317-0.318
	l-0.317-0.316l4.81-4.811l0.541,0.541l0.541-0.541l5.127,5.127l-5.337,5.338L77.137,60.596z M77.251,61.143l-0.114,0.113
	l-0.114-0.113l0.114-0.115L77.251,61.143z M66.004,60.596l-0.33,0.33l-5.01-5.01l0.327-0.328l-0.327-0.326l4.8-4.801l0.54,0.541
	l0.54-0.541l4.811,4.811l-0.317,0.316l0.317,0.318l-5.021,5.02L66.004,60.596z M66.119,61.143l-0.115,0.113l-0.114-0.113
	l0.114-0.115L66.119,61.143z M54.891,60.596l-0.33,0.33l-4.914-4.912l0.385-0.387l-0.423-0.424l4.741-4.742l0.54,0.541l0.541-0.541
	l4.8,4.801l-0.327,0.326l0.327,0.328l-5.011,5.01L54.891,60.596z M55.005,61.143l-0.115,0.113l-0.114-0.113l0.114-0.115
	L55.005,61.143z M43.934,60.635l-0.331,0.33l-5.021-5.021l0.317-0.316l-0.317-0.316l4.811-4.811l0.541,0.541l0.54-0.541l4.703,4.703
	l-0.385,0.385l0.423,0.426l-4.952,4.951L43.934,60.635z M44.047,61.182l-0.113,0.113l-0.115-0.113l0.115-0.115L44.047,61.182z
	 M32.799,60.635l-0.33,0.33l-5.01-5.01l0.327-0.328l-0.327-0.326l4.8-4.801l0.54,0.541L33.34,50.5l4.811,4.811l-0.317,0.316
	l0.317,0.316l-5.021,5.021L32.799,60.635z M32.914,61.182l-0.115,0.113l-0.114-0.113l0.114-0.115L32.914,61.182z M27.243,34.377
	l5.01,5.01l-5.01,5.01l-5.011-5.01L27.243,34.377z M27.132,33.834l0.111-0.111l0.111,0.111l-0.111,0.111L27.132,33.834z
	 M32.799,39.934l0.331-0.33l5.021,5.02l-0.317,0.318l0.317,0.316l-4.811,4.811l-0.541-0.541l-0.54,0.541l-4.8-4.801l0.327-0.326
	l-0.327-0.328l5.01-5.01L32.799,39.934z M32.685,39.387l0.114-0.113l0.115,0.113l-0.115,0.115L32.685,39.387z M38.366,34.367
	l5.021,5.02l-5.021,5.021l-5.021-5.021L38.366,34.367z M38.265,33.834l0.101-0.102l0.101,0.102l-0.101,0.102L38.265,33.834z
	 M43.934,39.934l0.33-0.33l4.914,4.912l-0.385,0.387l0.423,0.424l-4.741,4.742l-0.54-0.541l-0.541,0.541l-4.811-4.811l0.317-0.316
	l-0.317-0.318l5.021-5.02L43.934,39.934z M43.819,39.387l0.115-0.113l0.113,0.113l-0.113,0.115L43.819,39.387z M49.432,34.436
	l4.913,4.912l-4.952,4.953l-4.913-4.914L49.432,34.436z M49.223,33.795l0.169-0.17l0.208,0.209l-0.169,0.17L49.223,33.795z
	 M54.891,39.895l0.33-0.33l5.011,5.01l-0.327,0.328l0.327,0.326l-4.8,4.801l-0.541-0.541l-0.54,0.541l-4.703-4.703l0.385-0.385
	l-0.423-0.426l4.952-4.951L54.891,39.895z M54.777,39.348l0.114-0.113l0.115,0.113l-0.115,0.115L54.777,39.348z M60.448,34.338
	l5.01,5.01l-5.01,5.012l-5.011-5.012L60.448,34.338z M60.336,33.795l0.112-0.111l0.111,0.111l-0.111,0.111L60.336,33.795z
	 M66.004,39.895l0.33-0.33l5.021,5.021l-0.317,0.316l0.317,0.316l-4.811,4.811l-0.54-0.541l-0.54,0.541l-4.8-4.801l0.327-0.326
	l-0.327-0.328l5.01-5.01L66.004,39.895z M65.89,39.348l0.114-0.113l0.115,0.113l-0.115,0.115L65.89,39.348z M71.571,34.328
	l5.021,5.02l-5.021,5.021l-5.021-5.021L71.571,34.328z M71.47,33.795l0.101-0.102l0.101,0.102l-0.101,0.102L71.47,33.795z
	 M71.571,55.057l-4.811-4.811l4.811-4.811l4.811,4.811L71.571,55.057z M71.671,55.588l-0.101,0.102l-0.101-0.102l0.101-0.1
	L71.671,55.588z M71.571,45.004l-0.101-0.102l0.101-0.102l0.101,0.102L71.571,45.004z M66.328,50.246l-0.324,0.324l-0.324-0.324
	l0.324-0.324L66.328,50.246z M60.448,55.045l-4.8-4.799l4.8-4.801l4.799,4.801L60.448,55.045z M60.559,55.588l-0.111,0.113
	l-0.112-0.113l0.112-0.111L60.559,55.588z M60.336,44.902l0.112-0.111l0.111,0.111l-0.111,0.111L60.336,44.902z M55.215,50.246
	l-0.325,0.324l-0.324-0.324l0.324-0.324L55.215,50.246z M49.393,54.986l-4.703-4.703l4.742-4.742l4.703,4.705L49.393,54.986z
	 M49.601,55.627l-0.169,0.17l-0.208-0.209l0.169-0.168L49.601,55.627z M49.223,44.902l0.169-0.17l0.208,0.209l-0.169,0.168
	L49.223,44.902z M44.257,50.283l-0.324,0.324l-0.325-0.324l0.325-0.324L44.257,50.283z M38.366,55.094l-4.811-4.811l4.811-4.811
	l4.811,4.811L38.366,55.094z M38.467,55.627l-0.101,0.102l-0.101-0.102l0.101-0.102L38.467,55.627z M38.265,44.941l0.101-0.102
	l0.101,0.102l-0.101,0.1L38.265,44.941z M33.124,50.283l-0.325,0.324l-0.324-0.324l0.324-0.324L33.124,50.283z M27.243,44.828
	l0.111,0.113l-0.111,0.109l-0.111-0.109L27.243,44.828z M27.243,45.484l4.8,4.799l-4.8,4.801l-4.8-4.801L27.243,45.484z
	 M27.243,55.516l0.111,0.111l-0.111,0.111l-0.111-0.111L27.243,55.516z M27.243,56.17l5.01,5.012l-5.01,5.01l-5.011-5.01
	L27.243,56.17z M38.366,56.16l5.021,5.021l-5.021,5.02l-5.021-5.02L38.366,56.16z M49.432,56.229l4.913,4.914l-4.952,4.951
	l-4.913-4.912L49.432,56.229z M60.448,56.133l5.01,5.01l-5.01,5.01l-5.011-5.01L60.448,56.133z M71.571,56.121l5.021,5.021
	l-5.021,5.021l-5.021-5.021L71.571,56.121z M76.813,50.246l0.324-0.324l0.324,0.324l-0.324,0.324L76.813,50.246z M77.137,49.488
	l-0.541,0.541l-4.81-4.811l0.317-0.316l-0.317-0.316l5.021-5.021l0.33,0.33l0.331-0.33l5.337,5.338l-5.127,5.127L77.137,49.488z
	 M77.023,39.348l0.114-0.113l0.114,0.113l-0.114,0.115L77.023,39.348z M77.137,38.803l-0.33,0.33l-5.021-5.02l0.317-0.318
	l-0.317-0.316l5.351-5.352l5.668,5.668l-5.337,5.338L77.137,38.803z M71.571,33.262l-5.354-5.354h10.708L71.571,33.262z
	 M71.354,33.479l-0.317,0.316l0.317,0.318l-5.021,5.02l-0.33-0.33l-0.33,0.33l-5.01-5.01l0.327-0.328l-0.327-0.326l5.34-5.342
	L71.354,33.479z M60.448,33.252l-5.345-5.344h10.688L60.448,33.252z M60.231,33.469l-0.327,0.326l0.327,0.328l-5.011,5.01
	l-0.33-0.33l-0.33,0.33l-4.914-4.914l0.385-0.385l-0.423-0.424l5.281-5.283L60.231,33.469z M49.393,33.193l-5.285-5.285h10.57
	L49.393,33.193z M49.177,33.41l-0.385,0.385l0.423,0.424l-4.952,4.951l-0.33-0.328l-0.331,0.328l-5.021-5.02l0.317-0.316
	l-0.317-0.318l5.352-5.35L49.177,33.41z M38.366,33.301l-5.393-5.393h10.786L38.366,33.301z M38.15,33.516l-0.317,0.318l0.317,0.316
	l-5.021,5.02l-0.331-0.328l-0.33,0.328l-5.01-5.01l0.327-0.326l-0.327-0.328l5.34-5.34L38.15,33.516z M27.243,33.291l-5.382-5.383
	h10.764L27.243,33.291z M21.801,39.387l-0.114,0.115l-0.114-0.115l0.114-0.113L21.801,39.387z M21.141,39.387l-4.916,4.916v-9.832
	L21.141,39.387z M21.356,39.604l0.331,0.33l0.33-0.33l5.01,5.01L26.7,44.941l0.327,0.326l-4.8,4.801l-0.54-0.541l-0.541,0.541
	l-4.921-4.922v-0.412L21.356,39.604z M22.011,50.283l-0.324,0.324l-0.324-0.324l0.324-0.324L22.011,50.283z M20.93,50.283
	l-4.706,4.707v-9.412L20.93,50.283z M21.146,50.5l0.541,0.541l0.54-0.541l4.8,4.801L26.7,55.627l0.327,0.328l-5.01,5.01l-0.33-0.33
	l-0.331,0.33l-5.132-5.133v-0.41L21.146,50.5z M21.801,61.182l-0.114,0.113l-0.114-0.113l0.114-0.115L21.801,61.182z M21.141,61.182
	l-4.916,4.914v-9.832L21.141,61.182z M27.243,66.846l-0.111-0.111l0.111-0.111l0.111,0.111L27.243,66.846z M38.15,67.051
	l-5.351,5.352l-5.34-5.342l0.327-0.326l-0.327-0.328l5.01-5.01l0.33,0.33l0.331-0.33l5.021,5.021l-0.317,0.316L38.15,67.051z
	 M38.366,66.834l-0.101-0.1l0.101-0.102l0.101,0.102L38.366,66.834z M43.934,72.402l-5.352-5.352l0.317-0.316l-0.317-0.316
	l5.021-5.021l0.331,0.33l0.33-0.33l4.914,4.914l-0.385,0.385l0.423,0.424L43.934,72.402z M49.432,66.904l-0.208-0.209l0.169-0.17
	l0.208,0.209L49.432,66.904z M60.231,67.023l-5.341,5.34l-5.243-5.244l0.385-0.385l-0.423-0.424l4.952-4.951l0.33,0.328l0.33-0.328
	l5.011,5.01l-0.327,0.326L60.231,67.023z M60.448,66.807l-0.112-0.111l0.112-0.111l0.111,0.111L60.448,66.807z M71.354,67.012
	l-5.351,5.352l-5.34-5.34l0.327-0.328l-0.327-0.326l5.01-5.01l0.33,0.328l0.33-0.328l5.021,5.02l-0.317,0.316L71.354,67.012z
	 M71.571,66.797l-0.101-0.102l0.101-0.1l0.101,0.1L71.571,66.797z M77.137,72.363l-5.351-5.352l0.317-0.316l-0.317-0.316l5.021-5.02
	l0.33,0.328l0.331-0.328l5.337,5.336L77.137,72.363z M82.926,66.385l-5.242-5.242l5.242-5.242V66.385z M82.926,55.277l-5.032-5.031
	l5.032-5.033V55.277z M82.926,44.59l-5.242-5.242l5.242-5.24V44.59z M82.926,33.484l-5.576-5.576h5.576V33.484z M83.47,26.633
	H15.883l-4.779-2.973h77.029L83.47,26.633z"/>
</svg>
