<?xml version="1.0" encoding="utf-8"?>
<!-- Generator: Adobe Illustrator 16.0.0, SVG Export Plug-In . SVG Version: 6.00 Build 0)  -->
<!DOCTYPE svg PUBLIC "-//W3C//DTD SVG 1.1//EN" "http://www.w3.org/Graphics/SVG/1.1/DTD/svg11.dtd">
<svg version="1.1" id="Layer_13" xmlns="http://www.w3.org/2000/svg" xmlns:xlink="http://www.w3.org/1999/xlink" x="0px" y="0px"
	 width="100px" height="100px" viewBox="0 0 100 100" enable-background="new 0 0 100 100" xml:space="preserve">
<path d="M73.33,62.745c-0.902-0.903-1.955-1.603-3.128-2.078c-1.134-0.46-2.331-0.692-3.559-0.692s-2.426,0.232-3.559,0.692
	c-1.173,0.476-2.226,1.175-3.128,2.078c-0.903,0.902-1.602,1.954-2.078,3.128c-0.459,1.133-0.692,2.33-0.692,3.559
	s0.233,2.426,0.692,3.56c0.476,1.173,1.175,2.225,2.078,3.128c0.902,0.902,1.955,1.602,3.128,2.077
	c1.133,0.459,2.331,0.692,3.559,0.692s2.425-0.233,3.559-0.692c1.173-0.476,2.226-1.175,3.128-2.077
	c0.903-0.903,1.602-1.955,2.078-3.128c0.459-1.134,0.692-2.331,0.692-3.56s-0.233-2.426-0.692-3.559
	C74.932,64.699,74.233,63.647,73.33,62.745z M62.662,62.338c0.286-0.455,0.615-0.875,1.003-1.246
	c1.598-0.568,3.327-0.664,4.968-0.289c0.349,0.178,0.684,0.379,1.004,0.606c0.099,0.07,0.203,0.136,0.298,0.21l-1.263,2.136
	c-0.017,0-0.035,0-0.053,0c-1.148-0.007-2.287,0.11-3.411,0.343c-0.004,0-0.008,0.001-0.012,0.002l-2.595-1.654
	C62.62,62.408,62.64,62.372,62.662,62.338z M58.275,68.684c-0.188,0.368-0.347,0.747-0.476,1.136
	c-0.072-1.653,0.316-3.323,1.163-4.798l-0.638,3.577C58.306,68.627,58.29,68.654,58.275,68.684z M58.921,68.67l0.752-4.221
	c0.6-0.495,1.234-0.939,1.913-1.32c0.172-0.098,0.34-0.206,0.52-0.288l2.593,1.653c-0.009,0.036-0.019,0.077-0.031,0.124
	c-0.276,1.034-0.473,2.087-0.628,3.146c-0.009,0.062-0.016,0.113-0.021,0.158l-3.427,1.981c-0.483-0.344-0.965-0.691-1.44-1.047
	C59.072,68.798,58.996,68.736,58.921,68.67z M60.38,75.694c-0.336-0.336-0.64-0.692-0.91-1.065c0.495-0.063,0.98-0.169,1.454-0.319
	l3.945,2.114c0.265,0.582,0.566,1.144,0.939,1.666c0.048,0.067,0.102,0.125,0.162,0.17C63.932,78.105,61.936,77.251,60.38,75.694z
	 M65.497,75.602c-0.15,0.078-0.302,0.155-0.455,0.233l-3.811-2.042c-0.003-0.012-0.005-0.023-0.007-0.035
	c-0.207-1.104-0.316-2.218-0.322-3.34l3.525-2.038c0.589,0.317,1.18,0.631,1.772,0.942c0.401,0.212,0.805,0.421,1.209,0.628
	l0.434,4.219C67.085,74.686,66.311,75.175,65.497,75.602z M70.017,74.744c-0.529-0.199-1.052-0.414-1.576-0.627l-0.422-4.109
	c0.064-0.05,0.128-0.101,0.189-0.154c0.549-0.485,1.096-0.974,1.644-1.461c0.005,0.004,0.01,0.008,0.015,0.013
	c0.196-0.197,0.393-0.394,0.59-0.591l3.445,1.145c0.021,0.079,0.039,0.158,0.047,0.239c0.063,0.621,0.135,1.244,0.171,1.868
	c0.021,0.382,0.034,0.766,0.006,1.154l-3.19,2.83C70.626,74.953,70.318,74.857,70.017,74.744z M72.906,75.694
	c-0.781,0.781-1.673,1.386-2.625,1.813c0.364-0.529,0.664-1.094,0.907-1.688c0.038-0.094,0.072-0.188,0.105-0.284l3.141-2.787
	c0.135,0.02,0.271,0.03,0.408,0.034C74.411,73.843,73.765,74.836,72.906,75.694z M75.007,66.596
	c-0.008,0.011-0.015,0.016-0.017,0.022c-0.22,0.637-0.544,1.216-0.928,1.763l-3.219-1.069c-0.001-0.005-0.003-0.011-0.006-0.017
	c-0.09-0.219-0.171-0.441-0.27-0.656c-0.403-0.888-0.85-1.753-1.385-2.567l1.248-2.109c0.066,0.003,0.133,0.014,0.192,0.036
	c0.377,0.143,0.757,0.281,1.127,0.441c0.285,0.124,0.56,0.264,0.828,0.418c0.111,0.1,0.221,0.205,0.328,0.312
	c1.001,1.002,1.712,2.187,2.133,3.446C75.029,66.607,75.019,66.602,75.007,66.596z M7.994,21.111v57.777h2.549V24.813l4.407,2.742
	v47.723h1.274v-7.906l5.463,5.463l5.556-5.557l5.557,5.557l5.566-5.568l5.567,5.568l5.498-5.498l5.46,5.459l0.238-0.238
	c-0.025-0.118-0.053-0.236-0.075-0.356l-0.163,0.163l-5.244-5.244l0.386-0.385l-0.424-0.424l4.952-4.953l0.33,0.33l0.33-0.33
	l1.811,1.811c0.059-0.084,0.122-0.166,0.183-0.248l-1.778-1.777l5.011-5.01l2.571,2.571c0.107-0.035,0.212-0.079,0.32-0.111
	l-2.677-2.677l0.328-0.328l-0.328-0.326l4.801-4.801l0.54,0.541l0.54-0.541l4.811,4.811l-0.316,0.316l0.316,0.318l-2.375,2.375
	c0.12,0.021,0.238,0.05,0.357,0.075l2.235-2.235l5.021,5.021l-0.903,0.903c0.068,0.075,0.139,0.149,0.205,0.226l0.915-0.914
	l0.33,0.33l0.33-0.33l5.338,5.338l-4.074,4.073c-0.009,0.153-0.01,0.307-0.025,0.458l4.219-4.219v8.27H84.2V27.68l5.257-3.354
	v54.563h2.549V21.111H7.994z M27.027,67.061l-5.34,5.342l-5.463-5.463v-0.412l5.132-5.131l0.331,0.33l0.33-0.33l5.01,5.01
	L26.7,66.734L27.027,67.061z M21.688,28.164l5.34,5.342L26.7,33.834l0.327,0.326l-5.01,5.01l-0.33-0.33l-0.331,0.33l-5.132-5.131
	v-0.412L21.688,28.164z M16.225,33.195v-5.287h5.288L16.225,33.195z M77.138,49.488l-0.54,0.541l-4.811-4.811l0.316-0.316
	l-0.316-0.318l5.021-5.02l0.33,0.33l0.33-0.33l5.338,5.338l-5.128,5.127L77.138,49.488z M77.462,50.244l-0.324,0.326l-0.324-0.326
	l0.324-0.322L77.462,50.244z M71.571,44.369l-5.021-5.021l5.021-5.02l5.021,5.02L71.571,44.369z M71.672,44.902l-0.101,0.1
	l-0.102-0.1l0.102-0.102L71.672,44.902z M71.47,33.795l0.102-0.102l0.101,0.102l-0.101,0.102L71.47,33.795z M77.023,39.348
	l0.114-0.113l0.114,0.113l-0.114,0.115L77.023,39.348z M77.138,38.803l-0.33,0.33l-5.021-5.021l0.316-0.316l-0.316-0.316
	l5.351-5.352l5.668,5.668l-5.338,5.338L77.138,38.803z M71.571,33.262l-5.354-5.354h10.708L71.571,33.262z M71.354,33.479
	l-0.316,0.316l0.316,0.316l-5.021,5.021l-0.33-0.33l-0.33,0.33l-5.011-5.01l0.328-0.328l-0.328-0.328l5.341-5.34L71.354,33.479z
	 M66.118,39.348l-0.114,0.115l-0.114-0.115l0.114-0.113L66.118,39.348z M60.448,44.359l-5.011-5.012l5.011-5.01l5.01,5.01
	L60.448,44.359z M60.559,44.902l-0.11,0.111l-0.112-0.111l0.112-0.111L60.559,44.902z M60.231,45.229l-4.8,4.801l-0.54-0.541
	l-0.541,0.541l-4.703-4.703l0.386-0.387l-0.424-0.424l4.952-4.951l0.33,0.33l0.33-0.33l5.01,5.01l-0.327,0.328L60.231,45.229z
	 M55.216,50.244l-0.324,0.326l-0.324-0.326l0.324-0.322L55.216,50.244z M49.393,54.986l-4.703-4.703l4.742-4.742l4.703,4.703
	L49.393,54.986z M49.602,55.627l-0.17,0.17l-0.208-0.209l0.169-0.168L49.602,55.627z M43.934,60.635l-0.33,0.33l-5.021-5.021
	l0.317-0.316l-0.317-0.316l4.812-4.811l0.54,0.539l0.54-0.539l4.704,4.703l-0.386,0.385l0.424,0.424l-4.952,4.953L43.934,60.635z
	 M44.048,61.182l-0.114,0.113l-0.114-0.113l0.114-0.115L44.048,61.182z M32.8,60.635l-0.33,0.33l-5.011-5.012l0.327-0.326
	l-0.327-0.328L32.26,50.5l0.54,0.539l0.54-0.539l4.811,4.811l-0.316,0.316l0.316,0.316l-5.021,5.021L32.8,60.635z M32.914,61.182
	L32.8,61.295l-0.114-0.113l0.114-0.115L32.914,61.182z M27.243,34.377l5.011,5.01l-5.011,5.01l-5.011-5.01L27.243,34.377z
	 M27.132,33.834l0.111-0.113l0.111,0.113l-0.111,0.111L27.132,33.834z M32.8,39.932l0.33-0.328l5.021,5.02l-0.316,0.316l0.316,0.316
	l-4.811,4.813l-0.54-0.541l-0.54,0.541l-4.801-4.801l0.327-0.328l-0.327-0.326l5.011-5.01L32.8,39.932z M32.686,39.387l0.114-0.115
	l0.114,0.115L32.8,39.502L32.686,39.387z M38.366,34.365l5.021,5.021l-5.021,5.02l-5.021-5.02L38.366,34.365z M38.266,33.834
	l0.101-0.102l0.102,0.102l-0.102,0.1L38.266,33.834z M43.934,39.932l0.33-0.328l4.914,4.912l-0.386,0.387l0.424,0.424l-4.742,4.742
	l-0.54-0.541l-0.54,0.541l-4.812-4.813l0.317-0.316l-0.317-0.316l5.021-5.02L43.934,39.932z M43.819,39.387l0.114-0.115l0.114,0.115
	l-0.114,0.115L43.819,39.387z M49.432,34.434l4.913,4.914l-4.952,4.953l-4.913-4.914L49.432,34.434z M49.224,33.795l0.169-0.17
	l0.209,0.209l-0.17,0.17L49.224,33.795z M49.602,44.939l-0.17,0.17l-0.208-0.207l0.169-0.17L49.602,44.939z M44.258,50.283
	l-0.324,0.324l-0.325-0.324l0.325-0.324L44.258,50.283z M38.366,55.094l-4.811-4.811l4.811-4.811l4.811,4.811L38.366,55.094z
	 M38.468,55.627l-0.102,0.102l-0.101-0.102l0.101-0.102L38.468,55.627z M38.266,44.939l0.101-0.1l0.102,0.1l-0.102,0.102
	L38.266,44.939z M33.124,50.283L32.8,50.607l-0.324-0.324l0.324-0.324L33.124,50.283z M27.243,44.828l0.111,0.111l-0.111,0.111
	l-0.111-0.111L27.243,44.828z M27.243,45.482l4.801,4.801l-4.801,4.801l-4.8-4.801L27.243,45.482z M27.243,55.516l0.111,0.111
	l-0.111,0.111l-0.111-0.111L27.243,55.516z M27.243,56.17l5.011,5.012l-5.011,5.01l-5.011-5.01L27.243,56.17z M38.366,56.16
	l5.021,5.021l-5.021,5.02l-5.021-5.02L38.366,56.16z M54.777,39.348l0.114-0.113l0.114,0.113l-0.114,0.115L54.777,39.348z
	 M60.336,33.795l0.112-0.111l0.11,0.111l-0.11,0.111L60.336,33.795z M60.448,33.252l-5.345-5.344h10.688L60.448,33.252z
	 M60.231,33.467l-0.327,0.328l0.327,0.328l-5.01,5.01l-0.33-0.33l-0.33,0.33l-4.914-4.914l0.386-0.385l-0.424-0.424l5.282-5.283
	L60.231,33.467z M49.393,33.193l-5.285-5.285h10.571L49.393,33.193z M49.178,33.41l-0.386,0.385l0.424,0.424l-4.952,4.951
	l-0.33-0.33l-0.33,0.33l-5.021-5.02l0.317-0.316l-0.317-0.318l5.352-5.352L49.178,33.41z M38.366,33.301l-5.393-5.393h10.785
	L38.366,33.301z M38.15,33.516l-0.316,0.318l0.316,0.316l-5.021,5.02l-0.33-0.33l-0.33,0.33l-5.011-5.01l0.327-0.326l-0.327-0.328
	l5.341-5.342L38.15,33.516z M27.243,33.291l-5.382-5.383h10.764L27.243,33.291z M21.801,39.387l-0.113,0.115l-0.114-0.115
	l0.114-0.115L21.801,39.387z M21.141,39.387l-4.916,4.916v-9.832L21.141,39.387z M21.356,39.604l0.331,0.328l0.33-0.328l5.01,5.01
	L26.7,44.939l0.327,0.328l-4.8,4.801l-0.54-0.541l-0.541,0.541l-4.922-4.922v-0.412L21.356,39.604z M22.012,50.283l-0.324,0.324
	l-0.325-0.324l0.325-0.324L22.012,50.283z M20.931,50.283l-4.706,4.707v-9.412L20.931,50.283z M21.146,50.5l0.541,0.539l0.54-0.539
	l4.8,4.799L26.7,55.627l0.327,0.326l-5.01,5.012l-0.33-0.33l-0.331,0.33l-5.132-5.133V55.42L21.146,50.5z M21.801,61.182
	l-0.113,0.113l-0.114-0.113l0.114-0.115L21.801,61.182z M21.141,61.182l-4.916,4.914v-9.832L21.141,61.182z M27.243,66.846
	l-0.111-0.111l0.111-0.113l0.111,0.113L27.243,66.846z M38.15,67.051L32.8,72.402l-5.341-5.342l0.327-0.326l-0.327-0.328l5.011-5.01
	l0.33,0.33l0.33-0.33l5.021,5.021l-0.316,0.316L38.15,67.051z M38.366,66.834l-0.101-0.1l0.101-0.102l0.102,0.102L38.366,66.834z
	 M43.934,72.402l-5.352-5.352l0.317-0.316l-0.317-0.316l5.021-5.021l0.33,0.33l0.33-0.33l4.914,4.914l-0.386,0.385l0.424,0.424
	L43.934,72.402z M49.432,66.902l-0.208-0.207l0.169-0.17l0.209,0.209L49.432,66.902z M49.393,66.094l-4.913-4.912l4.952-4.953
	l4.913,4.914L49.393,66.094z M54.892,61.256l-0.114-0.113l0.114-0.115l0.114,0.115L54.892,61.256z M60.231,55.916l-5.01,5.01
	l-0.33-0.33l-0.33,0.33l-4.914-4.914l0.386-0.385l-0.424-0.424l4.741-4.742l0.541,0.541l0.54-0.541l4.8,4.801l-0.327,0.326
	L60.231,55.916z M60.448,55.699l-0.112-0.111l0.112-0.111l0.11,0.111L60.448,55.699z M60.448,55.045l-4.801-4.801l4.801-4.799
	l4.8,4.799L60.448,55.045z M66.004,50.57l-0.324-0.326l0.324-0.322l0.324,0.322L66.004,50.57z M66.004,49.488l-0.54,0.541
	l-4.801-4.801l0.328-0.326l-0.328-0.328l5.011-5.01l0.33,0.33l0.33-0.33l5.021,5.02l-0.316,0.318l0.316,0.316l-4.811,4.811
	L66.004,49.488z M66.761,50.244l4.811-4.811l4.811,4.811l-4.811,4.813L66.761,50.244z M71.571,55.689l-0.102-0.102l0.102-0.1
	l0.101,0.1L71.571,55.689z M77.138,61.256l-0.114-0.113l0.114-0.115l0.114,0.115L77.138,61.256z M77.138,60.596l-0.33,0.33
	l-5.021-5.02l0.316-0.318l-0.316-0.316l4.811-4.811l0.54,0.541l0.54-0.541l5.128,5.127l-5.338,5.338L77.138,60.596z M82.926,66.385
	l-5.242-5.242l5.242-5.242V66.385z M82.926,55.277l-5.032-5.033l5.032-5.031V55.277z M82.926,44.59l-5.242-5.242l5.242-5.24V44.59z
	 M82.926,33.484l-5.576-5.576h5.576V33.484z M83.471,26.633H15.883l-4.779-2.973h77.029L83.471,26.633z"/>
</svg>
