<?xml version="1.0" encoding="utf-8"?>
<!-- Generator: Adobe Illustrator 16.0.0, SVG Export Plug-In . SVG Version: 6.00 Build 0)  -->
<!DOCTYPE svg PUBLIC "-//W3C//DTD SVG 1.1//EN" "http://www.w3.org/Graphics/SVG/1.1/DTD/svg11.dtd">
<svg version="1.1" id="Layer_12" xmlns="http://www.w3.org/2000/svg" xmlns:xlink="http://www.w3.org/1999/xlink" x="0px" y="0px"
	 width="100px" height="100px" viewBox="0 0 100 100" enable-background="new 0 0 100 100" xml:space="preserve">
<path d="M72.241,7.5H27.759c0,21.191,6.725,38.63,19.474,40.824v34.973c-4.171,0.245-7.24,1.069-7.24,2.052
	c0,0.088,0.03,0.169,0.073,0.253c-4.526,0.684-7.492,1.821-7.492,3.108c0,2.093,7.8,3.79,17.427,3.79
	c9.62,0,17.426-1.697,17.426-3.79c0-1.326-3.144-2.49-7.894-3.164c0.025-0.064,0.046-0.132,0.046-0.197
	c0-0.95-2.865-1.752-6.813-2.025V48.324C65.516,46.132,72.241,28.693,72.241,7.5z M38.157,34.574
	c-0.132,0.058-0.27,0.085-0.404,0.085c-0.384,0-0.75-0.223-0.915-0.597c-5.019-11.375-5.563-22.556-5.584-23.026
	c-0.024-0.551,0.403-1.019,0.954-1.043c0.543-0.031,1.02,0.402,1.044,0.955c0.005,0.112,0.556,11.29,5.416,22.307
	C38.891,33.761,38.661,34.351,38.157,34.574z"/>
</svg>
