<?xml version="1.0" encoding="utf-8"?>
<!-- Generator: Adobe Illustrator 16.0.0, SVG Export Plug-In . SVG Version: 6.00 Build 0)  -->
<!DOCTYPE svg PUBLIC "-//W3C//DTD SVG 1.1//EN" "http://www.w3.org/Graphics/SVG/1.1/DTD/svg11.dtd">
<svg version="1.1" id="Layer_13" xmlns="http://www.w3.org/2000/svg" xmlns:xlink="http://www.w3.org/1999/xlink" x="0px" y="0px"
	 width="100px" height="100px" viewBox="0 0 100 100" enable-background="new 0 0 100 100" xml:space="preserve">
<path d="M48.093,81.249c-2.564-1.354-3.708-1.365-5.809,0.236c-0.314-0.076-0.628-0.157-0.94-0.243
	c-0.243-1.074,0.145-2.157,1.104-2.986c1.323-1.138,3.595-1.333,4.877-0.416C48.432,78.631,48.695,79.799,48.093,81.249z
	 M57.5,76.638c-1.236-0.669-3.148-0.295-4.464,0.872c-1.282,1.136-1.678,2.558-1.056,4.245c1.755-2.241,3.776-3.261,6.423-1.861
	C58.842,78.181,58.554,77.205,57.5,76.638z M36.757,78.279c-0.968-0.758-2.434-0.956-3.66-0.589
	c1.521,0.923,3.124,1.725,4.794,2.391C37.776,79.401,37.395,78.78,36.757,78.279z M66.212,74.802
	c-1.575-0.174-2.713,0.726-3.63,1.882c-0.823,1.038-1.289,2.173-0.885,3.559c0.293-0.113,0.584-0.229,0.873-0.349
	c1.086-1.275,2.261-2.258,3.995-2.004c0.359-0.212,0.716-0.428,1.065-0.652C67.923,75.921,67.41,74.935,66.212,74.802z
	 M64.215,68.872c0.079-1.519-0.451-2.552-1.764-2.96c-1.595-0.495-2.898,0.196-3.932,1.378c-1.037,1.188-1.531,2.541-1.069,3.938
	c0.947-0.923,1.784-1.976,2.843-2.708C61.531,67.661,62.902,68.062,64.215,68.872z M69.165,57.624
	c-0.11-1.395-0.44-2.563-1.728-3.175c-1.146-0.546-2.184-0.216-3.101,0.58c-1.267,1.1-1.693,2.697-1.203,4.449
	C64.957,56.216,66.701,55.646,69.165,57.624z M67.471,69.872c1.521-3.314,2.863-4.137,5.316-3.187
	c0.016-2.021-1.021-3.096-2.488-2.713C68.127,64.538,66.585,67.757,67.471,69.872z M76.386,55.547
	c-0.13-0.554-0.112-1.066-0.354-1.378c-0.514-0.664-1.129-1.664-1.764-1.712c-0.734-0.056-1.744,0.596-2.263,1.239
	c-0.916,1.139-0.947,2.584-0.648,4.156C72.861,54.437,73.999,53.903,76.386,55.547z M74.784,41.029
	c-1.252,0.188-1.845,1.824-1.465,4.051c1.431-2.374,2.239-2.471,4.329-0.411C77.326,42.31,76.116,40.833,74.784,41.029z
	 M48.531,67.684c-1.645,1.044-2.306,2.983-1.613,4.739c1.418-3.988,2.864-4.94,6.436-4.077
	C52.009,66.848,50.174,66.643,48.531,67.684z M37.238,68.342c-1.522,1.075-2.005,3-1.127,4.488c0.309-3.498,2.507-4.85,6.248-3.844
	C41.025,67.436,38.9,67.168,37.238,68.342z M58.875,57.04c-1.093-1.316-2.794-1.623-4.287-0.819
	c-1.731,0.934-2.706,3.491-1.769,5.179C53.379,57.578,55.313,56.223,58.875,57.04z M70.459,43.936
	c-0.91-0.967-1.87-1.36-3.022-0.685c-1.344,0.787-1.841,2.768-1.194,4.535C66.851,44.472,67.702,43.672,70.459,43.936z
	 M75.706,31.504c0.026-0.109,0.054-0.218,0.081-0.328c-0.66-0.13-1.572-0.598-1.936-0.327c-1.088,0.81-0.684,2.01-0.321,3.491
	C73.646,31.866,74.044,31.414,75.706,31.504z M84.861,50.032c0,19.224-15.639,34.861-34.861,34.861
	c-19.224,0-34.861-15.638-34.861-34.861c0-11.481,5.582-21.685,14.172-28.039C35.084,17.67,42.249,15.106,50,15.106
	c7.514,0,14.477,2.411,20.155,6.496C79.049,27.926,84.861,38.313,84.861,50.032z M79.351,63.835
	c-0.01-0.561-0.327-1.188-0.467-1.776c-0.954,2.32-1.13,4.967-4.819,5.384c0.684,0.871,1.122,1.942,1.669,2.001
	c0.075,0.008,0.157,0.006,0.24,0.001C77.279,67.702,78.412,65.822,79.351,63.835z M81.738,56.742
	c0.271-1.284,0.465-2.596,0.58-3.931c-0.111-0.85-0.367-1.636-0.786-2.205c-0.389,2.047,0.104,4.602-3.139,5.205
	c0.185,0.43,0.337,0.995,0.646,1.458c0.623,0.936,1.477,0.963,2.232,0.15C81.448,57.23,81.604,56.999,81.738,56.742z M50,82.471
	c7.364,0,14.161-2.468,19.612-6.618c-0.248,0.186-0.496,0.373-0.751,0.554c0.068-0.12,0.135-0.24,0.207-0.354
	c0.622-0.989,1.28-2.237,2.24-2.677c2.543-1.16,2.967-2.928,2.537-5.277c-0.433-2.367-0.089-4.454,1.672-6.197
	c1.933-1.915,2.368-4.217,1.823-6.813c-0.407-1.938,0.156-3.672,1.484-5.091c0.757-0.809,1.644-1.538,2.584-2.125
	c0.345-0.216,0.644-0.449,0.901-0.697c-0.188-2.132-0.58-4.205-1.161-6.199c-0.691-0.412-1.18-0.053-1.795,0.993
	c-0.067-0.033-0.193-0.068-0.193-0.1c0.014-1.156-0.498-2.819,0.906-3.142c0.115-0.026,0.22-0.036,0.32-0.041
	C75.778,26.38,63.896,17.595,50,17.595c-17.888,0-32.438,14.552-32.438,32.438c0,7.848,2.802,15.053,7.456,20.669
	c0.025-1.133,0.532-2.018,1.465-2.617c1.578-1.014,3.288-0.745,5.161,1.07c-1.653-0.725-2.979-0.991-4.302-0.254
	c-0.985,0.549-1.539,1.343-1.801,2.415c1.443,1.657,3.053,3.166,4.8,4.5c0.886,0.669,1.804,1.299,2.756,1.875
	c-0.007,0.003-0.011,0.005-0.019,0.007C38.009,80.724,43.804,82.471,50,82.471z"/>
</svg>
