<?xml version="1.0" encoding="utf-8"?>
<!-- Generator: Adobe Illustrator 16.0.0, SVG Export Plug-In . SVG Version: 6.00 Build 0)  -->
<!DOCTYPE svg PUBLIC "-//W3C//DTD SVG 1.1//EN" "http://www.w3.org/Graphics/SVG/1.1/DTD/svg11.dtd">
<svg version="1.1" id="Layer_13" xmlns="http://www.w3.org/2000/svg" xmlns:xlink="http://www.w3.org/1999/xlink" x="0px" y="0px"
	 width="100px" height="100px" viewBox="0 0 100 100" enable-background="new 0 0 100 100" xml:space="preserve">
<path d="M85.846,12.687l-10.21,16.345c-0.35,0.564-0.887,0.946-1.478,1.121L38.5,89.931c0.059,0.159,0.077,0.334,0.046,0.514
	c-0.097,0.567-0.636,0.952-1.206,0.855c-0.002,0.001-0.008,0-0.009-0.003L18.5,89.165c-0.537-0.092-0.918-0.584-0.868-1.128
	c0.021-0.224,0.537-7.094,3.548-9.41c1.21-0.932,6.433,1.384,8.264,2.339l6.744,3.834l34.651-56.778
	c-0.086-0.593,0.018-1.214,0.36-1.764l10.21-16.344c0.767-1.227,2.382-1.597,3.605-0.833S86.611,11.459,85.846,12.687z"/>
</svg>
