<?xml version="1.0" encoding="utf-8"?>
<!-- Generator: Adobe Illustrator 16.0.0, SVG Export Plug-In . SVG Version: 6.00 Build 0)  -->
<!DOCTYPE svg PUBLIC "-//W3C//DTD SVG 1.1//EN" "http://www.w3.org/Graphics/SVG/1.1/DTD/svg11.dtd">
<svg version="1.1" id="Layer_13" xmlns="http://www.w3.org/2000/svg" xmlns:xlink="http://www.w3.org/1999/xlink" x="0px" y="0px"
	 width="100px" height="100px" viewBox="0 0 100 100" enable-background="new 0 0 100 100" xml:space="preserve">
<path d="M84.9,12.066L74.516,28.695c-0.357,0.574-0.904,0.962-1.504,1.14L39.684,85.707c0.059,0.163,2.629,2.896,1.217,4.634
	c-1.324,1.66-4.604,1.64-5.445,1.664L17.467,91.48c-0.197-0.012-1.674-0.19-1.959-1.146c-0.066-0.219-3.299-7.734,3.609-7.744
	l16.922,1.487l33.596-56.41c-0.088-0.602,0.018-1.235,0.365-1.792L80.389,9.247c0.779-1.247,2.42-1.625,3.666-0.848
	C85.299,9.178,85.68,10.819,84.9,12.066z"/>
</svg>
