<?xml version="1.0" encoding="utf-8"?>
<!-- Generator: Adobe Illustrator 16.0.0, SVG Export Plug-In . SVG Version: 6.00 Build 0)  -->
<!DOCTYPE svg PUBLIC "-//W3C//DTD SVG 1.1//EN" "http://www.w3.org/Graphics/SVG/1.1/DTD/svg11.dtd">
<svg version="1.1" id="Layer_13" xmlns="http://www.w3.org/2000/svg" xmlns:xlink="http://www.w3.org/1999/xlink" x="0px" y="0px"
	 width="100px" height="100px" viewBox="0 0 100 100" enable-background="new 0 0 100 100" xml:space="preserve">
<path d="M84.53,11.449L74.144,28.078c-0.356,0.573-0.903,0.962-1.503,1.139L39.313,85.09l-4.229,6.297c0,0-11.14,3.616-16.283-1.526
	c-5.476-5.475-6.399-16.161,7.441-11.228c0.211,0.076,0.431,0.156,0.654,0.242c0,0,6.614,2.932,8.771,4.584l33.596-56.41
	c-0.088-0.602,0.016-1.235,0.365-1.792L80.017,8.629c0.779-1.247,2.421-1.624,3.666-0.847S85.309,10.202,84.53,11.449z"/>
</svg>
