<?xml version="1.0" encoding="utf-8"?>
<!-- Generator: Adobe Illustrator 16.0.0, SVG Export Plug-In . SVG Version: 6.00 Build 0)  -->
<!DOCTYPE svg PUBLIC "-//W3C//DTD SVG 1.1//EN" "http://www.w3.org/Graphics/SVG/1.1/DTD/svg11.dtd">
<svg version="1.1" id="Layer_13" xmlns="http://www.w3.org/2000/svg" xmlns:xlink="http://www.w3.org/1999/xlink" x="0px" y="0px"
	 width="100px" height="100px" viewBox="0 0 100 100" enable-background="new 0 0 100 100" xml:space="preserve">
<path d="M37.643,83.758V13.112c0.547-0.254,0.93-0.804,0.93-1.446V8.345c0-0.88-0.714-1.595-1.594-1.595h-2.657
	c-0.881,0-1.595,0.715-1.595,1.595v3.321c0,0.643,0.382,1.192,0.93,1.446v70.646c-4.722,0.351-8.969,1.953-8.969,4.709
	c0,3.141,5.514,4.783,10.962,4.783c5.447,0,10.962-1.643,10.962-4.783C46.612,85.711,42.364,84.108,37.643,83.758z M35.65,90.858
	c-5.567,0-8.57-1.697-8.57-2.392c0-0.607,2.291-1.978,6.577-2.315v2.315h3.986v-2.315c4.287,0.338,6.577,1.708,6.577,2.315
	C44.22,89.161,41.217,90.858,35.65,90.858z M75.312,33.191c0,0.043-0.008,0.084-0.012,0.124c0.021,0.177,0.008,0.358-0.055,0.536
	c-0.042,0.119-1.064,2.949-4.228,3.979c-0.751,0.245-1.551,0.368-2.398,0.368c-2.713,0-5.907-1.257-9.532-3.758
	c-10.508-7.245-16.903-0.472-17.171-0.181c-0.333,0.364-0.857,0.487-1.317,0.309c-0.459-0.178-0.764-0.618-0.764-1.112V12.33
	c0-0.018,0.004-0.035,0.005-0.054c-0.002-0.041,0.01-0.079,0.012-0.12c0.004-0.028,0.006-0.056,0.012-0.082
	c0.026-0.24,0.104-0.477,0.278-0.67c0.079-0.088,8.019-8.657,20.302-0.184c4.051,2.793,7.449,3.859,9.831,3.084
	c2.019-0.658,2.706-2.477,2.711-2.496c0.193-0.549,0.752-0.883,1.33-0.783c0.575,0.097,0.995,0.596,0.995,1.18V33.191z"/>
</svg>
