<?xml version="1.0" encoding="utf-8"?>
<!-- Generator: Adobe Illustrator 16.0.0, SVG Export Plug-In . SVG Version: 6.00 Build 0)  -->
<!DOCTYPE svg PUBLIC "-//W3C//DTD SVG 1.1//EN" "http://www.w3.org/Graphics/SVG/1.1/DTD/svg11.dtd">
<svg version="1.1" id="Layer_12" xmlns="http://www.w3.org/2000/svg" xmlns:xlink="http://www.w3.org/1999/xlink" x="0px" y="0px"
	 width="100px" height="100px" viewBox="0 0 100 100" enable-background="new 0 0 100 100" xml:space="preserve">
<path d="M90.389,43.125h0.851l0.896,10.75h-8.29l0.896-10.75h0.851c-0.398-0.486-0.644-1.088-0.644-1.75
	c0-1.298,0.917-2.383,2.167-2.74V23.432h2v15.277c1.123,0.423,1.917,1.455,1.917,2.667C91.033,42.037,90.787,42.639,90.389,43.125z
	 M20.875,38.309l26.381,3.872l27.881-3.872c0,0-0.392-4.587-3.651-15.725h19.546v-5.537H7.864v5.537h16.662L20.875,38.309z
	 M83.989,58.599c-0.527-0.156-1.085,0.148-1.241,0.678c-0.155,0.53,0.148,1.085,0.678,1.241c1.524,0.447,2.791,1.433,3.566,2.774
	c0.772,1.338,0.965,2.87,0.542,4.313c-0.424,1.445-1.413,2.632-2.784,3.341c-0.59,0.305-1.019,0.46-1.515,0.551
	c-0.1,0.017-0.164,0.023-0.17,0.023H82.17c-0.046-0.013-0.084-0.04-0.133-0.046c-0.401-0.053-1.866-0.81-2.757-1.681
	c-1.415-1.311-2.193-3.088-2.193-5.003c0-3.766,3.064-6.83,6.83-6.83c0.552,0,1-0.448,1-1s-0.448-1-1-1H16.93
	c-4.869,0-8.83,3.961-8.83,8.83s3.961,8.83,8.83,8.83h17.822c0.552,0,1-0.448,1-1s-0.448-1-1-1H16.93c-3.766,0-6.83-3.064-6.83-6.83
	s3.064-6.83,6.83-6.83h61.396c-1.977,1.621-3.239,4.08-3.239,6.83c0,2.442,1.033,4.8,2.814,6.451
	c0.095,0.093,0.203,0.186,0.31,0.279H55.828c-0.552,0-1,0.448-1,1s0.448,1,1,1h27.238c0,0,0.003,0,0.009,0
	c0.04,0,0.213-0.003,0.511-0.054c0.71-0.13,1.313-0.346,2.083-0.744c1.862-0.962,3.206-2.58,3.785-4.555
	c0.579-1.974,0.32-4.061-0.729-5.876C87.691,60.502,86.009,59.191,83.989,58.599z M52.583,74.674
	c0.797-0.853,1.284-1.973,1.415-3.247c0.817-0.987,1.274-2.119,1.324-3.285c0.053-1.242-0.362-2.483-1.202-3.6
	c-0.019-1.777-0.615-3.261-1.728-4.301c-1.724-1.61-4.538-1.885-7.388-0.742c-2.939-0.958-5.729-0.498-7.346,1.236
	c-0.797,0.853-1.284,1.973-1.416,3.247c-0.817,0.987-1.273,2.12-1.323,3.285c-0.067,1.554,0.573,3.056,1.854,4.352
	c0.162,1.447,0.741,2.67,1.681,3.548c0.236,0.221,0.496,0.412,0.769,0.583l-3.145,7.777l4.345-1.402l2.384,3.224l0.953-8.856
	c0.595-0.099,1.201-0.255,1.813-0.483c0.656,0.191,1.296,0.289,1.926,0.341l0.914,8.485l2.383-3.224l4.346,1.402l-3.157-7.804
	C52.197,75.046,52.399,74.871,52.583,74.674z"/>
</svg>
