<?xml version="1.0" encoding="utf-8"?>
<!-- Generator: Adobe Illustrator 16.0.0, SVG Export Plug-In . SVG Version: 6.00 Build 0)  -->
<!DOCTYPE svg PUBLIC "-//W3C//DTD SVG 1.1//EN" "http://www.w3.org/Graphics/SVG/1.1/DTD/svg11.dtd">
<svg version="1.1" id="Layer_13" xmlns="http://www.w3.org/2000/svg" xmlns:xlink="http://www.w3.org/1999/xlink" x="0px" y="0px"
	 width="100px" height="100px" viewBox="0 0 100 100" enable-background="new 0 0 100 100" xml:space="preserve">
<path d="M76.393,61.797c-1.264,0-2.483,0.192-3.634,0.542l-14.912-28.18c2.063-2.234,3.336-5.209,3.336-8.482
	c0-6.907-5.619-12.526-12.525-12.526c-6.907,0-12.526,5.619-12.526,12.526c0,4.093,1.982,7.722,5.027,10.009L27.077,62.297
	c-1.104-0.319-2.265-0.5-3.47-0.5c-6.907,0-12.525,5.619-12.525,12.526S16.7,86.849,23.607,86.849
	c6.906,0,12.525-5.619,12.525-12.526c0-4.158-2.044-7.838-5.172-10.118l14.048-26.549c1.156,0.354,2.38,0.546,3.649,0.546
	c2.054,0,3.99-0.507,5.702-1.388l14.546,27.49c-3.052,2.287-5.039,5.919-5.039,10.018c0,6.907,5.619,12.526,12.525,12.526
	c6.907,0,12.525-5.619,12.525-12.526S83.3,61.797,76.393,61.797z M23.607,82.167c-4.326,0-7.844-3.519-7.844-7.844
	c0-4.326,3.519-7.844,7.844-7.844s7.845,3.518,7.845,7.844C31.452,78.649,27.933,82.167,23.607,82.167z M40.813,25.677
	c0-4.326,3.519-7.844,7.845-7.844s7.844,3.519,7.844,7.844c0,4.326-3.519,7.844-7.844,7.844S40.813,30.003,40.813,25.677z
	 M76.393,82.167c-4.326,0-7.845-3.519-7.845-7.844c0-4.326,3.519-7.844,7.845-7.844s7.844,3.518,7.844,7.844
	C84.237,78.649,80.719,82.167,76.393,82.167z"/>
</svg>
