<?xml version="1.0" encoding="utf-8"?>
<!-- Generator: Adobe Illustrator 16.0.0, SVG Export Plug-In . SVG Version: 6.00 Build 0)  -->
<!DOCTYPE svg PUBLIC "-//W3C//DTD SVG 1.1//EN" "http://www.w3.org/Graphics/SVG/1.1/DTD/svg11.dtd">
<svg version="1.1" id="Layer_12" xmlns="http://www.w3.org/2000/svg" xmlns:xlink="http://www.w3.org/1999/xlink" x="0px" y="0px"
	 width="100px" height="100px" viewBox="0 0 100 100" enable-background="new 0 0 100 100" xml:space="preserve">
<path d="M79.937,55.129l3.864,3.864h-11.03c-3.861,0-5.737-2.158-8.113-4.891c-1.184-1.361-2.507-2.873-4.188-4.109
	c1.682-1.236,3.005-2.748,4.188-4.109c2.376-2.732,4.252-4.891,8.113-4.891h11.044l-3.878,3.878l3.535,3.535l9.901-9.899
	l-9.901-9.899l-3.535,3.535l3.851,3.851H72.771c-6.139,0-9.326,3.665-11.887,6.609c-2.376,2.732-4.252,4.891-8.113,4.891H41.109
	c-1.428-8.156-8.544-14.38-17.103-14.38c-9.583,0-17.38,7.796-17.38,17.38s7.797,17.38,17.38,17.38
	c8.906,0,16.26-6.736,17.256-15.38h11.508c3.861,0,5.737,2.158,8.113,4.891c2.561,2.944,5.748,6.609,11.887,6.609h11.03
	l-3.864,3.864l3.535,3.535l9.901-9.899l-9.901-9.899L79.937,55.129z M24.007,61.378c-6.002,0-10.885-4.882-10.885-10.885
	s4.883-10.885,10.885-10.885s10.885,4.882,10.885,10.885S30.009,61.378,24.007,61.378z"/>
</svg>
