<?xml version="1.0" encoding="utf-8"?>
<!-- Generator: Adobe Illustrator 16.0.0, SVG Export Plug-In . SVG Version: 6.00 Build 0)  -->
<!DOCTYPE svg PUBLIC "-//W3C//DTD SVG 1.1//EN" "http://www.w3.org/Graphics/SVG/1.1/DTD/svg11.dtd">
<svg version="1.1" id="Layer_12" xmlns="http://www.w3.org/2000/svg" xmlns:xlink="http://www.w3.org/1999/xlink" x="0px" y="0px"
	 width="100px" height="100px" viewBox="0 0 100 100" enable-background="new 0 0 100 100" xml:space="preserve">
<path d="M56.94,15.561c-12.728,0-23.401,8.939-26.09,20.867l-4.319-5.27l-3.867,3.17l9.904,12.083l12.083-9.904l-3.17-3.867
	l-5.705,4.676c2.264-9.592,10.891-16.755,21.164-16.755c11.992,0,21.749,9.757,21.749,21.749c0,11.993-9.757,21.75-21.749,21.75
	h-6.147c-1.428-8.156-8.544-14.38-17.104-14.38c-9.582,0-17.379,7.796-17.379,17.38s7.797,17.38,17.379,17.38
	c8.906,0,16.26-6.736,17.257-15.38h5.994c14.749,0,26.749-12,26.749-26.75C83.689,27.561,71.689,15.561,56.94,15.561z
	 M33.689,77.944c-6.002,0-10.885-4.882-10.885-10.885s4.883-10.885,10.885-10.885s10.885,4.882,10.885,10.885
	S39.691,77.944,33.689,77.944z"/>
</svg>
