<?xml version="1.0" encoding="utf-8"?>
<!-- Generator: Adobe Illustrator 16.0.0, SVG Export Plug-In . SVG Version: 6.00 Build 0)  -->
<!DOCTYPE svg PUBLIC "-//W3C//DTD SVG 1.1//EN" "http://www.w3.org/Graphics/SVG/1.1/DTD/svg11.dtd">
<svg version="1.1" id="Layer_12" xmlns="http://www.w3.org/2000/svg" xmlns:xlink="http://www.w3.org/1999/xlink" x="0px" y="0px"
	 width="100px" height="100px" viewBox="0 0 100 100" enable-background="new 0 0 100 100" xml:space="preserve">
<path d="M78.085,33.93c-8.074,0-14.757,5.992-15.884,13.758H37.798c-1.127-7.766-7.81-13.758-15.884-13.758
	c-8.86,0-16.069,7.209-16.069,16.07s7.209,16.07,16.069,16.07c8.074,0,14.756-5.99,15.883-13.758h24.404
	c1.127,7.768,7.81,13.758,15.883,13.758c8.86,0,16.069-7.209,16.069-16.07S86.946,33.93,78.085,33.93z M21.915,60.064
	c-5.549,0-10.064-4.514-10.064-10.064s4.515-10.064,10.064-10.064c5.55,0,10.064,4.514,10.064,10.064S27.464,60.064,21.915,60.064z
	 M78.085,60.064c-5.55,0-10.064-4.514-10.064-10.064s4.515-10.064,10.064-10.064c5.549,0,10.064,4.514,10.064,10.064
	S83.635,60.064,78.085,60.064z"/>
</svg>
