<?xml version="1.0" encoding="utf-8"?>
<!-- Generator: Adobe Illustrator 16.0.0, SVG Export Plug-In . SVG Version: 6.00 Build 0)  -->
<!DOCTYPE svg PUBLIC "-//W3C//DTD SVG 1.1//EN" "http://www.w3.org/Graphics/SVG/1.1/DTD/svg11.dtd">
<svg version="1.1" id="Layer_11" xmlns="http://www.w3.org/2000/svg" xmlns:xlink="http://www.w3.org/1999/xlink" x="0px" y="0px"
	 width="100px" height="100px" viewBox="0 0 100 100" enable-background="new 0 0 100 100" xml:space="preserve">
<path d="M89.038,37.502H11.105c0-14.156,11.475-25.631,25.631-25.631h26.672C77.563,11.871,89.038,23.346,89.038,37.502z
	 M10.475,68.891c0,10.627,8.613,19.238,19.238,19.238h40.719c10.624,0,19.237-8.611,19.237-19.238H10.475z M89.045,57.057
	c-1.956,0.348-3.938,0.563-5.884,0.697c-4.754,0.326-9.834,0.275-14.504-1.029h-1.846c-5.616,2.992-12.736,3.348-18.826,2.102
	c-1.644-0.336-3.483-1.377-5.299-2.102h-5.834c-3.781,1.492-6.856,3.266-11.26,2.523c-1.808-0.305-2.897-1.287-3.393-2.523h-9.283
	c-2.888,0-5.229,2.342-5.229,5.229c0,2.889,2.342,5.23,5.229,5.23h74.31c2.889,0,5.229-2.342,5.229-5.23
	C92.456,59.707,91.036,57.795,89.045,57.057z M83.559,53.461l5.816,1.451c1.145,0.285,2.305-0.41,2.59-1.555
	c0.286-1.145-0.41-2.305-1.555-2.59l-6.55-1.635c-0.478-0.117-0.979-0.068-1.424,0.139c-2.848,1.334-6.426,2.773-7.748,3.029
	c-0.97-0.48-3.167-1.098-8.795-1.646c-0.32-0.031-0.645,0.01-0.945,0.123l-3.685,1.357l-6.508-1.439
	c-0.287-0.063-0.586-0.068-0.875-0.01l-7.769,1.535h-6.646l-6.009-1.512c-0.316-0.078-0.646-0.084-0.966-0.018
	c-3.12,0.664-6.85,1.391-7.907,1.512c-0.457-0.215-1.408-0.84-2.002-1.23c-2.061-1.355-3.423-2.248-4.835-1.779
	c-0.559,0.172-4.458,0.971-7.905,1.641c-1.158,0.227-1.913,1.348-1.687,2.506c0.224,1.158,1.345,1.912,2.504,1.688
	c1.913-0.373,6.063-1.191,7.784-1.605c0.471,0.252,1.273,0.779,1.793,1.121c1.894,1.244,3.02,1.949,4.156,1.949
	c1.15,0,6.002-0.992,8.502-1.52l5.786,1.455c0.17,0.043,0.345,0.064,0.521,0.064h7.119c0.139,0,0.277-0.014,0.414-0.041l7.536-1.488
	l6.683,1.479c0.4,0.088,0.816,0.059,1.199-0.082l3.811-1.404c2.675,0.279,5.765,0.754,6.659,1.094
	c0.332,0.309,0.749,0.582,1.62,0.582C75.65,56.631,78.239,55.914,83.559,53.461z M7.97,45.777c2.896,0.371,5.475-0.289,8.687,1.111
	c3.211,1.4,4.64,3.678,8.577,3.992c6.3,0.453,9.799-2.607,15.22-3.938c2.058-0.635,4.405-0.758,6.752-0.881
	c3.637-0.453,6.916-2.717,10.017-3.404c3.898-0.467,4.338,2.91,7.783,3.775c1.592,0.438,5.722-0.564,7.547-0.66
	c0.237-0.014,0.522-0.01,0.826,0.002c2.119,1.387,4.057,1.832,6.846,1.686c1.043-0.057,1.372,1.234,2.649,0.645
	c0.696-0.215,0.871-1.24,0.992-1.883c1.23-0.154,2.26-0.473,2.9-1.061c3.53-0.469,8.774-0.984,9.609-3.783
	c1.62-4.008-17.784-0.107-20.928-0.203c-3.664-0.068-6.656-2.264-10.566-2.059c-4.954,0.262-8.811,1.512-13.463,2.541
	c-8.014,1.729-17.182,1.428-24.73,2.088c-5.461,0.549-6.71-3.309-11.212-4.377c-2.375-0.398-10.731-0.221-11.623,2.703
	C2.466,45.545,5.869,45.627,7.97,45.777z"/>
</svg>
