<?xml version="1.0" encoding="utf-8"?>
<!-- Generator: Adobe Illustrator 16.0.0, SVG Export Plug-In . SVG Version: 6.00 Build 0)  -->
<!DOCTYPE svg PUBLIC "-//W3C//DTD SVG 1.1//EN" "http://www.w3.org/Graphics/SVG/1.1/DTD/svg11.dtd">
<svg version="1.1" id="Layer_11" xmlns="http://www.w3.org/2000/svg" xmlns:xlink="http://www.w3.org/1999/xlink" x="0px" y="0px"
	 width="100px" height="100px" viewBox="0 0 100 100" enable-background="new 0 0 100 100" xml:space="preserve">
<path d="M26.507,90.805c-1.646,0-2.982-1.337-2.982-2.984v-7.459c0-1.646,1.337-2.984,2.983-2.984h0.519
	c-0.273-3.088-0.873-4.131-1.785-5.709c-0.675-1.17-1.517-2.625-2.452-5.17c-2.501-6.805-1.478-18.619-1.433-19.117l0.021-0.145
	c1.148-6.113,5.253-7.006,7.969-7.596c1.009-0.219,1.962-0.429,2.505-0.82c2.677-2.612,5.649-3.755,8.046-4.234
	c1.545,0.009,3.143-0.137,4.817-0.474c1.565-0.479,6.207-1.545,10.106,0.96c0.015-6.588,0.04-18.274,0.04-19.701
	c0-2.474,2.951-4.751,2.951-4.751c1.214-0.892,2.705-1.425,4.325-1.425c4.038,0,7.324,3.285,7.324,7.322v32.062
	c0,0.188,0.01,0.355,0.016,0.531c-0.998-0.033-1.998-0.056-2.998-0.071c-0.004-0.157-0.018-0.296-0.018-0.46V16.518
	c-0.001-2.383-1.94-4.323-4.324-4.323c-2.385,0-4.326,1.94-4.325,4.323l-0.001,15.699c0.035,0.126,0.06,0.257,0.06,0.395v7.583
	c0,0.828-0.672,1.5-1.5,1.5s-1.5-0.672-1.5-1.5v-0.644h-0.06c0,0,0-0.191,0.001-0.538c-0.028-0.028-0.061-0.053-0.087-0.084
	c-3.44-4.073-9.428-1.855-9.487-1.833c-0.07,0.027-0.142,0.042-0.214,0.058c-0.266,0.14-0.575,0.203-0.897,0.161
	c-0.231-0.033-5.755-0.715-10.237,3.709l-0.123,0.109c-1.076,0.852-2.453,1.15-3.782,1.439c-2.603,0.566-4.851,1.055-5.645,5.146
	c-0.082,0.982-0.909,11.826,1.266,17.744c0.847,2.303,1.584,3.578,2.235,4.703c1.172,2.026,1.898,3.465,2.197,7.211h35.726h2.989
	h0.523c0.321,0,0.625,0.064,0.914,0.158c2.835-3.755,6.188-9.427,6.188-15.267c0-8.041-1.354-8.232-6.392-8.94
	c-0.918-0.129-1.958-0.276-3.091-0.487c-3.589-0.667-6.388-0.293-7.486,1.001c-0.644,0.759-0.518,1.64-0.3,2.245
	c0.495,1.367,2.209,3.163,5.408,3.721c0.684,0.119,1.141,0.77,1.021,1.453s-0.774,1.143-1.453,1.021
	c-3.559-0.62-6.37-2.668-7.338-5.342c-0.62-1.712-0.349-3.436,0.747-4.725c1.005-1.186,3.625-3.004,9.859-1.844
	c1.079,0.201,2.09,0.343,2.981,0.469c5.776,0.813,8.554,1.637,8.554,11.428c0,6.694-3.748,12.969-6.84,17.006
	c0.132,0.338,0.211,0.703,0.211,1.087v7.459c0,1.648-1.335,2.983-2.984,2.983L26.507,90.805z"/>
</svg>
