<?xml version="1.0" encoding="utf-8"?>
<!-- Generator: Adobe Illustrator 16.0.0, SVG Export Plug-In . SVG Version: 6.00 Build 0)  -->
<!DOCTYPE svg PUBLIC "-//W3C//DTD SVG 1.1//EN" "http://www.w3.org/Graphics/SVG/1.1/DTD/svg11.dtd">
<svg version="1.1" id="Layer_11" xmlns="http://www.w3.org/2000/svg" xmlns:xlink="http://www.w3.org/1999/xlink" x="0px" y="0px"
	 width="100px" height="100px" viewBox="0 0 100 100" enable-background="new 0 0 100 100" xml:space="preserve">
<path d="M78.53,90.805c1.646,0,2.982-1.337,2.982-2.984v-7.459c0-1.646-1.337-2.984-2.983-2.984h-0.519
	c0.273-3.088,0.873-4.131,1.785-5.709c0.675-1.17,1.517-2.625,2.452-5.17c2.501-6.805,1.478-18.619,1.433-19.117l-0.021-0.145
	c-1.148-6.113-5.253-7.006-7.969-7.596c-1.009-0.219-1.962-0.429-2.505-0.82c-2.677-2.612-5.649-3.755-8.046-4.234
	c-1.545,0.009-3.143-0.137-4.817-0.474c-1.565-0.479-6.207-1.545-10.106,0.96c-0.015-6.588-0.04-18.274-0.04-19.701
	c0-2.474-2.951-4.751-2.951-4.751c-1.214-0.892-2.705-1.425-4.325-1.425c-4.038,0-7.324,3.285-7.324,7.322v32.062
	c0,1.305-0.161,2.286-0.342,2.973c-7.436-3.933-12.877-4.944-16.189-3.005c-2.936,1.719-2.971,4.986-2.971,5.125
	c0.001,5.4,6.351,7.822,7.227,8.131c12.024,5.58,13.304,12.133,12.984,15.574h-0.523c-1.649,0.001-2.984,1.338-2.984,2.984v7.459
	c0,1.648,1.335,2.983,2.984,2.983L78.53,90.805z M39.274,77.377c0.104-1.514-0.026-3.396-0.78-5.484
	c-1.831-5.075-6.542-9.396-14.001-12.845l-0.16-0.063c-0.052-0.018-5.258-1.836-5.259-5.313c0.001-0.017,0.041-1.689,1.486-2.535
	c1.434-0.838,5.247-1.457,14.693,3.843l1.178,0.663l0.781-1.104c0.139-0.2,1.364-2.045,1.363-5.96V16.518
	c0.001-2.383,1.94-4.323,4.324-4.323c2.385,0,4.326,1.94,4.325,4.323l0.001,15.699c-0.035,0.126-0.06,0.257-0.06,0.395v7.583
	c0,0.828,0.672,1.5,1.5,1.5s1.5-0.672,1.5-1.5v-0.644h0.06c0,0,0-0.191-0.001-0.538c0.028-0.028,0.061-0.053,0.087-0.084
	c3.44-4.073,9.428-1.855,9.487-1.833c0.07,0.027,0.142,0.042,0.214,0.058c0.266,0.14,0.575,0.203,0.897,0.161
	c0.231-0.033,5.755-0.715,10.237,3.709l0.123,0.109c1.076,0.852,2.453,1.15,3.782,1.439c2.603,0.566,4.851,1.055,5.645,5.146
	c0.082,0.982,0.909,11.826-1.266,17.744c-0.847,2.303-1.584,3.578-2.235,4.703c-1.172,2.026-1.898,3.465-2.197,7.211H39.274z"/>
</svg>
