<?xml version="1.0" encoding="utf-8"?>
<!-- Generator: Adobe Illustrator 16.0.0, SVG Export Plug-In . SVG Version: 6.00 Build 0)  -->
<!DOCTYPE svg PUBLIC "-//W3C//DTD SVG 1.1//EN" "http://www.w3.org/Graphics/SVG/1.1/DTD/svg11.dtd">
<svg version="1.1" id="Layer_11" xmlns="http://www.w3.org/2000/svg" xmlns:xlink="http://www.w3.org/1999/xlink" x="0px" y="0px"
	 width="100px" height="100px" viewBox="0 0 100 100" enable-background="new 0 0 100 100" xml:space="preserve">
<path d="M74.142,79.796c1.578-0.912,2.621-1.512,5.709-1.785v0.519c0,1.646,1.338,2.983,2.984,2.983h7.459
	c1.647,0,2.984-1.336,2.984-2.982l-0.001-42.769c0-1.649-1.335-2.984-2.983-2.984h-7.459c-1.646,0-2.983,1.335-2.984,2.984v0.523
	c-3.441,0.319-9.994-0.96-15.574-12.984c-0.309-0.876-2.73-7.226-8.131-7.227c-0.139,0-3.406,0.035-5.125,2.971
	c-1.939,3.313-0.928,8.754,3.005,16.189c-0.687,0.181-1.668,0.342-2.973,0.342H23.491c-4.037,0-7.322,3.286-7.322,7.324
	c0,1.62,0.533,3.111,1.425,4.325l-3.313,0.001c-4.166-0.001-7.557,3.39-7.557,7.555c0,4.167,3.391,7.557,7.557,7.557h22.463
	c0.064,2.468,0.765,6.969,4.551,10.849c0.392,0.543,0.602,1.496,0.82,2.505c0.59,2.716,1.482,6.82,7.596,7.969l0.145,0.021
	c0.498,0.045,12.313,1.068,19.117-1.433C71.517,81.313,72.972,80.471,74.142,79.796z M67.937,79.433
	c-5.918,2.175-16.762,1.348-17.744,1.266c-4.092-0.794-4.58-3.042-5.146-5.645c-0.289-1.329-0.588-2.706-1.439-3.782l-0.109-0.123
	c-4.424-4.482-3.742-10.006-3.709-10.237c0.107-0.825-0.463-1.577-1.282-1.689c-0.286-0.039-0.564,0.009-0.81,0.117H14.28
	c-2.512-0.001-4.557-2.044-4.557-4.558c0-2.511,2.045-4.556,4.557-4.555h27.744v-3l-18.533-0.001
	c-2.383,0.001-4.323-1.94-4.323-4.325c0-2.384,1.94-4.323,4.323-4.324h27.562c3.915,0.001,5.76-1.225,5.96-1.363l1.104-0.781
	l-0.663-1.178c-5.3-9.446-4.681-13.26-3.843-14.693c0.846-1.445,2.519-1.485,2.535-1.486c3.477,0.001,5.295,5.207,5.313,5.259
	l0.063,0.16c3.448,7.459,7.77,12.17,12.845,14.001c2.088,0.754,3.971,0.885,5.484,0.78V75c-3.746,0.299-5.185,1.025-7.211,2.197
	C71.515,77.849,70.239,78.586,67.937,79.433z"/>
</svg>
