<?xml version="1.0" encoding="utf-8"?>
<!-- Generator: Adobe Illustrator 16.0.0, SVG Export Plug-In . SVG Version: 6.00 Build 0)  -->
<!DOCTYPE svg PUBLIC "-//W3C//DTD SVG 1.1//EN" "http://www.w3.org/Graphics/SVG/1.1/DTD/svg11.dtd">
<svg version="1.1" id="Layer_11" xmlns="http://www.w3.org/2000/svg" xmlns:xlink="http://www.w3.org/1999/xlink" x="0px" y="0px"
	 width="100px" height="100px" viewBox="0 0 100 100" enable-background="new 0 0 100 100" xml:space="preserve">
<path d="M83.291,58.835c0.01-0.715,0.01-1.423,0-2.121V32.811c0-3.361-2.734-6.096-6.096-6.096h-0.5
	c-1.18,0-2.278,0.342-3.212,0.925v-6.004c0-3.553-3.521-6.554-7.687-6.554c-1.189,0-2.453,0.408-3.564,1.115v-1.495
	c0-4.203-3.421-7.624-7.625-7.624c-4.203,0-7.623,3.421-7.623,7.624V17.7c-1.183-0.801-2.607-1.27-4.141-1.27
	c-4.076,0-7.394,3.315-7.394,7.392v27.291c0,1.172-0.134,2.076-0.29,2.734c-7.326-3.849-12.707-4.822-16.01-2.89
	c-2.375,1.393-3.01,3.922-3.01,5.197c0,5.428,6.334,7.86,7.244,8.181c11.835,5.496,13.08,11.932,12.765,15.291h-0.375
	c-1.632,0-2.954,1.323-2.954,2.955v7.386c0,1.631,1.322,2.954,2.954,2.954h42.347c1.631,0,2.954-1.323,2.954-2.954v-7.386
	c0-1.632-1.323-2.955-2.954-2.955h-0.373c0.262-3.005,0.826-3.988,1.749-5.583c0.672-1.162,1.509-2.608,2.438-5.139
	c0.882-2.398,1.24-5.733,1.336-9.072h0.02V58.835z M78.881,67.782c-0.833,2.269-1.561,3.524-2.201,4.633
	c-1.172,2.026-1.898,3.465-2.197,7.212h-35.09c0.106-1.515-0.025-3.396-0.777-5.479c-1.827-5.063-6.517-9.368-13.939-12.8
	l-0.172-0.067c-0.051-0.018-5.109-1.782-5.109-5.126c0-0.016,0.039-1.591,1.4-2.389c1.393-0.815,5.116-1.404,14.408,3.809
	l1.278,0.718l0.847-1.197c0.141-0.2,1.377-2.062,1.377-5.982V23.822c0-2.281,1.857-4.138,4.139-4.138
	c2.283,0,4.141,1.856,4.141,4.138v18.352h3.254V14.702c0-2.41,1.96-4.37,4.369-4.37c2.41,0,4.371,1.96,4.371,4.37v24.356h3.254
	V21.636c0-1.745,1.994-3.3,3.564-3.3c2.278,0,4.432,1.604,4.432,3.3v20.938l0.006,2.23l0.948-0.305H73.8V32.811
	c0-1.597,1.299-2.896,2.896-2.896h0.5c1.597,0,2.896,1.3,2.896,2.896v24.158c-0.016-0.003-0.032-0.001-0.048-0.004
	C80.096,60.866,79.867,65.1,78.881,67.782z"/>
</svg>
