<?xml version="1.0" encoding="utf-8"?>
<!-- Generator: Adobe Illustrator 16.0.0, SVG Export Plug-In . SVG Version: 6.00 Build 0)  -->
<!DOCTYPE svg PUBLIC "-//W3C//DTD SVG 1.1//EN" "http://www.w3.org/Graphics/SVG/1.1/DTD/svg11.dtd">
<svg version="1.1" id="Layer_11" xmlns="http://www.w3.org/2000/svg" xmlns:xlink="http://www.w3.org/1999/xlink" x="0px" y="0px"
	 width="100px" height="100px" viewBox="0 0 100 100" enable-background="new 0 0 100 100" xml:space="preserve">
<path d="M91.764,37.888h-7.871c-1.107,0-2.076,0.574-2.637,1.438c-2.896-1.813-8.201-5.302-17.654-11.93
	c-0.086-0.061-0.18-0.11-0.279-0.149c-0.406-0.158-9.756-3.72-16.152,1.255L37.838,8.403L5.088,23.609l21.668,46.664l7.283-3.382
	c0.426,0.393,0.912,0.783,1.482,1.179c-0.084,2.136,0.199,7.64,4.738,12.286c0.455,0.615,0.682,1.655,0.922,2.756
	c0.645,2.966,1.527,7.029,7.811,8.209c0.041,0.008,0.084,0.013,0.125,0.017c0.525,0.047,12.934,1.124,20.061-1.497
	c2.664-0.979,4.189-1.86,5.414-2.568c1.699-0.982,2.82-1.627,6.152-1.919v0.805c0,1.739,1.41,3.149,3.148,3.149h7.871
	c1.738,0,3.148-1.41,3.148-3.149V41.037C94.912,39.296,93.502,37.888,91.764,37.888z M80.744,82.696
	c-4.104,0.336-5.559,1.17-7.479,2.281c-1.197,0.691-2.553,1.475-5.002,2.375c-6.332,2.328-17.893,1.43-18.848,1.35
	c-4.494-0.865-5.029-3.316-5.645-6.153c-0.299-1.375-0.607-2.796-1.469-3.886c-0.029-0.037-0.063-0.074-0.098-0.109
	c-4.762-4.825-4.018-10.771-3.986-11.02c0.086-0.634-0.293-1.228-0.877-1.431c-0.232-0.152-0.443-0.3-0.645-0.446l22.807-10.589
	L54.061,43.34c1.537-0.379,2.313-0.895,2.438-0.982c0.471-0.333,0.67-0.933,0.5-1.479c-0.172-0.549-0.678-0.924-1.252-0.93
	c-5.988-0.054-8.855-2.047-9.541-3.894c-0.582-1.561,0.195-3.379,2.18-5.123c4.838-4.251,12.699-1.671,13.836-1.267
	c10.32,7.234,15.756,10.762,18.523,12.458V82.696z"/>
</svg>
