<?xml version="1.0" encoding="utf-8"?>
<!-- Generator: Adobe Illustrator 16.0.0, SVG Export Plug-In . SVG Version: 6.00 Build 0)  -->
<!DOCTYPE svg PUBLIC "-//W3C//DTD SVG 1.1//EN" "http://www.w3.org/Graphics/SVG/1.1/DTD/svg11.dtd">
<svg version="1.1" id="Layer_11" xmlns="http://www.w3.org/2000/svg" xmlns:xlink="http://www.w3.org/1999/xlink" x="0px" y="0px"
	 width="100px" height="100px" viewBox="0 0 100 100" enable-background="new 0 0 100 100" xml:space="preserve">
<path d="M82.247,68.971c2.501-6.805,1.478-18.619,1.434-19.117l-0.02-0.145c-1.149-6.113-5.254-7.006-7.97-7.596
	c-1.008-0.219-1.963-0.428-2.506-0.82c-3.879-3.785-8.38-4.486-10.847-4.551V14.279c0-4.166-3.39-7.557-7.557-7.557
	c-4.166,0-7.556,3.391-7.556,7.557v3.314c-1.213-0.893-2.706-1.426-4.325-1.426c-4.039,0-7.324,3.285-7.324,7.322v27.563
	c0,1.303-0.163,2.285-0.343,2.973c-7.435-3.934-12.877-4.945-16.19-3.006c-2.936,1.719-2.969,4.986-2.969,5.125
	c0,5.4,6.35,7.822,7.227,8.131c12.024,5.58,13.303,12.133,12.983,15.574h-0.523c-1.649,0-2.984,1.338-2.984,2.984v7.459
	c0,1.648,1.335,2.984,2.984,2.984h42.768c1.647,0,2.984-1.336,2.984-2.984v-7.459c0-1.646-1.336-2.984-2.984-2.984h-0.52
	c0.273-3.088,0.873-4.131,1.785-5.709C80.47,72.971,81.312,71.516,82.247,68.971z M77.197,72.639
	c-1.171,2.027-1.898,3.465-2.198,7.211H39.273c0.106-1.514-0.025-3.396-0.778-5.484c-1.832-5.074-6.542-9.396-14.003-12.846
	l-0.159-0.063c-0.053-0.018-5.258-1.836-5.258-5.313c0-0.016,0.041-1.689,1.485-2.535c1.433-0.838,5.247-1.457,14.693,3.844
	l1.179,0.662l0.78-1.104c0.14-0.199,1.364-2.045,1.364-5.959V23.49c0-2.383,1.94-4.322,4.324-4.322c2.385,0,4.325,1.939,4.325,4.322
	v18.533h3V14.279c0-2.512,2.043-4.557,4.556-4.557c2.513,0,4.557,2.045,4.557,4.557v23.416c-0.108,0.246-0.156,0.523-0.117,0.811
	c0.113,0.818,0.864,1.389,1.688,1.281c0.232-0.033,5.756-0.715,10.238,3.709l0.124,0.109c1.076,0.852,2.452,1.15,3.782,1.439
	c2.602,0.566,4.85,1.055,5.645,5.146c0.081,0.982,0.909,11.826-1.267,17.744C78.585,70.238,77.848,71.514,77.197,72.639z"/>
</svg>
