<?xml version="1.0" encoding="utf-8"?>
<!-- Generator: Adobe Illustrator 16.0.0, SVG Export Plug-In . SVG Version: 6.00 Build 0)  -->
<!DOCTYPE svg PUBLIC "-//W3C//DTD SVG 1.1//EN" "http://www.w3.org/Graphics/SVG/1.1/DTD/svg11.dtd">
<svg version="1.1" id="Layer_11" xmlns="http://www.w3.org/2000/svg" xmlns:xlink="http://www.w3.org/1999/xlink" x="0px" y="0px"
	 width="100px" height="100px" viewBox="0 0 100 100" enable-background="new 0 0 100 100" xml:space="preserve">
<path d="M77.383,20.486h-4.32c-2.863,0-5.277,1.833-6.191,4.38c-3.985-1.962-7.141-4.96-7.807-5.621
	c-4.564-7.008-19.203-7.774-25.328-7.774h-0.164l-0.127-0.004l-6.525,0.262c-3.669,0-6.495,0.428-7.869,4.858
	c-6.151,16.724-1.326,36.218,0.333,41.886c0.025,0.15,0.067,0.301,0.126,0.449c-0.007-0.002-0.014-0.003-0.021-0.005
	c0.042,0.073,0.095,0.138,0.14,0.208c0.091,0.177,0.193,0.342,0.323,0.486c1.558,2.18,4.093,3.613,6.968,3.613h7.1
	c0.262,0.645,0.518,2.202-0.027,5.141l-0.031,0.301c-0.041,1.289-0.252,12.734,4.479,17.613c1.428,1.475,3.227,2.254,5.203,2.254
	c5.605,0,6.293-2.441,6.703-6.164c0.316-2.893,0.797-7.262,4.938-14.016c0.604-0.988,5.967-7.066,13.213-8.959
	c1.186,1.141,2.789,1.85,4.566,1.85h4.32c3.646,0,6.604-2.955,6.604-6.602V27.089C83.986,23.442,81.029,20.486,77.383,20.486z
	 M51.859,66.372l-0.004-0.001c-4.553,7.42-5.113,12.52-5.447,15.564c-0.289,2.637-0.289,2.637-2.766,2.637
	c-0.916,0-1.664-0.334-2.359-1.049c-2.98-3.072-3.441-11.432-3.367-14.592c0.715-3.99,0.371-6.866-1.029-8.549
	c-1.012-1.215-2.65-1.653-3.898-1.119h-6.068c-0.559,0-1.088-0.115-1.584-0.298c-0.571,0.165-1.354-0.806-1.631-1.747
	c-1.582-5.402-6.27-24.236-0.158-39.821c0.154-0.394,0.182-0.803,0.117-1.19c0.678-0.512,1.697-0.518,3.336-0.518l6.563-0.262
	c0.055,0.002,0.113,0.004,0.174,0.004c8.871,0.002,19.334,1.602,22.082,6.09l0.258,0.336c0.25,0.26,4.607,4.738,10.383,7.168v25.617
	c0,0.398,0.051,0.783,0.119,1.162C58.378,58.298,52.73,64.984,51.859,66.372z"/>
</svg>
