<?xml version="1.0" encoding="utf-8"?>
<!-- Generator: Adobe Illustrator 16.0.0, SVG Export Plug-In . SVG Version: 6.00 Build 0)  -->
<!DOCTYPE svg PUBLIC "-//W3C//DTD SVG 1.1//EN" "http://www.w3.org/Graphics/SVG/1.1/DTD/svg11.dtd">
<svg version="1.1" id="Layer_11" xmlns="http://www.w3.org/2000/svg" xmlns:xlink="http://www.w3.org/1999/xlink" x="0px" y="0px"
	 width="100px" height="100px" viewBox="0 0 100 100" enable-background="new 0 0 100 100" xml:space="preserve">
<path d="M40.162,29.943h17.383v2.113H40.162V29.943z M37.406,50.705c1.205,0,2.183-0.977,2.183-2.182
	c0-0.58-0.229-1.102-0.598-1.492V23.033c0-5.17,4.202-9.068,9.774-9.068s9.773,3.898,9.773,9.068v23.998
	c-0.367,0.391-0.597,0.912-0.597,1.492c0,1.205,0.978,2.182,2.182,2.182c1.206,0,2.184-0.977,2.184-2.182
	c0-0.58-0.23-1.102-0.598-1.492V23.033c0-6.979-5.565-12.238-12.944-12.238S35.82,16.055,35.82,23.033v23.998
	c-0.367,0.391-0.597,0.912-0.597,1.492C35.224,49.729,36.201,50.705,37.406,50.705z M34.826,46.02v-9.471H22.976
	c-4.286,0-7.968,2.557-9.626,6.225L8.876,73.143c0.019,4.717,2.553,9.459,8.189,9.459H83.02c5.621,0,8.156-4.715,8.188-9.42
	l-7.077-30.127c-1.592-3.82-5.359-6.506-9.756-6.506H62.881v9.301c0.738,0.678,1.206,1.646,1.206,2.725
	c0,2.039-1.659,3.699-3.698,3.699s-3.698-1.66-3.698-3.699c0-0.896,0.321-1.719,0.854-2.359v-9.666H40.162v9.471
	c0.637,0.666,1.03,1.564,1.03,2.555c0,2.039-1.659,3.699-3.698,3.699s-3.698-1.66-3.698-3.699
	C33.796,47.584,34.189,46.686,34.826,46.02z M93.345,73.035l-0.022,0.004V73l-5.549-31.527c-0.77-6.984-5.245-11.529-11.623-11.529
	h-13.27v2.113h13.27c5.244,0,8.642,4.051,9.775,9.512l7.098,34.492c0.005-0.02,0.008-0.041,0.011-0.059
	c0.002,0.043,0.003,0.084,0.005,0.127l-0.016-0.068c-1.047,5.213-4.862,8.654-10.004,8.654H17.065
	c-5.245,0-9.112-3.578-10.066-8.969c0.056-0.639,0.155-1.371,0.319-2.215l-0.091-0.018l3.762-26.398
	c1.023-11.107,5.322-15.059,10.566-15.059h13.271v-2.113H21.556c-6.391,0-10.666,4.184-11.623,11.57L6.768,72.984l-0.005,0.107
	c0,0.113,0.011,0.221,0.013,0.334L6.62,73.396c-0.651,3.355-0.342,5.123-0.089,5.896c0.34,5.529,4.918,9.912,10.534,9.912H83.02
	c5.771,0,10.453-4.627,10.557-10.373C93.785,77.803,93.955,75.883,93.345,73.035z"/>
</svg>
