<?xml version="1.0" encoding="utf-8"?>
<!-- Generator: Adobe Illustrator 16.0.0, SVG Export Plug-In . SVG Version: 6.00 Build 0)  -->
<!DOCTYPE svg PUBLIC "-//W3C//DTD SVG 1.1//EN" "http://www.w3.org/Graphics/SVG/1.1/DTD/svg11.dtd">
<svg version="1.1" id="Layer_11" xmlns="http://www.w3.org/2000/svg" xmlns:xlink="http://www.w3.org/1999/xlink" x="0px" y="0px"
	 width="100px" height="100px" viewBox="0 0 100 100" enable-background="new 0 0 100 100" xml:space="preserve">
<path d="M93.276,35.762c0-1.649-1.335-2.984-2.983-2.984h-7.459c-1.646,0-2.983,1.335-2.984,2.984v0.523
	c-3.441,0.319-9.994-0.96-15.574-12.984c-0.309-0.876-2.73-7.226-8.131-7.227c-0.139,0-3.406,0.035-5.125,2.971
	c-1.939,3.313-0.928,8.754,3.005,16.189c-0.687,0.181-1.668,0.342-2.973,0.342H18.99c-4.037,0-7.322,3.286-7.322,7.324
	c0,1.62,0.533,3.111,1.425,4.325c0,0,2.277,2.951,4.751,2.951c1.427,0,13.113,0.025,19.701,0.04
	c-2.505,3.899-1.438,8.541-0.96,10.106c0.337,1.675,0.482,3.272,0.474,4.817c0.479,2.396,1.622,5.369,4.234,8.046
	c0.392,0.543,0.602,1.496,0.82,2.505c0.59,2.716,1.482,6.82,7.596,7.969l0.145,0.021c0.498,0.045,12.313,1.068,19.117-1.433
	c2.545-0.936,4-1.777,5.17-2.452c1.578-0.912,2.621-1.512,5.709-1.785v0.519c0,1.646,1.338,2.983,2.984,2.983h7.459
	c1.647,0,2.984-1.336,2.984-2.982L93.276,35.762z M79.85,75c-3.746,0.299-5.185,1.025-7.211,2.197
	c-1.125,0.651-2.4,1.389-4.703,2.235c-5.918,2.175-16.762,1.348-17.744,1.266c-4.092-0.794-4.58-3.042-5.146-5.645
	c-0.289-1.329-0.588-2.706-1.439-3.782l-0.109-0.123c-4.424-4.482-3.742-10.006-3.709-10.237c0.042-0.322-0.021-0.632-0.161-0.897
	c-0.016-0.072-0.03-0.144-0.058-0.214c-0.022-0.06-2.24-6.047,1.833-9.487c0.031-0.026,0.056-0.059,0.084-0.087
	c0.347,0.001,0.538,0.001,0.538,0.001v-0.06h0.644c0.828,0,1.5-0.672,1.5-1.5s-0.672-1.5-1.5-1.5h-7.583
	c-0.138,0-0.269,0.024-0.395,0.06L18.99,47.226c-2.383,0.001-4.323-1.94-4.323-4.325c0-2.384,1.94-4.323,4.323-4.324h32.062
	c3.915,0.001,5.76-1.225,5.96-1.363l1.104-0.781l-0.663-1.178c-5.3-9.446-4.681-13.26-3.843-14.693
	c0.846-1.445,2.519-1.485,2.535-1.486c3.477,0.001,5.295,5.207,5.313,5.259l0.063,0.16c3.448,7.459,7.77,12.17,12.845,14.001
	c2.088,0.754,3.971,0.885,5.484,0.78V75z"/>
</svg>
