<?xml version="1.0" encoding="utf-8"?>
<!-- Generator: Adobe Illustrator 16.0.0, SVG Export Plug-In . SVG Version: 6.00 Build 0)  -->
<!DOCTYPE svg PUBLIC "-//W3C//DTD SVG 1.1//EN" "http://www.w3.org/Graphics/SVG/1.1/DTD/svg11.dtd">
<svg version="1.1" id="Layer_11" xmlns="http://www.w3.org/2000/svg" xmlns:xlink="http://www.w3.org/1999/xlink" x="0px" y="0px"
	 width="100px" height="100px" viewBox="0 0 100 100" enable-background="new 0 0 100 100" xml:space="preserve">
<path d="M82.213,68.905c2.497-6.792,0.828-21.103,0.755-21.709l-0.017-0.107c-0.479-2.546-1.668-4.396-3.536-5.499
	c-1.9-1.122-4.084-1.174-5.655-0.995V21.636c0-3.553-3.52-6.554-7.686-6.554c-1.19,0-2.453,0.408-3.565,1.115v-1.495
	c0-4.203-3.421-7.624-7.625-7.624c-4.204,0-7.623,3.421-7.623,7.624V17.7c-1.183-0.801-2.607-1.27-4.14-1.27
	c-4.077,0-7.394,3.315-7.394,7.392v27.291c0,1.172-0.134,2.076-0.291,2.734c-7.326-3.849-12.707-4.822-16.009-2.89
	c-2.376,1.393-3.01,3.922-3.01,5.197c0,5.428,6.334,7.86,7.244,8.181c11.835,5.496,13.081,11.932,12.765,15.291h-0.375
	c-1.632,0-2.954,1.323-2.954,2.955v7.386c0,1.631,1.322,2.954,2.954,2.954h42.346c1.631,0,2.955-1.323,2.955-2.954v-7.386
	c0-1.632-1.324-2.955-2.955-2.955h-0.373c0.263-3.005,0.827-3.988,1.75-5.583C80.447,72.882,81.283,71.436,82.213,68.905z
	 M76.957,72.415c-1.172,2.026-1.897,3.465-2.196,7.212h-35.09c0.106-1.515-0.026-3.396-0.778-5.479
	c-1.827-5.063-6.517-9.368-13.939-12.8l-0.172-0.067c-0.051-0.018-5.109-1.782-5.109-5.126c0-0.016,0.038-1.591,1.4-2.389
	c1.392-0.815,5.116-1.404,14.408,3.809l1.278,0.718l0.846-1.197c0.141-0.2,1.377-2.062,1.377-5.982V23.822
	c0-2.281,1.857-4.138,4.14-4.138c2.283,0,4.14,1.856,4.14,4.138v18.352h3.254V14.702c0-2.41,1.959-4.37,4.369-4.37
	c2.41,0,4.371,1.96,4.371,4.37v6.934v14.184v3.239h3.254v-3.239V21.636c0-1.745,1.994-3.3,3.565-3.3c2.278,0,4.432,1.604,4.432,3.3
	v20.938l0.006,2.23l2.125-0.683c0.031-0.009,3.057-0.96,5.136,0.276c1.021,0.608,1.666,1.668,1.971,3.238
	c0.109,0.961,1.573,14.276-0.584,20.146C78.326,70.051,77.599,71.307,76.957,72.415z"/>
</svg>
