<?xml version="1.0" encoding="utf-8"?>
<!-- Generator: Adobe Illustrator 16.0.0, SVG Export Plug-In . SVG Version: 6.00 Build 0)  -->
<!DOCTYPE svg PUBLIC "-//W3C//DTD SVG 1.1//EN" "http://www.w3.org/Graphics/SVG/1.1/DTD/svg11.dtd">
<svg version="1.1" id="Layer_11" xmlns="http://www.w3.org/2000/svg" xmlns:xlink="http://www.w3.org/1999/xlink" x="0px" y="0px"
	 width="100px" height="100px" viewBox="0 0 100 100" enable-background="new 0 0 100 100" xml:space="preserve">
<path d="M80.827,69.266c2.392-6.505,1.413-17.79,1.37-18.267l-0.02-0.144c-1.105-5.877-5.047-6.733-7.655-7.301
	c-0.588-0.127-1.144-0.256-1.612-0.418l4.875-19.18c0.448-1.83,0.157-3.726-0.819-5.337c-0.978-1.611-2.523-2.746-4.353-3.193
	c-1.828-0.448-3.726-0.159-5.336,0.818c-1.612,0.978-2.746,2.523-3.187,4.323l-2.746,10.278l-0.147-13.774
	c0-4.014-3.265-7.278-7.277-7.278s-7.276,3.265-7.276,7.278v17.589l-2.831-9.182c-0.462-2.147-1.503-4.992-3.841-6.504
	c-1.378-0.891-3.029-1.158-4.772-0.78c-3.982,0.87-5.865,3.571-5.442,7.811c0.007,0.07,0.019,0.14,0.035,0.208l6.381,26.112
	c-0.014,1.098-0.148,1.944-0.302,2.557c-7.077-3.73-12.264-4.681-15.434-2.824c-2.263,1.325-2.866,3.733-2.866,4.948
	c0,5.19,6.08,7.517,6.937,7.819c11.434,5.309,12.645,11.533,12.341,14.793h-0.43c-1.572,0-2.847,1.275-2.847,2.846v7.117
	c0,1.57,1.274,2.846,2.847,2.846h40.797c1.57,0,2.846-1.275,2.846-2.846v-7.117c0-1.57-1.275-2.846-2.846-2.846h-0.428
	c0.261-2.927,0.829-3.916,1.693-5.411C79.128,73.09,79.933,71.699,80.827,69.266z M75.885,72.706
	c-1.123,1.942-1.819,3.321-2.106,6.913h-33.94c0.102-1.451-0.024-3.257-0.746-5.255c-1.754-4.859-6.26-8.995-13.393-12.293
	c-0.05-0.023-0.104-0.045-0.156-0.062c-0.05-0.017-4.972-1.706-4.972-4.986c0.001-0.065,0.054-1.619,1.412-2.394
	c1.36-0.774,4.979-1.33,13.918,3.686c0.667,0.373,1.516,0.185,1.958-0.442c0.135-0.19,1.314-1.968,1.314-5.724
	c0-0.12-0.015-0.239-0.043-0.356l-6.398-26.186c-0.238-2.646,0.668-3.948,3.106-4.48c0.975-0.212,1.793-0.091,2.504,0.368
	c1.15,0.744,2.079,2.446,2.549,4.672c0.01,0.045,0.021,0.089,0.034,0.133l5.451,17.68c0.218,0.706,0.909,1.129,1.617,1.042
	c0.05,0.006,0.099,0.016,0.149,0.016c0.828,0,1.5-0.672,1.5-1.5V17.072c0-2.359,1.918-4.278,4.276-4.278s4.277,1.919,4.277,4.294
	l0.259,24.169c0.002,0.148,0.031,0.288,0.073,0.424c0.027,0.636,0.456,1.21,1.104,1.383c0.799,0.211,1.621-0.262,1.836-1.063
	l5.527-20.689c0.258-1.051,0.909-1.939,1.835-2.501c0.926-0.561,2.014-0.729,3.067-0.47c1.052,0.257,1.939,0.908,2.501,1.835
	c0.562,0.926,0.729,2.015,0.474,3.055l-5.231,20.582c-0.204,0.803,0.281,1.619,1.085,1.823c0.124,0.031,0.248,0.046,0.37,0.046
	c0.029,0,0.055-0.013,0.084-0.014c0.844,0.406,1.783,0.618,2.704,0.818c2.456,0.534,4.58,0.995,5.329,4.852
	c0.079,0.956,0.866,11.261-1.204,16.893C77.206,70.422,76.504,71.636,75.885,72.706z"/>
</svg>
