<?xml version="1.0" encoding="utf-8"?>
<!-- Generator: Adobe Illustrator 16.0.0, SVG Export Plug-In . SVG Version: 6.00 Build 0)  -->
<!DOCTYPE svg PUBLIC "-//W3C//DTD SVG 1.1//EN" "http://www.w3.org/Graphics/SVG/1.1/DTD/svg11.dtd">
<svg version="1.1" id="Layer_11" xmlns="http://www.w3.org/2000/svg" xmlns:xlink="http://www.w3.org/1999/xlink" x="0px" y="0px"
	 width="100px" height="100px" viewBox="0 0 100 100" enable-background="new 0 0 100 100" xml:space="preserve">
<path d="M85.206,57.518c2.966-8.064,1.747-22.106,1.694-22.7c-0.005-0.048-0.011-0.096-0.02-0.143
	c-1.335-7.109-5.933-8.109-9.289-8.839c-1.245-0.271-2.423-0.527-3.119-1.042c-5.257-5.138-11.486-5.457-13.902-5.361
	c-2.654-3.833-5.133-4.563-8.929-4.563c-2.068,0-4.69,0.332-6.547,1.665c-1.592-1.979-4.018-3.174-6.593-3.174
	c-4.66,0-8.452,3.792-8.452,8.452v11.669c-1.094-2.374-2.682-4.036-4.663-4.773c-2.967-1.105-6.283,0.099-9.097,3.299
	c-6.359,7.238-2.101,18.412-1.916,18.885c0.044,0.111,0.101,0.217,0.169,0.315c7.5,10.696,11.447,16.699,13.5,19.977
	c-0.979,0.636-1.628,1.732-1.628,2.985v8.906c0,1.967,1.594,3.563,3.563,3.563h51.061c1.968,0,3.563-1.596,3.563-3.563V74.17
	c0-1.967-1.596-3.563-3.563-3.563h-0.911c0.33-3.772,1.06-5.04,2.172-6.964C83.101,62.258,84.098,60.532,85.206,57.518z
	 M31.209,70.607c-1.92-3.133-5.911-9.283-14.098-20.963c-0.458-1.285-3.377-10.182,1.433-15.656
	c1.974-2.246,4.031-3.126,5.798-2.467c2.09,0.776,4.345,4.021,4.406,10.796c0.006,0.65,0.431,1.224,1.052,1.418
	c0.618,0.191,1.296-0.034,1.673-0.565c0.161-0.228,1.577-2.36,1.577-6.946v-14.41c0-3.006,2.446-5.452,5.452-5.452
	c1.931,0,3.735,1.036,4.711,2.704c0.247,0.422,0.668,0.671,1.117,0.725c0.645,0.406,1.501,0.271,1.979-0.344
	c0.767-0.986,2.761-1.576,5.333-1.576c3.282,0,4.658,0.507,6.703,3.622c0.229,0.66,0.901,1.09,1.619,0.991
	c0.281-0.034,7.009-0.877,12.47,4.513c0.039,0.039,0.081,0.075,0.124,0.109c1.232,0.974,2.841,1.323,4.396,1.662
	c3.21,0.697,5.984,1.301,6.964,6.388c0.09,1.081,1.106,14.163-1.528,21.327c-1.019,2.772-1.905,4.307-2.688,5.66
	c-1.257,2.174-2.201,3.819-2.581,8.465H31.209z"/>
</svg>
