<?xml version="1.0" encoding="utf-8"?>
<!-- Generator: Adobe Illustrator 16.0.0, SVG Export Plug-In . SVG Version: 6.00 Build 0)  -->
<!DOCTYPE svg PUBLIC "-//W3C//DTD SVG 1.1//EN" "http://www.w3.org/Graphics/SVG/1.1/DTD/svg11.dtd">
<svg version="1.1" id="Layer_11" xmlns="http://www.w3.org/2000/svg" xmlns:xlink="http://www.w3.org/1999/xlink" x="0px" y="0px"
	 width="100px" height="100px" viewBox="0 0 100 100" enable-background="new 0 0 100 100" xml:space="preserve">
<path d="M9.195,78.53c0,1.646,1.337,2.982,2.984,2.982h7.459c1.646,0,2.984-1.337,2.984-2.983v-0.519
	c3.088,0.273,4.131,0.873,5.709,1.785c1.17,0.675,2.625,1.517,5.17,2.452c6.805,2.501,18.619,1.478,19.117,1.433l0.145-0.021
	c6.113-1.148,7.006-5.253,7.596-7.969c0.219-1.009,0.429-1.962,0.82-2.505c2.612-2.677,3.755-5.649,4.234-8.046
	c-0.009-1.545,0.137-3.143,0.474-4.817c0.479-1.565,1.545-6.207-0.96-10.106c6.588-0.015,18.274-0.04,19.701-0.04
	c2.474,0,4.751-2.951,4.751-2.951c0.892-1.214,1.425-2.705,1.425-4.325c0-4.038-3.285-7.324-7.322-7.324H51.421
	c-1.305,0-2.286-0.161-2.973-0.342c3.933-7.436,4.944-12.877,3.005-16.189c-1.719-2.936-4.986-2.971-5.125-2.971
	c-5.4,0.001-7.822,6.351-8.131,7.227c-5.58,12.024-12.133,13.304-15.574,12.984v-0.523c-0.001-1.649-1.338-2.984-2.984-2.984H12.18
	c-1.648,0-2.983,1.335-2.983,2.984L9.195,78.53z M22.623,39.274c1.514,0.104,3.396-0.026,5.484-0.78
	c5.075-1.831,9.396-6.542,12.845-14.001l0.063-0.16c0.018-0.052,1.836-5.258,5.313-5.259c0.017,0.001,1.689,0.041,2.535,1.486
	c0.838,1.434,1.457,5.247-3.843,14.693l-0.663,1.178l1.104,0.781c0.2,0.139,2.045,1.364,5.96,1.363h32.062
	c2.383,0.001,4.323,1.94,4.323,4.324c0,2.385-1.94,4.326-4.323,4.325l-15.699,0.001c-0.126-0.035-0.257-0.06-0.395-0.06h-7.583
	c-0.828,0-1.5,0.672-1.5,1.5s0.672,1.5,1.5,1.5h0.644v0.06c0,0,0.191,0,0.538-0.001c0.028,0.028,0.053,0.061,0.084,0.087
	c4.073,3.44,1.855,9.428,1.833,9.487c-0.027,0.07-0.042,0.142-0.058,0.214c-0.14,0.266-0.203,0.575-0.161,0.897
	c0.033,0.231,0.715,5.755-3.709,10.237l-0.109,0.123c-0.852,1.076-1.15,2.453-1.439,3.782c-0.566,2.603-1.055,4.851-5.146,5.645
	c-0.982,0.082-11.826,0.909-17.744-1.266c-2.303-0.847-3.578-1.584-4.703-2.235c-2.026-1.172-3.465-1.898-7.211-2.197V39.274z"/>
</svg>
