<?xml version="1.0" encoding="utf-8"?>
<!-- Generator: Adobe Illustrator 16.0.0, SVG Export Plug-In . SVG Version: 6.00 Build 0)  -->
<!DOCTYPE svg PUBLIC "-//W3C//DTD SVG 1.1//EN" "http://www.w3.org/Graphics/SVG/1.1/DTD/svg11.dtd">
<svg version="1.1" id="Layer_11" xmlns="http://www.w3.org/2000/svg" xmlns:xlink="http://www.w3.org/1999/xlink" x="0px" y="0px"
	 width="100px" height="100px" viewBox="0 0 100 100" enable-background="new 0 0 100 100" xml:space="preserve">
<path d="M87.803,35.416h-3.332c-0.873,0-1.682,0.243-2.396,0.637l-3.137-2.384c-1.73-1.314-3.879-2.038-6.096-2.038l-26.154,0.117
	c-5.514,0.025-9.979,4.531-9.955,10.045c0.008,1.863,0.531,3.608,1.434,5.102c-4.182-2.394-8.969-6.467-14.193-12.107
	c-1.885-2.036-4.561-3.203-7.338-3.203c-2.525,0-4.938,0.945-6.793,2.662c-4.045,3.747-4.287,10.087-0.541,14.133
	c8.365,9.031,21.268,21.037,36.67,21.037h22.834c1.436,0,2.828-0.302,4.137-0.896l7.334-3.333c0.283-0.129,0.549-0.285,0.816-0.438
	c0.891,0.821,2.07,1.335,3.379,1.335h3.332c2.762,0,5-2.238,5-5V40.416C92.803,37.654,90.564,35.416,87.803,35.416z M79.59,62.152
	c-0.182,0.104-0.361,0.216-0.557,0.304l-7.332,3.333c-0.916,0.416-1.891,0.627-2.896,0.627H45.971
	c-14.227,0-26.486-11.458-34.469-20.076c-2.623-2.832-2.453-7.27,0.379-9.893c1.299-1.201,2.986-1.863,4.754-1.863
	c1.945,0,3.818,0.817,5.139,2.242c9.58,10.345,17.723,15.59,24.197,15.59h20.992c0.215,0,0.426-0.046,0.621-0.135l1.686-0.767
	c0.645-0.293,0.996-0.995,0.846-1.687c-0.152-0.688-0.762-1.179-1.467-1.179c-0.002,0-0.004,0-0.006,0l-21.91,0.099
	c-3.842,0-6.982-3.126-7-6.969c-0.018-3.859,3.109-7.014,6.969-7.031l26.186-0.117c1.521,0,3.025,0.507,4.236,1.427l2.867,2.179
	c-0.324,0.661-0.52,1.395-0.52,2.18v20.667C79.471,61.451,79.516,61.807,79.59,62.152z"/>
</svg>
