<?xml version="1.0" encoding="utf-8"?>
<!-- Generator: Adobe Illustrator 16.0.0, SVG Export Plug-In . SVG Version: 6.00 Build 0)  -->
<!DOCTYPE svg PUBLIC "-//W3C//DTD SVG 1.1//EN" "http://www.w3.org/Graphics/SVG/1.1/DTD/svg11.dtd">
<svg version="1.1" id="Layer_11" xmlns="http://www.w3.org/2000/svg" xmlns:xlink="http://www.w3.org/1999/xlink" x="0px" y="0px"
	 width="100px" height="100px" viewBox="0 0 100 100" enable-background="new 0 0 100 100" xml:space="preserve">
<path d="M9.196,30.725c0-1.649,1.335-2.984,2.983-2.984h7.459c0.384,0,0.749,0.079,1.086,0.211c4.038-3.092,10.312-6.84,17.006-6.84
	c9.791,0,10.615,2.777,11.428,8.554c0.126,0.892,0.268,1.902,0.469,2.981c1.159,6.234-0.659,8.854-1.845,9.859
	c-1.289,1.096-3.012,1.367-4.725,0.747c-2.674-0.968-4.721-3.779-5.341-7.338c-0.121-0.679,0.337-1.334,1.021-1.453
	s1.334,0.338,1.454,1.021c0.558,3.199,2.354,4.913,3.721,5.408c0.605,0.218,1.486,0.344,2.245-0.3
	c1.293-1.099,1.668-3.897,1.001-7.486c-0.211-1.133-0.358-2.173-0.487-3.091c-0.708-5.037-0.899-6.392-8.94-6.392
	c-5.839,0-11.512,3.353-15.267,6.188c0.094,0.289,0.158,0.593,0.158,0.914v0.523v2.989v35.726c3.746,0.299,5.185,1.025,7.211,2.197
	c1.125,0.651,2.4,1.389,4.703,2.235c5.918,2.175,16.762,1.348,17.744,1.266c4.092-0.794,4.58-3.042,5.146-5.645
	c0.289-1.329,0.588-2.706,1.439-3.782l0.109-0.123c4.424-4.482,3.742-10.006,3.709-10.237c-0.042-0.322,0.021-0.632,0.161-0.897
	c0.016-0.072,0.03-0.144,0.058-0.214c0.022-0.06,2.24-6.047-1.833-9.487c-0.031-0.026-0.056-0.059-0.084-0.087
	c-0.347,0.001-0.538,0.001-0.538,0.001v-0.06h-0.644c-0.828,0-1.5-0.672-1.5-1.5s0.672-1.5,1.5-1.5h7.583
	c0.138,0,0.269,0.024,0.395,0.06l15.699-0.001c2.383,0.001,4.323-1.94,4.323-4.325c0-2.384-1.94-4.323-4.323-4.324H51.421
	c-0.164,0-0.303-0.014-0.46-0.018c-0.016-1-0.038-2-0.071-2.998c0.175,0.006,0.343,0.016,0.531,0.016h32.062
	c4.037,0,7.322,3.286,7.322,7.324c0,1.62-0.533,3.111-1.425,4.325c0,0-2.277,2.951-4.751,2.951c-1.427,0-13.113,0.025-19.701,0.04
	c2.505,3.899,1.438,8.541,0.96,10.106c-0.337,1.675-0.482,3.272-0.474,4.817c-0.479,2.396-1.622,5.369-4.234,8.046
	c-0.392,0.543-0.602,1.496-0.82,2.505c-0.59,2.716-1.482,6.82-7.596,7.969l-0.145,0.021c-0.498,0.045-12.313,1.068-19.117-1.433
	c-2.545-0.936-4-1.777-5.17-2.452c-1.578-0.912-2.621-1.512-5.709-1.785v0.519c0,1.646-1.338,2.983-2.984,2.983H12.18
	c-1.647,0-2.984-1.336-2.984-2.982L9.196,30.725z"/>
</svg>
