<?xml version="1.0" encoding="utf-8"?>
<!-- Generator: Adobe Illustrator 16.0.0, SVG Export Plug-In . SVG Version: 6.00 Build 0)  -->
<!DOCTYPE svg PUBLIC "-//W3C//DTD SVG 1.1//EN" "http://www.w3.org/Graphics/SVG/1.1/DTD/svg11.dtd">
<svg version="1.1" id="Layer_13" xmlns="http://www.w3.org/2000/svg" xmlns:xlink="http://www.w3.org/1999/xlink" x="0px" y="0px"
	 width="100px" height="100px" viewBox="0 0 100 100" enable-background="new 0 0 100 100" xml:space="preserve">
<path d="M48.691,57.705l4.135,20.465l-0.459,0.501c-0.483,0.529-1.168,0.83-1.886,0.83c0,0,0,0-0.003,0
	c-0.716-0.001-1.4-0.303-1.886-0.833L29.484,57.705h2.264c1.774,0,3.309-1.265,3.65-3.007l2.078-10.648l2.355,10.732
	c0.371,1.693,1.898,2.923,3.633,2.923H48.691z M20.31,46.961c0.685,1.127,1.484,2.229,2.401,3.305h5.974l4.927-25.25
	c0.337-1.722,1.854-2.987,3.608-3.007c1.813,0.014,3.304,1.218,3.677,2.927l5.56,25.33h5.279c1.761,0,3.294,1.253,3.646,2.98
	l1.444,7.153l0.871-6.56c0.246-1.841,1.832-3.229,3.688-3.229h16.652l0.155-0.17c0.027-0.032,0.057-0.063,0.084-0.097
	c0.878-1.063,1.643-2.132,2.305-3.212l1.737-3.448c0.929-2.343,1.387-4.75,1.387-7.257c0-10.401-7.835-19-17.912-20.222
	l-1.343-0.121c-0.372-0.021-0.744-0.032-1.119-0.032c-4.746,0-9.221,1.602-12.84,4.557c-3.618-2.955-8.095-4.557-12.841-4.557
	c-0.351,0-0.699,0.009-1.045,0.026l-1.346,0.119C25.149,17.384,17.275,26,17.275,36.426c0,2.447,0.447,4.821,1.336,7.109
	L20.31,46.961z M63.521,66.479l7.71-8.43h-6.591L63.521,66.479z M82.11,53.222H61.467c-0.532,0-0.983,0.394-1.054,0.922
	l-2.965,22.304l-4.589-22.719c-0.101-0.496-0.536-0.852-1.041-0.852h-7.416l-6.02-27.422c-0.106-0.491-0.527-0.831-1.05-0.834
	c-0.503,0.005-0.935,0.365-1.03,0.859l-5.347,27.398H17.358c-0.588,0-1.063,0.476-1.063,1.063c0,0.587,0.475,1.063,1.063,1.063
	h14.473c0.509,0,0.945-0.36,1.043-0.859l4.532-23.226l5.104,23.25c0.107,0.488,0.539,0.835,1.038,0.835h7.4l5.675,28.094
	c0.102,0.497,0.538,0.852,1.042,0.852c0.012,0,0.024,0,0.036,0c0.519-0.018,0.949-0.407,1.018-0.922l3.679-27.679H82.11
	c0.587,0,1.063-0.476,1.063-1.063S82.697,53.222,82.11,53.222z"/>
</svg>
