<?xml version="1.0" encoding="utf-8"?>
<!-- Generator: Adobe Illustrator 16.0.0, SVG Export Plug-In . SVG Version: 6.00 Build 0)  -->
<!DOCTYPE svg PUBLIC "-//W3C//DTD SVG 1.1//EN" "http://www.w3.org/Graphics/SVG/1.1/DTD/svg11.dtd">
<svg version="1.1" id="Layer_13" xmlns="http://www.w3.org/2000/svg" xmlns:xlink="http://www.w3.org/1999/xlink" x="0px" y="0px"
	 width="100px" height="100px" viewBox="0 0 100 100" enable-background="new 0 0 100 100" xml:space="preserve">
<path fill-rule="evenodd" clip-rule="evenodd" d="M68.103,29.307c-0.118-0.088-0.235-0.174-0.353-0.264
	c-2.713-2.096-4.762-4.549-6.091-7.289c-0.768-1.58-1.585-3.096-3.018-4.254c0.643-1.834,0.062-3.49-1.696-4.74
	c-0.446-0.316-1.053-0.285-1.465,0.074c-0.146,0.127-0.296,0.248-0.446,0.371c-0.393,0.318-0.799,0.65-1.162,1.078
	c-0.063,0.074-0.098,0.096-0.097,0.096c-0.007,0.002-0.26,0.002-0.473-0.031c-7.216-1.082-13.088,1.008-17.4,6.166
	c-3.041,3.639-4.271,7.965-5.003,11.326c-1.542,7.09-1.649,14.498-0.328,22.646c0.435,2.684,1.143,6.137,2.782,9.428
	c-0.605,0.49-0.961,1.203-0.972,2.029c-0.008,0.73,0.248,1.223,0.511,1.549c-0.796,1.271-1.426,2.375-1.946,3.422
	c-1.823,3.666-1.73,7.561,0.273,11.576c-0.272,0.281-0.519,0.648-0.712,1.125c-0.242,0.596-0.319,1.195-0.395,1.775
	c-0.029,0.223-0.057,0.447-0.098,0.676c-0.062,0.344,0.033,0.699,0.258,0.967c0.226,0.27,0.557,0.424,0.907,0.424h31.616
	c0.335,0,0.652-0.141,0.878-0.389c0.224-0.246,0.333-0.576,0.302-0.908l-0.042-0.475c-0.028-0.344-0.055-0.643-0.103-0.941
	c-0.156-0.953-0.5-1.693-1.029-2.217c1.234-2.063,1.755-4.373,1.546-6.877c-0.217-2.594-1.112-5.15-2.788-7.988
	c0.395-0.42,0.632-0.975,0.643-1.637c0.018-1.109-0.592-2.049-1.537-2.514l0.032-0.256c0.365-2.836,0.742-5.77,1.078-8.66
	c0.099-0.84-0.501-1.551-0.764-1.816c-0.432-0.439-0.879-0.863-1.326-1.287c-0.686-0.65-1.333-1.264-1.924-1.93
	c-3.754-4.225-6.029-8.453-6.943-12.906c0.851,1.025,2.065,1.605,3.519,1.619c0.86,0,1.697-0.203,2.467-0.393
	c3.222-0.787,5.281-0.416,7.104,1.238c0.299,0.27,0.615,0.447,0.896,0.604c0.093,0.051,0.187,0.102,0.276,0.158
	c0.472,0.291,1.079,0.219,1.469-0.176c1.586-1.611,2.722-3.338,3.475-5.277c0.674-1.74,0.319-3.199-1.085-4.461
	C68.675,29.732,68.39,29.52,68.103,29.307z M60.589,81.602c-0.035,0.02-0.094,0.045-0.166,0.063
	c-0.551,0.137-0.928,0.646-0.897,1.213c0.03,0.568,0.461,1.033,1.023,1.109c0.464,0.063,0.781,0.174,0.939,1.104H32.55
	c0.038-0.219,0.085-0.416,0.153-0.584c0.18-0.445,0.38-0.514,0.585-0.551c0.527-0.092,0.927-0.523,0.977-1.057
	c0.049-0.533-0.264-1.031-0.766-1.219c-0.014-0.006-0.043-0.016-0.105-0.141c-1.73-3.402-1.837-6.531-0.326-9.57
	c0.531-1.066,1.18-2.199,2.01-3.514c0.149,0.012,0.293,0.029,0.455,0.029c0,0,0,0,0.001,0H47.37c0.038,0,0.076-0.002,0.113-0.006
	h6.27c1.848,0,3.692,0,5.539-0.004c1.641,2.684,2.501,5.031,2.697,7.373C62.165,77.961,61.694,79.896,60.589,81.602z M67.816,33.574
	c-0.53,1.365-1.292,2.611-2.321,3.787c-1.659-1.502-3.578-2.234-5.868-2.234c-1.028,0-2.136,0.15-3.417,0.463
	c-0.666,0.164-1.297,0.318-1.904,0.318l0,0c-1.465-0.016-2.055-1.146-2.291-2.092c-0.038-0.15-0.053-0.305-0.071-0.459
	c-0.037-0.314-0.08-0.67-0.214-1.045c-0.159-0.445-0.451-0.754-0.664-0.98c-0.056-0.059-0.11-0.115-0.158-0.176
	c-0.22-0.27-0.547-0.432-0.896-0.439c-0.366,0.01-0.683,0.141-0.913,0.402c-0.045,0.049-0.104,0.098-0.161,0.148
	c-0.298,0.266-0.798,0.711-0.798,1.42c-0.001,1.344,0.017,2.555,0.233,3.783c0.906,5.119,3.398,9.914,7.619,14.664
	c0.658,0.742,1.374,1.42,2.065,2.076c0.428,0.404,0.855,0.811,1.267,1.229c0.029,0.029,0.054,0.061,0.075,0.088
	c-0.328,2.811-0.695,5.664-1.05,8.428l-0.165,1.279c-0.041,0.328,0.075,0.66,0.289,0.914c0.213,0.252,0.542,0.406,0.872,0.42
	c0.227,0.01,0.494,0.092,0.489,0.42c0,0.033-0.003,0.055-0.002,0.063c-0.008,0.004-0.034,0.012-0.051,0.018
	c-0.199-0.053-0.393-0.086-0.572-0.086c-8.021-0.025-16.044-0.027-24.066,0.006c-0.114,0-0.231,0.016-0.351,0.037
	c-0.014-0.006-0.032-0.01-0.041-0.016c-0.001-0.01-0.002-0.023-0.001-0.039c0.001-0.102,0.004-0.293,0.508-0.383
	c0.431-0.076,0.783-0.383,0.919-0.799s0.031-0.871-0.272-1.188c-0.066-0.068-0.117-0.139-0.164-0.227
	c-1.689-3.152-2.4-6.609-2.832-9.268c-1.272-7.85-1.173-14.969,0.305-21.764c1.002-4.602,2.392-7.781,4.506-10.311
	c3.811-4.559,8.796-6.303,15.234-5.344c0.199,0.031,0.463,0.064,0.732,0.064c0.807,0,1.459-0.309,1.994-0.941
	c0.149-0.178,0.34-0.348,0.547-0.521c0.433,0.564,0.386,1.174-0.101,2.025c-0.318,0.559-0.133,1.27,0.418,1.602
	c1.446,0.871,2.178,2.211,2.983,3.871c1.489,3.072,3.769,5.807,6.773,8.127c0.13,0.102,0.263,0.199,0.395,0.297
	c0.226,0.166,0.452,0.33,0.659,0.518C68.022,32.33,68.131,32.762,67.816,33.574z M38.212,58.887c0.153,0.637-0.237,1.277-0.873,1.43
	c-0.094,0.023-0.188,0.033-0.279,0.033c-0.535,0-1.019-0.363-1.15-0.906c-3.768-15.588-1.682-26.734-1.591-27.201
	c0.125-0.643,0.748-1.064,1.388-0.936c0.642,0.123,1.062,0.744,0.938,1.387C36.623,32.803,34.573,43.834,38.212,58.887z
	 M36.951,79.367c0.356,0.549,0.2,1.281-0.348,1.637c-0.2,0.131-0.423,0.191-0.645,0.191c-0.387,0-0.768-0.189-0.994-0.539
	c-2.835-4.367-1.15-8.078,0.136-9.432c0.451-0.473,1.201-0.49,1.674-0.041c0.472,0.449,0.492,1.193,0.048,1.668
	C36.71,72.975,34.459,75.527,36.951,79.367z"/>
</svg>
