<?xml version="1.0" encoding="utf-8"?>
<!-- Generator: Adobe Illustrator 16.0.0, SVG Export Plug-In . SVG Version: 6.00 Build 0)  -->
<!DOCTYPE svg PUBLIC "-//W3C//DTD SVG 1.1//EN" "http://www.w3.org/Graphics/SVG/1.1/DTD/svg11.dtd">
<svg version="1.1" id="Layer_13" xmlns="http://www.w3.org/2000/svg" xmlns:xlink="http://www.w3.org/1999/xlink" x="0px" y="0px"
	 width="100px" height="100px" viewBox="0 0 100 100" enable-background="new 0 0 100 100" xml:space="preserve">
<path d="M91.965,75.434c0.111-0.333,0.173-0.688,0.173-1.058V35.519c0-1.842-1.493-3.335-3.335-3.335H70.236v41.359
	c0,0.664-0.12,1.299-0.332,1.891h-2.177c0.111-0.333,0.173-0.688,0.173-1.058V21.009c0-1.842-1.494-3.335-3.335-3.335H35.435
	c-1.842,0-3.335,1.493-3.335,3.335v53.367c0,0.37,0.063,0.725,0.174,1.058h-2.177c-0.212-0.592-0.332-1.227-0.332-1.891V32.184
	H11.643c-1.842,0-3.335,1.493-3.335,3.335v38.857c0,0.37,0.063,0.725,0.173,1.058H2.748v6.893h94.505v-6.893H91.965z M18.313,61.813
	h-4.781v-4.781h4.781V61.813z M18.313,53.419h-4.781v-4.781h4.781V53.419z M18.313,45.303h-4.781v-4.781h4.781V45.303z
	 M25.763,61.813h-4.781v-4.781h4.781V61.813z M25.763,53.419h-4.781v-4.781h4.781V53.419z M25.763,45.303h-4.781v-4.781h4.781
	V45.303z M57.422,75.211H43.385V57.699h14.037V75.211z M50,42.689c-6.493,0-11.757-5.264-11.757-11.757
	c0-6.494,5.265-11.758,11.757-11.758c6.494,0,11.758,5.264,11.758,11.758C61.758,37.426,56.494,42.689,50,42.689z M80.354,61.813
	h-4.781v-4.781h4.781V61.813z M80.354,53.419h-4.781v-4.781h4.781V53.419z M80.354,45.303h-4.781v-4.781h4.781V45.303z
	 M87.802,61.813h-4.78v-4.781h4.78V61.813z M87.802,53.419h-4.78v-4.781h4.78V53.419z M87.802,45.303h-4.78v-4.781h4.78V45.303z
	 M52.918,28.014h4.503v5.836h-4.503v4.505h-5.836V33.85h-4.503v-5.836h4.503v-4.503h5.836V28.014z"/>
</svg>
