<?xml version="1.0" encoding="utf-8"?>
<!-- Generator: Adobe Illustrator 16.0.0, SVG Export Plug-In . SVG Version: 6.00 Build 0)  -->
<!DOCTYPE svg PUBLIC "-//W3C//DTD SVG 1.1//EN" "http://www.w3.org/Graphics/SVG/1.1/DTD/svg11.dtd">
<svg version="1.1" id="Layer_11" xmlns="http://www.w3.org/2000/svg" xmlns:xlink="http://www.w3.org/1999/xlink" x="0px" y="0px"
	 width="100px" height="100px" viewBox="0 0 100 100" enable-background="new 0 0 100 100" xml:space="preserve">
<path d="M50,4.936c-12.326,0-22.353,10.027-22.353,22.354v33.429c0,1.021,0.826,1.845,1.845,1.845h14.099v26.091
	c0,3.542,2.87,6.411,6.409,6.411c3.541,0,6.41-2.869,6.41-6.411V62.563h14.098c1.019,0,1.845-0.824,1.845-1.845V27.289
	C72.353,14.963,62.325,4.936,50,4.936z M37.541,27.909v26.888c0,1.189-0.964,2.154-2.153,2.154c-1.19,0-2.154-0.965-2.154-2.154
	V27.728c0-0.106,0.008-0.214,0.023-0.318c0.813-5.458,5.756-15.63,18.645-14.957c1.188,0.061,2.102,1.071,2.042,2.259
	c-0.061,1.188-1.075,2.116-2.259,2.042C40.104,16.176,37.801,26.496,37.541,27.909z"/>
</svg>
