<?xml version="1.0" encoding="utf-8"?>
<!-- Generator: Adobe Illustrator 16.0.0, SVG Export Plug-In . SVG Version: 6.00 Build 0)  -->
<!DOCTYPE svg PUBLIC "-//W3C//DTD SVG 1.1//EN" "http://www.w3.org/Graphics/SVG/1.1/DTD/svg11.dtd">
<svg version="1.1" id="Layer_12" xmlns="http://www.w3.org/2000/svg" xmlns:xlink="http://www.w3.org/1999/xlink" x="0px" y="0px"
	 width="100px" height="100px" viewBox="0 0 100 100" enable-background="new 0 0 100 100" xml:space="preserve">
<path d="M47.542,7.497v26.069c0,1.389-4.302,4.778-7.178,6.89v7.688c1.48,0.512,2.55,1.902,2.55,3.557v40.804
	c0,2.086-1.691,3.778-3.777,3.778h-2.645c-2.086,0-3.779-1.692-3.779-3.778V51.7c0-1.654,1.071-3.045,2.551-3.557v-7.606
	c-3.055-2.104-7.745-5.565-7.745-6.972V7.497c0-2.087,1.012-3.779,3.269-3.779h1.348v27.196c0,0.647,0.823,1.17,1.839,1.17
	c1.015,0,1.838-0.523,1.838-1.17V3.718h3.406v27.196c0,0.647,0.823,1.17,1.839,1.17s1.839-0.523,1.839-1.17V3.718h0.558
	C45.712,3.718,47.542,5.41,47.542,7.497z M68.615,4.384c0,0-10.053,6.573-10.053,23.973c0,1.445,0,2.57,0,3.442
	c0,17.171,3.772,24.735,6.304,29.113V93.49c0,1.542,1.25,2.792,2.793,2.792h1.955c1.542,0,2.793-1.25,2.793-2.792V59.273
	c0.048-0.245,0.076-0.498,0.076-0.757V8.25C72.481,6.114,71.644,3.159,68.615,4.384z"/>
</svg>
