<?xml version="1.0" encoding="utf-8"?>
<!-- Generator: Adobe Illustrator 16.0.0, SVG Export Plug-In . SVG Version: 6.00 Build 0)  -->
<!DOCTYPE svg PUBLIC "-//W3C//DTD SVG 1.1//EN" "http://www.w3.org/Graphics/SVG/1.1/DTD/svg11.dtd">
<svg version="1.1" id="Layer_12" xmlns="http://www.w3.org/2000/svg" xmlns:xlink="http://www.w3.org/1999/xlink" x="0px" y="0px"
	 width="100px" height="100px" viewBox="0 0 100 100" enable-background="new 0 0 100 100" xml:space="preserve">
<path d="M17.473,93.316l0-7.84h65.053v7.84c0,0.761,0.616,1.377,1.377,1.377s1.377-0.616,1.377-1.377v-8.107h8.109
	c0.761,0,1.377-0.617,1.377-1.377c0-0.761-0.616-1.377-1.377-1.377H85.28V17.546h8.109c0.761,0,1.377-0.617,1.377-1.377
	c0-0.762-0.616-1.377-1.377-1.377H85.28l0-8.109c0-0.761-0.616-1.377-1.377-1.377s-1.377,0.616-1.377,1.377v8.109H17.473V6.683
	c0-0.761-0.616-1.377-1.377-1.377s-1.377,0.616-1.377,1.377v8.109H6.609c-0.761,0-1.377,0.615-1.377,1.377
	c0,0.76,0.616,1.377,1.377,1.377h7.985v64.908H6.609c-0.761,0-1.377,0.616-1.377,1.377c0,0.76,0.616,1.377,1.377,1.377h8.109
	l0,8.107c0,0.761,0.616,1.377,1.377,1.377S17.473,94.077,17.473,93.316z M17.411,38.505V17.546h21.113v20.959H17.411z
	 M39.442,38.505V17.546h21.052v20.959H39.442z M61.474,38.505V17.546h21.052l0,20.959H61.474z M17.411,60.538V39.423h21.113
	l0,21.114H17.411z M39.443,60.538l0-21.114h21.052l0,21.114H39.443z M61.474,60.538l0-21.114h21.052v21.114H61.474z M17.411,82.569
	V61.456h21.114v21.113H17.411z M39.443,82.569V61.456h21.052v21.113H39.443z M61.474,82.569V61.456h21.052v21.113H61.474z
	 M41.333,80.857V63.525h17.332v17.332H41.333z"/>
</svg>
