<?xml version="1.0" encoding="utf-8"?>
<!-- Generator: Adobe Illustrator 16.0.0, SVG Export Plug-In . SVG Version: 6.00 Build 0)  -->
<!DOCTYPE svg PUBLIC "-//W3C//DTD SVG 1.1//EN" "http://www.w3.org/Graphics/SVG/1.1/DTD/svg11.dtd">
<svg version="1.1" id="Layer_12" xmlns="http://www.w3.org/2000/svg" xmlns:xlink="http://www.w3.org/1999/xlink" x="0px" y="0px"
	 width="100px" height="100px" viewBox="0 0 100 100" enable-background="new 0 0 100 100" xml:space="preserve">
<path d="M6.684,17.474h7.84v65.053h-7.84c-0.761,0-1.377,0.617-1.377,1.377c0,0.761,0.616,1.377,1.377,1.377h8.107v8.109
	c0,0.76,0.617,1.377,1.377,1.377c0.761,0,1.377-0.617,1.377-1.377V85.28h64.908v8.109c0,0.76,0.617,1.377,1.377,1.377
	c0.762,0,1.377-0.617,1.377-1.377V85.28h8.109c0.761,0,1.377-0.616,1.377-1.377c0-0.76-0.616-1.377-1.377-1.377h-8.109V17.474h8.109
	c0.761,0,1.377-0.617,1.377-1.377c0-0.761-0.616-1.377-1.377-1.377h-8.109V6.61c0-0.76-0.615-1.377-1.377-1.377
	c-0.76,0-1.377,0.617-1.377,1.377v7.986H17.545V6.61c0-0.76-0.616-1.377-1.377-1.377c-0.76,0-1.377,0.617-1.377,1.377v8.109H6.684
	c-0.761,0-1.377,0.616-1.377,1.377C5.307,16.857,5.923,17.474,6.684,17.474z M61.494,17.412h20.959v21.114H61.494V17.412z
	 M61.494,39.443h20.959v21.052H61.494V39.443z M61.494,61.475h20.959v21.052H61.494V61.475z M39.462,17.412h21.114v21.114H39.462
	V17.412z M39.462,39.443h21.114v21.052H39.462V39.443z M39.462,61.475h21.114v21.052H39.462V61.475z M17.431,17.412h21.113v21.114
	H17.431V17.412z M17.431,39.443h21.113v21.052H17.431V39.443z M17.431,61.475h21.113v21.052H17.431V61.475z M19.093,41.333h17.332
	v17.333H19.093V41.333z"/>
</svg>
