<?xml version="1.0" encoding="utf-8"?>
<!-- Generator: Adobe Illustrator 16.0.0, SVG Export Plug-In . SVG Version: 6.00 Build 0)  -->
<!DOCTYPE svg PUBLIC "-//W3C//DTD SVG 1.1//EN" "http://www.w3.org/Graphics/SVG/1.1/DTD/svg11.dtd">
<svg version="1.1" id="Layer_11" xmlns="http://www.w3.org/2000/svg" xmlns:xlink="http://www.w3.org/1999/xlink" x="0px" y="0px"
	 width="100px" height="100px" viewBox="0 0 100 100" enable-background="new 0 0 100 100" xml:space="preserve">
<path d="M84.126,59.688c2.897-13.449-6.59-28.695-22.913-35.571c-16.459-6.935-34.15-2.946-41.644,8.747
	c-2.658,0.002-5.062,1.353-6.042,3.681c-1.125,2.669-0.027,5.781,2.472,7.681c-0.517,12.386,8.649,25.443,23.404,31.659
	c14.679,6.185,30.339,3.683,38.873-5.224c3.433,0.945,6.954-0.439,8.196-3.387C87.578,64.649,86.537,61.594,84.126,59.688z
	 M31.24,32.76c-0.593,0.382-1.385,0.206-1.764-0.389c-0.38-0.595-0.205-1.385,0.39-1.764c0.155-0.101,15.854-9.883,32.612-0.024
	c0.607,0.357,0.812,1.141,0.453,1.748c-0.237,0.405-0.664,0.63-1.102,0.63c-0.221,0-0.442-0.057-0.646-0.176
	C45.759,23.708,31.385,32.669,31.24,32.76z M65.136,72.607c-2.321,1.045-4.942,1.392-7.396,1.392c-4.675,0-8.741-1.258-8.997-1.338
	c-0.673-0.213-1.045-0.929-0.834-1.601s0.929-1.048,1.601-0.836c0.088,0.027,8.724,2.688,14.578,0.054
	c0.642-0.288,1.399-0.003,1.688,0.642C66.065,71.563,65.779,72.318,65.136,72.607z"/>
</svg>
