<?xml version="1.0" encoding="utf-8"?>
<!-- Generator: Adobe Illustrator 16.0.0, SVG Export Plug-In . SVG Version: 6.00 Build 0)  -->
<!DOCTYPE svg PUBLIC "-//W3C//DTD SVG 1.1//EN" "http://www.w3.org/Graphics/SVG/1.1/DTD/svg11.dtd">
<svg version="1.1" id="Layer_11" xmlns="http://www.w3.org/2000/svg" xmlns:xlink="http://www.w3.org/1999/xlink" x="0px" y="0px"
	 width="100px" height="100px" viewBox="0 0 100 100" enable-background="new 0 0 100 100" xml:space="preserve">
<g>
	<path d="M50,7.669c-11.769,0-21.344,9.575-21.344,21.344S38.231,50.356,50,50.356s21.344-9.575,21.344-21.344
		S61.769,7.669,50,7.669z M60.686,43.606c-1.304,0.503-2.89,0.938-4.72,1.074c-1.985,0.127-4.254-0.086-6.485-0.95
		c-2.225-0.863-4.403-2.315-6.104-4.396c-1.596-1.972-2.533-4.7-2.399-7.443c0.066-1.374,0.401-2.751,0.998-4.015
		c0.583-1.249,1.484-2.443,2.45-3.354c2.015-1.898,4.975-2.563,7.598-1.803c1.312,0.35,2.51,1.058,3.497,1.995
		c0.55,0.576,0.796,0.934,1.124,1.521c0.301,0.557,0.479,1.172,0.586,1.79c0.212,1.247-0.004,2.541-0.52,3.671
		c-0.277,0.558-0.631,1.076-1.053,1.539l-0.781,0.665c-0.267,0.174-0.425,0.2-0.626,0.345c-0.99,0.476-2.229,0.538-3.297,0.228
		c-0.29-0.03-0.521-0.202-0.781-0.307c-0.273-0.091-0.491-0.269-0.713-0.441l-0.345-0.246l-0.021-0.015
		c0.017,0.02,0.001,0.003-0.011-0.01l-0.039-0.043l-0.186-0.211l-0.363-0.417c-0.037-0.093-0.078-0.179-0.127-0.262
		c-0.116-0.135-0.193-0.39-0.276-0.632c-0.121-0.233-0.102-0.495-0.157-0.744c-0.063-0.252,0.016-0.504,0-0.758
		c0.015-0.254,0.113-0.488,0.147-0.74c0.076-0.238,0.202-0.455,0.29-0.693c0.127-0.214,0.291-0.405,0.425-0.618l0.026-0.04
		l0.013-0.02c0.006-0.007-0.002,0.001-0.015,0.012l0.03-0.027l0.186-0.169c0.117-0.099,0.262-0.25,0.354-0.306
		c0.182-0.057,0.251-0.197,0.494-0.26c0.838-0.354,1.818-0.286,2.598,0.125c0.188,0.112,0.36,0.249,0.55,0.366
		c0.032,0.038,0.422,0.413,0.444,0.508c0.174,0.223,0.351,0.666,0.395,1.042c0.136,0.793-0.235,1.581-0.697,2.091
		c-0.081,0.074-0.168,0.166-0.241,0.226c-0.064,0.035-0.125,0.073-0.185,0.115c-0.103,0.1-0.299,0.132-0.444,0.208
		c-0.323,0.085-0.657,0.122-0.97,0.065c-0.312-0.048-0.607-0.158-0.849-0.32l-0.182-0.121c-0.021-0.01-0.083-0.059-0.069-0.037
		L50.15,31.71c-0.11-0.112-0.231-0.225-0.276-0.321c-0.283-0.396-0.362-0.9-0.329-1.273c0.111-0.769,0.484-1.097,0.456-1.103
		c0.033,0.018-0.411,0.231-0.698,1.054c-0.104,0.416-0.157,0.969,0.134,1.604c0.24,0.56,0.869,1.172,1.69,1.435
		c0.417,0.143,0.893,0.18,1.39,0.124c0.246-0.067,0.491-0.074,0.759-0.216l0.399-0.193c0.109-0.065,0.19-0.128,0.287-0.193
		c0.888-0.669,1.557-1.793,1.555-3.122c-0.012-0.328-0.013-0.668-0.115-0.998c-0.056-0.328-0.209-0.686-0.402-1.044
		c-0.224-0.407-0.265-0.425-0.581-0.839c-0.259-0.239-0.521-0.496-0.813-0.721c-1.203-0.866-2.905-1.19-4.522-0.714
		c-0.397,0.074-0.856,0.357-1.275,0.571c-0.191,0.113-0.283,0.2-0.43,0.303l-0.202,0.149l-0.102,0.074
		c0.08-0.073-0.137,0.119-0.125,0.11l-0.027,0.029l-0.053,0.059c-0.28,0.314-0.583,0.626-0.838,0.976
		c-0.216,0.374-0.462,0.749-0.641,1.156c-0.138,0.421-0.324,0.844-0.394,1.294c-0.043,0.451-0.161,0.91-0.115,1.375
		c0.04,0.463,0.026,0.942,0.177,1.397c0.116,0.461,0.227,0.921,0.51,1.42c0.124,0.245,0.255,0.488,0.393,0.726l0.342,0.456
		l0.17,0.225l0.086,0.112l0.042,0.058c0.231,0.258,0.083,0.089,0.144,0.154l0.032,0.029l0.537,0.473
		c0.358,0.321,0.727,0.636,1.168,0.854c0.43,0.231,0.843,0.517,1.326,0.643c1.864,0.712,4.014,0.69,5.994-0.126
		c0.505-0.248,1.098-0.55,1.505-0.825l0.483-0.378l0.242-0.188l0.122-0.095l0.06-0.049l0.031-0.022
		c-0.022,0.021,0.296-0.27,0.177-0.162c0.723-0.716,1.352-1.543,1.853-2.456c0.98-1.834,1.402-4.015,1.065-6.126
		c-0.159-1.052-0.46-2.098-0.953-3.06c-0.455-0.931-1.229-1.971-1.877-2.625c-1.469-1.456-3.316-2.587-5.335-3.146
		c-4.03-1.14-8.627,0.051-11.532,2.867c-2.962,2.778-4.432,6.65-4.444,10.365c-0.042,3.743,1.484,7.214,3.803,9.677
		c1.103,1.187,2.387,2.152,3.692,2.926c1.326,0.752,2.69,1.307,4.04,1.666c1.989,0.564,3.926,0.652,5.672,0.488
		c-1.413,0.355-2.883,0.564-4.405,0.564c-9.989,0-18.115-8.126-18.115-18.114S40.011,10.897,50,10.897s18.115,8.127,18.115,18.115
		C68.115,35.003,65.18,40.308,60.686,43.606z M48.757,28.346l0.002-0.002C48.733,28.368,48.716,28.384,48.757,28.346z"/>
	<path d="M45.83,88.16c0,2.305,1.867,4.171,4.17,4.171s4.17-1.866,4.17-4.171V51.433H45.83V88.16z"/>
</g>
</svg>
