<?xml version="1.0" encoding="utf-8"?>
<!-- Generator: Adobe Illustrator 16.0.0, SVG Export Plug-In . SVG Version: 6.00 Build 0)  -->
<!DOCTYPE svg PUBLIC "-//W3C//DTD SVG 1.1//EN" "http://www.w3.org/Graphics/SVG/1.1/DTD/svg11.dtd">
<svg version="1.1" id="Layer_13" xmlns="http://www.w3.org/2000/svg" xmlns:xlink="http://www.w3.org/1999/xlink" x="0px" y="0px"
	 width="100px" height="100px" viewBox="0 0 100 100" enable-background="new 0 0 100 100" xml:space="preserve">
<path d="M77.009,10.871c1.417-0.675,2.02-2.369,1.346-3.787c-0.674-1.418-2.371-2.021-3.787-1.347l-22.226,10.57L26.927,4.221
	c-1.417-0.674-3.113-0.071-3.788,1.347c-0.674,1.418-0.071,3.113,1.346,3.788l2.171,1.033l-0.906,18.6
	c-1.224,0.75-1.72,2.307-1.089,3.632c0.204,0.43,0.505,0.78,0.862,1.047l-1.124,23.08c-1.286,0.073-2.523,0.722-3.297,1.873
	c-1.314,1.954-0.795,4.604,1.159,5.918L36,73.775c0.707,0.476,1.536,0.726,2.379,0.726c0.172,0,0.346-0.011,0.518-0.032l1.481-0.182
	v14.338c0,5.039,4.085,9.125,9.125,9.125s9.125-4.086,9.125-9.125v-15.5c0-0.014-0.002-0.025-0.002-0.039l1.956,0.624l5.389,12.436
	c0.697,1.608,2.267,2.569,3.915,2.569c0.565,0,1.141-0.113,1.693-0.354c2.16-0.936,3.153-3.446,2.217-5.607l-1.513-3.489l2.535-46.6
	c0.851-0.17,1.614-0.718,2.015-1.561c0.675-1.418,0.071-3.114-1.346-3.788l-0.367-0.175l0.858-15.779L77.009,10.871z M27.353,10.719
	l18.37,8.736l-19.241,9.152L27.353,10.719z M27.02,57.461c-0.591-0.398-1.247-0.625-1.909-0.697l1.106-22.715
	c0.322,0.123,0.665,0.194,1.014,0.194c0.409,0,0.825-0.089,1.219-0.276l4.162-1.979l4.568,32.306L27.02,57.461z M53.998,62.657
	c-0.277-0.276-0.584-0.521-0.913-0.736c3.975-1.303,6.85-5.038,6.85-9.45c0-5.494-4.455-9.948-9.949-9.948
	c-5.495,0-9.949,4.454-9.949,9.948c0,4.412,2.874,8.147,6.85,9.45c-1.152,0.752-2.512,1.409-2.882,2.771l-4.566,1.12l-1.466-0.985
	l-4.688-33.159l19.057-9.063l16.873,8.023L63.062,65.55L53.998,62.657z M71.651,77.807l-4.014-9.265
	c-0.489-1.13-1.443-1.992-2.616-2.367l-1.276-0.407l6.135-34.822l3.164,1.505c0.344,0.163,0.703,0.238,1.06,0.26L71.651,77.807z
	 M74.425,26.813l-15.466-7.357l16.287-7.745L74.425,26.813z"/>
</svg>
