<?xml version="1.0" encoding="utf-8"?>
<!-- Generator: Adobe Illustrator 16.0.0, SVG Export Plug-In . SVG Version: 6.00 Build 0)  -->
<!DOCTYPE svg PUBLIC "-//W3C//DTD SVG 1.1//EN" "http://www.w3.org/Graphics/SVG/1.1/DTD/svg11.dtd">
<svg version="1.1" id="Layer_12" xmlns="http://www.w3.org/2000/svg" xmlns:xlink="http://www.w3.org/1999/xlink" x="0px" y="0px"
	 width="100px" height="100px" viewBox="0 0 100 100" enable-background="new 0 0 100 100" xml:space="preserve">
<g>
	<path d="M93.244,27.069L76.243,10.067c-1.956-1.956-5.127-1.956-7.083,0L28.426,50.8c-0.742,0.742-1.198,1.659-1.377,2.618
		c0.108,0.048,0.214,0.116,0.314,0.216l22.61,22.61c0.93-0.189,1.817-0.638,2.538-1.359l40.732-40.732
		C95.2,32.197,95.201,29.024,93.244,27.069z M82.397,40.041L51.98,70.457c-0.913,0.914-2.331-0.502-1.417-1.416L80.98,38.624
		C81.894,37.711,83.311,39.127,82.397,40.041z"/>
	<path d="M22.583,56.644L17.8,61.426c-1.956,1.956-1.956,5.128,0,7.084l2.318,2.317c-0.6,0.353-1.192,0.807-1.742,1.357
		c-2.176,2.176-5.704,7.844-4.383,9.165l7.969,7.97c1.32,1.32,6.989-2.207,9.165-4.384c0.55-0.551,1.005-1.143,1.357-1.742
		l2.318,2.317c1.956,1.957,5.128,1.957,7.084,0l4.781-4.781c0.968-0.968,1.447-2.232,1.458-3.501L26.083,55.187
		C24.815,55.196,23.55,55.677,22.583,56.644z"/>
	<path d="M13.13,83.429c-0.3-0.285-0.776-0.274-1.062,0.025l-6.572,6.884c-0.286,0.3-0.275,0.776,0.025,1.063l14.518-0.337
		c0.286-0.3,0.275-0.774-0.024-1.063L13.13,83.429z"/>
</g>
</svg>
