<?xml version="1.0" encoding="utf-8"?>
<!-- Generator: Adobe Illustrator 16.0.0, SVG Export Plug-In . SVG Version: 6.00 Build 0)  -->
<!DOCTYPE svg PUBLIC "-//W3C//DTD SVG 1.1//EN" "http://www.w3.org/Graphics/SVG/1.1/DTD/svg11.dtd">
<svg version="1.1" id="Layer_13" xmlns="http://www.w3.org/2000/svg" xmlns:xlink="http://www.w3.org/1999/xlink" x="0px" y="0px"
	 width="100px" height="100px" viewBox="0 0 100 100" enable-background="new 0 0 100 100" xml:space="preserve">
<path d="M78.039,11.874v11.693H22.445V11.874H78.039z M78.039,25.483L70.24,53.187h4.256c1.246,0,2.35,0.801,2.734,1.985
	c0.385,1.186-0.037,2.483-1.043,3.216L62.531,68.31l5.217,16.054c0.383,1.184-0.037,2.481-1.045,3.214
	c-0.504,0.366-1.098,0.549-1.689,0.549c-0.594,0-1.188-0.183-1.691-0.549l-13.654-9.921l-13.656,9.921
	c-1.008,0.731-2.373,0.731-3.381,0c-1.008-0.732-1.43-2.03-1.045-3.214l5.217-16.054l-13.656-9.922
	c-1.008-0.732-1.428-2.03-1.045-3.216c0.385-1.185,1.49-1.985,2.736-1.985h5.404l-7.797-27.703h18.021v27.703h1.25l5.215-16.054
	c0.385-1.184,1.49-1.987,2.736-1.987c1.244,0,2.348,0.804,2.732,1.987l5.217,16.054h2.402V25.483H78.039z M65.646,58.937H55.527
	c-1.246,0-2.35-0.802-2.734-1.987l-3.125-9.622l-3.127,9.622c-0.387,1.186-1.49,1.987-2.734,1.987H33.686l8.188,5.947
	c1.008,0.732,1.428,2.029,1.045,3.216l-3.129,9.624l8.188-5.947c0.504-0.366,1.098-0.55,1.691-0.55c0.592,0,1.184,0.184,1.689,0.55
	l8.186,5.947L56.416,68.1c-0.383-1.187,0.037-2.483,1.045-3.216L65.646,58.937z"/>
</svg>
