<?xml version="1.0" encoding="utf-8"?>
<!-- Generator: Adobe Illustrator 16.0.0, SVG Export Plug-In . SVG Version: 6.00 Build 0)  -->
<!DOCTYPE svg PUBLIC "-//W3C//DTD SVG 1.1//EN" "http://www.w3.org/Graphics/SVG/1.1/DTD/svg11.dtd">
<svg version="1.1" id="Layer_13" xmlns="http://www.w3.org/2000/svg" xmlns:xlink="http://www.w3.org/1999/xlink" x="0px" y="0px"
	 width="100px" height="100px" viewBox="0 0 100 100" enable-background="new 0 0 100 100" xml:space="preserve">
<path d="M75.747,63.542v-5.023h12.727v18.864c0,3.699-2.998,6.698-6.697,6.698H17.925c-3.698,0-6.698-2.999-6.698-6.698V58.519
	h11.832v5.023h-1.061v5.581h4.577v-5.581h-1.172v-5.023h48v5.023H72.32v5.581h4.576v-5.581H75.747z M51.306,37.923h-2.911v6.08
	h-6.079v2.911h6.079v6.079h2.911v-6.079h6.08v-2.911h-6.08V37.923z M25.403,57.067h-2.345v1.452h2.345V57.067z M73.403,58.519h2.344
	v-1.452h-2.344V58.519z M23.059,67.561h2.345v-4.018h-2.345V67.561z M75.747,67.561v-4.018h-2.344v4.018H75.747z M92.097,34.464
	l-0.067,0.159l-3.556,6.761v15.683H75.747v-6.92h-2.344v6.92h-48v-6.92h-2.345v6.92H11.227V44.42l-0.352,0.13
	c-0.3-0.812-7.255-19.956-0.839-26.478c2.472-2.511,6.459-2.827,11.854-0.938c5.097,1.784,8.831,3.285,11.831,4.491
	c7.772,3.125,10.68,4.292,20.524,3.742c1.054-0.059,2.878-0.32,5.186-0.65c9.981-1.43,26.688-3.822,31.75,2.182
	C92.792,28.808,93.1,31.354,92.097,34.464z M58.78,45.458c0-4.932-3.998-8.931-8.93-8.931s-8.931,3.999-8.931,8.931
	s3.999,8.931,8.931,8.931S58.78,50.391,58.78,45.458z M89.646,28.193c-4.344-5.153-20.988-2.769-29.929-1.488
	c-2.356,0.338-4.218,0.604-5.358,0.668c-10.289,0.578-13.539-0.729-21.387-3.884c-2.98-1.199-6.691-2.69-11.746-4.459
	c-4.597-1.609-7.879-1.458-9.756,0.45c-3.523,3.58-2.004,12.961-0.243,19.481v-2.21c0-3.699-1.019-6.697,2.68-6.697H85.46
	c3.699,0,3.014,2.999,3.014,6.697v0.317l1.736-3.3C90.968,31.365,90.782,29.542,89.646,28.193z"/>
</svg>
