<?xml version="1.0" encoding="utf-8"?>
<!-- Generator: Adobe Illustrator 16.0.0, SVG Export Plug-In . SVG Version: 6.00 Build 0)  -->
<!DOCTYPE svg PUBLIC "-//W3C//DTD SVG 1.1//EN" "http://www.w3.org/Graphics/SVG/1.1/DTD/svg11.dtd">
<svg version="1.1" id="Layer_12" xmlns="http://www.w3.org/2000/svg" xmlns:xlink="http://www.w3.org/1999/xlink" x="0px" y="0px"
	 width="100px" height="100px" viewBox="0 0 100 100" enable-background="new 0 0 100 100" xml:space="preserve">
<path d="M82.526,6.684v7.84H17.474v-7.84c0-0.761-0.616-1.377-1.377-1.377S14.72,5.923,14.72,6.684v8.107H6.61
	c-0.761,0-1.377,0.617-1.377,1.377c0,0.761,0.616,1.377,1.377,1.377h8.109v64.908H6.61c-0.761,0-1.377,0.617-1.377,1.377
	c0,0.762,0.616,1.377,1.377,1.377h8.109v8.109c0,0.761,0.616,1.377,1.377,1.377s1.377-0.616,1.377-1.377v-8.109h65.053v8.109
	c0,0.761,0.616,1.377,1.377,1.377s1.377-0.616,1.377-1.377v-8.109h8.109c0.761,0,1.377-0.615,1.377-1.377
	c0-0.76-0.616-1.377-1.377-1.377h-7.985V17.545h7.985c0.761,0,1.377-0.616,1.377-1.377c0-0.76-0.616-1.377-1.377-1.377H85.28V6.684
	c0-0.761-0.616-1.377-1.377-1.377S82.526,5.923,82.526,6.684z M82.588,61.494v20.959H61.475V61.494H82.588z M60.557,61.494v20.959
	H39.505V61.494H60.557z M38.525,61.494v20.959H17.474V61.494H38.525z M82.588,39.462v21.114H61.475V39.462H82.588z M60.557,39.462
	v21.114H39.505V39.462H60.557z M38.525,39.462v21.114H17.474V39.462H38.525z M82.588,17.431v21.113H61.475V17.431H82.588z
	 M60.557,17.431v21.113H39.505V17.431H60.557z M38.525,17.431v21.113H17.474V17.431H38.525z M80.917,19.093v17.332H63.585V19.093
	H80.917z"/>
</svg>
