<?xml version="1.0" encoding="utf-8"?>
<!-- Generator: Adobe Illustrator 16.0.0, SVG Export Plug-In . SVG Version: 6.00 Build 0)  -->
<!DOCTYPE svg PUBLIC "-//W3C//DTD SVG 1.1//EN" "http://www.w3.org/Graphics/SVG/1.1/DTD/svg11.dtd">
<svg version="1.1" id="Layer_13" xmlns="http://www.w3.org/2000/svg" xmlns:xlink="http://www.w3.org/1999/xlink" x="0px" y="0px"
	 width="100px" height="100px" viewBox="0 0 100 100" enable-background="new 0 0 100 100" xml:space="preserve">
<path d="M71.218,69.223c-1.706-6.558-8.712-9.772-14.193-10.531c-1.421-0.199-2.375,0.949-2.45,2.046
	c-0.066,0.964,0.542,1.702,1.515,1.836c2.638,0.366,8.998,1.796,11.098,7.175c1.229,3.147,0.18,4.594-2.251,6.063
	c-1.504-0.831-3.008-1.251-4.472-1.251c-4.166,0-6.95,3.337-8.072,4.989c-3.26,0.253-6.54,0.045-9.506-0.604
	c-2.78-0.609-6.563-2.057-8.802-5.498c-1.879-2.886-2.202-6.595-0.958-11.024c1.975-7.037,6.26-13.462,10.404-19.676
	c1.573-2.359,3.2-4.798,4.646-7.199c3.002-4.987,6.258-10.841,6.879-17.202c0.068-0.695-0.191-1.143-0.421-1.396
	c-0.34-0.375-0.862-0.591-1.43-0.591c-0.974,0-2.022,0.649-2.144,1.889c-0.439,4.491-2.602,8.688-4.781,12.602
	c-1.915,3.439-4.088,6.813-6.189,10.077c-0.753,1.169-1.507,2.339-2.25,3.513l-0.541,0.853c-4.452,7.015-9.992,15.746-8.741,24.638
	c1.225,8.708,8.618,13.704,20.284,13.704c6.359,0,13.21-1.621,17.879-4.229C70.978,77.028,72.407,73.792,71.218,69.223z"/>
</svg>
