<?xml version="1.0" encoding="utf-8"?>
<!-- Generator: Adobe Illustrator 16.0.0, SVG Export Plug-In . SVG Version: 6.00 Build 0)  -->
<!DOCTYPE svg PUBLIC "-//W3C//DTD SVG 1.1//EN" "http://www.w3.org/Graphics/SVG/1.1/DTD/svg11.dtd">
<svg version="1.1" id="Layer_12" xmlns="http://www.w3.org/2000/svg" xmlns:xlink="http://www.w3.org/1999/xlink" x="0px" y="0px"
	 width="100px" height="100px" viewBox="0 0 100 100" enable-background="new 0 0 100 100" xml:space="preserve">
<path d="M8.208,47.98L32.194,7.123c0.383-0.656,1.123-1.064,1.932-1.064c0.807,0,1.547,0.408,1.93,1.063l16.295,27.756l-2.254,1.174
	L37.188,13.285c-0.467-0.793-1.365-1.229-2.277-1.1c-0.91,0.127-1.656,0.791-1.887,1.682l-8.918,36.109
	c-0.174,0.598-0.094,1.244,0.221,1.781c0.316,0.539,0.838,0.924,1.445,1.068c2.873,0.672,5.838,1.014,8.814,1.014l0,0
	c0.305,0,0.607-0.006,0.906-0.012l0.014,2.904c-0.641,0.023-1.287,0.039-1.943,0.039H33.56c-8.637,0-16.883-2.029-24.506-6.033
	c-0.52-0.273-0.889-0.717-1.041-1.254C7.868,48.975,7.938,48.441,8.208,47.98z M39.196,47.596c0.002-0.414,0.236-0.793,0.605-0.979
	l25.186-13.129c0.289-0.145,0.625-0.156,0.922-0.031l25.48,12.34c0.021,0.01,0.039,0.025,0.061,0.037
	c0.025,0.012,0.053,0.018,0.076,0.033c0.025,0.014,0.045,0.035,0.068,0.053c0.037,0.025,0.07,0.051,0.104,0.082
	c0.041,0.037,0.076,0.076,0.111,0.119c0.027,0.033,0.053,0.066,0.076,0.104c0.031,0.047,0.055,0.098,0.076,0.148
	c0.018,0.039,0.035,0.076,0.047,0.115c0.018,0.059,0.025,0.117,0.035,0.178c0.004,0.031,0.016,0.061,0.018,0.092
	c0,0.008-0.004,0.016-0.002,0.023c0,0.01,0.002,0.02,0.002,0.029v32.621c0,0.404-0.221,0.775-0.576,0.969L66.759,93.809
	c-0.162,0.088-0.342,0.133-0.521,0.133c-0.195,0-0.391-0.053-0.564-0.156c-0.1-0.061-0.186-0.139-0.26-0.225h-0.002
	c-0.18,0-0.359-0.045-0.521-0.131L39.847,80.316c-0.354-0.189-0.576-0.561-0.578-0.963L39.122,48c0-0.135,0.031-0.264,0.078-0.387
	C39.2,47.607,39.196,47.602,39.196,47.596z M67.337,90.998l22.525-12.223V48.654L67.337,61.242V90.998z M66.224,59.344
	l22.197-12.412l-22.898-11.25L42.72,47.611L66.224,59.344z M26.142,83.424c0.588,0.324,1.199,0.629,1.828,0.914l-1.027,0.297
	c-0.385,0.111-0.703,0.366-0.896,0.717c-0.193,0.352-0.238,0.757-0.127,1.142c0.223,0.769,1.088,1.246,1.857,1.023l4.98-1.442
	c0.385-0.111,0.705-0.366,0.898-0.717c0.191-0.352,0.236-0.757,0.125-1.141l-1.441-4.982c-0.223-0.769-1.088-1.246-1.857-1.023
	c-0.385,0.111-0.703,0.367-0.896,0.717c-0.193,0.352-0.238,0.757-0.127,1.142l0.545,1.882c-0.842-0.342-1.652-0.727-2.414-1.146
	c-11.828-6.516-10.836-20.53-10.824-20.671c0.049-0.589-0.254-1.153-0.771-1.438c-0.186-0.104-0.389-0.164-0.6-0.182
	c-0.82-0.068-1.549,0.546-1.617,1.37C13.763,60.046,12.642,75.987,26.142,83.424z M63.283,17.063
	c-0.67-0.026-1.354-0.023-2.044,0.004l0.784-0.727c0.294-0.272,0.464-0.644,0.479-1.043c0.015-0.401-0.127-0.783-0.4-1.077
	c-0.543-0.586-1.531-0.625-2.119-0.08l-3.801,3.526c-0.294,0.272-0.465,0.645-0.48,1.044c-0.014,0.4,0.129,0.782,0.401,1.076
	l3.525,3.803c0.544,0.587,1.531,0.624,2.119,0.079c0.294-0.271,0.464-0.644,0.479-1.043c0.015-0.4-0.127-0.783-0.4-1.077
	l-1.332-1.436c0.905-0.072,1.803-0.093,2.672-0.06c13.495,0.506,18.904,13.472,18.958,13.603c0.221,0.549,0.745,0.917,1.335,0.939
	c0.212,0.009,0.421-0.028,0.618-0.107c0.763-0.308,1.138-1.184,0.828-1.951C84.846,32.387,78.686,17.641,63.283,17.063z"/>
</svg>
