<?xml version="1.0" encoding="utf-8"?>
<!-- Generator: Adobe Illustrator 16.0.0, SVG Export Plug-In . SVG Version: 6.00 Build 0)  -->
<!DOCTYPE svg PUBLIC "-//W3C//DTD SVG 1.1//EN" "http://www.w3.org/Graphics/SVG/1.1/DTD/svg11.dtd">
<svg version="1.1" id="Layer_12" xmlns="http://www.w3.org/2000/svg" xmlns:xlink="http://www.w3.org/1999/xlink" x="0px" y="0px"
	 width="100px" height="100px" viewBox="0 0 100 100" enable-background="new 0 0 100 100" xml:space="preserve">
<path d="M39.428,57.373c4.967-5.428,9.409-9.482,13.149-12.491c-1.381-1.099-2.269-2.791-2.269-4.693
	c0-3.313,2.686-5.998,5.999-5.998c2.69,0,4.965,1.77,5.726,4.208c0.445-0.245,0.859-0.466,1.213-0.645l1.572-1.717
	c0.105-0.234,0.236-0.468,0.389-0.694c0.417-0.831,1.323-2.676,3.281-6.732c-0.021-0.143-0.035-0.287-0.057-0.43
	C66.85,17.884,62.295,10.191,55.605,6.52c-1.92-1.053-3.976-1.745-6.111-2.056C38.189,2.815,25.238,12.065,17.265,27.48
	c-0.326,0.63-0.357,1.407-0.082,2.027c0.275,0.621,0.813,0.988,1.403,0.956c0.878-0.048,1.762-0.008,2.624,0.118
	c5.832,0.851,10.185,5.495,9.508,10.142c-0.678,4.648-6.176,7.856-12.006,7.007c-2.029-0.296-3.942-1.05-5.533-2.181
	c-0.445-0.317-1.006-0.334-1.496-0.047c-0.49,0.288-0.849,0.847-0.96,1.492c-2.705,15.696,0.674,29.854,8.475,37.172
	C25.734,73.929,32.515,64.927,39.428,57.373z M53.307,15.194c3.728,0,6.749,3.021,6.749,6.749s-3.021,6.748-6.749,6.748
	c-3.727,0-6.747-3.021-6.747-6.748S49.581,15.194,53.307,15.194z M52.478,70.575c5.261-5.749,10.027-11.713,14.261-17.802
	c-0.698,2.569-1.547,5.123-2.556,7.634c-6.928,17.236-19.536,28.6-31.563,28.939C38.247,84.745,45.274,78.445,52.478,70.575z
	 M90.189,20.703c-0.433,4.314-2.168,8.16-5.162,11.432c-4.629,5.059-10.81,7.092-12.591,7.598l-2.574,2.812
	c-0.041,0.1-0.087,0.197-0.145,0.292C64.441,51.518,58.02,60.01,50.633,68.082C34.687,85.505,19.8,95.019,19.175,95.416
	c-0.781,0.494-1.798,0.389-2.461-0.252c-0.665-0.645-0.802-1.657-0.332-2.452c7.953-13.508,16.328-25.101,24.891-34.457
	c12.012-13.124,20.869-18.012,23.606-19.323l-0.032-0.028l2.141-2.338c0.032-0.095,0.056-0.182,0.101-0.283
	c0.07-0.161,0.162-0.313,0.269-0.454c0.442-0.876,1.544-3.117,4.174-8.575c1.243-2.577,2.343-4.375,3.365-5.493
	c1.48-1.616,2.716-1.7,3.319-1.607c1.929,0.301,2.353,3.02,2.444,4.363c0.11,0.34,0.292,0.69,0.569,0.702
	c0.695,0.03,2.6-1.201,5.139-3.975c0.581-0.635,0.953-1.088,0.974-1.113c0.514-0.639,1.274-0.955,1.909-0.827
	C89.885,19.431,90.261,19.989,90.189,20.703z"/>
</svg>
