<?xml version="1.0" encoding="utf-8"?>
<!-- Generator: Adobe Illustrator 16.0.0, SVG Export Plug-In . SVG Version: 6.00 Build 0)  -->
<!DOCTYPE svg PUBLIC "-//W3C//DTD SVG 1.1//EN" "http://www.w3.org/Graphics/SVG/1.1/DTD/svg11.dtd">
<svg version="1.1" id="Layer_12" xmlns="http://www.w3.org/2000/svg" xmlns:xlink="http://www.w3.org/1999/xlink" x="0px" y="0px"
	 width="100px" height="100px" viewBox="0 0 100 100" enable-background="new 0 0 100 100" xml:space="preserve">
<path d="M89.77,49.258c0-1.999-0.469-3.926-0.882-5.625c-0.386-1.591-0.75-3.047-0.658-4.289c0.258-3.385,0.479-6.309,0.479-8.829
	c0-3.859-0.461-8.082-3.883-10.135c-3.529-2.117-8.727-1.321-17.337-0.002c-2.31,0.354-5.034-0.301-7.919-0.993
	c-2.959-0.711-6.017-1.445-9.288-1.334c-3.271-0.111-6.33,0.623-9.288,1.334c-2.885,0.692-5.61,1.347-7.92,0.993
	c-8.609-1.319-13.807-2.115-17.336,0.002c-3.423,2.054-3.884,6.276-3.884,10.137c0,2.524,0.223,5.445,0.479,8.827
	c0.088,1.123-0.378,2.542-0.866,4.072c-0.565,1.77-1.207,3.776-1.207,5.901l0.01,0.499l-0.04,1.664c0,2.125,0.641,4.131,1.206,5.9
	c0.489,1.53,0.948,2.921,0.866,4.072c-0.257,3.383-0.479,6.304-0.479,8.826c0,0.001,0,0.001,0,0.001
	c0,3.86,0.462,8.084,3.885,10.137c3.53,2.119,9.022,1.277,17.336,0.002c2.45-0.375,5.278,0.113,8.272,0.631
	c2.858,0.494,5.813,1.005,8.935,0.896c3.122,0.109,6.077-0.401,8.935-0.896c2.994-0.518,5.822-1.006,8.272-0.631
	c8.313,1.275,13.806,2.117,17.337-0.002c3.422-2.053,3.884-6.276,3.884-10.136c0-2.523-0.222-5.445-0.479-8.828
	c-0.094-1.242,0.271-2.699,0.658-4.288c0.412-1.7,0.881-3.626,0.881-5.626l-0.01-0.555L89.77,49.258z M84.738,51.539
	c0,1.4-0.359,2.879-0.74,4.444c-0.46,1.894-0.934,3.892-0.785,5.849c0.25,3.282,0.466,6.116,0.466,8.449
	c0,3.394-0.463,5.252-1.456,5.849c-1.984,1.19-7.29,0.377-14.008-0.652c-3.255-0.499-6.623,0.083-9.88,0.646
	c-2.633,0.455-5.354,0.925-7.986,0.822l-0.098-0.004l-0.098,0.004c-2.631,0.103-5.353-0.367-7.985-0.822
	c-3.258-0.563-6.625-1.145-9.881-0.646C25.57,76.507,20.264,77.32,18.28,76.13c-0.994-0.597-1.457-2.455-1.457-5.85c0,0,0,0,0-0.001
	c0-2.332,0.216-5.166,0.466-8.447c0.151-2.032-0.477-4.058-1.09-5.973c-0.498-1.561-0.969-3.033-0.969-4.379l0.042-1.667
	l-0.012-0.496c0-1.346,0.471-2.819,0.97-4.38c0.612-1.916,1.241-3.941,1.09-5.973c-0.25-3.28-0.466-6.113-0.466-8.448
	c0-3.395,0.463-5.253,1.456-5.85c1.982-1.189,7.289-0.376,14.008,0.652c3.278,0.503,6.615-0.298,9.842-1.073
	c2.658-0.638,5.406-1.298,8.024-1.195l0.098,0.004l0.098-0.004c2.618-0.103,5.366,0.558,8.022,1.195
	c3.228,0.775,6.564,1.576,9.844,1.073c6.719-1.028,12.025-1.842,14.008-0.652c0.992,0.597,1.455,2.454,1.455,5.848
	c0,2.331-0.215,5.167-0.465,8.45c-0.15,1.949,0.324,3.954,0.785,5.849c0.381,1.565,0.74,3.045,0.74,4.444l-0.043,1.725
	L84.738,51.539z M19.023,72.834h61.644V28.167H19.023V72.834z M63.167,37.667c1.841,0,3.333,1.493,3.333,3.333
	s-1.492,3.333-3.333,3.333S59.834,42.841,59.834,41S61.326,37.667,63.167,37.667z M26.745,63.691c0,0,13.056-27.09,24.152-5.059
	c0,0,2.938,9.955,7.344,3.754c4.406-6.202,9.139-5.386,12.239,0c1.59,2.761,2.576,3.758,3.162,4.08h0.755c0,0-0.196,0.306-0.755,0
	h-48.04L26.745,63.691z"/>
</svg>
