<?xml version="1.0" encoding="utf-8"?>
<!-- Generator: Adobe Illustrator 16.0.0, SVG Export Plug-In . SVG Version: 6.00 Build 0)  -->
<!DOCTYPE svg PUBLIC "-//W3C//DTD SVG 1.1//EN" "http://www.w3.org/Graphics/SVG/1.1/DTD/svg11.dtd">
<svg version="1.1" id="Layer_12" xmlns="http://www.w3.org/2000/svg" xmlns:xlink="http://www.w3.org/1999/xlink" x="0px" y="0px"
	 width="100px" height="100px" viewBox="0 0 100 100" enable-background="new 0 0 100 100" xml:space="preserve">
<path d="M79.018,31.362c-1.581-10.297-6.136-17.989-12.826-21.661c-1.92-1.053-3.976-1.745-6.111-2.056
	c-11.305-1.648-24.256,7.602-32.229,23.017c-0.326,0.63-0.357,1.407-0.082,2.027c0.275,0.621,0.813,0.988,1.403,0.956
	c0.878-0.048,1.762-0.008,2.624,0.118c5.832,0.851,10.185,5.495,9.508,10.142c-0.678,4.648-6.176,7.856-12.006,7.007
	c-2.029-0.296-3.942-1.05-5.533-2.181c-0.445-0.317-1.006-0.334-1.496-0.047c-0.49,0.288-0.849,0.847-0.96,1.492
	c-3.132,18.175,1.888,34.294,12.489,40.112c1.92,1.054,3.976,1.746,6.112,2.057c0.001,0.001,0,0,0,0.001
	c12.958,1.889,27.293-9.938,34.857-28.758C79.059,52.914,80.568,41.469,79.018,31.362z M53.333,51.667
	c-3.13,0-5.667-2.537-5.667-5.667s2.537-5.667,5.667-5.667S59,42.87,59,46S56.463,51.667,53.333,51.667z"/>
</svg>
