<?xml version="1.0" encoding="utf-8"?>
<!-- Generator: Adobe Illustrator 16.0.0, SVG Export Plug-In . SVG Version: 6.00 Build 0)  -->
<!DOCTYPE svg PUBLIC "-//W3C//DTD SVG 1.1//EN" "http://www.w3.org/Graphics/SVG/1.1/DTD/svg11.dtd">
<svg version="1.1" id="Layer_12" xmlns="http://www.w3.org/2000/svg" xmlns:xlink="http://www.w3.org/1999/xlink" x="0px" y="0px"
	 width="100px" height="100px" viewBox="0 0 100 100" enable-background="new 0 0 100 100" xml:space="preserve">
<path d="M70.125,31.333V20.108h0.26c1.055,0,1.909-0.854,1.909-1.908c0-1.055-0.854-1.908-1.909-1.908h-0.26v-0.028H12.292v0.028
	H11.91c-1.053,0-1.907,0.854-1.907,1.908c0,1.054,0.854,1.908,1.907,1.908h0.382v63.628h57.833V51.42
	c4.677,1.544,9.113,2.487,12.602,2.487c3.396,0,5.904-0.881,6.878-2.928C92.146,45.634,81.937,37.229,70.125,31.333z M67.233,80.845
	h-52.05V30.506c0.813,0.376,1.835,0.864,3.013,1.125v19.936c0,0.864,0.7,1.566,1.567,1.566c0.864,0,1.564-0.702,1.564-1.566V31.61
	c0.303-1.007-0.06-3.417,3.014-1.611c5.356,3.148,3.555-4.035,4.097-2.817v16.687c0,0.864,0.7,1.566,1.566,1.566
	c0.865,0,1.565-0.702,1.565-1.566V25.835c-0.481-1.137,1.438-1.663,3.321-1.084c1.884,0.578,3.14,2.138,3.14,2.138l0.01-0.006
	c-0.094,0.292-0.159,0.599-0.159,0.922c0,1.112,0.614,2.073,1.515,2.588c0.565,2.015,2.256,4.332,5.037,6.861
	c3.934,3.579,9.657,7.241,16.116,10.313c2.205,1.048,4.454,1.994,6.684,2.831V80.845z M67.233,47.31
	c-1.742-0.682-3.558-1.457-5.441-2.354c-6.208-2.953-11.683-6.447-15.414-9.842c-2.194-1.995-3.379-3.592-3.921-4.776
	c0.846-0.529,1.412-1.462,1.412-2.533c0-1.642-1.322-2.972-2.963-2.99l3.918-5.659h22.409V47.31z M86.994,49.736
	c-0.896,1.878-7.482,1.855-16.869-1.368V34.575C81.993,40.745,88.053,47.509,86.994,49.736z"/>
</svg>
