<?xml version="1.0" encoding="utf-8"?>
<!-- Generator: Adobe Illustrator 16.0.0, SVG Export Plug-In . SVG Version: 6.00 Build 0)  -->
<!DOCTYPE svg PUBLIC "-//W3C//DTD SVG 1.1//EN" "http://www.w3.org/Graphics/SVG/1.1/DTD/svg11.dtd">
<svg version="1.1" id="Layer_12" xmlns="http://www.w3.org/2000/svg" xmlns:xlink="http://www.w3.org/1999/xlink" x="0px" y="0px"
	 width="100px" height="100px" viewBox="0 0 100 100" enable-background="new 0 0 100 100" xml:space="preserve">
<g>
	<path d="M80.25,31.174C78.61,20.482,73.83,12.469,66.791,8.605c-2.052-1.125-4.248-1.865-6.531-2.197
		c-0.919-0.135-1.866-0.201-2.814-0.201c-11.149,0-23.202,9.373-30.704,23.881c-0.504,0.973-0.546,2.135-0.116,3.107
		c0.485,1.096,1.512,1.752,2.614,1.697c0.795-0.043,1.598-0.006,2.377,0.107c5.16,0.752,9.029,4.748,8.45,8.725
		c-0.505,3.463-4.326,6.074-8.889,6.074c-0.565,0-1.138-0.041-1.7-0.123c-1.834-0.268-3.559-0.947-4.988-1.963
		c-0.831-0.592-1.953-0.635-2.853-0.105c-0.804,0.471-1.388,1.352-1.56,2.357c-3.223,18.699,2.051,35.346,13.119,41.42
		c2.052,1.125,4.25,1.865,6.533,2.197c0.958,0.141,1.94,0.211,2.922,0.211c0,0,0,0,0.001,0c12.752,0,26.124-11.951,33.274-29.738
		C80.299,53.176,81.835,41.498,80.25,31.174z M73.607,63.123c-6.774,16.852-19.215,28.172-30.956,28.17
		c-0.861,0-1.723-0.063-2.561-0.184c-1.988-0.291-3.902-0.934-5.691-1.916c-10.135-5.561-14.9-21.156-11.858-38.805
		c0.054-0.318,0.221-0.543,0.36-0.627c0.034-0.02,0.068-0.031,0.092-0.031c0.006,0,0.021,0,0.049,0.02
		c1.75,1.244,3.851,2.074,6.075,2.398c0.681,0.1,1.375,0.148,2.061,0.148c5.795,0,10.679-3.529,11.361-8.211
		c0.775-5.318-4.062-10.611-10.563-11.559c-0.942-0.137-1.899-0.184-2.876-0.131c-0.039,0-0.124-0.066-0.189-0.213
		c-0.122-0.273-0.102-0.656,0.05-0.947C36.039,17.549,47.219,8.705,57.445,8.705c0.827,0,1.652,0.061,2.455,0.176
		c1.985,0.289,3.9,0.936,5.688,1.916c6.342,3.48,10.672,10.852,12.191,20.756C79.298,41.441,77.816,52.652,73.607,63.123z"/>
	<path d="M54.188,20.934c1.265,1.154-1.571,3.01-0.617,4.238c1.022,1.504,4.703,1.779,8.153,0.434
		c3.358-1.361,3.904-4.008,3.754-5.852c-2.261-0.35-3.763-1.135-3.957-2.293c-0.61-0.527-1.017-1.207-1.669-1.621
		c-1.781-1.248-3.54-3.084-7.889-1.373c-2.398,0.945-4.181,2.398-4.053,3.609C48.274,20.25,52.701,19.543,54.188,20.934z"/>
	<path d="M69.805,38.064c-0.393-1.438-1.177-4.441-2.482-5.225c-4.312-3.006-9.275,3.918-7.316,7.969
		c1.699,1.828,3.136,4.963,5.618,6.27c1.438,0.654,6.271,1.307,7.446,0c0.914-1.176-0.522-3.656-1.176-4.572
		C70.718,40.809,70.328,40.025,69.805,38.064z"/>
	<path d="M66.809,62.303c-0.442-1.549-1.106-2.768-2.325-4.098c-1.108-1.219-2.105-1.994-3.656-1.662
		c-1.661,0.332-5.096,2.215-5.76,3.768l0.333,0.443c0.663,0.885,1.439,1.549,2.104,2.324c0.886,0.998,0.663,1.662,1.329,2.992
		c1.439,2.658,10.967,3.434,10.08,0C68.583,64.963,67.253,63.633,66.809,62.303z"/>
	<path d="M53.176,73.928c-0.567-0.682-0.681-1.93-1.816-1.816l0.568,0.227c-1.815-0.682-4.881-0.453-6.696,0.227
		c-3.063,1.363-3.063,3.52-3.404,6.242c-0.34,2.725-0.908,3.064,2.271,3.518c1.928,0.34,6.015,1.703,7.604,0
		c0.794-0.793,0.68-1.814,0.68-2.836c0-2.043,0.454-1.816,1.361-3.404C54.878,74.268,53.857,74.949,53.176,73.928z"/>
	<path d="M49.155,41.379c-2.89,0-5.24,2.352-5.24,5.24c0,2.891,2.351,5.24,5.24,5.24s5.24-2.35,5.24-5.24
		C54.395,43.73,52.044,41.379,49.155,41.379z M49.155,49.361c-1.512,0-2.741-1.23-2.741-2.742s1.229-2.74,2.741-2.74
		s2.74,1.229,2.74,2.74S50.667,49.361,49.155,49.361z"/>
</g>
</svg>
