<?xml version="1.0" encoding="utf-8"?>
<!-- Generator: Adobe Illustrator 16.0.0, SVG Export Plug-In . SVG Version: 6.00 Build 0)  -->
<!DOCTYPE svg PUBLIC "-//W3C//DTD SVG 1.1//EN" "http://www.w3.org/Graphics/SVG/1.1/DTD/svg11.dtd">
<svg version="1.1" id="Layer_12" xmlns="http://www.w3.org/2000/svg" xmlns:xlink="http://www.w3.org/1999/xlink" x="0px" y="0px"
	 width="100px" height="100px" viewBox="0 0 100 100" enable-background="new 0 0 100 100" xml:space="preserve">
<path d="M26.627,55.53v-6.925c0-1.594,1.291-2.886,2.887-2.886h40.971c1.596,0,2.889,1.292,2.889,2.886v6.925
	c0,1.595-1.293,2.886-2.889,2.886h-11.5c-4.463,0-3.311,6.633-3.311,10.867c0,4.622,0.674,14.4,0.674,16.158
	c0,3.719-2.438,6.733-6.156,6.733s-6.154-3.015-6.154-6.733c0-1.726,0.576-11.5,0.576-16.158c0-4.234,1.154-10.867-3.02-10.867
	h-12.08C27.918,58.416,26.627,57.125,26.627,55.53z M27.166,43.173c-0.031-0.184-0.064-0.427-0.064-0.699V12.012
	c0-2.309,1.877-4.187,4.186-4.187h37.598c2.307,0,4.186,1.878,4.186,4.187v30.462c0,0.272-0.035,0.516-0.066,0.699l-0.205,1.2
	H27.371L27.166,43.173z M29.986,12.012v29.045c0.621-1.183,1.182-2.452,2.592-3.157c2.881-1.372,1.92,2.606,5.076,1.098
	c1.51-0.686,1.646-1.921,3.568-1.372c1.234,0.274,1.234,1.51,2.744,1.098c0.959-0.274,1.371-1.646,1.783-2.606
	c0.275-0.687,0.549-3.843,0.961-4.254c1.783-1.509,3.018,3.567,5.625,0.687c2.334-2.47-0.412-7.548,1.373-10.565
	c1.92-3.294,3.842,0,4.527,2.469c0.824,3.156-0.686,7.685,0.549,10.429c0.549,0.961,1.373,1.784,2.744,0.549
	c0.822-0.823,0.412-1.646,0.412-2.744c0-1.783-0.273-5.488,2.744-3.842c4.203,2.225,2.172,9.348,5.238,12.645h0.262V12.012
	c0-0.717-0.584-1.302-1.301-1.302H31.287C30.57,10.71,29.986,11.295,29.986,12.012z"/>
</svg>
