<?xml version="1.0" encoding="utf-8"?>
<!-- Generator: Adobe Illustrator 16.0.0, SVG Export Plug-In . SVG Version: 6.00 Build 0)  -->
<!DOCTYPE svg PUBLIC "-//W3C//DTD SVG 1.1//EN" "http://www.w3.org/Graphics/SVG/1.1/DTD/svg11.dtd">
<svg version="1.1" id="Layer_13" xmlns="http://www.w3.org/2000/svg" xmlns:xlink="http://www.w3.org/1999/xlink" x="0px" y="0px"
	 width="100px" height="100px" viewBox="0 0 100 100" enable-background="new 0 0 100 100" xml:space="preserve">
<path d="M72.633,75.83h-5.935l-5.72-34.314c1.205-0.113,2.15-1.117,2.15-2.352c0-0.621-0.245-1.184-0.637-1.607
	c3.629-3.457,5.729-8.26,5.729-13.365c0-10.191-8.29-18.48-18.48-18.48S31.261,14,31.261,24.191c0,5.051,2.075,9.842,5.659,13.299
	c-0.427,0.43-0.692,1.021-0.692,1.674c0,1.193,0.882,2.17,2.026,2.34l-5.1,34.326h-5.788c-1.214,0-2.2,0.986-2.2,2.201
	s0.985,2.199,2.2,2.199h0.005v12.928c0,0.625,0.507,1.131,1.131,1.131h42.995c0.625,0,1.131-0.506,1.131-1.131V80.23h0.005
	c1.215,0,2.2-0.984,2.2-2.199S73.849,75.83,72.633,75.83z M36.231,26.313c-0.063,0.012-0.125,0.016-0.187,0.016
	c-0.543,0-1.022-0.393-1.115-0.945c-0.018-0.107-1.665-10.885,10.358-15.113c0.588-0.207,1.235,0.104,1.443,0.693
	c0.207,0.588-0.103,1.234-0.692,1.441c-10.25,3.605-8.937,12.24-8.876,12.607C37.264,25.627,36.847,26.211,36.231,26.313z
	 M38.038,72.004l4.243-25.176c0.129-0.77,0.857-1.291,1.629-1.158c0.771,0.129,1.29,0.859,1.16,1.629l-4.243,25.174
	c-0.116,0.691-0.715,1.18-1.393,1.18c-0.078,0-0.157-0.006-0.236-0.02C38.427,73.502,37.908,72.773,38.038,72.004z"/>
</svg>
