<?xml version="1.0" encoding="utf-8"?>
<!-- Generator: Adobe Illustrator 16.0.0, SVG Export Plug-In . SVG Version: 6.00 Build 0)  -->
<!DOCTYPE svg PUBLIC "-//W3C//DTD SVG 1.1//EN" "http://www.w3.org/Graphics/SVG/1.1/DTD/svg11.dtd">
<svg version="1.1" id="Layer_13" xmlns="http://www.w3.org/2000/svg" xmlns:xlink="http://www.w3.org/1999/xlink" x="0px" y="0px"
	 width="100px" height="100px" viewBox="0 0 100 100" enable-background="new 0 0 100 100" xml:space="preserve">
<path d="M68.248,71.926c0.273-0.428,0.43-0.932,0.43-1.462c0-1.489-1.213-2.702-2.701-2.702H62.57l-3.869-23.218
	c0.861-0.485,1.432-1.403,1.432-2.455c0-0.348-0.063-0.688-0.188-1.005c2.492-2.684,3.904-6.252,3.904-9.926
	c0-8.043-6.543-14.587-14.586-14.587s-14.588,6.544-14.588,14.587c0,3.634,1.391,7.176,3.84,9.854
	c-0.141,0.337-0.213,0.702-0.213,1.077c0,1.024,0.533,1.922,1.363,2.418l-3.457,23.255H32.93c-1.49,0-2.701,1.213-2.701,2.702
	c0,0.865,0.406,1.636,1.041,2.13c-0.666,1.086-1.041,2.494-1.041,3.994c0,1.886,0.594,3.623,1.607,4.762v0.159
	c0,1.058,0.863,1.92,1.922,1.92h31.391c0.76,0,1.42-0.445,1.73-1.091c1.732-0.819,2.893-3.069,2.893-5.75
	C69.771,74.749,69.199,73.055,68.248,71.926z M65.705,80.443l-0.828,0.21v0.585h-30.85v-0.826l-0.363-0.326
	c-0.756-0.681-1.246-2.053-1.246-3.498c0-1.467,0.479-2.808,1.246-3.499l0.363-0.327l-0.004-1.786H32.93
	c-0.281,0-0.512-0.229-0.512-0.512s0.23-0.512,0.512-0.512h5.168l4.023-27.077l-1.082-0.16c-0.316-0.048-0.547-0.311-0.547-0.626
	c0-0.169,0.066-0.329,0.188-0.45l0.783-0.789l-0.799-0.771c-2.412-2.326-3.797-5.577-3.797-8.92c0-6.835,5.563-12.396,12.396-12.396
	c6.836,0,12.396,5.562,12.396,12.396c0,3.371-1.4,6.639-3.842,8.965l-0.781,0.743l0.732,0.792c0.078,0.087,0.174,0.231,0.174,0.431
	c0,0.326-0.25,0.595-0.578,0.626l-1.17,0.11l4.521,27.127h5.26c0.281,0,0.512,0.229,0.512,0.512c0,0.204-0.123,0.387-0.309,0.469
	l-1.961,0.849l1.832,1.096c0.738,0.441,1.531,1.79,1.531,3.711C67.582,78.706,66.629,80.212,65.705,80.443z M45.871,47.59
	l-3.098,18.378c-0.084,0.505-0.521,0.862-1.016,0.862c-0.059,0-0.115-0.006-0.174-0.016c-0.563-0.095-0.941-0.627-0.846-1.189
	l3.096-18.38c0.096-0.561,0.627-0.942,1.189-0.844C45.588,46.495,45.965,47.028,45.871,47.59z M47.082,21.063
	c0.152,0.43-0.074,0.901-0.504,1.053c-7.484,2.632-6.523,8.936-6.48,9.203c0.076,0.449-0.229,0.876-0.68,0.95
	c-0.045,0.008-0.092,0.011-0.137,0.011c-0.396,0-0.746-0.286-0.813-0.689c-0.014-0.078-1.217-7.946,7.561-11.034
	C46.459,20.404,46.932,20.632,47.082,21.063z"/>
</svg>
