<?xml version="1.0" encoding="utf-8"?>
<!-- Generator: Adobe Illustrator 16.0.0, SVG Export Plug-In . SVG Version: 6.00 Build 0)  -->
<!DOCTYPE svg PUBLIC "-//W3C//DTD SVG 1.1//EN" "http://www.w3.org/Graphics/SVG/1.1/DTD/svg11.dtd">
<svg version="1.1" id="Layer_12" xmlns="http://www.w3.org/2000/svg" xmlns:xlink="http://www.w3.org/1999/xlink" x="0px" y="0px"
	 width="100px" height="100px" viewBox="0 0 100 100" enable-background="new 0 0 100 100" xml:space="preserve">
<path d="M94.89,22.822L77.208,5.141c-0.946-0.945-2.484-0.945-3.43,0L61.964,16.955c-0.219,0.219-0.384,0.471-0.501,0.737
	l20.874,20.875c0.268-0.117,0.519-0.283,0.738-0.501L94.89,26.252C95.835,25.307,95.835,23.768,94.89,22.822z M78.276,11.139
	c-0.451-0.467-1.822-2.557-2.563-2.092c-1.106,0.696-1.832,1.88-2.725,2.807c-0.724,0.752-1.866-0.394-1.144-1.143
	c1.119-1.16,2.126-2.943,3.796-3.355c1.576-0.389,2.878,1.705,3.778,2.641C80.141,10.747,78.999,11.892,78.276,11.139z
	 M59.059,19.861L15.994,62.924c-0.168,0.171-0.304,0.357-0.412,0.559c0.029,0.022,0.058,0.041,0.085,0.069l20.891,20.891
	c0.196-0.107,0.38-0.24,0.546-0.406l43.064-43.065c0.313-0.312,0.519-0.689,0.625-1.089L60.149,19.237
	C59.749,19.342,59.371,19.549,59.059,19.861z M74.607,41.009L38.403,77.214c-0.737,0.737-1.881-0.407-1.144-1.145l36.205-36.204
	C74.201,39.127,75.344,40.271,74.607,41.009z M6.19,87.682l6.104,6.098l-4.907,1.649c-0.884,0.297-1.769,0.117-2.366-0.48
	s-0.776-1.482-0.479-2.365L6.19,87.682z M13.719,64.842l21.404,21.404l-0.572,0.418c-0.347,0.256-0.706,0.444-1.064,0.565
	L13.63,93.904l-0.387-1.147l19.857-6.677c0.034-0.012,0.068-0.024,0.103-0.038L13.928,66.767c-0.014,0.034-0.026,0.068-0.038,0.102
	l-6.54,19.45l-1.149-0.386l6.54-19.45c0.123-0.366,0.311-0.724,0.559-1.066L13.719,64.842z"/>
</svg>
