<?xml version="1.0" encoding="utf-8"?>
<!-- Generator: Adobe Illustrator 16.0.0, SVG Export Plug-In . SVG Version: 6.00 Build 0)  -->
<!DOCTYPE svg PUBLIC "-//W3C//DTD SVG 1.1//EN" "http://www.w3.org/Graphics/SVG/1.1/DTD/svg11.dtd">
<svg version="1.1" id="Layer_13" xmlns="http://www.w3.org/2000/svg" xmlns:xlink="http://www.w3.org/1999/xlink" x="0px" y="0px"
	 width="100px" height="100px" viewBox="0 0 100 100" enable-background="new 0 0 100 100" xml:space="preserve">
<path d="M50.5,29.559c-16.899,0-30.647,13.75-30.647,30.65c0,12.326,7.332,23.402,18.679,28.221l0.56,0.236h22.818l0.56-0.236
	c11.347-4.818,18.679-15.895,18.679-28.221C81.147,43.309,67.399,29.559,50.5,29.559z M60.677,82.697H40.323
	c-8.828-3.998-14.501-12.76-14.501-22.488c0-13.607,11.07-24.678,24.678-24.678c0.288,0,0.573,0.012,0.859,0.021
	c1.574,4.85,3.255,9.691,4.112,14.717c0.616,3.617,0.548,7.225,0.041,10.787c-0.386,0.293-0.762,0.617-1.121,0.99
	c-6.373,6.6-24.982,0-24.982,0c0,8.727,5.299,16.213,12.854,19.422h16.472c7.556-3.209,12.855-10.695,12.855-19.422
	c0,0-7.889-4.805-14.162-2.105c0.331-3.098,0.332-6.229-0.113-9.398c-0.714-5.072-2.411-9.971-4.021-14.85
	c12.296,1.393,21.884,11.852,21.884,24.516C75.178,69.936,69.505,78.699,60.677,82.697z M46.719,19.51v-4.678h-1.592v-1.791h11.7
	v13.035h2.628v2.688H41.544v-2.688h3.583V19.51H46.719z M29.415,20.273c-0.016-0.07-0.002-0.145,0.037-0.203
	c0.038-0.061,0.1-0.104,0.169-0.117l1-0.217c0.146-0.033,0.29,0.063,0.319,0.207l0.107,0.502c0.017,0.068,0.004,0.143-0.035,0.201
	s-0.1,0.104-0.171,0.117l-1,0.215c-0.093,0.021-0.184-0.008-0.246-0.07c-0.036-0.037-0.063-0.082-0.073-0.135L29.415,20.273z
	 M35.565,14.201c-0.03-0.064-0.035-0.137-0.013-0.205l0.162-0.486c0.047-0.141,0.2-0.217,0.341-0.17l1.658,0.555
	c0.067,0.023,0.124,0.074,0.155,0.135c0.032,0.064,0.037,0.141,0.015,0.207l-0.163,0.486c-0.046,0.139-0.199,0.215-0.341,0.168
	l-1.658-0.555c-0.039-0.014-0.075-0.035-0.105-0.066C35.598,14.25,35.579,14.227,35.565,14.201z M31.693,26.902
	c-0.044-0.057-0.063-0.129-0.053-0.199c0.011-0.07,0.049-0.135,0.106-0.178l0.816-0.611c0.119-0.09,0.285-0.074,0.377,0.053
	l0.309,0.408c0.043,0.057,0.061,0.129,0.051,0.199c-0.01,0.068-0.048,0.135-0.105,0.178l-0.817,0.613
	c-0.058,0.043-0.129,0.061-0.199,0.053c-0.058-0.01-0.111-0.035-0.152-0.076c-0.01-0.01-0.018-0.02-0.025-0.029L31.693,26.902z
	 M29.669,12.279c-0.07-0.07-0.098-0.176-0.063-0.275l0.162-0.486c0.022-0.066,0.071-0.123,0.134-0.156
	c0.065-0.031,0.139-0.037,0.206-0.014l0.971,0.324c0.14,0.051,0.217,0.201,0.17,0.342l-0.162,0.484
	c-0.022,0.07-0.072,0.125-0.135,0.156c-0.065,0.033-0.14,0.039-0.207,0.016l-0.97-0.326C29.733,12.33,29.697,12.309,29.669,12.279z
	 M37.683,19.289l-1.709,0.369c-0.093,0.02-0.186-0.01-0.247-0.072c-0.035-0.035-0.063-0.08-0.073-0.135l-0.107-0.5
	c-0.015-0.07-0.001-0.143,0.038-0.203c0.037-0.059,0.1-0.102,0.168-0.117l1.711-0.367c0.146-0.033,0.289,0.061,0.318,0.205
	l0.108,0.5C37.921,19.115,37.829,19.26,37.683,19.289z M32.125,19.688c-0.016-0.07-0.002-0.143,0.037-0.201s0.1-0.104,0.17-0.117
	L34.042,19c0.146-0.031,0.287,0.064,0.319,0.207l0.107,0.5c0.031,0.145-0.061,0.289-0.207,0.318l-1.708,0.371
	c-0.094,0.02-0.187-0.012-0.248-0.074c-0.035-0.035-0.062-0.08-0.072-0.133L32.125,19.688z M32.299,13.16
	c-0.069-0.068-0.098-0.176-0.064-0.275l0.162-0.486c0.021-0.066,0.071-0.123,0.135-0.156c0.063-0.031,0.139-0.035,0.205-0.014
	l1.659,0.555c0.141,0.049,0.218,0.201,0.17,0.34l-0.163,0.488c-0.046,0.139-0.198,0.217-0.339,0.17l-1.66-0.557
	C32.363,13.213,32.328,13.189,32.299,13.16z M38.884,15.311c-0.032-0.064-0.036-0.139-0.013-0.205l0.161-0.484
	c0.047-0.141,0.2-0.217,0.342-0.17l1.658,0.557c0.14,0.047,0.216,0.199,0.169,0.34l-0.162,0.484
	c-0.022,0.068-0.07,0.123-0.135,0.154s-0.139,0.039-0.205,0.016l-1.659-0.557c-0.04-0.012-0.076-0.035-0.104-0.064
	C38.914,15.359,38.897,15.338,38.884,15.311z M42.252,16.494c-0.068-0.07-0.098-0.176-0.064-0.275l0.163-0.486
	c0.021-0.066,0.07-0.125,0.134-0.156s0.139-0.037,0.205-0.016l0.972,0.326c0.068,0.023,0.124,0.07,0.155,0.135
	c0.032,0.064,0.038,0.139,0.015,0.207l-0.162,0.484c-0.048,0.141-0.2,0.217-0.341,0.17l-0.971-0.324
	C42.316,16.545,42.281,16.523,42.252,16.494z M33.963,24.863l1.401-1.053c0.057-0.041,0.128-0.061,0.199-0.051
	c0.07,0.01,0.133,0.047,0.178,0.107l0.307,0.408c0.088,0.117,0.064,0.287-0.054,0.377l-1.4,1.051
	c-0.056,0.041-0.129,0.061-0.199,0.049c-0.057-0.008-0.11-0.033-0.152-0.074c-0.008-0.01-0.018-0.02-0.023-0.031l-0.308-0.408
	C33.822,25.119,33.844,24.949,33.963,24.863z M43.912,17.148l0.109,0.5c0.014,0.068,0,0.143-0.038,0.203
	c-0.037,0.059-0.1,0.102-0.169,0.117l-0.245,0.053l0.292,0.389c0.09,0.119,0.066,0.289-0.053,0.377l-0.817,0.615
	c-0.057,0.043-0.129,0.061-0.199,0.051c-0.058-0.008-0.112-0.035-0.152-0.076c-0.009-0.01-0.017-0.018-0.024-0.029l-0.308-0.41
	c-0.09-0.119-0.065-0.287,0.054-0.377l0.524-0.393l-0.07,0.016c-0.096,0.02-0.187-0.01-0.249-0.074
	c-0.035-0.035-0.062-0.08-0.072-0.131l-0.107-0.504c-0.015-0.068-0.002-0.141,0.036-0.201c0.039-0.059,0.1-0.102,0.17-0.117l1-0.215
	C43.74,16.908,43.882,17.004,43.912,17.148z M41.161,19.563c0.069,0.008,0.133,0.043,0.177,0.105l0.307,0.408
	c0.09,0.117,0.065,0.287-0.054,0.377l-1.397,1.049c-0.109,0.08-0.26,0.066-0.351-0.025c-0.011-0.008-0.018-0.018-0.026-0.027
	l-0.309-0.41c-0.043-0.057-0.061-0.129-0.051-0.199c0.01-0.072,0.048-0.135,0.103-0.18l1.402-1.049
	C41.018,19.57,41.091,19.551,41.161,19.563z M41.202,17.732l0.108,0.5c0.031,0.146-0.061,0.289-0.207,0.32l-1.709,0.367
	c-0.093,0.021-0.185-0.01-0.247-0.072c-0.036-0.037-0.062-0.082-0.072-0.135l-0.107-0.5c-0.017-0.068-0.004-0.143,0.035-0.203
	c0.039-0.059,0.1-0.1,0.169-0.115l1.711-0.369C41.029,17.494,41.172,17.586,41.202,17.732z M36.763,22.762l1.399-1.049
	c0.058-0.043,0.129-0.063,0.201-0.051c0.069,0.01,0.134,0.047,0.177,0.105l0.307,0.408c0.089,0.119,0.064,0.287-0.054,0.377
	l-1.4,1.051c-0.057,0.041-0.128,0.061-0.2,0.049c-0.057-0.008-0.109-0.033-0.151-0.076c-0.009-0.008-0.017-0.018-0.025-0.029
	l-0.307-0.41C36.621,23.018,36.645,22.85,36.763,22.762z"/>
</svg>
