<?xml version="1.0" encoding="utf-8"?>
<!-- Generator: Adobe Illustrator 16.0.0, SVG Export Plug-In . SVG Version: 6.00 Build 0)  -->
<!DOCTYPE svg PUBLIC "-//W3C//DTD SVG 1.1//EN" "http://www.w3.org/Graphics/SVG/1.1/DTD/svg11.dtd">
<svg version="1.1" id="Layer_11" xmlns="http://www.w3.org/2000/svg" xmlns:xlink="http://www.w3.org/1999/xlink" x="0px" y="0px"
	 width="100px" height="100px" viewBox="0 0 100 100" enable-background="new 0 0 100 100" xml:space="preserve">
<g>
	<path d="M56.955,55.095H42.801c-1.044,0-1.891,0.846-1.891,1.892c0,1.044,0.847,1.891,1.891,1.891h14.153
		c1.045,0,1.892-0.847,1.892-1.891C58.846,55.94,58,55.095,56.955,55.095z"/>
	<path d="M56.955,65.522H42.801c-1.044,0-1.891,0.847-1.891,1.893c0,1.044,0.847,1.891,1.891,1.891h14.153
		c1.045,0,1.892-0.847,1.892-1.891C58.846,66.369,58,65.522,56.955,65.522z"/>
	<path d="M56.955,76.228H42.801c-1.044,0-1.891,0.847-1.891,1.892s0.847,1.892,1.891,1.892h14.153c1.045,0,1.892-0.847,1.892-1.892
		S58,76.228,56.955,76.228z"/>
	<path d="M57.077,26.595v-9.203c0-1.011-0.819-1.83-1.83-1.83H44.753c-1.011,0-1.83,0.819-1.83,1.83v9.203
		c-6.753,2.55-11.042,9.063-11.042,16.969v50.148c0,1.011,0.819,1.83,1.83,1.83h32.578c1.011,0,1.83-0.819,1.83-1.83V43.563
		C68.119,35.657,63.83,29.145,57.077,26.595z M35.542,91.882V80.291c0.081,0.01,0.16,0.024,0.244,0.024
		c1.146,0,2.074-0.929,2.074-2.074v-0.244c0-1.146-0.929-2.074-2.074-2.074c-0.083,0-0.163,0.016-0.244,0.024v-6.361
		c0.081,0.009,0.16,0.024,0.244,0.024c1.146,0,2.074-0.929,2.074-2.074v-0.244c0-1.146-0.929-2.074-2.074-2.074
		c-0.083,0-0.163,0.015-0.244,0.024v-5.779c0.081,0.009,0.16,0.024,0.244,0.024c1.146,0,2.074-0.93,2.074-2.074v-0.245
		c0-1.146-0.929-2.073-2.074-2.073c-0.083,0-0.163,0.015-0.244,0.023V43.563c0-6.738,3.814-12.191,9.718-13.891
		c0.784-0.226,1.324-0.943,1.324-1.759v-8.692h6.833v8.692c0,0.815,0.54,1.533,1.324,1.759c5.904,1.699,9.718,7.152,9.718,13.891
		v11.555c-0.081-0.009-0.16-0.023-0.244-0.023c-1.145,0-2.074,0.928-2.074,2.073v0.245c0,1.145,0.929,2.074,2.074,2.074
		c0.084,0,0.163-0.016,0.244-0.024v5.779c-0.081-0.01-0.16-0.024-0.244-0.024c-1.145,0-2.074,0.929-2.074,2.074v0.244
		c0,1.146,0.929,2.074,2.074,2.074c0.084,0,0.163-0.016,0.244-0.024v6.361c-0.081-0.009-0.16-0.024-0.244-0.024
		c-1.145,0-2.074,0.929-2.074,2.074v0.244c0,1.146,0.929,2.074,2.074,2.074c0.084,0,0.163-0.015,0.244-0.024v11.591H35.542z"/>
	<path d="M44.021,14.951h11.713c0.606,0,1.098-0.492,1.098-1.099V5.556c0-0.605-0.492-1.098-1.098-1.098H44.021
		c-0.607,0-1.098,0.492-1.098,1.098v8.297C42.923,14.459,43.415,14.951,44.021,14.951z"/>
</g>
</svg>
