<?xml version="1.0" encoding="utf-8"?>
<!-- Generator: Adobe Illustrator 16.0.0, SVG Export Plug-In . SVG Version: 6.00 Build 0)  -->
<!DOCTYPE svg PUBLIC "-//W3C//DTD SVG 1.1//EN" "http://www.w3.org/Graphics/SVG/1.1/DTD/svg11.dtd">
<svg version="1.1" id="Layer_13" xmlns="http://www.w3.org/2000/svg" xmlns:xlink="http://www.w3.org/1999/xlink" x="0px" y="0px"
	 width="100px" height="100px" viewBox="0 0 100 100" enable-background="new 0 0 100 100" xml:space="preserve">
<path d="M74.353,34.702H25.649c-10.284,0-18.65,8.366-18.65,18.649C6.999,63.634,15.365,72,25.649,72h48.703
	c10.282,0,18.648-8.366,18.648-18.649C93.001,43.068,84.635,34.702,74.353,34.702z M30.581,42.132
	c-12.984,0-13.875,6.909-13.883,6.979c-0.101,0.949-0.902,1.652-1.837,1.652c-0.064,0-0.132-0.003-0.198-0.01
	c-1.016-0.109-1.751-1.021-1.642-2.036c0.045-0.42,1.288-10.284,17.56-10.284c1.021,0,1.849,0.828,1.849,1.85
	S31.602,42.132,30.581,42.132z"/>
</svg>
