<?xml version="1.0" encoding="utf-8"?>
<!-- Generator: Adobe Illustrator 16.0.0, SVG Export Plug-In . SVG Version: 6.00 Build 0)  -->
<!DOCTYPE svg PUBLIC "-//W3C//DTD SVG 1.1//EN" "http://www.w3.org/Graphics/SVG/1.1/DTD/svg11.dtd">
<svg version="1.1" id="Layer_13" xmlns="http://www.w3.org/2000/svg" xmlns:xlink="http://www.w3.org/1999/xlink" x="0px" y="0px"
	 width="100px" height="100px" viewBox="0 0 100 100" enable-background="new 0 0 100 100" xml:space="preserve">
<path d="M50.646,52.205c0.233,0.805,0.311,1.619,0.23,2.457l-0.234,1.268c-0.113,0.41-0.26,0.824-0.441,1.246
	c-0.006,0.014-0.012,0.027-0.019,0.039L44.528,68.68c-0.105,0.215-0.296,0.375-0.527,0.441h-0.002
	c-0.229,0.068-0.477,0.033-0.682-0.092l-10.922-6.68c-0.007-0.004-0.016-0.01-0.022-0.014c-0.397-0.262-0.741-0.547-1.067-0.846
	l-0.882-0.936c-0.498-0.652-0.863-1.373-1.093-2.158c-0.972-3.344,0.752-6.842,3.886-8.166l0.42-0.164
	c0.108-0.037,0.22-0.072,0.333-0.105c1.521-0.441,3.107-0.346,4.545,0.266c0.885-1.285,2.172-2.217,3.694-2.658
	c0.12-0.037,0.241-0.066,0.361-0.096l0.442-0.084C46.359,46.84,49.675,48.867,50.646,52.205z M86.359,8.543v56.789
	c0,0.783-0.636,1.418-1.419,1.418h-4.97v8.992c0,0.783-0.636,1.42-1.419,1.42H67.408l0.989,3.402
	c0.218,0.752-0.215,1.541-0.968,1.76L31.302,92.82c-0.753,0.219-1.542-0.215-1.76-0.967L13.696,37.32
	c-0.218-0.752,0.215-1.541,0.969-1.76l24.845-7.219v-9.389c0-0.783,0.635-1.42,1.42-1.42h4.969v-8.99c0-0.785,0.635-1.42,1.419-1.42
	H84.94C85.724,7.123,86.359,7.758,86.359,8.543z M65.274,79.994L50.222,28.186l-33.402,9.707l15.053,51.807L65.274,79.994z
	 M77.132,20.373H42.349v7.145l8.443-2.453c0.753-0.219,1.541,0.213,1.759,0.967l2.978,10.247l2.214-2.421
	c0.164-0.178,0.393-0.279,0.634-0.279h0.003c0.241,0,0.472,0.102,0.635,0.281l8.699,9.543c0.005,0.007,0.013,0.013,0.017,0.02
	c0.312,0.366,0.563,0.738,0.796,1.122l0.591,1.153c0.299,0.771,0.452,1.572,0.452,2.396c0,3.513-2.655,6.416-6.061,6.815
	l-0.455,0.041c-0.116,0.006-0.232,0.009-0.352,0.009c-0.627,0-1.234-0.104-1.821-0.267l1.561,5.37
	c1.77,0.026,3.874-0.594,3.874-0.594v1.952h-3.479l3.749,12.901h10.548V20.373z M83.521,9.963H48.737v7.57h29.814
	c0.783,0,1.419,0.637,1.419,1.42v44.959h3.55V9.963z"/>
</svg>
