<?xml version="1.0" encoding="utf-8"?>
<!-- Generator: Adobe Illustrator 16.0.0, SVG Export Plug-In . SVG Version: 6.00 Build 0)  -->
<!DOCTYPE svg PUBLIC "-//W3C//DTD SVG 1.1//EN" "http://www.w3.org/Graphics/SVG/1.1/DTD/svg11.dtd">
<svg version="1.1" id="Layer_13" xmlns="http://www.w3.org/2000/svg" xmlns:xlink="http://www.w3.org/1999/xlink" x="0px" y="0px"
	 width="100px" height="100px" viewBox="0 0 100 100" enable-background="new 0 0 100 100" xml:space="preserve">
<path d="M76.5,8h-53c-1.104,0-2,0.896-2,2v80c0,1.104,0.896,2,2,2h53c1.104,0,2-0.896,2-2V10C78.5,8.896,77.604,8,76.5,8z M74.5,88
	h-49V12h49V88z M35.913,48.139c0-3.813,2.792-6.965,6.44-7.547c-0.001-0.036-0.006-0.07-0.006-0.105
	c0-4.227,3.426-7.652,7.652-7.652s7.652,3.426,7.652,7.652c0,0.035-0.005,0.069-0.006,0.105c3.649,0.582,6.44,3.734,6.44,7.547
	c0,4.226-3.426,7.652-7.652,7.652c-1.729,0-3.32-0.58-4.601-1.55c-0.262,2.707-0.377,6.02,0.485,6.883c1.521,1.522,6.667,0,6.667,0
	v2.21H41.015v-2.21c0,0,5.246,1.623,6.667,0c0.969-1.106,0.85-4.33,0.56-6.946c-1.294,1.006-2.91,1.613-4.676,1.613
	C39.339,55.791,35.913,52.364,35.913,48.139z"/>
</svg>
