<?xml version="1.0" encoding="utf-8"?>
<!-- Generator: Adobe Illustrator 16.0.0, SVG Export Plug-In . SVG Version: 6.00 Build 0)  -->
<!DOCTYPE svg PUBLIC "-//W3C//DTD SVG 1.1//EN" "http://www.w3.org/Graphics/SVG/1.1/DTD/svg11.dtd">
<svg version="1.1" id="Layer_13" xmlns="http://www.w3.org/2000/svg" xmlns:xlink="http://www.w3.org/1999/xlink" x="0px" y="0px"
	 width="100px" height="100px" viewBox="0 0 100 100" enable-background="new 0 0 100 100" xml:space="preserve">
<path d="M34.996,48.005c-0.418-1.078-0.63-2.195-0.63-3.348c0-4.906,3.706-8.962,8.465-9.521l0.634-0.056
	c0.162-0.009,0.326-0.013,0.491-0.013c2.233,0,4.341,0.754,6.044,2.145c1.703-1.391,3.81-2.145,6.043-2.145
	c0.177,0,0.352,0.006,0.525,0.015l0.633,0.059c4.743,0.573,8.432,4.621,8.432,9.516c0,1.181-0.217,2.314-0.654,3.416l-0.816,1.623
	c-0.313,0.509-0.673,1.012-1.086,1.513c-0.013,0.016-0.025,0.03-0.039,0.045L50.883,64.541c-0.228,0.249-0.549,0.391-0.887,0.391
	h-0.002c-0.338,0-0.659-0.143-0.887-0.393L36.957,51.21c-0.008-0.01-0.018-0.02-0.025-0.029c-0.434-0.509-0.786-1.03-1.11-1.564
	L34.996,48.005z M78.5,10v80c0,1.104-0.896,2-2,2h-53c-1.104,0-2-0.896-2-2V10c0-1.104,0.896-2,2-2h53C77.604,8,78.5,8.896,78.5,10z
	 M74.5,12h-49v76h49V12z"/>
</svg>
