<?xml version="1.0" encoding="utf-8"?>
<!-- Generator: Adobe Illustrator 16.0.0, SVG Export Plug-In . SVG Version: 6.00 Build 0)  -->
<!DOCTYPE svg PUBLIC "-//W3C//DTD SVG 1.1//EN" "http://www.w3.org/Graphics/SVG/1.1/DTD/svg11.dtd">
<svg version="1.1" id="Layer_13" xmlns="http://www.w3.org/2000/svg" xmlns:xlink="http://www.w3.org/1999/xlink" x="0px" y="0px"
	 width="100px" height="100px" viewBox="0 0 100 100" enable-background="new 0 0 100 100" xml:space="preserve">
<path d="M50,8.167C26.896,8.167,8.167,26.896,8.167,50S26.896,91.833,50,91.833S91.833,73.104,91.833,50S73.104,8.167,50,8.167z
	 M57.067,14.492c0.127,0.022,6.522,1.226,13.273,5.571l-3.57,4.909c-3.599-2.618-7.229-4.089-10.702-4.793L57.067,14.492z
	 M44.314,14.021l0.829,5.519c-5.058,0.763-9.073,2.637-12.255,5.01l-3.324-4.671C29.676,19.801,35.684,15.63,44.314,14.021z
	 M19.67,69.187c-0.071-0.102-3.5-5.048-5.341-12.396l5.944-0.895c0.61,4.054,1.941,7.431,3.665,10.254L19.67,69.187z M19.961,42.744
	l-4.732-0.83c0.023-0.125,1.186-6.327,5.372-12.963l4.163,3.03C22.131,35.602,20.659,39.252,19.961,42.744z M42.645,85.811
	c-0.126-0.022-6.358-1.19-13.013-5.401l3.612-4.964c3.494,2.541,7.014,3.996,10.396,4.723L42.645,85.811z M57.563,84.879
	l-0.766-5.102c5.942-1.526,9.934-4.294,10.015-4.352l3.462,4.868C66.791,82.451,62.606,84.119,57.563,84.879z M67.526,67.781
	c-9.819,9.68-25.627,9.565-35.307-0.253c-9.68-9.822-9.566-25.63,0.256-35.31c9.818-9.68,25.626-9.564,35.306,0.257
	C77.46,42.293,77.345,58.102,67.526,67.781z M79.688,28.761c2.805,3.843,5.013,8.67,5.923,14.717l-5.53,0.831
	c-1.292-7.222-4.798-12.278-4.863-12.369L79.688,28.761z M75.929,66.01c3.485-5.492,4.455-10.654,4.472-10.756l5.739,1.01
	c-0.872,4.199-2.665,8.583-5.829,12.936L75.929,66.01z M42.627,53.01c0,4.056-3.286,7.115-7.643,7.115
	c-2.216,0-4.011-0.648-4.954-1.256l-0.815-0.524l1.368-4.178l1.347,0.798c0.485,0.288,1.669,0.775,3.029,0.775
	c1.353,0,2.81-0.771,2.81-2.468c-0.007-0.618-0.031-2.546-3.68-2.546c-0.837,0-1.506,0.085-2.099,0.159l-1.619,0.206l0.096-1.603
	l1.256-9.324h10.563v4.463h-6.722l-0.269,1.793c1.61,0.012,3.085,0.393,4.269,1.104C41.5,48.625,42.627,50.63,42.627,53.01z
	 M63.616,39.874c-3.505,0-6.014,2.554-6.883,6.738c-0.761-4.274-3.134-6.738-6.666-6.738c-4.388,0-7.222,3.995-7.222,10.189
	c0.071,7.417,3.626,10.062,6.932,10.062c1.859,0,5.82-0.756,6.922-6.811c0.928,4.947,3.862,6.811,6.626,6.811
	c2.17,0,7.22-1.006,7.22-10.309C70.546,43.592,67.955,39.874,63.616,39.874z M49.908,55.819c-1.333,0-2.229-2.307-2.229-5.741
	c0-4.053,1.169-5.898,2.255-5.898c2.013,0,2.229,4.015,2.229,5.742C52.163,51.305,52,55.819,49.908,55.819z M63.457,55.819
	c-1.335,0-2.23-2.307-2.23-5.741c0-4.053,1.169-5.898,2.256-5.898c2.012,0,2.229,4.015,2.229,5.742
	C65.712,51.305,65.549,55.819,63.457,55.819z"/>
</svg>
