<?xml version="1.0" encoding="utf-8"?>
<!-- Generator: Adobe Illustrator 16.0.0, SVG Export Plug-In . SVG Version: 6.00 Build 0)  -->
<!DOCTYPE svg PUBLIC "-//W3C//DTD SVG 1.1//EN" "http://www.w3.org/Graphics/SVG/1.1/DTD/svg11.dtd">
<svg version="1.1" id="Layer_12" xmlns="http://www.w3.org/2000/svg" xmlns:xlink="http://www.w3.org/1999/xlink" x="0px" y="0px"
	 width="100px" height="100px" viewBox="0 0 100 100" enable-background="new 0 0 100 100" xml:space="preserve">
<path d="M81.945,49.749c0.109-3.122-0.401-6.077-0.896-8.935c-0.518-2.994-1.006-5.822-0.631-8.272
	c1.275-8.313,2.117-13.806-0.002-17.337c-2.053-3.422-6.276-3.884-10.136-3.884c-2.523,0-5.445,0.222-8.828,0.479
	c-1.242,0.094-2.699-0.271-4.288-0.658c-1.7-0.412-3.626-0.881-5.626-0.881l-0.555,0.01l-1.727-0.041
	c-1.999,0-3.926,0.469-5.625,0.882c-1.591,0.386-3.047,0.75-4.289,0.658c-3.385-0.258-6.309-0.479-8.829-0.479
	c-3.859,0-8.082,0.461-10.135,3.883c-2.117,3.529-1.321,8.727-0.002,17.337c0.354,2.31-0.301,5.034-0.993,7.919
	c-0.711,2.959-1.445,6.017-1.334,9.288c-0.111,3.271,0.623,6.33,1.334,9.288c0.692,2.885,1.347,5.61,0.993,7.92
	c-1.319,8.609-2.115,13.807,0.002,17.336c2.054,3.423,6.276,3.884,10.137,3.884c2.524,0,5.445-0.223,8.827-0.479
	c1.123-0.088,2.542,0.378,4.072,0.866c1.77,0.565,3.776,1.207,5.901,1.207l0.499-0.01l1.664,0.04c2.125,0,4.131-0.641,5.9-1.206
	c1.53-0.489,2.921-0.948,4.072-0.866c3.383,0.257,6.304,0.479,8.826,0.479h0.001c3.86,0,8.084-0.462,10.137-3.885
	c2.119-3.53,1.277-9.022,0.002-17.336c-0.375-2.45,0.113-5.278,0.631-8.272C81.544,55.825,82.055,52.871,81.945,49.749z
	 M76.945,49.847c0.103,2.631-0.367,5.353-0.822,7.985c-0.563,3.258-1.145,6.625-0.646,9.881c1.029,6.717,1.843,12.023,0.652,14.007
	c-0.597,0.994-2.455,1.457-5.85,1.457h-0.001c-2.332,0-5.166-0.216-8.447-0.466c-2.032-0.151-4.058,0.477-5.973,1.09
	c-1.561,0.498-3.033,0.969-4.379,0.969l-1.667-0.042l-0.496,0.012c-1.346,0-2.819-0.471-4.38-0.97
	c-1.916-0.612-3.941-1.241-5.973-1.09c-3.28,0.25-6.113,0.466-8.448,0.466c-3.395,0-5.253-0.463-5.85-1.456
	c-1.189-1.982-0.376-7.289,0.652-14.008c0.503-3.278-0.298-6.615-1.073-9.842c-0.638-2.658-1.298-5.406-1.195-8.024l0.004-0.098
	l-0.004-0.098c-0.103-2.618,0.558-5.366,1.195-8.022c0.775-3.228,1.576-6.564,1.073-9.844c-1.028-6.719-1.842-12.025-0.652-14.008
	c0.597-0.992,2.454-1.455,5.848-1.455c2.331,0,5.167,0.215,8.45,0.465c1.949,0.15,3.954-0.324,5.849-0.785
	c1.565-0.381,3.045-0.74,4.444-0.74l1.725,0.043l0.557-0.012c1.4,0,2.879,0.359,4.444,0.74c1.894,0.46,3.892,0.934,5.849,0.785
	c3.282-0.25,6.116-0.466,8.449-0.466c3.394,0,5.252,0.463,5.849,1.456c1.19,1.984,0.377,7.29-0.652,14.008
	c-0.499,3.255,0.083,6.623,0.646,9.88c0.455,2.633,0.925,5.354,0.822,7.986l-0.004,0.098L76.945,49.847z M28.167,80.977h44.667
	V19.333H28.167V80.977z M50.12,29.139c6.581,0,11.917,5.335,11.917,11.917c0,6.581-5.336,11.916-11.917,11.916
	s-11.916-5.334-11.916-11.916C38.204,34.474,43.539,29.139,50.12,29.139z M32.609,64.562c0-6.092,4.171-11.215,9.802-12.704
	c2.022,1.889,4.729,3.054,7.709,3.054s5.685-1.165,7.71-3.054c4.377,1.158,7.863,4.517,9.201,8.817l0.547,2.729
	c0.034,0.381,0.053,0.769,0.053,1.159v10.664l-0.072,0l-0.688,0.348c-0.345,0.175-5.948,2.931-15.616,2.931
	c-2.555,0-5.4-0.198-8.503-0.682l-2.817-0.516c-2.087-0.425-4.271-0.97-6.562-1.686l-0.735-0.231l-0.027-0.165V64.562z"/>
</svg>
