<?xml version="1.0" encoding="utf-8"?>
<!-- Generator: Adobe Illustrator 16.0.0, SVG Export Plug-In . SVG Version: 6.00 Build 0)  -->
<!DOCTYPE svg PUBLIC "-//W3C//DTD SVG 1.1//EN" "http://www.w3.org/Graphics/SVG/1.1/DTD/svg11.dtd">
<svg version="1.1" id="Layer_12" xmlns="http://www.w3.org/2000/svg" xmlns:xlink="http://www.w3.org/1999/xlink" x="0px" y="0px"
	 width="100px" height="100px" viewBox="0 0 100 100" enable-background="new 0 0 100 100" xml:space="preserve">
<path d="M84.633,23.547c-5.3-5.292-13.024-8.124-22.36-8.204c-0.297-0.033-0.661-0.029-0.858-0.012l-0.12-0.004
	c-0.466-0.014-0.94-0.019-1.404,0.082c-13.115,0.897-23.574,10.911-24.435,23.444c-0.035,0.417-0.626,8.11,3.338,14.989
	c0,0,6.521-0.252,8.588-2.469C44.12,50,43.905,39.629,43.915,39.505c0.584-8.494,7.876-15.225,16.963-15.655
	c0.123-0.006,0.246-0.018,0.371-0.036l0.122,0.003c0.024,0,0.049,0,0.073,0c0.023,0,0.049-0.001,0.074,0
	c0.093,0.006,0.184,0.009,0.276,0.009c0.021-0.001,0.044,0,0.067,0c7.224,0,13.023,1.979,16.775,5.725
	c3.721,3.715,5.607,9.215,5.607,16.348c0,16.19-13.673,29.475-30.896,30.51c-0.583,0.004-2.966,0.005-6.19-0.233
	c0.008-0.005,0.014-0.012,0.022-0.018c-0.486-0.021-0.969-0.057-1.448-0.098c-0.146-0.014-0.296-0.028-0.442-0.042
	c-16.578-1.632-29.536-14.641-29.536-30.403c0-7.132,1.886-12.632,5.607-16.348c3.752-3.746,9.551-5.725,16.774-5.725
	c0.021,0,0.041,0,0.063,0c0.119-0.006,0.186-0.003,0.278-0.009c0.007,0,0.015,0,0.021,0c0.044,0.001,0.087,0.001,0.131,0
	l0.109-0.003c0.127,0.018,0.255,0.03,0.384,0.036c0.128,0.006,0.254,0.013,0.383,0.022c0.063,0.004,0.122,0.016,0.185,0.021
	c2.349-2.727,5.271-4.98,8.572-6.628c-2.53-0.998-5.247-1.652-8.103-1.853c-0.472-0.103-0.967-0.1-1.455-0.085l-0.096,0.003
	c-0.293-0.018-0.591-0.021-0.879,0.013c-9.338,0.08-17.063,2.912-22.363,8.204c-5.373,5.365-8.098,12.885-8.098,22.352
	c0,20.366,16.66,37.134,37.836,38.903l0.342,0.123c0,0,3.095,0.237,5.488,0.3c0.084,0.005,0.166,0.025,0.253,0.025
	c0.176,0,0.348-0.01,0.521-0.012c0.466,0.004,0.887-0.001,1.213-0.021v-0.008c22.106-0.858,39.811-18.031,39.811-39.026
	C92.731,36.433,90.006,28.912,84.633,23.547z M38.975,34.177l-0.678-0.795l0.804-0.686l0.678,0.794L38.975,34.177z M48.015,25.932
	l-0.679-0.794l0.805-0.686l0.677,0.794L48.015,25.932z M20.067,26.145l0.677,0.794l-0.804,0.686l-0.678-0.794L20.067,26.145z
	 M9.276,41.336l-0.678-0.794l0.804-0.686l0.678,0.794L9.276,41.336z M34.413,75.863l-0.679-0.795l0.805-0.686l0.678,0.794
	L34.413,75.863z M46.532,81.376l-0.678-0.794l0.804-0.686l0.678,0.794L46.532,81.376z M52.435,83.177l-0.678-0.794l0.805-0.686
	l0.678,0.794L52.435,83.177z M55.681,79.786l-0.678-0.794l0.804-0.686l0.677,0.794L55.681,79.786z M62.133,81.376l-0.678-0.794
	l0.805-0.686l0.677,0.794L62.133,81.376z M65.624,79.045l-0.678-0.794l0.804-0.686l0.678,0.794L65.624,79.045z M70.078,74.382
	l-0.679-0.794l0.805-0.686l0.678,0.794L70.078,74.382z M48.765,62.511c6.797,2.747,15.795,2.393,26.851-1.073
	c2.235-0.701,3.48-3.082,2.779-5.318c-0.701-2.235-3.079-3.48-5.318-2.779c-5.403,1.695-10.969,2.5-14.151,2.5
	C53.356,63.003,48.765,62.511,48.765,62.511z M70.943,54.893l0.678,0.794l-0.804,0.686l-0.678-0.795L70.943,54.893z M59.277,61.64
	l0.678,0.795l-0.804,0.686l-0.679-0.794L59.277,61.64z M49.62,51.722c-2.963,2.354-7.366,3.281-12.979,2.78
	c-0.004-0.006-0.009-0.012-0.013-0.018c-3.24-0.311-6.873-1.084-10.868-2.337c-0.345-0.108-0.692-0.156-1.038-0.175
	c-1.98-0.225-3.903,0.973-4.522,2.943c-0.7,2.236,0.543,4.617,2.779,5.318c5.781,1.812,10.988,2.759,15.623,2.871
	c0.162,0.005,0.323,0.01,0.483,0.013c0.593,0.007,1.173-0.004,1.746-0.025c2.04-0.064,3.971-0.285,5.765-0.701
	c-0.035-0.014-0.067-0.03-0.101-0.044c3.232-0.771,6.068-2.108,8.475-4.039c9.191-7.372,8.216-20.121,8.169-20.66
	c-0.315-4.594-2.436-10.409-4.483-12.457c-1.836,0-7.68,3.935-7.68,3.935c2.122,2.564,3.467,5.723,3.704,9.175
	C54.69,38.44,55.288,47.218,49.62,51.722z M41.534,60.22l-0.679-0.794l0.805-0.686l0.678,0.794L41.534,60.22z M57.795,42.676
	l0.678,0.794l-0.804,0.686l-0.678-0.794L57.795,42.676z"/>
</svg>
