<?xml version="1.0" encoding="utf-8"?>
<!-- Generator: Adobe Illustrator 16.0.0, SVG Export Plug-In . SVG Version: 6.00 Build 0)  -->
<!DOCTYPE svg PUBLIC "-//W3C//DTD SVG 1.1//EN" "http://www.w3.org/Graphics/SVG/1.1/DTD/svg11.dtd">
<svg version="1.1" id="Layer_13" xmlns="http://www.w3.org/2000/svg" xmlns:xlink="http://www.w3.org/1999/xlink" x="0px" y="0px"
	 width="100px" height="100px" viewBox="0 0 100 100" enable-background="new 0 0 100 100" xml:space="preserve">
<g>
	<path d="M70.631,89.7H50.063c-1.013,0-1.909-0.646-2.232-1.606c-0.324-0.96,0.002-2.018,0.814-2.629
		c1.967-1.491,3.098-3.612,3.098-5.817c0-4.325-4.187-7.845-9.332-7.845s-9.332,3.52-9.332,7.845c0,2.206,1.13,4.327,3.101,5.819
		c0.809,0.609,1.134,1.667,0.809,2.63c-0.322,0.958-1.219,1.604-2.231,1.604H14.188c-1.299,0-2.355-1.057-2.355-2.355V71.206
		c0-0.898,0.521-1.73,1.329-2.121c0.797-0.383,1.799-0.272,2.488,0.274c0.915,0.724,1.862,1.091,2.813,1.091
		c3.823,0,7.053-5.579,7.053-12.183c0-6.604-3.229-12.184-7.053-12.184c-0.894,0-1.784,0.324-2.647,0.965
		c-0.437,0.416-1.02,0.652-1.628,0.652c-1.299,0-2.355-1.057-2.355-2.355V28.05c0-1.298,1.057-2.354,2.355-2.354h14.056
		c-0.6-1.252-0.909-2.586-0.909-3.953c0-6.31,6.763-11.442,15.076-11.442s15.076,5.133,15.076,11.442
		c0,1.367-0.31,2.701-0.909,3.953h14.054c1.299,0,2.355,1.057,2.355,2.354v15.387c1.193-0.538,2.455-0.816,3.74-0.816
		c6.309,0,11.441,6.764,11.441,15.077s-5.133,15.076-11.441,15.076c-1.285,0-2.547-0.278-3.74-0.816v15.388
		C72.986,88.644,71.93,89.7,70.631,89.7z M51.768,86.7h18.219V65.997l2.471,2.096c1.296,1.1,2.772,1.681,4.27,1.681
		c4.654,0,8.441-5.417,8.441-12.076S81.381,45.62,76.727,45.62c-1.497,0-2.974,0.581-4.27,1.681l-2.471,2.096V28.695H50.409
		l2.246-2.502c1.198-1.334,1.831-2.873,1.831-4.451c0-4.655-5.417-8.442-12.076-8.442s-12.076,3.787-12.076,8.442
		c0,1.578,0.633,3.117,1.831,4.451l2.246,2.502H14.832v15.41c1.156-0.679,2.373-1.021,3.631-1.021
		c5.637,0,10.053,6.669,10.053,15.184c0,8.514-4.416,15.183-10.053,15.183c-1.259,0-2.476-0.343-3.631-1.021V86.7h18.22
		c-1.908-1.954-2.974-4.448-2.974-7.053c0-5.979,5.532-10.845,12.332-10.845s12.332,4.865,12.332,10.845
		C54.742,82.251,53.676,84.746,51.768,86.7z"/>
</g>
</svg>
