<?xml version="1.0" encoding="utf-8"?>
<!-- Generator: Adobe Illustrator 16.0.0, SVG Export Plug-In . SVG Version: 6.00 Build 0)  -->
<!DOCTYPE svg PUBLIC "-//W3C//DTD SVG 1.1//EN" "http://www.w3.org/Graphics/SVG/1.1/DTD/svg11.dtd">
<svg version="1.1" id="Layer_13" xmlns="http://www.w3.org/2000/svg" xmlns:xlink="http://www.w3.org/1999/xlink" x="0px" y="0px"
	 width="100px" height="100px" viewBox="0 0 100 100" enable-background="new 0 0 100 100" xml:space="preserve">
<path d="M69.986,44.333c2.205,0,4.326,1.131,5.817,3.098c0.597,0.792,1.7,1.127,2.629,0.814c0.961-0.323,1.606-1.22,1.606-2.232
	V25.444c0-1.299-1.057-2.355-2.355-2.355H62.296c0.538-1.193,0.816-2.455,0.816-3.74c0-6.309-6.763-11.441-15.076-11.441
	S32.959,13.04,32.959,19.349c0,1.285,0.278,2.547,0.816,3.74H18.389c-1.298,0-2.354,1.057-2.354,2.355v14.054
	c-1.252-0.6-2.586-0.909-3.953-0.909c-6.31,0-11.442,6.763-11.442,15.076s5.133,15.076,11.442,15.076
	c1.367,0,2.701-0.31,3.953-0.909v14.056c0,1.299,1.057,2.355,2.354,2.355h17.296c1.299,0,2.355-1.057,2.355-2.355
	c0-0.608-0.236-1.191-0.652-1.628c-0.641-0.863-0.965-1.754-0.965-2.647c0-3.823,5.579-7.053,12.184-7.053
	c6.604,0,12.183,3.229,12.183,7.053c0,0.951-0.367,1.898-1.091,2.813c-0.558,0.703-0.665,1.68-0.274,2.488
	c0.391,0.808,1.223,1.329,2.121,1.329h16.139c1.299,0,2.355-1.057,2.355-2.355V61.319c0-1.013-0.646-1.909-1.604-2.231
	c-0.937-0.315-2.036,0.021-2.63,0.809c-1.492,1.971-3.613,3.101-5.819,3.101c-4.325,0-7.845-4.187-7.845-9.332
	S65.661,44.333,69.986,44.333z M59.142,53.665c0,6.8,4.865,12.332,10.845,12.332c2.604,0,5.099-1.065,7.053-2.974v18.22H62.768
	c0.679-1.155,1.021-2.372,1.021-3.631c0-5.637-6.669-10.053-15.183-10.053c-8.515,0-15.184,4.416-15.184,10.053
	c0,1.258,0.343,2.475,1.021,3.631h-15.41V61.664l-2.502,2.246c-1.334,1.198-2.873,1.831-4.451,1.831
	c-4.655,0-8.442-5.417-8.442-12.076s3.787-12.076,8.442-12.076c1.578,0,3.117,0.633,4.451,1.831l2.502,2.246V26.089h20.701
	l-2.096-2.471c-1.1-1.296-1.681-2.772-1.681-4.27c0-4.654,5.418-8.441,12.077-8.441s12.076,3.787,12.076,8.441
	c0,1.497-0.581,2.974-1.681,4.27l-2.096,2.471h20.703v18.219c-1.954-1.908-4.449-2.975-7.053-2.975
	C64.007,41.333,59.142,46.865,59.142,53.665z"/>
</svg>
