<?xml version="1.0" encoding="utf-8"?>
<!-- Generator: Adobe Illustrator 16.0.0, SVG Export Plug-In . SVG Version: 6.00 Build 0)  -->
<!DOCTYPE svg PUBLIC "-//W3C//DTD SVG 1.1//EN" "http://www.w3.org/Graphics/SVG/1.1/DTD/svg11.dtd">
<svg version="1.1" id="Layer_13" xmlns="http://www.w3.org/2000/svg" xmlns:xlink="http://www.w3.org/1999/xlink" x="0px" y="0px"
	 width="100px" height="100px" viewBox="0 0 100 100" enable-background="new 0 0 100 100" xml:space="preserve">
<path d="M83.596,63.917c-1.102,0-2.176,0.418-3.107,1.209v-8.128c0.626-0.138,1.098-0.695,1.098-1.363v-9.127
	c0.707,0.319,1.456,0.484,2.218,0.484c3.742,0,6.786-4.011,6.786-8.941c0-4.932-3.044-8.943-6.786-8.943
	c-0.762,0-1.511,0.165-2.218,0.484v-9.126c0-0.771-0.627-1.396-1.397-1.396h-8.336c0.356-0.743,0.54-1.534,0.54-2.345
	c0-3.742-4.012-6.787-8.942-6.787s-8.942,3.045-8.942,6.787c0,0.811,0.184,1.602,0.539,2.345H46.71c-0.77,0-1.396,0.626-1.396,1.396
	v0.263H34.01l0.787,1.341c0.32,0.546,0.483,1.119,0.483,1.703c0,2.797-3.642,5.073-8.116,5.073s-8.116-2.276-8.116-5.073
	c0-0.584,0.163-1.157,0.483-1.703l0.788-1.341H9.41v13.81l1.511-1.476c0.998-0.975,2.263-1.512,3.562-1.512
	c3.057,0,5.543,2.883,5.543,6.426c0,3.542-2.486,6.424-5.543,6.424c-1.299,0-2.563-0.536-3.562-1.511L9.41,41.414v13.808h11.248
	c-0.791,0.932-1.209,2.007-1.209,3.108c0,3.251,3.612,5.896,8.053,5.896s8.053-2.646,8.053-5.896c0-1.102-0.418-2.177-1.208-3.108
	h10.967v0.413c0,0.508,0.275,0.949,0.682,1.194v8.634l1.34-0.787c0.547-0.32,1.12-0.483,1.703-0.483
	c2.797,0,5.073,3.642,5.073,8.116s-2.276,8.115-5.073,8.115c-0.584,0-1.157-0.162-1.703-0.482l-1.34-0.788v10.909h13.809
	l-1.476-1.512c-0.975-0.997-1.511-2.262-1.511-3.562c0-3.056,2.882-5.542,6.425-5.542c3.542,0,6.425,2.486,6.425,5.542
	c0,1.299-0.537,2.563-1.512,3.562l-1.476,1.512h13.809V78.814c0.932,0.791,2.006,1.208,3.107,1.208c3.252,0,5.896-3.612,5.896-8.052
	C89.492,67.53,86.848,63.917,83.596,63.917z M47.093,20.849h11.613l-1.333-1.484c-0.71-0.791-1.086-1.704-1.086-2.64
	c0-2.762,3.213-5.008,7.163-5.008c3.949,0,7.162,2.246,7.162,5.008c0,0.936-0.375,1.849-1.086,2.64l-1.332,1.484h11.612v12.278
	l1.465-1.243c0.769-0.652,1.645-0.997,2.532-0.997c2.761,0,5.007,3.214,5.007,7.164c0,3.949-2.246,7.162-5.007,7.162
	c-0.888,0-1.764-0.345-2.532-0.997l-1.465-1.243v10.906h-9.782c0.026-0.048,0.051-0.096,0.076-0.145
	c0.779-0.924,1.194-1.988,1.194-3.09c0-2.299-1.811-4.29-4.438-5.263c-1.019-0.474-2.177-0.745-3.407-0.745
	c-0.771,0-1.514,0.107-2.213,0.303c-3.472,0.655-6.048,2.961-6.048,5.705c0,1.159,0.455,2.277,1.313,3.234h-9.41v-7.091
	c0.686,0.402,1.407,0.605,2.153,0.605c3.344,0,5.963-3.955,5.963-9.005c0-5.051-2.619-9.006-5.963-9.006
	c-0.746,0-1.468,0.203-2.153,0.605V20.849z M45.594,45.242v-0.527c0.094,0.084,0.19,0.162,0.288,0.238
	C45.771,45.036,45.675,45.132,45.594,45.242z"/>
</svg>
