<?xml version="1.0" encoding="utf-8"?>
<!-- Generator: Adobe Illustrator 16.0.0, SVG Export Plug-In . SVG Version: 6.00 Build 0)  -->
<!DOCTYPE svg PUBLIC "-//W3C//DTD SVG 1.1//EN" "http://www.w3.org/Graphics/SVG/1.1/DTD/svg11.dtd">
<svg version="1.1" id="Layer_13" xmlns="http://www.w3.org/2000/svg" xmlns:xlink="http://www.w3.org/1999/xlink" x="0px" y="0px"
	 width="100px" height="100px" viewBox="0 0 100 100" enable-background="new 0 0 100 100" xml:space="preserve">
<path fill-rule="evenodd" clip-rule="evenodd" d="M69.452,67.225c-0.599-1.244-1.304-2.434-1.985-3.584
	c-0.279-0.469-0.557-0.939-0.828-1.412c0.365-0.395,0.611-0.887,0.704-1.436c0.231-1.375-0.778-2.871-2.204-3.268
	c-0.441-0.125-0.891-0.166-1.281-0.18l-2.192-22.93c1.28-0.326,2.7-1.572,2.782-2.895c0.064-1.043-0.328-1.959-1.078-2.584
	c2.373-2.65,3.83-5.527,4.439-8.752c0.152-0.811,0.297-1.625,0.445-2.463l0.217-1.219c0.063-0.346-0.031-0.699-0.256-0.969
	c-0.226-0.27-0.559-0.424-0.909-0.424H58.73c-0.333,0-0.65,0.139-0.875,0.385c-0.224,0.246-0.334,0.574-0.305,0.906l0.453,4.984
	h-3.511l0.449-4.984c0.03-0.332-0.081-0.66-0.306-0.904c-0.224-0.246-0.541-0.387-0.874-0.387h-7.604
	c-0.333,0-0.649,0.141-0.874,0.387s-0.335,0.574-0.306,0.904l0.451,4.98h-3.509l0.451-4.975c0.029-0.33-0.081-0.66-0.305-0.906
	c-0.225-0.244-0.542-0.385-0.875-0.385h-8.526c-0.341,0-0.663,0.146-0.889,0.4c-0.226,0.256-0.329,0.596-0.286,0.934
	c0.029,0.234,0.055,0.465,0.08,0.689c0.057,0.512,0.11,0.992,0.203,1.492c0.845,4.539,2.383,7.914,4.799,10.486
	c-0.541,0.543-0.866,1.275-0.899,2.115c-0.028,0.732,0.311,1.521,0.931,2.166c0.508,0.527,1.123,0.891,1.756,1.049l-2.19,22.902
	c-0.286,0.018-0.595,0.055-0.902,0.139c-1.456,0.393-2.452,1.842-2.269,3.297c0.086,0.682,0.412,1.268,0.911,1.693
	c-1.119,1.682-2.269,3.451-3.342,5.25c-1.229,2.057-1.549,4.459-0.926,6.947c0.319,1.279,0.825,2.486,1.314,3.656
	c0.148,0.354,0.297,0.707,0.439,1.063c-0.364,0.363-0.666,0.826-0.911,1.391c-0.259,0.598-0.409,1.215-0.556,1.813
	c-0.063,0.256-0.126,0.52-0.201,0.789c-0.099,0.355-0.025,0.738,0.198,1.033c0.225,0.295,0.572,0.467,0.943,0.467h38.21
	c0.37,0,0.718-0.172,0.941-0.465s0.298-0.674,0.201-1.029c-0.067-0.248-0.126-0.486-0.184-0.715c-0.13-0.52-0.253-1.012-0.439-1.512
	c-0.192-0.518-0.488-1.168-1.019-1.703C71.035,75.119,71.318,71.107,69.452,67.225z M38.041,31.328
	c0.021-0.541,0.418-0.729,0.747-0.791c0.464-0.086,0.802-0.457,0.907-0.918c0.104-0.459-0.104-0.957-0.483-1.238
	c-2.659-2.352-4.235-5.492-5.107-10.182c-0.044-0.234-0.078-0.473-0.108-0.713h5.9l-0.45,4.973c-0.03,0.332,0.081,0.66,0.306,0.906
	c0.224,0.246,0.541,0.385,0.873,0.385h6.102c0.333,0,0.65-0.139,0.875-0.385c0.224-0.246,0.334-0.574,0.305-0.904l-0.45-4.98h5.011
	l-0.449,4.984c-0.029,0.33,0.08,0.66,0.305,0.904c0.225,0.246,0.542,0.385,0.875,0.385H59.3c0.333,0,0.65-0.139,0.874-0.385
	c0.225-0.246,0.336-0.574,0.306-0.906l-0.452-4.984h5.865c-0.137,0.77-0.271,1.52-0.412,2.268c-0.605,3.207-2.201,6.039-4.881,8.658
	c-0.027,0.021-0.056,0.045-0.074,0.063c-0.352,0.316-0.48,0.811-0.33,1.258c0.152,0.447,0.555,0.764,1.025,0.803
	c0.206,0.016,0.307,0.045,0.357,0.066c0.447,0.191,0.525,0.451,0.512,0.736c-0.071,0.236-0.641,0.738-1.073,0.797h-0.651
	c-0.333,0.002-0.649,0.143-0.873,0.391c-0.224,0.246-0.333,0.576-0.301,0.906l2.258,23.627h-22.87l2.255-23.584
	c0.031-0.332-0.078-0.662-0.303-0.91c-0.225-0.246-0.542-0.387-0.876-0.387l-0.587,0.002C38.619,32.172,38.06,31.566,38.041,31.328z
	 M65.788,79.988c0.07,0.418,0.358,0.766,0.755,0.914c0.242,0.09,0.526,0.256,0.839,1.094c0.062,0.168,0.117,0.342,0.169,0.525
	H32.394c0.078-0.287,0.161-0.551,0.267-0.793c0.262-0.607,0.528-0.783,0.73-0.867c0.362-0.152,0.609-0.498,0.687-0.883
	s-0.058-0.807-0.332-1.086c-0.192-0.494-0.397-0.984-0.603-1.475c-0.476-1.137-0.926-2.209-1.201-3.314
	c-0.468-1.869-0.238-3.652,0.661-5.158c1.292-2.164,2.706-4.301,4.04-6.289c0.227-0.34,0.264-0.771,0.098-1.143
	c-0.166-0.373-0.512-0.633-0.916-0.691c-0.164-0.021-0.445-0.096-0.475-0.33c-0.031-0.248,0.21-0.627,0.537-0.715
	c0.244-0.066,0.563-0.076,0.815-0.076l9.618-0.002c5.729,0,11.458,0.002,17.187,0.01c0.303,0,0.688,0.012,0.994,0.098
	c0.322,0.09,0.524,0.467,0.507,0.592c-0.042,0.244-0.27,0.35-0.365,0.385c-0.374,0.135-0.656,0.447-0.75,0.834
	c-0.095,0.385,0.012,0.793,0.281,1.084c0.014,0.016,0.036,0.041,0.064,0.092c0.383,0.693,0.787,1.375,1.191,2.057
	c0.686,1.156,1.334,2.25,1.888,3.4c1.61,3.352,1.241,6.742-1.163,10.67C65.859,79.189,65.721,79.592,65.788,79.988z M40.003,54.805
	l1.382-19.121c0.047-0.652,0.615-1.143,1.266-1.096c0.653,0.047,1.144,0.613,1.097,1.266l-1.382,19.123
	c-0.045,0.623-0.564,1.098-1.18,1.098c-0.029,0-0.058,0-0.086-0.002C40.446,56.025,39.956,55.457,40.003,54.805z M37.965,77.453
	c0.408,0.512,0.324,1.258-0.188,1.664c-0.218,0.176-0.479,0.26-0.737,0.26c-0.349,0-0.692-0.154-0.927-0.447
	c-6.034-7.57,0.047-13.514,0.109-13.572c0.473-0.449,1.223-0.432,1.674,0.041s0.434,1.221-0.038,1.672
	C37.654,67.27,33.314,71.619,37.965,77.453z"/>
</svg>
