<?xml version="1.0" encoding="utf-8"?>
<!-- Generator: Adobe Illustrator 16.0.0, SVG Export Plug-In . SVG Version: 6.00 Build 0)  -->
<!DOCTYPE svg PUBLIC "-//W3C//DTD SVG 1.1//EN" "http://www.w3.org/Graphics/SVG/1.1/DTD/svg11.dtd">
<svg version="1.1" id="Layer_13" xmlns="http://www.w3.org/2000/svg" xmlns:xlink="http://www.w3.org/1999/xlink" x="0px" y="0px"
	 width="100px" height="100px" viewBox="0 0 100 100" enable-background="new 0 0 100 100" xml:space="preserve">
<path d="M52.973,12.757c-14.689,0-27.652,8.476-33.689,21.325l-4.199-8.719l-5.299,2.552l8.721,18.102l18.102-8.721l-2.553-5.298
	l-9.43,4.542c5.094-10.79,15.996-17.902,28.348-17.902c17.293,0,31.361,14.069,31.361,31.362S70.266,81.362,52.973,81.362
	c-10.182,0-19.77-4.974-25.646-13.306l-4.807,3.39c6.979,9.892,18.363,15.797,30.453,15.797c20.535,0,37.242-16.707,37.242-37.243
	S73.508,12.757,52.973,12.757z"/>
</svg>
