<?xml version="1.0" encoding="utf-8"?>
<!-- Generator: Adobe Illustrator 16.0.0, SVG Export Plug-In . SVG Version: 6.00 Build 0)  -->
<!DOCTYPE svg PUBLIC "-//W3C//DTD SVG 1.1//EN" "http://www.w3.org/Graphics/SVG/1.1/DTD/svg11.dtd">
<svg version="1.1" id="Layer_13" xmlns="http://www.w3.org/2000/svg" xmlns:xlink="http://www.w3.org/1999/xlink" x="0px" y="0px"
	 width="100px" height="100px" viewBox="0 0 100 100" enable-background="new 0 0 100 100" xml:space="preserve">
<path d="M47.027,12.757c14.689,0,27.651,8.476,33.688,21.325l4.201-8.719l5.298,2.552l-8.721,18.102l-18.102-8.721l2.553-5.298
	l9.429,4.542C70.28,25.75,59.379,18.638,47.027,18.638c-17.292,0-31.362,14.069-31.362,31.362s14.07,31.362,31.362,31.362
	c10.183,0,19.769-4.974,25.647-13.306l4.805,3.39c-6.979,9.892-18.362,15.797-30.452,15.797C26.492,87.243,9.785,70.536,9.785,50
	S26.492,12.757,47.027,12.757z"/>
</svg>
