<?xml version="1.0" encoding="utf-8"?>
<!-- Generator: Adobe Illustrator 16.0.0, SVG Export Plug-In . SVG Version: 6.00 Build 0)  -->
<!DOCTYPE svg PUBLIC "-//W3C//DTD SVG 1.1//EN" "http://www.w3.org/Graphics/SVG/1.1/DTD/svg11.dtd">
<svg version="1.1" id="Layer_13" xmlns="http://www.w3.org/2000/svg" xmlns:xlink="http://www.w3.org/1999/xlink" x="0px" y="0px"
	 width="100px" height="100px" viewBox="0 0 100 100" enable-background="new 0 0 100 100" xml:space="preserve">
<g>
	<path d="M76.359,52.903c0.006,0.018,0.083,1.598-0.621,3.491l5.101,2.709c2.48-3.4,1.258-6.946,1.235-7.022L76.359,52.903z"/>
	<path d="M39.486,73.604l-0.187-0.11l-3.817,4.894l0.147,0.154c2.146,2.229,4.706,2.563,6.04,2.563c0.311,0,0.617-0.02,0.868-0.053
		l0.21-0.026l0.19-5.983l0.001-0.232l-0.231-0.021C42.695,74.787,41.172,74.592,39.486,73.604z M42.27,80.585
		c-0.183,0.017-0.39,0.024-0.599,0.024c-1.225,0-3.548-0.298-5.535-2.259l3.289-4.214c1.333,0.744,2.514,1.018,3.014,1.106
		L42.27,80.585z"/>
	<path d="M28.521,34.967l-3.867-4.29c-3.492,2.347-3.557,6.097-3.562,6.175l5.651,1.185C26.746,38.017,27.212,36.504,28.521,34.967z
		"/>
	<path d="M68.474,31.193l0.137,0.168l5.26-3.293l-0.086-0.195c-1.672-3.775-5.228-4.633-5.633-4.72l-0.206-0.047l-2.226,5.556
		l-0.15,0.251l0.279,0.065C65.862,28.984,67.229,29.691,68.474,31.193z M68.247,23.684c0.804,0.214,3.554,1.148,4.998,4.196
		l-4.532,2.835c-0.965-1.118-1.989-1.802-2.454-2.071L68.247,23.684z"/>
	<path d="M65.563,71.252l2.167,5.354c4.083-1.011,5.428-4.514,5.458-4.586l-4.905-3.044C68.275,68.993,67.318,70.254,65.563,71.252z
		"/>
	<path d="M28.669,64.271l-0.231-0.159c-0.01-0.012-1.044-1.117-1.709-2.981l-0.072-0.203l-6.069,1.295l0.015,0.214
		c0.28,4.119,3.327,6.14,3.68,6.361l0.177,0.114l3.991-4.459L28.669,64.271z M24.375,68.268c-0.684-0.477-2.947-2.294-3.262-5.652
		l5.228-1.116c0.529,1.394,1.254,2.382,1.597,2.788L24.375,68.268z"/>
	<path d="M43.166,24.486l-0.206-5.772c-4.182-0.446-6.644,2.384-6.697,2.442l3.568,4.537C39.844,25.68,41.174,24.823,43.166,24.486z
		"/>
	<path d="M81.116,40.909l-0.127-0.167l-5.274,2.825l-0.257,0.098l0.151,0.226c0.006,0.014,0.599,1.415,0.586,3.386l-0.001,0.217
		l6.146,0.859l0.06-0.205C83.547,44.171,81.371,41.235,81.116,40.909z M81.982,47.805l-5.295-0.741
		c-0.022-1.485-0.364-2.666-0.547-3.165l4.708-2.521C81.33,42.059,82.835,44.535,81.982,47.805z"/>
	<path d="M48.217,76.092l-1.782,5.494c3.777,1.85,7.059,0.031,7.129-0.004l-1.8-5.486C51.747,76.104,50.203,76.456,48.217,76.092z"
		/>
	<path d="M18.232,47.879l5.926-0.851l0.28-0.001l-0.071-0.267c0-0.016-0.081-1.531,0.607-3.384l0.075-0.201l-5.48-2.91l-0.126,0.174
		c-2.427,3.328-1.398,6.839-1.271,7.237L18.232,47.879z M19.717,40.904l4.722,2.505c-0.485,1.398-0.567,2.629-0.567,3.162
		l-5.288,0.759C18.368,46.527,17.804,43.675,19.717,40.904z"/>
	<path d="M57.973,18.882l-0.184,5.771c0.019-0.002,1.589,0.196,3.331,1.219l3.553-4.555C61.757,18.285,58.052,18.872,57.973,18.882z
		"/>
	<path d="M73.521,61.311l-0.021,0.279c-0.004,0.015-0.444,1.463-1.727,2.971l-0.14,0.164l4.156,4.61l0.178-0.12
		c3.417-2.298,3.653-5.951,3.669-6.365l0.013-0.211l-5.86-1.229L73.521,61.311z M79.13,63.033c-0.073,0.827-0.52,3.701-3.264,5.65
		l-3.58-3.97c0.94-1.155,1.433-2.276,1.615-2.777L79.13,63.033z"/>
	<path d="M31.82,68.648l-4.897,3.065c1.704,3.845,5.386,4.561,5.463,4.579l2.146-5.359C34.514,70.928,33.105,70.206,31.82,68.648z"
		/>
	<path d="M32.692,22.841c-3.994,0.99-5.468,4.343-5.624,4.727l-0.086,0.196l5.088,3.157l0.219,0.187l0.115-0.258
		c0.008-0.011,0.944-1.236,2.638-2.199l0.188-0.105l-2.33-5.754L32.692,22.841z M32.143,30.387l-4.538-2.817
		c0.352-0.754,1.756-3.302,4.999-4.196l2.007,4.957C33.327,29.097,32.484,29.979,32.143,30.387z"/>
	<path d="M73.984,38.472l5.649-1.206c-0.287-4.194-3.501-6.126-3.568-6.171l-3.851,4.304C72.23,35.408,73.306,36.569,73.984,38.472z
		"/>
	<path d="M60.703,73.589l-0.197,0.203c-0.012,0.009-1.308,0.839-3.231,1.165l-0.213,0.036l0.222,6.202l0.213,0.023
		c0.305,0.032,0.612,0.051,0.914,0.051c3.484,0,5.597-2.136,5.988-2.568l0.147-0.154l-3.7-4.708L60.703,73.589z M58.41,80.774
		c-0.214,0-0.432-0.009-0.649-0.025l-0.191-5.344c1.467-0.28,2.563-0.821,3.022-1.09l3.301,4.201
		C63.347,79.062,61.394,80.774,58.41,80.774z"/>
	<path d="M24.041,52.408l-5.722-0.8c-1.164,4.041,1.195,6.956,1.243,7.021l5.091-2.727C24.64,55.886,24.026,54.428,24.041,52.408z"
		/>
	<path d="M48.532,23.951l0.253-0.124c0.006-0.001,0.641-0.149,1.649-0.149c0.603,0,1.203,0.053,1.786,0.16l0.213,0.039l1.914-5.904
		l-0.192-0.095c-1.157-0.565-2.382-0.854-3.644-0.854c-1.972,0-3.426,0.715-3.703,0.859l-0.191,0.096l1.867,5.689L48.532,23.951z
		 M50.51,17.518c1.116,0,2.203,0.24,3.234,0.711l-1.648,5.089c-0.545-0.089-1.104-0.135-1.663-0.135
		c-0.672,0-1.233,0.069-1.55,0.124l-1.666-5.076C47.696,18.006,48.92,17.518,50.51,17.518z"/>
	<path d="M54.231,56.538l-1.269-3.452c1.599-0.998,2.445-2.88,2.128-4.745l3.547-1.304c0.708,0.934,1.967,1.339,3.124,0.913
		c1.418-0.521,2.146-2.095,1.625-3.513c-0.522-1.42-2.094-2.147-3.514-1.626c-1.099,0.405-1.78,1.439-1.791,2.545l-3.607,1.326
		c-0.974-1.603-2.823-2.471-4.674-2.199l-1.228-3.339c0.836-0.725,1.184-1.913,0.78-3.013c-0.521-1.419-2.095-2.146-3.513-1.626
		c-1.419,0.523-2.146,2.096-1.625,3.514c0.424,1.157,1.548,1.854,2.718,1.79l1.198,3.26c-1.676,0.968-2.585,2.878-2.28,4.783
		l-3.161,1.161c-0.724-0.835-1.914-1.184-3.013-0.778c-1.418,0.521-2.146,2.093-1.624,3.513c0.521,1.419,2.094,2.146,3.513,1.624
		c1.156-0.425,1.854-1.549,1.789-2.718l3.099-1.139c0.995,1.674,2.938,2.558,4.858,2.207l1.239,3.37
		c-0.933,0.708-1.338,1.967-0.913,3.124c0.522,1.42,2.095,2.146,3.514,1.624c1.418-0.521,2.147-2.093,1.624-3.513
		C56.372,57.229,55.337,56.549,54.231,56.538z"/>
	<path d="M50,9.261C27.536,9.261,9.261,27.537,9.261,50S27.536,90.739,50,90.739S90.739,72.463,90.739,50S72.464,9.261,50,9.261z
		 M50,84.822c-19.202,0-34.822-15.621-34.822-34.822S30.798,15.178,50,15.178S84.822,30.799,84.822,50S69.202,84.822,50,84.822z"/>
</g>
</svg>
