<?xml version="1.0" encoding="utf-8"?>
<!-- Generator: Adobe Illustrator 16.0.0, SVG Export Plug-In . SVG Version: 6.00 Build 0)  -->
<!DOCTYPE svg PUBLIC "-//W3C//DTD SVG 1.1//EN" "http://www.w3.org/Graphics/SVG/1.1/DTD/svg11.dtd">
<svg version="1.1" id="Layer_12" xmlns="http://www.w3.org/2000/svg" xmlns:xlink="http://www.w3.org/1999/xlink" x="0px" y="0px"
	 width="100px" height="100px" viewBox="0 0 100 100" enable-background="new 0 0 100 100" xml:space="preserve">
<path d="M87.544,23.574l4.427-3.585c0,0-4.713,0.002-7.708-4.53c-2.094-3.166-2.47,2.683-2.508,6.498
	c-3.183,0.387-5.935,2.708-6.7,6.013c-8.554,36.938-50.412,41.635-52.219,41.819c-3.368,0.333-6.018,2.753-6.818,5.852
	c-3.698-0.774-10.081-1.8-7.312,1.013c3.81,3.872,2.83,8.481,2.83,8.481l5.035-4.079c1.4,2.848,4.451,4.679,7.797,4.354
	c1.469-0.143,24.687-2.626,43.598-17.943c9.867-7.992,18.565-19.483,22.381-35.957C91.056,28.448,89.86,25.397,87.544,23.574z
	 M72.614,45.971c-0.031,0.033-0.064,0.062-0.099,0.09c-0.403,0.326-0.995,0.31-1.381-0.059c-0.417-0.398-0.432-1.061-0.031-1.479
	c0.065-0.07,6.7-7.131,7.807-17.659c0.06-0.575,0.574-0.992,1.149-0.931c0.575,0.06,0.992,0.575,0.931,1.15
	C79.808,38.347,72.907,45.666,72.614,45.971z"/>
</svg>
