<?xml version="1.0" encoding="utf-8"?>
<!-- Generator: Adobe Illustrator 16.0.0, SVG Export Plug-In . SVG Version: 6.00 Build 0)  -->
<!DOCTYPE svg PUBLIC "-//W3C//DTD SVG 1.1//EN" "http://www.w3.org/Graphics/SVG/1.1/DTD/svg11.dtd">
<svg version="1.1" id="Layer_13" xmlns="http://www.w3.org/2000/svg" xmlns:xlink="http://www.w3.org/1999/xlink" x="0px" y="0px"
	 width="100px" height="100px" viewBox="0 0 100 100" enable-background="new 0 0 100 100" xml:space="preserve">
<path d="M5.261,25.705v48.59h90.479v-48.59H5.261z M92.946,71.503H8.053V28.497h11.261l6.73,10.768l-9.761,6.395l-1.239,0.811
	l1.27,0.629l18.827,9.327L18.378,46.4l10.193-5.58l1.107-0.606l-0.631-1.213l-5.464-10.504h24.009l-1.319,7.519l-0.071,0.404
	l0.164,0.225l5.907,8.141l-4.332-8.621l2.676-7.667h22.057l2.979,1.568l-9.603,9.589l-0.697,0.696l0.849,0.36l11.822,5.009
	l-10.397-5.694l11.352-9.263l1.441-1.177l-1.646-1.089h14.172V71.503z"/>
</svg>
