<?xml version="1.0" encoding="utf-8"?>
<!-- Generator: Adobe Illustrator 16.0.0, SVG Export Plug-In . SVG Version: 6.00 Build 0)  -->
<!DOCTYPE svg PUBLIC "-//W3C//DTD SVG 1.1//EN" "http://www.w3.org/Graphics/SVG/1.1/DTD/svg11.dtd">
<svg version="1.1" id="Layer_13" xmlns="http://www.w3.org/2000/svg" xmlns:xlink="http://www.w3.org/1999/xlink" x="0px" y="0px"
	 width="100px" height="100px" viewBox="0 0 100 100" enable-background="new 0 0 100 100" xml:space="preserve">
<g>
	<path d="M42.273,39.23c-10.371,0-10.852,6.866-10.782,9.317c0.136,4.7,2.653,9.565,8.794,5.06c4.637-3.398,7.144-5.983,7.144-8.669
		C47.428,40.595,46.538,39.23,42.273,39.23z"/>
	<path d="M50,18.665c-17.059,0-29.921,13.863-29.921,32.24c0,10.413,5.792,16.409,15.91,16.484v4.643
		c0,9.043,6.242,9.304,6.956,9.304c0.962,0,1.895-0.217,2.75-0.602c0.632,0.224,1.313,0.351,2.038,0.351
		c0.687,0,1.474-0.108,2.289-0.437c0.867,0.347,1.662,0.437,2.254,0.437c0.744,0,1.443-0.136,2.091-0.369
		c0.846,0.375,1.775,0.587,2.731,0.587c0.707,0,6.912-0.259,6.912-9.271v-4.658c10.114-0.104,15.91-6.093,15.91-16.469
		C79.921,32.527,67.059,18.665,50,18.665z M63.74,62.709c-1.381,0-2.855-0.129-4.399-0.367c0,0,0,7.527,0,9.689
		c0,3.47-1.109,4.604-2.242,4.604c-1.184,0-2.392-1.234-2.392-2.326c0,0-1.035,2.104-2.431,2.104c-0.698,0-1.485-0.527-2.276-2.104
		c-0.792,1.581-1.573,2.104-2.271,2.104c-1.386,0-2.414-2.104-2.414-2.104c0,1.142-1.193,2.357-2.376,2.357
		c-1.146-0.002-2.28-1.151-2.28-4.636c0-2.135,0-9.712,0-9.712c-1.579,0.261-3.079,0.398-4.483,0.398
		c-6.855,0-11.426-3.271-11.426-11.813c0-15.238,10.017-27.569,25.25-27.569c15.238,0,25.25,12.332,25.25,27.569
		C75.25,59.515,70.627,62.709,63.74,62.709z"/>
	<path d="M57.725,39.23c-4.263,0-5.153,1.364-5.153,5.708c0,2.686,2.506,5.271,7.144,8.669c6.141,4.505,8.658-0.36,8.794-5.06
		C68.579,46.097,68.098,39.23,57.725,39.23z"/>
	<path d="M52.994,58.245c-2.478,0-2.992,2.484-2.992,2.484s-1.076-2.389-2.757-2.389c-3.758,0-0.937,3.576,0.639,8.083
		C48.394,67.884,50,67.336,50,65.767c0,1.641,1.533,2.409,2.298,0.255C53.927,61.447,56.167,58.251,52.994,58.245z"/>
</g>
</svg>
