<?xml version="1.0" encoding="utf-8"?>
<!-- Generator: Adobe Illustrator 16.0.0, SVG Export Plug-In . SVG Version: 6.00 Build 0)  -->
<!DOCTYPE svg PUBLIC "-//W3C//DTD SVG 1.1//EN" "http://www.w3.org/Graphics/SVG/1.1/DTD/svg11.dtd">
<svg version="1.1" id="Layer_13" xmlns="http://www.w3.org/2000/svg" xmlns:xlink="http://www.w3.org/1999/xlink" x="0px" y="0px"
	 width="100px" height="100px" viewBox="0 0 100 100" enable-background="new 0 0 100 100" xml:space="preserve">
<path d="M33.918,32.38c-0.066-2.334,0.392-8.875,10.271-8.875c4.063,0,4.911,1.3,4.911,5.437c0,2.559-2.387,5.021-6.805,8.257
	C36.445,41.491,34.048,36.856,33.918,32.38z M38.203,50.327c-9.638-0.072-15.155-5.783-15.155-15.702
	c0-17.505,12.252-30.71,28.502-30.71c16.249,0,28.5,13.205,28.5,30.71c0,9.884-5.52,15.588-15.154,15.688v4.437
	c0,8.584-5.91,8.831-6.584,8.831c-0.911,0-1.796-0.203-2.602-0.56c-0.618,0.222-1.284,0.352-1.993,0.352
	c-0.563,0-1.32-0.085-2.146-0.416c-0.775,0.313-1.526,0.416-2.181,0.416c-0.691,0-1.339-0.121-1.941-0.334
	c-0.814,0.367-1.703,0.574-2.619,0.574c-0.681,0-6.626-0.249-6.626-8.863V50.327z M38.382,45.878c1.337,0,2.767-0.131,4.27-0.379
	c0,0,0,7.217,0,9.251c0,3.319,1.081,4.414,2.172,4.416c1.126,0,2.264-1.157,2.264-2.245c0,0,0.979,2.004,2.299,2.004
	c0.665,0,1.409-0.499,2.164-2.004c0.753,1.502,1.503,2.004,2.167,2.004c1.33,0,2.316-2.004,2.316-2.004
	c0,1.04,1.15,2.215,2.278,2.215c1.079,0,2.135-1.081,2.135-4.386c0-2.06,0-9.23,0-9.23c1.472,0.227,2.876,0.35,4.19,0.35
	c6.562,0,10.965-3.043,10.965-11.245c0-14.515-9.537-26.261-24.052-26.261c-14.512,0-24.053,11.747-24.053,26.261
	C27.497,42.762,31.852,45.878,38.382,45.878z M60.804,37.199c5.849,4.292,8.247-0.343,8.376-4.819
	c0.066-2.334-0.391-8.875-10.271-8.875c-4.061,0-4.909,1.3-4.909,5.437C53.999,31.5,56.387,33.963,60.804,37.199z M49.533,49.409
	c0.485,1.39,2.017,0.869,2.017-0.626c0,1.563,1.46,2.294,2.188,0.243c1.551-4.358,3.685-7.402,0.664-7.408
	c-2.361,0-2.851,2.366-2.851,2.366s-1.025-2.275-2.627-2.275C45.346,41.708,48.032,45.115,49.533,49.409z M77.42,71.104
	c0.636,1.393,0.689,2.95,0.152,4.385c-0.536,1.435-1.6,2.574-2.994,3.208c-0.329,0.15-0.668,0.261-1.013,0.346
	c0.445,0.512,0.812,1.095,1.057,1.749c0.537,1.435,0.482,2.992-0.152,4.386c-0.422,0.925-1.078,1.714-1.899,2.295
	c0.102,1-0.063,2.015-0.485,2.941c-0.928,2.041-2.978,3.359-5.22,3.359c-0.822,0-1.622-0.174-2.374-0.517
	c-2.429-1.106-3.717-3.706-3.271-6.22l-7.673-3.494l-8.716,3.969c0.18,1,0.087,2.035-0.278,3.012
	c-0.537,1.435-1.601,2.574-2.995,3.208c-0.751,0.343-1.55,0.517-2.373,0.517c-2.242,0-4.291-1.318-5.221-3.358
	c-0.422-0.928-0.585-1.942-0.484-2.941c-0.822-0.581-1.479-1.37-1.9-2.296c-0.635-1.394-0.688-2.952-0.152-4.387
	c0.388-1.035,1.057-1.907,1.918-2.556c-0.646-0.056-1.275-0.217-1.875-0.49c-1.394-0.634-2.457-1.774-2.993-3.208
	c-0.537-1.435-0.483-2.993,0.151-4.387c0.422-0.926,1.079-1.715,1.9-2.296c-0.101-1,0.063-2.013,0.484-2.941
	c0.93-2.041,2.979-3.359,5.221-3.359c0.823,0,1.621,0.174,2.375,0.517c1.394,0.635,2.457,1.773,2.993,3.208
	c0.366,0.977,0.458,2.012,0.278,3.012l11.667,5.313l10.623-4.837c-0.445-2.514,0.842-5.113,3.27-6.22
	c0.754-0.343,1.553-0.517,2.375-0.517c2.243,0,4.292,1.318,5.221,3.359c0.422,0.927,0.586,1.94,0.484,2.941
	C76.342,69.388,77,70.177,77.42,71.104z M50.101,81.974l-3.496-1.591l-6.596,3.003l-0.593-1.3c-0.466-1.024-1.495-1.686-2.621-1.686
	c-0.41,0-0.811,0.087-1.188,0.26c-0.699,0.318-1.232,0.89-1.502,1.609c-0.269,0.72-0.242,1.501,0.076,2.201
	c0.293,0.644,0.815,1.155,1.472,1.44l1.182,0.514l-0.389,1.229c-0.217,0.679-0.174,1.409,0.12,2.054
	c0.466,1.023,1.495,1.685,2.62,1.685c0.411,0,0.811-0.088,1.189-0.26c0.699-0.318,1.233-0.89,1.502-1.61
	c0.27-0.719,0.243-1.501-0.076-2.2l-0.592-1.301L50.101,81.974z M41.259,79.676l1.897-0.864l-4.849-2.208
	c-0.294,0.365-0.636,0.687-1.008,0.967C38.859,77.71,40.289,78.477,41.259,79.676z M71.945,81.793
	c-0.27-0.719-0.803-1.291-1.501-1.609c-1.417-0.644-3.173,0.028-3.81,1.425l-0.592,1.3L38.258,70.258l0.593-1.301
	c0.319-0.699,0.346-1.48,0.076-2.2c-0.269-0.72-0.803-1.291-1.501-1.609c-1.418-0.644-3.175,0.027-3.811,1.425
	c-0.294,0.645-0.337,1.375-0.121,2.054l0.39,1.229l-1.183,0.514c-0.655,0.285-1.178,0.796-1.471,1.44
	c-0.318,0.7-0.346,1.481-0.077,2.201c0.271,0.719,0.803,1.291,1.502,1.609c0.378,0.172,0.779,0.26,1.189,0.26
	c1.126,0,2.154-0.662,2.62-1.686l0.593-1.3l27.783,12.652l-0.592,1.3c-0.656,1.443-0.018,3.153,1.426,3.81
	c0.378,0.172,0.779,0.26,1.19,0.26c1.125,0,2.153-0.661,2.619-1.685c0.294-0.645,0.337-1.375,0.122-2.055l-0.389-1.227l1.179-0.514
	c0.657-0.286,1.179-0.798,1.473-1.441C72.188,83.294,72.215,82.513,71.945,81.793z M64.791,79.2
	c0.788-0.973,1.878-1.662,3.094-1.962c-0.047-0.053-0.098-0.102-0.143-0.157l-3.803,1.732L64.791,79.2z M74.819,72.288
	c-0.293-0.645-0.815-1.157-1.472-1.443l-1.18-0.514l0.389-1.227c0.215-0.68,0.172-1.41-0.121-2.054
	c-0.467-1.024-1.494-1.686-2.62-1.686c-0.411,0-0.812,0.087-1.19,0.26c-1.443,0.657-2.082,2.366-1.425,3.81l0.591,1.3L56.995,75.65
	l3.496,1.591l8.503-3.872l0.592,1.301c0.466,1.023,1.494,1.685,2.618,1.685c0.411,0,0.812-0.087,1.19-0.26
	c0.699-0.318,1.232-0.89,1.502-1.609C75.165,73.768,75.139,72.986,74.819,72.288z"/>
</svg>
