<?xml version="1.0" encoding="utf-8"?>
<!-- Generator: Adobe Illustrator 16.0.0, SVG Export Plug-In . SVG Version: 6.00 Build 0)  -->
<!DOCTYPE svg PUBLIC "-//W3C//DTD SVG 1.1//EN" "http://www.w3.org/Graphics/SVG/1.1/DTD/svg11.dtd">
<svg version="1.1" id="Layer_13" xmlns="http://www.w3.org/2000/svg" xmlns:xlink="http://www.w3.org/1999/xlink" x="0px" y="0px"
	 width="100px" height="100px" viewBox="0 0 100 100" enable-background="new 0 0 100 100" xml:space="preserve">
<path d="M82.042,52.514l-0.004-5H60.409l3.877-3.878l-3.535-3.535l-8.235,8.236l-0.001-0.85C51.29,39.093,44.065,32.62,35.337,32.62
	c-9.582,0-17.379,7.796-17.379,17.38s7.797,17.38,17.379,17.38c8.737,0,15.969-6.486,17.182-14.894v-0.82l8.232,8.233l3.535-3.535
	l-3.85-3.851H82.042z M35.337,60.885c-6.002,0-10.885-4.882-10.885-10.885s4.883-10.885,10.885-10.885S46.222,43.997,46.222,50
	S41.339,60.885,35.337,60.885z"/>
</svg>
