<?xml version="1.0" encoding="utf-8"?>
<!-- Generator: Adobe Illustrator 16.0.0, SVG Export Plug-In . SVG Version: 6.00 Build 0)  -->
<!DOCTYPE svg PUBLIC "-//W3C//DTD SVG 1.1//EN" "http://www.w3.org/Graphics/SVG/1.1/DTD/svg11.dtd">
<svg version="1.1" id="Layer_12" xmlns="http://www.w3.org/2000/svg" xmlns:xlink="http://www.w3.org/1999/xlink" x="0px" y="0px"
	 width="100px" height="100px" viewBox="0 0 100 100" enable-background="new 0 0 100 100" xml:space="preserve">
<path d="M77.137,34.894c-7.677,0-14.104,5.414-15.688,12.622l-6.924-6.923l-2.828,2.828l5.23,5.23H36.85
	c-1.127-7.767-7.81-13.758-15.884-13.758c-8.861,0-16.069,7.208-16.069,16.069c0,8.862,7.208,16.07,16.069,16.07
	c8.074,0,14.756-5.99,15.883-13.758h20.077l-5.229,5.229l2.828,2.828l6.924-6.923c1.583,7.209,8.011,12.623,15.688,12.623
	c8.861,0,16.069-7.208,16.069-16.07C93.206,42.102,85.998,34.894,77.137,34.894z M20.966,61.027
	c-5.549,0-10.064-4.514-10.064-10.064c0-5.55,4.515-10.063,10.064-10.063S31.03,45.413,31.03,50.963
	C31.03,56.514,26.515,61.027,20.966,61.027z M77.137,61.027c-5.55,0-10.064-4.514-10.064-10.064c0-5.55,4.515-10.063,10.064-10.063
	c5.549,0,10.064,4.514,10.064,10.063C87.201,56.514,82.686,61.027,77.137,61.027z"/>
</svg>
