<?xml version="1.0" encoding="utf-8"?>
<!-- Generator: Adobe Illustrator 16.0.0, SVG Export Plug-In . SVG Version: 6.00 Build 0)  -->
<!DOCTYPE svg PUBLIC "-//W3C//DTD SVG 1.1//EN" "http://www.w3.org/Graphics/SVG/1.1/DTD/svg11.dtd">
<svg version="1.1" id="Layer_13" xmlns="http://www.w3.org/2000/svg" xmlns:xlink="http://www.w3.org/1999/xlink" x="0px" y="0px"
	 width="100px" height="100px" viewBox="0 0 100 100" enable-background="new 0 0 100 100" xml:space="preserve">
<path d="M64.888,23.211h-3.455V20.34H58.28V4.703H44.244v2.148h1.91v1.156H33.017c-2.851,0-4.027,2.037-4.251,3.115
	c-0.022,0.107-0.033,0.217-0.032,0.328l0.037,5.244c0.006,0.857,0.702,1.547,1.558,1.547c0.004,0,0.008,0,0.011,0
	c0.86-0.006,1.553-0.709,1.547-1.568l-0.036-5.008c0.084-0.176,0.357-0.543,1.167-0.543h13.138v1.34h-1.91v7.877h-4.298v2.871
	h-3.834c-6.134,0-11.124,4.99-11.124,11.125v49.836c0,6.135,4.99,11.125,11.124,11.125h28.775c6.134,0,11.124-4.99,11.124-11.125
	V34.336C76.012,28.201,71.021,23.211,64.888,23.211z M71.563,84.172c0,3.682-2.994,6.676-6.675,6.676H36.112
	c-3.68,0-6.675-2.994-6.675-6.676V34.336c0-3.682,2.995-6.676,6.675-6.676h12.386v43.533h4.449V27.66h11.94
	c3.681,0,6.675,2.994,6.675,6.676V84.172z M54.694,51.83h15.769v29.873c0,4.213-3.416,7.629-7.629,7.629H38.166
	c-4.213,0-7.629-3.416-7.629-7.629V51.83h16.147v21.656h8.01V51.83z"/>
</svg>
