<?xml version="1.0" encoding="utf-8"?>
<!-- Generator: Adobe Illustrator 16.0.0, SVG Export Plug-In . SVG Version: 6.00 Build 0)  -->
<!DOCTYPE svg PUBLIC "-//W3C//DTD SVG 1.1//EN" "http://www.w3.org/Graphics/SVG/1.1/DTD/svg11.dtd">
<svg version="1.1" id="Layer_11" xmlns="http://www.w3.org/2000/svg" xmlns:xlink="http://www.w3.org/1999/xlink" x="0px" y="0px"
	 width="100px" height="100px" viewBox="0 0 100 100" enable-background="new 0 0 100 100" xml:space="preserve">
<path d="M73.002,12.936C71.516,8.996,61.605,5.951,49.59,5.951c-13.039,0-23.611,3.586-23.611,8.011
	c0,0.014,0.004,0.026,0.004,0.039c-1.475,1.806-2.361,4.111-2.361,6.625v58.96c0,4.519,2.859,9.008,6.867,10.761
	c3.502,2.188,10.986,3.702,19.656,3.702c9.377,0,17.367-1.77,20.434-4.251c3.438-2.025,5.801-6.105,5.801-10.212v-58.96
	C76.379,17.582,75.074,14.851,73.002,12.936z M49.482,7.422c11.551,0,20.912,2.877,20.912,6.426s-9.361,6.425-20.912,6.425
	c-11.549,0-20.912-2.876-20.912-6.425S37.934,7.422,49.482,7.422z M27.551,23.945c0-0.724,0.588-1.311,1.311-1.311
	c0.725,0,1.311,0.587,1.311,1.311v41.927c0,0.724-0.586,1.311-1.311,1.311c-0.723,0-1.311-0.587-1.311-1.311V23.945z M71.461,85.149
	c-0.6,0.277-1.326,0.612-2.162,0.997c-0.836,0.39-1.832,0.681-2.902,1.058c-0.537,0.184-1.098,0.374-1.678,0.571
	c-0.576,0.212-1.203,0.31-1.832,0.478c-0.635,0.151-1.285,0.308-1.951,0.468c-0.332,0.077-0.67,0.155-1.012,0.234
	c-0.346,0.052-0.693,0.104-1.045,0.156c-0.705,0.104-1.42,0.21-2.145,0.317c-0.361,0.054-0.729,0.107-1.094,0.161
	c-0.369,0.023-0.742,0.047-1.113,0.071c-1.494,0.082-3.01,0.232-4.529,0.182c-0.76-0.013-1.52-0.026-2.275-0.039
	c-0.754-0.057-1.506-0.112-2.25-0.168c-1.496-0.074-2.943-0.352-4.352-0.548c-0.703-0.09-1.385-0.255-2.055-0.395
	c-0.666-0.152-1.324-0.268-1.953-0.441c-1.258-0.332-2.447-0.645-3.518-1.021c-1.084-0.333-2.051-0.719-2.906-1.056
	c-0.854-0.34-1.584-0.676-2.18-0.957c-0.596-0.283-1.053-0.528-1.361-0.7c-0.311-0.167-0.471-0.265-0.471-0.265
	s0.176,0.067,0.512,0.176c0.33,0.117,0.828,0.258,1.451,0.454c0.625,0.188,1.393,0.398,2.268,0.637
	c0.883,0.222,1.871,0.478,2.963,0.709c1.082,0.263,2.275,0.451,3.523,0.702c0.623,0.125,1.275,0.191,1.936,0.295
	c0.664,0.08,1.33,0.229,2.023,0.283c1.379,0.145,2.799,0.314,4.252,0.379c0.725,0.044,1.455,0.088,2.188,0.133
	c0.734,0.002,1.473,0.004,2.211,0.007c1.475,0.066,2.945-0.059,4.396-0.117c0.363-0.017,0.725-0.034,1.084-0.052
	c0.357-0.037,0.713-0.075,1.068-0.111c0.707-0.074,1.408-0.147,2.096-0.22c0.346-0.036,0.688-0.071,1.025-0.106
	c0.334-0.059,0.666-0.116,0.994-0.174c0.658-0.109,1.303-0.216,1.93-0.32c1.264-0.176,2.43-0.471,3.516-0.727
	c0.543-0.126,1.064-0.246,1.559-0.361c0.498-0.109,0.975-0.201,1.402-0.351c0.871-0.261,1.631-0.488,2.258-0.676
	c1.258-0.365,1.99-0.56,1.99-0.56S72.652,84.587,71.461,85.149z M48.836,19.49h2.986c3.584,0,4.855-1.489,4.855-2.765
	s-1.271-2.765-4.855-2.765h-0.951l3.697-4.788c-1.158-1.261-7.111-1.433-8.525-0.196l3.266,4.984h-0.473
	c-4.262,0-4.594,2.116-4.594,2.765S44.574,19.49,48.836,19.49z M48.836,15.009h1.158l0.031,0.048l0.037-0.048h1.76
	c2.242,0,3.807,0.706,3.807,1.717s-1.564,1.716-3.807,1.716h-2.986c-2.186,0-3.545-0.657-3.545-1.716S46.65,15.009,48.836,15.009z"
	/>
</svg>
