<?xml version="1.0" encoding="utf-8"?>
<!-- Generator: Adobe Illustrator 16.0.0, SVG Export Plug-In . SVG Version: 6.00 Build 0)  -->
<!DOCTYPE svg PUBLIC "-//W3C//DTD SVG 1.1//EN" "http://www.w3.org/Graphics/SVG/1.1/DTD/svg11.dtd">
<svg version="1.1" id="Layer_12" xmlns="http://www.w3.org/2000/svg" xmlns:xlink="http://www.w3.org/1999/xlink" x="0px" y="0px"
	 width="100px" height="100px" viewBox="0 0 100 100" enable-background="new 0 0 100 100" xml:space="preserve">
<path d="M17.474,93.316l0-7.84h65.053v7.84c0,0.761,0.616,1.377,1.377,1.377s1.377-0.616,1.377-1.377v-8.107h8.109
	c0.761,0,1.377-0.617,1.377-1.377c0-0.761-0.616-1.377-1.377-1.377h-8.109V17.546h8.109c0.761,0,1.377-0.617,1.377-1.377
	c0-0.762-0.616-1.377-1.377-1.377h-8.109l0-8.109c0-0.761-0.616-1.377-1.377-1.377s-1.377,0.616-1.377,1.377v8.109H17.474V6.683
	c0-0.761-0.616-1.377-1.377-1.377S14.72,5.922,14.72,6.683v8.109H6.61c-0.761,0-1.377,0.615-1.377,1.377
	c0,0.76,0.616,1.377,1.377,1.377h7.985v64.908H6.61c-0.761,0-1.377,0.616-1.377,1.377c0,0.76,0.616,1.377,1.377,1.377h8.109l0,8.107
	c0,0.761,0.616,1.377,1.377,1.377S17.474,94.077,17.474,93.316z M17.412,38.505V17.546h21.113v20.959H17.412z M39.443,38.505V17.546
	h21.052v20.959H39.443z M61.475,38.505V17.546h21.052l0,20.959H61.475z M17.412,60.538V39.423h21.113l0,21.114H17.412z
	 M39.444,60.538l0-21.114h21.052l0,21.114H39.444z M61.475,60.538l0-21.114h21.052v21.114H61.475z M17.412,82.569V61.456h21.114
	v21.113H17.412z M39.444,82.569V61.456h21.052v21.113H39.444z M61.475,82.569V61.456h21.052v21.113H61.475z M63.334,80.857V63.525
	h17.332v17.332H63.334z"/>
</svg>
