<?xml version="1.0" encoding="utf-8"?>
<!-- Generator: Adobe Illustrator 16.0.0, SVG Export Plug-In . SVG Version: 6.00 Build 0)  -->
<!DOCTYPE svg PUBLIC "-//W3C//DTD SVG 1.1//EN" "http://www.w3.org/Graphics/SVG/1.1/DTD/svg11.dtd">
<svg version="1.1" id="Layer_12" xmlns="http://www.w3.org/2000/svg" xmlns:xlink="http://www.w3.org/1999/xlink" x="0px" y="0px"
	 width="100px" height="100px" viewBox="0 0 100 100" enable-background="new 0 0 100 100" xml:space="preserve">
<path d="M93.317,82.526h-7.84V17.474h7.84c0.76,0,1.377-0.617,1.377-1.377c0-0.761-0.617-1.377-1.377-1.377h-8.108V6.61
	c0-0.76-0.617-1.377-1.377-1.377S82.455,5.85,82.455,6.61v8.109H17.546V6.61c0-0.76-0.617-1.377-1.377-1.377
	c-0.761,0-1.377,0.617-1.377,1.377v8.109H6.683c-0.76,0-1.377,0.616-1.377,1.377c0,0.76,0.617,1.377,1.377,1.377h8.109v65.053H6.683
	c-0.76,0-1.377,0.617-1.377,1.377c0,0.761,0.617,1.377,1.377,1.377h8.109v8.109c0,0.76,0.616,1.377,1.377,1.377
	c0.76,0,1.377-0.617,1.377-1.377v-7.986h64.908v7.986c0,0.76,0.617,1.377,1.377,1.377s1.377-0.617,1.377-1.377V85.28h8.108
	c0.76,0,1.377-0.616,1.377-1.377C94.694,83.143,94.077,82.526,93.317,82.526z M82.569,38.525H61.456V17.474h21.113V38.525z
	 M60.538,39.505v21.052H39.424V39.505H60.538z M38.506,39.505v21.052h-20.96V39.505H38.506z M38.506,61.475v21.114h-20.96V61.475
	H38.506z M39.424,61.475h21.114v21.114H39.424V61.475z M61.456,61.475h21.113v21.114H61.456V61.475z M61.456,60.557V39.505h21.113
	v21.052H61.456z M60.538,38.525H39.424V17.474h21.114V38.525z M38.506,38.525h-20.96V17.474h20.96V38.525z"/>
</svg>
