<?xml version="1.0" encoding="utf-8"?>
<!-- Generator: Adobe Illustrator 16.0.0, SVG Export Plug-In . SVG Version: 6.00 Build 0)  -->
<!DOCTYPE svg PUBLIC "-//W3C//DTD SVG 1.1//EN" "http://www.w3.org/Graphics/SVG/1.1/DTD/svg11.dtd">
<svg version="1.1" id="Layer_12" xmlns="http://www.w3.org/2000/svg" xmlns:xlink="http://www.w3.org/1999/xlink" x="0px" y="0px"
	 width="100px" height="100px" viewBox="0 0 100 100" enable-background="new 0 0 100 100" xml:space="preserve">
<path d="M78.001,57.008V42.992c8.398-1.219,14.879-8.446,14.879-17.179c0-9.584-7.797-17.38-17.379-17.38
	c-8.205,0-15.084,5.722-16.897,13.38H41.396c-1.813-7.658-8.691-13.38-16.896-13.38c-9.584,0-17.381,7.796-17.381,17.38
	c0,8.732,6.48,15.961,14.881,17.179v14.016c-8.4,1.218-14.881,8.446-14.881,17.179c0,9.584,7.797,17.38,17.381,17.38
	c8.86,0,16.182-6.671,17.235-15.253h16.527c1.054,8.582,8.375,15.253,17.237,15.253c9.582,0,17.379-7.796,17.379-17.38
	C92.88,65.454,86.399,58.227,78.001,57.008z M75.501,14.929c6.002,0,10.885,4.882,10.885,10.885c0,5.771-4.516,10.492-10.197,10.85
	c-0.22-0.063-0.447-0.107-0.688-0.107s-0.468,0.045-0.688,0.107c-5.682-0.357-10.197-5.079-10.197-10.85
	C64.616,19.811,69.499,14.929,75.501,14.929z M13.616,25.813c0-6.003,4.883-10.885,10.885-10.885s10.885,4.882,10.885,10.885
	c0,5.771-4.516,10.492-10.197,10.85c-0.22-0.063-0.447-0.107-0.688-0.107s-0.468,0.045-0.688,0.107
	C18.132,36.306,13.616,31.584,13.616,25.813z M24.501,85.071c-6.002,0-10.885-4.882-10.885-10.885s4.883-10.885,10.885-10.885
	s10.885,4.882,10.885,10.885S30.503,85.071,24.501,85.071z M58.378,71.313H41.622c-1.24-7.405-7.166-13.225-14.621-14.306V42.992
	c8.074-1.171,14.354-7.9,14.828-16.179h16.342c0.475,8.278,6.754,15.008,14.83,16.179v14.016
	C65.544,58.089,59.618,63.908,58.378,71.313z M75.501,85.071c-6.002,0-10.885-4.882-10.885-10.885s4.883-10.885,10.885-10.885
	s10.885,4.882,10.885,10.885S81.503,85.071,75.501,85.071z"/>
</svg>
