<?xml version="1.0" encoding="utf-8"?>
<!-- Generator: Adobe Illustrator 16.0.0, SVG Export Plug-In . SVG Version: 6.00 Build 0)  -->
<!DOCTYPE svg PUBLIC "-//W3C//DTD SVG 1.1//EN" "http://www.w3.org/Graphics/SVG/1.1/DTD/svg11.dtd">
<svg version="1.1" id="Layer_13" xmlns="http://www.w3.org/2000/svg" xmlns:xlink="http://www.w3.org/1999/xlink" x="0px" y="0px"
	 width="100px" height="100px" viewBox="0 0 100 100" enable-background="new 0 0 100 100" xml:space="preserve">
<path d="M77.496,7.854c-5.533,0-10.035,4.501-10.035,10.035c0,2.49,0.917,4.765,2.423,6.521L57.191,37.102
	c-1.767-1.548-4.073-2.495-6.601-2.495c-2.406,0-4.615,0.852-6.346,2.269l-13.65-13.651c1.217-1.661,1.945-3.701,1.945-5.913
	c0-5.534-4.502-10.035-10.035-10.035S12.47,11.778,12.47,17.312s4.501,10.035,10.035,10.035c2.072,0,4-0.631,5.601-1.712
	l13.877,13.877c-0.899,1.503-1.426,3.254-1.426,5.13c0,4.942,3.594,9.05,8.303,9.875v18.298c-4.709,0.824-8.303,4.933-8.303,9.875
	c0,5.534,4.502,10.035,10.035,10.035s10.035-4.501,10.035-10.035c0-4.942-3.594-9.05-8.303-9.875V54.516
	c4.709-0.824,8.303-4.933,8.303-9.875c0-1.751-0.453-3.397-1.244-4.832L72.57,26.622c1.457,0.825,3.135,1.302,4.926,1.302
	c5.533,0,10.035-4.501,10.035-10.035S83.029,7.854,77.496,7.854z M22.504,23.596c-3.465,0-6.285-2.819-6.285-6.285
	c0-3.466,2.819-6.285,6.285-6.285c3.466,0,6.285,2.819,6.285,6.285C28.789,20.777,25.97,23.596,22.504,23.596z M56.875,82.688
	c0,3.466-2.819,6.285-6.285,6.285c-3.466,0-6.285-2.819-6.285-6.285c0-3.466,2.819-6.285,6.285-6.285
	C54.056,76.404,56.875,79.223,56.875,82.688z M50.591,50.926c-3.466,0-6.285-2.819-6.285-6.285c0-3.466,2.819-6.285,6.285-6.285
	c3.465,0,6.285,2.819,6.285,6.285C56.875,48.107,54.056,50.926,50.591,50.926z M77.496,24.173c-3.466,0-6.285-2.818-6.285-6.285
	c0-3.466,2.819-6.285,6.285-6.285c3.465,0,6.285,2.819,6.285,6.285C83.78,21.355,80.961,24.173,77.496,24.173z"/>
</svg>
