<?xml version="1.0" encoding="utf-8"?>
<!-- Generator: Adobe Illustrator 16.0.0, SVG Export Plug-In . SVG Version: 6.00 Build 0)  -->
<!DOCTYPE svg PUBLIC "-//W3C//DTD SVG 1.1//EN" "http://www.w3.org/Graphics/SVG/1.1/DTD/svg11.dtd">
<svg version="1.1" id="Layer_12" xmlns="http://www.w3.org/2000/svg" xmlns:xlink="http://www.w3.org/1999/xlink" x="0px" y="0px"
	 width="100px" height="100px" viewBox="0 0 100 100" enable-background="new 0 0 100 100" xml:space="preserve">
<path d="M89.838,25.669l-28.686-0.008L49.689,6.496L38.23,25.656l-25.402-0.007l12.016,22.39L10.162,72.588H38.02l11.225,20.916
	l12.518-20.916h27.453L75.492,49.642L89.838,25.669z M73.707,52.625l10.107,16.899H63.594L73.707,52.625z M62.984,28.725
	l21.449,0.007L73.707,46.657L62.984,28.725z M71.922,49.641L60.023,69.524H39.852L28.365,48.121L39.967,28.72l19.445,0.005
	L71.922,49.641z M41.799,25.656l7.891-13.192l7.891,13.197L41.799,25.656z M26.533,51.186l9.842,18.339H15.564L26.533,51.186z
	 M17.949,28.714l18.449,0.005l-9.723,16.257L17.949,28.714z M58.191,72.588l-8.803,14.708l-7.893-14.708H58.191z"/>
</svg>
