<?xml version="1.0" encoding="utf-8"?>
<!-- Generator: Adobe Illustrator 16.0.0, SVG Export Plug-In . SVG Version: 6.00 Build 0)  -->
<!DOCTYPE svg PUBLIC "-//W3C//DTD SVG 1.1//EN" "http://www.w3.org/Graphics/SVG/1.1/DTD/svg11.dtd">
<svg version="1.1" id="Layer_13" xmlns="http://www.w3.org/2000/svg" xmlns:xlink="http://www.w3.org/1999/xlink" x="0px" y="0px"
	 width="100px" height="100px" viewBox="0 0 100 100" enable-background="new 0 0 100 100" xml:space="preserve">
<g>
	<path d="M62.704,23.705V16.48c0-1.484-1.203-2.688-2.688-2.688H40.19c-1.485,0-2.688,1.204-2.688,2.688v7.225h-5.168v62.466
		l35-0.52V23.705H62.704z M57.328,23.705h-3.952v2.878h-0.583v-2.878h-1.25v2.878h-0.583v-2.878h-1.375v2.878H49v-2.878h-1.25v2.878
		h-0.583v-2.878h-4.289v-4.536h14.449V23.705z"/>
	<path d="M23.556,23.705c-7.423,0-13.441,6.019-13.441,13.441v29.211l0.022-0.003c0.005,0.01,0.05,0.09,0.127,0.222v5.69
		c0,7.688,6.254,13.941,13.941,13.941h5.295V23.705H23.556z M11.264,72.267v-2.61c2.176,3.233,7.795,10.786,15.653,15.552h-2.712
		C17.07,85.208,11.264,79.402,11.264,72.267z"/>
	<path d="M76.65,23.705h-6.482v61.918l6.433-0.268c7.693,0,13.441-7.28,13.441-13.79v-5.437c0.018-0.031,0.038-0.066,0.05-0.089
		V37.146C90.091,29.724,84.073,23.705,76.65,23.705z M89.042,71.565c0,5.915-5.435,12.79-12.462,12.79L73.85,84.47
		c7.194-4.311,12.526-11.283,15.191-15.287V71.565z"/>
</g>
</svg>
