<?xml version="1.0" encoding="utf-8"?>
<!-- Generator: Adobe Illustrator 16.0.0, SVG Export Plug-In . SVG Version: 6.00 Build 0)  -->
<!DOCTYPE svg PUBLIC "-//W3C//DTD SVG 1.1//EN" "http://www.w3.org/Graphics/SVG/1.1/DTD/svg11.dtd">
<svg version="1.1" id="Layer_13" xmlns="http://www.w3.org/2000/svg" xmlns:xlink="http://www.w3.org/1999/xlink" x="0px" y="0px"
	 width="100px" height="100px" viewBox="0 0 100 100" enable-background="new 0 0 100 100" xml:space="preserve">
<g>
	<path d="M76.65,23.705H62.704V16.48c0-1.484-1.203-2.688-2.688-2.688H40.19c-1.485,0-2.688,1.204-2.688,2.688v7.225H23.556
		c-7.423,0-13.441,6.019-13.441,13.441v29.211l0.022-0.003c0.077,0.144,8.041,14.229,19.854,19.509l-0.154,0.345l40.679-0.604
		c11.383-5.086,18.958-18.447,19.576-19.563V37.146C90.091,29.724,84.073,23.705,76.65,23.705z M57.328,23.705H42.878v-4.536h14.449
		V23.705z"/>
	<path d="M10.115,68.458v4.309c0,7.424,6.018,13.441,13.441,13.441h4.1C18.652,81.41,12.383,72.187,10.115,68.458z"/>
	<path d="M72.358,86.208h4.292c7.423,0,13.441-6.018,13.441-13.441v-4.081C87.556,72.753,81.251,81.682,72.358,86.208z"/>
</g>
</svg>
