<?xml version="1.0" encoding="utf-8"?>
<!-- Generator: Adobe Illustrator 16.0.0, SVG Export Plug-In . SVG Version: 6.00 Build 0)  -->
<!DOCTYPE svg PUBLIC "-//W3C//DTD SVG 1.1//EN" "http://www.w3.org/Graphics/SVG/1.1/DTD/svg11.dtd">
<svg version="1.1" id="Layer_12" xmlns="http://www.w3.org/2000/svg" xmlns:xlink="http://www.w3.org/1999/xlink" x="0px" y="0px"
	 width="100px" height="100px" viewBox="0 0 100 100" enable-background="new 0 0 100 100" xml:space="preserve">
<path d="M67.672,70.245c0.336-0.295,0.666-0.597,0.988-0.907c0.005-0.006,0.011-0.011,0.017-0.017
	c0.324-0.313,0.64-0.633,0.946-0.961c0.001-0.001,0.002-0.002,0.003-0.003c0.001,0,0.001-0.001,0.001-0.001s0,0,0.001-0.001
	c0.851-0.909,1.638-1.878,2.356-2.897c0.003-0.002,0.004-0.004,0.006-0.007c1.244-1.765,2.279-3.684,3.074-5.725
	c0.001-0.001,0.001-0.003,0.002-0.005c0-0.002,0.002-0.003,0.002-0.005c0.005-0.01,0.008-0.02,0.012-0.029
	c0.145-0.371,0.279-0.746,0.406-1.125c0.002-0.005,0.004-0.009,0.005-0.013c0.001-0.005,0.003-0.009,0.004-0.013
	c0.001-0.005,0.003-0.008,0.005-0.013c0.001-0.002,0.001-0.006,0.003-0.008c0-0.002,0.001-0.005,0.001-0.008
	c0.129-0.384,0.249-0.771,0.359-1.163c0.003-0.006,0.004-0.012,0.006-0.017c0-0.001,0.001-0.002,0.001-0.002
	c0-0.001,0-0.002,0-0.002c0.112-0.396,0.216-0.796,0.311-1.199c0,0,0,0,0-0.001c0-0.003,0.001-0.005,0.001-0.007
	c0-0.001,0.001-0.004,0.002-0.006c0.11-0.473,0.208-0.95,0.292-1.432c0.007-0.031,0.013-0.063,0.017-0.094
	c0.077-0.44,0.142-0.884,0.196-1.332c0.009-0.072,0.02-0.144,0.027-0.216c0.046-0.41,0.082-0.823,0.11-1.237
	c0.006-0.1,0.017-0.197,0.021-0.296c0.028-0.499,0.045-1.001,0.045-1.507s-0.017-1.008-0.045-1.507
	c-0.005-0.094-0.014-0.187-0.021-0.28c-0.001-0.006-0.001-0.01-0.001-0.015c-0.001-0.006-0.002-0.01-0.002-0.016
	c-0.027-0.41-0.063-0.817-0.108-1.222c-0.008-0.072-0.019-0.145-0.027-0.217c-0.055-0.447-0.119-0.892-0.196-1.332
	c-0.004-0.031-0.01-0.063-0.017-0.094c-0.084-0.481-0.182-0.959-0.292-1.432c-0.001-0.002-0.002-0.004-0.002-0.006
	s0-0.003-0.001-0.004c-0.408-1.746-0.985-3.426-1.716-5.021c-0.001-0.002-0.002-0.004-0.002-0.005
	c-0.729-1.592-1.606-3.101-2.619-4.508c-0.007-0.009-0.014-0.019-0.021-0.028c-0.675-0.938-1.409-1.83-2.196-2.672
	c0,0,0-0.001-0.001-0.001c-0.001-0.001-0.001-0.001-0.002-0.001c-2.095-2.237-4.565-4.115-7.311-5.537c-0.001,0-0.001,0-0.001,0
	s-0.001,0-0.002,0c-0.001-0.001-0.004-0.003-0.006-0.004c-0.456-0.236-0.92-0.459-1.391-0.669c0,0-0.002,0-0.002-0.001
	c-0.004-0.001-0.007-0.004-0.012-0.005c-0.002-0.001-0.005-0.002-0.006-0.003c-0.336-0.148-0.674-0.291-1.016-0.427
	c-0.034-0.014-0.068-0.026-0.102-0.039c-0.326-0.128-0.654-0.25-0.985-0.365c-0.054-0.019-0.106-0.036-0.159-0.054
	c-0.322-0.11-0.646-0.215-0.975-0.312c-0.057-0.019-0.114-0.033-0.173-0.05c-0.333-0.097-0.667-0.19-1.007-0.274
	c0,0-0.001-0.001-0.003-0.001c-0.055-0.014-0.111-0.024-0.167-0.038c-0.006-0.002-0.012-0.003-0.018-0.004
	c-1.393-0.335-2.825-0.561-4.291-0.669c-0.004,0-0.008-0.001-0.013-0.001c-0.149-0.011-0.299-0.025-0.45-0.034
	c-0.001,0-0.004,0-0.006,0c-0.506-0.029-1.018-0.047-1.531-0.047c-14.829,0-26.893,12.064-26.893,26.893
	c0,14.829,12.063,26.893,26.893,26.893c0.48,0,0.958-0.014,1.432-0.039c0.002,0,0.004,0,0.006,0c0.123-0.007,0.245-0.02,0.369-0.028
	c0.005-0.001,0.011-0.001,0.018-0.001c0.349-0.024,0.697-0.049,1.042-0.086c0.001,0,0.001,0,0.001,0
	c0.004-0.001,0.009-0.002,0.015-0.002c0.471-0.05,0.938-0.114,1.401-0.188c0.002,0,0.004-0.001,0.005-0.001
	c0.104-0.017,0.208-0.037,0.312-0.056c0.002,0,0.003-0.001,0.006-0.001c0.423-0.073,0.845-0.156,1.263-0.25
	c0.023-0.006,0.046-0.011,0.069-0.016c0,0,0,0,0.001,0c0.386-0.088,0.769-0.183,1.147-0.285c0.002-0.002,0.005-0.002,0.008-0.003
	c0.054-0.016,0.107-0.03,0.161-0.046c0.001-0.001,0.002-0.001,0.004-0.002c2.996-0.841,5.782-2.188,8.259-3.945
	c0.001-0.001,0.003-0.002,0.004-0.003c0-0.001,0.002-0.001,0.002-0.001c0.002-0.001,0.002-0.002,0.003-0.003
	c0.741-0.525,1.453-1.086,2.135-1.682C67.665,70.251,67.668,70.247,67.672,70.245z M31.642,34.935v2.746h-1.952
	C30.275,36.719,30.929,35.801,31.642,34.935z M62.361,62.238v6.119h2.703c-0.404,0.332-0.821,0.647-1.247,0.952
	c-0.081,0.058-0.16,0.115-0.241,0.171c-0.277,0.194-0.565,0.373-0.851,0.557c-0.164,0.104-0.32,0.218-0.486,0.318v-1.998h-6.12
	v4.598c-0.93,0.249-1.885,0.438-2.855,0.574c-0.032,0.004-0.064,0.008-0.097,0.012c-0.081,0.011-0.161,0.021-0.242,0.031
	c-0.365,0.045-0.732,0.081-1.103,0.109c-0.127,0.01-0.254,0.021-0.382,0.028c-0.477,0.029-0.957,0.049-1.44,0.049v-5.321h-6.119
	v4.518c-2.178-0.58-4.234-1.462-6.119-2.6v-1.958h-2.775c-1.221-0.998-2.343-2.114-3.345-3.334v-2.824h-1.998
	c-1.151-1.909-2.042-3.992-2.623-6.2h4.621V49.96h6.12v6.118h6.119v-6.079H50V43.88h-6.119v6.079h-6.119V43.84h-6.12v6.08h-5.398
	c0.006-2.116,0.295-4.167,0.823-6.12h4.575v-6.079h6.12v6.118h6.119v-6.078H50v-6.12h-6.119v6.079h-6.119v-6.118h-2.775
	c0.875-0.716,1.802-1.371,2.775-1.959v1.958h6.119v-4.558c1.953-0.521,4.004-0.804,6.119-0.804v5.401h6.119v-4.598
	c0.518,0.138,1.025,0.296,1.527,0.467c0.06,0.02,0.118,0.039,0.178,0.061c0.508,0.177,1.01,0.368,1.503,0.579
	c0.002,0.001,0.005,0.003,0.008,0.004c0.46,0.197,0.91,0.412,1.354,0.637c0.03,0.016,0.061,0.031,0.092,0.048
	c0.071,0.036,0.144,0.072,0.215,0.109c0.447,0.234,0.888,0.477,1.316,0.738v1.955h2.752c1.253,1.03,2.396,2.188,3.416,3.449v2.671
	h1.876l0.001,0.001c0.113,0.19,0.215,0.389,0.323,0.581c0.138,0.247,0.281,0.49,0.411,0.741c0.043,0.079,0.084,0.16,0.125,0.241
	c0.449,0.891,0.842,1.813,1.179,2.764c0.013,0.036,0.029,0.071,0.042,0.107c0.01,0.033,0.021,0.064,0.032,0.098
	c0.009,0.025,0.018,0.051,0.025,0.076c0.093,0.275,0.171,0.557,0.255,0.835c0.067,0.223,0.145,0.44,0.204,0.665
	c0.001,0.004,0.001,0.007,0.003,0.01H68.48v6.119h5.279c0,0.484-0.02,0.964-0.049,1.44c-0.004,0.088-0.012,0.176-0.02,0.264
	c-0.003,0.04-0.006,0.079-0.009,0.119c-0.005,0.064-0.015,0.129-0.02,0.194c-0.025,0.305-0.053,0.608-0.091,0.91
	c-0.014,0.111-0.027,0.223-0.042,0.333c-0.135,0.971-0.325,1.925-0.573,2.854c0,0,0,0.001,0,0.002s0,0.002,0,0.002H68.48v6.12h1.876
	c-0.23,0.382-0.478,0.751-0.729,1.116c-0.042,0.063-0.08,0.128-0.123,0.19c-0.024,0.033-0.049,0.067-0.072,0.101
	c-0.012,0.016-0.022,0.031-0.033,0.047c-0.294,0.414-0.599,0.821-0.918,1.216v-2.67H62.361z M56.119,37.761v-6.12h6.12v6.12H56.119z
	 M56.119,43.88H50v-6.119h6.119V43.88z M62.361,37.761h6.119v6.119h-6.119V37.761z M56.119,49.999V43.88h6.12v6.119H56.119z
	 M62.239,56.118v-6.119h6.119v6.119H62.239z M56.119,56.118h6.12v6.12h-6.12V56.118z M50,56.118v-6.119h6.119v6.119H50z
	 M56.119,62.238v6.119H50v-6.119H56.119z M50,56.118v6.12h-6.119v-6.12H50z M43.881,68.397h-6.119v-6.119h6.119V68.397z
	 M31.642,56.079h6.12v6.119h-6.12V56.079z M77.244,13.201c0.564,0.41,0.689,1.201,0.279,1.766l-7.181,9.883
	c-0.247,0.34-0.633,0.521-1.022,0.521c-0.258,0-0.519-0.079-0.742-0.242c-0.565-0.41-0.689-1.2-0.28-1.765l7.181-9.884
	C75.89,12.917,76.679,12.792,77.244,13.201z M79.648,40.799c-0.217-0.664,0.147-1.377,0.811-1.593l11.618-3.775
	c0.665-0.212,1.377,0.148,1.594,0.813c0.215,0.664-0.148,1.377-0.813,1.592L81.241,41.61c-0.131,0.042-0.262,0.062-0.392,0.062
	C80.317,41.672,79.821,41.333,79.648,40.799z M93.416,64.538c-0.174,0.534-0.67,0.874-1.202,0.874c-0.129,0-0.261-0.021-0.391-0.063
	l-11.618-3.774c-0.664-0.217-1.026-0.929-0.812-1.593c0.217-0.663,0.93-1.026,1.593-0.812l11.618,3.774
	C93.269,63.162,93.632,63.874,93.416,64.538z M76.858,85.516c0.41,0.564,0.284,1.354-0.28,1.766
	c-0.224,0.163-0.484,0.241-0.741,0.241c-0.391,0-0.776-0.181-1.023-0.521l-7.181-9.883c-0.41-0.564-0.285-1.354,0.28-1.766
	c0.564-0.409,1.354-0.284,1.765,0.28L76.858,85.516z M50.854,82.303V94.52c0,0.697-0.566,1.264-1.264,1.264
	c-0.699,0-1.264-0.566-1.264-1.264V82.303c0-0.697,0.565-1.264,1.264-1.264C50.287,81.039,50.854,81.605,50.854,82.303z
	 M31.423,74.87c0.564,0.41,0.689,1.201,0.28,1.766l-7.182,9.883c-0.247,0.34-0.632,0.52-1.023,0.52c-0.258,0-0.517-0.078-0.741-0.24
	c-0.565-0.41-0.689-1.201-0.279-1.766l7.18-9.883C30.069,74.585,30.859,74.46,31.423,74.87z M20.354,59.2
	c0.215,0.664-0.148,1.377-0.813,1.593L7.923,64.568c-0.13,0.042-0.261,0.062-0.39,0.062c-0.533,0-1.028-0.34-1.203-0.873
	c-0.216-0.664,0.148-1.377,0.812-1.593l11.618-3.775C19.425,58.175,20.138,58.537,20.354,59.2z M20.607,40.017
	c-0.174,0.534-0.671,0.874-1.202,0.874c-0.129,0-0.262-0.021-0.391-0.063L7.396,37.054c-0.663-0.216-1.027-0.929-0.811-1.593
	c0.216-0.663,0.929-1.024,1.592-0.812l11.618,3.775C20.459,38.64,20.822,39.353,20.607,40.017z M23.142,14.483
	c-0.409-0.564-0.284-1.354,0.28-1.766c0.564-0.408,1.355-0.284,1.765,0.28l7.181,9.883c0.41,0.564,0.286,1.354-0.279,1.766
	c-0.225,0.163-0.483,0.241-0.741,0.241c-0.391,0-0.776-0.181-1.023-0.521L23.142,14.483z M49.147,17.696V5.48
	c0-0.698,0.566-1.264,1.264-1.264c0.698,0,1.264,0.565,1.264,1.264v12.216c0,0.697-0.565,1.264-1.264,1.264
	C49.714,18.96,49.147,18.394,49.147,17.696z"/>
</svg>
