<?xml version="1.0" encoding="utf-8"?>
<!-- Generator: Adobe Illustrator 16.0.0, SVG Export Plug-In . SVG Version: 6.00 Build 0)  -->
<!DOCTYPE svg PUBLIC "-//W3C//DTD SVG 1.1//EN" "http://www.w3.org/Graphics/SVG/1.1/DTD/svg11.dtd">
<svg version="1.1" id="Layer_11" xmlns="http://www.w3.org/2000/svg" xmlns:xlink="http://www.w3.org/1999/xlink" x="0px" y="0px"
	 width="100px" height="100px" viewBox="0 0 100 100" enable-background="new 0 0 100 100" xml:space="preserve">
<path d="M93.949,51.286c0.963-0.61,1.314-1.863,0.768-2.887L84.014,29.328c-0.188-0.351-0.466-0.644-0.807-0.849
	c-0.299-0.18-3.007-1.711-6.415-0.6c-3.027,0.987-5.491,2.741-7.321,7.076c-0.473,1.118,0.05,2.408,1.168,2.881
	c1.119,0.474,2.74,0.038,2.884-1.169c0.384-3.238,1.324-4.653,4.571-5.528c1.018-0.274,1.881-0.181,2.398-0.012l3.464,12.122
	l0.868,0.912c-0.662-0.113-1.343-0.173-2.039-0.173H64.283c-4.263,0-8.019,2.199-10.199,5.522c-0.808-0.996-2.041-1.633-3.424-1.633
	h-2.096c-1.148,0-2.189,0.442-2.976,1.16c-2.217-3.058-5.814-5.05-9.872-5.05H17.215c-0.215,0-0.427,0.004-0.639,0.016l3.436-12.018
	c0.516-0.167,1.379-0.262,2.397,0.013c3.246,0.875,4.189,2.288,4.573,5.527c0.141,1.207,1.762,1.644,2.881,1.169
	c1.119-0.473,1.644-1.763,1.169-2.881c-1.831-4.333-4.294-6.089-7.319-7.075c-3.411-1.112-6.119,0.42-6.416,0.599
	c-0.342,0.205-0.621,0.498-0.808,0.849L5.786,49.259c-0.404,0.759-0.313,1.642,0.148,2.3c-0.587,1.426-0.911,2.986-0.911,4.62
	c0,0.044,0,0.086,0.005,0.13l0.514,4.606c0.036,6.692,5.49,11.605,12.191,11.605h17.724c0.004,0,0.007,0,0.012,0
	c0.2,0,0.395-0.033,0.575-0.094c2.436-0.505,9.688-2.25,11.065-11.306c0.003-0.026,0.007-0.053,0.01-0.08l0.333-0.513
	c0.356,0.094,0.726,0.147,1.112,0.147h2.096c0.664,0,1.292-0.151,1.86-0.414l0.36,0.779c0.003,0.027,0.005,0.054,0.01,0.08
	c1.381,9.091,8.687,10.817,11.094,11.312c0.176,0.057,0.362,0.088,0.559,0.088h17.724c6.701,0,12.155-4.913,12.191-11.605
	l0.514-4.606c0.003-0.044,0.005-0.086,0.005-0.13C94.977,54.439,94.609,52.785,93.949,51.286z M14.26,67.019l9.743-18.395h5.757
	l-9.743,18.395H14.26z M24.267,67.019H22.01l9.743-18.395h2.257L24.267,67.019z M63.76,67.019l9.743-18.395h5.757l-9.743,18.395
	H63.76z M73.767,67.019H71.51l9.743-18.395h2.257L73.767,67.019z"/>
</svg>
