<?xml version="1.0" encoding="utf-8"?>
<!-- Generator: Adobe Illustrator 16.0.0, SVG Export Plug-In . SVG Version: 6.00 Build 0)  -->
<!DOCTYPE svg PUBLIC "-//W3C//DTD SVG 1.1//EN" "http://www.w3.org/Graphics/SVG/1.1/DTD/svg11.dtd">
<svg version="1.1" id="Layer_11" xmlns="http://www.w3.org/2000/svg" xmlns:xlink="http://www.w3.org/1999/xlink" x="0px" y="0px"
	 width="100px" height="100px" viewBox="0 0 100 100" enable-background="new 0 0 100 100" xml:space="preserve">
<g>
	<path d="M96.622,28.645c-1.613-6.082-5.563-11.705-11.122-15.83c-5.27-3.912-11.481-6.066-17.491-6.066
		c-3.383,0-6.632,0.701-9.429,2.031c-0.896-0.09-1.778-0.135-2.629-0.135c-17.354,0-31.544,16.686-32.169,37.494
		c-2.667,0.205-5.299,0.865-7.843,1.965C5.554,52.602,0.076,63.121,3.728,71.557c2.454,5.666,8.514,9.186,15.814,9.186
		c3.216,0,6.551-0.707,9.644-2.049c1.682-0.727,3.278-1.643,4.763-2.727c5.438,6.158,12.43,9.826,19.878,10.414
		c0.797,0.77,1.632,1.48,2.488,2.115c4.133,3.066,9.006,4.756,13.724,4.756c0,0,0,0,0,0c5.278,0,9.904-2.152,12.691-5.908
		c3.711-4.998,3.705-11.93,0.04-18.266c3.069-5.578,4.887-11.996,5.287-18.67c2.33-1.254,4.29-2.939,5.835-5.021
		C97.298,40.797,98.268,34.852,96.622,28.645z M91.483,43.6c-1.426,1.922-3.286,3.439-5.527,4.514l-0.813,0.391l-0.037,0.9
		c-0.281,6.816-2.138,13.369-5.369,18.947l-0.455,0.785l0.484,0.766c3.451,5.471,3.664,11.469,0.556,15.654
		c-2.248,3.029-5.899,4.697-10.283,4.697c0,0,0,0-0.001,0c-4.078,0-8.317-1.479-11.937-4.166c-0.882-0.654-1.741-1.402-2.553-2.221
		l-0.404-0.408l-0.574-0.033c-7.253-0.416-14.087-4.135-19.244-10.469l-0.953-1.172l-1.164,0.961
		c-1.587,1.311-3.342,2.385-5.216,3.197c-2.719,1.178-5.642,1.801-8.452,1.801c-6.086,0-11.091-2.828-13.063-7.379
		c-2.995-6.918,1.782-15.67,10.65-19.51c2.641-1.143,5.384-1.744,8.152-1.787l1.476-0.035v-1.477
		c0-19.803,13.096-35.912,29.193-35.912c0.877,0,1.796,0.055,2.73,0.16l0.446,0.051l0.401-0.201c2.468-1.25,5.401-1.908,8.481-1.908
		c5.371,0,10.948,1.945,15.704,5.475c5.016,3.725,8.571,8.764,10.012,14.193C95.131,34.721,94.335,39.758,91.483,43.6z"/>
	<path d="M52.577,26.135c-7.36,0-13.327,5.967-13.327,13.326c0,7.361,5.966,13.326,13.327,13.326c7.36,0,13.327-5.965,13.327-13.326
		C65.903,32.102,59.937,26.135,52.577,26.135z M56.533,33.85c-1.849-1.682-3.556-2.348-5.064-1.986
		c-2.326,0.557-3.909,3.51-4.322,4.6l-1.869-0.709c0.076-0.201,1.906-4.92,5.726-5.836c2.194-0.525,4.506,0.301,6.875,2.453
		L56.533,33.85z"/>
	<path d="M43.728,67.592c-0.167,0.168-0.333,0.334-0.5,0.5c-0.456,0.455,0.25,1.162,0.707,0.707c0.166-0.168,0.333-0.334,0.5-0.5
		C44.891,67.844,44.184,67.137,43.728,67.592z"/>
	<path d="M70.066,52.953c0,1.5,0,2.998,0,4.498c0,0.645,1,0.645,1,0c0-1.5,0-2.998,0-4.498
		C71.066,52.309,70.066,52.309,70.066,52.953z"/>
	<path d="M66.568,64.947c-0.643-0.057-0.637,0.943,0,1c0.45,0.039,0.849,0.555,1.146,0.852c0.457,0.457,1.164-0.25,0.707-0.705
		C67.889,65.563,67.351,65.016,66.568,64.947z"/>
	<path d="M24.092,58.451c-1.402,0-2.78,0.15-3.851,1.145c-0.474,0.439,0.235,1.145,0.707,0.707c0.864-0.803,2.027-0.852,3.145-0.854
		C24.737,59.449,24.737,58.451,24.092,58.451z"/>
	<path d="M76.563,38.961c-0.645,0-0.645,1,0,1C77.208,39.961,77.208,38.961,76.563,38.961z"/>
	<path d="M81.06,24.969c-0.645,0-0.645,1,0,1S81.705,24.969,81.06,24.969z"/>
</g>
</svg>
