<?xml version="1.0" encoding="utf-8"?>
<!-- Generator: Adobe Illustrator 16.0.0, SVG Export Plug-In . SVG Version: 6.00 Build 0)  -->
<!DOCTYPE svg PUBLIC "-//W3C//DTD SVG 1.1//EN" "http://www.w3.org/Graphics/SVG/1.1/DTD/svg11.dtd">
<svg version="1.1" id="Layer_13" xmlns="http://www.w3.org/2000/svg" xmlns:xlink="http://www.w3.org/1999/xlink" x="0px" y="0px"
	 width="100px" height="100px" viewBox="0 0 100 100" enable-background="new 0 0 100 100" xml:space="preserve">
<path d="M74.741,20.748c-0.069-0.357-0.256-0.686-0.546-0.919c-6.768-5.462-15.286-8.471-23.985-8.471s-17.218,3.009-23.985,8.471
	c-0.128,0.104-0.229,0.229-0.317,0.365C16.93,27.494,11.78,38.298,11.78,49.852c0,12.163,5.593,23.324,15.343,30.621
	c0.345,0.257,0.76,0.351,1.154,0.295c6.392,5.077,14.389,7.875,22.558,7.875c8.262,0,16.351-2.857,22.778-8.045
	c0.354-0.287,0.553-0.712,0.568-1.162c8.937-7.294,14.038-17.979,14.038-29.584C88.22,38.583,83.313,28.036,74.741,20.748z
	 M28.857,21.731c6.169-4.746,13.534-7.25,21.353-7.25c7.77,0,15.089,2.475,21.235,7.163C70.392,32.597,61.056,41.119,50,41.119
	c-10.428,0-19.328-7.582-21.189-17.635l-0.287-1.424L28.857,21.731z M70.389,79.13c-5.702,4.181-12.427,6.389-19.554,6.389
	c-7.375,0-14.321-2.357-20.146-6.825c0.02-0.146,0.046-0.291,0.068-0.436c2.854-9.13,10.668-15.263,19.452-15.263
	c9.305,0,17.525,5.932,20.458,14.761c0.043,0.131,0.325,0.874,0.397,0.984L70.389,79.13z M73.367,76.023
	C69.803,66.329,60.597,59.87,50.21,59.87c-9.936,0-18.771,6.711-22.207,16.774c-0.08,0.118-0.14,0.25-0.187,0.391
	c-8.219-6.699-12.912-16.518-12.912-27.183c0-9.689,3.941-18.804,10.904-25.419C28.093,35.754,38.192,44.244,50,44.244
	s21.907-8.489,24.191-19.811c6.963,6.615,10.904,15.73,10.904,25.419C85.096,59.992,80.85,69.366,73.367,76.023z"/>
</svg>
