<?xml version="1.0" encoding="utf-8"?>
<!-- Generator: Adobe Illustrator 16.0.0, SVG Export Plug-In . SVG Version: 6.00 Build 0)  -->
<!DOCTYPE svg PUBLIC "-//W3C//DTD SVG 1.1//EN" "http://www.w3.org/Graphics/SVG/1.1/DTD/svg11.dtd">
<svg version="1.1" id="Layer_13" xmlns="http://www.w3.org/2000/svg" xmlns:xlink="http://www.w3.org/1999/xlink" x="0px" y="0px"
	 width="100px" height="100px" viewBox="0 0 100 100" enable-background="new 0 0 100 100" xml:space="preserve">
<path d="M58.737,8.7c-3.185,0-3.938,2.353-8.737,2.353S44.447,8.7,41.264,8.7c-9.65,0-17.474,11.549-17.474,25.796
	c0,8.829,7.506,29.173,7.506,33.793c0,12.708,3.306,23.011,7.383,23.011c4.078,0,7.383-10.303,7.383-23.011
	c0-2.979-0.183-5.823-0.514-8.437c0-2.669-0.47-3.021,5.56-3.021c4.399,0,4.339,0.723,4.061,2.72c-0.355,2.695,0,5.645,0,8.738
	c0,12.708,3.305,23.011,7.383,23.011s7.383-10.303,7.383-23.011c0-3.395,6.276-18.991,6.276-33.793
	C76.21,14.271,68.387,8.7,58.737,8.7z"/>
</svg>
