<?xml version="1.0" encoding="utf-8"?>
<!-- Generator: Adobe Illustrator 16.0.0, SVG Export Plug-In . SVG Version: 6.00 Build 0)  -->
<!DOCTYPE svg PUBLIC "-//W3C//DTD SVG 1.1//EN" "http://www.w3.org/Graphics/SVG/1.1/DTD/svg11.dtd">
<svg version="1.1" id="Layer_13" xmlns="http://www.w3.org/2000/svg" xmlns:xlink="http://www.w3.org/1999/xlink" x="0px" y="0px"
	 width="100px" height="100px" viewBox="0 0 100 100" enable-background="new 0 0 100 100" xml:space="preserve">
<path d="M58.737,6.854c-1.869,0-3.127,0.635-4.236,1.194C53.32,8.645,52.205,9.207,50,9.207c-2.206,0-3.321-0.563-4.501-1.158
	c-1.11-0.56-2.367-1.194-4.235-1.194c-10.653,0-19.319,12.4-19.319,27.642c0,5.377,2.506,14.303,4.718,22.178
	c1.37,4.882,2.788,9.93,2.788,11.615c0,12.352,3.17,24.856,9.229,24.856c6.06,0,9.229-12.505,9.229-24.856
	c0-2.939-0.173-5.816-0.515-8.554c0-0.157-0.002-0.306-0.004-0.446c-0.002-0.151-0.005-0.319-0.003-0.468
	c0.891-0.145,2.893-0.145,3.722-0.145c1.256,0,1.935,0.066,2.296,0.129c-0.02,0.17-0.045,0.359-0.065,0.504
	c-0.255,1.936-0.177,3.886-0.096,5.95c0.04,0.99,0.08,2.013,0.08,3.029c0,12.352,3.169,24.856,9.229,24.856
	s9.229-12.505,9.229-24.856c0-0.849,0.719-3.449,1.48-6.203c1.909-6.901,4.795-17.33,4.795-27.59
	C78.056,16.154,71.556,6.854,58.737,6.854z M69.703,61.102c-1.062,3.836-1.615,5.897-1.615,7.188
	c0,13.694-3.658,21.165-5.537,21.165s-5.537-7.471-5.537-21.165c0-1.089-0.042-2.149-0.083-3.176
	c-0.075-1.902-0.146-3.699,0.065-5.308c0.148-1.065,0.333-2.393-0.604-3.468c-0.984-1.131-2.684-1.353-5.285-1.353
	c-3.798,0-5.452,0.109-6.531,1.204c-0.909,0.92-0.894,2.054-0.88,3.148l0.006,0.515c0,0.078,0.005,0.155,0.015,0.232
	c0.332,2.617,0.499,5.378,0.499,8.204c0,13.694-3.657,21.165-5.537,21.165c-1.879,0-5.537-7.471-5.537-21.165
	c0-2.088-1.112-6.153-2.926-12.613c-2.041-7.267-4.58-16.312-4.58-21.18c0-13.206,7.011-23.95,15.628-23.95
	c0.989,0,1.62,0.318,2.573,0.799c1.371,0.691,3.078,1.554,6.163,1.554c1.542,0,2.739-0.216,3.724-0.518l-1.14,7.877l6.398,1.846
	l-3.692,8.737l8.614-2.707l6.646,4.225l2.871-8.39c0.599,2.868,0.943,6.331,0.943,10.527C74.364,44.254,71.56,54.393,69.703,61.102z
	"/>
</svg>
