<?xml version="1.0" encoding="utf-8"?>
<!-- Generator: Adobe Illustrator 16.0.0, SVG Export Plug-In . SVG Version: 6.00 Build 0)  -->
<!DOCTYPE svg PUBLIC "-//W3C//DTD SVG 1.1//EN" "http://www.w3.org/Graphics/SVG/1.1/DTD/svg11.dtd">
<svg version="1.1" id="Layer_12" xmlns="http://www.w3.org/2000/svg" xmlns:xlink="http://www.w3.org/1999/xlink" x="0px" y="0px"
	 width="100px" height="100px" viewBox="0 0 100 100" enable-background="new 0 0 100 100" xml:space="preserve">
<path d="M8.208,47.98L32.193,7.123c0.383-0.656,1.124-1.064,1.931-1.064s1.548,0.408,1.93,1.063l16.294,27.756l-2.253,1.174
	L37.187,13.285c-0.467-0.793-1.365-1.229-2.276-1.1c-0.911,0.127-1.656,0.791-1.887,1.682l-8.917,36.109
	c-0.174,0.598-0.094,1.244,0.221,1.781c0.315,0.539,0.837,0.924,1.445,1.068c2.873,0.672,5.839,1.014,8.814,1.014h0.001
	c0.305,0,0.606-0.006,0.906-0.012l0.014,2.904c-0.641,0.023-1.287,0.039-1.944,0.039h-0.003c-8.638,0-16.882-2.029-24.507-6.033
	c-0.518-0.273-0.888-0.717-1.04-1.254C7.867,48.975,7.937,48.441,8.208,47.98z M39.196,47.596c0.002-0.414,0.235-0.793,0.605-0.979
	l25.186-13.129c0.289-0.145,0.625-0.156,0.922-0.031l25.481,12.34c0.021,0.01,0.038,0.025,0.06,0.037
	c0.025,0.012,0.052,0.018,0.076,0.033c0.025,0.014,0.044,0.035,0.068,0.053c0.037,0.025,0.071,0.051,0.104,0.082
	c0.041,0.037,0.077,0.076,0.111,0.119c0.027,0.033,0.054,0.066,0.078,0.104c0.03,0.047,0.053,0.098,0.076,0.148
	c0.017,0.039,0.035,0.076,0.047,0.115c0.018,0.059,0.025,0.117,0.034,0.178c0.004,0.031,0.016,0.061,0.017,0.092
	c0,0.008-0.002,0.016-0.002,0.023c0,0.01,0.003,0.02,0.003,0.029v32.621c0,0.404-0.222,0.775-0.577,0.969L66.759,93.809
	c-0.163,0.088-0.343,0.133-0.523,0.133c-0.195,0-0.39-0.053-0.563-0.156c-0.101-0.061-0.186-0.139-0.261-0.225c0,0-0.001,0-0.002,0
	c-0.179,0-0.358-0.045-0.521-0.131L39.846,80.316c-0.354-0.189-0.576-0.561-0.579-0.963L39.122,48c0-0.135,0.032-0.264,0.078-0.387
	C39.199,47.607,39.196,47.602,39.196,47.596z M67.335,90.998l22.527-12.223V48.654L67.335,61.242V90.998z M66.223,59.344
	L88.42,46.932l-22.898-11.25l-22.804,11.93L66.223,59.344z M53.667,18.084c0,0.4,0.156,0.777,0.439,1.061l3.667,3.667
	c0.566,0.566,1.555,0.566,2.121,0c0.283-0.283,0.439-0.66,0.439-1.061s-0.156-0.777-0.439-1.061l-1.386-1.386
	c0.903-0.106,1.796-0.16,2.668-0.16c13.504,0,19.396,12.754,19.454,12.883c0.241,0.539,0.779,0.888,1.37,0.888
	c0.213,0,0.419-0.044,0.612-0.131c0.753-0.337,1.094-1.226,0.757-1.98c-0.066-0.148-6.776-14.652-22.19-14.652
	c-0.671,0-1.354,0.028-2.042,0.083l0.757-0.757c0.283-0.283,0.439-0.66,0.439-1.061s-0.156-0.777-0.439-1.061
	c-0.566-0.566-1.555-0.566-2.121,0l-3.667,3.667C53.823,17.307,53.667,17.684,53.667,18.084z"/>
</svg>
