<?xml version="1.0" encoding="utf-8"?>
<!-- Generator: Adobe Illustrator 16.0.0, SVG Export Plug-In . SVG Version: 6.00 Build 0)  -->
<!DOCTYPE svg PUBLIC "-//W3C//DTD SVG 1.1//EN" "http://www.w3.org/Graphics/SVG/1.1/DTD/svg11.dtd">
<svg version="1.1" id="Layer_13" xmlns="http://www.w3.org/2000/svg" xmlns:xlink="http://www.w3.org/1999/xlink" x="0px" y="0px"
	 width="100px" height="100px" viewBox="0 0 100 100" enable-background="new 0 0 100 100" xml:space="preserve">
<g>
	<path d="M39.039,8.535c-6.838-0.77-9.352,8.962-9.455,9.378c-0.127,0.502,0.18,1.011,0.682,1.137
		c0.076,0.019,0.152,0.027,0.229,0.027c0.42,0,0.803-0.283,0.908-0.709c0.023-0.086,2.227-8.575,7.424-7.969
		c0.512,0.058,0.979-0.31,1.039-0.824C39.924,9.06,39.555,8.595,39.039,8.535z"/>
	<path d="M77.773,32.283c0-12.086-7.939-21.918-17.699-21.918c-1.725,0-3.391,0.314-4.969,0.889
		c-3.229-5.35-8.385-8.819-14.18-8.819c-9.76,0-17.699,9.833-17.699,21.918c0,11.185,6.801,20.433,15.551,21.75l-0.023,0.12
		c-0.887,0.435-1.686,1.023-2.285,1.865c-0.914,1.285-0.807,2.996-0.434,4.442c0.928,3.591,3.57,6.416,4.869,9.841
		c1.756,4.632-0.326,9.215-1.994,13.523c-1.738,4.488-2.572,8.988-0.117,13.394c0.443,0.792,1.658,0.084,1.217-0.709
		c-2.389-4.283-1.203-8.572,0.471-12.861c1.549-3.975,3.154-7.984,2.199-12.314c-0.73-3.303-3.023-6.079-4.463-9.082
		c-0.652-1.354-1.291-2.983-0.975-4.509c0.158-0.766,0.604-1.342,1.184-1.785l-0.416,2.295c-0.051,0.273,0.023,0.555,0.203,0.768
		c0.178,0.214,0.441,0.337,0.719,0.337h4.688c0.271,0,0.529-0.116,0.709-0.321c0.178-0.203,0.258-0.475,0.221-0.742l-0.604-4.42
		c0.666-0.142,1.314-0.334,1.951-0.566c2.824,4.679,7.121,7.917,12.031,8.656l-0.021,0.121c-0.891,0.435-1.688,1.022-2.287,1.865
		c-0.914,1.285-0.807,2.995-0.434,4.441c0.93,3.592,3.57,6.416,4.869,9.84c1.756,4.634-0.328,9.217-1.996,13.525
		c-1.738,4.488-2.572,8.988-0.113,13.394c0.439,0.792,1.656,0.083,1.213-0.71c-2.389-4.283-1.203-8.572,0.471-12.861
		c1.553-3.974,3.154-7.984,2.199-12.314c-0.729-3.302-3.021-6.078-4.463-9.081c-0.648-1.354-1.289-2.983-0.973-4.509
		c0.158-0.766,0.602-1.343,1.186-1.785l-0.418,2.294c-0.049,0.273,0.025,0.555,0.201,0.769c0.18,0.213,0.443,0.337,0.721,0.337
		h4.689c0.27,0,0.527-0.118,0.705-0.321c0.18-0.203,0.26-0.475,0.225-0.744l-0.604-4.418C71.422,52.094,77.773,43.093,77.773,32.283
		z M40.055,49.552l0.461-2.523c0.404-0.126,0.809-0.229,1.182-0.315c0.207-0.046,0.344-0.158,0.422-0.297l0.428,3.136H40.055z
		 M40.926,44.395c-8.725,0-15.824-8.99-15.824-20.042S32.201,4.31,40.926,4.31s15.822,8.991,15.822,20.043
		S49.65,44.395,40.926,44.395z M59.207,57.482l0.457-2.523c0.408-0.126,0.811-0.229,1.184-0.314
		c0.207-0.047,0.344-0.159,0.422-0.297l0.428,3.135H59.207z M60.074,52.326c-5.049,0-9.551-3.015-12.451-7.695
		c6.447-3.275,11-11.129,11-20.278c0-2.09-0.242-4.109-0.686-6.024c0.014,0.002,0.025,0.001,0.037,0.002
		c0.514,0.059,0.98-0.31,1.039-0.824c0.061-0.515-0.309-0.979-0.822-1.039c-0.264-0.03-0.52-0.04-0.77-0.038
		c-0.387-1.227-0.855-2.402-1.406-3.51c1.297-0.438,2.656-0.678,4.059-0.678c8.725,0,15.824,8.991,15.824,20.042
		C75.898,43.335,68.799,52.326,60.074,52.326z"/>
</g>
</svg>
