<?xml version="1.0" encoding="utf-8"?>
<!-- Generator: Adobe Illustrator 16.0.0, SVG Export Plug-In . SVG Version: 6.00 Build 0)  -->
<!DOCTYPE svg PUBLIC "-//W3C//DTD SVG 1.1//EN" "http://www.w3.org/Graphics/SVG/1.1/DTD/svg11.dtd">
<svg version="1.1" id="Layer_13" xmlns="http://www.w3.org/2000/svg" xmlns:xlink="http://www.w3.org/1999/xlink" x="0px" y="0px"
	 width="100px" height="100px" viewBox="0 0 100 100" enable-background="new 0 0 100 100" xml:space="preserve">
<path d="M75.564,59.697V47.205H63.297c-2.516,2.968-6.266,4.857-10.461,4.857c-4.193,0-7.943-1.89-10.457-4.857H20.137v4.767
	c0,2.926-2.371,5.296-5.297,5.296c-2.924,0-5.295-2.37-5.295-5.296V30.294c0-2.926,2.371-5.296,5.295-5.296
	c2.926,0,5.297,2.37,5.297,5.296v3.031h19.959c1.414-3.576,4.285-6.406,7.883-7.772v-4.719h-6.246c-2.682,0-4.857-2.175-4.857-4.859
	c0-2.683,2.176-4.857,4.857-4.857h22.209c2.684,0,4.857,2.175,4.857,4.857c0,2.685-2.174,4.859-4.857,4.859h-6.246v4.719
	c3.6,1.366,6.469,4.196,7.883,7.772h16.928c3.832,0,6.939,3.107,6.939,6.94v19.432H75.564z M82.736,79.745
	c-3.465,0-6.271-2.808-6.271-6.271s6.271-9.997,6.271-9.997s6.273,6.533,6.273,9.997S86.201,79.745,82.736,79.745z M87.939,73.939
	c0,0-0.496,2.671-3.229,4.285C84.711,78.225,88.189,77.666,87.939,73.939z M90.662,86.534c0,1.297-1.051,2.349-2.348,2.349
	s-2.348-1.052-2.348-2.349s2.348-3.742,2.348-3.742S90.662,85.237,90.662,86.534z M90.264,86.709c0,0-0.188,1-1.211,1.604
	C89.053,88.313,90.355,88.104,90.264,86.709z"/>
</svg>
