<?xml version="1.0" encoding="utf-8"?>
<!-- Generator: Adobe Illustrator 16.0.0, SVG Export Plug-In . SVG Version: 6.00 Build 0)  -->
<!DOCTYPE svg PUBLIC "-//W3C//DTD SVG 1.1//EN" "http://www.w3.org/Graphics/SVG/1.1/DTD/svg11.dtd">
<svg version="1.1" id="Layer_13" xmlns="http://www.w3.org/2000/svg" xmlns:xlink="http://www.w3.org/1999/xlink" x="0px" y="0px"
	 width="100px" height="100px" viewBox="0 0 100 100" enable-background="new 0 0 100 100" xml:space="preserve">
<path d="M95.583,42.324c-1.639-5.842-5.785-9.787-9.262-8.813c-2.922,0.819-4.438,4.859-3.871,9.598L65.196,57.957l-3.16-26.365
	H27.601l-0.117,1.234c-0.609-0.37-1.23-0.74-1.863-1.106c-8.977-5.208-15.07-6.909-18.627-5.194
	c-1.426,0.686-3.145,2.271-3.236,5.927c-0.209,8.429,6.041,14.832,11.555,20.481c4.725,4.841,9.188,9.412,8.572,14.176l0.299,0.039
	l-0.311,3.221c0,3.608,2.387,6.534,5.326,6.534l33.902,0.109c2.943,0,3.596-2.927,3.596-6.535l-0.639-5.325
	c0.545-0.344,1.127-0.713,1.76-1.117l16.691-14.454c2.021,3.683,5.082,5.837,7.75,5.088C95.733,53.694,97.222,48.167,95.583,42.324z
	 M24.95,59.172c-1.816-2.902-4.518-5.671-7.299-8.521C12.339,45.21,6.849,39.584,7.024,32.533c0.061-2.426,1.059-2.905,1.387-3.064
	c3.238-1.559,11.385,2.373,18.725,6.961L24.95,59.172z M61.126,29.565H30.845c2.084-1.088,4.02-2.014,5.826-2.8
	c0.066,0.026,10.176,4.184,9.941,0.482c-0.088-1.367-1.008-2.447-2.135-3.265C59.845,19.93,61.126,29.565,61.126,29.565z"/>
</svg>
