<?xml version="1.0" encoding="utf-8"?>
<!-- Generator: Adobe Illustrator 16.0.0, SVG Export Plug-In . SVG Version: 6.00 Build 0)  -->
<!DOCTYPE svg PUBLIC "-//W3C//DTD SVG 1.1//EN" "http://www.w3.org/Graphics/SVG/1.1/DTD/svg11.dtd">
<svg version="1.1" id="Layer_13" xmlns="http://www.w3.org/2000/svg" xmlns:xlink="http://www.w3.org/1999/xlink" x="0px" y="0px"
	 width="100px" height="100px" viewBox="0 0 100 100" enable-background="new 0 0 100 100" xml:space="preserve">
<path d="M89.168,29.113c-5.127,0-8.441,1.963-8.441,5.002c0,0.676,0.172,1.299,0.486,1.857c-4.945,3.066-7.688,8.842-9.949,14.301
	c-2,4.826-4.109,10.955-8.457,14.119l-0.563-4.699L59.166,34.01H45.117V21.744h-5.846V34.01h-13.65l-0.113,1.203
	c-0.594-0.361-1.199-0.721-1.816-1.078c-8.744-5.074-14.68-6.73-18.145-5.061c-1.389,0.668-3.064,2.213-3.152,5.773
	C2.189,43.059,8.279,49.297,13.65,54.801c4.602,4.715,8.949,9.168,8.35,13.809l0.291,0.037l-0.303,3.139
	c0,3.514,2.326,6.365,5.189,6.365l33.025,0.105c2.867,0,3.502-2.85,3.502-6.365l-0.162-1.361c5.496-2.693,8.852-7.967,11.424-14.027
	c2.703-6.369,5-15.418,12.869-16.842c0.518-0.092,0.922-0.291,1.24-0.547c0.031,0,0.061,0.002,0.092,0.002
	c5.129,0,8.443-1.963,8.443-5C97.611,31.076,94.297,29.113,89.168,29.113z M23.039,60.877c-1.77-2.828-4.4-5.523-7.109-8.301
	C10.754,47.275,5.406,41.795,5.576,34.928c0.061-2.363,1.031-2.83,1.352-2.986c3.154-1.518,11.09,2.313,18.24,6.781L23.039,60.877z
	 M26.621,32.715h-0.486c6.209-4.141,11.689-3.289,11.689-3.289v3.289H26.621z M58.281,32.715H47.078v-3.289
	c0,0,5.479-0.852,11.689,3.289H58.281z"/>
</svg>
