<?xml version="1.0" encoding="utf-8"?>
<!-- Generator: Adobe Illustrator 16.0.0, SVG Export Plug-In . SVG Version: 6.00 Build 0)  -->
<!DOCTYPE svg PUBLIC "-//W3C//DTD SVG 1.1//EN" "http://www.w3.org/Graphics/SVG/1.1/DTD/svg11.dtd">
<svg version="1.1" id="Layer_13" xmlns="http://www.w3.org/2000/svg" xmlns:xlink="http://www.w3.org/1999/xlink" x="0px" y="0px"
	 width="100px" height="100px" viewBox="0 0 100 100" enable-background="new 0 0 100 100" xml:space="preserve">
<path d="M85.596,44.531c-0.336,0-0.657,0.075-0.968,0.18c-2.292-7.908-9.576-13.695-18.223-13.695c-1.291,0-2.55,0.132-3.768,0.377
	l-51.948,5.194l0.333,4.295l36.552,6.81C47.482,48.45,47.42,49.218,47.42,50c0,10.485,8.5,18.984,18.985,18.984
	c9.203,0,16.873-6.549,18.612-15.24c0.19,0.037,0.381,0.073,0.579,0.073c2.048,0,3.715-2.084,3.715-4.644
	S87.645,44.531,85.596,44.531z M66.405,59.905c-5.471,0-9.905-4.436-9.905-9.905s4.434-9.905,9.905-9.905S76.311,44.53,76.311,50
	S71.876,59.905,66.405,59.905z M85.596,52.579c-0.135,0-0.264-0.026-0.393-0.055c0.11-0.828,0.187-1.666,0.187-2.524
	c0-1.406-0.164-2.772-0.454-4.093c0.212-0.08,0.43-0.138,0.66-0.138c1.366,0,2.477,1.527,2.477,3.404
	C88.073,51.052,86.962,52.579,85.596,52.579z"/>
</svg>
