<?xml version="1.0" encoding="utf-8"?>
<!-- Generator: Adobe Illustrator 16.0.0, SVG Export Plug-In . SVG Version: 6.00 Build 0)  -->
<!DOCTYPE svg PUBLIC "-//W3C//DTD SVG 1.1//EN" "http://www.w3.org/Graphics/SVG/1.1/DTD/svg11.dtd">
<svg version="1.1" id="Layer_13" xmlns="http://www.w3.org/2000/svg" xmlns:xlink="http://www.w3.org/1999/xlink" x="0px" y="0px"
	 width="100px" height="100px" viewBox="0 0 100 100" enable-background="new 0 0 100 100" xml:space="preserve">
<path d="M85.596,55.323c-0.336,0-0.657,0.075-0.968,0.18c-2.292-7.908-9.576-13.695-18.223-13.695c-1.291,0-2.55,0.132-3.768,0.377
	l-51.948,5.194l0.333,4.295l36.552,6.81c-0.092,0.759-0.154,1.526-0.154,2.309c0,10.485,8.5,18.984,18.985,18.984
	c9.203,0,16.873-6.549,18.612-15.24c0.19,0.037,0.381,0.073,0.579,0.073c2.048,0,3.715-2.084,3.715-4.644
	S87.645,55.323,85.596,55.323z M66.405,70.697c-5.471,0-9.905-4.436-9.905-9.905s4.434-9.905,9.905-9.905s9.905,4.436,9.905,9.905
	S71.876,70.697,66.405,70.697z M85.596,63.371c-0.135,0-0.264-0.026-0.393-0.055c0.11-0.828,0.187-1.666,0.187-2.524
	c0-1.406-0.164-2.772-0.454-4.093c0.212-0.08,0.43-0.138,0.66-0.138c1.366,0,2.477,1.527,2.477,3.404
	C88.073,61.844,86.962,63.371,85.596,63.371z M64.5,36.622l-8.547-11.747l2.595-1.506L64.5,36.622z M78.894,26.749l-8.547,11.747
	l5.953-13.253L78.894,26.749z M67,34.674l-1.5-14.45h3L67,34.674z"/>
</svg>
