<?xml version="1.0" encoding="utf-8"?>
<!-- Generator: Adobe Illustrator 16.0.0, SVG Export Plug-In . SVG Version: 6.00 Build 0)  -->
<!DOCTYPE svg PUBLIC "-//W3C//DTD SVG 1.1//EN" "http://www.w3.org/Graphics/SVG/1.1/DTD/svg11.dtd">
<svg version="1.1" id="Layer_11" xmlns="http://www.w3.org/2000/svg" xmlns:xlink="http://www.w3.org/1999/xlink" x="0px" y="0px"
	 width="100px" height="100px" viewBox="0 0 100 100" enable-background="new 0 0 100 100" xml:space="preserve">
<path d="M61.383,30.244c-2.168-2.168-6.133-2.531-6.133-2.531v-9.846H44.375v9.846c0,0-3.637,0.41-5.758,2.531
	s-2.307,5.625-2.307,5.625v56.162c0,1.553,1.26,2.813,2.813,2.813h21.754c1.553,0,2.813-1.26,2.813-2.813V35.869
	C63.689,35.869,63.551,32.412,61.383,30.244z M59.563,75.248H40.717V44.309h18.846V75.248z M47.275,61.326H41.93v-3.109h5.35
	c0.225-4.527,1.391-7.979,2.797-7.979s2.57,3.451,2.797,7.979h5.197v3.109h-5.193c-0.217,4.564-1.385,8.057-2.801,8.057
	C48.662,69.383,47.492,65.891,47.275,61.326z M44.012,6.861h-1.215V5.156h1.215h11.68h1.541v1.705h-1.541v10.217h-11.68V6.861z"/>
</svg>
