<?xml version="1.0" encoding="utf-8"?>
<!-- Generator: Adobe Illustrator 16.0.0, SVG Export Plug-In . SVG Version: 6.00 Build 0)  -->
<!DOCTYPE svg PUBLIC "-//W3C//DTD SVG 1.1//EN" "http://www.w3.org/Graphics/SVG/1.1/DTD/svg11.dtd">
<svg version="1.1" id="Layer_11" xmlns="http://www.w3.org/2000/svg" xmlns:xlink="http://www.w3.org/1999/xlink" x="0px" y="0px"
	 width="100px" height="100px" viewBox="0 0 100 100" enable-background="new 0 0 100 100" xml:space="preserve">
<path d="M38.533,7.843h-1.182V6.187h1.182h11.354h1.5v1.656h-1.5v9.935H38.533V7.843z M54.795,89.52
	c0.504-0.392,1.152-0.632,1.787-0.783v-9.54c-1.975-0.892-3.699-2.599-5.061-4.872H35.223V44.443h18.201v14.578h3.984V36.294
	c0,0-0.135-3.339-2.229-5.433c-2.094-2.095-5.922-2.444-5.922-2.444v-9.508H38.754v9.508c0,0-3.512,0.396-5.559,2.444
	c-2.049,2.049-2.229,5.433-2.229,5.433v54.238c0,1.501,1.217,2.717,2.717,2.717h17.457c-0.041-0.23-0.041-0.433-0.041-0.582
	C51.1,90.573,53.279,89.831,54.795,89.52z M44.256,49.74c-1.293,0-2.367,3.159-2.602,7.335h-5.617v3.124h5.605
	c0.201,4.309,1.293,7.605,2.613,7.605s2.41-3.297,2.611-7.605h1.42v-1.178h3.777v-1.946h-5.209
	C46.623,52.899,45.547,49.74,44.256,49.74z M66.221,92.396c0,0.783-2.92,1.418-6.52,1.418c-3.602,0-6.52-0.635-6.52-1.418
	c0-0.481,1.109-0.907,2.803-1.163c-0.016-0.031-0.027-0.062-0.027-0.095c0-0.367,1.148-0.676,2.709-0.768V77.355
	c-4.668-0.913-8.297-7.919-8.297-16.433h18.664c0,8.514-3.631,15.521-8.297,16.433V90.38c1.477,0.103,2.549,0.402,2.549,0.758
	c0,0.024-0.008,0.05-0.018,0.074C65.045,91.464,66.221,91.899,66.221,92.396z M55.197,69.573c-1.965-2.875-2.139-7.027-2.141-7.068
	c-0.01-0.254-0.223-0.445-0.477-0.442c-0.254,0.01-0.451,0.222-0.441,0.476c0.006,0.181,0.182,4.455,2.299,7.555
	c0.09,0.129,0.234,0.199,0.381,0.199c0.088,0,0.18-0.026,0.258-0.08C55.285,70.069,55.34,69.783,55.197,69.573z"/>
</svg>
