<?xml version="1.0" encoding="utf-8"?>
<!-- Generator: Adobe Illustrator 16.0.0, SVG Export Plug-In . SVG Version: 6.00 Build 0)  -->
<!DOCTYPE svg PUBLIC "-//W3C//DTD SVG 1.1//EN" "http://www.w3.org/Graphics/SVG/1.1/DTD/svg11.dtd">
<svg version="1.1" id="Layer_12" xmlns="http://www.w3.org/2000/svg" xmlns:xlink="http://www.w3.org/1999/xlink" x="0px" y="0px"
	 width="100px" height="100px" viewBox="0 0 100 100" enable-background="new 0 0 100 100" xml:space="preserve">
<g>
	<path d="M59.533,85.546c0.025-0.065,0.046-0.132,0.046-0.198c0-0.95-2.865-1.751-6.813-2.025V48.324
		C65.516,46.131,72.241,28.693,72.241,7.5H53.254l-3.423,9.252l7.839,4.647l0.868,0.514l-0.471,0.768l-5.078,8.272l1.683,6.038
		l-2.438-5.974l-0.053-0.131l0.078-0.167l3.725-8.015l-8.759-3.908l-1.094-0.487l0.326-1.338L48.763,7.5H27.759
		c0,21.191,6.725,38.629,19.474,40.824v34.973c-4.171,0.245-7.241,1.069-7.241,2.051c0,0.088,0.031,0.169,0.073,0.253
		c-4.526,0.683-7.492,1.821-7.492,3.108c0,2.093,7.799,3.79,17.427,3.79c9.62,0,17.426-1.697,17.426-3.79
		C67.426,87.384,64.282,86.22,59.533,85.546z"/>
</g>
</svg>
