<?xml version="1.0" encoding="utf-8"?>
<!-- Generator: Adobe Illustrator 16.0.0, SVG Export Plug-In . SVG Version: 6.00 Build 0)  -->
<!DOCTYPE svg PUBLIC "-//W3C//DTD SVG 1.1//EN" "http://www.w3.org/Graphics/SVG/1.1/DTD/svg11.dtd">
<svg version="1.1" id="Layer_11" xmlns="http://www.w3.org/2000/svg" xmlns:xlink="http://www.w3.org/1999/xlink" x="0px" y="0px"
	 width="100px" height="100px" viewBox="0 0 100 100" enable-background="new 0 0 100 100" xml:space="preserve">
<path d="M77.633,11.533l-0.616-1.037H24.848c-1.2,0-1.668,0.762-2.518,2.141c-3.44,5.584-19.577,35.482,0.699,75.746l0.564,1.121
	h53.468l0.581-1.055C98.616,50.338,77.853,11.904,77.633,11.533z M25.933,14.574H74.62c0.694,1.422,2.03,4.361,3.431,8.432h-56.21
	C23.497,18.75,25.141,15.857,25.933,14.574z M18.937,32.492h61.813c0.896,3.941,1.625,8.355,1.968,13.113H58.711
	c-1.607-3.15-4.876-5.316-8.649-5.316c-3.772,0-7.042,2.166-8.649,5.316H17.188C17.388,40.754,18.05,36.359,18.937,32.492z
	 M42.793,50c0-4.008,3.26-7.268,7.268-7.268S57.33,45.992,57.33,50s-3.261,7.27-7.269,7.27S42.793,54.008,42.793,50z M74.642,85.432
	H26.11c-1.146-2.348-2.162-4.656-3.059-6.924h54.777C76.911,80.811,75.865,83.121,74.642,85.432z M19.897,69.021
	c-1.322-4.891-2.108-9.547-2.488-13.93h24.399c1.713,2.768,4.767,4.621,8.254,4.621s6.541-1.854,8.254-4.621h24.525
	c-0.209,4.482-0.827,9.156-1.987,13.93H19.897z"/>
</svg>
