<?xml version="1.0" encoding="utf-8"?>
<!-- Generator: Adobe Illustrator 16.0.0, SVG Export Plug-In . SVG Version: 6.00 Build 0)  -->
<!DOCTYPE svg PUBLIC "-//W3C//DTD SVG 1.1//EN" "http://www.w3.org/Graphics/SVG/1.1/DTD/svg11.dtd">
<svg version="1.1" id="Layer_11" xmlns="http://www.w3.org/2000/svg" xmlns:xlink="http://www.w3.org/1999/xlink" x="0px" y="0px"
	 width="100px" height="100px" viewBox="0 0 100 100" enable-background="new 0 0 100 100" xml:space="preserve">
<path d="M57.877,80.574c0.021-0.054,0.038-0.109,0.038-0.163c0-0.785-2.367-1.447-5.629-1.674V49.972
	C62.592,47.958,70.61,32.482,70.61,13.68H29.39c0,18.803,8.016,34.275,18.324,36.292v28.744c-3.446,0.202-5.982,0.884-5.982,1.695
	c0,0.072,0.025,0.14,0.061,0.209c-3.74,0.564-6.19,1.505-6.19,2.568c0,1.729,6.444,3.132,14.399,3.132
	c7.949,0,14.398-1.402,14.398-3.132C64.399,82.093,61.802,81.131,57.877,80.574z M39.786,34.195
	c-0.173,0.118-0.375,0.177-0.57,0.177c-0.322,0-0.643-0.155-0.841-0.44c-4.676-6.846-5.063-16.286-5.077-16.685
	c-0.021-0.561,0.414-1.029,0.975-1.051c0.562-0.006,1.031,0.416,1.053,0.978c0.004,0.091,0.389,9.261,4.729,15.61
	C40.368,33.248,40.247,33.88,39.786,34.195z"/>
</svg>
