<?xml version="1.0" encoding="utf-8"?>
<!-- Generator: Adobe Illustrator 16.0.0, SVG Export Plug-In . SVG Version: 6.00 Build 0)  -->
<!DOCTYPE svg PUBLIC "-//W3C//DTD SVG 1.1//EN" "http://www.w3.org/Graphics/SVG/1.1/DTD/svg11.dtd">
<svg version="1.1" id="Layer_12" xmlns="http://www.w3.org/2000/svg" xmlns:xlink="http://www.w3.org/1999/xlink" x="0px" y="0px"
	 width="100px" height="100px" viewBox="0 0 100 100" enable-background="new 0 0 100 100" xml:space="preserve">
<path d="M91.167,50C91.167,27.3,72.7,8.833,50,8.833c-0.47,0-0.934,0.02-1.401,0.036v-0.01c-0.135,0-0.266,0.017-0.401,0.02
	c-0.21,0.01-0.421,0.021-0.631,0.033c-0.503,0.024-1.004,0.055-1.497,0.114C25.208,11.011,8.833,28.627,8.833,50
	C8.833,72.7,27.3,91.167,50,91.167S91.167,72.7,91.167,50z M55.193,30.905c0,2.868-2.326,5.193-5.193,5.193
	c-2.868,0-5.193-2.325-5.193-5.193c0-2.868,2.325-5.193,5.193-5.193C52.867,25.712,55.193,28.038,55.193,30.905z M67.545,69.683
	c0,10.053-8.497,18.231-18.941,18.231v0.034C28.305,87.211,12.016,70.477,12.016,50c0-16.67,10.8-30.857,25.768-35.957
	c-5.579,3.616-9.291,9.911-9.291,17.072c0,11.177,9.017,20.271,20.112,20.305v0.032C59.049,51.452,67.545,59.63,67.545,69.683z
	 M50,75.52c-2.868,0-5.193-2.325-5.193-5.193c0-2.868,2.325-5.193,5.193-5.193c2.867,0,5.193,2.325,5.193,5.193
	C55.193,73.195,52.867,75.52,50,75.52z"/>
</svg>
